<?xml version="1.0" encoding="UTF-8"?><svg id="Layer_2" xmlns="http://www.w3.org/2000/svg" viewBox="0 0 91.92 91.92"><defs><style>.cls-1{stroke-miterlimit:10;stroke-width:.5px;}.cls-1,.cls-2,.cls-3{fill:none;}.cls-1,.cls-2,.cls-3,.cls-4,.cls-5{stroke:#fff;}.cls-2{stroke-miterlimit:10;stroke-width:.5px;}.cls-3,.cls-4,.cls-5{stroke-miterlimit:10;stroke-width:.5px;}.cls-6{fill:#804458;stroke-width:0px;}.cls-4{fill:#1e1e1c;}.cls-5{fill:#fff;}</style></defs><g id="Layer_1-2"><g id="Cell"><circle class="cls-6" cx="45.96" cy="45.96" r="45.96"/><path class="cls-3" d="M17.15,15.53c-.28.3-.7.75-1.23,1.27-1.3,1.3-2.3,2.23-2.55,2.39-1.54,1.01-9.69,6.9-10.66,13.98-.33,2.41,0,4.86.36,7.27.68,4.71,1.35,9.42,2.03,14.13.23,1.58.46,3.19,1.13,4.64.64,1.4,1.66,2.59,2.62,3.8,5.55,6.99,9.87,15.49,17.67,19.83,5.54,3.08,12.1,3.61,18.44,3.75,4.97.11,9.99,0,14.8-1.24s9.43-3.73,12.46-7.66c1.55-2.02,2.65-4.35,4.06-6.47,3.37-5.04,8.59-8.92,10.63-14.63.83-2.34,1.07-4.85,1.09-7.34.11-13.31-6.17-26.52-16.55-34.84-6.73-5.39-15.17-8.78-23.8-8.87-3.01-.03-6,.33-8.98.74-3.2.45-8.01,1.34-13.55,4.08-2.06,1.01-4.9,2.63-7.97,5.15v.02Z"/><path class="cls-3" d="M72.12,26.48c1.22.51,2.13,1.57,2.81,2.71,1.14,1.93,1.72,4.14,2.24,6.33.3,1.24.58,2.48.85,3.72.45,2.08.87,4.26.35,6.32-.13.5-.34,1.03-.8,1.27-.25.13-.53.16-.81.18-.59.05-1.21.1-1.75-.15-.4-.19-.72-.53-1.01-.86-.51-.57-1.03-1.15-1.32-1.85-.27-.63-.34-1.33-.39-2.02-.13-1.65-.2-3.32-.5-4.95s-.83-3.25-1.81-4.59c-.89-1.22-1.83-1.72-2.29-3.24-.25-.82-.21-1.42-.02-1.92.07-.18.32-.86.99-1.18.27-.13.55-.17,1.31-.11.77.06,1.53.09,2.17.35h-.02Z"/><path class="cls-3" d="M71.27,27.67c.52-.1,1.15-.12,1.47.29.23.29.22.71.11,1.06s-.3.68-.41,1.03c-.02.07-.04.14-.03.21.03.17.21.27.38.26s.33-.08.49-.13c.31-.09.66-.1.93.06s.44.53.3.82c-.17.35-.63.42-1.01.52s-.79.47-.61.82c.12.23.43.28.68.22s.48-.19.73-.23c.74-.1,1.35.71,1.33,1.46s-.46,1.41-.89,2.03c.2.3.64.32,1,.27s.77-.11,1.06.11c.3.22.34.64.36,1.02.02.32.03.65-.07.96s-.33.59-.65.65c.36.12.63.49.63.88s-.25.76-.6.9c-.12.05-.27.09-.33.21-.1.19.12.41.34.44s.44-.02.64.05c.42.16.45.73.38,1.17-.08.48-.19.95-.33,1.42-.03.1-.06.19-.13.26-.16.16-.42.09-.65.09-.3,0-.58.17-.74.42-.04.07-.08.15-.06.23.05.22.37.17.59.14.3-.04.62.08.83.3-.1.19-.34.26-.55.3-.45.09-.92.12-1.37,0s-.85-.43-1-.87.04-.99.47-1.16c.35-.15.74-.03,1.12,0s.84-.14.89-.52c.04-.36-.36-.64-.73-.66s-.72.12-1.09.13c-.33,0-.68-.1-.88-.37s-.19-.69.07-.89c.18-.14.44-.15.63-.28.34-.23.33-.73.27-1.14-.66-.02-1.32-.04-1.98-.06-.15-.44-.26-1.02.12-1.28.15-.1.34-.12.52-.13.87-.02,1.84.22,2.53-.3.17-.12.31-.3.35-.5s-.06-.44-.26-.51c-.09-.03-.18-.03-.27-.03-1.1,0-2.2.01-3.29.02-.17-.39-.31-.91,0-1.19.22-.2.55-.18.84-.23.57-.1,1.06-.53,1.24-1.08.12-.38.04-.89-.32-1.06-.24-.12-.53-.05-.79,0-.4.07-.81.09-1.21.05-.5-.05-1.11-.32-1.08-.82.02-.32.3-.55.52-.77s.42-.57.26-.85c-.15-.25-.52-.26-.8-.18s-.57.23-.86.18c-.11-.35-.18-.81.12-1.01.1-.07.22-.09.34-.13.54-.18.93-.75.9-1.33,0-.11-.03-.22-.11-.29-.12-.1-.3-.07-.45-.04-.87.22-1.74.48-2.59.79-.08-.42-.11-.84-.09-1.27,0-.2.03-.41.15-.56.15-.19.49-.29.73-.25.41.05.14.12.37.25.51.29,1,.19,1.56.08l-.02.02Z"/><path class="cls-3" d="M63.25,32.56c.8.22,1.46.81,1.97,1.46.87,1.11,1.4,2.44,1.9,3.76.28.75.56,1.5.83,2.25.45,1.26.88,2.58.72,3.91-.04.32-.13.67-.4.85-.14.1-.32.14-.49.18-.36.08-.75.16-1.1.05-.27-.09-.49-.27-.7-.46-.36-.31-.73-.63-.97-1.05-.22-.37-.32-.8-.41-1.23-.22-1.02-.39-2.05-.71-3.04-.31-.99-.78-1.96-1.5-2.71-.65-.69-1.28-.93-1.69-1.84-.22-.49-.24-.87-.17-1.2.03-.12.13-.56.52-.81.16-.1.33-.15.81-.18.48-.02.96-.07,1.38.05h.01Z"/><path class="cls-3" d="M62.81,33.37c.31-.11.71-.17.94.07.16.16.19.42.15.65s-.13.44-.17.67c0,.04,0,.09,0,.13.03.1.15.15.26.13s.2-.07.29-.12c.18-.08.4-.12.58-.03s.31.3.25.49c-.08.23-.36.31-.58.41s-.46.36-.31.56c.09.13.29.14.44.08s.28-.16.44-.2c.45-.12.9.33.95.8s-.17.92-.39,1.34c.15.17.42.15.64.09s.47-.13.67-.02c.2.12.26.37.3.6.04.2.07.4.03.6s-.16.4-.35.46c.24.05.43.26.46.49s-.09.49-.3.61c-.07.04-.16.08-.19.15-.05.13.11.24.25.25s.27-.05.41-.02c.27.07.34.42.33.7,0,.3-.04.61-.09.91,0,.06-.02.13-.06.17-.09.11-.26.09-.4.11-.18.03-.35.15-.43.32-.02.05-.04.1-.02.15.05.13.24.08.38.04.19-.05.39,0,.54.12-.05.13-.19.19-.32.23-.27.09-.57.15-.85.11s-.57-.2-.69-.46-.05-.62.2-.76c.21-.12.46-.08.7-.09s.51-.15.51-.39-.28-.37-.51-.35-.44.13-.67.17c-.21.03-.43-.01-.58-.16s-.17-.42-.02-.56c.1-.1.26-.13.37-.22.19-.17.14-.48.08-.73-.41.04-.83.08-1.24.12-.13-.26-.24-.61-.03-.81.09-.08.2-.1.32-.12.54-.08,1.16,0,1.55-.39.09-.09.17-.21.18-.34s-.07-.27-.2-.3c-.06-.01-.11,0-.17,0-.68.09-1.37.18-2.05.28-.14-.23-.27-.54-.1-.74.12-.14.33-.16.51-.21.35-.11.62-.42.68-.77.04-.25-.05-.56-.29-.63-.16-.05-.33.01-.49.06-.24.08-.5.12-.75.13-.31.01-.72-.11-.74-.42,0-.2.14-.36.26-.52s.22-.39.09-.55c-.12-.15-.34-.12-.51-.05s-.34.19-.52.18c-.09-.21-.18-.49,0-.64.06-.05.13-.08.2-.11.32-.16.52-.54.45-.9,0-.07-.04-.13-.09-.17-.08-.06-.19-.02-.28.01-.53.21-1.04.44-1.55.7-.08-.25-.13-.52-.16-.78,0-.12,0-.26.05-.36.08-.13.28-.22.43-.22.26,0,.09.07.25.13.34.14.64.04.98-.07h-.02Z"/><path class="cls-3" d="M10,28.46c-.91.64-1.47,1.65-1.81,2.67-.59,1.74-.65,3.59-.67,5.4,0,1.03-.02,2.06,0,3.09,0,1.72.07,3.51.88,5.03.2.37.47.74.89.84.23.05.47.02.7-.01.5-.07,1.02-.15,1.42-.46.3-.23.49-.56.68-.88.31-.54.63-1.1.75-1.71.1-.55.03-1.11-.05-1.66-.2-1.32-.45-2.64-.51-3.98s.08-2.72.65-3.96c.51-1.13,1.19-1.71,1.29-2.99.05-.69-.09-1.16-.34-1.51-.09-.13-.43-.61-1.03-.73-.25-.05-.49-.03-1.1.17-.62.2-1.25.36-1.73.7h0Z"/><path class="cls-3" d="M10.92,29.23c-.45.02-.97.13-1.16.52-.13.27-.05.6.11.85s.37.47.53.73c.03.05.06.1.06.16,0,.14-.13.25-.27.28s-.28,0-.43,0c-.27-.01-.56.05-.75.23s-.26.5-.09.71c.2.25.6.21.93.22s.74.22.65.53c-.06.2-.3.3-.52.3s-.43-.06-.64-.03c-.63.06-.98.82-.83,1.4s.64,1.02,1.11,1.42c-.11.28-.47.37-.77.41s-.65.06-.85.29c-.2.23-.16.57-.11.87.05.26.1.52.23.74s.38.4.66.39c-.28.17-.43.51-.36.81s.34.55.66.59c.11.02.24.02.31.1.12.13-.03.34-.2.41s-.37.07-.52.17c-.31.21-.23.66-.09.99.15.36.33.71.53,1.05.04.07.09.14.16.18.16.09.37-.02.55-.06.24-.05.51.02.69.18.05.05.09.11.09.17,0,.18-.27.2-.46.23-.26.03-.49.18-.62.4.12.13.33.14.51.13.39-.02.78-.08,1.13-.27s.62-.51.66-.88-.22-.77-.6-.82c-.31-.05-.62.12-.93.21s-.72.05-.83-.23c-.1-.28.18-.57.48-.66s.62-.05.92-.11c.27-.06.54-.21.66-.46s.03-.58-.23-.68c-.18-.07-.39-.03-.57-.09-.32-.12-.4-.51-.44-.84.54-.14,1.08-.29,1.62-.43.04-.37.03-.85-.34-.98-.14-.05-.3-.03-.46,0-.72.15-1.47.53-2.14.26-.16-.06-.31-.17-.38-.33s-.03-.36.12-.45c.06-.04.14-.06.22-.08.91-.21,1.81-.42,2.72-.62.07-.34.09-.77-.22-.94-.22-.12-.49-.03-.74-.02-.49.03-.97-.21-1.22-.61-.17-.28-.2-.69.07-.89.18-.14.43-.14.65-.16.34-.02.68-.09,1.01-.2.4-.13.85-.46.74-.85-.07-.25-.34-.37-.57-.51s-.45-.37-.37-.61c.08-.23.38-.31.63-.3s.51.07.74-.03c.02-.3,0-.67-.29-.77-.1-.04-.2-.03-.3-.04-.48-.04-.9-.41-.98-.87,0-.08-.02-.18.04-.25.08-.1.23-.12.36-.11.76,0,1.52.04,2.28.11-.02-.34-.07-.68-.16-1.01-.04-.15-.1-.31-.23-.41-.16-.12-.46-.13-.65-.06-.33.12-.09.12-.26.27-.36.32-.79.35-1.27.37l.02-.02Z"/><path class="cls-3" d="M79.55,51.47c.06.83-.22,1.59-.6,2.22-.64,1.07-1.56,1.85-2.48,2.59-.52.42-1.04.84-1.57,1.25-.88.68-1.82,1.37-2.94,1.46-.27.02-.58,0-.8-.23-.12-.12-.21-.29-.29-.45-.17-.34-.35-.71-.36-1.08,0-.28.08-.53.16-.78.15-.42.3-.84.56-1.16.24-.29.55-.47.87-.64.76-.41,1.54-.78,2.25-1.28s1.35-1.14,1.75-2c.36-.78.37-1.44.99-2.01.33-.31.63-.41.91-.39.1,0,.49.02.81.36.13.14.22.3.38.76.16.47.34.94.37,1.37h0Z"/><path class="cls-3" d="M78.77,51.2c.18.29.34.66.22.94-.08.19-.28.27-.48.27s-.4-.05-.59-.04c-.04,0-.08,0-.11.02-.07.05-.07.18-.03.28s.12.18.18.27c.12.16.21.37.2.57s-.15.37-.32.34c-.21-.03-.36-.29-.5-.5s-.42-.38-.54-.2c-.08.12-.03.31.06.45s.21.25.29.39c.23.42,0,.95-.37,1.09s-.79,0-1.19-.13c-.09.18,0,.44.12.65s.24.44.21.65c-.03.22-.22.33-.4.42-.15.07-.31.15-.48.15s-.37-.08-.47-.26c.03.24-.08.47-.26.55s-.42,0-.58-.18c-.05-.06-.11-.15-.18-.16-.12-.02-.16.16-.13.29s.12.26.13.4c.03.28-.24.41-.47.46-.25.05-.5.08-.76.08-.05,0-.11,0-.16-.03-.11-.07-.15-.24-.2-.37-.08-.18-.22-.32-.38-.36-.04-.01-.09-.02-.13.01-.09.08,0,.25.08.38.09.17.12.39.06.55-.12-.02-.21-.15-.28-.27-.15-.25-.29-.53-.34-.82s0-.6.17-.77.48-.17.67.05c.16.18.2.44.28.67s.28.48.47.43.22-.34.13-.57-.24-.41-.33-.63c-.09-.2-.12-.43-.04-.6s.28-.25.44-.13c.11.08.18.23.29.32.2.16.43.05.61-.06-.15-.4-.31-.8-.46-1.2.17-.18.42-.36.64-.18.09.07.14.18.19.29.22.52.35,1.14.77,1.46.1.08.22.13.33.11s.2-.13.18-.26c0-.06-.03-.11-.05-.17-.28-.66-.55-1.31-.83-1.97.15-.18.36-.37.57-.24.15.09.22.29.32.46.19.32.52.53.82.53.21,0,.43-.15.43-.4,0-.17-.11-.33-.19-.48-.13-.23-.24-.47-.32-.72-.1-.31-.12-.73.12-.81.16-.05.34.07.5.16s.38.14.47-.01c.08-.14,0-.36-.11-.52s-.25-.3-.3-.48c.14-.13.34-.27.51-.13.06.05.1.12.15.18.22.29.59.41.86.27.05-.02.1-.06.11-.12.02-.09-.04-.19-.09-.27-.32-.48-.66-.94-1.02-1.39.18-.13.38-.23.59-.3.1-.03.2-.06.31-.02.13.05.26.24.3.39.08.26-.02.11-.03.27,0,.36.16.64.35.95h0Z"/><path class="cls-3" d="M74.36,62.85c.3.91.16,1.89-.12,2.75-.49,1.47-1.38,2.74-2.29,3.96-.51.69-1.03,1.38-1.56,2.06-.88,1.14-1.83,2.3-3.16,2.88-.32.14-.7.24-1.03.08-.14-.07-.2-.13-.47-.39-.7-.66-.75-.6-.95-.86-.33-.44-.4-.91-.42-1.09-.03-.2-.07-.66.28-1.6.29-.79.63-1.34.8-1.6,1.07-1.69,1.32-1.89,1.89-2.83.63-1.04.41-.94,1.32-2.55.59-1.05,1.07-1.76,1.84-2.36.25-.19.69-.5,1.32-.62.29-.06.69-.13,1.08.07.19.1.35.24.67.7.32.46.66.91.82,1.39h-.02Z"/><path class="cls-3" d="M73.34,62.87c.29.25.6.6.53.97-.05.25-.27.42-.51.51s-.49.11-.73.2c-.05.02-.09.04-.12.07-.08.09-.04.24.04.33s.19.16.29.23c.19.14.36.33.4.56s-.08.48-.3.52c-.26.05-.51-.18-.74-.35s-.61-.25-.71,0c-.06.16.05.36.2.48s.32.19.46.32c.4.38.25,1.07-.15,1.38s-.95.33-1.48.35c-.06.24.13.5.32.69s.41.39.43.65c.02.26-.18.47-.37.64-.16.15-.33.29-.54.37s-.46.06-.64-.09c.1.26.03.57-.17.73s-.51.18-.75.04c-.08-.05-.17-.12-.26-.1-.15.02-.16.24-.07.38s.22.24.27.39c.11.31-.18.57-.44.71-.29.16-.59.3-.9.41-.06.02-.13.05-.2.03-.16-.03-.24-.21-.35-.33-.14-.17-.36-.26-.56-.25-.06,0-.12.02-.15.07-.09.12.08.28.2.4.16.16.24.39.22.6-.15.02-.29-.08-.41-.19-.25-.22-.49-.48-.63-.78s-.17-.67,0-.94.54-.39.83-.23c.24.14.36.41.52.64s.46.42.68.29.17-.48,0-.69-.4-.36-.57-.57c-.16-.19-.26-.43-.21-.66s.28-.4.5-.33c.16.05.28.19.43.24.28.1.53-.12.72-.33-.3-.39-.59-.77-.89-1.16.16-.27.41-.58.73-.47.12.04.22.14.31.25.41.49.73,1.14,1.33,1.32.14.04.3.05.42-.01s.2-.22.15-.37c-.02-.06-.07-.12-.11-.17-.51-.63-1.02-1.25-1.53-1.88.13-.26.33-.56.63-.51.21.04.35.24.51.38.31.28.77.38,1.14.25.26-.09.48-.35.41-.63-.05-.19-.22-.32-.36-.46-.22-.2-.42-.43-.59-.67-.21-.3-.35-.77-.07-.96.18-.12.42-.06.65-.03s.5,0,.56-.21c.06-.19-.1-.41-.27-.54s-.38-.23-.49-.42c.13-.21.34-.45.59-.36.08.03.15.09.23.14.35.23.82.21,1.11-.05.05-.05.1-.11.1-.18,0-.11-.1-.2-.19-.27-.52-.41-1.06-.79-1.61-1.15.18-.22.39-.42.62-.59.11-.08.23-.16.37-.15.17,0,.38.16.47.31.16.26,0,.13.04.32.08.41.36.66.68.93l-.02-.02Z"/><path class="cls-3" d="M60.58,78.15c-.62.75-1.77,1.21-2.97,1.5-2.03.5-4.29.57-6.52.61-1.26.02-2.53.04-3.79.04-2.12.01-4.33-.01-6.33-.66-.48-.16-.99-.38-1.19-.72-.08-.14-.08-.22-.11-.57-.07-.89-.19-.9-.13-1.2.1-.5.51-.82.66-.94.18-.14.6-.43,1.95-.72,1.12-.24,2.05-.31,2.51-.34,2.87-.19,3.35-.13,4.93-.25,1.75-.14,1.41-.24,4.03-.5,1.71-.17,2.95-.24,4.39-.01.47.07,1.25.22,2.04.61.37.18.87.43,1.08.83.1.2.12.4,0,.9-.13.51-.23,1.02-.56,1.41h.02Z"/><path class="cls-3" d="M59.47,77.41c.05.36,0,.79-.43.95-.31.11-.72.05-1.07-.08s-.64-.3-.98-.42c-.07-.02-.14-.05-.21-.05-.17,0-.28.11-.3.22s.04.23.08.35c.07.22.04.45-.15.62s-.57.22-.85.08c-.34-.16-.36-.48-.43-.75s-.4-.6-.76-.53c-.24.05-.32.25-.28.42s.14.35.15.52c.03.51-.84.81-1.58.69s-1.36-.51-1.94-.88c-.32.09-.38.38-.36.63s.04.53-.21.69c-.25.17-.67.14-1.05.1-.32-.03-.65-.07-.95-.18s-.56-.31-.59-.53c-.16.23-.55.35-.93.3s-.73-.27-.84-.53c-.04-.09-.06-.2-.17-.25-.18-.09-.42.03-.47.17s-.02.3-.12.42c-.2.26-.77.2-1.2.09-.47-.12-.93-.26-1.38-.42-.09-.03-.19-.07-.25-.13-.14-.13-.05-.3-.03-.45.02-.2-.11-.42-.35-.56-.07-.04-.15-.07-.23-.07-.22,0-.2.22-.2.38,0,.21-.14.4-.38.51-.18-.1-.22-.26-.24-.41-.04-.32-.04-.64.13-.92s.51-.51.96-.55.98.17,1.12.48c.11.25-.04.5-.1.75s.06.59.43.67c.36.08.67-.15.72-.4s-.05-.5-.03-.75c.02-.22.17-.44.45-.54s.71-.03.88.18c.12.14.1.31.21.46.2.26.7.32,1.11.34l.24-1.32c.45-.04,1.04-.03,1.27.26.09.12.09.25.08.37-.06.59-.39,1.2.05,1.74.11.13.27.25.47.3s.45.02.54-.1c.04-.05.05-.12.06-.18.1-.74.19-1.48.29-2.21.41-.06.93-.08,1.19.17.18.17.13.39.15.6.04.39.43.79.96.98.37.14.88.15,1.09-.07.14-.15.1-.35.08-.53-.03-.28,0-.56.07-.82.09-.33.42-.7.92-.61.31.06.52.28.72.46s.53.36.82.29c.27-.07.31-.31.26-.51s-.17-.41-.1-.6c.36-.02.82,0,1,.22.06.08.07.16.1.25.13.39.66.73,1.24.79.11.01.22.01.3-.03.12-.06.1-.19.08-.29-.14-.62-.32-1.23-.54-1.85.42,0,.85.05,1.27.12.2.03.4.08.55.18.18.13.24.37.18.53-.09.27-.13.07-.29.21-.33.3-.29.65-.23,1.03h0Z"/><path class="cls-3" d="M18.24,21.47c-.07-.57.15-1.15.45-1.67.51-.88,1.25-1.61,2-2.32.42-.4.85-.8,1.28-1.19.72-.66,1.48-1.33,2.41-1.63.22-.07.48-.12.67-.01.08.05.11.09.25.25.36.42.4.39.49.56.15.28.14.57.13.67,0,.12-.04.4-.4.96-.29.47-.59.79-.73.94-.91.99-1.1,1.1-1.59,1.65-.55.61-.39.56-1.19,1.5-.52.62-.92,1.03-1.5,1.36-.19.11-.51.28-.93.33-.19.02-.46.06-.68-.08-.11-.07-.19-.16-.33-.45s-.3-.58-.34-.88h0Z"/><path class="cls-3" d="M18.9,21.5c-.15-.16-.3-.39-.21-.61.06-.15.23-.25.39-.29s.33-.05.49-.09c.03,0,.06-.02.09-.04.06-.05.06-.14.02-.2s-.1-.1-.16-.15c-.1-.09-.18-.22-.18-.35s.11-.29.26-.31c.18-.02.3.13.43.24s.36.18.46.03c.06-.1,0-.22-.06-.3s-.18-.13-.25-.21c-.2-.25-.02-.66.28-.83s.66-.17.99-.16c.07-.15-.02-.31-.11-.43s-.21-.25-.19-.41.18-.28.32-.37c.12-.08.25-.17.39-.2s.31-.02.4.08c-.03-.16.05-.35.2-.44s.35-.09.49,0c.05.03.09.08.15.07.1,0,.13-.14.1-.23s-.11-.16-.12-.25c-.03-.19.19-.34.38-.42.21-.09.42-.16.63-.22.04-.01.09-.02.13-.01.1.02.13.13.18.22.07.11.19.17.33.17.04,0,.08,0,.11-.03.07-.07-.02-.17-.07-.25-.08-.1-.1-.24-.06-.37.1,0,.18.06.24.13.13.14.25.31.3.5s.02.41-.12.57-.4.22-.56.11c-.13-.09-.17-.26-.25-.41s-.24-.27-.4-.2-.17.28-.1.42.21.24.29.37c.08.12.11.27.05.41s-.23.23-.37.18c-.09-.03-.15-.12-.25-.16-.17-.07-.36.06-.51.17.14.25.28.49.42.74-.14.16-.34.34-.53.26-.07-.03-.12-.09-.17-.16-.2-.31-.32-.72-.67-.85-.09-.03-.19-.04-.27,0s-.16.13-.15.22c0,.04.03.07.05.11.24.4.49.8.73,1.19-.12.15-.29.33-.47.28-.13-.03-.19-.16-.28-.25-.16-.18-.44-.26-.7-.19-.18.05-.36.2-.35.37,0,.12.1.2.17.29.12.13.21.27.29.43.09.19.12.48-.08.59-.13.07-.28.02-.42,0s-.32-.02-.39.11c-.07.12,0,.25.1.34s.21.15.26.27c-.11.12-.28.26-.43.2-.05-.02-.09-.06-.13-.09-.19-.15-.5-.16-.72-.01-.04.03-.08.06-.09.11-.02.07.04.13.08.17.28.27.57.52.88.76-.15.13-.31.24-.48.33-.08.04-.17.09-.26.08-.11,0-.22-.11-.26-.2-.07-.16.02-.08.02-.19,0-.25-.15-.41-.31-.59l.03-.05Z"/><path class="cls-5" d="M46.13,10.02c-.16.03-.3-.08-.33-.23s.08-.3.23-.33.3.08.33.23-.08.3-.23.33Z"/><path class="cls-5" d="M45.05,10.02c-.16.03-.3-.08-.33-.23s.08-.3.23-.33.3.08.33.23-.08.3-.23.33Z"/><path class="cls-5" d="M43.64,10.15c-.16.03-.3-.08-.33-.23s.08-.3.23-.33.3.08.33.23-.08.3-.23.33Z"/><path class="cls-5" d="M42.13,10.26c-.16.03-.3-.08-.33-.23s.08-.3.23-.33.3.08.33.23-.08.3-.23.33Z"/><path class="cls-5" d="M46.28,11.31c-.16.03-.3-.08-.33-.23s.08-.3.23-.33.3.08.33.23-.08.3-.23.33Z"/><path class="cls-5" d="M45.21,11.32c-.16.03-.3-.08-.33-.23s.08-.3.23-.33.3.08.33.23-.08.3-.23.33Z"/><path class="cls-5" d="M43.79,11.45c-.16.03-.3-.08-.33-.23s.08-.3.23-.33.3.08.33.23-.08.3-.23.33Z"/><path class="cls-5" d="M42.28,11.56c-.16.03-.3-.08-.33-.23s.08-.3.23-.33.3.08.33.23-.08.3-.23.33Z"/><path class="cls-3" d="M47.27,10.17c0,.16-.11.29-.27.3s-.29-.12-.29-.27.11-.29.27-.3.29.12.29.27Z"/><path class="cls-3" d="M41.49,10.82c0,.16-.11.29-.27.3s-.29-.12-.29-.27.11-.29.27-.3.29.12.29.27Z"/><ellipse class="cls-3" cx="44.13" cy="10.55" rx="3.8" ry="2"/><path class="cls-5" d="M54.51,11.99c-.12-.01-.21-.12-.2-.25s.12-.21.25-.2.21.12.2.25-.12.21-.25.2Z"/><path class="cls-5" d="M53.69,11.76c-.12-.01-.21-.12-.2-.25s.12-.21.25-.2.21.12.2.25-.12.21-.25.2Z"/><path class="cls-5" d="M52.59,11.56c-.12-.01-.21-.12-.2-.25s.12-.21.25-.2.21.12.2.25-.12.21-.25.2Z"/><path class="cls-5" d="M51.42,11.32c-.12-.01-.21-.12-.2-.25s.12-.21.25-.2.21.12.2.25-.12.21-.25.2Z"/><path class="cls-5" d="M54.35,13.01c-.12-.01-.21-.12-.2-.25s.12-.21.25-.2.21.12.2.25-.12.21-.25.2Z"/><path class="cls-5" d="M53.54,12.78c-.12-.01-.21-.12-.2-.25s.12-.21.25-.2.21.12.2.25-.12.21-.25.2Z"/><path class="cls-5" d="M52.43,12.58c-.12-.01-.21-.12-.2-.25s.12-.21.25-.2.21.12.2.25-.12.21-.25.2Z"/><path class="cls-5" d="M51.26,12.34c-.12-.01-.21-.12-.2-.25s.12-.21.25-.2.21.12.2.25-.12.21-.25.2Z"/><path class="cls-5" d="M55.35,12.35c-.03.12-.15.2-.27.17s-.19-.15-.17-.27.15-.2.27-.17.19.15.17.27Z"/><path class="cls-5" d="M50.82,11.61c-.03.12-.15.2-.27.17s-.19-.15-.16-.27.15-.2.27-.17.19.15.17.27h0Z"/><ellipse class="cls-2" cx="52.88" cy="11.95" rx="1.58" ry="3" transform="translate(27.06 59.62) rotate(-74.29)"/><path class="cls-5" d="M50.4,17.67c-.11-.01-.19-.11-.18-.21s.11-.18.22-.17.19.11.18.21-.11.18-.22.17Z"/><path class="cls-5" d="M49.68,17.47c-.11-.01-.19-.11-.18-.21s.11-.18.22-.17.19.11.18.21-.11.18-.22.17Z"/><path class="cls-5" d="M48.7,17.29c-.11-.01-.19-.11-.18-.21s.11-.18.22-.17.19.11.18.21-.11.18-.22.17Z"/><path class="cls-5" d="M47.66,17.08c-.11-.01-.19-.11-.18-.21s.11-.18.22-.17.19.11.18.21-.11.18-.22.17Z"/><path class="cls-5" d="M50.26,18.55c-.11-.01-.19-.11-.18-.21s.11-.18.22-.17.19.11.18.21-.11.18-.22.17Z"/><path class="cls-5" d="M49.54,18.35c-.11-.01-.19-.11-.18-.21s.11-.18.22-.17.19.11.18.21-.11.18-.22.17Z"/><path class="cls-5" d="M48.56,18.18c-.11-.01-.19-.11-.18-.21s.11-.18.22-.17.19.11.18.21-.11.18-.22.17Z"/><path class="cls-5" d="M47.52,17.97c-.11-.01-.19-.11-.18-.21s.11-.18.22-.17.19.11.18.21-.11.18-.22.17Z"/><path class="cls-5" d="M51.15,17.98c-.03.1-.13.17-.24.15s-.17-.13-.15-.23.13-.17.24-.15.17.13.15.23Z"/><path class="cls-5" d="M47.13,17.33c-.03.1-.13.17-.24.15s-.17-.13-.15-.23.13-.17.24-.15.17.13.15.23Z"/><ellipse class="cls-1" cx="48.95" cy="17.63" rx="1.37" ry="2.66" transform="translate(19.15 60.27) rotate(-74.86)"/><path class="cls-5" d="M50.51,33.82c-.3.05-.59-.15-.64-.45s.15-.58.46-.63.59.15.64.45-.15.58-.46.63Z"/><path class="cls-5" d="M47.56,33.77c-.3.05-.59-.15-.64-.45s.15-.58.46-.63.59.15.64.45-.15.58-.46.63Z"/><path class="cls-5" d="M46.24,35.89c-.3.05-.59-.15-.64-.45s.15-.58.46-.63.59.15.64.45-.15.58-.46.63Z"/><path class="cls-5" d="M52.4,31.44c0,.31-.22.57-.53.58s-.56-.23-.57-.53.22-.57.53-.58.56.23.57.53Z"/><path class="cls-4" d="M56.82,21.14c-.3.05-.59-.15-.64-.45s.15-.58.46-.63.59.15.64.45-.15.58-.46.63Z"/><path class="cls-4" d="M61.61,25.94c-.3.05-.59-.15-.64-.45s.15-.58.46-.63.59.15.64.45-.15.58-.46.63Z"/><path class="cls-4" d="M59.06,25.42c-.3.05-.59-.15-.64-.45s.15-.58.46-.63.59.15.64.45-.15.58-.46.63Z"/><path class="cls-4" d="M56.57,24.97c-.3.05-.59-.15-.64-.45s.15-.58.46-.63.59.15.64.45-.15.58-.46.63Z"/><path class="cls-4" d="M57.98,27.38c-.3.05-.59-.15-.64-.45s.15-.58.46-.63.59.15.64.45-.15.58-.46.63Z"/><path class="cls-4" d="M60.08,22.85c-.3.05-.59-.15-.64-.45s.15-.58.46-.63.59.15.64.45-.15.58-.46.63Z"/><path class="cls-4" d="M57.91,23.55c-.3.05-.59-.15-.64-.45s.15-.58.46-.63.59.15.64.45-.15.58-.46.63Z"/><path class="cls-4" d="M56.34,22.23c0,.31-.22.57-.53.58s-.56-.23-.57-.53.22-.57.52-.58.56.23.57.53h0Z"/><path class="cls-4" d="M32.06,38.46c-.3.05-.59-.15-.64-.45s.15-.58.46-.63.59.15.64.45-.15.58-.46.63Z"/><path class="cls-4" d="M36.86,43.26c-.3.05-.59-.15-.64-.45s.15-.58.46-.63.59.15.64.45-.15.58-.46.63Z"/><path class="cls-4" d="M34.31,42.74c-.3.05-.59-.15-.64-.45s.15-.58.46-.63.59.15.64.45-.15.58-.46.63Z"/><path class="cls-4" d="M31.81,42.29c-.3.05-.59-.15-.64-.45s.15-.58.46-.63.59.15.64.45-.15.58-.46.63Z"/><path class="cls-4" d="M33.22,44.7c-.3.05-.59-.15-.64-.45s.15-.58.46-.63.59.15.64.45-.15.58-.46.63Z"/><path class="cls-4" d="M35.32,40.17c-.3.05-.59-.15-.64-.45s.15-.58.46-.63.59.15.64.45-.15.58-.46.63Z"/><path class="cls-4" d="M33.16,40.87c-.3.05-.59-.15-.64-.45s.15-.58.46-.63.59.15.64.45-.15.58-.46.63Z"/><path class="cls-4" d="M31.59,39.55c0,.31-.22.57-.53.58s-.56-.23-.57-.53.22-.57.52-.58.56.23.57.53h0Z"/><path class="cls-4" d="M25.52,42.49c-.3.05-.59-.15-.64-.45s.15-.58.46-.63.59.15.64.45-.15.58-.46.63Z"/><path class="cls-4" d="M30.31,47.29c-.3.05-.59-.15-.64-.45s.15-.58.46-.63.59.15.64.45-.15.58-.46.63Z"/><path class="cls-4" d="M27.77,46.77c-.3.05-.59-.15-.64-.45s.15-.58.46-.63.59.15.64.45-.15.58-.46.63Z"/><path class="cls-4" d="M25.27,46.32c-.3.05-.59-.15-.64-.45s.15-.58.46-.63.59.15.64.45-.15.58-.46.63Z"/><path class="cls-4" d="M26.68,48.73c-.3.05-.59-.15-.64-.45s.15-.58.46-.63.59.15.64.45-.15.58-.46.63Z"/><path class="cls-4" d="M28.78,44.2c-.3.05-.59-.15-.64-.45s.15-.58.46-.63.59.15.64.45-.15.58-.46.63Z"/><path class="cls-4" d="M26.61,44.9c-.3.05-.59-.15-.64-.45s.15-.58.46-.63.59.15.64.45-.15.58-.46.63Z"/><path class="cls-4" d="M25.05,43.58c0,.31-.22.57-.53.58s-.56-.23-.57-.53.22-.57.52-.58.56.23.57.53h0Z"/><path class="cls-4" d="M27.84,40.33c-.3.05-.59-.15-.64-.45s.15-.58.46-.63.59.15.64.45-.15.58-.46.63Z"/><path class="cls-4" d="M32.63,45.12c-.3.05-.59-.15-.64-.45s.15-.58.46-.63.59.15.64.45-.15.58-.46.63Z"/><path class="cls-4" d="M30.09,44.6c-.3.05-.59-.15-.64-.45s.15-.58.46-.63.59.15.64.45-.15.58-.46.63Z"/><path class="cls-4" d="M27.59,44.15c-.3.05-.59-.15-.64-.45s.15-.58.46-.63.59.15.64.45-.15.58-.46.63Z"/><path class="cls-4" d="M29,46.56c-.3.05-.59-.15-.64-.45s.15-.58.46-.63.59.15.64.45-.15.58-.46.63Z"/><path class="cls-4" d="M31.1,42.03c-.3.05-.59-.15-.64-.45s.15-.58.46-.63.59.15.64.45-.15.58-.46.63Z"/><path class="cls-4" d="M28.93,42.74c-.3.05-.59-.15-.64-.45s.15-.58.46-.63.59.15.64.45-.15.58-.46.63Z"/><path class="cls-4" d="M27.37,41.41c0,.31-.22.57-.53.58s-.56-.23-.57-.53.22-.57.52-.58.56.23.57.53h0Z"/><path class="cls-4" d="M33.25,43.94c-.3.05-.59-.15-.64-.45s.15-.58.46-.63.59.15.64.45-.15.58-.46.63Z"/><path class="cls-4" d="M38.05,48.73c-.3.05-.59-.15-.64-.45s.15-.58.46-.63.59.15.64.45-.15.58-.46.63Z"/><path class="cls-4" d="M35.5,48.21c-.3.05-.59-.15-.64-.45s.15-.58.46-.63.59.15.64.45-.15.58-.46.63Z"/><path class="cls-4" d="M33,47.76c-.3.05-.59-.15-.64-.45s.15-.58.46-.63.59.15.64.45-.15.58-.46.63Z"/><path class="cls-4" d="M34.41,50.17c-.3.05-.59-.15-.64-.45s.15-.58.46-.63.59.15.64.45-.15.58-.46.63Z"/><path class="cls-4" d="M36.51,45.64c-.3.05-.59-.15-.64-.45s.15-.58.46-.63.59.15.64.45-.15.58-.46.63Z"/><path class="cls-4" d="M34.35,46.35c-.3.05-.59-.15-.64-.45s.15-.58.46-.63.59.15.64.45-.15.58-.46.63Z"/><path class="cls-4" d="M32.78,45.02c0,.31-.22.57-.53.58s-.56-.23-.57-.53.22-.57.52-.58.56.23.57.53h0Z"/><path class="cls-4" d="M23.87,49.6c-.3.05-.59-.15-.64-.45s.15-.58.46-.63.59.15.64.45-.15.58-.46.63Z"/><path class="cls-4" d="M28.67,54.39c-.3.05-.59-.15-.64-.45s.15-.58.46-.63.59.15.64.45-.15.58-.46.63Z"/><path class="cls-4" d="M26.12,53.87c-.3.05-.59-.15-.64-.45s.15-.58.46-.63.59.15.64.45-.15.58-.46.63Z"/><path class="cls-4" d="M23.62,53.42c-.3.05-.59-.15-.64-.45s.15-.58.46-.63.59.15.64.45-.15.58-.46.63Z"/><path class="cls-4" d="M25.03,55.83c-.3.05-.59-.15-.64-.45s.15-.58.46-.63.59.15.64.45-.15.58-.46.63Z"/><path class="cls-4" d="M27.13,51.3c-.3.05-.59-.15-.64-.45s.15-.58.46-.63.59.15.64.45-.15.58-.46.63Z"/><path class="cls-4" d="M24.96,52.01c-.3.05-.59-.15-.64-.45s.15-.58.46-.63.59.15.64.45-.15.58-.46.63Z"/><path class="cls-4" d="M23.4,50.68c0,.31-.22.57-.53.58s-.56-.23-.57-.53.22-.57.52-.58.56.23.57.53h0Z"/><path class="cls-4" d="M28.59,53.02c-.3.05-.59-.15-.64-.45s.15-.58.46-.63.59.15.64.45-.15.58-.46.63Z"/><path class="cls-4" d="M33.39,57.81c-.3.05-.59-.15-.64-.45s.15-.58.46-.63.59.15.64.45-.15.58-.46.63Z"/><path class="cls-4" d="M30.84,57.29c-.3.05-.59-.15-.64-.45s.15-.58.46-.63.59.15.64.45-.15.58-.46.63Z"/><path class="cls-4" d="M28.34,56.84c-.3.05-.59-.15-.64-.45s.15-.58.46-.63.59.15.64.45-.15.58-.46.63Z"/><path class="cls-4" d="M29.75,59.25c-.3.05-.59-.15-.64-.45s.15-.58.46-.63.59.15.64.45-.15.58-.46.63Z"/><path class="cls-4" d="M31.85,54.72c-.3.05-.59-.15-.64-.45s.15-.58.46-.63.59.15.64.45-.15.58-.46.63Z"/><path class="cls-4" d="M29.68,55.43c-.3.05-.59-.15-.64-.45s.15-.58.46-.63.59.15.64.45-.15.58-.46.63Z"/><path class="cls-4" d="M28.12,54.1c0,.31-.22.57-.53.58s-.56-.23-.57-.53.22-.57.52-.58.56.23.57.53h0Z"/><path class="cls-4" d="M39.42,46.67c-.3.05-.59-.15-.64-.45s.15-.58.46-.63.59.15.64.45-.15.58-.46.63Z"/><path class="cls-4" d="M44.22,51.47c-.3.05-.59-.15-.64-.45s.15-.58.46-.63.59.15.64.45-.15.58-.46.63Z"/><path class="cls-4" d="M41.67,50.95c-.3.05-.59-.15-.64-.45s.15-.58.46-.63.59.15.64.45-.15.58-.46.63Z"/><path class="cls-4" d="M39.17,50.5c-.3.05-.59-.15-.64-.45s.15-.58.46-.63.59.15.64.45-.15.58-.46.63Z"/><path class="cls-4" d="M40.58,52.91c-.3.05-.59-.15-.64-.45s.15-.58.46-.63.59.15.64.45-.15.58-.46.63Z"/><path class="cls-4" d="M42.68,48.38c-.3.05-.59-.15-.64-.45s.15-.58.46-.63.59.15.64.45-.15.58-.46.63Z"/><path class="cls-4" d="M40.52,49.08c-.3.05-.59-.15-.64-.45s.15-.58.46-.63.59.15.64.45-.15.58-.46.63Z"/><path class="cls-4" d="M38.95,47.76c0,.31-.22.57-.53.58s-.56-.23-.57-.53.22-.57.52-.58.56.23.57.53h0Z"/><path class="cls-4" d="M38.27,39.9c-.3.05-.59-.15-.64-.45s.15-.58.46-.63.59.15.64.45-.15.58-.46.63Z"/><path class="cls-4" d="M43.07,44.69c-.3.05-.59-.15-.64-.45s.15-.58.46-.63.59.15.64.45-.15.58-.46.63Z"/><path class="cls-4" d="M40.52,44.17c-.3.05-.59-.15-.64-.45s.15-.58.46-.63.59.15.64.45-.15.58-.46.63Z"/><path class="cls-4" d="M38.02,43.72c-.3.05-.59-.15-.64-.45s.15-.58.46-.63.59.15.64.45-.15.58-.46.63Z"/><path class="cls-4" d="M39.43,46.14c-.3.05-.59-.15-.64-.45s.15-.58.46-.63.59.15.64.45-.15.58-.46.63Z"/><path class="cls-4" d="M41.53,41.6c-.3.05-.59-.15-.64-.45s.15-.58.46-.63.59.15.64.45-.15.58-.46.63Z"/><path class="cls-4" d="M39.36,42.31c-.3.05-.59-.15-.64-.45s.15-.58.46-.63.59.15.64.45-.15.58-.46.63Z"/><path class="cls-4" d="M37.8,40.99c0,.31-.22.57-.53.58s-.56-.23-.57-.53.22-.57.52-.58.56.23.57.53h0Z"/><path class="cls-5" d="M44.26,27.11c-.3.05-.59-.15-.64-.45s.15-.58.46-.63.59.15.64.45-.15.58-.46.63Z"/><path class="cls-5" d="M49.98,30.18c-.3.05-.59-.15-.64-.45s.15-.58.46-.63.59.15.64.45-.15.58-.46.63Z"/><path class="cls-5" d="M46.28,30.77c-.3.05-.59-.15-.64-.45s.15-.58.46-.63.59.15.64.45-.15.58-.46.63Z"/><path class="cls-5" d="M43.29,30.8c-.3.05-.59-.15-.64-.45s.15-.58.46-.63.59.15.64.45-.15.58-.46.63Z"/><path class="cls-5" d="M45.42,33.35c-.3.05-.59-.15-.64-.45s.15-.58.46-.63.59.15.64.45-.15.58-.46.63Z"/><path class="cls-5" d="M46.83,27.09c-.3.05-.59-.15-.64-.45s.15-.58.46-.63.59.15.64.45-.15.58-.46.63Z"/><path class="cls-5" d="M48.42,28.58c-.3.05-.59-.15-.64-.45s.15-.58.46-.63.59.15.64.45-.15.58-.46.63Z"/><path class="cls-5" d="M43.79,28.2c0,.31-.22.57-.53.58s-.56-.23-.57-.53.22-.57.52-.58.56.23.57.53h0Z"/><path class="cls-5" d="M60.6,52.73c.05.3-.16.59-.46.63s-.58-.16-.63-.47.16-.59.46-.63.58.16.63.47Z"/><path class="cls-5" d="M60.5,55.68c.05.3-.16.59-.46.63s-.58-.16-.63-.47.16-.59.46-.63.58.16.63.47Z"/><path class="cls-5" d="M58.25,50.8c.31,0,.56.23.57.54s-.23.56-.54.56-.56-.23-.57-.54.23-.56.54-.56Z"/><path class="cls-5" d="M53.79,58.86c.05.3-.16.59-.46.63s-.58-.16-.63-.47.16-.59.46-.63.58.16.63.47Z"/><path class="cls-5" d="M56.96,53.2c.05.3-.16.59-.46.63s-.58-.16-.63-.47.16-.59.46-.63.58.16.63.47Z"/><path class="cls-5" d="M57.49,56.91c.05.3-.16.59-.46.63s-.58-.16-.63-.47.16-.59.46-.63.58.16.63.47Z"/><path class="cls-5" d="M57.46,59.9c.05.3-.16.59-.46.63s-.58-.16-.63-.47.16-.59.46-.63.58.16.63.47Z"/><path class="cls-5" d="M60.04,57.81c.05.3-.16.59-.46.63s-.58-.16-.63-.47.16-.59.46-.63.58.16.63.47Z"/><path class="cls-5" d="M53.82,56.29c.05.3-.16.59-.46.63s-.58-.16-.63-.47.16-.59.46-.63.58.16.63.47Z"/><path class="cls-5" d="M55.33,54.73c.05.3-.16.59-.46.63s-.58-.16-.63-.47.16-.59.46-.63.58.16.63.47Z"/><path class="cls-5" d="M54.87,59.35c.31,0,.56.23.57.54s-.23.56-.54.56-.56-.23-.57-.53.23-.56.54-.56h0Z"/><path class="cls-3" d="M52.37,44.3c0,.42-.08.84-.17,1.25-.39,1.8-.78,3.61-1.17,5.41-.11.53-.14,1.23.36,1.44.3.12.66-.03.86-.28s.27-.59.3-.91c.12-1.21-.19-2.49.3-3.6.22-.5.59-.93.8-1.45.48-1.2-.07-2.47-.37-3.65-.16-.65-.24-1.25-.22-1.92.02-.5.23-1.45-.34-1.77-.89-.49-1.44,1.04-1.45,1.68-.02,1.35,1.07,2.44,1.11,3.79h-.01Z"/><path class="cls-3" d="M53.47,40.16c-.16.03-.3-.08-.33-.23s.08-.3.23-.33.3.08.33.23-.08.3-.23.33Z"/><path class="cls-3" d="M52.27,38.78c-.16.03-.3-.08-.33-.23s.08-.3.23-.33.3.08.33.23-.08.3-.23.33Z"/><path class="cls-3" d="M51.11,40.26c-.16.03-.3-.08-.33-.23s.08-.3.23-.33.3.08.33.23-.08.3-.23.33Z"/><path class="cls-3" d="M51.79,43.2c-.16.03-.3-.08-.33-.23s.08-.3.23-.33.3.08.33.23-.08.3-.23.33Z"/><path class="cls-3" d="M53.46,42.12c-.16.03-.3-.08-.33-.23s.08-.3.23-.33.3.08.33.23-.08.3-.23.33Z"/><path class="cls-3" d="M54.05,44.2c-.16.03-.3-.08-.33-.23s.08-.3.23-.33.3.08.33.23-.08.3-.23.33Z"/><path class="cls-3" d="M53.91,46.37c-.16.03-.3-.08-.33-.23s.08-.3.23-.33.3.08.33.23-.08.3-.23.33Z"/><path class="cls-3" d="M52.94,48.58c-.16.03-.3-.08-.33-.23s.08-.3.23-.33.3.08.33.23-.08.3-.23.33Z"/><path class="cls-3" d="M53.11,50.79c0,.16-.11.29-.27.3s-.29-.12-.29-.27.11-.29.27-.3.29.12.29.27Z"/><path class="cls-3" d="M52.27,45.43c0,.16-.11.29-.27.3s-.29-.12-.29-.27.11-.29.27-.3.29.12.29.27Z"/><path class="cls-3" d="M51.76,47.62c0,.16-.11.29-.27.3s-.29-.12-.29-.27.11-.29.27-.3.29.12.29.27Z"/><path class="cls-3" d="M51.24,50.35c0,.16-.11.29-.27.3s-.29-.12-.29-.27.11-.29.27-.3.29.12.29.27Z"/><path class="cls-3" d="M48.22,45.61c0,.52-.08,1.03-.17,1.53-.39,2.21-.78,4.42-1.17,6.64-.11.65-.14,1.51.36,1.76.3.15.66-.04.86-.35s.27-.72.3-1.11c.12-1.48-.19-3.05.3-4.41.22-.62.59-1.14.8-1.77.48-1.47-.07-3.03-.37-4.47-.16-.79-.24-1.53-.22-2.35.02-.61.23-1.78-.34-2.17-.89-.6-1.44,1.27-1.45,2.06-.02,1.65,1.07,2.99,1.11,4.64h-.01Z"/><path class="cls-3" d="M49.31,40.54c-.16.03-.3-.09-.33-.28s.08-.37.23-.4.3.09.33.28-.08.37-.23.4Z"/><path class="cls-3" d="M48.12,38.85c-.16.03-.3-.09-.33-.28s.08-.37.23-.4.3.09.33.28-.08.37-.23.4Z"/><path class="cls-3" d="M46.96,40.66c-.16.03-.3-.09-.33-.28s.08-.37.23-.4.3.09.33.28-.08.37-.23.4Z"/><path class="cls-3" d="M47.64,44.27c-.16.03-.3-.09-.33-.28s.08-.37.23-.4.3.09.33.28-.08.37-.23.4Z"/><path class="cls-3" d="M49.31,42.94c-.16.03-.3-.09-.33-.28s.08-.37.23-.4.3.09.33.28-.08.37-.23.4Z"/><path class="cls-3" d="M49.9,45.5c-.16.03-.3-.09-.33-.28s.08-.37.23-.4.3.09.33.28-.08.37-.23.4Z"/><path class="cls-3" d="M49.76,48.14c-.16.03-.3-.09-.33-.28s.08-.37.23-.4.3.09.33.28-.08.37-.23.4Z"/><path class="cls-3" d="M48.79,50.86c-.16.03-.3-.09-.33-.28s.08-.37.23-.4.3.09.33.28-.08.37-.23.4Z"/><path class="cls-3" d="M48.96,53.57c0,.19-.11.36-.27.36s-.29-.14-.29-.33.11-.36.27-.36.29.14.29.33Z"/><path class="cls-3" d="M48.12,46.99c0,.19-.11.36-.27.36s-.29-.14-.29-.33.11-.36.27-.36.29.14.29.33Z"/><path class="cls-3" d="M47.61,49.69c0,.19-.11.36-.27.36s-.29-.14-.29-.33.11-.36.27-.36.29.14.29.33Z"/><path class="cls-3" d="M47.09,53.02c0,.19-.11.36-.27.36s-.29-.14-.29-.33.11-.36.27-.36.29.14.29.33Z"/><path class="cls-3" d="M17.95,64.49c.37.36.66.79.95,1.21,1.27,1.85,2.54,3.71,3.81,5.56.37.54.96,1.18,1.49,1.01.32-.1.44-.49.37-.85s-.31-.7-.56-1c-.95-1.14-2.27-2.05-2.87-3.36-.27-.6-.38-1.23-.67-1.82-.69-1.39-2.17-2.11-3.39-2.93-.67-.45-1.25-.92-1.8-1.53-.41-.45-1.08-1.43-1.76-1.31-1.05.19-.14,1.92.41,2.48,1.14,1.19,2.86,1.38,4.04,2.54h-.02Z"/><path class="cls-3" d="M15.18,60.11c-.09.13-.28.14-.43.03s-.2-.32-.11-.45.28-.14.43-.03.2.32.11.45Z"/><path class="cls-3" d="M13.14,59.74c-.09.13-.28.14-.43.03s-.2-.32-.11-.45.28-.14.43-.03.2.32.11.45Z"/><path class="cls-3" d="M13.58,61.84c-.09.13-.28.14-.43.03s-.2-.32-.11-.45.28-.14.43-.03.2.32.11.45Z"/><path class="cls-3" d="M16.59,63.94c-.09.13-.28.14-.43.03s-.2-.32-.11-.45.28-.14.43-.03.2.32.11.45Z"/><path class="cls-3" d="M16.86,61.82c-.09.13-.28.14-.43.03s-.2-.32-.11-.45.28-.14.43-.03.2.32.11.45Z"/><path class="cls-3" d="M19.07,63.24c-.09.13-.28.14-.43.03s-.2-.32-.11-.45.28-.14.43-.03.2.32.11.45Z"/><path class="cls-3" d="M20.82,65.22c-.09.13-.28.14-.43.03s-.2-.32-.11-.45.28-.14.43-.03.2.32.11.45Z"/><path class="cls-3" d="M22.03,67.84c-.09.13-.28.14-.43.03s-.2-.32-.11-.45.28-.14.43-.03.2.32.11.45Z"/><path class="cls-3" d="M24.05,69.66c.14.13.17.33.06.45s-.3.1-.44-.03-.17-.33-.06-.45.3-.1.44.03Z"/><path class="cls-3" d="M18.84,65.55c.14.13.17.33.06.45s-.3.1-.44-.03-.17-.33-.06-.45.3-.1.44.03Z"/><path class="cls-3" d="M20.36,67.83c.14.13.17.33.06.45s-.3.1-.44-.03-.17-.33-.06-.45.3-.1.44.03Z"/><path class="cls-3" d="M22.33,70.58c.14.13.17.33.06.45s-.3.1-.44-.03-.17-.33-.06-.45.3-.1.44.03Z"/><path class="cls-3" d="M19.37,60.53c.37.36.66.79.95,1.21,1.27,1.85,2.54,3.71,3.81,5.56.37.54.96,1.18,1.49,1.01.32-.1.44-.49.37-.85s-.31-.7-.56-1c-.95-1.14-2.27-2.05-2.87-3.36-.27-.6-.38-1.23-.67-1.82-.69-1.39-2.17-2.11-3.39-2.93-.67-.45-1.25-.92-1.8-1.53-.41-.45-1.08-1.43-1.76-1.31-1.05.19-.14,1.92.41,2.48,1.14,1.19,2.86,1.38,4.04,2.54h-.02Z"/><path class="cls-3" d="M16.59,56.14c-.09.13-.28.14-.43.03s-.2-.32-.11-.45.28-.14.43-.03.2.32.11.45Z"/><path class="cls-3" d="M14.55,55.77c-.09.13-.28.14-.43.03s-.2-.32-.11-.45.28-.14.43-.03.2.32.11.45Z"/><path class="cls-3" d="M15,57.88c-.09.13-.28.14-.43.03s-.2-.32-.11-.45.28-.14.43-.03.2.32.11.45Z"/><path class="cls-3" d="M18.01,59.98c-.09.13-.28.14-.43.03s-.2-.32-.11-.45.28-.14.43-.03.2.32.11.45Z"/><path class="cls-3" d="M18.27,57.86c-.09.13-.28.14-.43.03s-.2-.32-.11-.45.28-.14.43-.03.2.32.11.45Z"/><path class="cls-3" d="M20.48,59.27c-.09.13-.28.14-.43.03s-.2-.32-.11-.45.28-.14.43-.03.2.32.11.45Z"/><path class="cls-3" d="M22.24,61.26c-.09.13-.28.14-.43.03s-.2-.32-.11-.45.28-.14.43-.03.2.32.11.45Z"/><path class="cls-3" d="M23.45,63.88c-.09.13-.28.14-.43.03s-.2-.32-.11-.45.28-.14.43-.03.2.32.11.45Z"/><path class="cls-3" d="M25.46,65.7c.14.13.17.33.06.45s-.3.1-.44-.03-.17-.33-.06-.45.3-.1.44.03Z"/><path class="cls-3" d="M20.26,61.59c.14.13.17.33.06.45s-.3.1-.44-.03-.17-.33-.06-.45.3-.1.44.03Z"/><path class="cls-3" d="M21.78,63.87c.14.13.17.33.06.45s-.3.1-.44-.03-.17-.33-.06-.45.3-.1.44.03Z"/><path class="cls-3" d="M23.75,66.61c.14.13.17.33.06.45s-.3.1-.44-.03-.17-.33-.06-.45.3-.1.44.03Z"/><path class="cls-3" d="M22.07,58.93c.28.27.51.59.73.91.97,1.39,1.95,2.78,2.92,4.18.28.41.73.89,1.14.76.24-.08.34-.37.28-.64s-.24-.53-.43-.75c-.73-.86-1.74-1.54-2.2-2.52-.21-.45-.29-.93-.51-1.37-.53-1.04-1.67-1.59-2.6-2.2-.52-.34-.96-.69-1.38-1.15-.31-.34-.83-1.07-1.35-.98-.81.14-.11,1.44.31,1.87.88.89,2.19,1.04,3.1,1.91v-.02Z"/><path class="cls-3" d="M19.94,55.64c-.07.1-.22.11-.33.02s-.15-.24-.09-.34.22-.11.33-.02.15.24.09.34Z"/><path class="cls-3" d="M18.38,55.36c-.07.1-.22.11-.33.02s-.15-.24-.09-.34.22-.11.33-.02.15.24.09.34Z"/><path class="cls-3" d="M18.72,56.94c-.07.1-.22.11-.33.02s-.15-.24-.09-.34.22-.11.33-.02.15.24.09.34Z"/><path class="cls-3" d="M21.03,58.52c-.07.1-.22.11-.33.02s-.15-.24-.09-.34.22-.11.33-.02.15.24.09.34Z"/><path class="cls-3" d="M21.23,56.92c-.07.1-.22.11-.33.02s-.15-.24-.09-.34.22-.11.33-.02.15.24.09.34Z"/><path class="cls-3" d="M22.93,57.99c-.07.1-.22.11-.33.02s-.15-.24-.09-.34.22-.11.33-.02.15.24.09.34Z"/><path class="cls-3" d="M24.27,59.48c-.07.1-.22.11-.33.02s-.15-.24-.09-.34.22-.11.33-.02.15.24.09.34Z"/><path class="cls-3" d="M25.2,61.45c-.07.1-.22.11-.33.02s-.15-.24-.09-.34.22-.11.33-.02.15.24.09.34Z"/><path class="cls-3" d="M26.75,62.81c.11.1.13.25.05.34s-.23.08-.34-.02-.13-.25-.05-.34.23-.08.34.02Z"/><path class="cls-3" d="M22.76,59.73c.11.1.13.25.05.34s-.23.07-.34-.02-.13-.25-.05-.34.23-.08.34.02Z"/><path class="cls-3" d="M23.92,61.44c.11.1.13.25.05.34s-.23.07-.34-.02-.13-.25-.05-.34.23-.08.34.02Z"/><path class="cls-3" d="M25.43,63.5c.11.1.13.25.05.34s-.23.07-.34-.02-.13-.25-.05-.34.23-.08.34.02Z"/><path class="cls-3" d="M19.32,35.18c-.19-.34-.15-.77.02-1.12s.45-.63.72-.91c1.21-1.19,2.5-2.31,3.9-3.26.49-.34,1-.65,1.48-1.01.55-.42,1.05-.9,1.63-1.27.51-.33,1.07-.58,1.64-.79,2.2-.81,4.55-1.05,6.88-1.28.24-.02.48-.05.71.02s.44.24.48.47-.1.47-.3.6-.43.19-.66.24c-.55.12-1.11.21-1.67.16-.55-.04-1.08-.22-1.62-.27-1.34-.12-2.62.52-3.81,1.14-1.07.56-2.14,1.11-3.12,1.82-1.24.9-2.3,2.02-3.36,3.13-.56.59-1.12,1.18-1.55,1.87-.14.23-.27.71-.53.83-.3.14-.71-.12-.85-.37h0Z"/><path class="cls-3" d="M19.75,35.07c-.19-.34-.15-.77.02-1.12s.45-.63.72-.91c1.21-1.19,2.5-2.31,3.9-3.26.49-.34,1-.65,1.48-1.01.55-.42,1.05-.9,1.63-1.27.51-.33,1.07-.58,1.64-.79,2.2-.81,4.55-1.05,6.88-1.28.24-.02.48-.05.71.02s.44.24.48.47-.1.47-.3.6-.43.19-.66.24c-.55.12-1.11.21-1.67.16-.55-.04-1.08-.22-1.62-.27-1.34-.12-2.62.52-3.81,1.14-1.07.56-2.14,1.11-3.12,1.82-1.24.9-2.3,2.02-3.36,3.13-.56.59-1.12,1.18-1.55,1.87-.14.23-.27.71-.53.83-.3.14-.71-.12-.85-.37h0Z"/><path class="cls-3" d="M18.8,32.72c-.1-.23-.07-.53,0-.77s.22-.44.36-.62c.6-.82,1.25-1.59,1.95-2.24.25-.23.5-.45.74-.69.27-.29.53-.62.81-.87.23-.2.42-.32.82-.54,1.39-.78,2.1-1.17,2.75-1.18.06,0,.6,0,1.03.31.16.12.23.22.24.32.02.16-.05.32-.15.41-.1.09-.21.13-.33.17-.41.12-.77.11-.83.11-.15,0-.68.03-1.17.19-.35.12-.58.29-.78.42-1.48,1.05-1.39.8-2.02,1.34-.72.62-1.33,1.15-1.7,2.02-.03.07-.2.48-.5.99-.46.79-.67.88-.82.88-.19,0-.37-.12-.43-.26h.03Z"/><path class="cls-3" d="M30.07,24.15c.09-.19.28-.36.47-.47s.38-.15.57-.2c.81-.19,1.62-.33,2.38-.37.04,0,.13,0,.24-.01.35-.03.54-.1.74-.14.2-.04.39-.03.78,0,.29.02.64.04,1.06.15,1.06.27,1.37.8,2.05,1.19.04.02.14.08.18.19.03.09.02.21-.07.32-.09.11-.22.17-.33.18-.11,0-.19-.03-.27-.07-.3-.14-.49-.35-.51-.36-.26-.27-.63-.35-1.36-.53-.41-.1-.74-.12-.96-.14-.16-.01-.56-.04-1.13,0-.77.05-.79.15-2.05.32-.63.08-.68.07-.92.14-.41.13-.66.29-.8.18-.13-.1-.08-.37-.07-.38h0Z"/><path class="cls-3" d="M35.26,27.6c.82-.08,1.62-.32,2.44-.41.34-.03.73-.03.98.2.34.31.27.89-.04,1.23s-.79.45-1.24.48c-.48.03-.96-.03-1.42-.14-.43-.1-.87-.26-1.31-.24-.35.01-.68.13-1.01.22-.7.2-1.75.51-2.48.38s-.2-.84.22-1.04c1.25-.58,2.53-.54,3.87-.68h-.01Z"/><path class="cls-3" d="M28.44,31.88c.26-.48.65-.89,1.12-1.17.34-.21.72-.35,1.11-.46.91-.26,1.87-.37,2.81-.31.16,0,.34.03.46.15.17.17.12.46-.04.64s-.39.25-.62.31c-1.3.35-2.76.35-3.8,1.2-.2.16-.39.36-.61.49s-.52.19-.75.06c-.26-.14-.35-.52-.18-.77.22-.33.78-.37.91-.74"/><path class="cls-3" d="M21.39,36.24s.24-1.06.45-1.3c.46-.53,1.28-.59,1.8-1.05.4-.36.57-.91.87-1.36.45-.68,1.23-1.14,2.05-1.21.12,0,.25-.01.37.04.26.12.32.49.2.75s-.36.44-.6.6c-.83.59-1.66,1.18-2.5,1.77-.2.14-.41.29-.55.49-.19.27-.26.6-.38.9-.13.32-.33.6-.59.84-.26.23-.63.42-.94.27-.3-.14-.42-.53-.35-.85s.28-.6.49-.85"/><ellipse class="cls-3" cx="33.55" cy="48.12" rx="13.06" ry="12.15"/></g></g></svg>