<?xml version="1.0" encoding="UTF-8"?><svg id="Layer_2" xmlns="http://www.w3.org/2000/svg" viewBox="0 0 92.92 92.92"><defs><style>.cls-1{stroke-width:.5px;}.cls-1,.cls-2{fill:none;stroke-linecap:round;stroke-linejoin:round;}.cls-1,.cls-2,.cls-3{stroke:#fff;}.cls-3{fill:#00a19a;stroke-miterlimit:10;}</style></defs><g id="Layer_1-2"><g id="Endocrine"><circle class="cls-3" cx="46.46" cy="46.46" r="45.96"/><path class="cls-2" d="M67.23,50.01c-2.78,4.3-5.23,8.94-7.59,13.66,1.11.26,3.44-.69,3.25.87l-.76-.11.54.54c-.45,1.59-1.33.8-3.25,1.08-.91.14-1.99,1.17-3.25,1.52-.54.15-5.39,1.12-4.99,1.3-.61-.28-.66-1.45-.65-1.74.12-2.63,5.07-3.37,6.72-5.42,1.14-1.41,1.58-3.49,2.6-5.42,2.05-3.9,8.06-11.2,8.46-15.18.2-2.05-.69-3.93-.22-6.07l.87.11.43-.76c2.56.44,3.43-5.23,2.17-6.72l.81-.59.71-.71c.9.11.93,1.1,2.17.87l-.11,1.05.54.9c-.25.48-.72.72-.87,1.3l-.76-.11.54.54c-.47,1.05-.73,2.31-1.08,3.47l-.76-.11.54.54c-1.25,5.61-3.17,10.56-5.86,14.75"/><path class="cls-2" d="M23.41,40.68c-.24.12-11.01,9.2-9.33,19.64,1.01,6.25,5.76,10.41,13.26,9.33,14.93-2.16,16.54-17.74,23.57-27.5,2.46-3.42,5.97-5.7,7.86-8.84,2.58-4.29,2.99-8.62,5.89-10.8-.1,5.34,2.68,7.8,7.86,7.86l.25-2.21,2.21.25c1.45-3.58-2.47-2.64-3.44-4.42-.97-1.79.23-3.83-.98-5.89-1.93-3.27-8.78-3.97-12.77-2.46-4.87,1.85-11.79,6.86-17.68,10.8-6.86,4.59-16.58,13.14-16.2,13.26.37.12-.25.86-.49.98h-.01Z"/><path class="cls-1" d="M31.51,41.79c10.41-3.42-.51,14.01-4.42,11.78-4.19-2.39,2.8-11.25,4.42-11.78Z"/></g></g></svg>