<?xml version="1.0" encoding="UTF-8"?><svg id="Layer_2" xmlns="http://www.w3.org/2000/svg" viewBox="0 0 91.92 91.92"><defs><style>.cls-1{stroke-width:0px;}.cls-1,.cls-2{fill:#bfb468;}.cls-3{fill:none;stroke-linecap:round;stroke-linejoin:round;stroke-width:.25px;}.cls-3,.cls-2{stroke:#fff;}.cls-2{stroke-width:.75px;}</style></defs><g id="Layer_1-2"><g id="Gastrointestinal"><circle class="cls-1" cx="45.96" cy="45.96" r="45.96"/><polygon class="cls-2" points="40.15 11.56 44.2 11.56 44.68 13.96 44.8 16.31 44.66 18.47 44.37 20.48 43.98 22.21 43.52 23.51 43.02 24.46 42.53 25.21 41.97 26.08 41.29 27.26 40.79 28.86 40.61 30.76 40.85 32.56 41.21 34.03 41.66 35.48 42.05 37.2 42.18 38.43 42.4 39.97 42.67 41.81 43 43.77 43.42 45.67 43.96 47.47 44.66 48.98 45.51 50.08 46.37 50.88 47.08 51.55 48.32 52.63 49.56 53.28 50.3 53.49 51.56 53.73 52.68 54.06 53.7 54.57 54.73 55.29 55.76 55.89 56.79 56.19 57.79 56.13 58.88 55.68 59.38 54.9 59.44 54.21 59.82 53.45 60.64 52.65 61.26 52.28 61.9 52 62.4 51.92 62.94 51.74 63 51.33 63.41 50.88 63.91 50.62 64.71 50.43 65.46 50.32 66.14 50.47 66.78 50.86 67.38 50.84 67.84 50.49 68.73 50.41 69.45 50.56 70.13 50.84 70.77 51.23 70.98 51.77 71.46 51.94 71.89 51.72 72.72 51.81 73.4 52.2 74.02 52.65 74.56 53.37 74.68 54.02 75.09 54.31 75.59 54.32 76.13 54.7 76.77 55.59 76.96 56.61 76.93 57.3 77.47 57.58 77.64 57.8 77.91 58.77 78.15 59.83 77.97 60.41 77.74 60.82 78.2 61.14 78.61 61.49 78.71 62.27 78.59 63.39 78.2 64.36 78.47 64.64 78.67 64.97 78.71 65.96 78.67 66.57 78.3 67.6 77.64 68.47 77.91 68.79 78.11 69.44 77.74 70.98 77.08 73.52 71.27 73.52 71.5 71.73 71.87 69.98 72.2 68.68 72.59 68.25 72.94 68.1 72.28 66.67 72.16 65.81 72.2 64.97 72.49 64.69 72.88 64.53 72.02 63.24 71.87 62.51 71.71 61.62 71.97 61.25 72.28 61.01 71.89 60.47 71.54 60.22 70.94 59.72 70.38 58.98 70.01 58.18 70.57 57.9 70.63 57.66 70.13 57.45 69.39 57.58 68.62 57.77 67.44 57.58 66.76 57.3 67.01 57 66.58 56.86 66.02 57.1 65.15 57.8 64.3 58.12 63.33 58.01 62.13 57.47 60.97 57.12 60.04 57.32 59.32 57.86 58.88 58.68 58.62 59.87 58.82 61.1 58.92 61.77 58.62 62.72 58.14 63.5 57.39 64.41 56.28 65.38 54.83 66.29 52.97 67.15 50.74 67.8 48.19 68.29 45.11 68.45 42.05 68.17 39.26 67.37 36.78 66.24 34.65 64.86 32.81 63.39 31.28 61.9 30 60.63 28.01 58.53 24.62 55.55 21.64 52.59 20.71 51.36 19.62 49.76 18.5 47.72 17.41 45.22 16.43 42.37 15.65 39.11 15.24 35.45 15.21 32.21 15.57 29.45 16.29 27.14 17.41 25.26 18.91 23.77 20.8 22.62 23.13 21.84 25.84 21.3 27.93 21.54 29.79 22.25 31.53 23.22 33.26 24.33 34.32 24.48 35.27 24.37 36.3 23.87 37.28 22.97 37.85 22.19 38.87 20.57 39.66 18.67 40.11 15.84 40.15 11.56 40.15 11.56"/><path class="cls-3" d="M26.6,49.41c.27-2.06,1.32-.38,1.73-2.09"/><path class="cls-3" d="M27.35,46.41c-.95.66.42,1.31-.25,1.9"/><path class="cls-3" d="M28.97,50.64c-1.77-.3-3.09-2.05-4.53-3.07-1.63-1.16-3-7.1-2.37-10.85.79-4.54,3.27-9.39,8.17-9.83"/><path class="cls-3" d="M28.16,27.38c1.27-.2.93,1.56,1.86,2.04"/><path class="cls-3" d="M30.63,28.66c-.42-.39-.97-.39-1.44-.6"/><path class="cls-3" d="M28.14,28.96c-.98.51-1.72,1.23-2.94.58"/><path class="cls-3" d="M26.52,29.75c.98.32.9,1.46,1.67,1.97"/><path class="cls-3" d="M29.68,31c-1.33-.12-.87-1.22-2.17-.21"/><path class="cls-3" d="M23.15,32.91c2.89-.56,1.49.36,2.83.69"/><path class="cls-3" d="M24.8,33.66c-.56-.05-.81-.25-1-.85"/><path class="cls-3" d="M22.61,34.48c-.5-.09-1.55-.08-1.63-.83-.14-1.09-1.16-.33-1.38-1.37"/><path class="cls-3" d="M19.12,34.21c.94.62,1.21-.61,1.96-.26"/><path class="cls-3" d="M22.14,36.37c1.71-.76.45.83,2.21.51"/><path class="cls-3" d="M25.32,36.66c-1.36-1.81-.99-.59-2.52-.49.86-.07,1.05-1.57,1.72-1.61"/><path class="cls-3" d="M21.98,37.41c-1.4.31-2.03-.91-2.65-1.04"/><path class="cls-3" d="M19.59,38.25c0-.48.34-1,.76-1.2"/><path class="cls-3" d="M18.82,39.1c1.08.64,2.31,1.08,3.22,1.92"/><path class="cls-3" d="M20.84,38.69c.29.54-.11,1.15.25,1.64-.93-.05-.5-.45-1.1.12"/><path class="cls-3" d="M21.92,39.32c.48-.67,1.52.06,2.18-.15.53-.16.68.36,1.08.43"/><path class="cls-3" d="M23.54,40.18c.13-.34.04-.75-.21-1.03.3-.35.52-.79.63-1.26"/><path class="cls-3" d="M25.42,41.16c-1.37,1.07-1.54.58-3.23.83"/><path class="cls-3" d="M24.34,40.16c-.89.16-.24,1.74-1.23,1.75,1.65,1.13.12,1.16,2.48,1.42"/><path class="cls-3" d="M22.8,44.64c-1.52-2.55-1.66-.6-3.19-1.72"/><path class="cls-3" d="M20.14,41.54c1.08.17.43,1.4,1.24,1.7"/><path class="cls-3" d="M23.33,46c1.54-1.52,1.21,1.26,2.33-.06"/><path class="cls-3" d="M25.56,44.47c-.49.14-.72,1.16-1.19,1.15"/><path class="cls-3" d="M26.83,48.58c-.29-1.55-.87.48-.56-2.16"/><path class="cls-3" d="M23.87,31.59c.32-2.06-1.48-3.94-.6-5.84"/><path class="cls-3" d="M22.11,26.08c.52.21.82.65.95,1.3"/><path class="cls-3" d="M23.64,26.08c.1.38.6.6.42,1.07"/><path class="cls-3" d="M24.86,26.6c-.57.87-1.09-.06-1.51,2-.78-.41-1.31-1.04-2.02-1.55"/><path class="cls-3" d="M21.29,27.85c.54,1.06,1.67.83,2.31,1.56"/><path class="cls-3" d="M23.35,28.6c.49-.86,1.84-.05,1.9-1.26"/><path class="cls-3" d="M26.67,28.03c1.08-.69.69-2.42,1.62-3.35"/><path class="cls-3" d="M27.75,23.93c-.19.56-.21,1.2-.03,1.78"/><path class="cls-3" d="M27.6,26.14c.52-.55,1.43.34,1.62-.64"/><path class="cls-3" d="M28.84,24.95c0,.41-.23.79-.56.99"/></g></g></svg>