<?xml version="1.0" encoding="UTF-8"?><svg id="Layer_2" xmlns="http://www.w3.org/2000/svg" viewBox="0 0 91.92 91.92"><defs><style>.cls-1{fill:none;stroke-linecap:round;stroke-linejoin:round;stroke-width:.5px;}.cls-1,.cls-2{stroke:#fff;}.cls-2{stroke-miterlimit:10;}.cls-2,.cls-3{fill:#7f1c3e;}.cls-3{stroke-width:0px;}</style></defs><g id="Layer_1-2"><g id="Heart"><circle class="cls-3" cx="45.96" cy="45.96" r="45.96"/><path class="cls-2" d="M39.73,10.11c.43.28.83.55.95,1.05l-.04.97c-1.58,3.14-2.69,6.46-3.12,10.06-.06.22-.22.45-.16.67,2.15,1.68,4.88,2.82,7.66,2.25.65-.35,1.46-.3,2.09-.69,1.09-.37,2.23-.89,3.28-1.36,2.11-3.1,3.83-6.8,5.37-10.35.47-.69.75-1.64,1.46-2.29l1.24-.69c.93-.24,1.86-.36,2.73.1.53.53,1.3.97,1.56,1.72.34,1.38-.04,2.67-.79,3.79-.24,1.07-.83,2.03-1.07,3.1l.08.06c2.33-1.13,4.84-1.5,7.39-2.06.67,0,1.3.14,1.76.61,1.24,1.44,1.11,3.75.83,5.55-.38.81-.81,1.86-1.7,2.29-2.25.26-4.45,1.01-6.46,1.76l-.08.1c.4,1.19.79,2.39.99,3.65.2.53.71.93,1.19,1.13,1.58.22,3.52-.2,5.08.51.38.14,1.09.75,1.24-.06,1.56-1.38,3.61-2.25,5.24-3.65.41-.02.83-.16,1.18.1.49.71.4,1.96,0,2.73-1.2,1.17-2.94,1.34-3.95,2.78l-.36.36c2.21,2.84,2.79,7.25,1.05,10.53-.89,1.9-2.15,3.62-3.34,5.21l-.04-.02c-.69,1.24-1.4,2.23-2.19,3.3-.63.87-1.21,1.58-1.9,2.37-1.3,1.36-2.43,2.92-3.64,4.27-.16.3-.41.63-.65.87-1.96,2.96-4.56,5.61-6.24,8.71-2.17,3.22-4.54,5.73-8.08,7.23-1.56.51-3.08.79-4.82,1.01-1.98.47-4.13-.04-6.05-.41-1.48-.32-2.86-.69-4.15-1.6-1.86-1.42-3.5-3.1-5.02-4.88-1.17-1.34-2.29-2.55-2.96-4.11-.45-.38-.47-1.05-.81-1.46-1.01-2.53-2.39-4.52-3.28-7.01-2.63,2.15-4.6,4.54-7.25,6.6-.49.2-.89.59-1.38.79-1.44.06-3.2.08-4.13-1.28-.43-.67-.69-1.5-.59-2.29-.16-.08.06-.12,0-.22.02-.95.43-1.86.95-2.61l.32-.16c1.97-2.15,4.33-3.56,6.42-5.67,2.25-1.26,3.14-3.63,4.46-5.59.34-1.03.65-2.11.77-3.24l.14-.18c.06-.22-.04-.67.22-.87-.06-.04-.08-.3.02-.41.2-1.13.77-2.21.99-3.38.08-.55.3-1.03.59-1.5.51-1.64,1.07-3.38,2.05-4.86,1.36-2.31,2.25-4.66,3.46-6.99l.2-.67c.16.06.08-.12.16-.18-1.42-1.6-3.36-3.06-5.22-4.25.12-.73-.14-1.72.36-2.31.14-.45.32-.65.51-1.09.12-.1.22-.39.45-.39-.1-.02,0-.22.08-.26.55-.55,1.3-.79,1.96-1.13,1.56,1.11,2.73,2.75,4.23,3.83.53-1.13.97-2.39,1.48-3.24.08-.22.3-.73.34-1.05.32-.81.63-1.82.75-2.81l.12-.1-.08-.04c.08-1.15.47-2.33,1.54-2.83,1.42-.69,3.34-.69,4.62.18h0Z"/><path class="cls-1" d="M69.52,18.63c.51.83.57,1.98.36,2.98-.08.08-.1.24-.04.35-.55.73-.83,1.76-2,1.7-2.71.67-5.45,1.32-8.02,2.37-.61.18-1.24.36-1.74.69-3.18.97-6.32,2.33-9.05,4.05-.63.59-1.34,1.15-2,1.72-.53.65-.99,1.42-1.42,2.05-.71,1.07-1.34,2.19-2.01,3.28-.16.12-.38.24-.61.14-.06-.79.2-1.17.51-1.86.08-.3.16-.79-.08-1.05-.14-.18-.38-.22-.59-.14-1.01,1.03-1.48,2.57-1.92,3.93.57,1.68.69,3.22,1.01,4.96.2.3.08.79.26,1.01.02.44-.08,1.01-.04,1.54.04.12.08.4.12.51-.06.28.08.49.02.77.2,1.09.06,2.73.26,3.83-.16.32.18.71-.08,1.05l.04.14h-.04c.02,2.05-.43,4.48-.73,6.83-.43,2.35-1.3,4.39-2.69,6.34-.79.97-1.74,1.54-2.79,1.86-1.42.12-2.79.22-4.01-.55-1.6-1.21-3.18-2.39-3.91-4.37-1.62-2.75-2.61-6.03-3.75-9.11-.45-1.84-1.36-3.46-1.46-5.43.04-.79.79-1.15,1.42-1.4l.83-.04c.1.18.45.1.63.22.73.34,1.52.85,2.43.69.34-.34.38-.81.18-1.23-.41-.61-1.26-1.01-1.96-1.32-.49-.36-1.01-.81-.95-1.48-.14-1.13.49-1.88.89-2.73.18-.1.14-.3.24-.45,1.15-1.24,2.15-2.17,3.73-2.51.73-.1,1.56-.32,2.15.18.83,1.05,1.01,2.25.81,3.64-.26,1.4-1.3,2.78-2,3.83-.43.47-.63,1.03-1.03,1.6,0,.12.04.24-.14.28.02.1-.02.3.14.37-.12.04-.08.24,0,.3.12.3.51.18.73.24,1.46-.85,1.98-2.15,3.06-3.28l1.64-2.03v-.16c1.34-1.46,3.42-3.1,3.04-5.1.06-.22-.1-.77-.18-.91-.08-.55-.26-1.3-.91-1.64-.24-.1-.51-.04-.73.04-1.2.95.59,2.79-.95,3.22-.32.12-.69.04-1.05-.04-.57-.45-.51-1.18-.45-1.82.55-1.64,1.16-3.24,1.36-4.88.37-2.55.57-4.7,1.09-7.23,1.7,1.01,3.38,1.9,5.14,2.73.91.36,1.97.26,2.88.08,3.44-1.3,6.66-3.58,10.31-4.49,3.93-1.05,7.9-2.19,11.97-2.8.2-.65.28-1.4.87-1.86.49-.04.97,0,1.24.41h0l-.03-.02Z"/><path class="cls-1" d="M60.37,27.61c.16.36.55.47.81.75.55.61.79,1.4,1.09,2.13.16.71.14,1.66.06,2.55-.49,1.78-.95,3.56-2.21,5.06l.02.04c-.89,1.03-1.8,2.47-2.94,3.34-1.07.85-2.75.32-3.91.89-.16.2-.59.2-.47.51-.24.04-.1.24-.12.4.16.16.24.41.51.37,1.03-.24,2.17-.2,3.14.1.55.2.77.75,1.03,1.24.04,1.05-.14,2-.59,2.82.04.16-.08.08-.14.22-.33.28-.3.81-.18,1.19.14.32.41.43.69.55,2.05-.35,2.71-2.55,3.5-4.15,1.72-3.46,1.52-7.7,4.88-10.35,1.48-.91,3.34-1.07,5.02-.49.77.22,1.11,1.09,1.58,1.54.14.63.2,1.54-.18,2.01-1.92,2.25-5.1,3.93-7.33,6.12-.95.79-1.84,1.72-2.73,2.55-1.48,1.17-2.77,2.67-3.83,4.33-.08.28-.16.59-.08.89.1.12.24.12.18.32.3.16.67.12.99.04,1.24-.67,1.5-2.21,2.79-2.55.35-.1.33.28.41.47.28,2.27-1.86,3.16-2.88,4.82-3,3.81-6.56,7.69-10.43,10.57-1.46.77-2.98,2.09-4.88,1.66-.69-.59-.38-1.5-.4-2.25.22-.53.16-1.17.32-1.72.55-2.94.32-5.77.49-8.61l-.08-.06.08-.04c.04-3.34-.3-6.36,1.42-9.38.79-1.09,2.17-1.58,3.36-2.15.18-.18.1-.39.06-.61-.28-.36-.81-.35-1.2-.22-.2.04-.45.18-.55.32-.2-.02-.45.16-.59.28-1.01.44-1.54,1.7-2.73,1.82-.37-1.05-.2-2.15-.22-3.28.18-2.96,2.23-5.55,4.31-7.53.75-.73,1.4-1.36,2.19-1.94v-.1l.02.04c2.9-2.17,6.3-3.38,9.7-4.52h.02Z"/><path class="cls-1" d="M38.5,10.98c.2.22.44.59.3.91-.2.26-.47.34-.73.51l-.63-.08c-.2.24-.34.53-.28.89l.1.14c-.83,3.83-1.28,7.45-2.19,11.18-.14.41-.43.73-.81.91-.39.08-.75.12-1.15-.1.87-4.13,1.84-8.46,3.1-12.58.18-.08.16-.32.22-.51-.18-.26-.81-.32-.53-.81.49-.83,1.84-.97,2.59-.47h0Z"/><path class="cls-1" d="M60.88,11.89c.43.67.16,1.42-.18,2.05-.26.34-.63.53-1.05.38-.04-.1-.18-.08-.24-.02l-.12.1c-.49,1.9-1.15,3.67-1.82,5.57-.49.28-1.03.63-1.6.81.85-2.33,1.7-4.46,2.59-6.74.08-.04.06-.14.06-.22-.51-.22-.53-.83-.65-1.32.02-.26.06-.53.26-.73.57-.18,1.44-1.01,2.21-.43l.55.55h-.01Z"/><path class="cls-1" d="M29.93,22.46c0,.49-.41.77-.51,1.19-.16-.1-.49-.26-.63-.51-1.03-1.05-2.41-1.98-3.46-3,.26-.38.49-.87.95-1.09,1.4,1.03,2.31,2.09,3.65,3.4h0Z"/><path class="cls-1" d="M17.68,56.91c-1.54,1.78-3.52,3.24-5.2,4.96-.02.26.34.2.36.47.22.45.22.95,0,1.42-.36.51-.97.69-1.54.69-.83-.02-1.5-.57-1.88-1.3-.2-.69.04-1.26.43-1.76.75-.79,1.9-.83,2.92-.73,1.8-1.11,3.18-2.81,4.78-4.07.02.08.18.18.14.32h0Z"/><path class="cls-1" d="M75.84,29.86c-.04.14-.11.26,0,.38-.09.48.05.87.23,1.21-.31.38-.83.38-1.18.74-.38.38-.59.53-1.01.96-.25-.53-.44-1.06-.85-1.33l.04-.14c.91-.84,1.76-1.52,2.76-1.81h0Z"/></g></g></svg>