<?xml version="1.0" encoding="UTF-8"?><svg id="Layer_2" xmlns="http://www.w3.org/2000/svg" viewBox="0 0 92.42 92.42"><defs><style>.cls-1,.cls-2,.cls-3{stroke:#fff;}.cls-1,.cls-3{fill:#312783;}.cls-2{fill:none;stroke-width:.25px;}.cls-3{stroke-width:.5px;}</style></defs><g id="Layer_1-2"><g id="Kidney"><circle class="cls-3" cx="46.21" cy="46.21" r="45.96"/><path class="cls-1" d="M26.66,67.03c-.65-7.36-1.97-15.89,2.27-22.34,1.83-2.79,6.11-4.92,8.88-5.8.01-.69-2.82.51-3.09.6-3.11.9-5.96,4.08-9.45,2.77-.59-.1-.24-.76-.55-1.16-.44-.59-.17-2.49.78-2.46.85.01,1.73.15,2.57.26-.88-.21-1.57-.47-1.95-.68-.48-.25.05-1.91.61-1.74,3.38,1.04,7.42,2.16,10.68.38,3.3-1.8,3.33-3.74,3.64-5.21-1.26,3.73-5.7,6.6-9.11,3.52-4.95-4.44-1.45-11.56,3.4-15.11.48-.4.98-.76,1.5-1.05,11.12-6.31,25.48,1.55,27.17,14,4.72,6.43,1.41,10.77.61,17.34-.8,7.05-5.22,18.94-19.15,18.94-11.44,0-17.62-8.61-14.01-19.18.92-3.07,4.19-5.47,6.73-4.13.5-.66,1.12-1.34,1.15-2.25-2.61-1.15-7.01,1.66-8.56,3.94-3.84,5.63-2.7,12.95-2.82,19.36-.04,2.19-1.14,1.77-1.3,0h0Z"/><path class="cls-3" d="M38.17,45.98c1.13.6,1.84,1.91,1.59,3.92-1.17,1.59-3.53,1.8-5.17,2.92-1.37.94-.1,1.51-.1,2.6,0,.82.76,1.14.86,1.85.2,1.47,1.73,1.61,2.77,2.37,3.74,2.71,3.81-5.26,3.94-7.43.06-1.03.11-3.24,1.58-2.92,1.25.27,1.21,1.9.82,2.78-.65,1.42-3.12,8.52-.76,9,.92.2,1.84.93,2.67.24.92-.76,2,.22,2.99-.59.8-.65,2.55.21,2.31-1.53-.38-2.91-1.91-4.92-3.99-6.89-1.07-1-2.61-5.62-.8-6.3,1.94-.72,2.62,2.97,2.75,4.18.31,3.02,1.64,6.4,4.55,7.6,1.89.78,1.98-1.39,2.98-2.29.65-.59.28-.91,1.24-1.99.61-.71.96-1.71.02-2.27-1.94-1.17-4.24-1.61-6.02-3.11-1.05-.9-4.07-2.51-2.5-3.8.73-.6,1.72-.2,2.43.37,2.02,1.62,4.77,4.18,7.92,4.25.99.02.26-1.15.75-1.68.56-.6-.16-1.36.31-2.08.42-.67-.48-1.41-.02-2.1.26-.4-.18-.72-.55-.79-2.51-.4-5.04-.43-7.47-.06-1.39.2-3.79.4-3.94-1.58-.12-1.57,3.48-1.37,4.32-.93,1.79.98,3.67,2,5.71,1.96.86-.03,3.31.13,2.35-1.34-.59-.92.76-1.37-.43-2.64-.7-.74.71-2.73-.97-2.75-2.32-.01-4.77.29-6.71,1.58-1.62,1.06-6.17,1.62-5.89-.76.27-2.38,3.95-2.05,5.06-1.61,2.02.81,4.34.94,6.47.31,2.06-.61.22-1.66.4-2.92.2-1.29-1.13-1.17-.99-2.35.09-.77-.91-1.79-1.74-1.2-1.79.71-3.3,1.94-4.73,3.15-3.15,2.65-4.38-.94-1.6-1.58,1.26-.28,6.24-1.73,4.87-3.73-.6-.87-2.1-.59-2.33-1.68-.27-1.21-1.86-.76-2.4-1.61-.48-.77-.96-.94-1.43-.18-1.01,1.58-1.24,3.92-1.1,5.32.38,3.76-2.39,4.18-2.46.2-.14-6.37-.1-6.34-1.34-7.03-1.58-.87-1.19.21-2.7.04-.63-.06-1.14.7-.72,1.3.96,1.39,1.5,3.02,1.93,4.63-.58-1.74-1.63-3.21-2.85-4.52-.96-1.03-1.31.78-2.06,1.09-1.21.5-1.07,2.45-1.61,2.96-.67.61-.6,1.96.27,2.37,1.87.85,3.95.81,5.92,1.15-1.97-.34-4.23,7.89-9.38,2.48-3.51-3.7-1.3-9.36,2.13-12.31.48-.4.98-.76,1.5-1.05,11.12-6.31,25.46,1.55,27.16,14.01,4.72,6.42,1.41,10.75.61,17.34-.58,4.83-3.65,9.31-6.78,12.05-8.29,7.32-23.9,5.96-26.47-6.02-.41-1.94-.5-4.25.1-6.28.92-3.07,4.19-5.47,6.73-4.13h0Z"/><line class="cls-2" x1="49.25" y1="23.74" x2="48.68" y2="28.06"/><line class="cls-2" x1="49.69" y1="23.81" x2="48.8" y2="28.05"/><line class="cls-2" x1="50.15" y1="23.58" x2="48.93" y2="27.88"/><line class="cls-2" x1="50.58" y1="23.74" x2="49.12" y2="27.8"/><line class="cls-2" x1="51.05" y1="23.52" x2="49.27" y2="27.9"/><line class="cls-2" x1="51.48" y1="23.76" x2="49.34" y2="27.98"/><line class="cls-2" x1="51.79" y1="24" x2="49.47" y2="28.07"/><line class="cls-2" x1="52.23" y1="24.1" x2="49.54" y2="28.15"/><line class="cls-2" x1="49.71" y1="28.33" x2="52.48" y2="24.37"/><line class="cls-2" x1="52.57" y1="24.86" x2="49.93" y2="28.18"/><line class="cls-2" x1="53.01" y1="24.88" x2="49.92" y2="28.34"/><line class="cls-2" x1="53.11" y1="25.28" x2="50.02" y2="28.41"/><line class="cls-2" x1="53.45" y1="25.43" x2="50.19" y2="28.35"/><line class="cls-2" x1="53.46" y1="25.8" x2="50.19" y2="28.48"/><line class="cls-2" x1="53.7" y1="26.01" x2="50.29" y2="28.49"/><line class="cls-2" x1="50.32" y1="28.62" x2="53.75" y2="26.38"/><line class="cls-2" x1="50.31" y1="28.78" x2="53.66" y2="26.82"/><line class="cls-2" x1="50.25" y1="28.99" x2="53.64" y2="27.18"/><line class="cls-2" x1="50.27" y1="29.13" x2="53.45" y2="27.63"/><line class="cls-2" x1="42.66" y1="27.39" x2="40.13" y2="23.53"/><line class="cls-2" x1="42.49" y1="27.43" x2="39.66" y2="23.43"/><line class="cls-2" x1="42.11" y1="27.32" x2="39.36" y2="23.8"/><line class="cls-2" x1="42.02" y1="27.55" x2="38.84" y2="23.75"/><line class="cls-2" x1="41.75" y1="27.48" x2="38.5" y2="24.05"/><line class="cls-2" x1="41.83" y1="27.77" x2="38.15" y2="24.26"/><line class="cls-2" x1="41.54" y1="27.71" x2="37.95" y2="24.81"/><line class="cls-2" x1="41.52" y1="27.92" x2="37.68" y2="25.3"/><line class="cls-2" x1="41.42" y1="28.04" x2="37.22" y2="25.65"/><line class="cls-2" x1="41.39" y1="28.16" x2="37.08" y2="26.07"/><line class="cls-2" x1="41.27" y1="28.24" x2="36.9" y2="26.51"/><line class="cls-2" x1="41.31" y1="28.4" x2="36.56" y2="26.87"/><line class="cls-2" x1="41.25" y1="28.52" x2="36.75" y2="27.39"/><line class="cls-2" x1="41.3" y1="28.75" x2="36.32" y2="27.79"/><line class="cls-2" x1="53.23" y1="33.56" x2="58.15" y2="34.53"/><line class="cls-2" x1="53.33" y1="33.4" x2="58.58" y2="34.22"/><line class="cls-2" x1="53.71" y1="33.17" x2="58.51" y2="33.7"/><line class="cls-2" x1="53.59" y1="32.92" x2="58.95" y2="33.32"/><line class="cls-2" x1="53.85" y1="32.77" x2="58.98" y2="32.82"/><line class="cls-2" x1="53.57" y1="32.6" x2="59.07" y2="32.38"/><line class="cls-2" x1="53.83" y1="32.42" x2="58.8" y2="31.8"/><line class="cls-2" x1="53.69" y1="32.25" x2="58.62" y2="31.2"/><line class="cls-2" x1="53.66" y1="32.07" x2="58.69" y2="30.57"/><line class="cls-2" x1="53.59" y1="31.95" x2="58.47" y2="30.13"/><line class="cls-2" x1="53.62" y1="31.79" x2="58.26" y2="29.65"/><line class="cls-2" x1="53.46" y1="31.7" x2="58.24" y2="29.1"/><line class="cls-2" x1="53.42" y1="31.56" x2="57.69" y2="28.85"/><line class="cls-2" x1="53.21" y1="31.43" x2="57.7" y2="28.2"/><line class="cls-2" x1="53.57" y1="38.85" x2="59.68" y2="40.45"/><line class="cls-2" x1="53.71" y1="38.74" x2="60.25" y2="40.28"/><line class="cls-2" x1="54.2" y1="38.63" x2="60.21" y2="39.87"/><line class="cls-2" x1="54.08" y1="38.42" x2="60.79" y2="39.65"/><line class="cls-2" x1="54.42" y1="38.34" x2="60.87" y2="39.26"/><line class="cls-2" x1="54.08" y1="38.16" x2="61.03" y2="38.94"/><line class="cls-2" x1="54.42" y1="38.07" x2="60.73" y2="38.44"/><line class="cls-2" x1="54.26" y1="37.91" x2="60.56" y2="37.95"/><line class="cls-2" x1="54.24" y1="37.77" x2="60.71" y2="37.47"/><line class="cls-2" x1="54.16" y1="37.66" x2="60.47" y2="37.08"/><line class="cls-2" x1="54.21" y1="37.54" x2="60.25" y2="36.68"/><line class="cls-2" x1="54.02" y1="37.45" x2="60.27" y2="36.25"/><line class="cls-2" x1="53.98" y1="37.33" x2="59.6" y2="35.96"/><line class="cls-2" x1="53.72" y1="37.19" x2="59.67" y2="35.46"/><line class="cls-2" x1="53.22" y1="44.47" x2="58.43" y2="48.05"/><line class="cls-2" x1="53.4" y1="44.39" x2="59.05" y2="48.04"/><line class="cls-2" x1="53.92" y1="44.42" x2="59.18" y2="47.58"/><line class="cls-2" x1="53.89" y1="44.15" x2="59.82" y2="47.52"/><line class="cls-2" x1="54.24" y1="44.17" x2="60.05" y2="47.13"/><line class="cls-2" x1="53.98" y1="43.87" x2="60.33" y2="46.82"/><line class="cls-2" x1="54.35" y1="43.87" x2="60.25" y2="46.19"/><line class="cls-2" x1="54.26" y1="43.65" x2="60.28" y2="45.6"/><line class="cls-2" x1="54.3" y1="43.5" x2="60.61" y2="45.12"/><line class="cls-2" x1="54.27" y1="43.36" x2="60.54" y2="44.63"/><line class="cls-2" x1="54.36" y1="43.24" x2="60.48" y2="44.12"/><line class="cls-2" x1="54.22" y1="43.08" x2="60.68" y2="43.66"/><line class="cls-2" x1="54.23" y1="42.94" x2="60.15" y2="43.14"/><line class="cls-2" x1="54.03" y1="42.7" x2="60.42" y2="42.62"/><line class="cls-2" x1="50.16" y1="49.96" x2="53.97" y2="56"/><line class="cls-2" x1="50.36" y1="49.98" x2="54.55" y2="56.32"/><line class="cls-2" x1="50.83" y1="50.29" x2="54.82" y2="55.97"/><line class="cls-2" x1="50.89" y1="50.02" x2="55.44" y2="56.26"/><line class="cls-2" x1="51.22" y1="50.23" x2="55.78" y2="56.03"/><line class="cls-2" x1="51.07" y1="49.83" x2="56.15" y2="55.9"/><line class="cls-2" x1="51.42" y1="50.02" x2="56.26" y2="55.29"/><line class="cls-2" x1="51.4" y1="49.77" x2="56.47" y2="54.77"/><line class="cls-2" x1="51.49" y1="49.66" x2="56.94" y2="54.52"/><line class="cls-2" x1="51.5" y1="49.51" x2="57.02" y2="54.03"/><line class="cls-2" x1="51.62" y1="49.46" x2="57.13" y2="53.55"/><line class="cls-2" x1="51.54" y1="49.23" x2="57.46" y2="53.23"/><line class="cls-2" x1="51.59" y1="49.11" x2="57.12" y2="52.48"/><line class="cls-2" x1="51.48" y1="48.8" x2="57.54" y2="52.15"/><line class="cls-2" x1="45.32" y1="52.94" x2="43.39" y2="59"/><line class="cls-2" x1="45.51" y1="53.08" x2="43.7" y2="59.59"/><line class="cls-2" x1="45.72" y1="53.59" x2="44.33" y2="59.58"/><line class="cls-2" x1="46.04" y1="53.49" x2="44.72" y2="60.19"/><line class="cls-2" x1="46.18" y1="53.84" x2="45.32" y2="60.3"/><line class="cls-2" x1="46.43" y1="53.5" x2="45.84" y2="60.48"/><line class="cls-2" x1="46.61" y1="53.86" x2="46.58" y2="60.22"/><line class="cls-2" x1="46.84" y1="53.71" x2="47.32" y2="60.08"/><line class="cls-2" x1="47.05" y1="53.7" x2="48.08" y2="60.27"/><line class="cls-2" x1="47.2" y1="53.63" x2="48.65" y2="60.05"/><line class="cls-2" x1="47.39" y1="53.69" x2="49.25" y2="59.86"/><line class="cls-2" x1="47.53" y1="53.5" x2="49.92" y2="59.91"/><line class="cls-2" x1="47.71" y1="53.47" x2="50.31" y2="59.25"/><line class="cls-2" x1="47.9" y1="53.22" x2="51.09" y2="59.37"/><line class="cls-2" x1="39.93" y1="51.28" x2="34.74" y2="53.74"/><line class="cls-2" x1="39.95" y1="51.49" x2="34.53" y2="54.3"/><line class="cls-2" x1="39.73" y1="51.93" x2="34.91" y2="54.71"/><line class="cls-2" x1="40" y1="52.07" x2="34.75" y2="55.33"/><line class="cls-2" x1="39.85" y1="52.38" x2="35.03" y2="55.78"/><line class="cls-2" x1="40.22" y1="52.34" x2="35.23" y2="56.23"/><line class="cls-2" x1="40.1" y1="52.67" x2="35.85" y2="56.55"/><line class="cls-2" x1="40.34" y1="52.73" x2="36.39" y2="56.94"/><line class="cls-2" x1="40.47" y1="52.86" x2="36.72" y2="57.55"/><line class="cls-2" x1="40.61" y1="52.92" x2="37.2" y2="57.79"/><line class="cls-2" x1="40.68" y1="53.07" x2="37.7" y2="58.06"/><line class="cls-2" x1="40.89" y1="53.05" x2="38.06" y2="58.52"/><line class="cls-2" x1="41.02" y1="53.14" x2="38.74" y2="58.37"/><line class="cls-2" x1="41.3" y1="53.12" x2="39.13" y2="58.94"/><line class="cls-2" x1="44.88" y1="26.55" x2="44.53" y2="21.86"/><line class="cls-2" x1="44.73" y1="26.49" x2="44.19" y2="21.53"/><line class="cls-2" x1="44.47" y1="26.19" x2="43.79" y2="21.69"/><line class="cls-2" x1="44.29" y1="26.35" x2="43.39" y2="21.38"/><line class="cls-2" x1="44.11" y1="26.14" x2="42.99" y2="21.45"/><line class="cls-2" x1="44.04" y1="26.44" x2="42.61" y2="21.45"/><line class="cls-2" x1="43.84" y1="26.24" x2="42.21" y2="21.82"/><line class="cls-2" x1="43.73" y1="26.4" x2="41.78" y2="22.11"/></g></g></svg>