<?xml version="1.0" encoding="UTF-8"?><svg id="Layer_1" xmlns="http://www.w3.org/2000/svg" viewBox="0 0 66.05 53.33"><defs><style>.cls-1{fill:#1d1d1b;}.cls-1,.cls-2{stroke-width:0px;}.cls-2{fill:#7f1c3e;}</style></defs><path class="cls-2" d="M49.33,25.57c0,.72-.26,1.35-.79,1.88l-22.67,22.67c-.53.53-1.15.79-1.88.79s-1.35-.26-1.88-.79-.79-1.15-.79-1.88v-12H2.67c-.72,0-1.35-.26-1.88-.79-.53-.53-.79-1.15-.79-1.88v-16c0-.72.26-1.35.79-1.88.53-.53,1.15-.79,1.88-.79h18.67V2.9c0-.72.26-1.35.79-1.88s1.15-.79,1.88-.79,1.35.26,1.88.79l22.67,22.67c.53.53.79,1.15.79,1.88"/><path class="cls-1" d="M66.05,12v29.33c0,3.31-1.17,6.13-3.52,8.48s-5.17,3.52-8.48,3.52h-13.33c-.36,0-.67-.13-.94-.4s-.4-.58-.4-.94c0-.11-.01-.39-.04-.83s-.03-.81-.02-1.1.06-.62.13-.98.21-.63.42-.81.49-.27.85-.27h13.33c1.83,0,3.4-.65,4.71-1.96s1.96-2.88,1.96-4.71V12c0-1.83-.65-3.4-1.96-4.71s-2.88-1.96-4.71-1.96h-13l-.48-.04-.48-.13-.33-.23-.29-.38-.08-.56c0-.11-.01-.39-.04-.83s-.03-.81-.02-1.1.06-.62.13-.98c.07-.36.21-.63.42-.81.21-.18.49-.27.85-.27h13.33c3.31,0,6.13,1.17,8.48,3.52,2.35,2.35,3.52,5.17,3.52,8.48"/></svg>