<?xml version="1.0" encoding="UTF-8"?><svg id="Layer_2" xmlns="http://www.w3.org/2000/svg" viewBox="0 0 92.42 92.42"><defs><style>.cls-1{stroke:#f6f6f6;}.cls-1,.cls-2{fill:none;stroke-miterlimit:10;}.cls-2{stroke-width:.25px;}.cls-2,.cls-3{stroke:#fff;}.cls-4{stroke-width:0px;}.cls-4,.cls-3{fill:#e93f7c;}.cls-3{stroke-width:.5px;}</style></defs><g id="Layer_1-2"><g id="Lungs"><circle class="cls-3" cx="46.21" cy="46.21" r="45.96"/><path class="cls-4" d="M43.35,8.17c2.11-.9,4.37,10.62,4.68,13.25.31,2.47.87,11.54,1.86,12.13.65-3.02-.96-5.91-.16-8.99,2.26-8.54,8.72-3.33,12.53.9,5.52,6.89,10.73,14.85,12.81,23.17,2.76,6.28,4.34,14.04,2.48,20.51-.77,2.66-4.37,2.88-6.02,1.18-.59-.62-5.24-1.37-7.82-1.85-8.38-1.04-14.52-2.02-13.99-11.49.12-2.21.06-4.54,1.43-6.5-.78-2.07-.12-4.31-1.12-6.33-1.02-2.02-1.83-4.43-1.09-6.67l-1.89-.62-1.89,2.49c.93,4.29.34,9.19-.68,13.45,1.18,4.43.16,10.14-7.6,13.19-2.67.87-6.02,1.37-8.65.81-3.72,1.37-7.07,3.14-9.9,5.69h0c-2.11,1.91-2.54-2.1-2.42-2.94.22-4.4-.84-9.1.59-13.33-.53-1.37-.5-7.98,1.43-9.95-.75-1.77,1.95-4.85,2.67-7.34,1.15-3.87,3.69-7.4,7.07-10.11,3.23-2.55,4.5-7.51,9.59-8.01,3.94-.42,4.1,1.6,4.41,3.89.34,3.31.12,6.84,1.92,9.83.59-.84-.5-8.21-1.09-12.21-.37-2.52-3.82-12.19-2.88-12.58l3.72-1.57h.01Z"/><path class="cls-1" d="M43.35,8.17c2.11-.9,4.37,10.62,4.68,13.25.31,2.47.87,11.54,1.86,12.13.65-3.02-.96-5.91-.16-8.99,2.26-8.54,8.72-3.33,12.53.9,5.52,6.89,10.73,14.85,12.81,23.17,2.76,6.28,4.34,14.04,2.48,20.51-.77,2.66-4.37,2.88-6.02,1.18-.59-.62-5.24-1.37-7.82-1.85-8.38-1.04-14.52-2.02-13.99-11.49.12-2.21.06-4.54,1.43-6.5-.78-2.07-.12-4.31-1.12-6.33-1.02-2.02-1.83-4.43-1.09-6.67l-1.89-.62-1.89,2.49c.93,4.29.34,9.19-.68,13.45,1.18,4.43.16,10.14-7.6,13.19-2.67.87-6.02,1.37-8.65.81-3.72,1.37-7.07,3.14-9.9,5.69h0c-2.11,1.91-2.54-2.1-2.42-2.94.22-4.4-.84-9.1.59-13.33-.53-1.37-.5-7.98,1.43-9.95-.75-1.77,1.95-4.85,2.67-7.34,1.15-3.87,3.69-7.4,7.07-10.11,3.23-2.55,4.5-7.51,9.59-8.01,3.94-.42,4.1,1.6,4.41,3.89.34,3.31.12,6.84,1.92,9.83.59-.84-.5-8.21-1.09-12.21-.37-2.52-3.82-12.19-2.88-12.58l3.72-1.57h.01Z"/><path class="cls-2" d="M34.99,33.48c-.16.31-.53.44-.84.29-.31-.16-.43-.53-.27-.85.16-.31.53-.44.84-.29s.43.53.27.85Z"/><path class="cls-2" d="M34.49,33.85l1.95,1.58c1.8,1.08,3.89.89,4.68-.42.75-1.25.05-3.06-1.57-4.16l-2.83-2.71"/><path class="cls-2" d="M34.68,32.27c-.16.31-.53.44-.84.29s-.43-.53-.27-.85c.16-.31.53-.44.84-.29s.43.53.27.85Z"/><path class="cls-2" d="M34.06,31.33c-.16.31-.53.44-.84.29s-.43-.53-.27-.85c.16-.31.53-.44.84-.29s.43.53.27.85Z"/><path class="cls-2" d="M32.85,31.22c-.16.31-.53.44-.84.29s-.43-.53-.27-.85c.16-.31.53-.44.84-.29s.43.53.27.85Z"/><path class="cls-2" d="M31.49,30.75c-.16.31-.53.44-.84.29-.31-.16-.43-.53-.27-.85.16-.31.53-.44.84-.29s.43.53.27.85Z"/><path class="cls-2" d="M33.05,32.72c-.16.31-.53.44-.84.29-.31-.16-.43-.53-.27-.85.16-.31.53-.44.84-.29.31.16.43.53.27.85Z"/><path class="cls-2" d="M30.92,32.28c-.16.31-.53.44-.84.29-.31-.16-.43-.53-.27-.85.16-.31.53-.44.84-.29s.43.53.27.85Z"/><path class="cls-2" d="M31.15,33.99c-.16.31-.53.44-.84.29-.31-.16-.43-.53-.27-.85.16-.31.53-.44.84-.29s.43.53.27.85Z"/><path class="cls-2" d="M32.44,34.11c-.16.31-.53.44-.84.29s-.43-.53-.27-.85c.16-.31.53-.44.84-.29s.43.53.27.85Z"/><path class="cls-2" d="M31.77,32.97c-.16.31-.53.44-.84.29s-.43-.53-.27-.85c.16-.31.53-.44.84-.29.31.16.43.53.27.85Z"/><path class="cls-2" d="M30.18,32.89c-.16.31-.53.44-.84.29s-.43-.53-.27-.85c.16-.31.53-.44.84-.29s.43.53.27.85Z"/><path class="cls-2" d="M29.43,33.97c-.16.31-.53.44-.84.29-.31-.16-.43-.53-.27-.85.16-.31.53-.44.84-.29.31.16.43.53.27.85Z"/><path class="cls-2" d="M29.17,32.58c-.16.31-.53.44-.84.29s-.43-.53-.27-.85c.16-.31.53-.44.84-.29s.43.53.27.85Z"/><path class="cls-2" d="M30.24,31.5c-.16.31-.53.44-.84.29s-.43-.53-.27-.85c.16-.31.53-.44.84-.29s.43.53.27.85Z"/><path class="cls-2" d="M30.25,34.87c-.16.31-.53.44-.84.29s-.43-.53-.27-.85c.16-.31.53-.44.84-.29s.43.53.27.85Z"/><path class="cls-2" d="M33.65,33.79c-.16.31-.53.44-.84.29-.31-.16-.43-.53-.27-.85.16-.31.53-.44.84-.29.31.16.43.53.27.85Z"/><path class="cls-2" d="M31.77,34.49l.52.98,1.99.87c.65.13.48-.41.48-.41-1.5-1.35-1.18-1.64-1.57-1.75"/><polyline class="cls-2" points="30.25 34.87 30.94 35.67 32.5 36.36 29.35 36.51 28.76 36.24"/><path class="cls-2" d="M28.71,36.05c-.16.31-.53.44-.84.29s-.43-.53-.27-.85c.16-.31.53-.44.84-.29s.43.53.27.85Z"/><path class="cls-2" d="M27.16,35.82c-.16.31-.53.44-.84.29s-.43-.53-.27-.85c.16-.31.53-.44.84-.29s.43.53.27.85Z"/><path class="cls-2" d="M25.95,36.79c-.16.31-.53.44-.84.29-.31-.16-.43-.53-.27-.85.16-.31.53-.44.84-.29s.43.53.27.85Z"/><path class="cls-2" d="M27.84,37.08c-.16.31-.53.44-.84.29s-.43-.53-.27-.85c.16-.31.53-.44.84-.29s.43.53.27.85Z"/><path class="cls-2" d="M27.66,38.33c-.16.31-.53.44-.84.29s-.43-.53-.27-.85c.16-.31.53-.44.84-.29.31.16.43.53.27.85Z"/><path class="cls-2" d="M28.94,38.06c-.16.31-.53.44-.84.29s-.43-.53-.27-.85c.16-.31.53-.44.84-.29.31.16.43.53.27.85Z"/><path class="cls-2" d="M30.01,38.71l1.7-.78c.46-.26-.14-.43-.14-.43,0,0-2.22-.07-2.33-.12"/><path class="cls-2" d="M25.55,38.88c-.16.31-.53.44-.84.29s-.43-.53-.27-.85c.16-.31.53-.44.84-.29s.43.53.27.85Z"/><path class="cls-2" d="M27.72,39.9c-.16.31-.53.44-.84.29-.31-.16-.43-.53-.27-.85.16-.31.53-.44.84-.29s.43.53.27.85Z"/><path class="cls-2" d="M26.22,40.36c-.16.31-.53.44-.84.29s-.43-.53-.27-.85c.16-.31.53-.44.84-.29.31.16.43.53.27.85Z"/><path class="cls-2" d="M26.68,39.31c-.16.31-.53.44-.84.29s-.43-.53-.27-.85c.16-.31.53-.44.84-.29s.43.53.27.85Z"/><path class="cls-2" d="M26.42,37.81c-.16.31-.53.44-.84.29s-.43-.53-.27-.85c.16-.31.53-.44.84-.29s.43.53.27.85Z"/><path class="cls-2" d="M29.32,39.79c-.16.31-.53.44-.84.29s-.43-.53-.27-.85c.16-.31.53-.44.84-.29s.43.53.27.85Z"/><path class="cls-2" d="M32.39,42.17c3.74.31,6.35-1.16,6.35-1.16,4.05-2.84-.2-3.44-.2-3.44l-4.62-.13c-.47-.11-.81.37-.81.37-.71,1.27-1.75,1.39-1.99,1.35"/><path class="cls-2" d="M32.81,47.98c7.89-.99,7.3-5.33,7.3-5.33-3.42-1.27-6.96,4-6.96,4"/><path class="cls-2" d="M28.4,42.01c-.16.31-.53.44-.84.29s-.43-.53-.27-.85c.16-.31.53-.44.84-.29s.43.53.27.85Z"/><path class="cls-2" d="M29.37,40.86c-.16.31-.53.44-.84.29s-.43-.53-.27-.85c.16-.31.53-.44.84-.29s.43.53.27.85Z"/><path class="cls-2" d="M27.14,42.43c-.16.31-.53.44-.84.29-.31-.16-.43-.53-.27-.85.16-.31.53-.44.84-.29s.43.53.27.85Z"/><path class="cls-2" d="M27.35,41.35c-.16.31-.53.44-.84.29s-.43-.53-.27-.85c.16-.31.53-.44.84-.29s.43.53.27.85Z"/><path class="cls-2" d="M25.62,41.73c-.16.31-.53.44-.84.29s-.43-.53-.27-.85c.16-.31.53-.44.84-.29.31.16.43.53.27.85Z"/><path class="cls-2" d="M24.56,39.88c-.16.31-.53.44-.84.29s-.43-.53-.27-.85c.16-.31.53-.44.84-.29s.43.53.27.85Z"/><path class="cls-2" d="M24.42,41.19c-.16.31-.53.44-.84.29-.31-.16-.43-.53-.27-.85.16-.31.53-.44.84-.29.31.16.43.53.27.85Z"/><path class="cls-2" d="M25.81,42.68c-.89.27-.13.65-.13.65,4.81.85,7.82.21,7.82.21.64-.36-.09-.54-.09-.54,0,0-.75-.02-1.58-.37"/><path class="cls-2" d="M24.82,45.23c-.35-.73.5-.93.5-.93,0,0,3.05.98,5.87.7"/><path class="cls-2" d="M24.74,45.51c-.16.31-.53.44-.84.29-.31-.16-.43-.53-.27-.85.16-.31.53-.44.84-.29.31.16.43.53.27.85Z"/><path class="cls-2" d="M23.47,45.29c-.16.31-.53.44-.84.29-.31-.16-.43-.53-.27-.85.16-.31.53-.44.84-.29.31.16.43.53.27.85Z"/><path class="cls-2" d="M24,44.18c-.16.31-.53.44-.84.29-.31-.16-.43-.53-.27-.85.16-.31.53-.44.84-.29.31.16.43.53.27.85Z"/><path class="cls-2" d="M23.02,43.66c-.16.31-.53.44-.84.29s-.43-.53-.27-.85c.16-.31.53-.44.84-.29.31.16.43.53.27.85Z"/><path class="cls-2" d="M21.89,43.35c-.16.31-.53.44-.84.29s-.43-.53-.27-.85c.16-.31.53-.44.84-.29.31.16.43.53.27.85Z"/><path class="cls-2" d="M24.17,42.99c-.16.31-.53.44-.84.29s-.43-.53-.27-.85c.16-.31.53-.44.84-.29s.43.53.27.85Z"/><path class="cls-2" d="M34.82,52.38c6.33-2.43,6.11-6.67,6.11-6.67-2.65-.64-5.76,5.28-5.76,5.28"/><path class="cls-2" d="M25.31,47.67c-2.14-.86-2.56-.02-2.56-.02-.35-.35.11-1.08.11-1.08.73-.42,2.18.09,2.18.09,1.43.54,2.77.22,2.77.22,1.67-.12,1.84-1.83,1.84-1.83"/><path class="cls-2" d="M24.62,49.73c.96-.96,1.85-1.08,1.85-1.08.94.12,1.69-.24,1.69-.24.71.05,1.84-1.39,1.84-1.39,1.45-1.93,3.2-1.93,3.2-1.93-.86.49-1.35,1.37-1.37,1.67"/><path class="cls-2" d="M22.5,46.83c-.16.31-.53.44-.84.29-.31-.16-.43-.53-.27-.85.16-.31.53-.44.84-.29s.43.53.27.85Z"/><path class="cls-2" d="M21.53,45.64c-.16.31-.53.44-.84.29s-.43-.53-.27-.85c.16-.31.53-.44.84-.29s.43.53.27.85Z"/><path class="cls-2" d="M20.84,47.87c-.16.31-.53.44-.84.29s-.43-.53-.27-.85c.16-.31.53-.44.84-.29.31.16.43.53.27.85Z"/><path class="cls-2" d="M20.63,50.2c-.16.31-.53.44-.84.29-.31-.16-.43-.53-.27-.85.16-.31.53-.44.84-.29.31.16.43.53.27.85Z"/><path class="cls-2" d="M22.71,48.41c-.16.31-.53.44-.84.29s-.43-.53-.27-.85c.16-.31.53-.44.84-.29s.43.53.27.85Z"/><path class="cls-2" d="M22.53,49.81c-.16.31-.53.44-.84.29-.31-.16-.43-.53-.27-.85.16-.31.53-.44.84-.29.31.16.43.53.27.85Z"/><path class="cls-2" d="M25.05,51.04c-.16.31-.53.44-.84.29-.31-.16-.43-.53-.27-.85.16-.31.53-.44.84-.29s.43.53.27.85Z"/><path class="cls-2" d="M22.94,51.24c-.16.31-.53.44-.84.29s-.43-.53-.27-.85c.16-.31.53-.44.84-.29.31.16.43.53.27.85Z"/><path class="cls-2" d="M21.42,51.83c-.16.31-.53.44-.84.29-.31-.16-.43-.53-.27-.85.16-.31.53-.44.84-.29.31.16.43.53.27.85Z"/><path class="cls-2" d="M32.52,60.64c-1,.36-.57-.51-.57-.51,3.83-4.05,7.02-5.51,7.02-5.51.84-.1.28.55.28.55,0,0-.67.52-1.2,1.42"/><path class="cls-2" d="M29.87,58.98c.18.91,1.09.51,1.09.51,0,0,2.12-2.97,4.9-4.63"/><path class="cls-2" d="M29.61,58.78c-.36-.18-.79-.04-.97.31s-.03.78.33.96.79.04.97-.31.03-.78-.33-.96Z"/><path class="cls-2" d="M28.59,59.84c-.36-.18-.79-.04-.97.31s-.03.78.33.96.79.04.97-.31.03-.78-.33-.96Z"/><path class="cls-2" d="M29.83,60.5c-.36-.18-.79-.04-.97.31s-.03.78.33.96.79.04.97-.31.03-.78-.33-.96Z"/><path class="cls-2" d="M29.29,61.65c-.36-.18-.79-.04-.97.31s-.03.78.33.96.79.04.97-.31.03-.78-.33-.96Z"/><path class="cls-2" d="M28.47,62.69c-.36-.18-.79-.04-.97.31s-.03.78.33.96.79.04.97-.31.03-.78-.33-.96Z"/><path class="cls-2" d="M30.8,61.47c-.36-.18-.79-.04-.97.31s-.03.78.33.96.79.04.97-.31.03-.78-.33-.96Z"/><path class="cls-2" d="M28.65,56.41c-1.38,2.25-2.33,1.77-2.33,1.77-.08.56.84.92.84.92.96-.12,1.93-1.57,1.93-1.57.94-1.47,2.39-2.08,2.39-2.08,1.61-1.03,2.93.42,2.93.42"/><path class="cls-2" d="M26.62,55c1.53.22,2.43-.27,2.43-.27.78-.75,1.71-.93,1.71-.93.62-.54,2.63.02,2.63.02,2.65.78,4.24-.41,4.24-.41-1.12.14-2.17-.34-2.39-.6"/><path class="cls-2" d="M26.66,59.1c-.36-.18-.79-.04-.97.31s-.03.78.33.96.79.04.97-.31.03-.78-.33-.96Z"/><path class="cls-2" d="M26.58,60.85c-.36-.18-.79-.04-.97.31s-.03.78.33.96.79.04.97-.31.03-.78-.33-.96Z"/><path class="cls-2" d="M24.43,59.27c-.36-.18-.79-.04-.97.31s-.03.78.33.96.79.04.97-.31.03-.78-.33-.96Z"/><path class="cls-2" d="M22.63,57.28c-.36-.18-.79-.04-.97.31s-.03.78.33.96.79.04.97-.31.03-.78-.33-.96Z"/><path class="cls-2" d="M25.76,57.5c-.36-.18-.79-.04-.97.31s-.03.78.33.96.79.04.97-.31.03-.78-.33-.96Z"/><path class="cls-2" d="M24.65,56.35c-.36-.18-.79-.04-.97.31s-.03.78.33.96.79.04.97-.31.03-.78-.33-.96Z"/><path class="cls-2" d="M26.12,53.5c-.36-.18-.79-.04-.97.31s-.03.78.33.96.79.04.97-.31.03-.78-.33-.96Z"/><path class="cls-2" d="M24.05,54.75c-.36-.18-.79-.04-.97.31s-.03.78.33.96.79.04.97-.31.03-.78-.33-.96Z"/><path class="cls-2" d="M22.26,55.25c-.36-.18-.79-.04-.97.31s-.03.78.33.96.79.04.97-.31.03-.78-.33-.96Z"/><path class="cls-2" d="M26.56,51.42c-.64.57.07.66.07.66,4.08-.93,6.31-2.61,6.31-2.61.41-.57-.22-.47-.22-.47,0,0-.6.25-1.36.22"/><path class="cls-2" d="M27.67,53.87c-.61-.54.1-1.05.1-1.05,0,0,3.18-.29,5.68-1.64"/><path class="cls-2" d="M25.07,55.49c-.06-.34.16-.67.5-.74.34-.06.66.17.73.51.06.34-.16.67-.5.74-.34.06-.67-.17-.73-.51Z"/><path class="cls-2" d="M25.4,56.7c-.06-.34.16-.67.5-.74.34-.06.67.17.73.51s-.16.67-.5.74c-.34.06-.66-.17-.73-.51Z"/><path class="cls-2" d="M26.83,56.2c-.06-.34.16-.67.5-.74.34-.06.67.17.73.51s-.16.67-.5.74c-.34.06-.66-.17-.73-.51Z"/><path class="cls-2" d="M20.15,54.05c-.06-.34.16-.67.5-.74.34-.06.67.17.73.51s-.16.67-.5.74c-.34.06-.66-.17-.73-.51Z"/><path class="cls-2" d="M21.58,54.45c-.06-.34.16-.67.5-.74.34-.06.67.17.73.51s-.16.67-.5.74c-.34.06-.66-.17-.73-.51Z"/><path class="cls-2" d="M22.61,53.81c-.06-.34.16-.67.5-.74.34-.06.67.17.73.51s-.16.67-.5.74c-.34.06-.66-.17-.73-.51Z"/><path class="cls-2" d="M23.97,53.36c-.06-.34.16-.67.5-.74.34-.06.66.17.73.51.06.34-.16.67-.5.74-.34.06-.67-.17-.73-.51Z"/><path class="cls-2" d="M19.2,52.65c-.06-.34.16-.67.5-.74.34-.06.66.17.73.51.06.34-.16.67-.5.74-.34.06-.66-.17-.73-.51Z"/><path class="cls-2" d="M23.02,49.42c-.06-.34.16-.67.5-.74.34-.06.67.17.73.51s-.16.67-.5.74c-.34.06-.66-.17-.73-.51Z"/><path class="cls-2" d="M21.65,52.41c-.06-.34.16-.67.5-.74.34-.06.67.17.73.51s-.16.67-.5.74c-.34.06-.67-.17-.73-.51Z"/><path class="cls-2" d="M23.02,51.96c-.06-.34.16-.67.5-.74.34-.06.67.17.73.51s-.16.67-.5.74c-.34.06-.67-.17-.73-.51Z"/><path class="cls-2" d="M57.41,32.04c.16.31.53.44.84.29.31-.16.43-.53.27-.85-.16-.31-.53-.44-.84-.29s-.43.53-.27.85Z"/><path class="cls-2" d="M57.9,32.41l-1.95,1.58c-1.8,1.08-3.89.89-4.68-.42-.75-1.25-.05-3.06,1.57-4.16l2.83-2.71"/><path class="cls-2" d="M57.72,30.83c.16.31.53.44.84.29s.43-.53.27-.85c-.16-.31-.53-.44-.84-.29s-.43.53-.27.85Z"/><path class="cls-2" d="M58.34,29.89c.16.31.53.44.84.29s.43-.53.27-.85c-.16-.31-.53-.44-.84-.29s-.43.53-.27.85Z"/><path class="cls-2" d="M59.55,29.78c.16.31.53.44.84.29s.43-.53.27-.85c-.16-.31-.53-.44-.84-.29s-.43.53-.27.85Z"/><path class="cls-2" d="M60.91,29.31c.16.31.53.44.84.29.31-.16.43-.53.27-.85-.16-.31-.53-.44-.84-.29s-.43.53-.27.85Z"/><path class="cls-2" d="M59.34,31.28c.16.31.53.44.84.29.31-.16.43-.53.27-.85-.16-.31-.53-.44-.84-.29-.31.16-.43.53-.27.85Z"/><path class="cls-2" d="M61.48,30.84c.16.31.53.44.84.29.31-.16.43-.53.27-.85-.16-.31-.53-.44-.84-.29s-.43.53-.27.85Z"/><path class="cls-2" d="M61.25,32.55c.16.31.53.44.84.29.31-.16.43-.53.27-.85-.16-.31-.53-.44-.84-.29s-.43.53-.27.85Z"/><path class="cls-2" d="M59.96,32.67c.16.31.53.44.84.29s.43-.53.27-.85c-.16-.31-.53-.44-.84-.29s-.43.53-.27.85Z"/><path class="cls-2" d="M60.63,31.53c.16.31.53.44.84.29s.43-.53.27-.85c-.16-.31-.53-.44-.84-.29-.31.16-.43.53-.27.85Z"/><path class="cls-2" d="M62.22,31.45c.16.31.53.44.84.29s.43-.53.27-.85c-.16-.31-.53-.44-.84-.29s-.43.53-.27.85Z"/><path class="cls-2" d="M62.97,32.53c.16.31.53.44.84.29.31-.16.43-.53.27-.85-.16-.31-.53-.44-.84-.29-.31.16-.43.53-.27.85Z"/><path class="cls-2" d="M63.22,31.14c.16.31.53.44.84.29s.43-.53.27-.85c-.16-.31-.53-.44-.84-.29s-.43.53-.27.85Z"/><path class="cls-2" d="M62.16,30.06c.16.31.53.44.84.29s.43-.53.27-.85c-.16-.31-.53-.44-.84-.29s-.43.53-.27.85Z"/><path class="cls-2" d="M62.15,33.43c.16.31.53.44.84.29s.43-.53.27-.85c-.16-.31-.53-.44-.84-.29s-.43.53-.27.85Z"/><path class="cls-2" d="M58.74,32.35c.16.31.53.44.84.29.31-.16.43-.53.27-.85-.16-.31-.53-.44-.84-.29-.31.16-.43.53-.27.85Z"/><path class="cls-2" d="M60.63,33.05l-.52.98-1.99.87c-.65.13-.48-.41-.48-.41,1.5-1.35,1.18-1.64,1.57-1.75"/><polyline class="cls-2" points="62.15 33.43 61.45 34.23 59.9 34.92 63.05 35.07 63.64 34.8"/><path class="cls-2" d="M63.68,34.61c.16.31.53.44.84.29s.43-.53.27-.85c-.16-.31-.53-.44-.84-.29s-.43.53-.27.85Z"/><path class="cls-2" d="M65.24,34.38c.16.31.53.44.84.29s.43-.53.27-.85c-.16-.31-.53-.44-.84-.29s-.43.53-.27.85Z"/><path class="cls-2" d="M66.44,35.35c.16.31.53.44.84.29.31-.16.43-.53.27-.85-.16-.31-.53-.44-.84-.29s-.43.53-.27.85Z"/><path class="cls-2" d="M64.56,35.64c.16.31.53.44.84.29s.43-.53.27-.85c-.16-.31-.53-.44-.84-.29s-.43.53-.27.85Z"/><path class="cls-2" d="M64.73,36.89c.16.31.53.44.84.29s.43-.53.27-.85c-.16-.31-.53-.44-.84-.29-.31.16-.43.53-.27.85Z"/><path class="cls-2" d="M63.45,36.62c.16.31.53.44.84.29s.43-.53.27-.85c-.16-.31-.53-.44-.84-.29-.31.16-.43.53-.27.85Z"/><path class="cls-2" d="M62.39,37.27l-1.7-.78c-.46-.26.14-.43.14-.43,0,0,2.22-.07,2.33-.12"/><path class="cls-2" d="M66.84,37.44c.16.31.53.44.84.29s.43-.53.27-.85c-.16-.31-.53-.44-.84-.29s-.43.53-.27.85h0Z"/><path class="cls-2" d="M64.67,38.46c.16.31.53.44.84.29.31-.16.43-.53.27-.85-.16-.31-.53-.44-.84-.29s-.43.53-.27.85Z"/><path class="cls-2" d="M66.18,38.92c.16.31.53.44.84.29s.43-.53.27-.85c-.16-.31-.53-.44-.84-.29-.31.16-.43.53-.27.85Z"/><path class="cls-2" d="M65.72,37.87c.16.31.53.44.84.29s.43-.53.27-.85c-.16-.31-.53-.44-.84-.29s-.43.53-.27.85Z"/><path class="cls-2" d="M65.98,36.37c.16.31.53.44.84.29s.43-.53.27-.85c-.16-.31-.53-.44-.84-.29s-.43.53-.27.85Z"/><path class="cls-2" d="M63.08,38.35c.16.31.53.44.84.29s.43-.53.27-.85c-.16-.31-.53-.44-.84-.29s-.43.53-.27.85Z"/><path class="cls-2" d="M60.01,40.73c-3.74.31-6.35-1.16-6.35-1.16-4.05-2.84.2-3.44.2-3.44l4.62-.13c.47-.11.81.37.81.37.71,1.27,1.75,1.39,1.99,1.35"/><path class="cls-2" d="M59.59,46.54c-7.89-.99-7.3-5.33-7.3-5.33,3.42-1.27,6.96,4,6.96,4"/><path class="cls-2" d="M64,40.57c.16.31.53.44.84.29s.43-.53.27-.85c-.16-.31-.53-.44-.84-.29s-.43.53-.27.85Z"/><path class="cls-2" d="M63.03,39.42c.16.31.53.44.84.29s.43-.53.27-.85c-.16-.31-.53-.44-.84-.29s-.43.53-.27.85Z"/><path class="cls-2" d="M65.26,40.99c.16.31.53.44.84.29.31-.16.43-.53.27-.85-.16-.31-.53-.44-.84-.29s-.43.53-.27.85Z"/><path class="cls-2" d="M65.04,39.91c.16.31.53.44.84.29s.43-.53.27-.85c-.16-.31-.53-.44-.84-.29s-.43.53-.27.85Z"/><path class="cls-2" d="M66.77,40.29c.16.31.53.44.84.29s.43-.53.27-.85c-.16-.31-.53-.44-.84-.29-.31.16-.43.53-.27.85Z"/><path class="cls-2" d="M67.84,38.44c.16.31.53.44.84.29s.43-.53.27-.85c-.16-.31-.53-.44-.84-.29s-.43.53-.27.85Z"/><path class="cls-2" d="M67.97,39.75c.16.31.53.44.84.29.31-.16.43-.53.27-.85-.16-.31-.53-.44-.84-.29-.31.16-.43.53-.27.85Z"/><path class="cls-2" d="M66.59,41.24c.89.27.13.65.13.65-4.81.85-7.82.21-7.82.21-.64-.36.09-.54.09-.54,0,0,.75-.02,1.58-.37"/><path class="cls-2" d="M67.58,43.79c.35-.73-.5-.93-.5-.93,0,0-3.05.98-5.87.7"/><path class="cls-2" d="M67.66,44.07c.16.31.53.44.84.29.31-.16.43-.53.27-.85-.16-.31-.53-.44-.84-.29-.31.16-.43.53-.27.85Z"/><path class="cls-2" d="M68.93,43.85c.16.31.53.44.84.29.31-.16.43-.53.27-.85-.16-.31-.53-.44-.84-.29-.31.16-.43.53-.27.85Z"/><path class="cls-2" d="M68.4,42.74c.16.31.53.44.84.29.31-.16.43-.53.27-.85-.16-.31-.53-.44-.84-.29-.31.16-.43.53-.27.85Z"/><path class="cls-2" d="M69.38,42.22c.16.31.53.44.84.29.31-.16.43-.53.27-.85-.16-.31-.53-.44-.84-.29-.31.16-.43.53-.27.85Z"/><path class="cls-2" d="M70.5,41.91c.16.31.53.44.84.29s.43-.53.27-.85c-.16-.31-.53-.44-.84-.29-.31.16-.43.53-.27.85Z"/><path class="cls-2" d="M68.23,41.55c.16.31.53.44.84.29s.43-.53.27-.85c-.16-.31-.53-.44-.84-.29s-.43.53-.27.85Z"/><path class="cls-2" d="M57.58,50.94c-6.33-2.43-6.11-6.67-6.11-6.67,2.65-.64,5.76,5.28,5.76,5.28"/><path class="cls-2" d="M67.09,46.23c2.14-.86,2.56-.02,2.56-.02.35-.35-.11-1.08-.11-1.08-.73-.42-2.18.09-2.18.09-1.43.54-2.77.22-2.77.22-1.67-.12-1.84-1.83-1.84-1.83"/><path class="cls-2" d="M67.78,48.29c-.96-.96-1.85-1.08-1.85-1.08-.94.12-1.69-.24-1.69-.24-.71.05-1.84-1.39-1.84-1.39-1.45-1.93-3.2-1.93-3.2-1.93.86.48,1.35,1.37,1.37,1.67"/><path class="cls-2" d="M69.9,45.39c.16.31.53.44.84.29.31-.16.43-.53.27-.85-.16-.31-.53-.44-.84-.29s-.43.53-.27.85Z"/><path class="cls-2" d="M70.87,44.2c.16.31.53.44.84.29s.43-.53.27-.85c-.16-.31-.53-.44-.84-.29-.31.16-.43.53-.27.85Z"/><path class="cls-2" d="M71.55,46.43c.16.31.53.44.84.29.31-.16.43-.53.27-.85-.16-.31-.53-.44-.84-.29-.31.16-.43.53-.27.85Z"/><path class="cls-2" d="M71.77,48.76c.16.31.53.44.84.29.31-.16.43-.53.27-.85-.16-.31-.53-.44-.84-.29-.31.16-.43.53-.27.85Z"/><path class="cls-2" d="M69.69,46.97c.16.31.53.44.84.29.31-.16.43-.53.27-.85-.16-.31-.53-.44-.84-.29s-.43.53-.27.85Z"/><path class="cls-2" d="M69.87,48.37c.16.31.53.44.84.29.31-.16.43-.53.27-.85-.16-.31-.53-.44-.84-.29-.31.16-.43.53-.27.85Z"/><path class="cls-2" d="M67.34,49.6c.16.31.53.44.84.29.31-.16.43-.53.27-.85-.16-.31-.53-.44-.84-.29s-.43.53-.27.85h0Z"/><path class="cls-2" d="M69.45,49.8c.16.31.53.44.84.29.31-.16.43-.53.27-.85-.16-.31-.53-.44-.84-.29-.31.16-.43.53-.27.85Z"/><path class="cls-2" d="M70.97,50.39c.16.31.53.44.84.29.31-.16.43-.53.27-.85-.16-.31-.53-.44-.84-.29-.31.16-.43.53-.27.85Z"/><path class="cls-2" d="M59.88,59.2c1,.36.57-.51.57-.51-3.83-4.05-7.02-5.51-7.02-5.51-.84-.1-.28.55-.28.55,0,0,.67.52,1.2,1.42"/><path class="cls-2" d="M62.53,57.54c-.18.91-1.09.51-1.09.51,0,0-2.12-2.97-4.9-4.63"/><path class="cls-2" d="M62.79,57.34c.36-.18.79-.04.97.31s.03.78-.33.96-.79.04-.97-.31-.03-.78.33-.96Z"/><path class="cls-2" d="M63.81,58.4c.36-.18.79-.04.97.31s.03.78-.33.96-.79.04-.97-.31-.03-.78.33-.96Z"/><path class="cls-2" d="M62.57,59.06c.36-.18.79-.04.97.31s.03.78-.33.96-.79.04-.97-.31-.03-.78.33-.96Z"/><path class="cls-2" d="M63.1,60.21c.36-.18.79-.04.97.31s.03.78-.33.96-.79.04-.97-.31-.03-.78.33-.96Z"/><path class="cls-2" d="M63.93,61.25c.36-.18.79-.04.97.31s.03.78-.33.96-.79.04-.97-.31-.03-.78.33-.96Z"/><path class="cls-2" d="M61.59,60.03c.36-.18.79-.04.97.31s.03.78-.33.96-.79.04-.97-.31-.03-.78.33-.96Z"/><path class="cls-2" d="M63.74,54.97c1.38,2.25,2.33,1.77,2.33,1.77.08.56-.84.92-.84.92-.96-.12-1.93-1.57-1.93-1.57-.94-1.47-2.39-2.08-2.39-2.08-1.61-1.03-2.93.42-2.93.42"/><path class="cls-2" d="M65.78,53.56c-1.53.22-2.43-.27-2.43-.27-.78-.75-1.71-.93-1.71-.93-.62-.54-2.63.02-2.63.02-2.65.78-4.24-.41-4.24-.41,1.12.14,2.17-.34,2.39-.6"/><path class="cls-2" d="M65.74,57.66c.36-.18.79-.04.97.31s.03.78-.33.96-.79.04-.97-.31-.03-.78.33-.96Z"/><path class="cls-2" d="M65.82,59.41c.36-.18.79-.04.97.31s.03.78-.33.96-.79.04-.97-.31-.03-.78.33-.96Z"/><path class="cls-2" d="M67.97,57.83c.36-.18.79-.04.97.31s.03.78-.33.96c-.36.18-.79.04-.97-.31s-.03-.78.33-.96h0Z"/><path class="cls-2" d="M69.76,55.84c.36-.18.79-.04.97.31s.03.78-.33.96c-.36.18-.79.04-.97-.31s-.03-.78.33-.96Z"/><path class="cls-2" d="M66.63,56.06c.36-.18.79-.04.97.31s.03.78-.33.96-.79.04-.97-.31-.03-.78.33-.96Z"/><path class="cls-2" d="M67.75,54.91c.36-.18.79-.04.97.31s.03.78-.33.96c-.36.18-.79.04-.97-.31s-.03-.78.33-.96h0Z"/><path class="cls-2" d="M66.27,52.06c.36-.18.79-.04.97.31s.03.78-.33.96-.79.04-.97-.31-.03-.78.33-.96Z"/><path class="cls-2" d="M68.35,53.31c.36-.18.79-.04.97.31s.03.78-.33.96-.79.04-.97-.31-.03-.78.33-.96Z"/><path class="cls-2" d="M70.14,53.81c.36-.18.79-.04.97.31s.03.78-.33.96c-.36.18-.79.04-.97-.31s-.03-.78.33-.96Z"/><path class="cls-2" d="M65.83,49.98c.64.57-.07.66-.07.66-4.08-.93-6.31-2.61-6.31-2.61-.41-.57.22-.47.22-.47,0,0,.6.25,1.36.22"/><path class="cls-2" d="M64.72,52.43c.61-.54-.1-1.05-.1-1.05,0,0-3.18-.29-5.68-1.64"/><path class="cls-2" d="M67.33,54.05c.06-.34-.16-.67-.5-.74-.34-.06-.66.17-.73.51-.06.34.16.67.5.74.34.06.67-.17.73-.51Z"/><path class="cls-2" d="M67,55.26c.06-.34-.16-.67-.5-.74-.34-.06-.67.17-.73.51s.16.67.5.74c.34.06.66-.17.73-.51Z"/><path class="cls-2" d="M65.56,54.76c.06-.34-.16-.67-.5-.74-.34-.06-.67.17-.73.51s.16.67.5.74c.34.06.66-.17.73-.51Z"/><path class="cls-2" d="M72.24,52.61c.06-.34-.16-.67-.5-.74-.34-.06-.67.17-.73.51s.16.67.5.74c.34.06.66-.17.73-.51Z"/><path class="cls-2" d="M70.82,53.01c.06-.34-.16-.67-.5-.74-.34-.06-.67.17-.73.51s.16.67.5.74c.34.06.66-.17.73-.51Z"/><path class="cls-2" d="M69.79,52.37c.06-.34-.16-.67-.5-.74-.34-.06-.67.17-.73.51s.16.67.5.74c.34.06.66-.17.73-.51Z"/><path class="cls-2" d="M68.43,51.92c.06-.34-.16-.67-.5-.74-.34-.06-.66.17-.73.51-.06.34.16.67.5.74.34.06.67-.17.73-.51Z"/><path class="cls-2" d="M73.2,51.21c.06-.34-.16-.67-.5-.74-.34-.06-.66.17-.73.51-.06.34.16.67.5.74.34.06.66-.17.73-.51Z"/><path class="cls-2" d="M69.38,47.98c.06-.34-.16-.67-.5-.74-.34-.06-.67.17-.73.51s.16.67.5.74c.34.06.66-.17.73-.51Z"/><path class="cls-2" d="M70.75,50.97c.06-.34-.16-.67-.5-.74-.34-.06-.67.17-.73.51s.16.67.5.74c.34.06.67-.17.73-.51Z"/><path class="cls-2" d="M69.38,50.52c.06-.34-.16-.67-.5-.74-.34-.06-.67.17-.73.51s.16.67.5.74c.34.06.67-.17.73-.51Z"/></g></g></svg>