<?xml version="1.0" encoding="UTF-8"?><svg id="Layer_2" xmlns="http://www.w3.org/2000/svg" viewBox="0 0 91.92 91.92"><defs><style>.cls-1,.cls-2{stroke-width:.5px;}.cls-1,.cls-2,.cls-3{fill:none;stroke:#fff;}.cls-2{stroke-miterlimit:10;}.cls-4{fill:#f9b233;stroke-width:0px;}</style></defs><g id="Layer_1-2"><g id="Musculoskeletal"><circle class="cls-4" cx="45.96" cy="45.96" r="45.96"/><g id="module204"><g id="Knee"><polyline class="cls-3" points="66.74 25.66 65.53 25.82 64.32 25.97 63.11 26.08 61.83 26.16 60.66 26.19 59.48 26.19 55.71 26.42 53.21 26.99 51.78 27.93 51.21 29.06 51.32 30.31 51.97 31.63 52.95 33.07 54.12 34.28 55.29 35.98 56.08 37.9 56.46 40.09 56.54 42.32 56.39 44.59 56.01 46.78 55.56 48.9 55.03 50.71 54.16 53.62 53.55 55.81 53.18 57.73 52.8 59.85 52.5 61.74 52.42 63.21 52.65 64.61 53.36 66.39 53.78 67.52 54.12 68.69 54.27 69.79 54.12 70.88 53.63 71.82 52.61 72.62 51.06 73.18 48.87 73.49 46.83 73.75 44.79 74.24 42.75 74.88 40.94 75.56 39.35 76.28 38.18 76.85 37.31 77.26 37.05 77.45 35.91 77.87 34.85 77.91 34.14 77.79 33.84 77.72 33.19 77.94 32.48 77.91 31.95 77.79 31.68 77.72 31.38 77.72 31.12 77.53 31 77.34 30.93 77.23 30.17 77.38 29.64 77.23 29.34 76.92 29.42 76.55 28.55 76.58 28.06 76.17 27.83 75.64 27.87 75.3 27 75.15 26.24 74.66 25.9 74.05 25.86 73.6 25.68 73.3 25.98 72.96 26.66 72.66 27.75 72.54 27.9 72.35 28.09 72.2 28.36 72.05 28.74 71.94 29.15 71.79 29.72 71.67 30.51 71.56 31.38 71.41 32.48 71.14 33.68 70.77 35.01 70.24 36.37 69.52 37.76 68.65 39.12 67.59 40.52 66.27 41.81 64.76 42.75 63.02 43.2 61.13 43.28 59.09 43.09 57.05 42.71 55.05 42.18 53.2 41.69 51.5 41.31 50.03 40.45 47.16 39.5 44.06 38.71 41.15 38.37 38.85 38.22 37.3 37.91 36.2 37.57 35.33 37.16 34.62 36.74 33.26 36.71 32.2 36.71 31.71 36.52 31.18 36.25 30.61 35.87 30.05 35.35 29.33 34.89 28.35 34.59 27.1 34.51 25.48 34.63 24.61 34.85 23.74 35.19 22.91 35.69 22.11 36.29 21.32 37.08 20.64 37.95 20 39.01 19.43 40.07 18.9 41.01 18.37 41.92 17.84 42.79 17.35 43.66 16.86 44.53 16.33 45.47 15.77 46.53 15.16 47.06 14.82 47.77 14.48 48.57 14.07 49.44 13.61 50.38 13.16 51.44 12.71 52.5 12.22"/></g><g id="Layer_6"><polyline class="cls-1" points="44.56 29.1 45.47 28.8 45.73 28.72 46.15 29.63 45.36 30.12 44.87 30.54 44.6 31.14 44.98 32.77 45.24 33.03 44.79 35.71 44.71 38.85 44.83 40.21 45.62 43.76 46.11 45.08 47.02 49.05 47.7 50.52 48.11 54.15 47.81 55.85 47.4 56.49 46.38 56.9 46.19 56 46.26 54.6 46.04 52.71 45.81 50.82 45.13 48.74 43.92 44.93 42.52 40.09 42.03 36.54 41.31 35.3 40.97 34.99 40.6 33.45 40.79 32.01 41.31 30.08 41.54 29.71 41.77 29.44 44.11 28.99 44.56 29.1"/><polyline class="cls-1" points="48.15 29.71 48.3 31.41 48 34.24 48.3 39.04 48.83 42.44 48.94 44.06 49.66 47.16 49.59 48.78 49.89 53.84 50.19 56.64 50.34 58.23 50.3 58.68 49.7 59.25 49.4 59.32 48.34 58.34 47.4 56.83 48 55.92 48.42 54.07 48.19 50.97 48.53 50.33 48.53 47.84 48.23 45.5 47.47 42.21 47.09 38.47 47.17 37.26 46.83 35.37 46.87 34.5 46.49 33.37 45.89 32.61 45.81 32.35 45.28 31.67 45.28 31.03 45.47 30.46 46.15 29.74 46.68 29.4 47.81 29.25 48.15 29.71"/><path class="cls-2" d="M49.78,24.68c-2.72.57-3.93,1.55-3.93,1.55-.45.23-.15,1.1-.15,1.1-.04.57-.83,1.02-.83,1.02-1.51.57-2.27-.26-2.27-.26-3.4-3.02-.26-5.7-.26-5.7.68-.79,2.57-.19,2.57-.19,0,0,3.48-1.17,5.25-.98"/><path class="cls-2" d="M40.03,24v1.85c-.15.11.26,1.21.26,1.21.19.53.15,1.06.15,1.06-.23,1.17-1.36,1.55-1.36,1.55-.72-.08-1.21-1.17-1.21-1.17-1.55-3.74-.3-5.06-.3-5.06.87-.91,2.19-.64,2.3-.53-.04,0,.26.94.15,1.1h0Z"/></g></g></g></g></svg>