<?xml version="1.0" encoding="UTF-8"?><svg id="Layer_2" xmlns="http://www.w3.org/2000/svg" viewBox="0 0 91.92 91.92"><defs><style>.cls-1{fill:none;stroke:#fff;stroke-width:.5px;}.cls-2{fill:#409bd6;stroke-width:0px;}</style></defs><g id="Layer_1-2"><g id="Nerves"><circle class="cls-2" cx="45.96" cy="45.96" r="45.96"/><path class="cls-1" d="M16.07,27.56c.33.08.72.18.92.33l.04-.16c-.29-.09-.75-.25-.97-.17h0Z"/><path class="cls-1" d="M17.11,27.74l-.06.24c.18.02.05-.04.22.06-.35.32-.7.37-.95.95l.07.02c.29-.7.82-.63,1.21-1.06l-.15-.04c-.08-.09-.16-.12-.34-.17Z"/><path class="cls-1" d="M16.13,30.92l.15.04c-.09-.13-.02-.06-.15-.04Z"/><path class="cls-1" d="M16.33,31.05c.34.15.8.57,1.12.46-.38-.14-.83-.54-1.12-.46Z"/><path class="cls-1" d="M17.65,28.06c.27.1.48.28.73.19-.27-.1-.48-.28-.73-.19Z"/><path class="cls-1" d="M17.22,30.6c.24.52.1,1.03.7,1.21l.02-.08c-.41-.23-.6-1.21-.72-1.13Z"/><path class="cls-1" d="M14.88,39.93c.27-.09.51-.2.83-.21l.04-.16-.07-.02c-.26.17-.57.18-.8.39h0Z"/><path class="cls-1" d="M18.73,25.08c.01.35.03.69.04,1.04l.07.02.06-.24c-.05-.11-.1-.98-.18-.82h0Z"/><path class="cls-1" d="M16.43,34.25c.19-.09.29-.19.42-.41l-.07-.02-.02.08c-.12.08-.22.22-.32.34h-.01Z"/><path class="cls-1" d="M15.61,37.72c.15-.08.09-.03.21-.2-.25.05-.04,0-.21.2Z"/><path class="cls-1" d="M25.43,44.72c-.28,1.01-.97,2.86-.7,3.59.08-.46.16-.95.35-1.36l.22.06c.13.34.51.57.8.81l.04-.16c-.61-.25-.75-.73-1.01-1.2.31-1.26.71-2.04,1.13-2.87l.07.02c.16.2.78.51,1.06.7.34.23.49,0,.8.21.44.32.46.61.87.83-.15.44.4.85.6,1.27-.08.41.39,1.28.57,1.69-.07.2-.12.31-.15.56l-.12-.12-.02.08s-.88.86-1.19.98c.02.15.15.2.01.26-.13.1-.07.08-.26.1l.02-.08.19-.12-.07-.02c-.22.25-.49.56-.79.65.03.14.19.11.03.18l-.09.06c-.14-.23-.5-.43-.79-.55l-.02.08c.24.09.54.25.66.43-.32.21-.82.65-1.09.92l.07.02c.22-.2.4-.07.67-.17-.07-.18.01-.15-.06-.36.31.03.32-.03.35-.17l-.19.12.04-.16c1.15-.22,1.79-1.8,2.99-1.96,0,.35.2.41.24.58l-.11.14.17-.04-.14.22c.01.15.16.28.21.4-.13.46,0,1.65.1,2l-.14.22.15.04c0,.32-.44.46-.43.75l.05.1v-.26c.16.07.01.06.21.06l-.03-.18.07.02.02-.08c.16.11.12.07.34.17l.02-.08c-.44-1.05-.28-2.69-.13-3.97.13.06.31-.03.46.03.35.14.62.34.81.47l.04-.16-.15-.04c-.3-.31-.76-.29-.97-.76-.12-.28-.24-1.96-.07-2.42.08-.22.16-1.14.24-1.22.23-.23.42-.37.64-.69.2-.06,1.65-.68,1.88-.97.16-.2.48-.67.67-.77.98-.65,3.66.05,5.42.04.14,0,.53.22.78.29.91.24,1.99.46,2.78.64.45.1.98.57,1.56.58.51,0,.85.31,1.48.3,1.4-.03,2.77.43,4.29.52l.42.19,2.84.74c.29.03,1.08.36,1.34.52.45.28.74.09,1.16.3,1.09.54,3.2,1.49,4.93,1.62.35.03,1.09.35,1.62.34.48,0,1.1.08,1.61.08.21.08.42.17.63.25,1.16-.03,5,.91,5.96,1.55.37.25.88.12,1.16.3.16.11.08.23.21.4.19.25.5.18.66.43l-.11.14c.57.62,1.02.75,1.32,1.2.26.39,1.7.84,1.78,1.23.25.3.19,3.22-.41,4.26l.07.02c.11-.02.23.02.36.09l.02-.08c-.1-.33.26-1.35.28-1.98.02-.87-.14-1.4.13-2.28l.07.02c.09.29.19.16.21.4.49,1.08.54,2.61.86,3.56l-.14.22c.02.23.14.31.19.48.01.04-.23.56-.19.72.07.09.11.09.27.16.16-.25.09.05.25-.36-.18-.12.04-.04-.1-.2-.15.04,0,.02-.15-.04.2-.61-.34-2.57-.21-2.79.04-.07-.39-.95-.26-1.1-.16-.35-.41-.62-.4-1.13l.15.04c.39.48.97.31,1.25.58.13.13.62.7.8.81l.24-.02c-.07.14.26.53.56.83-.09.2-.11.17-.1.4l.05.1c.15.04.04-.08.15.04.12-.07.28-.11.21-.2.08-.17.09-.07.06-.24-.08-.11-.16,0-.34-.17-.14-.14-.15-.43-.19-.48-.36-.61-1.41-1.11-2-1.55-.34-.25-.76-.07-.81-.47.48-.23.81-.84,1.32-1.2.08-.06.57-.02.79-.05,0-.2.08-.3.03-.42-.07-.09-.08-.06-.27-.16-.25.62-1.51.98-1.83,1.67-.21-.05-.25.06-.62,0-.06-.07-.49-.21-.49-.21l.04-.16-.24.02.04-.16c-.17-.21-.63-.26-.69-.35l.04-.16-.24.02c-.38-.57-1.27-1.43-2.07-1.91l.09-.06c.59-.22,1.35.33,2.03.27,1.45-.14,3.89,0,4.75,1.15.45.59,1.09.63,1.15,1.24-.11.12-.02,0-.04.16.1.08.16.11.34.17.04-.21.17-.22.13-.48-.03-.04-.52-.28-.54-.31-.66-1.13-1.38-1.12-2.48-2.1l.09-.06c.11-.06,1.61-.52,1.61-.52.75-.43.88-.81,1.72-.92.06-.2.04-.08.18-.38l-.05-.1c-.22-.03-.07-.05-.36-.09-1.76,2.07-4.51,2.29-7.96,1.36l.06-.24c.13.04.09.14.29.08l.04-.16.2.14c.29-.03.56-.23.8-.39,0,0,.28.05.29.08.56-.45.77-.24,1.37-.5.52-.22.97-.73,1.59-1.04.36.42,1.37.36,1.45.98.05.14.02.32.02.52.16-.02.23.03.31,0l.17-.04c0-.15,0-.08-.03-.18-.05-.57-.73-.91-1.15-1.24-.32-.25-.4.09-.49-.21.08-.07.03-.02.11-.14.29.18,1.58.06,2.09.03.37-.02.96.39,1.29.42.07-.11.08-.12.16-.3-.23-.15.06-.08-.18-.22-.1.04-.07,0-.29-.08-.03.2.04.05-.06.24-.28-.2-.52-.12-.75-.11-.22.02-.54-.33-.87-.23s-.89.08-1.41.06l.02-.08c.75-.31,1.57-1.56,1.57-1.56.34-.25.76-.96.73-1.01.17-.19.68-.77.58-1.05-.12.04-.19,0-.36-.09l-.04.16c.1.39-.35.76-.55,1.23-.37.86-3.1,3.08-4.37,3.66,0,0-2.69.63-2.99.76-.51.23-1.96-.86-2.79-.9-.63-.03-1.84-.78-2.82-.82-.49-.02-3.19-.44-3.36-.53-.56-.31-1.23.06-1.66-.17-.6-.33-1.7-.15-2.42-.54-.27-.15-.92-.19-1.16-.3-.15-.07-.25-.25-.54-.31-.18-.02-.35-.03-.53-.05-.83-.5-1.82-.57-2.71-1.22-.28-.2-.77-.08-.97-.17-1.27-.56-3.18-1.1-4.38-1.05-.08,0-.41-.25-.63-.25-.99,0-1.59-.25-2.52-.14-.05,0-.31-.21-.49-.21-.96,0-2.13-.67-3-.69-.14,0-.32-.22-.39-.27-.34-.23-1.09-.33-1.31-.34-.34,0-1.33-.63-1.44-.72-.25-.2-1-.57-1.19-.48l.04-.16-.24.02.04-.16-.07-.02-.17.04c-.24-.42-.47-.4-.73-.79-.02-.03-.2.05-.29-.08,0,0,.13-.16-.01-.26l-.24.02c.11-.38-.6-.55-.72-1.13-.06-.31.11-.82.08-.92l-.15-.04c.07-.33.02-.2-.04-.44l.14-.22-.15-.04c-.12-.67.44-1.17.51-1.67.14-.96,1.65-2.03,2.34-2.73.36.26,1.24.47,1.58.5l.02-.08c-.38-.13-1.24-.4-1.3-.68-.09-.14-.07-.07-.08-.28.2-.12.13-.09.25-.36.17.07.02.06.22.06v-.26c.42.12.7-.76,1.06-.84.19.02,1.17-.6,1.35-1.02-.18-.05-.08-.04-.34-.17-.1.37-2.23,2.16-2.63,2.06l-.02.08.05.1-.15-.04c-.07.04-.3.07-.55.03.08-.16.07-1.62-.1-2-.19,1.04-.02,1.29-.08,2.12-.35-.09-.89.58-1.23.54l-.02.08.05.1-.15-.04c-.13.11-1.62.52-1.95.35-.46-.23-1.35-.06-1.41-.54-.15-.66,1.44-2.7,1.83-2.86.47-.22,1.02.26,1.44.12-.47-.15-.76-.22-1.24-.32.21-.65.56-.71.84-1.15l-.15-.04c-.29.38-2.11,2.54-2.44,2.53-.17-.68-.72-2.9-1.16-3.3l-.04.16c.26.36.55,1.13.5,1.67l-.15-.04c-.14-.2-.71-.47-1-.34,1.21.3,1.88,1.33,1.68,2.49-.24.27-.21.77-.54.89-.24-.28-1.13-.72-1.13-.72-.1-.18-.61-1.16-.53-1.25-.06-.15-.31-.29-.35-.43-.01-.05.12-.15.08-.32-.03-.18-.12-.56-.2-.74l-.15-.04.14-.22c-.02-.28-.19-.45-.24-.58,0,0,.07-.76.06-.84.31-.03,1.49-1.24,1.49-1.24-.14.13-.14.14-.35.17l.02-.08c.6-.21,1.25-.73,1.69-.84l-.05-.1s-.36-.04-.42-.19l.33-1.28-.15-.04c0,.22-.28,1.71-.39,1.78-.76.5-1.36.98-2.17,1.49-.12-.1-.04-.05-.22-.06-.05-1,.14-2.41.71-3.93l-.12-.12c-.14.21-.05.14-.28.18l-.05-.1-.02.08c.12.27-.45,3.2-.66,3.43-.08.03-.15-.01-.31,0-.02-.61-.55-1.19-.73-1.39l-.02.08c.17.24.34.49.51.73l-.3.26c.23.07.56.55.8.81l-.14.22-.22-.06s-1.18-.71-1.28-.76l-.06.24.15.04c.09.12.41.18.42.19.32.42.54.45.89.75-.13.31-.37,1.7-.52,2.01-.58,1.17-1.26,2.54-2.17,2.69-.53-.08-.9-1.94-1.34-2.32l-.04.16c.43.52.8,1.46,1,2.14l-.15-.04c-.17-.29-1.3-1.59-1.56-1.78l-.02.08c.22.25.79.82.86,1.17-.4-.09-1.02-.16-1.32,0l.22.06c.73-.34,1.46.27,1.85.65l-.04.16c-.14.07-.19.13-.3.26-.18-.06-1.36.06-1.96.09-.33.02-.65-.28-.83-.39-.2-.12-.47-.09-.6-.07-.28-.25-.55-.36-.96-.51.1-.35-.09-.02-.02-.52-.08-.33.06-.82.21-1.4l-.22-.06c-.11.63-.22,1.26-.33,1.88-.86-.36-1.7-1.3-1.92-1.27-.04,0-.27-.45-.37-.35-.08.07-.03.02-.11.14.45.09,1.77,1.76,1.78,1.83l-.07-.02c-.07.15.1.09-.04.16-.51.28-.9.38-1.37.5-.07.18-.08.19-.16.3l.07.02.02-.08c.07-.05.14-.15.21-.2.1.3,1-.29,1.75-.15.12.33.73.9.98,1.02l-.11.14.07.02c.08,0,.04-.06.07.02.73,1.32,1.29,2.08.82,3.72l-1.09-.28c0-.37-.08-.48.01-.94.13-.05.41-.14.3-.26l-.37.25.02-.08c-.05-.13,0-.61-.16-.3.11.32.1.92.05,1.3-.54-.07-1.06-.26-1.6-.42.02-.26,0-.66-.08-.88-.05.36.01.54,0,.86l-1.16-.3-.06.24c.69.14,1.32.34,2.04.53l-.04.16c-.64.28-1.37,1.05-1.88,1.57l.15.04.02-.08c.22-.13.42-.31.6-.53l.15.04c-.09.39-.1.73.06.96l.02-.08c-.1-.21-.09-.89.03-1.02.63-1.06,1.5-.94,2.93-.52l.05.1c-.05.43-.13.89.02,1.12.02.31-.34.63-.43.75-.05.46-1.1,1.37-1.61,1.72-.44.3-.65.95-1.33.94-.11-.42-.65-.33-.86-.57-.46-.51-.87-.9-1.37-1.3.03-.07.26-.83.23-.88l-.05-.1-.21.8-.34-.17-.06.24c.59.19.72,1.01,1.48,1.16l-.11.14.07.02s.95.69,1.09.88c-.08.13-.03.07-.11.14-.1.04-.14.03-.31,0-.17-.18-.48-.18-.69-.35l-.02.08.07.02c-.01.16-.13.03-.04.16.11.13.39.2.63.25-.07.18-.15.36-.22.54-.48-.12-1.62,1.25-2.32,1.45-.28.08-1.28-.2-1.36-.44-.17.02-.09.14-.21.2-.19-.03-1.07-.39-1.4-.28.74.17,2.81.45,2.79.9-.04.07-.06.02-.02.08l.05.1c.17-.59,1.71-1.19,2.21-1.65l.07.02c.07-.15-.1-.09.04-.16.33-.24.47-.3.98-.17-.3.69-.5,2.44-.93,3.27l-.12-.12-.02.08.05.1c.14-.03.19-.18.24-.02.11.16.12.22.11.46l.07.02.06-.24c-.26-.47.68-3.71,1.29-3.78.4-.14,3.46-.84,4.42.63.12.18.49.14.5.47-.01.18-.32.72-.54.89-.84.55-1.88.42-2.72-.28l-.02.08c.24.19.87.53.94.85l-.15-.04c-.36.29-1.07.36-1.52.46l-.02.08.15.04c.48-.24,2.74-.87,3.3-.77l.03-.07Z"/><path class="cls-1" d="M15.8,37.85c.1-.12.09-.09.06-.24l-.06.24Z"/><path class="cls-1" d="M18.79,26.38c.09.12.04.1.18.22l.02-.08c-.15-.16-.04-.34-.2-.14h0Z"/><path class="cls-1" d="M15.93,37.97h.31s-.08.09-.11.14l.07.02c.09-.05.03-.02.17-.04-.06-.08-.01-.03-.12-.12-.11-.16-.12-.06-.25-.24l-.06.24h-.01Z"/><path class="cls-1" d="M17.08,33.56c.2.05.05,0,.27.16.03-.07.25-.36.25-.36-.2-.04-.32,0-.52.21h0Z"/><path class="cls-1" d="M18.88,26.92l.15.04c-.08.17-.09.07-.06.24l.04-.16c.03-.07.07-.17.01-.34l-.14.22Z"/><path class="cls-1" d="M18.92,27.36l.18.22c-.08-.21-.07-.2-.18-.22Z"/><path class="cls-1" d="M15.64,40.29c.13-.13.26-.47.33-.68l-.12-.12-.04.16c.02.13-.08.35-.17.64h0Z"/><path class="cls-1" d="M17.47,33.23c.32-.05.53-.21.77-.57l.12.12.02-.08.07.02-.05-.1c-.2.13-.59.28-.94.61h.01Z"/><path class="cls-1" d="M18.7,28.5c.12.08.56.23.56.23.13.18.11.29.35.43l.04-.16.07.02-.05-.1c-.09.05-.03.02-.17.04,0-.1-.02-.47-.3-.34-.07-.15-.13-.68-.12-.72l.07.02-.05-.1c-.16.29-.17.41-.41.67h0Z"/><path class="cls-1" d="M19.16,26.73c.1-.12.09-.09.06-.24l-.06.24Z"/><path class="cls-1" d="M15.08,42.72c.14.17.15.29.35.43l.02-.08-.33-.51-.04.16Z"/><path class="cls-1" d="M16.25,38.23l.24-.02-.05-.1-.19.12h0Z"/><path class="cls-1" d="M17.33,34.05c.1.2.13.45.12.72l.07.02.04-.16c-.11-.24-.08-.57-.18-.82l-.06.24h0Z"/><path class="cls-1" d="M18.96,27.8c.12-.11.15-.05.04-.16l-.04.16Z"/><path class="cls-1" d="M19.32,26.43c.15-.12.18-.13.16-.3l-.04.16c-.08.07-.03.02-.11.14h-.01Z"/><path class="cls-1" d="M18.04,31.93l.15.04c-.09-.13-.02-.06-.15-.04Z"/><path class="cls-1" d="M19.57,26.07c.17-.12.15-.03.14-.22l-.14.22Z"/><path class="cls-1" d="M16.45,38.36c.17.05.14.07.32.25l.02-.08c-.04-.1.03-.17-.06-.36-.14.25-.07-.02-.28.18h0Z"/><path class="cls-1" d="M16.23,39.51c.12-.1.06-.03.04-.16l-.04.16Z"/><path class="cls-1" d="M18.24,32.06l.24-.02c-.15-.08-.06-.1-.24.02Z"/><path class="cls-1" d="M16.42,39.38c.23,0,.28.02.43-.15l-.07-.02c-.11.07-.24.09-.35.17h0Z"/><path class="cls-1" d="M16.87,37.62c.11-.12.12-.16.08-.32l-.08.32Z"/><path class="cls-1" d="M15.52,43.43l.15.04c-.04-.06.03-.12-.12-.12l-.02.08h-.01Z"/><path class="cls-1" d="M18.63,32.08l-.1.4.07.02c.22-.12.54-.2.61-.27.11-.1.22-.21.16-.3q-.35.26-.74.15h0Z"/><path class="cls-1" d="M16.91,39.26c.18-.05.12.05.24-.02-.14-.18-.1-.03-.24.02Z"/><path class="cls-1" d="M15.21,46.69l.15.04.18-.38-.07-.02-.02.08c-.08.06-.16.19-.23.28h0Z"/><path class="cls-1" d="M17.17,39.15c.19.03.22.15.35-.17-.28-.08-.1.05-.27-.16l-.08.32h0Z"/><path class="cls-1" d="M20.68,25.67c.2-.04.34-.1.57-.11-.06-.08-.01-.03-.12-.12-.15.09-.31.11-.45.23Z"/><path class="cls-1" d="M19.13,32.21l.04-.16.07.02c-.08.13-.03.07-.11.14h0Z"/><path class="cls-1" d="M21.05,24.83c.2.17.4.37.55.57l.04-.16-.07-.02c-.11-.2-.35-.43-.52-.39Z"/><path class="cls-1" d="M15.6,46.11l.15.04c.14-.14.2-.15.32-.34.08-.08.06-.09.16-.3-.15-.04-.04.08-.15-.04,0,0-.42.51-.48.65h0Z"/><path class="cls-1" d="M16.88,41.47c.38.11.92.26,1.21.14-.34-.1-.93-.25-1.21-.14Z"/><path class="cls-1" d="M17.18,40.61l.15.04c-.09-.13-.02-.06-.15-.04Z"/><path class="cls-1" d="M17.52,39.33c.1-.12.09-.09.06-.24l-.06.24Z"/><path class="cls-1" d="M19.37,32.19l.33-.08c0-.15,0-.08-.03-.18-.08.13-.03.07-.11.14,0-.15,0-.08-.03-.18-.07.18-.08.19-.16.3h0Z"/><path class="cls-1" d="M16.79,42.73c.23-.09,1.3-.92,1.26-.96-.4.34-.87.57-1.26.96Z"/><path class="cls-1" d="M21.34,25.5l.15.04c-.09-.13-.02-.06-.15-.04Z"/><path class="cls-1" d="M16.06,46.14l.26.5.02-.08c-.12-.24-.08-.4-.28-.42Z"/><path class="cls-1" d="M16.44,44.96l.12.12c-.07-.17-.12-.12-.12-.12Z"/><path class="cls-1" d="M16.56,44.82l.12.12c-.07-.17-.12-.12-.12-.12Z"/><path class="cls-1" d="M16.67,44.67l.12.12c-.07-.17-.12-.12-.12-.12Z"/><path class="cls-1" d="M18.37,38.44c.12-.12.15-.24.1-.4l-.1.4Z"/><path class="cls-1" d="M17.8,40.94c.16,0,.14.02.24-.02-.16,0-.14-.02-.24.02Z"/><path class="cls-1" d="M18.47,38.63l.24-.02c-.15-.08-.06-.1-.24.02Z"/><path class="cls-1" d="M20.41,31.77l.04-.16.07.02c-.08.13-.03.07-.11.14h0Z"/><path class="cls-1" d="M21.96,25.83l.2.14.04-.16c-.11-.08-.07-.03-.12-.12l-.07-.02-.04.16h-.01Z"/><path class="cls-1" d="M18.14,41.12c.16,0,.14.02.24-.02-.16,0-.14-.02-.24.02Z"/><path class="cls-1" d="M18.14,41.72l.12.12c-.07-.17-.12-.12-.12-.12Z"/><path class="cls-1" d="M22.2,26.07l.05.1c.02.17.11-.14.11-.14-.14.02-.07,0-.17.04h.01Z"/><path class="cls-1" d="M18.41,41.27c.26.1.37.22.58.15-.26-.1-.37-.22-.58-.15Z"/><path class="cls-1" d="M22.43,26.39c.25.08.16.41.36.69l.08-.32-.2-.14c.15-.14.14-.08.25-.36l-.12-.12-.37.25h0Z"/><path class="cls-1" d="M22.95,24.38c.13.23-.08.23.11.46l.02-.08c-.04-.3.2-.6-.03-.78l-.1.4h0Z"/><path class="cls-1" d="M17.38,46.14c.26.08.64.2.82.13-.26-.08-.64-.2-.82-.13Z"/><path class="cls-1" d="M18.52,41.73c.19.04.27.06.38,0-.19-.04-.27-.06-.38,0Z"/><path class="cls-1" d="M22.87,25.3c.05.13.05.26.04.44l.07.02.06-.24c-.08-.14-.04-.48-.18-.22h0Z"/><path class="cls-1" d="M23.01,25.08c.12-.1.06-.03.04-.16l-.04.16Z"/><path class="cls-1" d="M17.42,47.18c.06-.05.11.02.11-.14l-.07-.02-.04.16h0Z"/><path class="cls-1" d="M22.59,27.28c.03.07.05.2.08.28l.04-.16.19-.12-.07-.02c-.1.09-.04-.03-.2-.14l-.04.16h0Z"/><path class="cls-1" d="M23.07,25.44l.33-.08-.05-.1-.28.18Z"/><path class="cls-1" d="M22.47,28.02c.09.1,0,.24.12.12.08-.08.09-.12.16-.3-.04-.1-.02-.03-.03-.18l-.09.06c-.08.08-.09.12-.16.3Z"/><path class="cls-1" d="M17.6,47.06l.28-.18-.28.18Z"/><path class="cls-1" d="M22.38,28.68l.2.14.1-.4-.2-.14-.1.4Z"/><path class="cls-1" d="M17.91,46.79l.24-.02-.05-.1-.19.12h0Z"/><path class="cls-1" d="M22.97,27.3l.15.04c-.09-.13-.02-.06-.15-.04Z"/><path class="cls-1" d="M18.21,46.53c.17-.09.12-.04.23-.28l-.15-.04c-.02.2.01.14-.08.32h0Z"/><path class="cls-1" d="M23.21,27.27c.12-.1.06-.03.04-.16l-.04.16Z"/><path class="cls-1" d="M23.83,25.21l.15.04c-.09-.13-.02-.06-.15-.04Z"/><path class="cls-1" d="M23.38,27.23l.19-.12-.19.12Z"/><path class="cls-1" d="M18.47,46.43l.37-.25c-.19-.14-.31.19-.37.25Z"/><path class="cls-1" d="M23.62,27.21l.23.32c.1-.1-.18-.33-.23-.32Z"/><path class="cls-1" d="M18.79,46.08l.15.04c-.05-.15,0-.11-.15-.04Z"/><path class="cls-1" d="M23.73,27.07l.15.04c-.09-.13-.02-.06-.15-.04Z"/><path class="cls-1" d="M23.97,27.04l.15.04c-.09-.13-.02-.06-.15-.04Z"/><path class="cls-1" d="M25.18,22.99c.12-.1.06-.03.04-.16l-.04.16Z"/><path class="cls-1" d="M25.3,23.11c.13-.11.16-.1.14-.22l-.14.22Z"/><path class="cls-1" d="M25.5,23.24l.15.04c-.02-.11-.04-.19-.08-.28l-.06.24h-.01Z"/><path class="cls-1" d="M19.65,46.65c.04.1.02.03.03.18l.07.02.06-.24-.1-.2-.06.24Z"/><path class="cls-1" d="M25.56,24.2l.19-.12-.19.12Z"/><path class="cls-1" d="M25.77,23.4l.24-.02.02-.08c-.19.02-.13,0-.26.1h0Z"/><path class="cls-1" d="M19.67,47.17c.12-.11.15-.05.04-.16l-.04.16Z"/><path class="cls-1" d="M19.68,47.43l.15.04c-.08.17-.09.07-.06.24.09-.05.03-.02.17-.04l.02-.08c-.03-.07-.05-.2-.08-.28l-.05-.1-.02.08c-.08.07-.03.02-.11.14h-.02Z"/><path class="cls-1" d="M25.77,24l.47-.31c.23-.05.15.13.29.08-.04-.1-.02-.03-.03-.18l-.22-.06c-.17.16-.34.31-.51.47Z"/><path class="cls-1" d="M25.97,23.54l.24-.02c-.15-.08-.06-.1-.24.02Z"/><path class="cls-1" d="M19.72,47.87c.06.13.06.17.06.36l.07.02.04-.16c-.03-.1-.02-.09-.01-.26-.14.02-.07,0-.17.04h.01Z"/><path class="cls-1" d="M19.8,48.48l.18.22c.07-.08-.11-.33-.13-.38l-.04.16h0Z"/><path class="cls-1" d="M20.02,47.6c.17.03.21.04.31,0-.17-.03-.21-.04-.31,0Z"/><path class="cls-1" d="M26.95,21.56c.1-.12.09-.09.06-.24l-.06.24Z"/><path class="cls-1" d="M26.96,21.82c.03.07.05.2.08.28l.05.1.02-.08c-.05-.13,0-.61-.16-.3h.01Z"/><path class="cls-1" d="M20.37,47.78c.22.07.46.13.6.07-.22-.07-.46-.13-.6-.07Z"/><path class="cls-1" d="M26.96,22.42l.15.04c-.08.19-.04.06-.08.32l.07.02c.05-.19.08-.3.03-.42.13-.08.44-.17.32-.34-.22.27-.38.22-.49.39h0Z"/><path class="cls-1" d="M26.63,23.96c.26.07.24.14.54.31l.04-.16c-.02-.14,0-.01.06-.24l-.07-.02c-.19.13-.31-.04-.57.11Z"/><path class="cls-1" d="M27.03,23.04c.04.1.02.03.03.18l.07.02.04-.16c-.13-.08-.03-.15-.15-.04h0Z"/><path class="cls-1" d="M27.54,21.97l.37-.25-.37.25Z"/><path class="cls-1" d="M26.69,25.52c.25-.1.35-.07.47-.31l-.12-.12-.02.08c.05.05-.2.2-.32.34h-.01Z"/><path class="cls-1" d="M27.18,25.14l.19-.12-.19.12Z"/><path class="cls-1" d="M27.64,24.57c.11.11.1.13.25.24l.09-.06.02-.08c-.22-.07-.28-.12-.36-.09h0Z"/><path class="cls-1" d="M26.74,29.22c.12-.1.06-.03.04-.16l-.04.16Z"/><path class="cls-1" d="M28.24,23.44c.12-.1.06-.03.04-.16l-.04.16Z"/><path class="cls-1" d="M28.19,23.94c.2,0,.41-.02.57-.11l-.22-.06c-.11.07-.24.09-.35.17Z"/><path class="cls-1" d="M28.03,24.84l.15.04.04-.16-.15-.04-.04.16Z"/><path class="cls-1" d="M28.37,23.56c.12-.1.06-.03.04-.16l-.04.16Z"/><path class="cls-1" d="M28.89,22.75l.15.04c-.09-.13-.02-.06-.15-.04Z"/><path class="cls-1" d="M29.43,20.67c.22.07.46.13.6.07-.22-.07-.46-.13-.6-.07Z"/><path class="cls-1" d="M29.74,19.46c.2.06.3.31.38.61l.09-.06c.04-.07.06-.02.02-.08-.16-.07-.19-.43-.46-.63l-.04.16h.01Z"/><path class="cls-1" d="M28.43,25.12c.17,0,.13.05.24-.02-.15-.16-.08-.05-.24.02Z"/><path class="cls-1" d="M28.99,22.95c.12.17.57.75.58.75-.32-.17-.16-.92-.58-.75Z"/><path class="cls-1" d="M28.79,24.01c.12-.1.06-.03.04-.16l-.04.16Z"/><path class="cls-1" d="M28.94,24.05l.18.22s-.09-.43-.18-.22Z"/><path class="cls-1" d="M28.68,25.35l.15.04.06-.24-.15-.04-.06.24Z"/><path class="cls-1" d="M29.19,24.29c.11.11.1.13.25.24l.02-.08c-.17-.09-.17-.24-.27-.16Z"/><path class="cls-1" d="M30.08,20.84l.15.04c-.09-.13-.02-.06-.15-.04Z"/><path class="cls-1" d="M30.28,20.37c.17.2.24.4.29.68.11-.05.03-.09.11-.14l.18.22-.52-.99c0,.16.08.12-.06.24h0Z"/><path class="cls-1" d="M30.3,20.89l.15.04c-.09-.13-.02-.06-.15-.04Z"/><path class="cls-1" d="M29.47,24.7c.12-.1.06-.03.04-.16l-.04.16Z"/><path class="cls-1" d="M29.76,23.58c.17-.16.36-.9.29-1.12l-.29,1.12Z"/><path class="cls-1" d="M29.73,24c.1-.12.09-.09.06-.24l-.06.24Z"/><path class="cls-1" d="M29.59,24.82l.12.12.11-.14s-.22.01-.24.02h.01Z"/><path class="cls-1" d="M30.75,21.27l.23.32c.1-.1-.18-.33-.23-.32Z"/><path class="cls-1" d="M31.05,21.6l.19.48c.04-.06-.04-.62-.19-.48Z"/><path class="cls-1" d="M31.75,21.61l.12.12c0-.15-.05-.29-.12-.12Z"/><path class="cls-1" d="M31.88,21.39c.17-.09.23-.2.34-.42l-.07-.02-.02.08c-.08.07-.19.27-.25.36Z"/><path class="cls-1" d="M32.19,20.78c.24.08.08-.11.37-.25.08-.04.43.02.64-.09l-.22-.06c-.09.05-.23.06-.33.08l.08-.32c-.02-.22.54-.78.47-.91-.48.64-.63.96-1.02,1.53v.02Z"/><path class="cls-1" d="M33.29,20.47c.21.06.4.11.53.05-.21-.06-.4-.11-.53-.05Z"/><path class="cls-1" d="M25.48,51.42c.12.1.16.16.32.25l.02-.08-.15-.04c-.1-.14-.08-.17-.2-.14h.01Z"/><path class="cls-1" d="M33.24,21.83c.14.15.28.3.43.45l.02-.08-.07-.02c-.09-.21-.2-.38-.37-.35h0Z"/><path class="cls-1" d="M25.25,52.9c.19-.02.13,0,.26-.1.04-.07.06-.02.02-.08-.09.05-.03.02-.17.04l.02-.08.07.02.45-.23c-.17-.16-.58.32-.65.43h0Z"/><path class="cls-1" d="M25.68,52.41c.2-.04.31,0,.43-.15l.09-.06c-.11-.12-.38.07-.52.21h0Z"/><path class="cls-1" d="M25.85,51.77c.16,0,.14.02.24-.02-.16,0-.14-.02-.24.02Z"/><path class="cls-1" d="M33.06,24.61c.13-.1.07-.08.26-.1l-.02.08-.07-.02c-.09.05-.03.02-.17.04Z"/><path class="cls-1" d="M33.63,22.44l.05.1c.02.17.11-.14.11-.14-.14.02-.07,0-.17.04h.01Z"/><path class="cls-1" d="M26.12,51.93c.11.08.07.03.12.12.14-.02.07,0,.17-.04.13-.05.41-.14.3-.26-.2.16-.12.03-.33.08l.05.1c.12.1-.17.04-.17.04-.09-.13-.02-.06-.15-.04h.01Z"/><path class="cls-1" d="M26.62,50c.12.1.16.16.32.25l.02-.08-.15-.04c-.1-.14-.08-.17-.2-.14h.01Z"/><path class="cls-1" d="M33.92,22.52c.12-.1.06-.03.04-.16l-.04.16Z"/><path class="cls-1" d="M34,22.2c.16-.14.32-.76.25-.96l-.25.96Z"/><path class="cls-1" d="M27.1,51.75c.08.27-.04.7.06.96l.06-.24c-.02-.09-.01-.95-.12-.72Z"/><path class="cls-1" d="M34.46,24.03c.15-.08.09-.03.21-.2l-.07-.02-.02.08c-.08.07-.03.02-.11.14h-.01Z"/><path class="cls-1" d="M27.03,53.19c.05.17,0,.45.07.62l.08-.32c-.1-.28.06-.31-.11-.46l-.04.16h0Z"/><path class="cls-1" d="M27.02,54.13c.1-.12.09-.09.06-.24l-.06.24Z"/><path class="cls-1" d="M27.27,53.17c.18.16.25.27.52.39l.02-.08-.15-.04c-.1-.16-.31-.3-.39-.27h0Z"/><path class="cls-1" d="M34.88,23.88l.46.03.28-.18c-.07-.16-.03-.1-.12-.12l.05.1-.15-.04c-.11-.1-.03.07-.22-.06l-.02.08.05.1-.15-.04.02-.08-.09.06c-.08.07-.03.02-.11.14h0Z"/><path class="cls-1" d="M28.13,50.48c.13-.1.07-.08.26-.1l-.02.08-.07-.02c-.09.05-.03.02-.17.04h0Z"/><path class="cls-1" d="M35.46,24.03c.31.18.4.43.6.67l.02-.08c-.15-.21-.3-.42-.46-.63-.14.02-.07,0-.17.04h.01Z"/><path class="cls-1" d="M27.84,53.66l.15.04c-.09-.13-.02-.06-.15-.04Z"/><path class="cls-1" d="M35.83,23.53l.15.04c-.09-.13-.02-.06-.15-.04Z"/><path class="cls-1" d="M36.23,23.46l.15.04c-.09-.13-.02-.06-.15-.04Z"/><path class="cls-1" d="M28.63,54.21c.45.09.72-.04,1.1-.06l-.08.32c-.12.1-.24.29-.34.42l.07.02.02-.08c.39-.27.46-.78.54-.89l.02-.08c.15,0,.02.14.15.04-.09-.15.1-.06-.03-.18-.46.45-.88.24-1.44.48h-.01Z"/><path class="cls-1" d="M28.74,55.6l.19-.12-.19.12Z"/><path class="cls-1" d="M28.87,55.38l.15.04c-.09-.13-.02-.06-.15-.04Z"/><path class="cls-1" d="M29.06,55.26c.13-.11.16-.1.14-.22l-.14.22Z"/><path class="cls-1" d="M30.17,53.66l.15.04-.05-.1-.05-.1-.04.16h-.01Z"/><path class="cls-1" d="M30.31,53.44l.12.12c-.07-.17-.12-.12-.12-.12Z"/><path class="cls-1" d="M37.73,25.48c.24.07.52.15.68.09-.24-.07-.52-.15-.68-.09Z"/><path class="cls-1" d="M31.02,53.37l.18.22c.15-.18.02-.31-.18-.22Z"/><path class="cls-1" d="M37.72,27.62c.12-.1.06-.03.04-.16l-.04.16Z"/><path class="cls-1" d="M38.6,24.51c.25,0,.1.07.26-.1l-.07-.02-.05-.1-.02.08c-.08.07-.03.02-.11.14h-.01Z"/><path class="cls-1" d="M37.9,27.49c.55.13.64.32.96.51l.02-.08c-.25-.69.26-1.16.21-1.4l-.28.18-.05-.1c.08-.17.09-.07.06-.24l-.04.16-.07-.02c.02.41.06.68-.05,1.1-.25-.08-.58-.18-.75-.11h0Z"/><path class="cls-1" d="M38.61,24.76l.15.04c-.08.21-.12.31-.05.5l.04-.16s.06-.31.03-.42c-.06-.08-.01-.03-.12-.12l-.04.16h-.01Z"/><path class="cls-1" d="M31.16,53.75l.18.22c.15-.18.02-.31-.18-.22Z"/><path class="cls-1" d="M38.62,25.62c.18.14.05.23.22.06-.13-.21,0-.15-.06-.36l-.04.16c-.08.07-.03.02-.11.14h-.01Z"/><path class="cls-1" d="M32.44,49.71l.05.1c.02.17.11-.14.11-.14-.14.02-.07,0-.17.04h.01Z"/><path class="cls-1" d="M31.64,54.9c.16,0,.14.02.24-.02-.07-.16-.37-.94-.49-.81l.07.02-.11.14.07.02c.07.09.06.05.2.14v.26s-.07-.08-.11-.12l-.02.08c.18.16.17-.05.16.3h-.01Z"/><path class="cls-1" d="M32.64,49.85c.36.14.87.48.93.59.03.08.02.24.04.44l.09-.06c.04-.07.06-.02.02-.08l-.09.06.04-.16c.18-.09-.03-.11.19-.12.52-.17,1.36.41,1.61.08-.11-.08-.07-.03-.12-.12-1.25.26-1.93-.41-2.67-.78l-.04.16h0Z"/><path class="cls-1" d="M31.67,55.08c.22.27.26.61.56.83l.02-.08c-.29-.34-.37-.87-.58-.75Z"/><path class="cls-1" d="M38.91,28.1c-.25,0-.1-.07-.26.1l.15.04.05.1.06-.24h0Z"/><path class="cls-1" d="M38.66,28.46c.23.06.24-.02.24-.02-.06-.12-.24.02-.24.02Z"/><path class="cls-1" d="M31.92,54.72c.17.03.21.04.31,0-.17-.03-.21-.04-.31,0Z"/><path class="cls-1" d="M38.65,28.8c.25,0,.1.07.26-.1l-.22-.06s-.04.16-.04.16Z"/><path class="cls-1" d="M39.28,26.39l.15.04c-.09-.13-.02-.06-.15-.04Z"/><path class="cls-1" d="M39.39,26.25l.15.04c-.05-.15,0-.11-.15-.04Z"/><path class="cls-1" d="M39.6,26.05c.14.16.21-.07.19-.12l-.19.12Z"/><path class="cls-1" d="M32.3,54.73c.28.07.44.08.62,0,.04-.07.06-.02.02-.08-.17.08-.46,0-.64.09h0Z"/><path class="cls-1" d="M39.99,25.72c.04.1.02.03.03.18l.07.02c0-.1.01-.4-.1-.2Z"/><path class="cls-1" d="M40.2,25.52c.26-.03.63-.35.6-.53-.18.21-.4.36-.6.53Z"/><path class="cls-1" d="M33.64,51.06l.2.14.02-.08c-.2-.1-.01-.17-.22-.06Z"/><path class="cls-1" d="M40.19,25.86c.25.08.58.18.75.11-.25-.08-.58-.18-.75-.11Z"/><path class="cls-1" d="M33.33,52.86c.2-.09.35-.3.29-.52-.09.24-.17.36-.29.52Z"/><path class="cls-1" d="M33.73,51.33l.28.42c-.15-.16-.03-.48-.28-.42Z"/><path class="cls-1" d="M33.84,51.79c-.06.22-.09.37-.05.5.07-.21.1-.26.18-.38l.12.12.02-.08-.07-.02c-.06-.08-.06-.07-.2-.14h0Z"/><path class="cls-1" d="M33.98,52.17c.18.14.05.23.22.06-.21-.06-.08-.1-.22-.06Z"/><path class="cls-1" d="M34.11,52.55c.14.29.12.67.3.93l.02-.08c-.06-.14-.19-1.03-.32-.85h0Z"/><path class="cls-1" d="M35.42,50.49c.19-.12.41-.39.38-.59l-.04.16c-.15.1-.24.22-.34.42h0Z"/><path class="cls-1" d="M35.5,50.77c.3.02.61.04.91.07-.06-.08-.01-.03-.12-.12-.24.1-.58-.04-.75-.11l-.04.16h0Z"/><path class="cls-1" d="M41.84,26.37c.11.11.1.13.25.24l.02-.08-.07-.02c-.1-.14-.08-.17-.2-.14h0Z"/><path class="cls-1" d="M35.9,49.84c.12-.1.06-.03.04-.16l-.04.16Z"/><path class="cls-1" d="M42.12,26.79l.2.14c-.07.19-.06.03-.06.24.13.13.1.15.32.25-.01-.18.04-.14-.01-.26-.17.05-.14.01-.29-.08.07-.19.06-.03.06-.24-.16-.07-.06-.09-.22-.06h0Z"/><path class="cls-1" d="M41.12,32.44c.27.19,1.07.62,1.25.58l.07.02-.05-.1c-.09.05-.03.02-.17.04l.02-.08c.14-.1.49-.43.44-.49l-.02.08-.12-.12-.02.08-.07-.02.03.18-.07-.02c-.09.05-.03.02-.17.04l.11-.14-.07-.02c-.14.19.03.16-.21.2-.14-.19-.82-.37-.95-.25v.02Z"/><path class="cls-1" d="M42.81,25.94c.12-.12.15-.24.1-.4l-.1.4Z"/><path class="cls-1" d="M42.24,28.45c.2.02.08.08.19-.12-.04-.15.06-.53.02-.68l-.21.8Z"/><path class="cls-1" d="M42.59,27.08c.16-.14.32-.76.25-.96l-.25.96Z"/><path class="cls-1" d="M42.55,29.04s.31-.13.14-.22c0,0-.11.14-.14.22Z"/><path class="cls-1" d="M42.75,28.84c.07-.03.08.07.24-.02-.11-.17-.12-.06-.24.02Z"/><path class="cls-1" d="M43.01,28.74l.12.12c-.07-.17-.12-.12-.12-.12Z"/><path class="cls-1" d="M43.44,28.59c.17.07.06.04.29.08l-.05-.1c-.12-.1.17-.04.17-.04.27.35.7-.11.69-.25-.15.04,0,.02-.15-.04l-.02.08c0,.08.05.05-.02.08l-.02.08c-.13-.08-.03-.15-.15-.04-.22-.08-.63.05-.74.15h0Z"/><path class="cls-1" d="M42.4,33.2c.26.05.53.5.72.53l.07.02-.05-.1s-.49-.61-.74-.45h0Z"/><path class="cls-1" d="M42.92,32.39c.15-.08.09-.03.21-.2l-.07-.02-.02.08c-.08.07-.03.02-.11.14h-.01Z"/><path class="cls-1" d="M43.18,32.29c.26-.11.2-.09.43-.15,0-.15,0-.08-.03-.18-.08.13-.03.07-.11.14l-.05-.1c.09-.22.15-.2.1-.4-.15.44-.16.45-.33.68h-.01Z"/><path class="cls-1" d="M44.24,28.8c.33.19.43.45.67.69l.02-.08-.05-.1c-.2-.2-.37-.58-.64-.51Z"/><path class="cls-1" d="M43.6,31.54c.13-.12.2-.39.15-.56l-.15.56Z"/><path class="cls-1" d="M43.72,32c.22,0,.36-.07.52-.21l.07.02-.05-.1c-.17.14-.37.15-.54.29h0Z"/><path class="cls-1" d="M44.7,28.23l.15.04c-.09-.13-.02-.06-.15-.04Z"/><path class="cls-1" d="M43.19,34.35c.09-.06.13-.12.21-.2.37.19.52.44.75.71l.04-.16-.15-.04c-.15-.42-.58-.66-.67-.69-.05.07-.09.18-.18.38h0Z"/><path class="cls-1" d="M43.07,35.09c.14-.13.23-.46.17-.64l-.17.64Z"/><path class="cls-1" d="M44.94,28.21c.16,0,.28,0,.41-.07l-.22-.06-.19.12h0Z"/><path class="cls-1" d="M44.5,31.69c.16-.07.17-.13.35-.17-.06-.08-.01-.03-.12-.12-.11.12-.13.11-.23.28h0Z"/></g></g></svg>