<?xml version="1.0" encoding="UTF-8"?>
<svg id="Layer_1" data-name="Layer 1" xmlns="http://www.w3.org/2000/svg" version="1.1" viewBox="0 0 64 64">
  <defs>
    <style>
      .cls-1 {
        fill: #000;
      }

      .cls-1, .cls-2 {
        stroke-width: 0px;
      }

      .cls-2 {
        fill: #7f1c3e;
      }
    </style>
  </defs>
  <path class="cls-1" d="M8,56v-5.3h5.3V8h26.7v2.7h10.7v16h-5.3v-10.7h-5.3v16h-5.3V13.3h-16v37.3h13.3v5.3H8ZM29.3,34.7c-.8,0-1.4-.3-1.9-.8-.5-.5-.8-1.1-.8-1.9s.3-1.4.8-1.9c.5-.5,1.1-.8,1.9-.8s1.4.3,1.9.8c.5.5.8,1.1.8,1.9s-.3,1.4-.8,1.9-1.1.8-1.9.8M18.7,50.7V13.3v37.3Z"/>
  <path class="cls-2" d="M54.7,43.3c0-.5,0-1-.1-1.7l3-2.7-2.7-4.6-3.9,1.3c-.4-.4-.9-.7-1.4-.9-.5-.3-1-.5-1.5-.7l-.8-4h-5.3l-.8,4c-.5.2-1,.5-1.5.8-.5.3-.9.6-1.4,1l-3.9-1.3-2.7,4.6,3,2.7c0,.7-.1,1.2-.1,1.7s0,1,.1,1.7l-3,2.7,2.7,4.6,3.9-1.3c.4.4.9.7,1.4.9.5.3,1,.5,1.5.7l.8,4h5.3l.8-4c.5-.2,1-.5,1.5-.7.5-.3.9-.6,1.4-.9l3.9,1.3,2.7-4.6-3-2.7c0-.7.1-1.2.1-1.7ZM48.3,47.4c-1,1-2.3,1.6-3.8,1.6-1.5,0-2.7-.5-3.8-1.6-1.1-1.1-1.6-2.3-1.6-3.8,0-1.5.5-2.7,1.6-3.8s2.3-1.6,3.8-1.6c1.5,0,2.7.5,3.8,1.6s1.6,2.3,1.6,3.8-.5,2.7-1.6,3.8Z"/>
</svg>