<?xml version="1.0" encoding="UTF-8"?><svg id="Layer_2" xmlns="http://www.w3.org/2000/svg" viewBox="0 0 91.92 91.92"><defs><style>.cls-1,.cls-2{stroke-width:.5px;}.cls-1,.cls-2,.cls-3,.cls-4,.cls-5{stroke:#fff;}.cls-1,.cls-3,.cls-4{fill:none;}.cls-2,.cls-5,.cls-6{fill:#b8729a;}.cls-7{stroke:#b8729a;stroke-width:.25px;}.cls-7,.cls-8{fill:#fff;}.cls-4,.cls-5{stroke-width:.75px;}.cls-6{stroke-width:0px;}.cls-8{stroke:#454545;stroke-width:.04px;}</style></defs><g id="Layer_1-2"><g id="repro_organs"><circle class="cls-6" cx="45.96" cy="45.96" r="45.96" transform="translate(-3.14 88.55) rotate(-85.93)"/><g id="repro_organs-2"><g id="repro_organs2"><path class="cls-3" d="M31.03,62.8l-.19,5.23-.06,3.43-.13,3.3-.06,4.85M25.79,38.24l-.19.84-.13.9-.06.84-.06.9v1.81l.06.9.13.84v.32h0l.19.71.13.84.13.84.06.84.06.84v.84l-.06.84-.13.84-.13.84h0v.45l.06.45.06.52.13.45.13.45.19.45.26.45.26.39.32.39.32.32.39.32.39.26.39.26.45.19.45.19"/><polygon class="cls-8" points="25.79 33.01 26.12 33.59 26.5 34.17 26.89 34.75 27.34 35.27 27.86 35.72 28.31 36.24 28.83 36.63 29.41 37.08 29.99 37.47 30.57 37.73 30.57 37.73 30.64 36.95 30.7 36.24 30.7 35.4 30.7 34.62 30.64 33.85 30.51 33.07 30.32 32.36 30.19 31.59 29.93 30.88 29.67 30.1 29.35 29.39 29.02 28.68 28.64 28.03 28.64 28.03 28.25 28.1 27.92 28.23 27.54 28.36 27.21 28.55 26.89 28.74 26.57 29 26.31 29.33 26.12 29.58 25.92 29.91 25.73 30.29 25.6 30.62 25.53 31.01 25.53 31.39 25.47 31.78 25.53 32.17 25.6 32.56 25.73 32.88 25.79 33.01"/><polyline class="cls-3" points="35.16 38.24 35.36 39.08 35.55 39.99 35.62 40.83 35.68 41.73 35.68 42.57 35.68 43.48 35.62 44.38 35.49 45.22 35.42 45.55 35.42 45.55 35.29 46.26 35.16 47.1 35.03 47.87 34.97 48.71 34.9 49.55 34.9 50.39 34.97 51.23 35.1 52.07 35.16 52.91 35.16 52.91 35.16 53.37 35.16 53.82 35.1 54.33 34.97 54.79 34.78 55.17 34.58 55.63 34.32 56.08 34.06 56.4 33.74 56.79 33.42 57.11 33.09 57.44 32.71 57.7 32.32 57.95 31.8 58.15 31.41 58.34"/><polygon class="cls-8" points="35.16 33.01 34.84 33.59 34.52 34.17 34.06 34.75 33.61 35.27 33.16 35.72 32.64 36.24 32.13 36.63 31.54 37.08 30.96 37.47 30.45 37.73 30.45 37.73 30.32 36.95 30.32 36.24 30.25 35.4 30.32 34.62 30.38 33.85 30.51 33.07 30.64 32.36 30.83 31.59 31.03 30.88 31.35 30.1 31.61 29.39 32 28.68 32.38 28.03 32.38 28.03 32.71 28.1 33.09 28.23 33.42 28.36 33.81 28.55 34.13 28.74 34.39 29 34.65 29.33 34.9 29.58 35.1 29.91 35.23 30.29 35.36 30.62 35.42 31.01 35.49 31.39 35.49 31.78 35.42 32.17 35.36 32.56 35.23 32.88 35.16 33.01"/><polygon class="cls-7" points="31.41 58.34 31.22 55.37 31.09 52.4 30.96 49.42 30.96 46.45 30.9 43.48 30.96 40.51 31.03 37.53 31.16 34.56 31.16 33.98 31.16 33.98 31.16 33.4 31.16 32.81 31.22 32.23 31.29 31.65 31.41 31.13 31.61 30.55 31.8 30.04 32.06 29.52 32.38 29 32.71 28.55 33.03 28.1 33.42 27.65 33.87 27.26 34.32 26.93 34.78 26.61 35.23 26.29 35.74 26.03 36.33 25.77 36.65 25.71 36.65 25.71 36.97 25.51 37.42 25.38 37.75 25.32 38.2 25.25 38.65 25.25 39.04 25.32 39.43 25.38 39.82 25.51 40.2 25.64 40.53 25.84 40.91 26.09 41.24 26.35 41.5 26.68 41.75 26.93 42.01 27.32 42.21 27.65 42.34 28.03 42.34 28.03 42.53 28.55 42.72 29 42.85 29.52 42.98 30.04 43.05 30.55 43.05 31.13 43.05 31.65 42.98 32.17 42.85 32.69 42.72 33.2 42.53 33.72 42.27 34.17 42.08 34.62 41.88 34.88 41.88 34.88 41.88 34.95 41.24 35.79 40.72 36.63 40.27 37.53 39.75 38.44 39.36 39.34 38.98 40.31 38.59 41.28 38.26 42.25 38.01 43.22 37.81 44.25 37.62 45.22 37.49 46.26 37.36 47.23 37.3 48.26 37.3 49.29 37.3 50.33 37.36 51.3 37.42 52.33 37.62 53.37 38.78 53.56 38.65 52.59 38.52 51.56 38.52 50.52 38.46 49.49 38.52 48.45 38.59 47.42 38.65 46.39 38.85 45.42 39.04 44.38 39.23 43.35 39.56 42.31 39.82 41.35 40.2 40.38 40.59 39.47 40.98 38.5 41.43 37.6 41.95 36.69 42.53 35.79 43.11 34.95 43.31 34.69 43.31 34.69 43.43 34.24 43.69 33.66 43.82 33.07 43.95 32.43 44.08 31.85 44.08 31.2 44.08 30.62 44.08 29.97 44.02 29.33 43.89 28.74 43.76 28.1 43.56 27.52 43.31 26.93 43.05 26.42 42.79 26.42 42.72 26.22 42.34 25.9 41.95 25.58 41.56 25.25 41.17 25 40.72 24.8 40.27 24.61 39.82 24.41 39.3 24.28 38.85 24.22 38.33 24.22 37.88 24.22 37.36 24.28 36.84 24.35 36.39 24.48 36.39 24.48 35.62 25 34.78 25.45 33.93 25.84 33.09 26.22 32.58 26.42 32.58 26.42 32.64 26.22 32.77 25.84 32.84 25.45 32.84 25 32.84 24.54 32.77 24.16 32.71 23.7 32.58 23.32 32.58 23.32 32.58 23.32 32.84 23.19 33.09 23.06 33.29 22.86 33.48 22.6 33.68 22.35 33.81 22.15 33.87 21.83 33.93 21.57 33.93 21.25 33.87 20.99 33.74 20.73 33.74 20.73 34.13 20.47 34.32 20.28 34.32 19.05 34.32 19.05 34.13 18.6 33.61 18.08 33.42 18.08 32.9 18.08 32.45 18.6 32.19 19.05 32 19.76 31.87 20.28 31.48 20.73 31.29 21.63 31.29 22.15 31.48 23.06 31.16 24.54 31.29 25 31.41 25.45 31.41 25.45 31.48 26.09 31.48 26.74 31.48 27.39 31.41 27.97 31.41 28.49 31.16 29.26 30.9 29.91 30.77 30.62 30.32 30.42 30.06 29.91 29.8 29.26 29.61 28.49 29.61 27.97 29.54 27.39 29.54 26.74 29.54 26.09 29.61 25.45 29.61 25.45 29.73 25 29.8 24.54 29.86 24.09 29.93 23.57 29.86 23.12 29.8 22.86 29.8 22.86 29.93 22.6 30.06 22.35 30.12 22.09 30.12 21.83 30.12 21.57 30.06 21.25 29.93 21.05 29.73 20.79 29.61 20.6 29.41 20.41 29.15 20.28 29.09 20.28 29.09 20.28 29.22 19.95 29.22 19.63 29.22 19.31 29.15 19.05 29.09 18.73 28.96 18.47 28.83 18.21 28.64 18.02 28.38 17.82 28.18 17.63 28.18 17.63 27.92 17.69 27.67 17.69 27.41 17.76 27.15 17.89 27.02 18.08 26.76 18.27 26.63 18.47 26.57 18.73 26.44 18.99 26.44 19.24 26.44 19.5 26.5 19.76 26.57 20.02 26.76 20.21 26.89 20.41 27.08 20.6 27.21 20.73 27.21 20.73 27.15 20.99 27.08 21.25 27.08 21.57 27.15 21.83 27.21 22.15 27.34 22.35 27.47 22.6 27.67 22.86 27.92 23.06 28.12 23.19 28.38 23.32 28.38 23.32 28.38 23.32 28.25 23.7 28.18 24.16 28.12 24.54 28.12 25 28.18 25.45 28.25 25.84 28.38 26.22 28.38 26.42 28.38 26.42 27.92 26.22 27.02 25.84 26.18 25.45 25.4 25 24.63 24.48 24.63 24.48 24.11 24.35 23.6 24.28 23.14 24.22 22.63 24.22 22.17 24.22 21.66 24.28 21.2 24.41 20.69 24.61 20.23 24.8 19.85 25 19.39 25.25 19.01 25.58 18.62 25.9 18.3 26.22 18.17 26.42 17.97 26.42 17.65 26.93 17.46 27.52 17.26 28.1 17.07 28.74 17 29.33 16.87 29.97 16.87 30.62 16.87 31.2 16.94 31.85 17 32.43 17.13 33.07 17.33 33.66 17.52 34.24 17.71 34.69 17.71 34.69 17.91 34.95 18.49 35.79 19.01 36.69 19.52 37.6 19.98 38.5 20.43 39.47 20.75 40.38 21.14 41.35 21.46 42.31 21.72 43.35 21.98 44.38 22.17 45.42 22.3 46.39 22.43 47.42 22.5 48.45 22.5 49.49 22.5 50.52 22.43 51.56 22.37 52.59 22.24 53.56 23.4 53.37 23.53 52.33 23.66 51.3 23.66 50.33 23.72 49.29 23.66 48.26 23.6 47.23 23.53 46.26 23.34 45.22 23.21 44.25 22.95 43.22 22.69 42.25 22.37 41.28 22.04 40.31 21.66 39.34 21.2 38.44 20.75 37.53 20.23 36.63 19.72 35.79 19.14 34.95 19.14 34.88 19.14 34.88 18.94 34.62 18.68 34.17 18.49 33.72 18.3 33.2 18.1 32.69 18.04 32.17 17.97 31.65 17.97 31.13 17.97 30.55 18.04 30.04 18.1 29.52 18.23 29 18.43 28.55 18.62 28.03 18.62 28.03 18.81 27.65 19.01 27.32 19.2 26.93 19.46 26.68 19.72 26.35 20.04 26.09 20.43 25.84 20.75 25.64 21.14 25.51 21.53 25.38 21.98 25.32 22.37 25.25 22.75 25.25 23.21 25.32 23.6 25.38 23.98 25.51 24.37 25.71 24.37 25.71 24.69 25.77 25.21 26.03 25.73 26.29 26.18 26.61 26.7 26.93 27.15 27.26 27.54 27.65 27.92 28.1 28.31 28.55 28.64 29 28.89 29.52 29.15 30.04 29.35 30.55 29.54 31.13 29.73 31.65 29.8 32.23 29.86 32.81 29.86 33.4 29.8 33.98 29.8 33.98 29.86 34.56 29.93 37.53 30.06 40.51 30.06 43.48 30.06 46.45 29.99 49.42 29.93 52.4 29.73 55.37 29.61 58.34 31.41 58.34"/><polygon class="cls-7" points="24.82 55.24 24.82 54.85 24.76 54.53 24.63 54.14 24.5 53.82 24.37 53.56 24.37 53.56 24.18 53.37 23.98 53.24 23.72 53.11 23.53 52.98 23.21 52.91 22.95 52.91 22.69 52.91 22.43 52.98 22.17 53.04 21.91 53.17 21.72 53.37 21.53 53.56 21.53 53.56 21.53 53.56 21.01 54.08 20.75 54.53 20.56 54.98 20.56 55.5 20.36 56.4 20.62 56.92 20.62 57.44 20.69 57.89 20.82 58.41 20.95 58.86 21.01 59.05 24.82 55.24"/><polygon class="cls-7" points="21.98 60.47 22.17 60.8 22.43 61.12 22.69 61.38 23.01 61.7 23.34 61.9 23.66 62.09 24.05 62.22 24.44 62.35 24.82 62.41 25.21 62.48 25.6 62.48 25.99 62.41 26.37 62.35 26.76 62.22 27.15 62.09 27.47 61.9 27.47 61.9 27.67 61.7 27.86 61.44 27.99 61.18 28.05 60.86 28.12 60.6 28.18 60.34 28.18 60.02 28.12 59.76 27.99 59.44 27.86 59.25 27.67 58.99 27.47 58.79 27.28 58.6 27.21 58.54 27.21 58.54 26.96 58.41 26.63 58.15 26.37 57.89 26.05 57.57 25.86 57.24 25.66 56.92 25.53 56.53 25.4 56.21 25.34 55.76 25.28 55.37 25.28 54.98 25.28 54.98 25.28 54.79 25.15 54.59 25.02 54.46 24.89 54.33 24.69 54.21 24.5 54.14 24.24 54.14 24.05 54.14 23.85 54.21 23.66 54.08 23.4 54.33 23.4 54.33 22.69 54.53 22.37 54.98 22.04 55.24 21.79 55.5 21.53 55.76 21.33 56.08 21.14 56.4 21.01 56.79 20.95 57.11 20.88 57.5 20.82 57.89 20.88 58.21 20.95 58.6 21.01 58.99 21.01 59.05 21.98 60.47"/><polygon class="cls-7" points="36.13 55.24 36.13 54.85 36.26 54.53 36.33 54.14 36.46 53.82 36.65 53.56 36.65 53.56 36.84 53.37 36.97 53.24 37.23 53.11 37.49 52.98 37.75 52.91 38.01 52.91 38.26 52.91 38.59 52.98 38.78 53.04 39.04 53.17 39.3 53.37 39.43 53.56 39.49 53.56 39.49 53.56 39.94 54.08 40.2 54.53 40.46 54.98 40.46 55.5 40.66 56.4 40.4 56.92 40.33 57.44 40.27 57.89 40.14 58.41 40.01 58.86 39.94 59.05 36.13 55.24"/><polygon class="cls-7" points="38.98 60.47 38.78 60.8 38.59 61.12 38.26 61.38 38.01 61.7 37.68 61.9 37.3 62.09 36.97 62.22 36.58 62.35 36.13 62.41 35.74 62.48 35.36 62.48 34.97 62.41 34.58 62.35 34.26 62.22 33.87 62.09 33.55 61.9 33.55 61.9 33.35 61.7 33.16 61.44 33.03 61.18 32.9 60.86 32.84 60.6 32.84 60.34 32.84 60.02 32.9 59.76 32.97 59.44 33.09 59.25 33.29 58.99 33.48 58.79 33.74 58.6 33.74 58.54 33.74 58.54 34.06 58.41 34.32 58.15 34.65 57.89 34.9 57.57 35.16 57.24 35.29 56.92 35.49 56.53 35.55 56.21 35.62 55.76 35.68 55.37 35.68 54.98 35.68 54.98 35.74 54.79 35.81 54.59 35.94 54.46 36.13 54.33 36.33 54.21 36.52 54.14 36.71 54.14 36.91 54.14 37.1 54.21 37.36 54.08 37.62 54.33 37.62 54.33 38.26 54.53 38.59 54.98 38.91 55.24 39.17 55.5 39.43 55.76 39.62 56.08 39.82 56.4 39.94 56.79 40.07 57.11 40.14 57.5 40.14 57.89 40.14 58.21 40.07 58.6 39.94 58.99 39.94 59.05 38.98 60.47"/><polyline class="cls-3" points="44.02 37.53 43.63 37.86 43.18 38.37 42.72 38.89 42.4 39.41 42.01 39.92 41.75 40.51 41.43 41.09 41.24 41.73 41.04 42.31 40.85 42.96 40.72 43.61 40.66 44.25 40.66 44.9 40.66 45.55 40.66 45.55 40.66 46.71 40.72 48.2 40.85 49.68 40.98 51.1 41.17 52.59 41.37 54.01 41.63 55.5 41.63 55.5 41.69 56.08 41.75 56.66 41.75 57.31 41.75 57.89 41.69 58.47 41.56 59.05 41.37 59.7 41.24 60.28 40.98 60.8 40.72 61.38 40.4 61.9 40.07 62.35 39.75 62.8 39.75 62.8 39.36 63.12 38.98 63.38 38.59 63.64 38.14 63.83 37.68 63.96 37.23 64.16 36.84 64.22 36.33 64.22 35.87 64.22 35.42 64.22 34.97 64.16 34.52 64.03 34.06 63.83 33.61 63.64 33.22 63.45 33.09 63.32 33.09 63.32 32.9 63.25 32.19 62.87 31.41 62.61 30.64 62.35 30.32 62.35 29.54 62.61 28.83 62.87 28.05 63.25 27.92 63.32 27.92 63.32 27.8 63.45 27.34 63.64 26.96 63.83 26.5 64.03 26.05 64.16 25.6 64.22 25.15 64.22 24.63 64.22 24.18 64.22 23.72 64.16 23.27 63.96 22.82 63.83 22.43 63.64 21.98 63.38 21.59 63.12 21.27 62.8 21.27 62.8 20.95 62.35 20.56 61.9 20.3 61.38 20.04 60.8 19.78 60.28 19.59 59.7 19.46 59.05 19.33 58.47 19.2 57.89 19.2 57.31 19.2 56.66 19.27 56.08 19.39 55.5 19.39 55.5 19.65 54.01 19.85 52.59 20.04 51.1 20.17 49.68 20.23 48.2 20.3 46.71 20.36 45.55 20.36 45.55 20.36 44.9 20.3 44.25 20.23 43.61 20.11 42.96 19.91 42.31 19.72 41.73 19.52 41.09 19.27 40.51 18.94 39.92 18.62 39.41 18.23 38.89 17.84 38.37 17.39 37.86 17 37.53"/><g id="Layer_6-2"><path class="cls-4" d="M63.45,46.45v-.77M64.17,79.6l-.18-12.39-.18-12.31h0M71.6,37.99l-.66.82-.66.88-.6.88-.6.88-.6.88-.54.93-.54.93-.48.93-.48.93-.18.44M60.88,46.34l-.54-.99-.54-.93-.54-.93-.6-.93-.6-.93-.66-.93-.66-.88-.66-.88-.72-.88h0"/><polygon class="cls-5" points="60.88 46.29 61.12 46.83 61.47 47.66 61.83 48.48 62.19 49.31 62.49 50.13 62.79 50.95 63.03 51.78 63.27 52.6 63.45 53.48 63.63 54.31 63.75 55.18 63.75 55.18 63.75 54.8 63.87 53.87 64.11 53.04 64.29 52.16 64.47 51.34 64.71 50.46 64.95 49.64 65.25 48.76 65.55 47.99 65.91 47.11 66.33 46.34 66.33 46.34 66.27 46.4 66.09 46.51 65.85 46.62 65.61 46.67 65.37 46.73 65.13 46.78 64.89 46.78 64.59 46.78 64.35 46.73 64.11 46.67 63.87 46.56 63.69 46.45 63.45 46.34 63.45 46.34 63.39 46.4 63.21 46.51 63.03 46.62 62.79 46.67 62.55 46.73 62.37 46.78 62.13 46.78 61.89 46.78 61.65 46.73 61.47 46.67 61.24 46.56 61.06 46.45 60.94 46.34 60.88 46.29"/><polygon class="cls-5" points="65.55 32.77 65.79 32.94 65.97 33.16 66.15 33.32 66.33 33.54 66.45 33.76 66.51 34.04 66.63 34.26 66.63 34.48 66.69 34.75 66.69 35.02 66.69 35.08 66.69 35.08 66.63 36.29 66.51 37.55 66.39 38.76 66.27 40.02 66.09 41.23 65.91 42.44 65.67 43.7 65.43 44.91 65.43 44.97 61.35 44.97 61.35 44.91 61.12 43.7 60.88 42.44 60.7 41.23 60.52 40.02 60.4 38.76 60.28 37.55 60.16 36.29 60.1 35.08 60.1 35.08 60.1 35.02 60.1 34.75 60.1 34.48 60.16 34.26 60.28 34.04 60.34 33.76 60.52 33.54 60.64 33.32 60.82 33.16 61 32.94 61.18 32.77 65.55 32.77"/><path class="cls-1" d="M61.18,32.77l-.24.16-.18.16-.18.16-.12.22-.12.22-.12.22-.06.22-.06.22v.6h0l.06,1.21.06,1.26.12,1.21.12,1.21.18,1.21.18,1.21.24,1.21.24,1.21v.05M65.55,32.77l.18.16.18.16.18.16.18.22.12.22.12.22.06.22.06.22v.6h0l-.06,1.21-.06,1.26-.12,1.21-.12,1.21-.18,1.21-.18,1.21-.24,1.21-.24,1.21v.05"/><polygon class="cls-2" points="63.45 34.48 63.69 34.48 63.99 34.37 64.35 34.31 64.65 34.15 64.89 34.04 65.19 33.87 65.43 33.65 65.67 33.43 65.91 33.27 66.09 32.99 66.27 32.77 66.45 32.5 66.57 32.22 66.63 31.95 66.75 31.62 66.75 31.62 67.71 30.9 68.78 29.64 68.78 29.64 69.2 29.59 69.68 29.59 70.1 29.59 70.58 29.64 71 29.7 71.48 29.75 71.9 29.86 72.32 29.97 72.74 30.14 73.16 30.36 73.46 30.47 73.46 30.47 73.46 30.47 73.82 30.63 74.12 30.68 74.48 30.74 74.84 30.79 75.13 30.79 75.49 30.79 75.85 30.74 76.21 30.68 76.51 30.63 76.81 30.52 77.17 30.36 77.47 30.25 77.77 30.03 78.01 29.86 78.31 29.64 78.55 29.42 78.73 29.15 78.91 28.93 79.09 28.6 79.09 28.6 79.75 28.21 79.75 28.21 79.81 27.99 79.93 27.77 79.99 27.44 80.05 27.17 80.05 26.89 80.05 26.62 79.99 26.35 79.93 26.07 79.87 25.8 79.75 25.52 79.63 25.25 79.45 24.97 79.27 24.75 79.09 24.53 78.85 24.31 78.61 24.15 78.37 24.04 78.07 23.87 77.83 23.76 77.53 23.65 77.17 23.6 76.87 23.54 76.57 23.54 76.27 23.54 75.97 23.54 75.67 23.6 75.67 23.6 75.55 23.65 74.84 23.76 74.12 23.93 73.4 24.15 72.68 24.37 72.02 24.64 71.3 24.92 70.64 25.19 70.64 25.19 70.46 25.36 70.22 25.47 70.04 25.58 69.8 25.69 69.56 25.74 69.26 25.74 69.02 25.8 68.78 25.74 68.54 25.74 68.3 25.69 68.07 25.58 67.83 25.47 67.83 25.47 67.23 25.3 66.51 25.08 65.73 24.86 65.01 24.7 64.23 24.59 63.45 24.48 63.39 24.48 62.61 24.59 61.83 24.7 61.12 24.86 60.34 25.08 59.62 25.3 59.02 25.47 59.02 25.47 58.78 25.58 58.54 25.69 58.3 25.74 58.06 25.74 57.82 25.8 57.52 25.74 57.28 25.74 57.04 25.69 56.8 25.58 56.56 25.47 56.38 25.36 56.2 25.19 56.2 25.19 55.54 24.92 54.82 24.64 54.11 24.37 53.45 24.15 52.73 23.93 52.01 23.76 51.29 23.65 51.17 23.6 51.17 23.6 50.87 23.54 50.57 23.54 50.27 23.54 49.97 23.54 49.67 23.6 49.31 23.65 49.01 23.76 48.77 23.87 48.47 24.04 48.23 24.15 47.99 24.31 47.75 24.53 47.57 24.75 47.4 24.97 47.22 25.25 47.1 25.52 46.98 25.8 46.86 26.07 46.8 26.35 46.8 26.62 46.8 26.89 46.8 27.17 46.86 27.44 46.92 27.77 47.04 27.99 47.1 28.21 47.1 28.21 47.75 28.6 47.75 28.6 47.87 28.93 48.11 29.15 48.35 29.42 48.53 29.64 48.83 29.86 49.07 30.03 49.37 30.25 49.67 30.36 49.97 30.52 50.33 30.63 50.63 30.68 50.99 30.74 51.35 30.79 51.71 30.79 52.01 30.79 52.37 30.74 52.73 30.68 53.03 30.63 53.33 30.47 53.39 30.47 53.39 30.47 53.69 30.36 54.11 30.14 54.52 29.97 54.94 29.86 55.36 29.75 55.84 29.7 56.26 29.64 56.68 29.59 57.16 29.59 57.64 29.59 58.06 29.64 58.06 29.64 59.14 30.9 60.1 31.62 60.1 31.62 60.16 31.95 60.28 32.22 60.4 32.5 60.58 32.77 60.76 32.99 60.94 33.27 61.18 33.43 61.41 33.65 61.65 33.87 61.95 34.04 62.19 34.15 62.49 34.31 62.85 34.37 63.15 34.48 63.39 34.48 63.45 34.48"/><polygon class="cls-2" points="50.75 25.91 50.75 25.74 50.87 25.58 50.93 25.41 51.05 25.25 51.23 25.14 51.41 25.03 51.59 24.92 51.77 24.86 51.95 24.81 52.13 24.81 52.37 24.81 52.55 24.86 52.73 24.92 52.73 24.92 52.85 24.92 53.27 24.97 53.69 25.03 54.05 25.14 54.46 25.25 54.82 25.41 55.18 25.58 55.54 25.8 55.9 25.96 56.2 26.24 56.5 26.45 56.5 26.45 56.56 26.45 56.74 26.56 56.92 26.62 57.1 26.73 57.22 26.84 57.34 27 57.46 27.11 57.52 27.28 57.58 27.5 57.58 27.5 57.52 27.66 57.52 28.1 57.52 28.6 57.58 28.76 57.58 28.76 57.1 28.82 56.5 28.87 55.84 28.93 55.24 28.93 54.58 28.87 53.99 28.82 53.39 28.76 53.39 28.76 53.21 28.43 53.09 28.16 52.91 27.88 52.67 27.61 52.43 27.33 52.19 27.11 51.89 26.84 51.59 26.67 51.29 26.45 50.99 26.29 50.75 26.18 50.75 25.91"/><path class="cls-1" d="M50.75,26.24l.06.49.12.71.36.66.6.66M51.11,28.76l-.66-.44-.36-.33-.3-.55-.18-.05M49.07,27.39l.3.77.36.49.3.27.48.27M48.59,28.16l.42.49.48.33.3.27M47.57,27.06l.06.71.18.49.48.49.36.16M47.69,28.65l.3.16"/><polygon class="cls-2" points="76.15 25.91 76.09 25.74 75.97 25.58 75.85 25.41 75.73 25.25 75.61 25.14 75.43 25.03 75.25 24.92 75.08 24.86 74.9 24.81 74.72 24.81 74.48 24.81 74.3 24.86 74.12 24.92 74.12 24.92 74 24.92 73.58 24.97 73.16 25.03 72.8 25.14 72.38 25.25 72.02 25.41 71.66 25.58 71.3 25.8 70.94 25.96 70.64 26.24 70.34 26.45 70.34 26.45 70.28 26.45 70.1 26.56 69.92 26.62 69.74 26.73 69.62 26.84 69.5 27 69.38 27.11 69.32 27.28 69.26 27.5 69.26 27.5 69.32 27.66 69.26 28.1 69.32 28.6 69.26 28.76 69.26 28.76 69.74 28.82 70.34 28.87 71 28.93 71.6 28.93 72.2 28.87 72.86 28.82 73.46 28.76 73.46 28.76 73.58 28.43 73.76 28.16 73.94 27.88 74.18 27.61 74.42 27.33 74.66 27.11 74.96 26.84 75.25 26.67 75.49 26.45 75.85 26.29 76.15 26.18 76.15 25.91"/><path class="cls-1" d="M76.15,26.24l-.06.49-.12.71-.36.66-.6.66M75.67,28.76l.66-.44.36-.33.3-.55.18-.05M77.77,27.39l-.3.77-.36.49-.3.27-.48.27M78.25,28.16l-.42.49-.48.33-.3.27M79.27,27.06l-.06.71-.18.49-.48.49-.36.16M79.09,28.65l-.3.16M59.32,29.86l.24.49.3.38.36.33.3.44M60.7,30.36l.06.27.24.38.36.33.12.16M61.53,30.52l.12.27.3.16.18.16.18.16.06.11v.05M62.37,30.52l.36.44.06.22.12.33M63.51,30.52l.12.27v.27l.06.33M64.95,30.08l-.3.6-.12.49-.12.33M65.79,30.47l-.36.38-.3.27-.06.27-.06.05M66.75,30.41l-.42.49-.06.16-.06.22-.12.11"/></g></g></g></g></g></svg>