<?xml version="1.0" encoding="UTF-8"?>
<svg id="Layer_1" xmlns="http://www.w3.org/2000/svg" version="1.1" viewBox="0 0 377.3 369.9">
  <!-- Generator: Adobe Illustrator 29.1.0, SVG Export Plug-In . SVG Version: 2.1.0 Build 142)  -->
  <defs>
    <style>
      .st0 {
        fill: none;
        stroke: #1d71b8;
      }
    </style>
  </defs>
  <path class="st0" d="M274.5,102.8l-.8-.2-.9.2h-.8l-.9.2-.7.2-.8.2-.6.2-.7.4-1.7.7-1.2,1.1-.7.6-.5.6v-3.4c0,0,.3-3.2.3-3.2v-3.2c0,0,.2-3.2.2-3.2v-6.5c.1,0,0-3.2,0-3.2v-3.2c-.1,0-.2-3.3-.2-3.3l-.3-3.3v-3.2c0,0-.3-3.2-.3-3.2v-1.5s-.1-2.1-.1-2.1l-.4-2-.2-2-.4-2.2-.2-2-.4-2-.4-2.1-.2-1.9-.8-4.7M262.3,201.6l-.6-17.5-.4-6.4-.3-10.7v-10.5c0,0,.6-10.3.6-10.3v-3l.4-10.4.7-10.5,1.2-10,.3-.8.2-.5.4-.7.6-.6.4-.4.6-.4.6-.6.6-.3.9-.4,1.1-.6.9-.4,1.1-.3,1.3-.3h.7c0,0,1.2,0,1.2,0M254.6,200.8l.6-4.9.2-4.8v-4.9c0,0,.4-7.9.4-7.9l.2-6.3v-6.4l-.5-8.9-1.2-4.5-.7-2.1-.9-1.7-.8-1.1-1.2-1.2-1.4-1.2-1.9-.9-1.6-.4h-.9M260.5,78.3l-.3-6.3-.8-7.4-1-6.4-1.2-6.8-1-4.5M260.7,82.5v17.7l-.2,6-.9,9.6-.2,5.9-.4,6.3-.7,5.8-1.1,6.6-.9,6.5-1.9-2.7-1-1-.8-1.1-.9-.7-1.1-.7-1.2-.7-1.2-.4-1.1-.2-1.4-.2h-1.1M160.3,76l-1.1.3-.8.4-.6.4-.6.5-.5.5-.6.6-.4.7-.3.8-.4.7v.9c-.1,0-.2.9-.2.9v.7c0,0,0,.8,0,.8v.8c0,0,.2.8.2.8l.2.7.4.9.2.6.4.6.4.5M150.4,43.2l-.3-.4-.2-.3-.4-.4-.5-.4-.4-.3-.6-.3M150.4,43.2l.7,1.8.3.7.2,1,.2.9v1c.1,0,.2,1,.2,1v.9c.1,0,.1.9.1.9l-.3,1.1v.9c-.1,0-.4.9-.4.9l-.2,1-.3.8-.3.9-.3.9-.4.8-.4.9-.7.9M162.8,77.1l-1.5-.7-1.4-.7-.4-.3-1-.6-.8-.7-.9-.9-.5-1-.5-1.2-.2-1-.2-1.2v-1.2l.3-1.1.6-1,.9-1.6,1.1-1.8.8-1.7.7-1.9.6-1.9,1-3.5.5-3,.4-2.5.3-2.2v-3.2l-.2-1.4v-1.4c-.1,0-.6-1.2-.6-1.2l-.4-1.3-.5-1.2-.8-1.1-.9-.9-1-1.1-1.2-.8-1.2-.7-2-.6-1.3-.4h-1.4c0,0-1.4,0-1.4,0l-1.4.2-1.3.4-1.2.5-1.1.7-1.7,1.1h0l-1.2,1.3-1,1.4-1.1,1.4-.6,1.6-.8,1.6-.5,1.7-.4,1.8-.4,2-.3,1.9v1.9c-.1,0,0,1.7,0,1.7v2c.1,0,.6,3.1.6,3.1l.6,2.2.5,2.2.9,2.2.2,1.1.4,1.5.4,1.6.2,1.4v1.5l-.2,1.5-.4,1.5-.4,1.4-.8,1.3-.8,1.4M149.1,60.1l-1,1.9-.8,1.8-.4,2-.3,1.8-.2,2v3.4c.1,0,.3,1.9.3,1.9l.4,1.9.5,1.7.7,1.9.8,1.8.9,1.7,1.3,1.7,1,1,.9.9,1.1.7,1.3.6,1.4.3,1.2.2,1.6-.2M146,85.2l.4-.4.5-.4.3-.4.3-.5.2-.6v-.4c.1,0,.3-.6.3-.6l.2-.5v-.2c0,0,0-.8,0-.8v-.9M146,85.2l-.4-.5-.3-.6-.6-.4-.6-.6-.5-.4-.6-.4-.6-.4-.7-.3-.7-.3-.6-.3h-.9c0-.1-.7-.4-.7-.4h-.8c0-.1-.7-.2-.7-.2h-.8c0,0-.6,0-.6,0h-1.5c0,0-.6.2-.6.2h-.8c0,.1-.8.4-.8.4l-.5.2-1.1.5M135.3,116.7l-.9.3-1.4.3-1.5.2h-1.6l-1.5-.2h-.8c0-.1-.8-.4-.8-.4l-.8-.3-.7-.4-.2-.6-.2-.6-.2-.7v-.7c0,0,.4-.7.4-.7l.4-.5.6-.4h.7c0,0,1.2,0,1.2,0l1.6.6,1.5.8,1.4.9,1.4,1.2,1.1,1.1.9.6.7.6,1.2.7,1.7.4h1.2c0,0,1.1-.4,1.1-.4l1.1-.4,1.1-.6,1.2-.9,1-1,.7-1.1.7-1.3.7-2,.8-2.4.2-2.7.2-2.6v-5.1c-.1,0-.5-3.1-.5-3.1l-.6-2.9-.8-2.9-1-2.7-.8-1.6M141.3,139.8l1.5-.6,2.6-.9,2.7-.6,2.6-.7,2.7-.6h1.2l1.2-.4,1.1-.3,1.1-.4,1-.6.9-.6.9-.9.7-.9.6-1,.4-1.1.4-.8.4-1.7.3-1.6v-1.7c0,0,0-1.5,0-1.5v-1.7c0,0-.2-1.3-.2-1.3l-.2-1.2-.2-1.3-.4-1.2-.5-1.1-.7-1.1-.9-1.1-.7-1-1.1-.9-.9-.6-1.2-.6-.9-.4-1.1-.2-1.1-.2h-1.1l-1,.2-.9.3-.9.4-1.2.8M206.1,130.9v102c0,0-.2.9-.2.9l-.2,1.1-.2.7-.2.7-.2.6-.4.7-.4.5-.4.6-.6.4v91.6c-.1,0-.4,1.7-.4,1.7l-.6,1.3-.9,1.3-1.1,1.3-.8.8-1.1.8-1.5.7-1.2.7-1.2.6-1.2.2h-2.5c0,0-1.2,0-1.2,0h-.8c0-.1-1.2-.4-1.2-.4l-1.3-.5-.9-.5-1.4-.9-1.1-.8-.7-.6-.7-.8-.7-1-.5-.7-.6-.9-.6-.9-.4-.9-.7-1.5-.3-1.5-.2-2-.2-1.9v-105c-.1,0-.4-.7-.4-.7l-.3-.3-.5-.4-.4-.5-.5-.4-.4-.6-.6-1.2-.4-1.1-.3-1.7v-4.6c0,0,0-56.9,0-56.9l-.3-3.4-.2-1.3-.2-1.2-.2-1.1-.3-.7-.5-.6-.4-.5-.7-.4-.4-.4-.8-.3h-1.2c0-.1-.9,0-.9,0l-.7.4-.6.4-.4.4-.6.4-.8.7-1.4.9-2.3,1.4-4,1.6-3.9,1.1-3.4.6-2.4.4-2.9.4h-4.6l-1.9-.4-2.1-.7-1.2-.8-1.1-1.1-.9-1-.5-1.4-.5-1.3v-1.4c0,0,0-1.5,0-1.5l.3-1.3.6-1.5.9-1.6,1.1-1.2,1.2-1.1,1.4-.9,1.5-.6,1.7-.4,3.5-.8,3.5-1.1,3.7-1.5,1.3-1.2.4-.9v-1.8c-.1,0-.5-.9-.5-.9l-.6-.7-.7-.4-1-.4h-.9l-.9.4-1.4.5-3.1,1.3-3.3,1.1-1.1.4-2.3.8-2.2.4-2.2.3h-2.4c0,0-2.2-.3-2.2-.3l-2.2-.5-1.8-.8-1.5-1.1-1.6-1.1-1.2-1.6-1.2-1.7-.7-1.8-.6-1.9-.2-1.8v-4.1l.4-1.7.6-1.8.9-1.7,1.1-1.4.4-.6.8-.8.9-.8,1.2-.6,1.1-.4,1.1-.3h1.3c0-.1,2.3,0,2.3,0l1.4.5,1.6.6,1.9,1.7.8.8,1.5,1.6.7.5.9.4,1.1-.3.6-.4.7-.6.9-1.2.4-.7.2-.8.3-1.8v-1.4l-.3-2.9-.3-1.9-.7-1.6-.5-.8-.6-.5-.4-.2-.9-.5h-1.1c0-.1-.7-.1-.7-.1l-1.1.4-.9.4-.8.6-1.2.7-1.2.7-1.3.4h-1.3c0,.1-1.4.3-1.4.3h-1.4c0-.1-1.3-.2-1.3-.2l-1.3-.3-1.3-.9-1.6-1-1.4-1.1-1.4-1.3-1.2-1.3-1.1-1.4-.9-1.5-.9-1.6-.8-1.7-.6-1.7v-.6l-.4-2v-2.2c-.1,0-.2-2.1-.2-2.1v-2.1c.1,0,.3-2.2.3-2.2l.4-2,.6-2,1.4-3.7.7-1.6,1.1-1.6,1.1-1.6,1.2-1.2,1.2-1.2,1.5-1.4,1.2-.7,1.3-.7,1.1-.6,1.4-.4h1.5c0-.1,1.5-.1,1.5-.1h3c0,.1,1.5.6,1.5.6l1.3.6,1,.9,1,.9.9.9M236.5,103.8l1.6-.4,1.7-.4,1.7-.8,1.4-1,1.3-1.2.9-.9,1.9-2.3,1.6-2.5,1.4-2.7,1.3-2.7,1-2.8v-.9c0,0,.6-1.2.6-1.2l.6-1,.8-.8,1-.6,1.1-.4,1.1-.3,1.4.2.9.4.7.4.4.6M223,91.6l-.2-1,.2-1.1.3-1.1.6-1.1.7-.9.9-.7,1.1-.5,1.2-.2h2.3c0,.1,1.2.6,1.2.6l1.2.7,1,1.1.9,1.2,1.1,2.2h0l1.4,2,.9.7,1.1.6,1.2.2h1.2l1.2-.3,1-.6,1.6-1.7.5-1.1.2-.6.9-2.2.9-2.1,1.3-2.2,1.4-1.7,1.9-1.7,1.7-1.3,1.1-.7.9-.3,1.2-.2h1.2c0,0,1.2.4,1.2.4l1,.4M221.5,127.8l.4,1.4.8,1.1.5.7.8.6,1.2.8,1.6.6,1.8.5h3.6c0-.1,1.1-.5,1.1-.5l1.1-.2,1.1-.5.9-.6,1-.6.7-.7.9-.8.6-.9,1-1.8.7-1.4.6-1.2.5-1.6.2-1.2.2-1.2v-1.4c.1,0,.1-1.3.1-1.3l-.4-3.4v-1.3c-.1,0-.5-1.2-.5-1.2l-.4-1.2-.4-1.1-.6-1.1-.7-1.1-.6-.9-.8-.9-1.1-.9-.8-.7h-.4c0,0-.9-.6-.9-.6l-1-.7-1.1-.5-.8-.8-.7-.9-.7-1.1-.3-.9-.5-1.1-.2-1.2-.2-1.1v-1.1M226.3,109l1.5,1.2,1.2,1.1.9.8.8.9.8.9.5,1.1.5,1.2.4,1.1.2,1.2.2,1.4v.6l-.4,1.2-.2.5-.4.6-.5.4h-.6c0,.1-.6.3-.6.3h-.8c0,0-.9-.3-.9-.3l-.5-.6-.8-1.2-.7-1.5-.4-1.4-.4-1.5-.2-1.5-.2-1.6v-1.6l.2-1.5.3-4v-2.5c-.1,0-.5-2.4-.5-2.4l-.5-2.6-.5-2.3-.8-2.4-.9-2.3-.6-1.7-.9-1.5-.7-1.6-1.4-2-1.7-1.8-1.5-1.2-1-.9-1.1-.5-1.2-.7-1.1-.5-1.1-.4M206.8,110.2l.7,1,1.3,1.4,1.1,1.5.9,1.6.9,1.7.7,1.7.5,1.7.2,1.3v.9c0,0-.3.4-.3.4l-.4.4h-.4c0,.1-.5.1-.5.1h-.5c0-.1-.4-.5-.4-.5l-.5-.8-.7-1.2-.9-1.6-1.2-1.7-1.1-1.4-.8-.6-.9-.4-.8-.2h-.9c0,0-.8,0-.8,0l-1,.2-.8.2-.8.4-.7.7-.6.6-.5.7-.5.8-.3,1.1-.4,1.9-.3,1.9v2.5c-.1,0-.1,2.1-.1,2.1v101c.1,0,.1.7.1.7v2c0,0,.1.8.1.8l.2.7.2.9.2.8.3.8.2.5.3.6.3.4.2.4.6.4.6.5.9.4v91.8c-.1,0-.5,1.2-.5,1.2l-.6,1.1-.6.8-1,1-1.6.9-1.4.6-1,.4h-3.8l-.9-.2-1.4-.4-1-.8-.9-.7-.9-.8-.9-.9-.7-.9-.6-.7-.5-.7-.4-1-.5-1.7v-1.4c-.1,0-.1-106.4-.1-106.4v-.7c0,0,.2-.7.2-.7l.2-.5.2-.4.2-.4v-.4c.1,0,.9-.7.9-.7l.4-.6.2-.6.2-.8.2-.9v-66.1l-.4-4.8-.6-3-.4-1.4-.4-1.1-.4-1-.5-.8-.6-.9-.9-1-.6-.8-.5-.6-.8-.7-.8-.6-.8-.4-.9-.7-1.4-.4-1.6-.5-1.4-.2h-1.6c0-.1-.6,0-.6,0h-1.1c0,0-.8,0-.8,0h-.9s-1,.3-1,.3l-.5.2-1.5.5M206.1,130.9l-.2-.7-.2-.6-.2-.6-.3-.6-.4-.6-.4-.5-.4-.4-.4-.4-.4-.5-.5-.4-.6-.3-.7-.2h-.7M221.5,127.8v.8c-.1,0-.3.5-.3.5l-.2.7-.2.6-.3.6-.4.7-.2.4-.5.6-.4.3-.6.6-.4.4-.7.3-.6.4-1.2.6h-1s-.7.2-.7.2h-.7c0,.1-.8.1-.8.1h-1.3l-.7-.2h-.4l-.6-.2-.4-.3-.9-.6-.4-.5-.4-.4-.4-.5-.4-.5-.2-.6-.2-1M227.8,73.9h-1.9c0,.1-2.2.5-2.2.5l-2.2.5-2,.7-2,1-1.4.7-1.6,1.3-1.7,1.4M223.1,70.2l-3,.5-2.8.9-2.7.9-2.5,1.4-2.4,1.4-2.5,1.9M206.1,113.9l.5-1.6.2-2.1-.2-1.9-.4-3-.7-2.7-.6-1.4-.7-1.6-1.1-1.7-1.2-1.8-1.4-1.9-1.7-1.6-1.8-1.2M203.8,111.5l-.4-2.4-1.2-4.7-.9-2.1-.7-1.8-.9-1.7-1-1.6-1.2-1.3-1.5-1.4-1.4-1.4M221.6,128l.2-2.5v-2.4c0,0-.4-2.5-.4-2.5l-.4-2.4-.4-1.1-.4-1.2-1.4-3.1-1.2-2.2-3.8-6.3-1.8-3-1.3-2.7-.7-1.4v-2.1c-.1,0,.2-1.3.2-1.3l.7-1.5,1-1.3M210.1,125h.5c0,0,.3,0,.3,0l.4-.2h.4l.4-.4.5-.5.2-.3.2-.2v-.4M207.7,82.1l-1.8.6-1.5,1.2-1,1.1-.6,1.1-.5,1.2-.9,2-.5,1.9-.2,1.2-.2,1.9M199.4,80.2l.3-2.1v-1.3c0,0,0-1.4,0-1.4v-1.3l-.3-2.5-.2-1.1-.2-1.2-.3-1.3-.4-1.2-.6-1.2-.6-1.1-.7-1-.8-1.1-.7-.9-.6-.6-1.1-.9-1.2-.7-1.1-.7-1.3-.6-1.1-.5-1.3-.4-1.3-.3-1.2-.2-1.4-.2h-3.7c0,.1-1.4.4-1.4.4l-1.4.4-1.3.5-1.5.5-1.3.8-1.4.7-1.2.9-1.9,1.4-1.4,1.4-1.7,2.1-.9,1.2-.9,1.5-.7,1.5-.7,1.5-.6,1.8-.5,1.2-.5,1.9M156.9,89.1l1.5,8.2,1,5,.6,1.9.6,1.8,1,1.9.9,1.7,1.1,1.9,1.1,1.6,1.2,1.5,1.3,1.2,1.2.9,1.2.8,1.2.6,1.5.7,1.3.4,1.5.4,1.4.2h1.5c0,.1,1.5.1,1.5.1h3c0-.1,1.6-.5,1.6-.5l1.6-.4,1.6-.6,1.9-.7,1.7-.9,1.2-.7,1.1-1.1.9-.9.7-.9.5-.9.4-1,.4-1.1.4-1.9.3-1.1v-1.3c.1,0,.1-1.2.1-1.2v-1.2c0,0-.1-1.3-.1-1.3l-.3-1-.5-1-.7-.7-.8-.7-1.1-.6h-1.5c0-.1-1.1,0-1.1,0l-.9.5-1.1.6M211.8,91.1l.4-.8v-1.2c0,0,0-1.1,0-1.1v-1.1c-.1,0-.4-.9-.4-.9l-.4-.8v-.8c-.1,0-.5-.4-.5-.4l-.4-.6-.7-.7-.9-.5-1.1-.2-.6-1.4-.6-.7-1.2-.6-1.1-.4h-.7c0,0-1.2,0-1.2,0l-1.3.4-.8.4-.4.2-.5.4-.3.3-.5.4-.5.5-.5.2-.4.3-.6.2h-.3c0,0-.8.2-.8.2h-1.5c0-.1-.8-.4-.8-.4l-.5-.3-.7-.4-.4-.5-.5-.4-.6-.4-.6-.6-.6-.9-.6-.8-.7-.9-.5-.9-.8-.9-.5-.5-.7-.5-.7-.2h-.9c0-.1-.4-.1-.4-.1h-.7c0,0-.8.2-.8.2l-.9.5-.6.4-.5.6-.4.4-.2.4-.3.7-.6-.2-.8-.2h-1.2c0,0-.6.2-.6.2l-.3.2-.4.2-.7.6-.7,1-.3,1.3v.9c0,0,0,.2,0,.2v.3c0,0,0,.4,0,.4l.2.4v.3c0,0,.2.2.2.2v.2c.1,0,.4.6.4.6l-.5.4-.2.2-.2.3-.3.2-.2.3-.2.2-.2.4v.2c0,0-.3.6-.3.6l-.2.4v.7c0,0-.2.4-.2.4v1.3l.2,1.1.2.7.2.6.2.5.3.4.5.6.3.4.3.4.5.3v.4c-.1,0-.3.4-.3.4v.8c0,0,0,.4,0,.4v1.3c0,0,0,.1,0,.1v.8c.1,0,.3.4.3.4v.3c.1,0,.2.2.2.2l.3.4.3.4.2.2.6.6,1.1.5.7.3h.9l.2.5.7.6.2.2.5.2.7.2.5.2h.9c0,.1.7.1.7.1h1.6c0-.1.5-.4.5-.4l1.1-.5.7-.5.6-.5.5-.8,1.1-1.5.4-.8,1-1.4.9-1.2.9-.9.9-1,1.1-.9,1.2-1,1.2-.7.9-.7,1.1-.7,1.5-.6,1.1-.4M162.9,77.2l.4-1.7,1.4-3.7,1.4-3.3.9-1.6.8-1,.7-.9.8-.9.9-.6,1-.7,2.5-1.6,1.1-.4,1.6-.7,1.1-.3,1.2-.4,1.3-.4,1.1-.2h3.7l1.1.2,1,.3,1.1.4,1,.5,1,.5.9.6,1.7,1.4.9.7.6.7.6,1,.8.9.4,1,.5,1,.3,1.1.3,1,.2,1,.3,1.7v1.4c0,0,.1,1.5.1,1.5v1.6c0,0,0,1.1,0,1.1v1c0,0-.4.5-.4.5v.2c-.1,0-.5.2-.5.2l-.8.2h-1.2c0-.1-.6-.4-.6-.4l-.8-.6-.9-.9-1.3-1.3-1.2-1.3-.6-.8-.4-.8-.6-.7-.4-.7-.5-.6-.7-.4-.8-.2-.7-.2-1.6-.2-.9.2-.9.2-.7.3-.8.7-.7.6-.6.6-.3.7-.7-.4h-.7c0,0-.8,0-.8,0h-.7c0,0-.8.4-.8.4l-.5.4-.7.4-.6.6-.6.8-.3.6-.4.8-.2,1v.9c0,0,0,.8,0,.8v.8c.1,0,.4.7.4.7l.3.6-.7.6-.6.7-.5.8-.2.8-.2.8v.8c-.1,0-.1.4-.1.4v1c0,0,.1,1,.1,1v.9c.1,0,.5.9.5.9l.5,1,.6.9.9.9-.2,1.1v1.2l.2.9.2,1.1.2.8.4.8.4.7.7.8.6.5.9.4,1,.3h.9c0,.1.7.8.7.8l.8.6,1,.4,1,.3,1.1.2h1.1c0,0,1.4-.2,1.4-.2h.9c0-.1.8-.4.8-.4l.7-.5.8-.6.7-.8.8-1.2.3-.3.2-.3.6-.2h.4c0-.1.8-.1.8-.1l1.1.3.6.2.4.4.4.4.2.5.2.5v.6c.1,0,.1.6.1.6l-.3,1.8-.3,1.2-.3,1.3-.5,1.5-.6,1.1-.9,1.2-.9,1-1.1.9-1.1.6-1.1.7-1.3.6-1.3.4-2.5.6-2.3.3h-1.2l-1.3-.2-2.7-.4h0l-.9-.2-1.3-.4-2.2-1.1-1.2-.6-1-.8-1.3-1.4-1-1.4-1-1.5-.8-1.6-.8-1.5-.6-1.7-1.7-5.6-.6-2.4-.6-2.4-.3-2.9-.4-2.5M181.1,99.6v.4c.1,0,.3.4.3.4l.2.2.5.4.3.2h1.1c0-.1.6-.5.6-.5l.6-.5.6-.8.4-.7.2-.9.2-1.1.2-1.4v-1.8M188.1,82.6h-2.2c0,0-.9-.3-.9-.3l-.7-.4-.8-.3-.7-.5-.6-.5-.4-.7-.5-.7v-.5c-.1,0-.5-.6-.5-.6l-.2-.4-.3-.4-.6-.4-.4-.2M188.2,82.6l-.8-.4-.5-.2-.5-.4-.4-.5-.3-.7-.2-.6v-.6c-.1,0-.4-.9-.4-.9v-.7c0,0-.1-.6-.1-.6l-.2-.6v-.2c-.1,0-.4-.2-.4-.2l-.3-.3-.4-.2-.4-.2h-.9c0,0-.5.3-.5.3l-.3.4-.2.4-.2.4v.5c-.1,0-.1.6-.1.6M186.1,86.2h-1.8c0,0-1.1-.2-1.1-.2l-1.2-.2-1.1-.4-1-.4-1-.6-.9-.4-.8-.4-.8-.3h-.8c0,0-.7,0-.7,0l-.6.2M176.7,83.2l-.6-.3-.4-.2-.3-.4-.3-.5v-.4c0,0,0-.5,0-.5v-.9c.1,0,.4-.4.4-.4l.2-.4.4-.4.5-.3h2l.4.4.4.3.5.5.4.6.3.6.3.8.6,1.1.9,1.1.9.9.7.5.7.4,1,.4h.4M186,89.8h-.7c0,.1-1,.4-1,.4l-.9.4-.9.5-.9.6-.8.5-.5.4-1.1.5-.8.4-1.2.3-.9.2h-1.9M187.4,92.9l-1.1.4-.6.3-.7.4-.6.6-.7.6-.6.8-.4.8-.4.9-.4.7-.5.8-.2.4-.4.5-.4.4-.9.4-.7.4M211.8,91.1l.5-.2h.5c0-.1.4-.4.4-.4l.4-.2.4-.4.2-.5v-.5c.1,0,.1-.4.1-.4v-1.1c-.1,0-.3-.9-.3-.9l-.4-1.1-.4-1-.5-.9-.6-.7-.6-.8-.7-.9-.9-.9-.9-.8-1.1-.7-1-.7-1.1-.4h-.5c0,0-.6,0-.6,0l-.7.2-.5.2-.4.4-.4.4-.2.3M214.4,88.9l.2-.3.2-.4.2-.6v-.5c0,0,0-.7,0-.7v-.4c0,0-.5-1.2-.5-1.2l-.6-1.2-.6-1.1-.7-1.1-.5-.7-.9-1-.9-.9-1.1-.8-.9-.7h0l-.6-.2h-.7c0-.1-.5-.3-.5-.3h-.8l-.6.2h-.6c0,.1-.2.2-.2.2M219.2,113.5l.4-2.7.2-2.5v-5.4l-.3-2.5-.4-2.6-.6-2.6-.6-1.2-.6-1.1-1.6-1.5-.9-.7-1-.3M130.7,63.3v1.7c.1,0,0,1.6,0,1.6v1.5c0,0-.4,1.5-.4,1.5l-.4,1.6-.2,1.7-.2,1.3v1.5c0,0,.2,1.5.2,1.5l.4,1.5.4,1.4.4.9-.6.9-.7.6-.8.4-.9.3h-.9c0,.1-.9.3-.9.3l-1-.2-.9-.4-.8-.4-.7-.6-.4-.5-.8-1.3-.4-1.7-.3-1.4-.2-1.7v-1.5c0,0,0-1.6,0-1.6l.3-1.5.3-1.6.8-1.7.8-1.7.8-1.7,1-1.5.5-.6.4-.7.9-.6.6-.2h.7c0-.1.7,0,.7,0l.6.2.6.4.5.6.4.5.2.9M182,88.8l-.8.6-1.2.6-.9.4-.8.3-.9.2h-.9c0,.1-.9.1-.9.1l-.4-.2-.4-.2-.4-.3-.2-.4-.2-.5v-1.6c.1,0,.6-.6.6-.6l.3-.3.4-.2.6-.2h.6c0-.1,1-.1,1-.1h1c0,0,.9.2.9.2l1.1.2.8.4,1.2.3.8.5-.9.8M149.3,59.7l-.9-.7-.5-.5-.4-.8-.5-.5-.4-.7-.3-.6-.3-.6-.4-.8-.2-.9-.2-.7v-2.9c0,0,.1-.8.1-.8l.2-.7.4-.8.3-.7.3-.7.4-.6.5-.7.4-.5.6-.8.7-.4.5-.5.4-.3M139.6,73.9l-.6-.5-.2-.4-.4-.4-.3-.6-.2-.5-.2-.5-.2-.6v-1.1c-.1,0-.1-.6-.1-.6v-1.2c.1,0,.3-.8.3-.8v-.7c0,0,.4-.6.4-.6l.3-.6.2-.7.4-.6.4-.4"/>
</svg>