<?xml version="1.0" encoding="UTF-8"?><svg xmlns="http://www.w3.org/2000/svg" viewBox="0 0 289.66 315.17"><defs><style>.cls-1{stroke:#1d71b8;}.cls-1,.cls-2,.cls-3{fill:none;}.cls-4{fill:#450005;}.cls-2{stroke-width:.39px;}.cls-2,.cls-3{stroke:#450005;stroke-miterlimit:10;}.cls-3{stroke-width:.5px;}</style></defs><g id="Layer_1"><path class="cls-1" d="M243.56,73.2l-.8-.2-.9.2h-.8l-.9.2-.7.2-.8.2-.6.2-.7.4-1.7.7-1.2,1.1-.7.6-.5.6v-3.4l.3-3.2v-3.2l.2-3.2v-6.5c.1,0,0-3.2,0-3.2v-3.2c-.1,0-.2-3.3-.2-3.3l-.3-3.3v-3.2l-.3-3.2v-1.5l-.1-2.1-.4-2-.2-2-.4-2.2-.2-2-.4-2-.4-2.1-.2-1.9-.8-4.7M231.36,172l-.6-17.5-.4-6.4-.3-10.7v-10.5l.6-10.3v-3l.4-10.4.7-10.5,1.2-10,.3-.8.2-.5.4-.7.6-.6.4-.4.6-.4.6-.6.6-.3.9-.4,1.1-.6.9-.4,1.1-.3,1.3-.3h1.9M223.66,171.2l.6-4.9.2-4.8v-4.9l.4-7.9.2-6.3v-6.4l-.5-8.9-1.2-4.5-.7-2.1-.9-1.7-.8-1.1-1.2-1.2-1.4-1.2-1.9-.9-1.6-.4h-.9M229.56,48.7l-.3-6.3-.8-7.4-1-6.4-1.2-6.8-1-4.5M229.76,52.9v17.7l-.2,6-.9,9.6-.2,5.9-.4,6.3-.7,5.8-1.1,6.6-.9,6.5-1.9-2.7-1-1-.8-1.1-.9-.7-1.1-.7-1.2-.7-1.2-.4-1.1-.2-1.4-.2h-1.1M129.36,46.4l-1.1.3-.8.4-.6.4-.6.5-.5.5-.6.6-.4.7-.3.8-.4.7v.9c-.1,0-.2.9-.2.9v2.3l.2.8.2.7.4.9.2.6.4.6.4.5M119.46,13.6l-.3-.4-.2-.3-.4-.4-.5-.4-.4-.3-.6-.3M119.46,13.6l.7,1.8.3.7.2,1,.2.9v1c.1,0,.2,1,.2,1v.9c.1,0,.1.9.1.9l-.3,1.1v.9c-.1,0-.4.9-.4.9l-.2,1-.3.8-.3.9-.3.9-.4.8-.4.9-.7.9M131.86,47.5l-1.5-.7-1.4-.7-.4-.3-1-.6-.8-.7-.9-.9-.5-1-.5-1.2-.2-1-.2-1.2v-1.2l.3-1.1.6-1,.9-1.6,1.1-1.8.8-1.7.7-1.9.6-1.9,1-3.5.5-3,.4-2.5.3-2.2v-3.2l-.2-1.4v-1.4c-.1,0-.6-1.2-.6-1.2l-.4-1.3-.5-1.2-.8-1.1-.9-.9-1-1.1-1.2-.8-1.2-.7-2-.6-1.3-.4h-2.8l-1.4.2-1.3.4-1.2.5-1.1.7-1.7,1.1h0l-1.2,1.3-1,1.4-1.1,1.4-.6,1.6-.8,1.6-.5,1.7-.4,1.8-.4,2-.3,1.9v1.9c-.1,0,0,1.7,0,1.7v2c.1,0,.6,3.1.6,3.1l.6,2.2.5,2.2.9,2.2.2,1.1.4,1.5.4,1.6.2,1.4v1.5l-.2,1.5-.4,1.5-.4,1.4-.8,1.3-.8,1.4M118.16,30.5l-1,1.9-.8,1.8-.4,2-.3,1.8-.2,2v3.4c.1,0,.3,1.9.3,1.9l.4,1.9.5,1.7.7,1.9.8,1.8.9,1.7,1.3,1.7,1,1,.9.9,1.1.7,1.3.6,1.4.3,1.2.2,1.6-.2M115.06,55.6l.4-.4.5-.4.3-.4.3-.5.2-.6v-.4c.1,0,.3-.6.3-.6l.2-.5v-1.9M115.06,55.6l-.4-.5-.3-.6-.6-.4-.6-.6-.5-.4-.6-.4-.6-.4-.7-.3-.7-.3-.6-.3h-.9c0-.1-.7-.4-.7-.4h-.8c0-.1-.7-.2-.7-.2h-2.9l-.6.2h-.8c0,.1-.8.4-.8.4l-.5.2-1.1.5M104.36,87.1l-.9.3-1.4.3-1.5.2h-1.6l-1.5-.2h-.8c0-.1-.8-.4-.8-.4l-.8-.3-.7-.4-.2-.6-.2-.6-.2-.7v-.7l.4-.7.4-.5.6-.4h1.9l1.6.6,1.5.8,1.4.9,1.4,1.2,1.1,1.1.9.6.7.6,1.2.7,1.7.4h1.2l1.1-.4,1.1-.4,1.1-.6,1.2-.9,1-1,.7-1.1.7-1.3.7-2,.8-2.4.2-2.7.2-2.6v-5.1c-.1,0-.5-3.1-.5-3.1l-.6-2.9-.8-2.9-1-2.7-.8-1.6M110.36,110.2l1.5-.6,2.6-.9,2.7-.6,2.6-.7,2.7-.6h1.2l1.2-.4,1.1-.3,1.1-.4,1-.6.9-.6.9-.9.7-.9.6-1,.4-1.1.4-.8.4-1.7.3-1.6v-4.9l-.2-1.3-.2-1.2-.2-1.3-.4-1.2-.5-1.1-.7-1.1-.9-1.1-.7-1-1.1-.9-.9-.6-1.2-.6-.9-.4-1.1-.2-1.1-.2h-1.1l-1,.2-.9.3-.9.4-1.2.8M175.16,101.3v102l-.2.9-.2,1.1-.2.7-.2.7-.2.6-.4.7-.4.5-.4.6-.6.4v91.6c-.1,0-.4,1.7-.4,1.7l-.6,1.3-.9,1.3-1.1,1.3-.8.8-1.1.8-1.5.7-1.2.7-1.2.6-1.2.2h-4.5c0-.1-1.2-.4-1.2-.4l-1.3-.5-.9-.5-1.4-.9-1.1-.8-.7-.6-.7-.8-.7-1-.5-.7-.6-.9-.6-.9-.4-.9-.7-1.5-.3-1.5-.2-2-.2-1.9v-105c-.1,0-.4-.7-.4-.7l-.3-.3-.5-.4-.4-.5-.5-.4-.4-.6-.6-1.2-.4-1.1-.3-1.7v-61.5l-.3-3.4-.2-1.3-.2-1.2-.2-1.1-.3-.7-.5-.6-.4-.5-.7-.4-.4-.4-.8-.3h-1.2c0-.1-.9,0-.9,0l-.7.4-.6.4-.4.4-.6.4-.8.7-1.4.9-2.3,1.4-4,1.6-3.9,1.1-3.4.6-2.4.4-2.9.4h-4.6l-1.9-.4-2.1-.7-1.2-.8-1.1-1.1-.9-1-.5-1.4-.5-1.3v-2.9l.3-1.3.6-1.5.9-1.6,1.1-1.2,1.2-1.1,1.4-.9,1.5-.6,1.7-.4,3.5-.8,3.5-1.1,3.7-1.5,1.3-1.2.4-.9v-1.8c-.1,0-.5-.9-.5-.9l-.6-.7-.7-.4-1-.4h-.9l-.9.4-1.4.5-3.1,1.3-3.3,1.1-1.1.4-2.3.8-2.2.4-2.2.3h-2.4l-2.2-.3-2.2-.5-1.8-.8-1.5-1.1-1.6-1.1-1.2-1.6-1.2-1.7-.7-1.8-.6-1.9-.2-1.8v-4.1l.4-1.7.6-1.8.9-1.7,1.1-1.4.4-.6.8-.8.9-.8,1.2-.6,1.1-.4,1.1-.3h1.3c0-.1,2.3,0,2.3,0l1.4.5,1.6.6,1.9,1.7.8.8,1.5,1.6.7.5.9.4,1.1-.3.6-.4.7-.6.9-1.2.4-.7.2-.8.3-1.8v-1.4l-.3-2.9-.3-1.9-.7-1.6-.5-.8-.6-.5-.4-.2-.9-.5h-1.1c0-.1-.7-.1-.7-.1l-1.1.4-.9.4-.8.6-1.2.7-1.2.7-1.3.4h-1.3c0,.1-1.4.3-1.4.3h-1.4c0-.1-1.3-.2-1.3-.2l-1.3-.3-1.3-.9-1.6-1-1.4-1.1-1.4-1.3-1.2-1.3-1.1-1.4-.9-1.5-.9-1.6-.8-1.7-.6-1.7v-.6l-.4-2v-2.2c-.1,0-.2-2.1-.2-2.1v-2.1c.1,0,.3-2.2.3-2.2l.4-2,.6-2,1.4-3.7.7-1.6,1.1-1.6,1.1-1.6,1.2-1.2,1.2-1.2,1.5-1.4,1.2-.7,1.3-.7,1.1-.6,1.4-.4h1.5c0-.1,1.5-.1,1.5-.1h3c0,.1,1.5.6,1.5.6l1.3.6,1,.9,1,.9.9.9M205.56,74.2l1.6-.4,1.7-.4,1.7-.8,1.4-1,1.3-1.2.9-.9,1.9-2.3,1.6-2.5,1.4-2.7,1.3-2.7,1-2.8v-.9l.6-1.2.6-1,.8-.8,1-.6,1.1-.4,1.1-.3,1.4.2.9.4.7.4.4.6M192.06,62l-.2-1,.2-1.1.3-1.1.6-1.1.7-.9.9-.7,1.1-.5,1.2-.2h2.3c0,.1,1.2.6,1.2.6l1.2.7,1,1.1.9,1.2,1.1,2.2h0l1.4,2,.9.7,1.1.6,1.2.2h1.2l1.2-.3,1-.6,1.6-1.7.5-1.1.2-.6.9-2.2.9-2.1,1.3-2.2,1.4-1.7,1.9-1.7,1.7-1.3,1.1-.7.9-.3,1.2-.2h1.2l1.2.4,1,.4M190.56,98.2l.4,1.4.8,1.1.5.7.8.6,1.2.8,1.6.6,1.8.5h3.6c0-.1,1.1-.5,1.1-.5l1.1-.2,1.1-.5.9-.6,1-.6.7-.7.9-.8.6-.9,1-1.8.7-1.4.6-1.2.5-1.6.2-1.2.2-1.2v-1.4c.1,0,.1-1.3.1-1.3l-.4-3.4v-1.3c-.1,0-.5-1.2-.5-1.2l-.4-1.2-.4-1.1-.6-1.1-.7-1.1-.6-.9-.8-.9-1.1-.9-.8-.7h-.4l-.9-.6-1-.7-1.1-.5-.8-.8-.7-.9-.7-1.1-.3-.9-.5-1.1-.2-1.2-.2-1.1v-1.1M195.36,79.4l1.5,1.2,1.2,1.1.9.8.8.9.8.9.5,1.1.5,1.2.4,1.1.2,1.2.2,1.4v.6l-.4,1.2-.2.5-.4.6-.5.4h-.6c0,.1-.6.3-.6.3h-.8l-.9-.3-.5-.6-.8-1.2-.7-1.5-.4-1.4-.4-1.5-.2-1.5-.2-1.6v-1.6l.2-1.5.3-4v-2.5c-.1,0-.5-2.4-.5-2.4l-.5-2.6-.5-2.3-.8-2.4-.9-2.3-.6-1.7-.9-1.5-.7-1.6-1.4-2-1.7-1.8-1.5-1.2-1-.9-1.1-.5-1.2-.7-1.1-.5-1.1-.4M175.86,80.6l.7,1,1.3,1.4,1.1,1.5.9,1.6.9,1.7.7,1.7.5,1.7.2,1.3v.9l-.3.4-.4.4h-.4c0,.1-.5.1-.5.1h-.5c0-.1-.4-.5-.4-.5l-.5-.8-.7-1.2-.9-1.6-1.2-1.7-1.1-1.4-.8-.6-.9-.4-.8-.2h-1.7l-1,.2-.8.2-.8.4-.7.7-.6.6-.5.7-.5.8-.3,1.1-.4,1.9-.3,1.9v2.5c-.1,0-.1,2.1-.1,2.1v101c.1,0,.1.7.1.7v2l.1.8.2.7.2.9.2.8.3.8.2.5.3.6.3.4.2.4.6.4.6.5.9.4v91.8c-.1,0-.5,1.2-.5,1.2l-.6,1.1-.6.8-1,1-1.6.9-1.4.6-1,.4h-3.8l-.9-.2-1.4-.4-1-.8-.9-.7-.9-.8-.9-.9-.7-.9-.6-.7-.5-.7-.4-1-.5-1.7v-1.4c-.1,0-.1-106.4-.1-106.4v-.7l.2-.7.2-.5.2-.4.2-.4v-.4c.1,0,.9-.7.9-.7l.4-.6.2-.6.2-.8.2-.9v-66.1l-.4-4.8-.6-3-.4-1.4-.4-1.1-.4-1-.5-.8-.6-.9-.9-1-.6-.8-.5-.6-.8-.7-.8-.6-.8-.4-.9-.7-1.4-.4-1.6-.5-1.4-.2h-1.6c0-.1-.6,0-.6,0h-2.8l-1,.3-.5.2-1.5.5M175.16,101.3l-.2-.7-.2-.6-.2-.6-.3-.6-.4-.6-.4-.5-.4-.4-.4-.4-.4-.5-.5-.4-.6-.3-.7-.2h-.7M190.56,98.2v.8c-.1,0-.3.5-.3.5l-.2.7-.2.6-.3.6-.4.7-.2.4-.5.6-.4.3-.6.6-.4.4-.7.3-.6.4-1.2.6h-1l-.7.2h-.7c0,.1-.8.1-.8.1h-1.3l-.7-.2h-.4l-.6-.2-.4-.3-.9-.6-.4-.5-.4-.4-.4-.5-.4-.5-.2-.6-.2-1M196.86,44.3h-1.9c0,.1-2.2.5-2.2.5l-2.2.5-2,.7-2,1-1.4.7-1.6,1.3-1.7,1.4M192.16,40.6l-3,.5-2.8.9-2.7.9-2.5,1.4-2.4,1.4-2.5,1.9M175.16,84.3l.5-1.6.2-2.1-.2-1.9-.4-3-.7-2.7-.6-1.4-.7-1.6-1.1-1.7-1.2-1.8-1.4-1.9-1.7-1.6-1.8-1.2M172.86,81.9l-.4-2.4-1.2-4.7-.9-2.1-.7-1.8-.9-1.7-1-1.6-1.2-1.3-1.5-1.4-1.4-1.4M190.66,98.4l.2-2.5v-2.4l-.4-2.5-.4-2.4-.4-1.1-.4-1.2-1.4-3.1-1.2-2.2-3.8-6.3-1.8-3-1.3-2.7-.7-1.4v-2.1c-.1,0,.2-1.3.2-1.3l.7-1.5,1-1.3M179.16,95.4h.8l.4-.2h.4l.4-.4.5-.5.2-.3.2-.2v-.4M176.76,52.5l-1.8.6-1.5,1.2-1,1.1-.6,1.1-.5,1.2-.9,2-.5,1.9-.2,1.2-.2,1.9M168.46,50.6l.3-2.1v-4l-.3-2.5-.2-1.1-.2-1.2-.3-1.3-.4-1.2-.6-1.2-.6-1.1-.7-1-.8-1.1-.7-.9-.6-.6-1.1-.9-1.2-.7-1.1-.7-1.3-.6-1.1-.5-1.3-.4-1.3-.3-1.2-.2-1.4-.2h-3.7c0,.1-1.4.4-1.4.4l-1.4.4-1.3.5-1.5.5-1.3.8-1.4.7-1.2.9-1.9,1.4-1.4,1.4-1.7,2.1-.9,1.2-.9,1.5-.7,1.5-.7,1.5-.6,1.8-.5,1.2-.5,1.9M125.96,59.5l1.5,8.2,1,5,.6,1.9.6,1.8,1,1.9.9,1.7,1.1,1.9,1.1,1.6,1.2,1.5,1.3,1.2,1.2.9,1.2.8,1.2.6,1.5.7,1.3.4,1.5.4,1.4.2h1.5c0,.1,1.5.1,1.5.1h3c0-.1,1.6-.5,1.6-.5l1.6-.4,1.6-.6,1.9-.7,1.7-.9,1.2-.7,1.1-1.1.9-.9.7-.9.5-.9.4-1,.4-1.1.4-1.9.3-1.1v-1.3c.1,0,.1-1.2.1-1.2v-1.2l-.1-1.3-.3-1-.5-1-.7-.7-.8-.7-1.1-.6h-1.5c0-.1-1.1,0-1.1,0l-.9.5-1.1.6M180.86,61.5l.4-.8v-3.4c-.1,0-.4-.9-.4-.9l-.4-.8v-.8c-.1,0-.5-.4-.5-.4l-.4-.6-.7-.7-.9-.5-1.1-.2-.6-1.4-.6-.7-1.2-.6-1.1-.4h-1.9l-1.3.4-.8.4-.4.2-.5.4-.3.3-.5.4-.5.5-.5.2-.4.3-.6.2h-.3l-.8.2h-1.5c0-.1-.8-.4-.8-.4l-.5-.3-.7-.4-.4-.5-.5-.4-.6-.4-.6-.6-.6-.9-.6-.8-.7-.9-.5-.9-.8-.9-.5-.5-.7-.5-.7-.2h-.9c0-.1-.4-.1-.4-.1h-.7l-.8.2-.9.5-.6.4-.5.6-.4.4-.2.4-.3.7-.6-.2-.8-.2h-1.2l-.6.2-.3.2-.4.2-.7.6-.7,1-.3,1.3v1.8l.2.4v.3l.2.2v.2c.1,0,.4.6.4.6l-.5.4-.2.2-.2.3-.3.2-.2.3-.2.2-.2.4v.2l-.3.6-.2.4v.7l-.2.4v1.3l.2,1.1.2.7.2.6.2.5.3.4.5.6.3.4.3.4.5.3v.4c-.1,0-.3.4-.3.4v3.4c.1,0,.3.4.3.4v.3c.1,0,.2.2.2.2l.3.4.3.4.2.2.6.6,1.1.5.7.3h.9l.2.5.7.6.2.2.5.2.7.2.5.2h.9c0,.1.7.1.7.1h1.6c0-.1.5-.4.5-.4l1.1-.5.7-.5.6-.5.5-.8,1.1-1.5.4-.8,1-1.4.9-1.2.9-.9.9-1,1.1-.9,1.2-1,1.2-.7.9-.7,1.1-.7,1.5-.6,1.1-.4M131.96,47.6l.4-1.7,1.4-3.7,1.4-3.3.9-1.6.8-1,.7-.9.8-.9.9-.6,1-.7,2.5-1.6,1.1-.4,1.6-.7,1.1-.3,1.2-.4,1.3-.4,1.1-.2h3.7l1.1.2,1,.3,1.1.4,1,.5,1,.5.9.6,1.7,1.4.9.7.6.7.6,1,.8.9.4,1,.5,1,.3,1.1.3,1,.2,1,.3,1.7v1.4l.1,1.5v3.7l-.4.5v.2c-.1,0-.5.2-.5.2l-.8.2h-1.2c0-.1-.6-.4-.6-.4l-.8-.6-.9-.9-1.3-1.3-1.2-1.3-.6-.8-.4-.8-.6-.7-.4-.7-.5-.6-.7-.4-.8-.2-.7-.2-1.6-.2-.9.2-.9.2-.7.3-.8.7-.7.6-.6.6-.3.7-.7-.4h-2.2l-.8.4-.5.4-.7.4-.6.6-.6.8-.3.6-.4.8-.2,1v2.5c.1,0,.4.7.4.7l.3.6-.7.6-.6.7-.5.8-.2.8-.2.8v.8c-.1,0-.1.4-.1.4v1l.1,1v.9c.1,0,.5.9.5.9l.5,1,.6.9.9.9-.2,1.1v1.2l.2.9.2,1.1.2.8.4.8.4.7.7.8.6.5.9.4,1,.3h.9c0,.1.7.8.7.8l.8.6,1,.4,1,.3,1.1.2h1.1l1.4-.2h.9c0-.1.8-.4.8-.4l.7-.5.8-.6.7-.8.8-1.2.3-.3.2-.3.6-.2h.4c0-.1.8-.1.8-.1l1.1.3.6.2.4.4.4.4.2.5.2.5v.6c.1,0,.1.6.1.6l-.3,1.8-.3,1.2-.3,1.3-.5,1.5-.6,1.1-.9,1.2-.9,1-1.1.9-1.1.6-1.1.7-1.3.6-1.3.4-2.5.6-2.3.3h-1.2l-1.3-.2-2.7-.4h0l-.9-.2-1.3-.4-2.2-1.1-1.2-.6-1-.8-1.3-1.4-1-1.4-1-1.5-.8-1.6-.8-1.5-.6-1.7-1.7-5.6-.6-2.4-.6-2.4-.3-2.9-.4-2.5M150.16,70v.4c.1,0,.3.4.3.4l.2.2.5.4.3.2h1.1c0-.1.6-.5.6-.5l.6-.5.6-.8.4-.7.2-.9.2-1.1.2-1.4v-1.8M157.16,53h-2.2l-.9-.3-.7-.4-.8-.3-.7-.5-.6-.5-.4-.7-.5-.7v-.5c-.1,0-.5-.6-.5-.6l-.2-.4-.3-.4-.6-.4-.4-.2M157.26,53l-.8-.4-.5-.2-.5-.4-.4-.5-.3-.7-.2-.6v-.6c-.1,0-.4-.9-.4-.9v-.7l-.1-.6-.2-.6v-.2c-.1,0-.4-.2-.4-.2l-.3-.3-.4-.2-.4-.2h-.9l-.5.3-.3.4-.2.4-.2.4v.5c-.1,0-.1.6-.1.6M155.16,56.6h-1.8l-1.1-.2-1.2-.2-1.1-.4-1-.4-1-.6-.9-.4-.8-.4-.8-.3h-1.5l-.6.2M145.76,53.6l-.6-.3-.4-.2-.3-.4-.3-.5v-1.8c.1,0,.4-.4.4-.4l.2-.4.4-.4.5-.3h2l.4.4.4.3.5.5.4.6.3.6.3.8.6,1.1.9,1.1.9.9.7.5.7.4,1,.4h.4M155.06,60.2h-.7c0,.1-1,.4-1,.4l-.9.4-.9.5-.9.6-.8.5-.5.4-1.1.5-.8.4-1.2.3-.9.2h-1.9M156.46,63.3l-1.1.4-.6.3-.7.4-.6.6-.7.6-.6.8-.4.8-.4.9-.4.7-.5.8-.2.4-.4.5-.4.4-.9.4-.7.4M180.86,61.5l.5-.2h.5c0-.1.4-.4.4-.4l.4-.2.4-.4.2-.5v-.5c.1,0,.1-.4.1-.4v-1.1c-.1,0-.3-.9-.3-.9l-.4-1.1-.4-1-.5-.9-.6-.7-.6-.8-.7-.9-.9-.9-.9-.8-1.1-.7-1-.7-1.1-.4h-1.1l-.7.2-.5.2-.4.4-.4.4-.2.3M183.46,59.3l.2-.3.2-.4.2-.6v-1.6l-.5-1.2-.6-1.2-.6-1.1-.7-1.1-.5-.7-.9-1-.9-.9-1.1-.8-.9-.7h0l-.6-.2h-.7c0-.1-.5-.3-.5-.3h-.8l-.6.2h-.6c0,.1-.2.2-.2.2M188.26,83.9l.4-2.7.2-2.5v-5.4l-.3-2.5-.4-2.6-.6-2.6-.6-1.2-.6-1.1-1.6-1.5-.9-.7-1-.3M99.76,33.7v1.7c.1,0,0,1.6,0,1.6v1.5l-.4,1.5-.4,1.6-.2,1.7-.2,1.3v1.5l.2,1.5.4,1.5.4,1.4.4.9-.6.9-.7.6-.8.4-.9.3h-.9c0,.1-.9.3-.9.3l-1-.2-.9-.4-.8-.4-.7-.6-.4-.5-.8-1.3-.4-1.7-.3-1.4-.2-1.7v-3.1l.3-1.5.3-1.6.8-1.7.8-1.7.8-1.7,1-1.5.5-.6.4-.7.9-.6.6-.2h.7c0-.1.7,0,.7,0l.6.2.6.4.5.6.4.5.2.9M151.06,59.2l-.8.6-1.2.6-.9.4-.8.3-.9.2h-.9c0,.1-.9.1-.9.1l-.4-.2-.4-.2-.4-.3-.2-.4-.2-.5v-1.6c.1,0,.6-.6.6-.6l.3-.3.4-.2.6-.2h.6c0-.1,1-.1,1-.1h1l.9.2,1.1.2.8.4,1.2.3.8.5-.9.8M118.36,30.1l-.9-.7-.5-.5-.4-.8-.5-.5-.4-.7-.3-.6-.3-.6-.4-.8-.2-.9-.2-.7v-2.9l.1-.8.2-.7.4-.8.3-.7.3-.7.4-.6.5-.7.4-.5.6-.8.7-.4.5-.5.4-.3M108.66,44.3l-.6-.5-.2-.4-.4-.4-.3-.6-.2-.5-.2-.5-.2-.6v-1.1c-.1,0-.1-.6-.1-.6v-1.2c.1,0,.3-.8.3-.8v-.7l.4-.6.3-.6.2-.7.4-.6.4-.4"/></g><g id="Layer_2"><path class="cls-4" d="M2.72,168.68l-1.19,3.6H0l3.89-11.46h1.79l3.91,11.46h-1.58l-1.22-3.6H2.72ZM6.48,167.52l-1.12-3.3c-.25-.75-.43-1.43-.59-2.09h-.03c-.17.68-.36,1.38-.58,2.07l-1.12,3.32h3.45Z"/><line class="cls-3" x1="12.01" y1="167.22" x2="135.95" y2="75.95"/><polygon class="cls-4" points="135.92 78.27 135.45 76.31 133.72 75.29 138.35 74.18 135.92 78.27"/><line class="cls-2" x1="281.45" y1="146.5" x2="227.25" y2="123.79"/><polygon class="cls-4" points="228.81 122.88 227.69 123.97 227.7 125.53 225.12 122.89 228.81 122.88"/><line class="cls-2" x1="222.75" y1="309.36" x2="163.98" y2="308.86"/><polygon class="cls-4" points="165.08 307.44 164.46 308.87 165.06 310.31 161.67 308.84 165.08 307.44"/><line class="cls-2" x1="198.83" y1="11.2" x2="163.18" y2="57.91"/><polygon class="cls-4" points="162.7 56.18 163.47 57.53 164.98 57.92 161.77 59.75 162.7 56.18"/><line class="cls-2" x1="54.58" y1="11.79" x2="113.21" y2="7.73"/><polygon class="cls-4" points="112.22 9.23 112.73 7.76 112.03 6.37 115.52 7.57 112.22 9.23"/><path class="cls-4" d="M283.02,143.94c.64-.1,1.39-.17,2.22-.17,1.5,0,2.57.35,3.27,1.01.72.66,1.14,1.6,1.14,2.9s-.41,2.4-1.16,3.14c-.76.76-2,1.16-3.57,1.16-.74,0-1.37-.04-1.9-.1v-7.95ZM284.07,151.08c.26.05.65.06,1.06.06,2.23,0,3.44-1.25,3.44-3.43.01-1.91-1.07-3.12-3.27-3.12-.54,0-.95.05-1.22.11v6.38Z"/><path class="cls-4" d="M199.85,6.56c.46-.1,1.18-.17,1.91-.17,1.04,0,1.71.18,2.22.59.42.31.67.79.67,1.43,0,.78-.52,1.46-1.37,1.77v.02c.77.19,1.67.83,1.67,2.03,0,.7-.28,1.22-.68,1.62-.56.52-1.48.76-2.79.76-.72,0-1.27-.05-1.62-.1v-7.95ZM200.89,9.87h.95c1.1,0,1.75-.58,1.75-1.35,0-.95-.72-1.32-1.78-1.32-.48,0-.75.04-.92.07v2.6ZM200.89,13.74c.2.04.5.05.88.05,1.08,0,2.08-.4,2.08-1.57,0-1.1-.95-1.56-2.09-1.56h-.86v3.08Z"/><path class="cls-4" d="M51.42,15.58c-.38.19-1.15.38-2.13.38-2.28,0-3.99-1.44-3.99-4.09s1.72-4.25,4.22-4.25c1.01,0,1.64.22,1.92.36l-.25.85c-.4-.19-.96-.34-1.63-.34-1.9,0-3.15,1.21-3.15,3.33,0,1.98,1.14,3.25,3.11,3.25.64,0,1.28-.13,1.7-.34l.22.83Z"/><path class="cls-4" d="M232.43,309.47h-4.72v4.38h5.26v1.32h-6.83v-12.15h6.56v1.32h-4.99v3.84h4.72v1.3Z"/></g></svg>