<?xml version="1.0" encoding="UTF-8"?>
<svg id="Layer_1" xmlns="http://www.w3.org/2000/svg" version="1.1" viewBox="0 0 264 233">
  <!-- Generator: Adobe Illustrator 29.1.0, SVG Export Plug-In . SVG Version: 2.1.0 Build 142)  -->
  <defs>
    <style>
      .st0 {
        stroke-width: 4px;
      }

      .st0, .st1, .st2, .st3, .st4, .st5, .st6, .st7 {
        stroke-miterlimit: 10;
      }

      .st0, .st8, .st2, .st9, .st10, .st11, .st7 {
        fill: #00679a;
      }

      .st0, .st2, .st9, .st12 {
        stroke: #000;
      }

      .st13 {
        fill: #f6f6f6;
        stroke-width: .5px;
      }

      .st13, .st14, .st15 {
        stroke-linecap: round;
        stroke-linejoin: round;
      }

      .st13, .st16 {
        stroke: #00679a;
      }

      .st1, .st8, .st3, .st4, .st14, .st5, .st15, .st17, .st11, .st7 {
        stroke: #fff;
      }

      .st1, .st14, .st5, .st15, .st17, .st12, .st6 {
        fill: none;
      }

      .st8 {
        fill-rule: evenodd;
      }

      .st8, .st3, .st4, .st14, .st5, .st17, .st16, .st6, .st11, .st7 {
        stroke-width: .2px;
      }

      .st3 {
        fill: #1e1e1c;
      }

      .st4, .st18, .st16 {
        fill: #fff;
      }

      .st6 {
        stroke: #f6f6f6;
      }
    </style>
  </defs>
  <g id="Layer_2">
    <ellipse class="st0" cx="133.8" cy="119.5" rx="117.9" ry="111.8"/>
  </g>
  <g id="Layer_11">
    <g id="____physiologyLogoV2_1">
      <g id="Circle">
        <path id="Vector" class="st1" d="M133,207.8c50.7,0,91.8-38.4,91.8-85.8s-41.1-85.8-91.8-85.8S41.2,74.7,41.2,122s41.1,85.8,91.8,85.8Z"/>
      </g>
      <g id="Lines">
        <path id="Vector_2" class="st15" d="M89.2,43.9l108.8,139.7"/>
        <path id="Vector_3" class="st15" d="M161.7,35.5l-72.4,169.5"/>
        <path id="Vector_4" class="st15" d="M47.4,148.5l162.3-68.9"/>
        <path id="Vector_5" class="st15" d="M37.4,90.7l195.8,43.3"/>
        <path id="Vector_6" class="st15" d="M147.2,209.6l-13.3-108.4"/>
      </g>
      <g id="Endocrine">
        <path id="Vector_7" class="st2" d="M147.4,223.7c14.2,0,25.8-10.9,25.8-24.2s-11.6-24.2-25.8-24.2-25.8,10.9-25.8,24.2,11.6,24.2,25.8,24.2Z"/>
        <path id="Vector_8" class="st14" d="M159.2,201.5c-1.6,2.3-3,4.6-4.3,7.1.7,0,2-.4,1.8.5h-.4l.4.2c-.2.9-.7.4-1.8.5-.5,0-1.1.5-1.8.7-.4,0-3,.5-2.8.7-.4,0-.4-.7-.4-.9,0-1.4,2.8-1.8,3.7-2.8.7-.7.9-1.8,1.4-2.8,1.1-2.1,4.4-5.9,4.8-8,0-1.1-.4-2.1,0-3.2h.5l.2-.4c1.4.2,2-2.7,1.2-3.6l.5-.4.4-.4c.5,0,.5.5,1.2.5v.5l.2.5c0,.2-.4.4-.5.7h-.4l.4.2c-.2.5-.4,1.2-.5,1.8h-.4l.4.2c-.7,3-1.8,5.5-3.4,7.8"/>
        <path id="Vector_9" class="st14" d="M134.6,196.5s-6.2,4.8-5.2,10.3c.5,3.2,3.2,5.5,7.5,5,8.4-1.1,9.3-9.3,13.2-14.4,1.4-1.8,3.4-3,4.4-4.6,1.4-2.3,1.6-4.4,3.4-5.7,0,2.8,1.4,4.1,4.4,4.1v-1.2h1.4c.9-2-1.4-1.4-2-2.3-.5-.9,0-2-.5-3-1.1-1.8-5-2.1-7.1-1.2-2.7.9-6.6,3.6-10,5.7-3.9,2.5-9.3,6.9-9.1,6.9s0,.5-.4.5h-.2.2Z"/>
        <path id="Vector_10" class="st14" d="M139,197c5.9-1.8-.4,7.3-2.5,6.2-2.3-1.2,1.6-5.9,2.5-6.2Z"/>
      </g>
      <g id="Kidney">
        <path id="Vector_11" class="st9" d="M199.7,198.8c14.2,0,25.8-10.9,25.8-24.2s-11.6-24.2-25.8-24.2-25.8,10.9-25.8,24.2,11.6,24.2,25.8,24.2Z"/>
        <path id="Vector_12" class="st11" d="M188.7,185.6c-.4-3.9-1.1-8.4,1.2-11.7,1.1-1.4,3.4-2.7,5-3,0-.4-1.6.4-1.8.4-1.8.5-3.4,2.1-5.3,1.4-.4,0,0-.4-.4-.5-.2-.4,0-1.2.4-1.2h1.4c-.5,0-.9-.2-1.1-.4-.4,0,0-1.1.4-.9,2,.5,4.1,1.1,6.1.2,1.8-.9,2-2,2-2.7-.7,2-3.2,3.4-5.2,1.8-2.8-2.3-.9-6.1,2-8,.4-.2.5-.4.9-.5,6.2-3.4,14.2.9,15.3,7.3,2.7,3.4.7,5.7.4,9.1-.5,3.7-2.8,10-10.7,10s-10-4.4-7.8-10.1c.5-1.6,2.3-2.8,3.7-2.1.4-.4.7-.7.7-1.2-1.4-.5-3.9.9-4.8,2.1-2.1,3-1.6,6.8-1.6,10.1s-.7.9-.7,0v.2-.3h0Z"/>
        <path id="Vector_13" class="st11" d="M195.2,174.6c.7.4,1.1,1.1.9,2.1-.7.9-2,.9-2.8,1.6-.7.5,0,.7,0,1.4s.4.5.5.9c0,.7.9.9,1.6,1.2,2.1,1.4,2.1-2.8,2.1-3.9s0-1.8.9-1.6c.7,0,.7,1.1.5,1.4-.4.7-1.8,4.4-.4,4.8.5,0,1.1.5,1.4,0,.5-.4,1.1,0,1.6-.4s1.4,0,1.2-.9c-.2-1.6-1.1-2.7-2.3-3.6-.5-.5-1.4-3-.5-3.4,1.1-.4,1.4,1.6,1.6,2.1,0,1.6.9,3.4,2.5,3.9,1.1.4,1.1-.7,1.6-1.2s0-.5.7-1.1c.4-.4.5-.9,0-1.2-1.1-.5-2.3-.9-3.4-1.6-.5-.5-2.3-1.2-1.4-2,.4-.4.9,0,1.4.2,1.1.9,2.7,2.1,4.4,2.3.5,0,0-.5.4-.9s0-.7,0-1.1c.2-.4-.4-.7,0-1.1,0-.2,0-.4-.4-.4-1.4-.2-2.8-.2-4.3,0-.7,0-2.1.2-2.1-.9s2-.7,2.5-.5c1.1.5,2.1,1.1,3.2,1.1s1.8,0,1.2-.7c-.4-.5.4-.7-.2-1.4-.4-.4.4-1.4-.5-1.4s-2.7,0-3.7.9c-.9.5-3.4.9-3.4-.4s2.1-1.1,2.8-.9c1.1.4,2.5.5,3.6,0,1.2-.4,0-.9.2-1.6,0-.7-.7-.5-.5-1.2,0-.4-.5-.9-.9-.7-1.1.4-1.8,1.1-2.7,1.6-1.8,1.4-2.5-.5-.9-.9.7,0,3.6-.9,2.7-2-.4-.5-1.2-.4-1.2-.9s-1.1-.4-1.4-.9c-.4-.4-.5-.5-.9,0-.5.9-.7,2.1-.5,2.8.2,2-1.4,2.1-1.4,0s-.2-3.5-.7-3.7c-.9-.5-.7,0-1.6,0s-.7.4-.4.7c.5.7.9,1.6,1.1,2.5-.4-.9-.9-1.6-1.6-2.3s-.7.4-1.2.5c-.7.2-.5,1.2-.9,1.6-.4.4-.4,1.1,0,1.2,1.1.5,2.1.4,3.4.5-1.1-.2-2.3,4.1-5.3,1.2-2-2-.7-5,1.2-6.4.4-.2.5-.4.9-.5,6.2-3.4,14.2.9,15.3,7.3,2.7,3.4.7,5.7.4,9.1-.4,2.5-2.1,4.8-3.7,6.4-4.6,3.9-13.3,3.2-15-3.2-.2-1.1-.4-2.3,0-3.4.5-1.6,2.3-2.8,3.7-2.1h0l.7.7v.4h0Z"/>
        <path id="Vector_14" class="st17" d="M201.3,162.8l-.4,2.3"/>
        <path id="Vector_15" class="st17" d="M201.7,162.8l-.5,2.3"/>
        <path id="Vector_16" class="st17" d="M201.8,162.6l-.7,2.3"/>
        <path id="Vector_17" class="st17" d="M202,162.8l-.9,2.1"/>
        <path id="Vector_18" class="st17" d="M202.4,162.6l-1.1,2.3"/>
        <path id="Vector_19" class="st17" d="M202.5,162.8l-1.2,2.1"/>
        <path id="Vector_20" class="st17" d="M202.7,163l-1.2,2.1"/>
        <path id="Vector_21" class="st17" d="M203.1,163l-1.4,2.1"/>
        <path id="Vector_22" class="st17" d="M201.7,165.1l1.6-2.1"/>
        <path id="Vector_23" class="st17" d="M203.3,163.3l-1.4,1.8"/>
        <path id="Vector_24" class="st17" d="M203.4,163.3l-1.8,1.8"/>
        <path id="Vector_25" class="st17" d="M203.4,163.5l-1.8,1.6"/>
        <path id="Vector_26" class="st17" d="M203.6,163.7l-1.8,1.6"/>
        <path id="Vector_27" class="st17" d="M203.8,163.9l-1.8,1.4"/>
        <path id="Vector_28" class="st17" d="M203.8,164.1l-2,1.2"/>
        <path id="Vector_29" class="st17" d="M202,165.3l2-1.2"/>
        <path id="Vector_30" class="st17" d="M202,165.5l2-1.1"/>
        <path id="Vector_31" class="st17" d="M201.8,165.5l2-.9"/>
        <path id="Vector_32" class="st17" d="M201.8,165.7l1.8-.7"/>
        <path id="Vector_33" class="st17" d="M197.6,164.8l-1.4-2"/>
        <path id="Vector_34" class="st17" d="M197.6,164.8l-1.6-2.1"/>
        <path id="Vector_35" class="st17" d="M197.4,164.6l-1.6-1.8"/>
        <path id="Vector_36" class="st17" d="M197.2,164.8l-1.8-2"/>
        <path id="Vector_37" class="st17" d="M197.2,164.8l-1.8-1.8"/>
        <path id="Vector_38" class="st17" d="M197.2,164.9l-2.1-1.8"/>
        <path id="Vector_39" class="st17" d="M197,164.9l-2-1.6"/>
        <path id="Vector_40" class="st17" d="M197,164.9l-2.1-1.4"/>
        <path id="Vector_41" class="st17" d="M197,165.1l-2.3-1.2"/>
        <path id="Vector_42" class="st17" d="M196.8,165.1l-2.5-1.1"/>
        <path id="Vector_43" class="st17" d="M196.8,165.1l-2.5-.9"/>
        <path id="Vector_44" class="st17" d="M196.8,165.3l-2.7-.9"/>
        <path id="Vector_45" class="st17" d="M196.8,165.3l-2.5-.5"/>
        <path id="Vector_46" class="st17" d="M196.8,165.5l-2.8-.5"/>
        <path id="Vector_47" class="st17" d="M203.6,168l2.8.5"/>
        <path id="Vector_48" class="st17" d="M203.6,167.8l3,.4"/>
        <path id="Vector_49" class="st17" d="M203.8,167.8l2.7.4"/>
        <path id="Vector_50" class="st17" d="M203.8,167.6h3"/>
        <path id="Vector_51" class="st17" d="M204,167.4h2.8"/>
        <path id="Vector_52" class="st17" d="M203.8,167.4h3"/>
        <path id="Vector_53" class="st17" d="M204,167.3l2.8-.4"/>
        <path id="Vector_54" class="st17" d="M203.8,167.3l2.8-.5"/>
        <path id="Vector_55" class="st17" d="M203.8,167.1l2.8-.7"/>
        <path id="Vector_56" class="st17" d="M203.8,167.1l2.7-.9"/>
        <path id="Vector_57" class="st17" d="M203.8,167.1l2.7-1.1"/>
        <path id="Vector_58" class="st17" d="M203.8,166.9l2.7-1.4"/>
        <path id="Vector_59" class="st17" d="M203.6,166.9l2.3-1.4"/>
        <path id="Vector_60" class="st17" d="M203.6,166.9l2.5-1.8"/>
        <path id="Vector_61" class="st17" d="M203.8,170.6l3.4.9"/>
        <path id="Vector_62" class="st17" d="M203.8,170.6l3.7.9"/>
        <path id="Vector_63" class="st17" d="M204.1,170.6l3.4.7"/>
        <path id="Vector_64" class="st17" d="M204,170.5l3.7.7"/>
        <path id="Vector_65" class="st17" d="M204.3,170.5l3.6.5"/>
        <path id="Vector_66" class="st17" d="M204,170.3l3.9.4"/>
        <path id="Vector_67" class="st17" d="M204.3,170.3h3.6"/>
        <path id="Vector_68" class="st17" d="M204.1,170.3h3.6"/>
        <path id="Vector_69" class="st17" d="M204.1,170.1h3.6"/>
        <path id="Vector_70" class="st17" d="M204.1,170.1l3.6-.4"/>
        <path id="Vector_71" class="st17" d="M204.1,170.1l3.4-.5"/>
        <path id="Vector_72" class="st17" d="M204,169.9l3.6-.7"/>
        <path id="Vector_73" class="st17" d="M204,169.9l3.2-.7"/>
        <path id="Vector_74" class="st17" d="M203.8,169.9l3.4-.9"/>
        <path id="Vector_75" class="st17" d="M203.6,173.7l2.8,2"/>
        <path id="Vector_76" class="st17" d="M203.6,173.7l3.2,2"/>
        <path id="Vector_77" class="st17" d="M204,173.7l3,1.6"/>
        <path id="Vector_78" class="st17" d="M204,173.5l3.4,1.8"/>
        <path id="Vector_79" class="st17" d="M204.1,173.5l3.2,1.6"/>
        <path id="Vector_80" class="st17" d="M204,173.3l3.6,1.6"/>
        <path id="Vector_81" class="st17" d="M204.1,173.3l3.4,1.2"/>
        <path id="Vector_82" class="st17" d="M204.1,173.3l3.4,1.1"/>
        <path id="Vector_83" class="st17" d="M204.1,173.1l3.6.9"/>
        <path id="Vector_84" class="st17" d="M204.1,173.1l3.6.7"/>
        <path id="Vector_85" class="st17" d="M204.1,173l3.4.5"/>
        <path id="Vector_86" class="st17" d="M204.1,173l3.6.4"/>
        <path id="Vector_87" class="st17" d="M204.1,172.8h3.4"/>
        <path id="Vector_88" class="st17" d="M204,172.8h3.6"/>
        <path id="Vector_89" class="st17" d="M201.8,176.5l2.1,3.2"/>
        <path id="Vector_90" class="st17" d="M202,176.5l2.3,3.4"/>
        <path id="Vector_91" class="st17" d="M202.2,176.7l2.3,3"/>
        <path id="Vector_92" class="st17" d="M202.2,176.5l2.5,3.2"/>
        <path id="Vector_93" class="st17" d="M202.4,176.7l2.5,3"/>
        <path id="Vector_94" class="st17" d="M202.4,176.5l2.8,3.2"/>
        <path id="Vector_95" class="st17" d="M202.5,176.5l2.7,2.8"/>
        <path id="Vector_96" class="st17" d="M202.5,176.5l2.8,2.7"/>
        <path id="Vector_97" class="st17" d="M202.5,176.3l3,2.5"/>
        <path id="Vector_98" class="st17" d="M202.5,176.3l3,2.3"/>
        <path id="Vector_99" class="st17" d="M202.7,176.3l3,2.1"/>
        <path id="Vector_100" class="st17" d="M202.5,176.2l3.4,2.1"/>
        <path id="Vector_101" class="st17" d="M202.7,176.2l3,1.8"/>
        <path id="Vector_102" class="st17" d="M202.5,176l3.4,1.8"/>
        <path id="Vector_103" class="st17" d="M199.2,178.1l-1.1,3.2"/>
        <path id="Vector_104" class="st17" d="M199.2,178.1l-1.1,3.4"/>
        <path id="Vector_105" class="st17" d="M199.3,178.5l-.7,3.2"/>
        <path id="Vector_106" class="st17" d="M199.5,178.5l-.7,3.6"/>
        <path id="Vector_107" class="st17" d="M199.7,178.6l-.5,3.4"/>
        <path id="Vector_108" class="st17" d="M199.7,178.5l-.4,3.7"/>
        <path id="Vector_109" class="st17" d="M199.9,178.6v3.4"/>
        <path id="Vector_110" class="st17" d="M200.1,178.5l.4,3.4"/>
        <path id="Vector_111" class="st17" d="M200.1,178.5l.5,3.4"/>
        <path id="Vector_112" class="st17" d="M200.2,178.5l.9,3.4"/>
        <path id="Vector_113" class="st17" d="M200.2,178.5l1.1,3.2"/>
        <path id="Vector_114" class="st17" d="M200.4,178.5l1.4,3.4"/>
        <path id="Vector_115" class="st17" d="M200.4,178.5l1.4,3"/>
        <path id="Vector_116" class="st17" d="M200.6,178.3l1.8,3.2"/>
        <path id="Vector_117" class="st17" d="M196.1,177.2l-2.8,1.2"/>
        <path id="Vector_118" class="st17" d="M196.1,177.4l-3,1.4"/>
        <path id="Vector_119" class="st17" d="M196,177.6l-2.7,1.4"/>
        <path id="Vector_120" class="st17" d="M197.2,176.7l-3,1.8"/>
        <path id="Vector_121" class="st17" d="M196.1,177.8l-2.7,1.8"/>
        <path id="Vector_122" class="st17" d="M196.3,177.8l-2.8,2"/>
        <path id="Vector_123" class="st17" d="M196.1,177.9l-2.3,2"/>
        <path id="Vector_124" class="st17" d="M196.3,177.9l-2.1,2.1"/>
        <path id="Vector_125" class="st17" d="M196.5,178.1l-2.1,2.5"/>
        <path id="Vector_126" class="st17" d="M196.5,178.1l-2,2.5"/>
        <path id="Vector_127" class="st17" d="M196.5,178.1l-1.6,2.7"/>
        <path id="Vector_128" class="st17" d="M196.7,178.1l-1.6,2.8"/>
        <path id="Vector_129" class="st17" d="M196.7,178.3l-1.2,2.7"/>
        <path id="Vector_130" class="st17" d="M196.8,178.3l-1.2,3"/>
        <path id="Vector_131" class="st17" d="M198.8,164.2v-2.5"/>
        <path id="Vector_132" class="st17" d="M198.8,164.2l-.4-2.7"/>
        <path id="Vector_133" class="st17" d="M198.6,164.1l-.4-2.3"/>
        <path id="Vector_134" class="st17" d="M198.6,164.2l-.5-2.7"/>
        <path id="Vector_135" class="st17" d="M198.4,164.1l-.7-2.5"/>
        <path id="Vector_136" class="st17" d="M198.4,164.2l-.9-2.7"/>
        <path id="Vector_137" class="st17" d="M198.3,164.1l-.9-2.3"/>
        <path id="Vector_138" class="st17" d="M198.3,164.2l-1.1-2.3"/>
      </g>
      <g id="Lungs">
        <path id="Vector_139" class="st9" d="M221.8,150.8c14.2,0,25.8-10.9,25.8-24.2s-11.6-24.2-25.8-24.2-25.8,10.9-25.8,24.2,11.6,24.2,25.8,24.2Z"/>
        <path id="Vector_140" class="st10" d="M220.2,106.6c1.2-.5,2.5,5.5,2.7,6.9,0,1.2.5,6.1,1.1,6.4.4-1.6-.5-3,0-4.8,1.2-4.4,5-1.8,7.1.5,3,3.6,6.1,7.8,7.1,12.1,1.6,3.4,2.5,7.3,1.4,10.9-.4,1.4-2.5,1.6-3.4.5-.4-.4-3-.7-4.4-.9-4.6-.5-8.2-1.1-7.8-6.1,0-1.2,0-2.3.9-3.4-.4-1.1,0-2.3-.7-3.4-.5-1.1-1.1-2.3-.5-3.6l-1.1-.4-1.1,1.2c.5,2.3.2,4.8-.4,7.1.7,2.3,0,5.3-4.3,6.9-1.4.5-3.4.7-4.8.4-2.1.7-3.9,1.6-5.5,3-1.2,1.1-1.4-1.1-1.4-1.6,0-2.3-.5-4.8.4-6.9-.4-.7-.4-4.3.9-5.2-.4-.9,1.1-2.5,1.4-3.9.7-2,2.1-3.9,3.9-5.3s2.5-3.9,5.3-4.3c2.1-.2,2.3.9,2.5,2,.2,1.8,0,3.6,1.1,5.2.4-.4-.4-4.3-.5-6.4-.2-1.2-2.1-6.4-1.6-6.6l2.1-.9h0l-.4.4v.2h0Z"/>
        <path id="Vector_141" class="st6" d="M220.2,106.6c1.2-.5,2.5,5.5,2.7,6.9,0,1.2.5,6.1,1.1,6.4.4-1.6-.5-3,0-4.8,1.2-4.4,5-1.8,7.1.5,3,3.6,6.1,7.8,7.1,12.1,1.6,3.4,2.5,7.3,1.4,10.9-.4,1.4-2.5,1.6-3.4.5-.4-.4-3-.7-4.4-.9-4.6-.5-8.2-1.1-7.8-6.1,0-1.2,0-2.3.9-3.4-.4-1.1,0-2.3-.7-3.4-.5-1.1-1.1-2.3-.5-3.6l-1.1-.4-1.1,1.2c.5,2.3.2,4.8-.4,7.1.7,2.3,0,5.3-4.3,6.9-1.4.5-3.4.7-4.8.4-2.1.7-3.9,1.6-5.5,3-1.2,1.1-1.4-1.1-1.4-1.6,0-2.3-.5-4.8.4-6.9-.4-.7-.4-4.3.9-5.2-.4-.9,1.1-2.5,1.4-3.9.7-2,2.1-3.9,3.9-5.3s2.5-3.9,5.3-4.3c2.1-.2,2.3.9,2.5,2,.2,1.8,0,3.6,1.1,5.2.4-.4-.4-4.3-.5-6.4-.2-1.2-2.1-6.4-1.6-6.6l2.1-.9h0l-.4.4v.2h0Z"/>
        <path id="Vector_142" class="st5" d="M215.4,119.8s-.4.2-.5,0c0,0-.2-.4,0-.5,0,0,.4-.2.5,0,0,0,.2.4,0,.5Z"/>
        <path id="Vector_143" class="st5" d="M215.3,120l1.1.9c1.1.5,2.1.5,2.7-.2.4-.7,0-1.6-.9-2.1l-1.6-1.4"/>
        <path id="Vector_144" class="st5" d="M215.3,119.3s-.4.2-.5,0c0,0-.2-.4,0-.5,0,0,.4-.2.5,0s.2.4,0,.5Z"/>
        <path id="Vector_145" class="st5" d="M215.1,118.7s-.4.2-.5,0-.2-.4,0-.5c0,0,.4-.2.5,0,0,0,.2.4,0,.5Z"/>
        <path id="Vector_146" class="st5" d="M214.4,118.7s-.4.2-.5,0c0,0-.2-.4,0-.5,0,0,.4-.2.5,0,0,0,.2.4,0,.5Z"/>
        <path id="Vector_147" class="st5" d="M213.5,118.4s-.4.2-.5,0c0,0-.2-.4,0-.5,0,0,.4-.2.5,0,0,0,.2.4,0,.5Z"/>
        <path id="Vector_148" class="st5" d="M214.4,119.4s-.4.2-.5,0c0,0-.2-.4,0-.5,0,0,.4-.2.5,0,0,0,.2.4,0,.5Z"/>
        <path id="Vector_149" class="st5" d="M213.3,119.3s-.4.2-.5,0c0,0-.2-.4,0-.5,0,0,.4-.2.5,0,0,0,.2.4,0,.5Z"/>
        <path id="Vector_150" class="st5" d="M213.3,120.1s-.4.2-.5,0c0,0-.2-.4,0-.5,0,0,.4-.2.5,0,0,0,.2.4,0,.5Z"/>
        <path id="Vector_151" class="st5" d="M214,120.1s-.4.2-.5,0c0,0-.2-.4,0-.5,0,0,.4-.2.5,0,0,0,.2.4,0,.5Z"/>
        <path id="Vector_152" class="st5" d="M213.7,119.6s-.4.2-.5,0-.2-.4,0-.5c0,0,.4-.2.5,0,0,0,.2.4,0,.5Z"/>
        <path id="Vector_153" class="st5" d="M212.8,119.6s-.4.2-.5,0c0,0-.2-.4,0-.5,0,0,.4-.2.5,0,0,0,.2.4,0,.5Z"/>
        <path id="Vector_154" class="st5" d="M212.4,120.1s-.4.2-.5,0c0,0-.2-.4,0-.5,0,0,.4-.2.5,0,0,0,.2.4,0,.5Z"/>
        <path id="Vector_155" class="st5" d="M212.2,119.4s-.4.2-.5,0c0,0-.2-.4,0-.5,0,0,.4-.2.5,0,0,0,.2.4,0,.5Z"/>
        <path id="Vector_156" class="st5" d="M212.8,118.7s-.4.2-.5,0c0,0-.2-.4,0-.5,0,0,.4-.2.5,0,0,0,.2.4,0,.5Z"/>
        <path id="Vector_157" class="st5" d="M212.8,120.5s-.4.2-.5,0c0,0-.2-.4,0-.5,0,0,.4-.2.5,0,0,0,.2.4,0,.5Z"/>
        <path id="Vector_158" class="st5" d="M214.7,120s-.4.2-.5,0c0,0-.2-.4,0-.5,0,0,.4-.2.5,0,0,0,.2.4,0,.5Z"/>
        <path id="Vector_159" class="st5" d="M213.7,120.3l.4.5,1.1.5c.4,0,.4-.2.4-.2-.9-.7-.7-.9-.9-.9"/>
        <path id="Vector_160" class="st5" d="M212.8,120.5l.4.4.9.4h-2.1"/>
        <path id="Vector_161" class="st5" d="M212.1,121.2s-.4.2-.5,0c0,0-.2-.4,0-.5,0,0,.4-.2.5,0,0,0,.2.4,0,.5Z"/>
        <path id="Vector_162" class="st5" d="M211.2,121s-.4.2-.5,0c0,0-.2-.4,0-.5,0,0,.4-.2.5,0,0,0,.2.4,0,.5Z"/>
        <path id="Vector_163" class="st5" d="M210.5,121.6s-.4.2-.5,0c0,0-.2-.4,0-.5,0,0,.4-.2.5,0,0,0,.2.4,0,.5Z"/>
        <path id="Vector_164" class="st5" d="M211.5,121.7s-.4.2-.5,0c0,0-.2-.4,0-.5,0,0,.4-.2.5,0,0,0,.2.4,0,.5Z"/>
        <path id="Vector_165" class="st5" d="M211.3,122.5s-.4.2-.5,0c0,0-.2-.4,0-.5,0,0,.4-.2.5,0,0,0,.2.4,0,.5Z"/>
        <path id="Vector_166" class="st5" d="M212.1,122.3s-.4.2-.5,0c0,0-.2-.4,0-.5,0,0,.4-.2.5,0,0,0,.2.4,0,.5Z"/>
        <path id="Vector_167" class="st5" d="M212.8,122.6l.9-.4c.2,0,0-.2,0-.2h-1.2"/>
        <path id="Vector_168" class="st5" d="M210.3,122.6s-.4.2-.5,0c0,0-.2-.4,0-.5,0,0,.4-.2.5,0,0,0,.2.4,0,.5Z"/>
        <path id="Vector_169" class="st5" d="M211.5,123.2s-.4.2-.5,0c0,0-.2-.4,0-.5,0,0,.4-.2.5,0,0,0,.2.4,0,.5Z"/>
        <path id="Vector_170" class="st5" d="M210.6,123.5s-.4.2-.5,0c0,0-.2-.4,0-.5,0,0,.4-.2.5,0,0,0,.2.4,0,.5Z"/>
        <path id="Vector_171" class="st5" d="M210.8,122.8s-.4.2-.5,0c0,0-.2-.4,0-.5,0,0,.4-.2.5,0,0,0,.2.4,0,.5Z"/>
        <path id="Vector_172" class="st5" d="M210.6,122.1s-.4.2-.5,0c0,0-.2-.4,0-.5,0,0,.4-.2.5,0,0,0,.2.4,0,.5Z"/>
        <path id="Vector_173" class="st5" d="M212.4,123.2s-.4.2-.5,0c0,0-.2-.4,0-.5,0,0,.4-.2.5,0,0,0,.2.4,0,.5Z"/>
        <path id="Vector_174" class="st5" d="M214,124.4c2.1,0,3.6-.5,3.6-.5,2.3-1.4,0-1.8,0-1.8h-3.2c-.4.7-1.1.7-1.1.7"/>
        <path id="Vector_175" class="st5" d="M214.4,127.4c4.4-.5,4.1-2.8,4.1-2.8-2-.7-3.9,2.1-3.9,2.1"/>
        <path id="Vector_176" class="st5" d="M211.9,124.2s-.4.2-.5,0c0,0-.2-.4,0-.5,0,0,.4-.2.5,0,0,0,.2.4,0,.5Z"/>
        <path id="Vector_177" class="st5" d="M212.4,123.7s-.4.2-.5,0c0,0-.2-.4,0-.5,0,0,.4-.2.5,0,0,0,.2.4,0,.5Z"/>
        <path id="Vector_178" class="st5" d="M211.2,124.6s-.4.2-.5,0c0,0-.2-.4,0-.5,0,0,.4-.2.5,0,0,0,.2.4,0,.5Z"/>
        <path id="Vector_179" class="st5" d="M211.2,124.1s-.4.2-.5,0c0,0-.2-.4,0-.5,0,0,.4-.2.5,0,0,0,.2.4,0,.5Z"/>
        <path id="Vector_180" class="st5" d="M210.3,124.2s-.4.2-.5,0c0,0-.2-.4,0-.5,0,0,.4-.2.5,0,0,0,.2.4,0,.5Z"/>
        <path id="Vector_181" class="st5" d="M209.7,123.2s-.4.2-.5,0c0,0-.2-.4,0-.5,0,0,.4-.2.5,0,0,0,.2.4,0,.5Z"/>
        <path id="Vector_182" class="st5" d="M209.6,123.9s-.4.2-.5,0c0,0-.2-.4,0-.5,0,0,.4-.2.5,0,0,0,.2.4,0,.5Z"/>
        <path id="Vector_183" class="st5" d="M210.3,124.6c-.5,0,0,.4,0,.4,2.7.5,4.4,0,4.4,0,.4-.2,0-.4,0-.4,0,0-.4,0-.9-.2"/>
        <path id="Vector_184" class="st5" d="M209.7,126c-.2-.4.4-.5.4-.5,0,0,1.8.5,3.4.4"/>
        <path id="Vector_185" class="st5" d="M209.7,126.2s-.4.2-.5,0c0,0-.2-.4,0-.5,0,0,.4-.2.5,0,0,0,.2.4,0,.5Z"/>
        <path id="Vector_186" class="st5" d="M209,126s-.4.2-.5,0c0,0-.2-.4,0-.5,0,0,.4-.2.5,0,0,0,.2.4,0,.5Z"/>
        <path id="Vector_187" class="st5" d="M209.4,125.5s-.4.2-.5,0c0,0-.2-.4,0-.5,0,0,.4-.2.5,0,0,0,.2.4,0,.5Z"/>
        <path id="Vector_188" class="st5" d="M208.9,125.1s-.4.2-.5,0c0,0-.2-.4,0-.5,0,0,.4-.2.5,0,0,0,.2.4,0,.5Z"/>
        <path id="Vector_189" class="st5" d="M208.1,124.9s-.4.2-.5,0c0,0-.2-.4,0-.5,0,0,.4-.2.5,0,0,0,.2.4,0,.5Z"/>
        <path id="Vector_190" class="st5" d="M209.4,124.8s-.4.2-.5,0c0,0-.2-.4,0-.5,0,0,.4-.2.5,0,0,0,.2.4,0,.5Z"/>
        <path id="Vector_191" class="st5" d="M215.4,129.8c3.6-1.2,3.4-3.6,3.4-3.6-1.4-.4-3.2,2.8-3.2,2.8"/>
        <path id="Vector_192" class="st5" d="M210.1,127.3c-1.2-.5-1.4,0-1.4,0-.2-.2,0-.5,0-.5.4-.2,1.2,0,1.2,0,.9.4,1.6,0,1.6,0,.9,0,1.1-.9,1.1-.9"/>
        <path id="Vector_193" class="st5" d="M209.7,128.3c.5-.5,1.1-.5,1.1-.5h.9c.4,0,1.1-.7,1.1-.7.9-1.1,1.8-1.1,1.8-1.1-.5.2-.7.7-.7.9"/>
        <path id="Vector_194" class="st5" d="M208.5,126.9s-.4.2-.5,0c0,0-.2-.4,0-.5,0,0,.4-.2.5,0,0,0,.2.4,0,.5Z"/>
        <path id="Vector_195" class="st5" d="M208,126.2s-.4.2-.5,0c0,0-.2-.4,0-.5,0,0,.4-.2.5,0,0,0,.2.4,0,.5Z"/>
        <path id="Vector_196" class="st5" d="M207.6,127.4s-.4.2-.5,0c0,0-.2-.4,0-.5,0,0,.4-.2.5,0,0,0,.2.4,0,.5Z"/>
        <path id="Vector_197" class="st5" d="M207.4,128.7s-.4.2-.5,0c0,0-.2-.4,0-.5,0,0,.4-.2.5,0,0,0,.2.4,0,.5Z"/>
        <path id="Vector_198" class="st5" d="M208.7,127.6s-.4.2-.5,0c0,0-.2-.4,0-.5,0,0,.4-.2.5,0,0,0,.2.4,0,.5Z"/>
        <path id="Vector_199" class="st5" d="M208.5,128.3s-.4.2-.5,0c0,0-.2-.4,0-.5,0,0,.4-.2.5,0,0,0,.2.4,0,.5Z"/>
        <path id="Vector_200" class="st5" d="M209.9,129s-.4.2-.5,0c0,0-.2-.4,0-.5,0,0,.4-.2.5,0,0,0,.2.4,0,.5Z"/>
        <path id="Vector_201" class="st5" d="M208.7,129.2s-.4.2-.5,0c0,0-.2-.4,0-.5,0,0,.4-.2.5,0,0,0,.2.4,0,.5Z"/>
        <path id="Vector_202" class="st5" d="M208,129.4s-.4.2-.5,0c0,0-.2-.4,0-.5,0,0,.4-.2.5,0,0,0,.2.4,0,.5Z"/>
        <path id="Vector_203" class="st5" d="M214.2,134c-.5.2-.4-.4-.4-.4,2.1-2.1,3.9-2.8,3.9-2.8.5,0,0,.4,0,.4l-.7.7"/>
        <path id="Vector_204" class="st5" d="M212.6,133.3c0,.5.5.4.5.4,0,0,1.2-1.6,2.7-2.5"/>
        <path id="Vector_205" class="st5" d="M212.4,133.1h-.5c0,.2,0,.4.2.5h.5c0-.2,0-.4-.2-.5Z"/>
        <path id="Vector_206" class="st5" d="M211.9,133.7h-.5c0,.2,0,.4.2.5h.5c0-.2,0-.4-.2-.5Z"/>
        <path id="Vector_207" class="st5" d="M212.6,134h-.5c0,.2,0,.4.2.5h.5c.2,0,0-.4-.2-.5Z"/>
        <path id="Vector_208" class="st5" d="M212.2,134.6h-.5c0,.2,0,.4.2.5h.5c0-.2,0-.4-.2-.5Z"/>
        <path id="Vector_209" class="st5" d="M211.9,135.3h-.5c0,.2,0,.4.2.5h.5c0-.2,0-.4-.2-.5Z"/>
        <path id="Vector_210" class="st5" d="M213.1,134.6h-.5c0,.2,0,.4.2.5h.5c0-.2,0-.4-.2-.5Z"/>
        <path id="Vector_211" class="st5" d="M211.9,131.9c-.7,1.2-1.2.9-1.2.9,0,.4.5.5.5.5.5,0,1.1-.9,1.1-.9.5-.7,1.4-1.1,1.4-1.1.9-.5,1.6.2,1.6.2"/>
        <path id="Vector_212" class="st5" d="M210.8,131.2h1.4c.4-.4.9-.5.9-.5.4-.4,1.4,0,1.4,0,1.4.4,2.3-.2,2.3-.2-.7,0-1.2-.2-1.4-.4"/>
        <path id="Vector_213" class="st5" d="M210.8,133.3h-.5c0,.2,0,.4.2.5h.5c0-.2,0-.4-.2-.5Z"/>
        <path id="Vector_214" class="st5" d="M210.8,134.2h-.5c0,.2,0,.4.2.5h.5c0-.2,0-.4-.2-.5Z"/>
        <path id="Vector_215" class="st5" d="M209.6,133.3h-.5c0,.2,0,.4.2.5h.5c0-.2,0-.4-.2-.5Z"/>
        <path id="Vector_216" class="st5" d="M208.5,132.4h-.5c0,.2,0,.4.2.5h.5c0-.2,0-.4-.2-.5Z"/>
        <path id="Vector_217" class="st5" d="M210.3,132.4h-.5c0,.2,0,.4.2.5h.5c0-.2,0-.4-.2-.5Z"/>
        <path id="Vector_218" class="st5" d="M209.7,131.9h-.5c-.2,0,0,.4.2.5h.5c0-.2,0-.4-.2-.5Z"/>
        <path id="Vector_219" class="st5" d="M210.5,130.3h-.5c0,.2,0,.4.2.5h.5c0-.2,0-.4-.2-.5Z"/>
        <path id="Vector_220" class="st5" d="M209.4,131h-.5c0,.2,0,.4.2.5h.5c0-.2,0-.4-.2-.5Z"/>
        <path id="Vector_221" class="st5" d="M208.3,131.4h-.5c0,.2,0,.4.2.5h.5c0-.2,0-.4-.2-.5Z"/>
        <path id="Vector_222" class="st5" d="M210.8,129.2c-.4.4,0,.4,0,.4,2.3-.5,3.6-1.4,3.6-1.4.2-.4,0-.2,0-.2h-.7"/>
        <path id="Vector_223" class="st5" d="M211.3,130.5c-.4-.4,0-.5,0-.5,0,0,1.8,0,3.2-.9"/>
        <path id="Vector_224" class="st5" d="M209.9,131.4c0-.2,0-.4.4-.4s.4,0,.4.4,0,.4-.4.4-.4,0-.4-.4Z"/>
        <path id="Vector_225" class="st5" d="M210.1,132.1c0-.2,0-.4.4-.4s.4,0,.4.4,0,.4-.4.4-.4,0-.4-.4Z"/>
        <path id="Vector_226" class="st5" d="M211,131.7c0-.2,0-.4.4-.4s.4,0,.4.4,0,.4-.4.4-.4,0-.4-.4Z"/>
        <path id="Vector_227" class="st5" d="M207.3,130.6c0-.2,0-.4.4-.4s.4,0,.4.4,0,.4-.4.4-.4,0-.4-.4Z"/>
        <path id="Vector_228" class="st5" d="M208,130.8c0-.2,0-.4.4-.4s.4,0,.4.4,0,.4-.4.4-.4,0-.4-.4Z"/>
        <path id="Vector_229" class="st5" d="M208.5,130.5c0-.2,0-.4.4-.4s.4,0,.4.4,0,.4-.4.4-.4,0-.4-.4Z"/>
        <path id="Vector_230" class="st5" d="M209.4,130.3c0-.2,0-.4.4-.4s.4,0,.4.4,0,.4-.4.4-.4,0-.4-.4Z"/>
        <path id="Vector_231" class="st5" d="M206.7,129.9c0-.2,0-.4.4-.4s.4,0,.4.4,0,.4-.4.4-.4,0-.4-.4Z"/>
        <path id="Vector_232" class="st5" d="M208.9,128.2c0-.2,0-.4.4-.4s.4,0,.4.4,0,.4-.4.4-.4,0-.4-.4Z"/>
        <path id="Vector_233" class="st5" d="M208,129.8c0-.2,0-.4.4-.4s.4,0,.4.4,0,.4-.4.4-.4,0-.4-.4Z"/>
        <path id="Vector_234" class="st5" d="M208.9,129.6c0-.2,0-.4.4-.4s.4,0,.4.4,0,.4-.4.4-.4,0-.4-.4Z"/>
        <path id="Vector_235" class="st5" d="M228.1,119.1s.4.2.5,0c0,0,.2-.4,0-.5,0,0-.4-.2-.5,0,0,0-.2.4,0,.5Z"/>
        <path id="Vector_236" class="st5" d="M228.4,119.3l-1.1.9c-1.1.5-2.1.5-2.7-.2-.4-.7,0-1.6.9-2.1l1.6-1.4"/>
        <path id="Vector_237" class="st5" d="M228.3,118.4s.4.2.5,0c0,0,.2-.4,0-.5,0,0-.4-.2-.5,0,0,0-.2.4,0,.5Z"/>
        <path id="Vector_238" class="st5" d="M228.6,118s.4.2.5,0c0,0,.2-.4,0-.5,0,0-.4-.2-.5,0,0,0-.2.4,0,.5Z"/>
        <path id="Vector_239" class="st5" d="M229.3,117.8s.4.2.5,0c0,0,.2-.4,0-.5,0,0-.4-.2-.5,0,0,0-.2.4,0,.5Z"/>
        <path id="Vector_240" class="st5" d="M230,117.7s.4.2.5,0c0,0,.2-.4,0-.5,0,0-.4-.2-.5,0,0,0-.2.4,0,.5Z"/>
        <path id="Vector_241" class="st5" d="M229.1,118.7s.4.2.5,0c0,0,.2-.4,0-.5,0,0-.4-.2-.5,0,0,0-.2.4,0,.5Z"/>
        <path id="Vector_242" class="st5" d="M230.4,118.4s.4.2.5,0c0,0,.2-.4,0-.5,0,0-.4-.2-.5,0,0,0-.2.4,0,.5Z"/>
        <path id="Vector_243" class="st5" d="M230.2,119.4s.4.2.5,0c0,0,.2-.4,0-.5,0,0-.4-.2-.5,0,0,0-.2.4,0,.5Z"/>
        <path id="Vector_244" class="st5" d="M229.5,119.4s.4.2.5,0c0,0,.2-.4,0-.5,0,0-.4-.2-.5,0,0,0-.2.4,0,.5Z"/>
        <path id="Vector_245" class="st5" d="M229.9,118.9s.4.2.5,0c0,0,.2-.4,0-.5,0,0-.4-.2-.5,0,0,0-.2.4,0,.5Z"/>
        <path id="Vector_246" class="st5" d="M230.7,118.7s.4.2.5,0c0,0,.2-.4,0-.5,0,0-.4-.2-.5,0,0,0-.2.4,0,.5Z"/>
        <path id="Vector_247" class="st5" d="M231.3,119.3s.4.2.5,0c0,0,.2-.4,0-.5,0,0-.4-.2-.5,0,0,0-.2.4,0,.5Z"/>
        <path id="Vector_248" class="st5" d="M231.5,118.5s.4.2.5,0c0,0,.2-.4,0-.5,0,0-.4-.2-.5,0,0,0-.2.4,0,.5Z"/>
        <path id="Vector_249" class="st5" d="M230.7,118s.4.2.5,0c0,0,.2-.4,0-.5,0,0-.4-.2-.5,0,0,0-.2.4,0,.5Z"/>
        <path id="Vector_250" class="st5" d="M230.7,119.8s.4.2.5,0c0,0,.2-.4,0-.5,0,0-.4-.2-.5,0,0,0-.2.4,0,.5Z"/>
        <path id="Vector_251" class="st5" d="M228.8,119.3s.4.2.5,0c0,0,.2-.4,0-.5,0,0-.4-.2-.5,0,0,0-.2.4,0,.5Z"/>
        <path id="Vector_252" class="st5" d="M229.9,119.6l-.4.5-1.1.5c-.4,0-.4-.2-.4-.2.9-.7.7-.9.9-.9"/>
        <path id="Vector_253" class="st5" d="M230.7,119.8l-.4.4-.9.4h2.1"/>
        <path id="Vector_254" class="st5" d="M231.6,120.5s.4.2.5,0c0,0,.2-.4,0-.5,0,0-.4-.2-.5,0,0,0-.2.4,0,.5Z"/>
        <path id="Vector_255" class="st5" d="M232.5,120.3s.4.2.5,0c0,0,.2-.4,0-.5,0,0-.4-.2-.5,0,0,0-.2.4,0,.5Z"/>
        <path id="Vector_256" class="st5" d="M233.2,120.9s.4.2.5,0c0,0,.2-.4,0-.5,0,0-.4-.2-.5,0,0,0-.2.4,0,.5Z"/>
        <path id="Vector_257" class="st5" d="M232.2,121s.4.2.5,0c0,0,.2-.4,0-.5,0,0-.4-.2-.5,0,0,0-.2.4,0,.5Z"/>
        <path id="Vector_258" class="st5" d="M232.2,121.6s.4.2.5,0c0,0,.2-.4,0-.5,0,0-.4-.2-.5,0,0,0-.2.4,0,.5Z"/>
        <path id="Vector_259" class="st5" d="M231.5,121.6s.4.2.5,0c0,0,.2-.4,0-.5,0,0-.4-.2-.5,0,0,0-.2.4,0,.5Z"/>
        <path id="Vector_260" class="st5" d="M230.9,121.7l-.9-.4c-.2,0,0-.2,0-.2h1.2"/>
        <path id="Vector_261" class="st5" d="M233.4,121.9s.4.2.5,0c0,0,.2-.4,0-.5,0,0-.4-.2-.5,0,0,0-.2.4,0,.5Z"/>
        <path id="Vector_262" class="st5" d="M232.2,122.5s.4.2.5,0c0,0,.2-.4,0-.5,0,0-.4-.2-.5,0,0,0-.2.4,0,.5Z"/>
        <path id="Vector_263" class="st5" d="M233.1,122.6s.4.2.5,0c0,0,.2-.4,0-.5,0,0-.4-.2-.5,0,0,0-.2.4,0,.5Z"/>
        <path id="Vector_264" class="st5" d="M232.7,122.1s.4.2.5,0c0,0,.2-.4,0-.5,0,0-.4-.2-.5,0,0,0-.2.4,0,.5Z"/>
        <path id="Vector_265" class="st5" d="M232.9,121.4s.4.2.5,0c0,0,.2-.4,0-.5,0,0-.4-.2-.5,0,0,0-.2.4,0,.5Z"/>
        <path id="Vector_266" class="st5" d="M231.3,122.5s.4.2.5,0c0,0,.2-.4,0-.5,0,0-.4-.2-.5,0,0,0-.2.4,0,.5Z"/>
        <path id="Vector_267" class="st5" d="M229.5,123.7c-2.1,0-3.6-.5-3.6-.5-2.3-1.4,0-1.8,0-1.8h3.2c.4.7,1.1.7,1.1.7"/>
        <path id="Vector_268" class="st5" d="M229.3,126.7c-4.4-.5-4.1-2.8-4.1-2.8,2-.7,3.9,2.1,3.9,2.1"/>
        <path id="Vector_269" class="st5" d="M231.8,123.5s.4.2.5,0c0,0,.2-.4,0-.5,0,0-.4-.2-.5,0,0,0-.2.4,0,.5Z"/>
        <path id="Vector_270" class="st5" d="M231.3,123s.4.2.5,0c0,0,.2-.4,0-.5,0,0-.4-.2-.5,0,0,0-.2.4,0,.5Z"/>
        <path id="Vector_271" class="st5" d="M232.5,123.7s.4.2.5,0c0,0,.2-.4,0-.5,0,0-.4-.2-.5,0,0,0-.2.4,0,.5Z"/>
        <path id="Vector_272" class="st5" d="M232.4,123.2s.4.2.5,0c0,0,.2-.4,0-.5,0,0-.4-.2-.5,0,0,0-.2.4,0,.5Z"/>
        <path id="Vector_273" class="st5" d="M233.4,123.3s.4.2.5,0c0,0,.2-.4,0-.5,0,0-.4-.2-.5,0,0,0-.2.4,0,.5Z"/>
        <path id="Vector_274" class="st5" d="M234,122.5s.4.2.5,0c0,0,.2-.4,0-.5,0,0-.4-.2-.5,0,0,0-.2.4,0,.5Z"/>
        <path id="Vector_275" class="st5" d="M234.1,123.2s.4.2.5,0c0,0,.2-.4,0-.5,0,0-.4-.2-.5,0,0,0-.2.4,0,.5Z"/>
        <path id="Vector_276" class="st5" d="M233.2,123.9c.5,0,0,.4,0,.4-2.7.5-4.4,0-4.4,0-.4-.2,0-.4,0-.4,0,0,.4,0,.9-.2"/>
        <path id="Vector_277" class="st5" d="M233.8,125.3c.2-.4-.4-.5-.4-.5,0,0-1.8.5-3.4.4"/>
        <path id="Vector_278" class="st5" d="M234,125.5s.4.2.5,0c0,0,.2-.4,0-.5,0,0-.4-.2-.5,0,0,0-.2.4,0,.5Z"/>
        <path id="Vector_279" class="st5" d="M234.7,125.3s.4.2.5,0c0,0,.2-.4,0-.5,0,0-.4-.2-.5,0,0,0-.2.4,0,.5Z"/>
        <path id="Vector_280" class="st5" d="M234.3,124.8s.4.2.5,0c0,0,.2-.4,0-.5,0,0-.4-.2-.5,0,0,0-.2.4,0,.5Z"/>
        <path id="Vector_281" class="st5" d="M234.8,124.4s.4.2.5,0c0,0,.2-.4,0-.5,0,0-.4-.2-.5,0,0,0-.2.4,0,.5Z"/>
        <path id="Vector_282" class="st5" d="M235.6,124.2s.4.2.5,0c0,0,.2-.4,0-.5,0,0-.4-.2-.5,0,0,0-.2.4,0,.5Z"/>
        <path id="Vector_283" class="st5" d="M234.1,124.1s.4.2.5,0c0,0,.2-.4,0-.5,0,0-.4-.2-.5,0,0,0-.2.4,0,.5Z"/>
        <path id="Vector_284" class="st5" d="M228.3,129c-3.6-1.2-3.4-3.6-3.4-3.6,1.4-.4,3.2,2.8,3.2,2.8"/>
        <path id="Vector_285" class="st5" d="M233.6,126.6c1.2-.5,1.4,0,1.4,0,.2-.2,0-.5,0-.5-.4-.2-1.2,0-1.2,0-.9.4-1.6,0-1.6,0-.9,0-1.1-.9-1.1-.9"/>
        <path id="Vector_286" class="st5" d="M234,127.6c-.5-.5-1.1-.5-1.1-.5h-.9c-.4,0-1.1-.7-1.1-.7-.9-1.1-1.8-1.1-1.8-1.1.5.2.7.7.7.9"/>
        <path id="Vector_287" class="st5" d="M235.2,126s.4.2.5,0c0,0,.2-.4,0-.5,0,0-.4-.2-.5,0,0,0-.2.4,0,.5Z"/>
        <path id="Vector_288" class="st5" d="M235.7,125.5s.4.2.5,0c0,0,.2-.4,0-.5,0,0-.4-.2-.5,0,0,0-.2.4,0,.5Z"/>
        <path id="Vector_289" class="st5" d="M236.1,126.7s.4.2.5,0c0,0,.2-.4,0-.5,0,0-.4-.2-.5,0,0,0-.2.4,0,.5Z"/>
        <path id="Vector_290" class="st5" d="M236.3,127.8s.4.2.5,0c0,0,.2-.4,0-.5,0,0-.4-.2-.5,0,0,0-.2.4,0,.5Z"/>
        <path id="Vector_291" class="st5" d="M235,126.9s.4.2.5,0c0,0,.2-.4,0-.5,0,0-.4-.2-.5,0,0,0-.2.4,0,.5Z"/>
        <path id="Vector_292" class="st5" d="M235.2,127.6s.4.2.5,0c0,0,.2-.4,0-.5,0,0-.4-.2-.5,0,0,0-.2.4,0,.5Z"/>
        <path id="Vector_293" class="st5" d="M233.8,128.3s.4.2.5,0c0,0,.2-.4,0-.5,0,0-.4-.2-.5,0,0,0-.2.4,0,.5Z"/>
        <path id="Vector_294" class="st5" d="M234.8,128.3s.4.2.5,0c0,0,.2-.4,0-.5,0,0-.4-.2-.5,0,0,0-.2.4,0,.5Z"/>
        <path id="Vector_295" class="st5" d="M235.7,128.7s.4.2.5,0c0,0,.2-.4,0-.5,0,0-.4-.2-.5,0,0,0-.2.4,0,.5Z"/>
        <path id="Vector_296" class="st5" d="M229.5,133.3c.5.2.4-.4.4-.4-2.1-2.1-3.9-2.8-3.9-2.8-.5,0,0,.4,0,.4l.7.7"/>
        <path id="Vector_297" class="st5" d="M230.9,132.4c0,.5-.5.4-.5.4,0,0-1.2-1.6-2.7-2.5"/>
        <path id="Vector_298" class="st5" d="M231.1,132.4h.5c0,.2,0,.4-.2.5h-.5c0-.2,0-.4.2-.5Z"/>
        <path id="Vector_299" class="st5" d="M231.6,133h.5c0,.2,0,.4-.2.5h-.5c0-.2,0-.4.2-.5Z"/>
        <path id="Vector_300" class="st5" d="M231.1,133.3h.5c0,.2,0,.4-.2.5h-.5c0-.2,0-.4.2-.5Z"/>
        <path id="Vector_301" class="st5" d="M231.3,133.8h.5c0,.2,0,.4-.2.5h-.5c0-.2,0-.4.2-.5Z"/>
        <path id="Vector_302" class="st5" d="M231.8,134.4h.5c0,.2,0,.4-.2.5h-.5c0-.2,0-.4.2-.5Z"/>
        <path id="Vector_303" class="st5" d="M230.4,133.8h.5c0,.2,0,.4-.2.5h-.5c0-.2,0-.4.2-.5Z"/>
        <path id="Vector_304" class="st5" d="M231.6,131.2c.7,1.2,1.2.9,1.2.9,0,.4-.5.5-.5.5-.5,0-1.1-.9-1.1-.9-.5-.7-1.4-1.1-1.4-1.1-.9-.5-1.6.2-1.6.2"/>
        <path id="Vector_305" class="st5" d="M232.9,130.5h-1.4c-.4-.4-.9-.5-.9-.5-.4-.4-1.4,0-1.4,0-1.4.4-2.3-.2-2.3-.2.7,0,1.2-.2,1.4-.4"/>
        <path id="Vector_306" class="st5" d="M232.9,132.6h.5c.2,0,0,.4-.2.5h-.5c0-.2,0-.4.2-.5Z"/>
        <path id="Vector_307" class="st5" d="M232.9,133.5h.5c0,.2,0,.4-.2.5h-.5c0-.2,0-.4.2-.5Z"/>
        <path id="Vector_308" class="st5" d="M234.1,132.6h.5c0,.2,0,.4-.2.5h-.5c0-.2,0-.4.2-.5Z"/>
        <path id="Vector_309" class="st5" d="M235,131.5h.5c0,.2,0,.4-.2.5h-.5c0-.2,0-.4.2-.5Z"/>
        <path id="Vector_310" class="st5" d="M233.2,131.7h.5c0,.2,0,.4-.2.5h-.5c0-.2,0-.4.2-.5Z"/>
        <path id="Vector_311" class="st5" d="M234,131.2h.5c0,.2,0,.4-.2.5h-.5c0-.2,0-.4.2-.5Z"/>
        <path id="Vector_312" class="st5" d="M233.1,129.6h.5c0,.2,0,.4-.2.5h-.5c0-.2,0-.4.2-.5Z"/>
        <path id="Vector_313" class="st5" d="M234.3,130.3h.5c0,.2,0,.4-.2.5h-.5c0-.2,0-.4.2-.5Z"/>
        <path id="Vector_314" class="st5" d="M235.2,130.5h.5c0,.2,0,.4-.2.5h-.5c0-.2,0-.4.2-.5Z"/>
        <path id="Vector_315" class="st5" d="M232.9,128.5c.4.4,0,.4,0,.4-2.3-.5-3.6-1.4-3.6-1.4-.2-.4,0-.2,0-.2h.7"/>
        <path id="Vector_316" class="st5" d="M232.2,129.8c.4-.4,0-.5,0-.5,0,0-1.8,0-3.2-.9"/>
        <path id="Vector_317" class="st5" d="M233.8,130.6c0-.2,0-.4-.4-.4s-.4,0-.4.4,0,.4.4.4.4,0,.4-.4Z"/>
        <path id="Vector_318" class="st5" d="M233.6,131.4c0-.2,0-.4-.4-.4s-.4,0-.4.4,0,.4.4.4.4,0,.4-.4Z"/>
        <path id="Vector_319" class="st5" d="M232.7,131c0-.2,0-.4-.4-.4s-.4,0-.4.4,0,.4.4.4.4,0,.4-.4Z"/>
        <path id="Vector_320" class="st5" d="M236.4,129.9c0-.2,0-.4-.4-.4s-.4,0-.4.4,0,.4.4.4.4,0,.4-.4Z"/>
        <path id="Vector_321" class="st5" d="M235.7,130.1c0-.2,0-.4-.4-.4s-.4,0-.4.4,0,.4.4.4.4,0,.4-.4Z"/>
        <path id="Vector_322" class="st5" d="M235,129.8c0-.2,0-.4-.4-.4s-.4,0-.4.4,0,.4.4.4.4,0,.4-.4Z"/>
        <path id="Vector_323" class="st5" d="M234.3,129.6c0-.2,0-.4-.4-.4s-.4,0-.4.4,0,.4.4.4.4,0,.4-.4Z"/>
        <path id="Vector_324" class="st5" d="M237,129.2c0-.2,0-.4-.4-.4s-.4,0-.4.4,0,.4.4.4.4,0,.4-.4Z"/>
        <path id="Vector_325" class="st5" d="M234.8,127.4c0-.2,0-.4-.4-.4s-.4,0-.4.4,0,.4.4.4.4,0,.4-.4Z"/>
        <path id="Vector_326" class="st5" d="M235.6,129c0-.2,0-.4-.4-.4s-.4,0-.4.4,0,.4.4.4.4,0,.4-.4Z"/>
        <path id="Vector_327" class="st5" d="M234.8,128.9c0-.2,0-.4-.4-.4s-.4,0-.4.4,0,.4.4.4.4,0,.4-.4Z"/>
      </g>
      <g id="Musculoskeletal">
        <path id="Vector_328" class="st9" d="M232.2,72.9c0,12.5-10.9,22.8-24.4,22.8s-24.4-10.3-24.4-22.8,10.9-22.8,24.4-22.8,24.4,10.3,24.4,22.8Z"/>
        <g id="module204">
          <g id="Knee">
            <path id="Vector_329" class="st17" d="M219.4,62.4h-6.4l-1.4.4-.9.5-.4.5v.7l.4.7.5.7.7.7.7.9.4,1.1v1.1c.2,0,.2,1.2.2,1.2v1.2l-.4,1.1v1.1c-.2,0-.5.9-.5.9l-.5,1.6-.4,1.1v1.1c-.2,0-.4,1.1-.4,1.1v1.1l-.2.7v.7l.5.9v.5c.2,0,.4.5.4.5v1.1l-.4.5-.5.4-.9.4h-1.2l-1.1.4h-1.1c0,.2-1.1.5-1.1.5l-1.1.4-.9.4-.7.4h-.5v.4h-.7c0,.2-.5.2-.5.2h-1.8v-.2h-.7v-.2h0c0-.2-.5-.2-.5-.2h-.4v-.5h0c0-.2-.5-.2-.5-.2h-.4c0-.2-.2-.5-.2-.5h0v-.4h0c0-.2.4-.4.4-.4h2.1l.5-.2h.7c0-.2.7-.5.7-.5l.7-.4.7-.5.7-.5.7-.7.7-.7.5-.9v-1.1c.2,0,.4-1.1.4-1.1v-1.1l-.4-1.1-.4-.9-.4-.9v-.7c-.2,0-.7-1.4-.7-1.4l-.5-1.6-.4-1.6v-1.2c-.2,0-.4-.9-.4-.9v-.5l-.4-.5v-.4c-.2,0-.5-.7-.5-.7v-1.1l-.2-.4v-.4c-.2,0-.5-.4-.5-.4v-.5c-.2,0-.4-.7-.4-.7v-2l.4-.4.4-.4.4-.4.4-.4.5-.4.5-.4.5-.4.5-.4.5-.4h.5c0-.2.5-.5.5-.5l.5-.4.5-.4.5-.4h.4c0-.2.4-.4.4-.4h.5c0-.2.5-.5.5-.5h.5c0-.2.5-.5.5-.5h.5"/>
          </g>
          <g id="Layer_6">
            <path id="Vector_330" class="st17" d="M207,64.2h.5v-.2.5c.2,0-.2.2-.2.2h-.4v1.4h.4v1.4c-.2,0-.4,1.6-.4,1.6v.7l.5,1.8.4.7.5,2.1.4.7v2c.2,0,0,.9,0,.9v.4c-.2,0-.9.2-.9.2v-2.3l-.2-1.1-.4-1.1-.7-2-.7-2.5-.4-1.8-.4-.7h-.2l-.2-.9v-.7l.4-1.1h0v-.4h1.2c0-.2.2-.2.2-.2l.4.2.2.2h0Z"/>
            <path id="Vector_331" class="st17" d="M209.1,64.5v4.8l.5,1.8v.9l.5,1.6v5l.2.9h0c0,.2-.4.5-.4.5h0l-.5-.5-.5-.7.4-.5v-.9c.2,0,0-1.6,0-1.6v-.4c.2,0,.2-1.2.2-1.2v-1.2l-.5-1.8v-2c-.2,0,0-.7,0-.7v-1.1c-.2,0,0-.5,0-.5v-.5c-.2,0-.5-.4-.5-.4h0l-.4-.5v-.7l.5-.4h.4c0-.2.7-.2.7-.2h.2l-.7.4h0Z"/>
            <path id="Vector_332" class="st5" d="M210,61.8c-1.6.4-2.1.9-2.1.9-.2,0,0,.5,0,.5,0,.4-.5.5-.5.5-.9.4-1.2,0-1.2,0-2-1.6,0-3,0-3,.4-.4,1.4,0,1.4,0,0,0,2-.5,3-.5"/>
            <path id="Vector_333" class="st5" d="M204.5,61.5v2.1c0,.5-.7.9-.7.9-.4,0-.7-.5-.7-.5-.9-2,0-2.7,0-2.7.5-.5,1.2-.4,1.2-.4v.5h.2Z"/>
          </g>
        </g>
      </g>
      <g id="Nerves">
        <g id="Vector_334">
          <path class="st10" d="M156.6,63.5c14.2,0,25.8-10.9,25.8-24.2s-11.6-24.2-25.8-24.2-25.8,10.9-25.8,24.2,11.6,24.2,25.8,24.2Z"/>
          <path class="st12" d="M181,39.5c0,12.5-10.9,22.8-24.4,22.8s-24.4-10.3-24.4-22.8,10.9-22.8,24.4-22.8,24.4,10.3,24.4,22.8Z"/>
        </g>
        <path id="Vector_335" class="st8" d="M143.1,39c0,.5-.5,1.4-.4,2,0-.2,0-.5.2-.7h0c0,.2.4.4.5.5h0c-.4-.2-.4-.5-.5-.7,0-.7.4-1.1.7-1.4h0s.4.4.5.4h.5c.2,0,.2.4.5.4,0,.2.2.5.4.7,0,.2.2.7.4.9v.4h0s-.5.5-.7.5h0l-.4.4h0l-.4-.2h0s.4,0,.4.4c-.2,0-.5.4-.5.5h.4v-.2h.2c.7,0,1.1-.9,1.6-1.1v.4h0v1.4h0s-.2.2-.2.4h.2c-.2-.5,0-1.4,0-2.1h.2c.2,0,.4.2.5.2h0s-.4,0-.5-.4v-2l.4-.4s.9-.4,1.1-.5l.4-.4c.5-.4,2.1,0,3,0h.4c.5,0,1.1.2,1.6.4.2,0,.5.4.9.4h.9c.7,0,1.6.2,2.5.4h.2l1.6.5s.5.2.7.4h.7c.5.4,1.8.7,2.8.9.2,0,.5.2.9.2h1.2c.7,0,2.8.5,3.4.9h.7v.2s.4,0,.4.2h0c.4.4.5.5.7.7,0,.2.9.4,1.1.7,0,0,0,1.8-.2,2.3h.2v-2.3h0v.2c.4.5.4,1.4.5,2h0v.7h0v-.2h0c0-.4-.2-1.4,0-1.4,0,0-.2-.5,0-.5,0-.2-.2-.4-.2-.5h0c.2.4.5.2.7.4,0,0,.4.4.5.4h0s0,.4.4.4v.2h-.2v-.2c-.2-.4-.7-.5-1.1-.9-.2,0-.4,0-.5-.2.4,0,.5-.4.7-.7h.4v-.2h0c0,.4-.9.5-1.1.9h-.7c0-.2-.4-.2-.4-.4h0c-.2-.4-.7-.7-1.2-1.1h1.1c.9,0,2.1,0,2.7.5.2.4.5.4.7.7h.2v-.2h-.4c-.4-.5-.7-.5-1.4-1.1h0l.9-.4c.4-.2.5-.4.9-.5v-.2h-.2c-1.1,1.1-2.5,1.2-4.4.7h0s.4,0,.5-.2h0c.4-.2.4,0,.7-.2.4,0,.5-.4.9-.5.2.2.7.2.9.5v.4h0c0-.4-.4-.5-.7-.7h-.4,1.2c.2,0,.5.2.7.2h-1.6c.4-.2.9-.9.9-.9.2,0,.4-.5.4-.5,0,0,.4-.4.4-.5h-.2c0,.4-.2.5-.4.7-.2.5-1.8,1.6-2.5,2,0,0-1.4.4-1.6.4-.4,0-1.1-.5-1.6-.5s-1.1-.4-1.6-.4-1.8-.2-2-.4h-.9c-.4,0-.9,0-1.4-.4h-1.4c-.5-.2-1.1-.4-1.6-.7h-.5c-.7-.4-1.8-.5-2.5-.5h-2.1c-.5,0-1.2-.4-1.6-.4h-.2c-.2,0-.5,0-.7-.2-.2,0-.7-.4-.9-.4,0,0-.5-.4-.7-.2h0c0-.2-.2-.2-.4-.4h0c0-.2-.4-.4-.4-.5v-.5h0v-.2h0c0-.4.2-.5.4-.9,0-.5.9-1.1,1.2-1.4.2,0,.7.2.9.2h0c-.2,0-.7-.2-.7-.4h0v-.2h0c.2,0,.4-.5.5-.5,0,0,.7-.4.7-.5h-.2c0,.2-1.2,1.1-1.4,1.1h-.4v-1.1,1.1c-.2,0-.5.4-.7.4h0s-.9.2-1.1,0c-.2,0-.7,0-.7-.4s.9-1.4,1.1-1.4h.9-.7c0-.4.4-.4.5-.5h0c0,.2-1.2,1.2-1.4,1.2,0-.4-.4-1.6-.7-1.8h0c0,.4.4.7.4.9h0s-.4-.4-.5-.2c.7,0,1.1.7.9,1.2,0,0,0,.4-.4.5l-.7-.4s-.4-.5-.4-.7l-.2-.2h0v-.4h0v-.7l.9-.7h-.2c.4,0,.7-.4.9-.5h-.2v-.7c.2,0,0,0,0,0,0,0,0,.9-.2.9-.4.2-.7.5-1.2.7h0c0-.5,0-1.2.4-2.1h0s-.2,1.6-.4,1.8h0c0-.4-.4-.7-.4-.7h0s.2.4.4.4h0s.4.4.5.5h0l-.7-.4h.2c.2.2.4.2.5.4,0,0-.2.9-.4,1.1-.4.5-.7,1.2-1.2,1.4-.4,0-.5-1.1-.7-1.2h0c.2.4.5.9.5,1.2h0s-.7-.9-.9-.9h0s.4.5.5.7h-.7c.4,0,.9,0,1.1.4h0v.2h-1.1c-.2,0-.4,0-.5-.2h-.4s-.4-.2-.5-.4v-1.1h0c0,.4,0,.7-.2.9-.5-.2-.9-.7-1.1-.7,0,0,0-.2-.2-.2h0c.2,0,1.1.9,1.1.9h0c-.4,0-.5.2-.7.2h1.1s.4.5.5.5h0c.4.7.7,1.1.5,2h-.5v-.7s.2,0,0,0h-.2s0-.4,0,0v.7c-.4,0-.5,0-.9-.2v-.5.5h-.7c.4,0,.7.2,1.1.4h0c-.4.2-.7.7-1.1.9h0s.2,0,.4-.4h0v.5h0v-.5c.4-.5.9-.5,1.6-.4h0v.7l-.2.4c0,.2-.5.7-.9.9-.2,0-.4.5-.7.5,0-.2-.4,0-.5-.4-.2-.4-.5-.5-.7-.7v-.5h0v.4h-.2c.4,0,.4.5.9.5h0s.5.4.5.5h0s-.4,0-.4-.2h.4v.4c-.4,0-.9.7-1.2.7,0,0-.7,0-.7-.2h0s-.5-.2-.7,0c.4,0,1.6.2,1.6.5h0c0-.2.9-.5,1.2-.9h.5c0,.4-.4,1.2-.5,1.8h0v.2h0c0-.2.4-2,.7-2s2-.4,2.5.4c0,0,.4,0,.4.2,0,0-.2.4-.4.5-.5.4-1.1.2-1.6,0h0s.5.4.5.5h0c-.2,0-.5,0-.9.2h0c.4,0,1.6-.5,1.8-.4h0l-1.4-2.1v-.2h0Z"/>
      </g>
      <g id="Gastrointestinal">
        <path id="Vector_336" class="st9" d="M116.6,45.3c0,12.5-10.9,22.8-24.4,22.8s-24.4-10.3-24.4-22.8,10.9-22.8,24.4-22.8,24.4,10.3,24.4,22.8Z"/>
        <path id="Vector_337" class="st11" d="M87.8,26.4h2.3l.4,1.2v3.4l-.4.9v.7c-.2,0-.5.5-.5.5l-.4.4-.4.5-.4.5-.4.9v2.7c.2,0,.5.7.5.7v.9c.2,0,.4.7.4.7v.7l.4.9v1.1c.2,0,.4,1.1.4,1.1l.4.9.4.7.5.5.5.4.4.4.7.5.7.4h.4l.7.2h.7l.5.4.5.4.5.4h1.6c0-.2.4-.7.4-.7v-.4l.2-.4.5-.4h.4c0-.2.4-.4.4-.4h.7c0-.2.2-.4.2-.4h.4l.5-.2h1.1c0,.2.4.2.4.2h.2c0-.2.5-.2.5-.2h.4l.4.2h.4v.5h1.1l.4.2h.4c0,.2.4.5.4.5v.4h.7l.4.2.4.5v.9h.4v.7l.4.5v.4l-.2.2h.2l.2.4v1.4c-.2,0,0,0,0,0h0v1.1l-.2.5-.4.5h0v1.2c-.2,0-.5,1.2-.5,1.2h-3.4v-.9l.4-.9v-.7c.2,0,.4-.2.4-.2h.2l-.4-.9v-.7h0l.2-.2-.5-.7v-.9h0v-.7h-.7c0-.2-.4-.7-.4-.7v-.4c-.2,0,0,0,0,0h0l-.4-.2h-1.4l-.4-.2h0l-.2-.2h-.4l-.5.5h-1.1l-.7-.4h-.7c0-.2-.5,0-.5,0l-.4.4v.4c-.2,0-.4.5-.4.5v1.6l-.5.4-.4.5-.7.5-.9.5-1.1.4-1.2.4h-1.4c0,.2-1.8.4-1.8.4h-1.8l-1.6-.5-1.4-.5-1.2-.7-1.1-.7-.9-.7-.7-.7-1.1-1.1-2-1.6-1.8-1.6-.5-.7-.5-.9-.7-1.1-.5-1.2-.5-1.4-.5-1.6v-2c-.2,0-.2-1.6-.2-1.6v-1.4c.2,0,.5-1.2.5-1.2l.7-.9.9-.7,1.1-.5,1.2-.4,1.6-.4h1.2l1.1.5,1.1.5,1.1.5h1.6c0-.2.5-.7.5-.7l.4-.4.5-.9.5-1.1v-1.4c.2,0,.4-2.1.4-2.1l1.2-.2-.5.2h0Z"/>
        <path id="Vector_338" class="st14" d="M81.2,47c0-1.1.7-.2.9-1.1"/>
        <path id="Vector_339" class="st14" d="M81.7,45.6c-.5.4.2.7,0,1.1"/>
        <path id="Vector_340" class="st14" d="M82.6,47.8c-1.1,0-1.8-1.1-2.5-1.6-.9-.5-1.6-3.7-1.2-5.7.4-2.3,1.8-5,4.6-5.2"/>
        <path id="Vector_341" class="st14" d="M82.1,35.5c.7,0,.5.9,1.1,1.1"/>
        <path id="Vector_342" class="st14" d="M83.5,36.2c-.2-.2-.5-.2-.9-.4"/>
        <path id="Vector_343" class="st14" d="M82.1,36.4c-.5.4-.9.7-1.6.4"/>
        <path id="Vector_344" class="st14" d="M81.2,36.7c.5,0,.5.7.9,1.1"/>
        <path id="Vector_345" class="st14" d="M83,37.4c-.7,0-.5-.7-1.2,0"/>
        <path id="Vector_346" class="st14" d="M79.4,38.5c1.6-.4.9.2,1.6.4"/>
        <path id="Vector_347" class="st14" d="M80.3,38.9c-.4,0-.5,0-.5-.5"/>
        <path id="Vector_348" class="st14" d="M79,39.2c-.4,0-.9,0-.9-.4s-.7,0-.7-.7"/>
        <path id="Vector_349" class="st14" d="M77.1,39.2c.5.4.7-.4,1.1,0"/>
        <path id="Vector_350" class="st14" d="M78.7,40.3c.9-.4.2.4,1.2.4"/>
        <path id="Vector_351" class="st14" d="M80.5,40.5c-.7-.9-.5-.4-1.4-.2.5,0,.5-.9.9-.9"/>
        <path id="Vector_352" class="st14" d="M78.7,40.8c-.7,0-1.1-.5-1.4-.5"/>
        <path id="Vector_353" class="st14" d="M77.3,41.2c0-.2.2-.5.4-.7"/>
        <path id="Vector_354" class="st14" d="M76.9,41.7c.5.4,1.2.5,1.8,1.1"/>
        <path id="Vector_355" class="st14" d="M78,41.5v.9c-.5,0-.4-.2-.5,0"/>
        <path id="Vector_356" class="st14" d="M78.7,41.9c.4-.4.9,0,1.2,0s.4.2.5.2"/>
        <path id="Vector_357" class="st14" d="M79.6,42.2v-.5c0-.2.4-.4.4-.7"/>
        <path id="Vector_358" class="st14" d="M80.6,42.8c-.7.5-.9.4-1.8.4"/>
        <path id="Vector_359" class="st14" d="M79.9,42.2c-.5,0,0,.9-.7.9.9.5,0,.5,1.4.7"/>
        <path id="Vector_360" class="st14" d="M79,44.6c-.9-1.4-.9-.4-1.8-.9"/>
        <path id="Vector_361" class="st14" d="M77.6,42.9c.5,0,.2.7.7.9"/>
        <path id="Vector_362" class="st14" d="M79.4,45.3c.9-.7.7.7,1.2,0"/>
        <path id="Vector_363" class="st14" d="M80.6,44.6c-.4,0-.4.5-.7.5"/>
        <path id="Vector_364" class="st14" d="M81.4,46.7c0-.9-.5.2-.4-1.1"/>
        <path id="Vector_365" class="st14" d="M79.7,37.8c.2-1.1-.9-2.1-.4-3"/>
        <path id="Vector_366" class="st14" d="M78.7,34.9c.4,0,.5.4.5.7"/>
        <path id="Vector_367" class="st14" d="M79.6,34.9c0,.2.4.4.2.5"/>
        <path id="Vector_368" class="st14" d="M80.3,35.1c-.4.5-.5,0-.9,1.1-.4-.2-.7-.5-1.1-.9"/>
        <path id="Vector_369" class="st14" d="M78.3,35.8c.4.5.9.4,1.2.9"/>
        <path id="Vector_370" class="st14" d="M79.4,36.2c.4-.5,1.1,0,1.1-.7"/>
        <path id="Vector_371" class="st14" d="M81.4,35.8c.5-.4.4-1.2.9-1.8"/>
        <path id="Vector_372" class="st14" d="M81.9,33.7v.9"/>
        <path id="Vector_373" class="st14" d="M81.9,34.9c.4-.4.9.2.9-.4"/>
        <path id="Vector_374" class="st14" d="M82.4,34.2c0,.2,0,.4-.4.5"/>
      </g>
      <g id="repro_organs">
        <path id="Vector_375" class="st9" d="M76.4,90.5c0,12.5-10.9,22.8-24.4,22.8s-24.4-10.3-24.4-22.8,10.9-22.8,24.4-22.8,24.4,10.3,24.4,22.8Z"/>
        <g id="repro_organs-2">
          <g id="repro_organs2">
            <path id="Vector_376" class="st17" d="M43.4,99.4v8.7M40.6,86.4v.4l-.2.5v2.7h0v3.7h0v.5h0v.5h0v.5h0c0,.2.2.4.2.4h.2l.2.4h.2l.2.4h.2l.2.2"/>
            <path id="Vector_377" class="st16" d="M40.6,83.7v.4c.2,0,.4.4.4.4v.4c.2,0,.5.4.5.4h.4c0,.2.2.5.2.5h.4c0,.2.4.4.4.4h.4c0,.2.4.4.4.4v-2.7l-.2-.4v-.4l-.4-.4v-.4c-.2,0-.4-.4-.4-.4v-.4h-.9l-.2.2h-.2v.4h0v.4h0v.4h0v.4h0v.4h0v.4h0l-.7-.2v-.2h-.1Z"/>
            <path id="Vector_378" class="st17" d="M45.7,86.4v.4l.2.5v2.7h0v3.7h0v.5h0v.4h0v.5h0l-.2.4h-.2l-.2.4h-.2l-.2.4h-.4l-.2.2"/>
            <path id="Vector_379" class="st16" d="M45.7,83.7v.4c-.2,0-.4.4-.4.4v.4c-.2,0-.5.4-.5.4h-.2c0,.2-.4.5-.4.5h-.4c0,.2-.4.4-.4.4h-.4c0,.2-.4.4-.4.4v-2.5l.2-.4v-.4l.4-.4v-.4l.4-.4v-.4h.9l.2.2h0v.4h0v.4h0v.4h0v.4h0v.4h0v.4h0l.9-.4v-.2s0,0,.1,0Z"/>
            <path id="Vector_380" class="st18" d="M43.8,97.1v-1.6l-.2-1.6v-11.6l.2-.4v-.4l.2-.4v-.4c.2,0,.4-.2.4-.2h.2c0-.2.2-.5.2-.5h.2c0-.2.2-.4.2-.4h.2l.2-.4h.4l.4-.4h2l.2.2h.2v.4h0v.4h0v.7l.2.2v2.7l-.2.4h0v.5h0l-.4.5-.4.4v.5c-.2,0-.5.5-.5.5v.5c-.2,0-.4.5-.4.5v.5c-.2,0-.4.5-.4.5v.5l-.2.5v.5l-.2.5v3.7h.7v-4.3l.2-.5v-.5l.4-.5v-.5l.4-.5v-.5c.2,0,.4-.5.4-.5v-.5c.2,0,.5-.5.5-.5l.4-.5.4-.4h0v-.7l.2-.4v-2.7l-.2-.4v-.4l-.4-.4h-.2l-.2-.4h-.2l-.2-.4h-.2l-.2-.2h-.2l-.2-.2h-2l-.4.4h-.5c0,.2-.5.4-.5.4h-.5c0,.2-.4.4-.4.4h0v-.4h0v-.4h0v-.4h0v-.4h0v-.2h0v-.2h0v-.4h0v-.4h0l.2-.4h0v-.7h0c0-.2-.4-.5-.4-.5h-.4v.4c-.2,0-.4.2-.4.2v.4l-.2.4h-.2v2.1h0v2.7l-.4.4v.4h-.4v-.4l-.4-.4v-2.3h0v-1.1h0v-.4h0v-.4h0v-.4h0v-.4h0v-.2h0v-.4h0v-.4h0v-.4h0v-.2h0v-.2h0v.2h0v.2h0v.4h0v.4h0v.2h0v.2h0v.2h0v.4h0v.4h0v.2h0v.2h0v.4h0v.4h0v.4h0v.4h-.2l-.5-.4h-.5c0-.2-.4-.4-.4-.4l-.4-.4h-2.3l-.2.2h-.2l-.2.2h-.2l-.2.4h-.2v.4h0v.4c-.2,0-.4.4-.4.4v.4l-.2.4v2.5l.2.4v.4l.2.2h0l.4.5.4.5.4.5v.5c.2,0,.5.5.5.5v.5c.2,0,.4.5.4.5v.5c.2,0,.4.5.4.5v.5l.2.5v4.3h.5v-4.3l-.2-.5v-.5l-.4-.5v-.5c-.2,0-.4-.5-.4-.5v-.5c-.2,0-.5-.5-.5-.5v-.5c-.2,0-.5-.5-.5-.5l-.4-.4-.4-.4h0v-.9l-.2-.4v-2.3l.2-.2v-.4l.2-.2h0v-.4h0v-.4h.2l.2-.4h2.7l.2.4h.4l.2.4h.2c0,.2.2.4.2.4h.2c0,.2.2.5.2.5v.4l.4.4v.4l.2.4v13.2l-.2,1.6h1.1l2,.2v.3h0Z"/>
            <path id="Vector_381" class="st16" d="M40.1,95.3h0v-.4h0v-.4h0v-.2h-.5l-.4.4h0v2h0v.5h0v.4l2.1-2-1.2-.4h0Z"/>
            <path id="Vector_382" class="st16" d="M38.5,98.1h0v.4h0l.2.4h.2l.2.2h1.8v-.2h0v-.4h0v-.4h0v-.4h0v-.4h0v-.2h0v-.2h-.2v-.4h-.2v-.4h0v-.4h0v-.4h0v-.4h0v-.2h-.4l-.4.2h-.2c0,.2-.2.4-.2.4h0v.4h0v.4h0v.4h0v.4h0v.4h0c0,.2.5,1.1.5,1.1l-1.4-.4h.1Z"/>
            <path id="Vector_383" class="st16" d="M46.3,95.3h0v-.4h0v-.4h0v-.2h.5v.4c.2,0,.4.2.4.2h0v2.5h0l-2.1-2,1.2-.2h0Z"/>
            <path id="Vector_384" class="st16" d="M47.9,98.1h0v.4h-.2v.4h-.2l-.2.2h-1.8v-.2h0v-.4h0v-.4h0v-.4h0v-.4h0v-.2h0v-.2h.2l.2-.4h0v-.4h0v-.4h0v-.4h0v-.4h0v-.2h.4l.4.2h.2c0,.2.2.4.2.4h0v.4h0v.4h0v.4h0v.4h0v.4h0c0,.2-.5,1.1-.5,1.1l1.4-.4h-.1Z"/>
            <path id="Vector_385" class="st17" d="M50.7,86h-.2l-.2.4v.4c-.2,0-.4.4-.4.4v.4c-.2,0-.4.4-.4.4v.4c-.2,0-.4.4-.4.4v.4l-.2.4v4.3l.2.7v.7l.2.7v2.3l-.2.4v.4l-.4.4v.4c-.2,0-.4.2-.4.2h-.2c0,.2-.2.4-.2.4h-.2l-.2.4h-2.1l-.2-.2h-.2l-.4-.2h-.4l-.4-.4h-.5l-.4.4h-.4v.2h-.4l-.2.2h-2.1l-.2-.4h-.2l-.2-.4h-.2v-.9l-.4-.4v-.4l-.2-.4v-2.7l.2-.7v-.7l.2-.7v-3.4l-.2-.4v-.4l-.2-.4v-.4l-.4-.4v-.4c-.2,0-.4-.4-.4-.4v-.4c-.2,0-.5-.4-.5-.4h-.2"/>
            <g id="Layer_6-2">
              <path id="Vector_386" class="st17" d="M61.8,90.7v-.4M62.1,108.1v-6.6l-.2-6.4M66.2,86.2l-.4.4-.4.5-.4.5-.4.5-.4.5-.4.5-.4.5-.4.5-.4.5h0M60.3,90.7l-.4-.5-.4-.5-.4-.5-.4-.5-.4-.5-.4-.5-.4-.5-.4-.5-.4-.5"/>
              <path id="Vector_387" class="st11" d="M60.3,90.7v.4l.4.4v.4c.2,0,.4.4.4.4v.4l.4.4v.4l.4.4v.5l.2.4v.5-.7l.2-.4v-.5l.2-.4v-.5l.4-.4v-.5l.4-.4v-.5c.2,0,.4-.4.4-.4h-.7l-2.3.4-.4-.3h0Z"/>
              <path id="Vector_388" class="st11" d="M62.8,83.5h0v.2h0v.2h0v.2h0v.4h0v4.4l-.2.7v.7h-2.3v-1.4l-.2-.7v-3.6h0v-.4h0v-.2h0v-.2h0v-.2h0v-.2h2.7Z"/>
              <path id="Vector_389" class="st17" d="M60.5,83.5h0v.2h0v.2h0v3.9l.2.7v.7l.4.7h0M62.8,83.5h0v.2h0v.2h0v3.9l-.2.7v.7l-.4.7h0"/>
              <path id="Vector_390" class="st11" d="M61.8,84.4h.5v-.2h0v-.2h0v-.2h0v-.4h0v-.4l.5-.4.5-.7h3.7v-.2h0v-.2h0v-.2h0l.4-.4h0v-.2h0v-.4h0v-.4h0v-.4h0v-.4h0v-.4h0v-.2h0v-.2h-2l-.4.2h-.4l-.4.4h-.4v.2h-1.4l-.4-.2h-2.1l-.4.2h-.4l-.4.2h-.4l-.4-.2h-.4l-.4-.4h-.4l-.4-.2h-1.6v.2h0v.2h0v.4h0v.4h0v.4h0v.4h0v.4h0v.2h.4v.4h0v.2h0v.2h0v.2h3.6l.5.7.5.4h0v.4h0v.4h0v.2h0v.2h0v.2h.2l1.2-.2h.7Z"/>
              <path id="Vector_391" class="st11" d="M54.6,80h1.6l.2.2h0v.2h0v.2h0v.4h0v.4h-2.5v-.2h0v-.4h0v-.4h0v-.2h0v-.2h.7Z"/>
              <path id="Vector_392" class="st17" d="M54.6,80.2h0v1.1c.2,0,.5.4.5.4M54.8,81.4h-.4c0-.2-.2-.4-.2-.4v-.4h-.4M53.6,80.7v.4l.4.2h0l.4.4M53.4,81.1h.2c0,.2.4.4.4.4h0M52.9,80.5v.5h.4c0,.2.2.4.2.4M52.9,81.4h0"/>
              <path id="Vector_393" class="st11" d="M68.9,80h-1.6l-.2.2h0v.2h0v.2h0v.4h0v.4h2.5v-.2h0v-.4h0v-.4h0v-.2h0v-.2h.2-.9Z"/>
              <path id="Vector_394" class="st17" d="M68.9,80.2h0v1.1c-.2,0-.5.4-.5.4M68.5,81.4h.4c0-.2.2-.4.2-.4v-.4h.4M69.8,80.7v.4l-.4.2h0l-.4.4M70,81.1h-.2c0,.2-.4.4-.4.4h0M70.7,80.5v.5h-.4c0,.2-.2.4-.2.4M70.5,81.4h0M59.5,81.9h0v.5h.2v.4M60.2,82.3h0v.4h.2v.2M60.7,82.3h0v.2h0M61.1,82.3h.2v.4h0M61.8,82.3h0v.4h0M62.5,82.1v.4l-.2.2h0M63,82.3h-.2v.4h0M63.5,82.3h-.2v.4h0"/>
            </g>
          </g>
        </g>
      </g>
      <g id="Cell">
        <path id="Vector_395" class="st9" d="M82.8,149c0,13.5-12.1,24.7-27.2,24.7s-27.2-11.2-27.2-24.7,12.1-24.7,27.2-24.7,27.2,11.2,27.2,24.7Z"/>
        <path id="Vector_396" class="st5" d="M40.3,132.1s-.4.4-.7.7c-.7.7-1.2,1.2-1.4,1.2-.9.5-5.3,3.6-5.9,7.3-.2,1.2,0,2.5.2,3.9.4,2.5.7,5,1.1,7.5,0,.9.2,1.6.7,2.5.4.7.9,1.4,1.4,2,3,3.7,5.5,8.2,9.8,10.5,3,1.6,6.8,2,10.1,2s5.5,0,8.2-.7,5.2-2,6.9-4.1c.9-1.1,1.4-2.3,2.3-3.4,2-2.7,4.8-4.6,5.9-7.7.5-1.2.5-2.5.5-3.9,0-6.9-3.4-14.1-9.3-18.3-3.7-2.8-8.4-4.6-13.2-4.6s-3.4,0-5,.4c-1.8.2-4.4.7-7.5,2.1-1.1.5-2.7,1.4-4.4,2.7h.3Z"/>
        <path id="Vector_397" class="st5" d="M69.6,138.5c.7.4,1.2.9,1.6,1.4.7,1.1.9,2.1,1.2,3.4,0,.7.4,1.2.5,2,.2,1.1.5,2.3.2,3.4,0,.2-.2.5-.5.7h-1.6c-.2,0-.4-.4-.5-.5-.4-.4-.5-.5-.7-.9,0-.4-.2-.7-.2-1.1,0-.9,0-1.8-.4-2.7,0-.9-.5-1.8-1.1-2.5s-1.1-.9-1.2-1.8v-1.1s.2-.5.5-.5h.7c.4,0,.9,0,1.2.2h.3Z"/>
        <path id="Vector_398" class="st5" d="M69.3,139.2h.9v.5c0,.2,0,.4-.2.5h1.1s.2.4,0,.4c0,.2-.4.2-.5.4-.2,0-.4.2-.4.4h.7c.4,0,.7.4.7.7s-.2.7-.5,1.1h1.1s.2.4.2.5v.5s-.2.4-.4.4c.2,0,.4.2.4.5s0,.4-.4.5h-.2s0,.2.2.2h.4c.2,0,.2.4.2.5s0,.5-.2.7h-.4c-.2,0-.4,0-.4.2h.9-1.1c-.2,0-.5-.2-.5-.5s0-.5.2-.5h.7c.2,0,.5,0,.5-.4s-.2-.4-.4-.4h-.5c-.2,0-.4,0-.5-.2v-.5h.4c.2,0,.2-.4,0-.5h-1.1v-.7h1.8l.2-.2v-.4h-1.8v-.7h.5c.4,0,.5-.4.7-.5,0-.2,0-.5-.2-.5h-1.1c-.4,0-.7,0-.5-.4,0,0,0-.4.4-.4,0,0,.2-.4,0-.5h-1.1v-.5h.2c.4,0,.5-.4.5-.7h-.2c-.5,0-.9.2-1.4.4v-1.1h1.4l-.4,1.2h.1Z"/>
        <path id="Vector_399" class="st5" d="M64.7,141.7c.5,0,.9.4,1.1.7.5.5.7,1.2,1.1,2,0,.4.4.7.5,1.2.2.7.5,1.4.4,2.1,0,0,0,.4-.2.5h-.9s-.4,0-.4-.2c-.2,0-.4-.4-.5-.5,0-.2-.2-.4-.2-.7,0-.5-.2-1.1-.4-1.6,0-.5-.4-1.1-.9-1.4-.4-.4-.7-.5-.9-.9v-.7s0-.4.4-.4h1.2l-.4-.2h.1Z"/>
        <path id="Vector_400" class="st5" d="M64.5,142.2h.5v.7h.4v.2s-.2,0-.4.2c0,0-.2.2,0,.4h.4c.2,0,.5,0,.5.4s0,.5-.2.7h.7v.7s0,.2-.2.2c0,0,.2,0,.2.2v.4h.2s.2.2.2.4v.5h-.4.5-.7s-.4,0-.4-.2v-.4h.4s.4,0,.4-.2,0-.2-.4-.2h-.7v-.4h.2v-.4h-.7v-.4h.2c.4,0,.7,0,.9-.2v-.2h-1.1v-.4h.4c.2,0,.4-.2.4-.4v-.4h-.7s-.4,0-.4-.2v-.7h-.7v-.4h0c.2,0,.4-.4.2-.5h0c-.4,0-.5.2-.9.4v-.5h.7l.5.5v.2h0Z"/>
        <path id="Vector_401" class="st5" d="M34.8,139.6c-.5.4-.9.9-1.1,1.4-.4.9-.4,2-.4,2.8v1.6c0,.9,0,1.8.5,2.7,0,.2.2.4.5.4h.4c.4,0,.5,0,.7-.2,0,0,.4-.4.4-.5,0-.4.4-.5.4-.9v-.9c0-.7-.2-1.4-.4-2.1,0-.7,0-1.4.4-2.1.4-.5.7-.9.7-1.6s0-.5-.2-.7c0,0-.2-.4-.5-.4h-.5c-.4,0-.7.2-.9.4h0v.2h0Z"/>
        <path id="Vector_402" class="st5" d="M35.3,140.1c-.2,0-.5,0-.7.4v.5l.4.4h-.5v.4h.5c.2,0,.4,0,.4.4h-.7c-.4,0-.5.4-.5.7s.4.5.7.7c0,0-.2.2-.4.2h-.5v.9s.2.2.4.2l-.2.4s.2.4.4.4h0v.2h-.4v.5c0,.2.2.4.4.5h.7-.2s-.4,0-.4.2h1.1c.2,0,.4-.4.4-.5s0-.4-.4-.4h-1.1s0-.4.4-.4h.5s.4,0,.4-.2v-.4h-.4c-.2,0-.2-.4-.2-.4.4,0,.5,0,.9-.2,0-.2,0-.5-.2-.5h-.2c-.4,0-.9.4-1.2,0h-.2v-.2h0c.5,0,1.1-.2,1.6-.4v-.5h-.4c-.4,0-.5,0-.7-.4v-.5h.9c.2,0,.5-.2.4-.5l-.4-.4s-.2-.2-.2-.4h.7v-.4h0c-.4,0-.5-.2-.5-.5h1.4v-.7h-.4c-.2,0,0,0,0,0-.2,0-.4.2-.7.2h0s-.9.7-.9.7Z"/>
        <path id="Vector_403" class="st5" d="M73.9,151.7c0,.4,0,.9-.4,1.2-.4.5-.9.9-1.4,1.4-.4.2-.5.4-.9.7-.5.4-1.1.7-1.6.7h-.5v-.2c0-.2-.2-.4-.2-.5v-.4c0-.2,0-.4.4-.5,0,0,.4-.2.5-.4.4-.2.9-.4,1.2-.7.4-.2.7-.5,1.1-1.1.2-.4.2-.7.5-1.1.2,0,.4-.2.5-.2,0,0,.4,0,.5.2l.2.4c0,.2.2.5.2.7h0l-.2-.4v.2h.1Z"/>
        <path id="Vector_404" class="st5" d="M73.4,151.5s.2.4,0,.5h-.7v.4s0,.2-.2.2c0,0-.2,0-.4-.2s-.2-.2-.4,0v.4c0,.2,0,.5-.2.5h-.7v.7l-.2.2h-.4c-.4,0-.2,0-.2,0v.4h-.4v.2s0,.2-.2.2h-.4v-.2l-.2-.2h0v.5h0s0-.4-.2-.4,0-.4,0-.4h.4v.4s0,.2.2.2v-.4s0-.2-.2-.4v-.4h.5c0-.2,0-.4-.2-.7,0,0,.2-.2.4,0h0c0,.4.2.5.4.7h.2c0-.4-.4-.7-.5-1.1,0,0,.2-.2.4,0l.2.2s.4.4.5.4.2,0,.2-.2v-.2s0-.2-.2-.4v-.4h.5v-.5h.4s.4.2.5,0h0c-.2-.2-.4-.5-.5-.7h.4v.2h0c0,.2,0,.4.2.5h0l.9-.2v.2h0Z"/>
        <path id="Vector_405" class="st5" d="M70.9,157.7v1.4c-.4.7-.7,1.4-1.2,2.1-.4.4-.5.7-.9,1.1-.5.5-1.1,1.2-1.8,1.6h-.5l-.2-.2c-.3-.3-.4-.4-.5-.5-.2-.2-.2-.5-.2-.5v-.9c0-.4.4-.7.5-.9.5-.9.7-1.1,1.1-1.4.4-.5.2-.5.7-1.4.4-.5.5-.9,1.1-1.2l.7-.4h.5s.2,0,.4.4.4.5.5.7h0l-.2.2h0Z"/>
        <path id="Vector_406" class="st5" d="M70.4,157.7s.4.4.4.5c0,0,0,.2-.4.4h-.4s.2,0,.2.4v.4s-.4,0-.4-.2-.4,0-.4,0v.2h.2c.2.2,0,.5,0,.7-.2,0-.5,0-.9.2,0,0,0,.2.2.4,0,0,.2.2.2.4,0,0,0,.2-.2.4,0,0-.2,0-.4.2h-.4v.4h-.4v.4s0,.4-.2.4c0,0-.4,0-.5.2h-.5v.5h-.2s-.4-.2-.4-.4v-.5s.4-.2.5,0l.4.4s.2.2.4,0v-.4l-.4-.4v-.4q0-.1.4,0h.5c0-.2-.4-.4-.5-.5,0,0,.2-.4.4-.2h0c.2.2.4.5.7.7h.2v-.2h0c-.4-.4-.5-.7-.9-1.1,0,0,.2-.4.4-.4,0,0,.2,0,.4.2,0,0,.4.2.7,0,0,0,.4-.2.2-.4l-.2-.2s-.2-.2-.4-.4c0,0-.2-.4,0-.5h.7v-.4s-.2,0-.4-.2c0,0,.2-.2.4-.2h.7c-.4-.2-.5-.4-.9-.5,0,0,.2-.2.4-.4h.4c0,.2.2.4.4.5h0Z"/>
        <path id="Vector_407" class="st5" d="M63.2,165.7c-.4.4-1.1.7-1.6.7-1.1.2-2.5.4-3.7.4h-2.1c-1.2,0-2.5,0-3.6-.4-.4,0-.5-.2-.7-.4v-1.1c0-.2.4-.4.4-.5,0,0,.4-.2,1.1-.4.7,0,1.1,0,1.4-.2h2.8c1.1,0,.7,0,2.3-.2h2.5c.2,0,.7,0,1.1.4.2,0,.5.2.5.4v.5c0,.4,0,.5-.4.7h0Z"/>
        <path id="Vector_408" class="st5" d="M62.5,165.4c0,.2,0,.4-.2.5h-.5c-.2,0-.4,0-.5-.2h0v.5h-.5c-.2,0-.2-.2-.2-.4s-.2-.4-.4-.4c0,0-.2,0,0,.2s0,.2,0,.4c0,.4-.5.4-.9.4s-.7-.4-1.1-.5c-.2,0-.2.2-.2.4v.4h-1.1s-.4,0-.4-.4c0,0-.4.2-.5,0-.2,0-.4,0-.5-.4h-.2v.2h-.7c-.2,0-.5,0-.7-.2h0v-.2s0-.2-.2-.4h0v.2c0,.1,0,.3-.2.4v-.7s.4-.4.5-.4.5,0,.7.2v.4s0,.4.2.4.4,0,.4-.2v-.4s0-.2.2-.4.4,0,.5,0v.2s.4,0,.7.2v-.7h.7v.2c0,.4-.2.7,0,.9h.5v-1.2h.7v.4c0,.2.2.4.5.5h.5v-.7s.2-.4.5-.4c0,0,.4,0,.4.2,0,0,.4.2.5,0v-.7h.5c0,.2.4.4.7.4h0c0-.4-.2-.7-.4-.9h1.1v.4h0c-.2,0,0,.4,0,.5l-.7,1.4h.3Z"/>
        <path id="Vector_409" class="st5" d="M39.4,136c0-.4,0-.5.2-.9.4-.5.7-.9,1.1-1.2s.5-.4.7-.7c.4-.4.9-.7,1.4-.9h.4l.4.4v.4s0,.2-.2.5c0,.2-.4.4-.4.5-.3.3-.6.6-.9.9-.4.4-.2.4-.7.7-.4.4-.5.5-.9.7h-.9l-.2-.2c-.2-.2,0-.4-.2-.5h0l.2.4h0Z"/>
        <path id="Vector_410" class="st5" d="M39.7,136v-.4h.5v-.2c0-.2,0,0,0,0h.4v-.4h.5v-.4l.2-.2h.4v-.2h.4s0-.2.2-.2h.5c.2,0,0,0,0,0h0v-.2h0v.5h-.4v-.2h-.2v.5h-.5s0,.2.2.4c0,0-.2.2-.4,0h0s-.2-.4-.4-.5h0c0,.2.4.4.4.7h-.5s-.2,0-.2.2h0v.5h-.4v.2h-.5s.4.4.5.4h-.4v-.4h0l-.4-.4v.3h.1Z"/>
        <path id="Vector_411" class="st4" d="M55.1,130h-.2.2Z"/>
        <path id="Vector_412" class="st4" d="M54.5,130h-.2c-.2,0,0,0,0,0h.2Z"/>
        <path id="Vector_413" class="st4" d="M53.6,130h-.2.2Z"/>
        <path id="Vector_414" class="st4" d="M52.9,130.1h-.2.2Z"/>
        <path id="Vector_415" class="st4" d="M55.2,130.7h-.2.2Z"/>
        <path id="Vector_416" class="st4" d="M54.5,130.7h-.2.2Z"/>
        <path id="Vector_417" class="st4" d="M53.8,130.7h-.2.2Z"/>
        <path id="Vector_418" class="st4" d="M52.9,130.7h-.2.2Z"/>
        <path id="Vector_419" class="st5" d="M55.8,130h0Z"/>
        <path id="Vector_420" class="st5" d="M52.6,130.3h0Z"/>
        <path id="Vector_421" class="st5" d="M54,131.2c1.2,0,2.1-.5,2.1-1.1s-.9-1.1-2.1-1.1-2.1.5-2.1,1.1.9,1.1,2.1,1.1Z"/>
        <path id="Vector_422" class="st4" d="M59.9,131h0Z"/>
        <path id="Vector_423" class="st4" d="M59.3,130.8h0Z"/>
        <path id="Vector_424" class="st4" d="M58.8,130.7h0Z"/>
        <path id="Vector_425" class="st4" d="M58.1,130.7h0Z"/>
        <path id="Vector_426" class="st4" d="M59.7,131.6h0Z"/>
        <path id="Vector_427" class="st4" d="M59.3,131.4h0Z"/>
        <path id="Vector_428" class="st4" d="M58.6,131.2h0Z"/>
        <path id="Vector_429" class="st4" d="M57.9,131.2h0Z"/>
        <path id="Vector_430" class="st4" d="M60.2,131.2h0Z"/>
        <path id="Vector_431" class="st4" d="M57.7,130.8h0Z"/>
        <path id="Vector_432" class="st5" d="M60.6,131.4c0-.4-.5-1.1-1.4-1.2s-1.8,0-1.8.4.5,1.1,1.4,1.2,1.8,0,1.8-.4Z"/>
        <path id="Vector_433" class="st4" d="M57.5,133.9h0Z"/>
        <path id="Vector_434" class="st4" d="M57,133.9h0Z"/>
        <path id="Vector_435" class="st4" d="M56.5,133.7h0Z"/>
        <path id="Vector_436" class="st4" d="M55.9,133.7h0Z"/>
        <path id="Vector_437" class="st4" d="M57.4,134.4h0Z"/>
        <path id="Vector_438" class="st4" d="M57,134.2h0Z"/>
        <path id="Vector_439" class="st4" d="M56.5,134.2h0Z"/>
        <path id="Vector_440" class="st4" d="M55.9,134.1h0Z"/>
        <path id="Vector_441" class="st4" d="M57.9,134.1h0Z"/>
        <path id="Vector_442" class="st4" d="M55.6,133.7h0Z"/>
        <path id="Vector_443" class="st5" d="M58.1,134.2c0-.4-.5-.9-1.2-1.1s-1.6,0-1.6.4.4.9,1.2,1.1c.7.2,1.6,0,1.6-.4Z"/>
        <path id="Vector_444" class="st4" d="M57.5,142.4s-.4,0-.4-.2,0-.4.2-.4c0,0,.4,0,.4.2,0,0,0,.4-.2.4Z"/>
        <path id="Vector_445" class="st4" d="M55.9,142.4s-.4,0-.4-.2,0-.4.2-.4c0,0,.4,0,.4.2s0,.4-.2.4Z"/>
        <path id="Vector_446" class="st4" d="M55.2,143.5s-.4,0-.4-.2c0,0,0-.4.2-.4,0,0,.4,0,.4.2,0,0,0,.4-.2.4Z"/>
        <path id="Vector_447" class="st4" d="M58.6,141.2s0,.4-.4.4c0,0-.4,0-.4-.4,0,0,0-.4.4-.4s.4,0,.4.4Z"/>
        <path id="Vector_448" class="st3" d="M61.1,135.8s-.4,0-.4-.2c0,0,0-.4.2-.4,0,0,.4,0,.4.2,0,0,0,.4-.2.4Z"/>
        <path id="Vector_449" class="st3" d="M63.8,138.3s-.4,0-.4-.2c0,0,0-.4.2-.4,0,0,.4,0,.4.2,0,0,0,.4-.2.4Z"/>
        <path id="Vector_450" class="st3" d="M62.4,138s-.4,0-.4-.2,0-.4.2-.4c0,0,.4,0,.4.2,0,0,0,.4-.2.4Z"/>
        <path id="Vector_451" class="st3" d="M60.9,137.8s-.4,0-.4-.2c0,0,0-.4.2-.4,0,0,.4,0,.4.2,0,0,0,.4-.2.4Z"/>
        <path id="Vector_452" class="st3" d="M61.8,139s-.4,0-.4-.2c0,0,0-.4.2-.4,0,0,.4,0,.4.2,0,0,0,.4-.2.4Z"/>
        <path id="Vector_453" class="st3" d="M62.9,136.7s-.4,0-.4-.2,0-.4.2-.4c0,0,.4,0,.4.2,0,0,0,.4-.2.4Z"/>
        <path id="Vector_454" class="st3" d="M61.6,137.1s-.4,0-.4-.2c0,0,0-.4.2-.4,0,0,.4,0,.4.2,0,0,0,.4-.2.4Z"/>
        <path id="Vector_455" class="st3" d="M60.9,136.4s0,.4-.4.4c0,0-.4,0-.4-.4,0,0,0-.4.4-.4,0,0,.4,0,.4.4h0Z"/>
        <path id="Vector_456" class="st3" d="M47.2,144.9s-.4,0-.4-.2c0,0,0-.4.2-.4,0,0,.4,0,.4.2,0,0,0,.4-.2.4Z"/>
        <path id="Vector_457" class="st3" d="M49.9,147.4s-.4,0-.4-.2c0,0,0-.4.2-.4,0,0,.4,0,.4.2,0,0,0,.4-.2.4Z"/>
        <path id="Vector_458" class="st3" d="M48.5,147s-.4,0-.4-.2,0-.4.2-.4c0,0,.4,0,.4.2,0,0,0,.4-.2.4Z"/>
        <path id="Vector_459" class="st3" d="M47,146.9s-.4,0-.4-.2,0-.4.2-.4c0,0,.4,0,.4.2,0,0,0,.4-.2.4Z"/>
        <path id="Vector_460" class="st3" d="M47.9,148.1s-.4,0-.4-.2,0-.4.2-.4c0,0,.4,0,.4.2,0,0,0,.4-.2.4Z"/>
        <path id="Vector_461" class="st3" d="M49,145.8s-.4,0-.4-.2,0-.4.2-.4c0,0,.4,0,.4.2s0,.4-.2.4Z"/>
        <path id="Vector_462" class="st3" d="M47.8,146.2s-.4,0-.4-.2c0,0,0-.4.2-.4,0,0,.4,0,.4.2,0,0,0,.4-.2.4Z"/>
        <path id="Vector_463" class="st3" d="M46.9,145.4s0,.4-.4.4c0,0-.4,0-.4-.4,0,0,0-.4.4-.4,0,0,.4,0,.4.4h0Z"/>
        <path id="Vector_464" class="st3" d="M43.5,147s-.4,0-.4-.2c0,0,0-.4.2-.4,0,0,.4,0,.4.2,0,0,0,.4-.2.4Z"/>
        <path id="Vector_465" class="st3" d="M46.2,149.5s-.4,0-.4-.2,0-.4.2-.4c0,0,.4,0,.4.2,0,0,0,.4-.2.4Z"/>
        <path id="Vector_466" class="st3" d="M44.7,149.2s-.4,0-.4-.2,0-.4.2-.4c0,0,.4,0,.4.2,0,0,0,.4-.2.4Z"/>
        <path id="Vector_467" class="st3" d="M43.3,149s-.4,0-.4-.2,0-.4.2-.4c0,0,.4,0,.4.2,0,0,0,.4-.2.4Z"/>
        <path id="Vector_468" class="st3" d="M44.2,150.2s-.4,0-.4-.2c0,0,0-.4.2-.4,0,0,.4,0,.4.2s0,.4-.2.4Z"/>
        <path id="Vector_469" class="st3" d="M45.3,147.9s-.4,0-.4-.2c0,0,0-.4.2-.4,0,0,.4,0,.4.2,0,0,0,.4-.2.4Z"/>
        <path id="Vector_470" class="st3" d="M44.2,148.3s-.4,0-.4-.2c0,0,0-.4.2-.4,0,0,.4,0,.4.2,0,0,0,.4-.2.4Z"/>
        <path id="Vector_471" class="st3" d="M43.3,147.6s0,.4-.4.4c0,0-.4,0-.4-.4,0,0,0-.4.4-.4,0,0,.4,0,.4.4h0Z"/>
        <path id="Vector_472" class="st3" d="M44.9,145.8s-.4,0-.4-.2,0-.4.2-.4c0,0,.4,0,.4.2,0,0,0,.4-.2.4Z"/>
        <path id="Vector_473" class="st3" d="M47.6,148.5s-.4,0-.4-.2,0-.4.2-.4c0,0,.4,0,.4.2s0,.4-.2.4Z"/>
        <path id="Vector_474" class="st3" d="M46.2,148.1s-.4,0-.4-.2c0,0,0-.4.2-.4,0,0,.4,0,.4.2,0,0,0,.4-.2.4Z"/>
        <path id="Vector_475" class="st3" d="M44.7,147.9s-.4,0-.4-.2c0,0,0-.4.2-.4,0,0,.4,0,.4.2s0,.4-.2.4Z"/>
        <path id="Vector_476" class="st3" d="M45.4,149.2s-.4,0-.4-.2c0,0,0-.4.2-.4,0,0,.4,0,.4.2,0,0,0,.4-.2.4Z"/>
        <path id="Vector_477" class="st3" d="M46.7,146.7s-.4,0-.4-.2,0-.4.2-.4c0,0,.4,0,.4.2,0,0,0,.4-.2.4Z"/>
        <path id="Vector_478" class="st3" d="M45.4,147s-.4,0-.4-.2,0-.4.2-.4c0,0,.4,0,.4.2,0,0,0,.4-.2.4Z"/>
        <path id="Vector_479" class="st3" d="M44.6,146.5s0,.4-.4.4c0,0-.4,0-.4-.4s0-.4.4-.4c0,0,.4,0,.4.4h0Z"/>
        <path id="Vector_480" class="st3" d="M47.9,147.8s-.4,0-.4-.2c0,0,0-.4.2-.4,0,0,.4,0,.4.2,0,0,0,.4-.2.4Z"/>
        <path id="Vector_481" class="st3" d="M50.6,150.2s-.4,0-.4-.2c0,0,0-.4.2-.4,0,0,.4,0,.4.2,0,0,0,.4-.2.4Z"/>
        <path id="Vector_482" class="st3" d="M49.2,150.1s-.4,0-.4-.2c0,0,0-.4.2-.4,0,0,.4,0,.4.2,0,0,0,.4-.2.4Z"/>
        <path id="Vector_483" class="st3" d="M47.8,149.7s-.4,0-.4-.2,0-.4.2-.4c0,0,.4,0,.4.2,0,0,0,.4-.2.4Z"/>
        <path id="Vector_484" class="st3" d="M48.5,151s-.4,0-.4-.2c0,0,0-.4.2-.4,0,0,.4,0,.4.2s0,.4-.2.4Z"/>
        <path id="Vector_485" class="st3" d="M49.7,148.6s-.4,0-.4-.2c0,0,0-.4.2-.4,0,0,.4,0,.4.2,0,0,0,.4-.2.4Z"/>
        <path id="Vector_486" class="st3" d="M48.5,149s-.4,0-.4-.2c0,0,0-.4.2-.4,0,0,.4,0,.4.2,0,0,0,.4-.2.4Z"/>
        <path id="Vector_487" class="st3" d="M47.6,148.3s0,.4-.4.4-.4,0-.4-.4c0,0,0-.4.4-.4,0,0,.4,0,.4.4h0Z"/>
        <path id="Vector_488" class="st3" d="M42.6,150.8s-.4,0-.4-.2c0,0,0-.4.2-.4,0,0,.4,0,.4.2,0,0,0,.4-.2.4Z"/>
        <path id="Vector_489" class="st3" d="M45.3,153.3s-.4,0-.4-.2,0-.4.2-.4c0,0,.4,0,.4.2,0,0,0,.4-.2.4Z"/>
        <path id="Vector_490" class="st3" d="M43.8,152.9s-.4,0-.4-.2,0-.4.2-.4c0,0,.4,0,.4.2,0,0,0,.4-.2.4Z"/>
        <path id="Vector_491" class="st3" d="M42.4,152.7s-.4,0-.4-.2c0,0,0-.4.2-.4,0,0,.4,0,.4.2,0,0,0,.4-.2.4Z"/>
        <path id="Vector_492" class="st3" d="M43.3,154s-.4,0-.4-.2,0-.4.2-.4c0,0,.4,0,.4.2s0,.4-.2.4Z"/>
        <path id="Vector_493" class="st3" d="M44.4,151.7s-.4,0-.4-.2c0,0,0-.4.2-.4,0,0,.4,0,.4.2s0,.4-.2.4Z"/>
        <path id="Vector_494" class="st3" d="M43.1,152s-.4,0-.4-.2c0,0,0-.4.2-.4,0,0,.4,0,.4.2s0,.4-.2.4Z"/>
        <path id="Vector_495" class="st3" d="M42.4,151.3s0,.4-.4.4c0,0-.4,0-.4-.4,0,0,0-.4.4-.4,0,0,.4,0,.4.4h0Z"/>
        <path id="Vector_496" class="st3" d="M45.3,152.6s-.4,0-.4-.2c0,0,0-.4.2-.4,0,0,.4,0,.4.2,0,0,0,.4-.2.4Z"/>
        <path id="Vector_497" class="st3" d="M47.9,155.1s-.4,0-.4-.2c0,0,0-.4.2-.4,0,0,.4,0,.4.2,0,0,0,.4-.2.4Z"/>
        <path id="Vector_498" class="st3" d="M46.5,154.7s-.4,0-.4-.2,0-.4.2-.4c0,0,.4,0,.4.2,0,0,0,.4-.2.4Z"/>
        <path id="Vector_499" class="st3" d="M45.1,154.5s-.4,0-.4-.2c0,0,0-.4.2-.4,0,0,.4,0,.4.2,0,0,0,.4-.2.4Z"/>
        <path id="Vector_500" class="st3" d="M46,155.8s-.4,0-.4-.2c0,0,0-.4.2-.4,0,0,.4,0,.4.2s0,.4-.2.4Z"/>
        <path id="Vector_501" class="st3" d="M47,153.5s-.4,0-.4-.2c0,0,0-.4.2-.4,0,0,.4,0,.4.2,0,0,0,.4-.2.4Z"/>
        <path id="Vector_502" class="st3" d="M45.8,153.8s-.4,0-.4-.2c0,0,0-.4.2-.4,0,0,.4,0,.4.2,0,0,0,.4-.2.4Z"/>
        <path id="Vector_503" class="st3" d="M44.9,153.1s0,.4-.4.4c0,0-.4,0-.4-.4,0,0,0-.4.4-.4,0,0,.4,0,.4.4h0Z"/>
        <path id="Vector_504" class="st3" d="M51.3,149.2s-.4,0-.4-.2c0,0,0-.4.2-.4,0,0,.4,0,.4.2,0,0,0,.4-.2.4Z"/>
        <path id="Vector_505" class="st3" d="M54,151.7s-.4,0-.4-.2c0,0,0-.4.2-.4,0,0,.4,0,.4.2,0,0,0,.4-.2.4Z"/>
        <path id="Vector_506" class="st3" d="M52.6,151.5s-.4,0-.4-.2,0-.4.2-.4c0,0,.4,0,.4.2,0,0,0,.4-.2.4Z"/>
        <path id="Vector_507" class="st3" d="M51.1,151.1s-.4,0-.4-.2c0,0,0-.4.2-.4,0,0,.4,0,.4.2,0,0,0,.4-.2.4Z"/>
        <path id="Vector_508" class="st3" d="M52,152.6s-.4,0-.4-.2c0,0,0-.4.2-.4,0,0,.4,0,.4.2,0,0,0,.4-.2.4Z"/>
        <path id="Vector_509" class="st3" d="M53.1,150.1s-.4,0-.4-.2c0,0,0-.4.2-.4,0,0,.4,0,.4.2,0,0,0,.4-.2.4Z"/>
        <path id="Vector_510" class="st3" d="M52,150.4s-.4,0-.4-.2c0,0,0-.4.2-.4,0,0,.4,0,.4.2,0,0,0,.4-.2.4Z"/>
        <path id="Vector_511" class="st3" d="M51.1,149.7s0,.4-.4.4c0,0-.4,0-.4-.4,0,0,0-.4.4-.4,0,0,.4,0,.4.4h0Z"/>
        <path id="Vector_512" class="st3" d="M50.6,145.6s-.4,0-.4-.2c0,0,0-.4.2-.4,0,0,.4,0,.4.2,0,0,0,.4-.2.4Z"/>
        <path id="Vector_513" class="st3" d="M53.5,148.1s-.4,0-.4-.2,0-.4.2-.4c0,0,.4,0,.4.2,0,0,0,.4-.2.4Z"/>
        <path id="Vector_514" class="st3" d="M52,147.9s-.4,0-.4-.2c0,0,0-.4.2-.4,0,0,.4,0,.4.2,0,0,0,.4-.2.4Z"/>
        <path id="Vector_515" class="st3" d="M50.6,147.6s-.4,0-.4-.2c0,0,0-.4.2-.4,0,0,.4,0,.4.2,0,0,0,.4-.2.4Z"/>
        <path id="Vector_516" class="st3" d="M51.3,149s-.4,0-.4-.2c0,0,0-.4.2-.4,0,0,.4,0,.4.2,0,0,0,.4-.2.4Z"/>
        <path id="Vector_517" class="st3" d="M52.6,146.5s-.4,0-.4-.2,0-.4.2-.4c0,0,.4,0,.4.2s0,.4-.2.4Z"/>
        <path id="Vector_518" class="st3" d="M51.3,146.9s-.4,0-.4-.2,0-.4.2-.4c0,0,.4,0,.4.2,0,0,0,.4-.2.4Z"/>
        <path id="Vector_519" class="st3" d="M50.4,146.2s0,.4-.4.4c0,0-.4,0-.4-.4s0-.4.4-.4c0,0,.4,0,.4.4h0Z"/>
        <path id="Vector_520" class="st4" d="M54,138.9s-.4,0-.4-.2c0,0,0-.4.2-.4,0,0,.4,0,.4.2,0,0,0,.4-.2.4Z"/>
        <path id="Vector_521" class="st4" d="M57.2,140.5s-.4,0-.4-.2,0-.4.2-.4c0,0,.4,0,.4.2,0,0,0,.4-.2.4Z"/>
        <path id="Vector_522" class="st4" d="M55.2,140.8s-.4,0-.4-.2c0,0,0-.4.2-.4,0,0,.4,0,.4.2,0,0,0,.4-.2.4Z"/>
        <path id="Vector_523" class="st4" d="M53.5,140.8s-.4,0-.4-.2c0,0,0-.4.2-.4,0,0,.4,0,.4.2,0,0,0,.4-.2.4Z"/>
        <path id="Vector_524" class="st4" d="M54.7,142.2s-.4,0-.4-.2c0,0,0-.4.2-.4,0,0,.4,0,.4.2,0,0,0,.4-.2.4Z"/>
        <path id="Vector_525" class="st4" d="M55.4,138.9s-.4,0-.4-.2c0,0,0-.4.2-.4,0,0,.4,0,.4.2,0,0,0,.4-.2.4Z"/>
        <path id="Vector_526" class="st4" d="M56.5,139.7s-.4,0-.4-.2c0,0,0-.4.2-.4,0,0,.4,0,.4.2,0,0,0,.4-.2.4Z"/>
        <path id="Vector_527" class="st4" d="M53.8,139.6s0,.4-.4.4c0,0-.4,0-.4-.4,0,0,0-.4.4-.4,0,0,.4,0,.4.4h0Z"/>
        <path id="Vector_528" class="st4" d="M63.2,152.4s0,.4-.2.4c0,0-.4,0-.4-.2,0,0,0-.4.2-.4,0,0,.4,0,.4.2Z"/>
        <path id="Vector_529" class="st4" d="M63.2,154s0,.4-.2.4c0,0-.4,0-.4-.2,0,0,0-.4.2-.4,0,0,.4,0,.4.2Z"/>
        <path id="Vector_530" class="st4" d="M62,151.3s.4,0,.4.4c0,0,0,.4-.4.4s-.4,0-.4-.4c0,0,0-.4.4-.4Z"/>
        <path id="Vector_531" class="st4" d="M59.3,155.6s0,.4-.2.4c0,0-.4,0-.4-.2,0,0,0-.4.2-.4,0,0,.4,0,.4.2Z"/>
        <path id="Vector_532" class="st4" d="M61.1,152.6s0,.4-.2.4c0,0-.4,0-.4-.2,0,0,0-.4.2-.4s.4,0,.4.2Z"/>
        <path id="Vector_533" class="st4" d="M61.5,154.5s0,.4-.2.4c0,0-.4,0-.4-.2,0,0,0-.4.2-.4,0,0,.4,0,.4.2Z"/>
        <path id="Vector_534" class="st4" d="M61.5,156.1s0,.4-.2.4c0,0-.4,0-.4-.2,0,0,0-.4.2-.4,0,0,.4,0,.4.2Z"/>
        <path id="Vector_535" class="st4" d="M62.9,155.1s0,.4-.2.4-.4,0-.4-.2c0,0,0-.4.2-.4,0,0,.4,0,.4.2Z"/>
        <path id="Vector_536" class="st4" d="M59.5,154.2s0,.4-.2.4c0,0-.4,0-.4-.2,0,0,0-.4.2-.4,0,0,.4,0,.4.2Z"/>
        <path id="Vector_537" class="st4" d="M60.2,153.5s0,.4-.2.4-.4,0-.4-.2c0,0,0-.4.2-.4,0,0,.4,0,.4.2Z"/>
        <path id="Vector_538" class="st4" d="M60,155.9s.4,0,.4.4c0,0,0,.4-.4.4s-.4,0-.4-.4c0,0,0-.4.4-.4h0Z"/>
        <path id="Vector_539" class="st5" d="M58.6,147.9v.7c-.2.9-.4,2-.7,2.8,0,.4,0,.7.2.7h.5v-2.5c0-.2.4-.5.5-.7.4-.7,0-1.2-.2-2v-1.1c0-.2,0-.7-.2-.9-.5-.2-.9.5-.9.9,0,.7.5,1.2.7,2h.1Z"/>
        <path id="Vector_540" class="st5" d="M59.1,145.8h-.2.2Z"/>
        <path id="Vector_541" class="st5" d="M58.6,145.1h-.2.2Z"/>
        <path id="Vector_542" class="st5" d="M57.9,145.8h-.2c-.2,0,0,0,0,0h.2Z"/>
        <path id="Vector_543" class="st5" d="M58.3,147.4h-.2.2Z"/>
        <path id="Vector_544" class="st5" d="M59.1,146.9h-.2.2Z"/>
        <path id="Vector_545" class="st5" d="M59.5,147.9h-.2.2Z"/>
        <path id="Vector_546" class="st5" d="M59.5,149h-.2.2Z"/>
        <path id="Vector_547" class="st5" d="M59,150.2h-.2.2Z"/>
        <path id="Vector_548" class="st5" d="M59,151.3h0Z"/>
        <path id="Vector_549" class="st5" d="M58.6,148.5h0Z"/>
        <path id="Vector_550" class="st5" d="M58.3,149.7h0Z"/>
        <path id="Vector_551" class="st5" d="M57.9,151.1h0Z"/>
        <path id="Vector_552" class="st5" d="M56.3,148.6v.9c-.2,1.2-.4,2.3-.7,3.6,0,.4,0,.7.2.9,0,0,.4,0,.5-.2v-2.8c0-.4.4-.5.5-.9.4-.7,0-1.6-.2-2.3v-1.2c0-.4,0-.9-.2-1.1-.5-.4-.9.7-.9,1.1,0,.9.5,1.6.7,2.5h0v-.4h.1Z"/>
        <path id="Vector_553" class="st5" d="M56.8,146h-.2v-.2h.2v.2Z"/>
        <path id="Vector_554" class="st5" d="M56.3,145.1h-.2v-.2h.2v.2Z"/>
        <path id="Vector_555" class="st5" d="M55.6,146h-.2v-.2h.2v.2Z"/>
        <path id="Vector_556" class="st5" d="M55.9,147.9h-.2v-.2h.2v.2Z"/>
        <path id="Vector_557" class="st5" d="M56.8,147.2h-.2v-.2h.2v.2Z"/>
        <path id="Vector_558" class="st5" d="M57.2,148.6h-.2v-.2h.2v.2Z"/>
        <path id="Vector_559" class="st5" d="M57.2,149.9h-.2v-.2h.2v.2Z"/>
        <path id="Vector_560" class="st5" d="M56.7,151.3h-.2v-.2h.2v.2Z"/>
        <path id="Vector_561" class="st5" d="M56.7,152.7v.2h0v-.2h0Z"/>
        <path id="Vector_562" class="st5" d="M56.3,149.4v.2h0v-.2h0Z"/>
        <path id="Vector_563" class="st5" d="M55.9,150.8v.2h0v-.2h0Z"/>
        <path id="Vector_564" class="st5" d="M55.6,152.6v.2h0v-.2h0Z"/>
        <path id="Vector_565" class="st5" d="M39.2,158.6c.2.2.4.4.5.7.7.9,1.4,2,2.1,2.8.2.4.5.5.9.5s.2-.2.2-.5,0-.4-.4-.5c-.5-.5-1.2-1.1-1.6-1.8,0-.4-.2-.7-.4-.9-.4-.7-1.2-1.1-2-1.6-.4-.2-.7-.5-1.1-.9s-.5-.7-1.1-.7,0,1.1.2,1.2c.7.7,1.6.7,2.3,1.2h0l.2.4h.2,0Z"/>
        <path id="Vector_566" class="st5" d="M37.8,156.3h-.2v-.2h.2v.2Z"/>
        <path id="Vector_567" class="st5" d="M36.5,156.1h-.2v-.2h.2v.2Z"/>
        <path id="Vector_568" class="st5" d="M36.9,157.2h-.2v-.2h.2v.2Z"/>
        <path id="Vector_569" class="st5" d="M38.5,158.3h-.2v-.2h.2v.2Z"/>
        <path id="Vector_570" class="st5" d="M38.7,157.2h-.2c-.2,0,0,0,0-.2h.2v.2Z"/>
        <path id="Vector_571" class="st5" d="M39.9,157.9h-.2v-.2h.2v.2Z"/>
        <path id="Vector_572" class="st5" d="M40.8,159h-.2v-.2h.2v.2Z"/>
        <path id="Vector_573" class="st5" d="M41.5,160.4h-.2v-.2h.2v.2Z"/>
        <path id="Vector_574" class="st5" d="M42.8,161.3v.2h-.2v-.2h.2Z"/>
        <path id="Vector_575" class="st5" d="M39.7,159.1v.2h-.2v-.2h.2Z"/>
        <path id="Vector_576" class="st5" d="M40.6,160.4v.2h-.2c-.2,0,0,0,0-.2s0,0,.2,0Z"/>
        <path id="Vector_577" class="st5" d="M41.7,161.8v.2c0,.2,0,0-.2,0s0,0,0-.2h.2Z"/>
        <path id="Vector_578" class="st5" d="M40.1,156.5c.2.2.4.4.5.7.7.9,1.4,2,2.1,2.8.2.4.5.5.9.5s.2-.2.2-.5,0-.4-.4-.5c-.5-.5-1.2-1.1-1.6-1.8,0-.4-.2-.7-.4-.9-.4-.7-1.2-1.1-2-1.6-.4-.2-.7-.5-1.1-.9s-.5-.7-1.1-.7,0,1.1.2,1.2c.7.7,1.6.7,2.3,1.2h0l.2.4h.2,0Z"/>
        <path id="Vector_579" class="st5" d="M38.5,154.2h-.2c-.2,0,0,0,0-.2h.2v.2Z"/>
        <path id="Vector_580" class="st5" d="M37.4,154h-.2v-.2c0-.2,0,0,.2,0v.2Z"/>
        <path id="Vector_581" class="st5" d="M37.6,155.1h-.2v-.2h.2v.2Z"/>
        <path id="Vector_582" class="st5" d="M39.2,156.1h-.2v-.2h.2v.2Z"/>
        <path id="Vector_583" class="st5" d="M39.4,155.1h-.2v-.2h.2v.2Z"/>
        <path id="Vector_584" class="st5" d="M40.6,155.8h-.2c-.2,0,0,0,0-.2h.2v.2Z"/>
        <path id="Vector_585" class="st5" d="M41.7,156.8h-.2v-.2h.2c.2,0,0,0,0,.2Z"/>
        <path id="Vector_586" class="st5" d="M42.4,158.3h-.2v-.2h.2v.2Z"/>
        <path id="Vector_587" class="st5" d="M43.5,159.1v.2h-.2c-.2,0,0,0,0-.2s0,0,.2,0Z"/>
        <path id="Vector_588" class="st5" d="M40.6,157v.2h-.2v-.2h.2Z"/>
        <path id="Vector_589" class="st5" d="M41.3,158.3v.2h-.2v-.2h.2Z"/>
        <path id="Vector_590" class="st5" d="M42.6,159.7v.2h-.2v-.2h.2Z"/>
        <path id="Vector_591" class="st5" d="M41.5,155.6s.4.4.4.5c.5.7,1.1,1.4,1.6,2.1,0,.2.4.5.7.4,0,0,.2-.2,0-.4,0,0,0-.4-.2-.4-.4-.5-.9-.9-1.2-1.2,0-.2,0-.5-.4-.7-.4-.5-.9-.9-1.4-1.1-.4-.2-.5-.4-.7-.5,0-.2-.5-.5-.7-.5-.5,0,0,.7,0,1.1.5.5,1.2.5,1.8,1.1h0l.2-.4h0Z"/>
        <path id="Vector_592" class="st5" d="M40.5,154h-.2.2Z"/>
        <path id="Vector_593" class="st5" d="M39.6,153.8h-.2.2Z"/>
        <path id="Vector_594" class="st5" d="M39.7,154.5h-.2.2Z"/>
        <path id="Vector_595" class="st5" d="M41,155.4h-.2.2Z"/>
        <path id="Vector_596" class="st5" d="M41.2,154.5h-.2.2Z"/>
        <path id="Vector_597" class="st5" d="M42.1,155.1h-.2.2Z"/>
        <path id="Vector_598" class="st5" d="M42.8,155.9h-.2.2Z"/>
        <path id="Vector_599" class="st5" d="M43.3,157h-.2.2Z"/>
        <path id="Vector_600" class="st5" d="M44.2,157.7h-.2.2Z"/>
        <path id="Vector_601" class="st5" d="M41.9,156.1h-.2.2Z"/>
        <path id="Vector_602" class="st5" d="M42.6,157h-.2.2Z"/>
        <path id="Vector_603" class="st5" d="M43.5,158.1h-.2.2Z"/>
        <path id="Vector_604" class="st5" d="M40.1,143.1v-.5c0-.2.2-.4.4-.5.7-.7,1.4-1.2,2.1-1.8.4-.2.5-.4.9-.5.4-.2.5-.5.9-.7.4,0,.5-.4.9-.4,1.2-.4,2.5-.5,3.9-.7h.4s.2,0,.4.2v.4c0,.2-.2,0-.4,0h-1.8c-.7,0-1.4.4-2.1.5-.5.4-1.2.5-1.8.9-.7.5-1.2,1.1-2,1.6-.4.4-.7.5-.9,1.1,0,0,0,.4-.4.4,0,0-.4,0-.5-.2h0v.4s0-.2,0-.2Z"/>
        <path id="Vector_605" class="st5" d="M40.3,143.1v-.5c0-.2.2-.4.4-.5.7-.7,1.4-1.2,2.1-1.8.4-.2.5-.4.9-.5.4-.2.5-.5.9-.7.4,0,.5-.4.9-.4,1.2-.4,2.5-.5,3.9-.7h.4s.2,0,.4.2v.4c0,.2-.2,0-.4,0h-1.8c-.7,0-1.4.4-2.1.5-.5.4-1.2.5-1.8.9-.7.5-1.2,1.1-2,1.6-.4.4-.7.5-.9,1.1,0,0,0,.4-.4.4,0,0-.4,0-.5-.2h0v.4s0-.2,0-.2Z"/>
        <path id="Vector_606" class="st5" d="M39.7,141.9v-.4s0-.2.2-.4c.4-.4.7-.9,1.1-1.2,0,0,.4-.2.4-.4,0,0,.4-.4.5-.5,0,0,.2,0,.5-.4.7-.4,1.2-.5,1.6-.5h.5v.2h-1.4c-.2,0-.4,0-.4.2-.9.5-.7.4-1.1.7-.4.4-.7.5-.9,1.1,0,0,0,.2-.4.5-.2.4-.4.5-.5.5h-.2v.5h.1Z"/>
        <path id="Vector_607" class="st5" d="M46.2,137.4s0-.2.2-.2h.4c.5,0,.9,0,1.4-.2h1.2c.5,0,.7.4,1.1.7h-.2l-.4-.2-.7-.4h-3.4v-.2l.4.4h0Z"/>
        <path id="Vector_608" class="st5" d="M49,139.2c.5,0,.9,0,1.4-.2h.5c.2,0,0,.5,0,.7s-.4.2-.7.2h-2c-.4,0-1.1.4-1.4.2-.4,0,0-.4,0-.5.7-.4,1.4-.4,2.1-.4h.1Z"/>
        <path id="Vector_609" class="st5" d="M45.1,141.3c0-.2.4-.5.7-.5s.4-.2.7-.2c.5,0,1.1-.2,1.6,0h.2v.4h-.4c-.7.2-1.6.2-2.1.7,0,0-.2.2-.4.2h-.4s-.2-.4,0-.4c0,0,.4-.2.5-.4"/>
        <path id="Vector_610" class="st5" d="M41.2,143.7s0-.5.2-.7c.2-.4.7-.4,1.1-.5.2-.2.4-.5.5-.7.2-.4.7-.5,1.1-.7h.2s.2.2,0,.4l-.4.4c-.5.4-.9.5-1.4.9,0,0-.2,0-.4.2,0,0,0,.4-.2.5,0,0-.2.4-.4.4,0,0-.4.2-.5,0,0,0-.2-.4-.2-.5s0-.4.4-.5"/>
        <path id="Vector_611" class="st5" d="M48.1,156.3c4.1,0,7.3-2.8,7.3-6.4s-3.2-6.4-7.3-6.4-7.3,2.8-7.3,6.4,3.2,6.4,7.3,6.4Z"/>
      </g>
      <g id="Heart">
        <path id="Vector_612" class="st9" d="M117.6,191.5c0,12.8-11.4,23.3-25.8,23.3s-25.8-10.5-25.8-23.3,11.4-23.3,25.8-23.3,25.8,10.5,25.8,23.3Z"/>
        <path id="Vector_613" class="st7" d="M89.8,173.7c.2,0,.5.4.5.5v.5c-.9,1.6-1.6,3.4-1.8,5.3v.4c1.2.9,2.7,1.4,4.3,1.2.4-.2.9,0,1.2-.4.5-.2,1.2-.5,1.8-.7,1.2-1.6,2.1-3.6,3-5.5.2-.4.4-.9.9-1.2l.7-.4c.5,0,1.1-.2,1.6,0,.4.4.7.5.9.9.2.7,0,1.4-.4,2,0,.5-.5,1.1-.5,1.6h0c1.2-.5,2.7-.7,4.1-1.1.4,0,.7,0,1.1.4.7.7.7,2,.5,2.8-.2.4-.5.9-.9,1.2-1.2,0-2.5.5-3.6.9h0c.2.7.4,1.2.5,2,0,.4.4.5.7.5.9,0,2,0,2.8.4.2,0,.5.4.7,0,.9-.7,2-1.2,3-2h.7c.4.4.2,1.1,0,1.4-.7.5-1.6.7-2.1,1.4h-.2c1.2,1.6,1.6,3.9.5,5.7-.5,1.1-1.2,2-2,2.7h0c-.4.7-.7,1.2-1.2,1.8-.4.5-.7.9-1.1,1.2-.7.7-1.4,1.6-2,2.3,0,0-.2.4-.4.5-1.1,1.6-2.5,3-3.6,4.6-1.2,1.8-2.5,3-4.6,3.7-.9.4-1.8.4-2.7.5-1.1.2-2.3,0-3.4-.2-.9,0-1.6-.4-2.3-.9-1.1-.7-2-1.6-2.8-2.5s-1.2-1.4-1.6-2.1c-.2-.2-.2-.5-.5-.7-.5-1.2-1.4-2.3-1.8-3.7-1.4,1.1-2.7,2.3-4.1,3.4-.4,0-.5.4-.7.4-.9,0-1.8,0-2.3-.7-.2-.4-.4-.7-.4-1.2h0c0-.5.2-.9.5-1.4h.2c1.1-1.2,2.5-2,3.6-3,1.2-.7,1.8-2,2.5-3,.2-.5.4-1.1.4-1.8h0v-.7c0-.5.4-1.2.5-1.8,0-.4,0-.5.4-.7.4-.9.5-1.8,1.1-2.5.7-1.2,1.2-2.5,2-3.7v-.4h.2c-.7-.9-2-1.6-2.8-2.3,0-.4,0-.9.2-1.2,0-.2.2-.4.4-.5,0,0,0-.2.2-.2h0c.4-.4.7-.4,1.1-.5.9.5,1.6,1.4,2.3,2,.4-.5.5-1.2.9-1.8,0,0,0-.4.2-.5.2-.4.4-.9.4-1.4h0c0-.5.2-1.2.9-1.4.7-.4,2-.4,2.7,0h-.4,0Z"/>
        <path id="Vector_614" class="st14" d="M106.5,178.2c.4.4.4,1.1.2,1.6v.2c-.4.4-.5.9-1.1.9-1.6.4-3,.7-4.4,1.2-.4,0-.7.2-.9.4-1.8.5-3.6,1.2-5.2,2.1-.4.4-.7.5-1.1.9s-.5.7-.7,1.1c-.4.5-.7,1.1-1.1,1.8h-.4c0-.4,0-.5.4-.9v-.5h-.4c-.5.5-.9,1.4-1.1,2.1.4.9.4,1.8.5,2.7v4.6h0c0,1.1-.2,2.3-.4,3.6-.2,1.2-.7,2.3-1.4,3.4-.4.5-.9.9-1.6.9s-1.6,0-2.3-.4c-.9-.7-1.8-1.2-2.1-2.3-.9-1.4-1.4-3.2-2.1-4.8-.2-.9-.7-1.8-.9-2.8,0-.4.4-.5.7-.7h.9c.4.2.9.5,1.4.4.2-.2.2-.4,0-.7-.2-.4-.7-.5-1.1-.7s-.5-.4-.5-.7c0-.5.4-1.1.5-1.4v-.2c.7-.7,1.2-1.1,2.1-1.2h1.2c.5.5.5,1.2.5,2s-.7,1.4-1.1,2c-.2.2-.4.5-.5.9h0v.2h.4c.9-.5,1.1-1.1,1.8-1.8l.9-1.1h0c.7-.9,2-1.8,1.8-2.8v-.5c0-.4,0-.7-.5-.9h-.4c-.7.5.4,1.4-.5,1.8h-.5c-.4-.2-.4-.5-.2-.9.4-.9.7-1.8.7-2.5.2-1.4.4-2.5.5-3.7.9.5,2,1.1,2.8,1.4.5.2,1.1,0,1.6,0,2-.7,3.7-2,5.9-2.3,2.1-.5,4.4-1.1,6.8-1.4,0-.4,0-.7.5-.9.4,0,.5,0,.7.2h0l-.5.2.2-.5h0Z"/>
        <path id="Vector_615" class="st14" d="M101.4,183c0,.2.4.2.5.4.4.4.4.7.5,1.1v1.4c-.4.9-.5,2-1.2,2.7h0c-.5.5-1.1,1.2-1.6,1.8-.5.5-1.6,0-2.1.5,0,0-.4,0-.2.4v.2s0,.2.4.2h1.8c.4,0,.4.4.5.7,0,.5,0,1.1-.4,1.4h0c-.2,0,0,.4,0,.7,0,0,.2.2.4.4,1.1-.2,1.6-1.4,2-2.1.9-1.8.9-4.1,2.7-5.5.9-.5,2-.5,2.8-.2.4,0,.7.5.9.9v1.1c-1.1,1.2-2.8,2.1-4.1,3.2-.5.4-1.1.9-1.6,1.4-.9.5-1.6,1.4-2.1,2.3v.5h.5c.7-.4.9-1.2,1.6-1.4,0,0,.2,0,.2.2,0,1.2-1.1,1.6-1.6,2.5-1.6,2-3.7,4.1-5.9,5.5-.9.4-1.6,1.1-2.7.9-.4-.4-.2-.7-.2-1.2s0-.5.2-.9c.4-1.6.2-3,.4-4.4h0c0-1.8,0-3.4.7-5,.4-.5,1.2-.9,2-1.1v-.4c0-.2-.5-.2-.7,0h-.7c-.5.2-.9.9-1.6.9-.2-.5,0-1.1,0-1.8,0-1.6,1.2-2.8,2.5-3.9.4-.4.7-.7,1.2-1.1h0c1.6-1.1,3.6-1.8,5.5-2.3h0l-.5.2v-.2h-.1Z"/>
        <path id="Vector_616" class="st14" d="M88.9,175.7s.2.4,0,.5c0,0-.2.2-.4.4h-.4s-.2.2,0,.4h0c-.5,2.1-.7,3.9-1.2,5.9,0,.2-.2.4-.5.5h-.7c.5-2.1,1.1-4.4,1.8-6.6v-.4s-.5,0-.4-.4c.4-.4,1.1-.5,1.4-.2h0l.4-.2h0Z"/>
        <path id="Vector_617" class="st14" d="M101.5,174.6c.2.4,0,.7,0,1.1s-.4.4-.5.2h0c-.4,1.1-.7,2-1.1,3-.4,0-.5.4-.9.4.5-1.2.9-2.3,1.4-3.6h0c-.4,0-.4-.4-.4-.7v-.4c.4,0,.9-.5,1.2-.2l.4.4h0l-.2-.2h0Z"/>
        <path id="Vector_618" class="st14" d="M84.3,180.3c0,.2-.2.4-.4.7,0,0-.4,0-.4-.4-.5-.5-1.4-1.1-2-1.6,0-.2.4-.5.5-.5.7.5,1.2,1.1,2.1,1.8h.2Z"/>
        <path id="Vector_619" class="st14" d="M77.3,198.3c-.9.9-2,1.8-2.8,2.7,0,0,.2,0,.2.2v.7c-.2.4-.5.4-.9.4s-.9-.4-1.1-.7c0-.4,0-.7.2-.9.4-.4,1.1-.4,1.6-.4,1.1-.5,1.8-1.4,2.7-2.1h0l.2.2h0Z"/>
        <path id="Vector_620" class="st14" d="M110.1,184.1v.9c0,.2-.5.2-.7.4l-.5.5c0-.4-.2-.5-.5-.7h0c.5-.5,1.1-.9,1.6-1.1h.2,0Z"/>
      </g>
      <g id="Body">
        <path id="Vector_621" class="st13" d="M134.8,73.9l2,.8c.4.3.7.7,1.1,1l.5.7.4.9v.9c.2,0,.4,1.1.4,1.1v1.1-.4h.2l.2.5v1.2l-.4.9-.4.7-.5.4v1.2l-.5.5v2.3h.5l.7.4.7.4.7.4.7.4.5.4.4.4h.2v.2h.5l.7.4.9.7h.5l.5.5.7.5.5.9.5,1.1.4,1.4v1.6c.2,0,.2,2,.2,2l.4,1.1.5,1.6.4,1.6v1.2l.7,1.1.5,1.8.5,2,.4,1.6v1.4c.2,0,.5,2,.5,2l.5,2,.7,1.8h.4l.4.4h.2c0,.2.2.5.2.5h.2v.2h.2l.2.4v.4c0,.2.2.5.2.5l.4.4.5.5.4.4v.7h-1.2c0-.2-.5-.5-.5-.5l-.4-.4h-.2v-.2,1.2l.4.7.4,1.1c0,.4,0,.7.2,1.1v.4s-.2.2-.4.2h-.4l-.2-.2c0-.4-.4-.7-.5-1.1l-.5-1.1-.4-.5v.7l.4,1.4c0,.4,0,.9.2,1.2v.4c0,.2-.4.2-.4.2h-.4v-.4c0-.5-.2-.9-.4-1.4l-.4-1.4v-.5c-.2,0-.2.5-.2.5l.4,1.2v1.2s.2.2,0,.4h-.4s-.2,0-.4-.2v-.2c0-.4-.2-.9-.4-1.2l-.4-1.2v-.5,3h-.5v-.4c0-.4-.2-.7-.4-1.1v-1.6l-.4-.9-.4-1.4v-3c-.2,0-.5-.9-.5-.9l-.4-.9-.5-.9-.4-.9-.5-.9-.5-.9-.5-1.1-.9-2-.4-1.4v-2.5l-.4-.4-.5-.9-.4-1.2-.4-1.4v-1.6c-.2,0-.4.9-.4.9v2.5l-.2,3.2v3.6l.4,2.7.5,1.6.4,1.8v2.8c.2,0,0,3.9,0,3.9v3.7c-.2,0-.7,3-.7,3l-.4,1.8v2.3c-.2,0,0,2.1,0,2.1v1.8c-.2,0-.4,1.8-.4,1.8v1.4c.2,0,.5,2.1.5,2.1v3.7l-.5,2.7-.5,2.1v1.6c-.2,0,0,1.4,0,1.4l.7,1.4.7,1.2.7,1.2.4,1.1v.5h-.4c0-.2,0,.2,0,.2h-.2c0,.2-.4.4-.4.4h-.2v.5h-1.8c0-.2-.2,0-.2,0h-1.4c0-.2-.4-.9-.4-.9v-.7l-.4-.4v-.7c-.2,0-.4-.7-.4-.7v-.7h-.2v-.7c-.2,0-.2-1.2-.2-1.2v-4.6l-.2-1.6-.5-1.8-.5-2v-4.8c.2,0,.4-1.1.4-1.1v-.7l-.2-.5v-.5c-.2,0-.4-1.1-.4-1.1v-2c-.2,0-.4-2.1-.4-2.1v-3.7c-.2,0-.5-2.3-.5-2.3v-3l-.2,3v2.3c-.2,0-.4,1.6-.4,1.6v4.3l-.4,2v1.1c-.2,0-.4.5-.4.5v.5l-.2.7v1.1l.4,1.4v3.4l-.5,2-.5,1.8v1.6c-.2,0,0,1.4,0,1.4v1.2l.2,2v1.6h-.2v1.8l-.4.7v.4c-.2,0-.4.7-.4.7l-.4.7h-.4c0,.2-.5.4-.5.4h-.4l-.2-.4h-.2c0,.2-.4.4-.4.4h-.4v-.4h-.7v-.4l-.2-.2h-.5v-.7h-.2c0,.2-.2,0-.2,0v-.5l.2-1.1.5-1.2.7-1.2.7-1.4v-1.4c.2,0,0-1.6,0-1.6l-.5-2.1-.5-2.7-.4-3.7v-2.1c.2,0,.4-1.4.4-1.4v-1.8l-.4-1.8v-4.4l-.4-1.8-.4-3-.4-3.7v-6.8l.4-1.8.4-1.6v-2.7c.2,0,.4-3.6.4-3.6v-3.2l-.4-2.5v-.9l-.2,1.6-.4,1.4-.4,1.2-.5.9v.4l-.2.9v1.6l-.5,1.4-.9,2-.5,1.1-.5.9-.5.9-.5.9-.4.9-.4.9-.4.9v3l-.4,1.4-.4.9v1.6l-.4,1.1v.4h-.2s-.2,0-.4-.2,0-.5,0-.5v-2.5.5l-.4,1.2c0,.4-.2.9-.4,1.2v.4h-.4s-.4,0-.4-.2v-1.8c.2,0,.4-1.2.4-1.2v-.5l-.2.5-.4,1.4-.4,1.4s0,.2-.2.4h-.4l-.2-.2v-1.6l.4-1.4v-.7l-.2.5-.5,1.1-.5,1.1-.2.2h-.4l-.2-.4v-.7c0-.2,0-.5.2-.7l.4-1.1.4-.7v-.7c.2,0,0-.5,0-.5h-.4c0,.2-.4.5-.4.5l-.5.4h-.5c0,.2-.4.2-.4.2v-.4c-.2,0-.2-.2-.2-.2,0-.2.4-.5.4-.5l.5-.5.5-.4h.2v-.9h.2c0-.2.2-.4.2-.4h.2l.2-.2h.2c0-.2.2-.5.2-.5h.4c0-.2.4-.4.4-.4l.7-1.8.5-2,.4-2v-1.4c.2,0,.4-1.6.4-1.6l.4-2,.5-1.8.5-1.1v-1.2l.4-1.6.4-1.6.4-1.1v-2l.2-1.6.4-1.4.5-1.1.5-.9.5-.5.5-.4h.5l.7-.9.7-.4h.5l.4-.4.5-.4.7-.4.7-.4.7-.4.5-.4h.5v-3c-.2,0-.5-.5-.5-.5v-.5l-.5-.4-.4-.7-.4-.9v-1.8h.4v.4c.2,0,0-1.1,0-1.1v-1.1l.2-.9.4-.9.5-.7.7-.5.9-.4h1.1c.7,0,1.4,0,2,0h0Z"/>
      </g>
      <path class="st13" d="M119.3,74.4"/>
    </g>
  </g>
</svg>