<svg width="77" height="77" viewBox="0 0 77 77" fill="none" xmlns="http://www.w3.org/2000/svg">
<g id="Endocrine 1" clip-path="url(#clip0_34_51)">
<g id="Layer_1-2">
<g id="Endocrine">
<path id="Vector" d="M38.5492 74.5286C59.3102 74.5286 74.9924 58.86 74.9924 38.099C74.9924 17.338 59.3102 2.14377 38.5492 2.14377C17.7882 2.14377 1.38068 17.338 1.38068 38.099C1.38068 58.86 17.7882 74.5286 38.5492 74.5286Z" fill="#00679A" stroke="black" stroke-width="2" stroke-miterlimit="10"/>
<path id="Vector_2" d="M55.5371 41.0026C53.2633 44.5196 51.2595 48.3147 49.3292 52.1752C50.2371 52.3878 52.1428 51.6108 51.9874 52.8868L51.3658 52.7968L51.8075 53.2385C51.4394 54.5389 50.7196 53.8928 49.1493 54.1218C48.405 54.2363 47.5216 55.0788 46.4911 55.365C46.0494 55.4877 42.0825 56.2811 42.4097 56.4283C41.9108 56.1993 41.8699 55.2423 41.8781 55.0051C41.9762 52.8541 46.0249 52.2488 47.3744 50.5721C48.3068 49.4188 48.6667 47.7176 49.501 46.139C51.1777 42.9492 56.0933 36.9785 56.4205 33.7232C56.584 32.0465 55.8561 30.5088 56.2405 28.7585L56.9521 28.8485L57.3038 28.2268C59.3976 28.5867 60.1092 23.9492 59.0787 22.7305L59.7412 22.2479L60.3219 21.6672C61.058 21.7572 61.0825 22.5669 62.0967 22.3788L62.0068 23.2376L62.4484 23.9737C62.244 24.3663 61.8595 24.5626 61.7369 25.037L61.1153 24.947L61.5569 25.3887C61.1725 26.2475 60.9599 27.2781 60.6736 28.2268L60.052 28.1369L60.4936 28.5785C59.4713 33.167 57.9009 37.2157 55.7007 40.6427" stroke="white" stroke-linecap="round" stroke-linejoin="round"/>
<path id="Vector_3" d="M19.6964 33.3715C19.5001 33.4696 10.6913 40.8962 12.0653 49.4352C12.8914 54.5471 16.7765 57.9496 22.9108 57.0663C35.1222 55.2996 36.439 42.5566 42.1889 34.5738C44.2009 31.7766 47.0718 29.9117 48.6177 27.3435C50.7279 23.8347 51.0632 20.2931 53.4351 18.5101C53.3533 22.8777 55.6271 24.8898 59.8639 24.9389L60.0684 23.1313L61.8759 23.3358C63.0619 20.4077 59.8557 21.1765 59.0623 19.7206C58.269 18.2566 59.2505 16.588 58.2608 14.9031C56.6822 12.2286 51.0796 11.656 47.8161 12.8911C43.8329 14.4042 38.173 18.5019 33.3555 21.7245C27.7446 25.4787 19.7946 32.4718 20.1054 32.5699C20.408 32.6681 19.9009 33.2733 19.7046 33.3715H19.6964Z" stroke="white" stroke-linecap="round" stroke-linejoin="round"/>
<path id="Vector_4" d="M26.3215 34.2794C34.8359 31.4821 25.9043 45.7383 22.7063 43.9143C19.2793 41.9595 24.9965 34.7129 26.3215 34.2794Z" stroke="white" stroke-width="0.5" stroke-linecap="round" stroke-linejoin="round"/>
</g>
</g>
</g>
<defs>
<clipPath id="clip0_34_51">
<rect width="76" height="76" fill="white" transform="translate(0.549194 0.098999)"/>
</clipPath>
</defs>
</svg>
