<svg width="80" height="80" viewBox="0 0 80 80" fill="none" xmlns="http://www.w3.org/2000/svg">
<g id="Kidney 1">
<g id="Layer_1-2">
<g id="Kidney">
<path id="Vector" d="M39.7312 78.6112C60.718 78.6112 77.7312 61.598 77.7312 40.6112C77.7312 19.6244 60.718 2.61121 39.7312 2.61121C18.7444 2.61121 1.73122 19.6244 1.73122 40.6112C1.73122 61.598 18.7444 78.6112 39.7312 78.6112Z" fill="#00679A" stroke="black" stroke-width="2"/>
<path id="Vector_2" d="M23.0772 58.0221C22.5146 51.6512 21.372 44.2675 25.0422 38.6843C26.6263 36.2692 30.3311 34.4254 32.7288 33.6637C32.7375 33.0664 30.2878 34.1052 30.0541 34.1831C27.362 34.9621 24.895 37.7148 21.874 36.5808C21.3633 36.4943 21.6663 35.923 21.398 35.5767C21.0171 35.066 21.2508 33.4213 22.0731 33.4473C22.8089 33.456 23.5706 33.5772 24.2978 33.6724C23.536 33.4906 22.9388 33.2655 22.6098 33.0837C22.1943 32.8673 22.6531 31.4304 23.1378 31.5776C26.0636 32.4778 29.5607 33.4473 32.3826 31.9065C35.2391 30.3484 35.2651 28.6691 35.5334 27.3967C34.4428 30.6254 30.5994 33.1097 27.6477 30.4436C23.3629 26.6003 26.3925 20.4371 30.5908 17.3642C31.0063 17.018 31.4391 16.7063 31.8892 16.4553C41.5148 10.9933 53.945 17.797 55.4079 28.5739C59.4936 34.1398 56.6284 37.8966 55.9359 43.5836C55.2434 49.6862 51.4174 59.9784 39.3594 59.9784C29.4568 59.9784 24.1073 52.5254 27.2322 43.3759C28.0286 40.7185 30.8591 38.641 33.0578 39.8009C33.4906 39.2296 34.0273 38.641 34.0532 37.8533C31.794 36.8578 27.9853 39.2902 26.6436 41.2638C23.3196 46.1372 24.3064 52.4735 24.2025 58.0221C24.1679 59.9178 23.2157 59.5542 23.0772 58.0221Z" fill="#00679A" stroke="white"/>
<path id="Vector_3" d="M33.0405 39.8009C34.0186 40.3203 34.6332 41.4542 34.4168 43.1941C33.404 44.5704 31.3612 44.7522 29.9416 45.7217C28.7557 46.5354 29.855 47.0288 29.855 47.9723C29.855 48.6821 30.5129 48.9591 30.5994 49.5737C30.7726 50.8461 32.0969 50.9673 32.9972 51.6252C36.2346 53.971 36.2952 47.072 36.4077 45.1937C36.4596 44.3021 36.5029 42.3891 37.7754 42.6661C38.8574 42.8998 38.8228 44.3107 38.4852 45.0725C37.9225 46.3017 35.7845 52.4475 37.8273 52.863C38.6237 53.0361 39.42 53.668 40.1385 53.0708C40.9349 52.4129 41.8697 53.2612 42.7267 52.56C43.4192 51.9974 44.934 52.7418 44.7262 51.2356C44.3973 48.7167 43.0729 46.9768 41.2725 45.2716C40.3462 44.406 39.0132 40.4068 40.58 39.8182C42.2593 39.195 42.8479 42.3891 42.9604 43.4365C43.2287 46.0506 44.38 48.9764 46.8989 50.0151C48.5349 50.6903 48.6129 48.8119 49.4785 48.0329C50.0411 47.5222 49.7208 47.2452 50.5518 46.3103C51.0799 45.6957 51.3828 44.8301 50.5691 44.3454C48.8898 43.3326 46.8989 42.9517 45.3581 41.6533C44.4493 40.8743 41.8351 39.4806 43.1941 38.364C43.826 37.8446 44.683 38.1909 45.2976 38.6843C47.0461 40.0865 49.4265 42.3025 52.1532 42.3631C53.0102 42.3804 52.3783 41.3677 52.8024 40.9089C53.2872 40.3895 52.6639 39.7316 53.0708 39.1084C53.4343 38.5284 52.6553 37.8879 53.0535 37.2906C53.2785 36.9444 52.8976 36.6674 52.5774 36.6068C50.4047 36.2605 48.2147 36.2346 46.1112 36.5548C44.908 36.728 42.8306 36.9011 42.7007 35.1872C42.5968 33.8282 45.713 34.0013 46.4402 34.3822C47.9896 35.2305 49.617 36.1134 51.3828 36.0788C52.1272 36.0528 54.248 36.1913 53.417 34.9188C52.9063 34.1225 54.0749 33.7329 53.0448 32.6336C52.4389 31.9931 53.6594 30.2705 52.2052 30.2532C50.1969 30.2445 48.0762 30.5042 46.3969 31.6208C44.9946 32.5384 41.056 33.0231 41.2984 30.963C41.5321 28.9028 44.7176 29.1885 45.6784 29.5693C47.427 30.2705 49.4352 30.383 51.2789 29.8377C53.0621 29.3097 51.4694 28.4008 51.6252 27.3101C51.7983 26.1935 50.647 26.2973 50.7682 25.2759C50.8461 24.6094 49.9805 23.7265 49.2621 24.2372C47.7126 24.8518 46.4055 25.9165 45.1677 26.9638C42.441 29.2577 41.3763 26.1502 43.7827 25.5962C44.8734 25.3538 49.1842 24.0987 47.9983 22.3674C47.4789 21.6144 46.1805 21.8567 45.9814 20.9132C45.7477 19.8658 44.3713 20.2553 43.9039 19.5196C43.4884 18.8531 43.0729 18.7059 42.6661 19.3638C41.7918 20.7314 41.5927 22.757 41.7139 23.9688C42.0428 27.2235 39.6451 27.5871 39.5845 24.1419C39.4633 18.628 39.4979 18.654 38.4246 18.0567C37.0569 17.3036 37.3945 18.2385 36.0874 18.0913C35.5421 18.0394 35.1006 18.6972 35.4642 19.2166C36.2952 20.4198 36.7626 21.8308 37.1348 23.2244C36.6328 21.7182 35.7239 20.4458 34.6678 19.3118C33.8368 18.4202 33.5339 19.987 32.8847 20.2553C31.8373 20.6882 31.9585 22.3761 31.491 22.8176C30.9111 23.3456 30.9717 24.5142 31.7247 24.8691C33.3434 25.6048 35.1439 25.5702 36.8492 25.8645C35.1439 25.5702 33.1876 32.6942 28.7297 28.0112C25.6914 24.8085 27.6044 19.9091 30.5735 17.3555C30.989 17.0093 31.4218 16.6977 31.8719 16.4466C41.4975 10.9846 53.9104 17.7883 55.382 28.5739C59.4676 34.1311 56.6025 37.8792 55.91 43.5836C55.4079 47.7645 52.7505 51.6425 50.0411 54.0143C42.8652 60.3506 29.353 59.1733 27.1283 48.8033C26.7734 47.124 26.6955 45.1244 27.2149 43.3672C28.0113 40.7098 30.8418 38.6323 33.0405 39.7922V39.8009Z" fill="#00679A" stroke="white" stroke-width="0.5"/>
<path id="Vector_4" d="M42.6315 20.5497L42.1381 24.2891" stroke="white" stroke-width="0.25"/>
<path id="Vector_5" d="M43.0123 20.6103L42.2419 24.2805" stroke="white" stroke-width="0.25"/>
<path id="Vector_6" d="M43.4105 20.4112L42.3545 24.1333" stroke="white" stroke-width="0.25"/>
<path id="Vector_7" d="M43.7827 20.5497L42.5189 24.0641" stroke="white" stroke-width="0.25"/>
<path id="Vector_8" d="M44.1896 20.3592L42.6488 24.1506" stroke="white" stroke-width="0.25"/>
<path id="Vector_9" d="M44.5618 20.567L42.7094 24.2199" stroke="white" stroke-width="0.25"/>
<path id="Vector_10" d="M44.8301 20.7747L42.8219 24.2978" stroke="white" stroke-width="0.25"/>
<path id="Vector_11" d="M45.211 20.8613L42.8825 24.367" stroke="white" stroke-width="0.25"/>
<path id="Vector_12" d="M43.0296 24.5228L45.4274 21.095" stroke="white" stroke-width="0.25"/>
<path id="Vector_13" d="M45.5053 21.5191L43.2201 24.393" stroke="white" stroke-width="0.25"/>
<path id="Vector_14" d="M45.8862 21.5365L43.2114 24.5315" stroke="white" stroke-width="0.25"/>
<path id="Vector_15" d="M45.9727 21.8827L43.298 24.5921" stroke="white" stroke-width="0.25"/>
<path id="Vector_16" d="M46.267 22.0125L43.4451 24.5401" stroke="white" stroke-width="0.25"/>
<path id="Vector_17" d="M46.2757 22.3328L43.4451 24.6527" stroke="white" stroke-width="0.25"/>
<path id="Vector_18" d="M46.4834 22.5146L43.5317 24.6613" stroke="white" stroke-width="0.25"/>
<path id="Vector_19" d="M43.5577 24.7739L46.5267 22.8349" stroke="white" stroke-width="0.25"/>
<path id="Vector_20" d="M43.549 24.9123L46.4488 23.2157" stroke="white" stroke-width="0.25"/>
<path id="Vector_21" d="M43.4971 25.0941L46.4315 23.5274" stroke="white" stroke-width="0.25"/>
<path id="Vector_22" d="M43.5144 25.2153L46.267 23.9169" stroke="white" stroke-width="0.25"/>
<path id="Vector_23" d="M36.9271 23.7092L34.7371 20.3679" stroke="white" stroke-width="0.25"/>
<path id="Vector_24" d="M36.7799 23.7438L34.3302 20.2813" stroke="white" stroke-width="0.25"/>
<path id="Vector_25" d="M36.451 23.6486L34.0705 20.6016" stroke="white" stroke-width="0.25"/>
<path id="Vector_26" d="M36.3731 23.8476L33.6204 20.5583" stroke="white" stroke-width="0.25"/>
<path id="Vector_27" d="M36.1394 23.787L33.3261 20.818" stroke="white" stroke-width="0.25"/>
<path id="Vector_28" d="M36.2086 24.0381L33.0231 20.9998" stroke="white" stroke-width="0.25"/>
<path id="Vector_29" d="M35.9576 23.9861L32.85 21.4759" stroke="white" stroke-width="0.25"/>
<path id="Vector_30" d="M35.9403 24.1679L32.6163 21.9" stroke="white" stroke-width="0.25"/>
<path id="Vector_31" d="M35.8537 24.2718L32.2181 22.203" stroke="white" stroke-width="0.25"/>
<path id="Vector_32" d="M35.8277 24.3757L32.097 22.5665" stroke="white" stroke-width="0.25"/>
<path id="Vector_33" d="M35.7239 24.4449L31.9411 22.9474" stroke="white" stroke-width="0.25"/>
<path id="Vector_34" d="M35.7585 24.5834L31.6468 23.259" stroke="white" stroke-width="0.25"/>
<path id="Vector_35" d="M35.7066 24.6873L31.8113 23.7092" stroke="white" stroke-width="0.25"/>
<path id="Vector_36" d="M35.7498 24.8864L31.4391 24.0554" stroke="white" stroke-width="0.25"/>
<path id="Vector_37" d="M46.0766 29.05L50.3354 29.8896" stroke="white" stroke-width="0.25"/>
<path id="Vector_38" d="M46.1632 28.9115L50.7076 29.6213" stroke="white" stroke-width="0.25"/>
<path id="Vector_39" d="M46.4921 28.7124L50.647 29.1712" stroke="white" stroke-width="0.25"/>
<path id="Vector_40" d="M46.3882 28.496L51.0279 28.8422" stroke="white" stroke-width="0.25"/>
<path id="Vector_41" d="M46.6133 28.3661L51.0539 28.4094" stroke="white" stroke-width="0.25"/>
<path id="Vector_42" d="M46.3709 28.219L51.1318 28.0286" stroke="white" stroke-width="0.25"/>
<path id="Vector_43" d="M46.596 28.0632L50.8981 27.5265" stroke="white" stroke-width="0.25"/>
<path id="Vector_44" d="M46.4748 27.916L50.7423 27.0071" stroke="white" stroke-width="0.25"/>
<path id="Vector_45" d="M46.4488 27.7602L50.8029 26.4618" stroke="white" stroke-width="0.25"/>
<path id="Vector_46" d="M46.3882 27.6564L50.6124 26.0809" stroke="white" stroke-width="0.25"/>
<path id="Vector_47" d="M46.4142 27.5178L50.4306 25.6654" stroke="white" stroke-width="0.25"/>
<path id="Vector_48" d="M46.2757 27.4399L50.4133 25.1893" stroke="white" stroke-width="0.25"/>
<path id="Vector_49" d="M46.2411 27.3188L49.9372 24.9729" stroke="white" stroke-width="0.25"/>
<path id="Vector_50" d="M46.0593 27.2062L49.9459 24.4103" stroke="white" stroke-width="0.25"/>
<path id="Vector_51" d="M46.3709 33.6291L51.6598 35.0141" stroke="white" stroke-width="0.25"/>
<path id="Vector_52" d="M46.4921 33.5339L52.1532 34.8669" stroke="white" stroke-width="0.25"/>
<path id="Vector_53" d="M46.9162 33.4386L52.1186 34.512" stroke="white" stroke-width="0.25"/>
<path id="Vector_54" d="M46.8124 33.2569L52.6206 34.3216" stroke="white" stroke-width="0.25"/>
<path id="Vector_55" d="M47.1067 33.1876L52.6899 33.984" stroke="white" stroke-width="0.25"/>
<path id="Vector_56" d="M46.8124 33.0318L52.8284 33.707" stroke="white" stroke-width="0.25"/>
<path id="Vector_57" d="M47.1067 32.9539L52.5687 33.2742" stroke="white" stroke-width="0.25"/>
<path id="Vector_58" d="M46.9682 32.8154L52.4216 32.85" stroke="white" stroke-width="0.25"/>
<path id="Vector_59" d="M46.9509 32.6942L52.5514 32.4345" stroke="white" stroke-width="0.25"/>
<path id="Vector_60" d="M46.8816 32.599L52.3436 32.097" stroke="white" stroke-width="0.25"/>
<path id="Vector_61" d="M46.9249 32.4951L52.1532 31.7507" stroke="white" stroke-width="0.25"/>
<path id="Vector_62" d="M46.7604 32.4172L52.1705 31.3785" stroke="white" stroke-width="0.25"/>
<path id="Vector_63" d="M46.7258 32.3133L51.5906 31.1275" stroke="white" stroke-width="0.25"/>
<path id="Vector_64" d="M46.5007 32.1922L51.6511 30.6946" stroke="white" stroke-width="0.25"/>
<path id="Vector_65" d="M46.0679 38.4938L50.5778 41.5927" stroke="white" stroke-width="0.25"/>
<path id="Vector_66" d="M46.2238 38.4246L51.1145 41.5841" stroke="white" stroke-width="0.25"/>
<path id="Vector_67" d="M46.6739 38.4505L51.227 41.1859" stroke="white" stroke-width="0.25"/>
<path id="Vector_68" d="M46.6479 38.2168L51.781 41.1339" stroke="white" stroke-width="0.25"/>
<path id="Vector_69" d="M46.9509 38.2341L51.9801 40.7964" stroke="white" stroke-width="0.25"/>
<path id="Vector_70" d="M46.7258 37.9745L52.2225 40.528" stroke="white" stroke-width="0.25"/>
<path id="Vector_71" d="M47.0461 37.9745L52.1532 39.9827" stroke="white" stroke-width="0.25"/>
<path id="Vector_72" d="M46.9682 37.784L52.1792 39.472" stroke="white" stroke-width="0.25"/>
<path id="Vector_73" d="M47.0028 37.6542L52.4648 39.0565" stroke="white" stroke-width="0.25"/>
<path id="Vector_74" d="M46.9768 37.533L52.4042 38.6323" stroke="white" stroke-width="0.25"/>
<path id="Vector_75" d="M47.0547 37.4291L52.3523 38.1909" stroke="white" stroke-width="0.25"/>
<path id="Vector_76" d="M46.9336 37.2906L52.5254 37.7927" stroke="white" stroke-width="0.25"/>
<path id="Vector_77" d="M46.9422 37.1694L52.0666 37.3426" stroke="white" stroke-width="0.25"/>
<path id="Vector_78" d="M46.7691 36.9617L52.3004 36.8924" stroke="white" stroke-width="0.25"/>
<path id="Vector_79" d="M43.4192 43.246L46.7172 48.4743" stroke="white" stroke-width="0.25"/>
<path id="Vector_80" d="M43.5923 43.2634L47.2192 48.7514" stroke="white" stroke-width="0.25"/>
<path id="Vector_81" d="M43.9991 43.5317L47.4529 48.4484" stroke="white" stroke-width="0.25"/>
<path id="Vector_82" d="M44.0511 43.298L47.9896 48.6994" stroke="white" stroke-width="0.25"/>
<path id="Vector_83" d="M44.3367 43.4798L48.2839 48.5003" stroke="white" stroke-width="0.25"/>
<path id="Vector_84" d="M44.2069 43.1335L48.6042 48.3878" stroke="white" stroke-width="0.25"/>
<path id="Vector_85" d="M44.5098 43.298L48.6994 47.8598" stroke="white" stroke-width="0.25"/>
<path id="Vector_86" d="M44.4925 43.0816L48.8812 47.4096" stroke="white" stroke-width="0.25"/>
<path id="Vector_87" d="M44.5704 42.9864L49.288 47.1932" stroke="white" stroke-width="0.25"/>
<path id="Vector_88" d="M44.5791 42.8565L49.3573 46.7691" stroke="white" stroke-width="0.25"/>
<path id="Vector_89" d="M44.683 42.8132L49.4525 46.3536" stroke="white" stroke-width="0.25"/>
<path id="Vector_90" d="M44.6137 42.6141L49.7382 46.0766" stroke="white" stroke-width="0.25"/>
<path id="Vector_91" d="M44.657 42.5103L49.4438 45.4274" stroke="white" stroke-width="0.25"/>
<path id="Vector_92" d="M44.5618 42.2419L49.8074 45.1418" stroke="white" stroke-width="0.25"/>
<path id="Vector_93" d="M39.2296 45.8256L37.559 51.0712" stroke="white" stroke-width="0.25"/>
<path id="Vector_94" d="M39.3941 45.9468L37.8273 51.5819" stroke="white" stroke-width="0.25"/>
<path id="Vector_95" d="M39.5759 46.3882L38.3727 51.5732" stroke="white" stroke-width="0.25"/>
<path id="Vector_96" d="M39.8528 46.3017L38.7102 52.1013" stroke="white" stroke-width="0.25"/>
<path id="Vector_97" d="M39.974 46.6046L39.2296 52.1965" stroke="white" stroke-width="0.25"/>
<path id="Vector_98" d="M40.1904 46.3103L39.6797 52.3523" stroke="white" stroke-width="0.25"/>
<path id="Vector_99" d="M40.3462 46.6219L40.3203 52.1273" stroke="white" stroke-width="0.25"/>
<path id="Vector_100" d="M40.5453 46.4921L40.9608 52.0061" stroke="white" stroke-width="0.25"/>
<path id="Vector_101" d="M40.7271 46.4834L41.6187 52.1705" stroke="white" stroke-width="0.25"/>
<path id="Vector_102" d="M40.857 46.4229L42.1121 51.9801" stroke="white" stroke-width="0.25"/>
<path id="Vector_103" d="M41.0214 46.4748L42.6315 51.8156" stroke="white" stroke-width="0.25"/>
<path id="Vector_104" d="M41.1426 46.3103L43.2114 51.8589" stroke="white" stroke-width="0.25"/>
<path id="Vector_105" d="M41.2984 46.2844L43.549 51.2876" stroke="white" stroke-width="0.25"/>
<path id="Vector_106" d="M41.4629 46.0679L44.2242 51.3915" stroke="white" stroke-width="0.25"/>
<path id="Vector_107" d="M34.5639 44.3887L30.0714 46.5181" stroke="white" stroke-width="0.25"/>
<path id="Vector_108" d="M34.5813 44.5704L29.8896 47.0028" stroke="white" stroke-width="0.25"/>
<path id="Vector_109" d="M34.3908 44.9513L30.2186 47.3577" stroke="white" stroke-width="0.25"/>
<path id="Vector_110" d="M34.6245 45.0725L30.0801 47.8944" stroke="white" stroke-width="0.25"/>
<path id="Vector_111" d="M34.4947 45.3408L30.3224 48.2839" stroke="white" stroke-width="0.25"/>
<path id="Vector_112" d="M34.815 45.3062L30.4956 48.6734" stroke="white" stroke-width="0.25"/>
<path id="Vector_113" d="M34.7111 45.5919L31.0322 48.9504" stroke="white" stroke-width="0.25"/>
<path id="Vector_114" d="M34.9188 45.6438L31.4997 49.288" stroke="white" stroke-width="0.25"/>
<path id="Vector_115" d="M35.0314 45.7563L31.7853 49.816" stroke="white" stroke-width="0.25"/>
<path id="Vector_116" d="M35.1526 45.8083L32.2008 50.0238" stroke="white" stroke-width="0.25"/>
<path id="Vector_117" d="M35.2131 45.9381L32.6336 50.2575" stroke="white" stroke-width="0.25"/>
<path id="Vector_118" d="M35.3949 45.9208L32.9453 50.6557" stroke="white" stroke-width="0.25"/>
<path id="Vector_119" d="M35.5075 45.9987L33.5339 50.5258" stroke="white" stroke-width="0.25"/>
<path id="Vector_120" d="M35.7498 45.9814L33.8715 51.0193" stroke="white" stroke-width="0.25"/>
<path id="Vector_121" d="M38.8487 22.982L38.5458 18.9223" stroke="white" stroke-width="0.25"/>
<path id="Vector_122" d="M38.7189 22.9301L38.2515 18.6367" stroke="white" stroke-width="0.25"/>
<path id="Vector_123" d="M38.4938 22.6704L37.9052 18.7751" stroke="white" stroke-width="0.25"/>
<path id="Vector_124" d="M38.338 22.8089L37.559 18.5068" stroke="white" stroke-width="0.25"/>
<path id="Vector_125" d="M38.1822 22.6271L37.2127 18.5674" stroke="white" stroke-width="0.25"/>
<path id="Vector_126" d="M38.1216 22.8868L36.8838 18.5674" stroke="white" stroke-width="0.25"/>
<path id="Vector_127" d="M37.9485 22.7137L36.5375 18.8877" stroke="white" stroke-width="0.25"/>
<path id="Vector_128" d="M37.8533 22.8522L36.1653 19.1387" stroke="white" stroke-width="0.25"/>
</g>
</g>
</g>
</svg>
