<?xml version="1.0" encoding="UTF-8"?>
<svg id="Layer_1" xmlns="http://www.w3.org/2000/svg" version="1.1" viewBox="0 0 76 76">
  <!-- Generator: Adobe Illustrator 29.1.0, SVG Export Plug-In . SVG Version: 2.1.0 Build 142)  -->
  <defs>
    <style>
      .st0 {
        stroke-miterlimit: 10;
      }

      .st0, .st1 {
        stroke: #fff;
      }

      .st0, .st2 {
        fill: #00679a;
      }

      .st1 {
        fill: none;
        stroke-linecap: round;
        stroke-linejoin: round;
        stroke-width: .5px;
      }

      .st2 {
        stroke: #000;
        stroke-width: 2px;
      }
    </style>
  </defs>
  <g id="Heart_1">
    <g id="Layer_1-2">
      <g id="Heart">
        <path id="Vector" class="st2" d="M73.5,38c0,19.6-15.8,35.5-35.2,35.5S3.1,57.6,3.1,38,18.8,2.5,38.3,2.5s35.2,15.9,35.2,35.5Z"/>
        <path id="Vector_2" class="st0" d="M33.3,9.5c.3.2.7.4.8.8v.8c-1.3,2.5-2.2,5.1-2.5,8,0,.2-.2.4,0,.5,1.7,1.3,3.9,2.2,6.1,1.8.5-.3,1.2-.2,1.7-.5.9-.3,1.8-.7,2.6-1.1,1.7-2.5,3-5.4,4.3-8.2.4-.5.6-1.3,1.2-1.8l1-.5c.7-.2,1.5-.3,2.2,0,.4.4,1,.8,1.2,1.4.3,1.1,0,2.1-.6,3-.2.9-.7,1.6-.9,2.5h0c1.9-.9,3.8-1.1,5.9-1.6.5,0,1,0,1.4.5,1,1.1.9,3,.7,4.4-.3.6-.6,1.5-1.4,1.8-1.8.2-3.5.8-5.1,1.4h0c.3,1,.6,2,.8,3,.2.4.6.7.9.9,1.3.2,2.8-.2,4,.4.3,0,.9.6,1,0,1.2-1.1,2.9-1.8,4.2-2.9.3,0,.7,0,.9,0,.4.6.3,1.6,0,2.2-1,.9-2.3,1.1-3.1,2.2l-.3.3c1.8,2.3,2.2,5.8.8,8.4-.7,1.5-1.7,2.9-2.7,4.1h0c-.5,1-1.1,1.8-1.7,2.6-.5.7-1,1.3-1.5,1.9-1,1.1-1.9,2.3-2.9,3.4,0,.2-.3.5-.5.7-1.6,2.4-3.6,4.5-5,6.9-1.7,2.6-3.6,4.6-6.4,5.7-1.2.4-2.4.6-3.8.8-1.6.4-3.3,0-4.8-.3-1.2-.3-2.3-.5-3.3-1.3-1.5-1.1-2.8-2.5-4-3.9-.9-1.1-1.8-2-2.4-3.3-.4-.3-.4-.8-.6-1.2-.8-2-1.9-3.6-2.6-5.6-2.1,1.7-3.7,3.6-5.8,5.2-.4.2-.7.5-1.1.6-1.1,0-2.5,0-3.3-1-.3-.5-.5-1.2-.5-1.8,0,0,0,0,0-.2,0-.8.3-1.5.8-2.1h.3c1.6-1.8,3.4-3,5.1-4.6,1.8-1,2.5-2.9,3.5-4.4.3-.8.5-1.7.6-2.6h0c0-.3,0-.7.2-.8v-.3c.2-.9.6-1.8.8-2.7,0-.4.2-.8.5-1.2.4-1.3.9-2.7,1.6-3.9,1.1-1.8,1.8-3.7,2.8-5.6l.2-.5c0,0,0,0,0,0-1.1-1.3-2.7-2.4-4.2-3.4,0-.6,0-1.4.3-1.8,0-.4.3-.5.4-.9,0,0,.2-.3.4-.3v-.2c.4-.4,1-.6,1.6-.9,1.2.9,2.2,2.2,3.4,3,.4-.9.8-1.9,1.2-2.6,0-.2.2-.6.3-.8.3-.6.5-1.4.6-2.2h0c0-1,.4-2,1.2-2.4,1.1-.5,2.7-.5,3.7,0h0l-.3.2Z"/>
        <path id="Vector_3" class="st1" d="M56.9,16.3c.4.7.5,1.6.3,2.4v.3c-.4.6-.7,1.4-1.6,1.4-2.2.5-4.3,1-6.4,1.9-.5,0-1,.3-1.4.5-2.5.8-5,1.9-7.1,3.2-.5.5-1.1.9-1.6,1.4-.4.5-.8,1.1-1.1,1.6-.6.9-1.1,1.7-1.6,2.6,0,0-.3.2-.5,0,0-.6.2-.9.4-1.5,0-.2,0-.6,0-.8,0,0-.3-.2-.5,0-.8.8-1.2,2-1.5,3.1.5,1.3.5,2.6.8,3.9.2.2,0,.6.2.8v2.2c.2.9,0,2.2.2,3,0,.3,0,.6,0,.8h0c0,1.7-.3,3.7-.6,5.5-.3,1.9-1,3.5-2.1,5-.6.8-1.4,1.2-2.2,1.5-1.1,0-2.2.2-3.2-.4-1.3-1-2.5-1.9-3.1-3.5-1.3-2.2-2.1-4.8-3-7.2-.4-1.5-1.1-2.8-1.2-4.3,0-.6.6-.9,1.1-1.1h.7c0,0,.4,0,.5,0,.6.3,1.2.7,1.9.5.3-.3.3-.6,0-1-.3-.5-1-.8-1.6-1-.4-.3-.8-.6-.8-1.2,0-.9.4-1.5.7-2.2,0,0,0-.2.2-.4.9-1,1.7-1.7,3-2,.6,0,1.2-.3,1.7,0,.7.8.8,1.8.6,2.9-.2,1.1-1,2.2-1.6,3-.3.4-.5.8-.8,1.3,0,0,0,.2,0,.2,0,0,0,.2,0,.3v.2c0,.2.4,0,.6.2,1.2-.7,1.6-1.7,2.4-2.6l1.3-1.6h0c1.1-1.3,2.7-2.6,2.4-4.2,0-.2,0-.6,0-.7,0-.4-.2-1-.7-1.3h-.6c-1,.8.5,2.2-.8,2.6h-.8c-.5-.4-.4-.9-.4-1.4.4-1.3.9-2.6,1.1-3.9.3-2,.5-3.7.9-5.7,1.4.8,2.7,1.5,4.1,2.2.7.3,1.6.2,2.3,0,2.7-1,5.3-2.8,8.1-3.6,3.1-.8,6.3-1.7,9.4-2.2.2-.5.2-1.1.7-1.5.4,0,.8,0,1,.3h0v.3Z"/>
        <path id="Vector_4" class="st1" d="M49.6,23.4c0,.3.4.4.6.6.4.5.6,1.1.9,1.7,0,.6,0,1.3,0,2-.4,1.4-.8,2.8-1.8,4h0c-.7.9-1.4,2-2.3,2.7s-2.2.3-3.1.7c0,.2-.5.2-.4.4-.2,0,0,.2,0,.3,0,0,.2.3.4.3.8-.2,1.7-.2,2.5,0,.4.2.6.6.8,1,0,.8,0,1.6-.5,2.2,0,0,0,0,0,.2-.3.2-.2.6,0,.9,0,.3.3.3.5.4,1.6-.3,2.2-2,2.8-3.3,1.4-2.8,1.2-6.1,3.9-8.2,1.2-.7,2.7-.9,4-.4.6.2.9.9,1.3,1.2,0,.5.2,1.2,0,1.6-1.5,1.8-4.1,3.1-5.8,4.9-.8.6-1.5,1.4-2.2,2-1.2.9-2.2,2.1-3,3.4,0,.2,0,.5,0,.7,0,0,.2,0,0,.3.2,0,.5,0,.8,0,1-.5,1.2-1.8,2.2-2,.3,0,.3.2.3.4.2,1.8-1.5,2.5-2.3,3.8-2.4,3-5.2,6.1-8.2,8.4-1.2.6-2.4,1.7-3.9,1.3-.5-.5-.3-1.2-.3-1.8.2-.4,0-.9.3-1.4.4-2.3.3-4.6.4-6.8h0c0-2.7-.2-5.1,1.1-7.5.6-.9,1.7-1.3,2.7-1.7,0,0,0-.3,0-.5-.2-.3-.6-.3-1-.2-.2,0-.4,0-.4.3-.2,0-.4,0-.5.2-.8.3-1.2,1.4-2.2,1.4-.3-.8-.2-1.7-.2-2.6,0-2.4,1.8-4.4,3.4-6,.6-.6,1.1-1.1,1.7-1.5h0c2.3-1.7,5-2.7,7.6-3.6h0v.2Z"/>
        <path id="Vector_5" class="st1" d="M32.3,10.2c.2.2.3.5.2.7-.2.2-.4.3-.6.4h-.5c-.2,0-.3.4-.2.6h0c-.7,3.2-1,6-1.7,9,0,.3-.3.6-.6.7h-.9c.7-3.3,1.5-6.7,2.5-10,0,0,0-.3.2-.4,0-.2-.6-.3-.4-.6.4-.7,1.5-.8,2.1-.4h0Z"/>
        <path id="Vector_6" class="st1" d="M50,10.9c.3.5,0,1.1,0,1.6-.2.3-.5.4-.8.3h-.2c-.4,1.6-.9,3-1.4,4.5-.4.2-.8.5-1.3.6.7-1.9,1.4-3.5,2.1-5.4v-.2c-.4-.2-.4-.7-.5-1,0-.2,0-.4.2-.6.5,0,1.1-.8,1.8-.3l.4.4h-.2Z"/>
        <path id="Vector_7" class="st1" d="M25.6,19.3c0,.4-.3.6-.4.9,0,0-.4-.2-.5-.4-.8-.8-1.9-1.6-2.8-2.4.2-.3.4-.7.8-.9,1.1.8,1.8,1.7,2.9,2.7h0Z"/>
        <path id="Vector_8" class="st1" d="M16,46.7c-1.2,1.4-2.8,2.6-4.1,3.9,0,.2.3.2.3.4.2.4.2.8,0,1.1-.3.4-.8.5-1.2.5-.7,0-1.2-.5-1.5-1-.2-.5,0-1,.3-1.4.6-.6,1.5-.7,2.3-.6,1.4-.9,2.5-2.2,3.8-3.2,0,0,0,0,0,.3h0Z"/>
        <path id="Vector_9" class="st1" d="M61.8,25.2v.3c0,.4,0,.7.2,1-.2.3-.7.3-.9.6-.3.3-.5.4-.8.8-.2-.4-.3-.8-.7-1.1h0c.7-.8,1.4-1.3,2.2-1.6h0Z"/>
      </g>
    </g>
  </g>
</svg>