<?xml version="1.0" encoding="UTF-8"?>
<svg xmlns="http://www.w3.org/2000/svg" version="1.1" viewBox="0 0 92 93">
  <!-- Generator: Adobe Illustrator 29.2.0, SVG Export Plug-In . SVG Version: 2.1.0 Build 108)  -->
  <defs>
    <style>
      .st0, .st1, .st2, .st3, .st4, .st5, .st6 {
        stroke: #fff;
      }

      .st0, .st1, .st2, .st5 {
        stroke-miterlimit: 10;
      }

      .st0, .st7, .st8, .st4, .st5 {
        fill: #00679a;
      }

      .st1, .st2, .st3, .st6 {
        fill: none;
      }

      .st1, .st4, .st5 {
        stroke-width: .5px;
      }

      .st2 {
        stroke-width: .3px;
      }

      .st3 {
        stroke-linecap: round;
        stroke-linejoin: round;
      }

      .st8 {
        stroke: #000;
        stroke-width: 2px;
      }

      .st9 {
        display: none;
      }
    </style>
  </defs>
  <g id="Layer_1">
    <g id="Musculoskeletal_1">
      <g id="Layer_1-2">
        <g id="Musculoskeletal">
          <path id="Vector" class="st8" d="M85.9,49.1c0,19.3-15.7,35-35,35S15.9,68.5,15.9,49.1,31.6,14.1,50.9,14.1s35,15.7,35,35Z"/>
          <g id="module204" class="st9">
            <g id="Knee">
              <g id="Vector_2">
                <path class="st7" d="M67.2,33.2h-.9c0,0-.9.2-.9.2h-1.9c0,0-.9,0-.9,0h-.9l-3,.2-2,.4-1.1.7-.4.9v1l.6,1,.8,1.1.9.9.9,1.3.6,1.5.3,1.7v3.5l-.3,1.7-.4,1.7-.4,1.4-.7,2.3-.5,1.7-.3,1.5-.3,1.7-.2,1.5v2.3c0,0,.7,1.4.7,1.4l.3.9.3.9v.9c0,0,0,.9,0,.9l-.4.7-.8.6-1.2.4-1.7.2-1.6.2-1.6.4-1.6.5-1.4.5-1.2.6-.9.4-.7.3h-.2c0,0-.9.5-.9.5h-2.1c0,0-.6,0-.6,0h-.4c0,0-.2,0-.2,0h-.4v-.3h-1c0,0-.2-.4-.2-.4v-.3h-.6l-.4-.3-.2-.4v-.3h-.7c0,0-.6-.5-.6-.5l-.3-.5v-.4l-.2-.2.2-.3.5-.2h.9v-.2h.2c0,0,.2-.2.2-.2h.3l.3-.2h.4l.6-.2h.7c0,0,.9-.3.9-.3l.9-.3,1-.4,1.1-.6,1.1-.7,1.1-.8,1.1-1,1-1.2.7-1.4.4-1.5v-3.2l-.3-1.6-.4-1.4-.4-1.3-.3-1.2-.7-2.2-.7-2.4-.6-2.3-.3-1.8v-1.2c-.1,0-.4-.9-.4-.9l-.3-.7-.3-.6-.3-1.1v-1.6c-.1,0-.4-.4-.4-.4l-.3-.4-.4-.6-.4-.8-.2-1v-2l.2-.7.3-.7.4-.6.5-.6.6-.5.7-.5.8-.4.8-.4.7-.4.7-.4.7-.4.7-.4.7-.4.7-.4.8-.5.4-.3.6-.3.6-.3.7-.4.7-.4.8-.4.8-.4"/>
                <path class="st6" d="M67.2,33.2h-.9c0,0-.9.2-.9.2h-1.9c0,0-.9,0-.9,0h-.9l-3,.2-2,.4-1.1.7-.4.9v1l.6,1,.8,1.1.9.9.9,1.3.6,1.5.3,1.7v3.5l-.3,1.7-.4,1.7-.4,1.4-.7,2.3-.5,1.7-.3,1.5-.3,1.7-.2,1.5v2.3c0,0,.7,1.4.7,1.4l.3.9.3.9v.9c0,0,0,.9,0,.9l-.4.7-.8.6-1.2.4-1.7.2-1.6.2-1.6.4-1.6.5-1.4.5-1.2.6-.9.4-.7.3h-.2c0,0-.9.5-.9.5h-2.1c0,0-.6,0-.6,0h-.4c0,0-.2,0-.2,0h-.4v-.3h-1c0,0-.2-.4-.2-.4v-.3h-.6l-.4-.3-.2-.4v-.3h-.7c0,0-.6-.5-.6-.5l-.3-.5v-.4l-.2-.2.2-.3.5-.2h.9v-.2h.2c0,0,.2-.2.2-.2h.3l.3-.2h.4l.6-.2h.7c0,0,.9-.3.9-.3l.9-.3,1-.4,1.1-.6,1.1-.7,1.1-.8,1.1-1,1-1.2.7-1.4.4-1.5v-3.2l-.3-1.6-.4-1.4-.4-1.3-.3-1.2-.7-2.2-.7-2.4-.6-2.3-.3-1.8v-1.2c-.1,0-.4-.9-.4-.9l-.3-.7-.3-.6-.3-1.1v-1.6c-.1,0-.4-.4-.4-.4l-.3-.4-.4-.6-.4-.8-.2-1v-2l.2-.7.3-.7.4-.6.5-.6.6-.5.7-.5.8-.4.8-.4.7-.4.7-.4.7-.4.7-.4.7-.4.7-.4.8-.5.4-.3.6-.3.6-.3.7-.4.7-.4.8-.4.8-.4"/>
              </g>
            </g>
            <g id="Layer_6">
              <path id="Vector_3" class="st4" d="M49.8,35.9l.7-.2h.2l.3.7-.6.4-.4.3-.2.5.3,1.3.2.2-.4,2.1v3.6l.6,2.8.4,1,.7,3.1.5,1.2.3,2.8-.2,1.3-.3.5-.8.3v-.7c0,0,0-1.1,0-1.1l-.2-1.5-.2-1.5-.5-1.6-.9-3-1.1-3.8-.4-2.8-.6-1-.3-.2-.3-1.2v-1.1c.1,0,.6-1.5.6-1.5l.2-.3.2-.2,1.8-.4s.4,0,.4,0Z"/>
              <path id="Vector_4" class="st4" d="M52.6,36.4v1.3c0,0,0,2.2,0,2.2l.2,3.8.4,2.7v1.3l.7,2.4v1.3l.2,4,.2,2.2v1.2c0,0,0,.4,0,.4l-.5.4h-.2l-.8-.7-.7-1.2.5-.7.3-1.4-.2-2.4.3-.5v-2l-.2-1.8-.6-2.6-.3-2.9v-.9l-.2-1.5v-.7l-.3-.9-.5-.6v-.2l-.5-.5v-.9c0,0,.7-.6.7-.6l.4-.3h.9c0,0,.3.2.3.2h0Z"/>
              <g id="Vector_5">
                <path class="st7" d="M53.9,32.5c-2.1.4-3.1,1.2-3.1,1.2-.4.2,0,.9,0,.9,0,.4-.7.8-.7.8-1.2.4-1.8-.2-1.8-.2-2.7-2.4-.2-4.5-.2-4.5.5-.6,2-.1,2-.1,0,0,2.7-.9,4.1-.8"/>
                <path class="st1" d="M53.9,32.5c-2.1.4-3.1,1.2-3.1,1.2-.4.2,0,.9,0,.9,0,.4-.7.8-.7.8-1.2.4-1.8-.2-1.8-.2-2.7-2.4-.2-4.5-.2-4.5.5-.6,2-.1,2-.1,0,0,2.7-.9,4.1-.8"/>
              </g>
              <path id="Vector_6" class="st5" d="M46.3,31.9v1.4c-.1,0,.2.9.2.9.1.4.1.8.1.8-.2.9-1.1,1.2-1.1,1.2-.6,0-.9-.9-.9-.9-1.2-2.9-.2-4-.2-4,.7-.7,1.7-.5,1.8-.4,0,0,.2.7.1.9h0Z"/>
            </g>
          </g>
        </g>
      </g>
    </g>
  </g>
  <g id="Layer_2">
    <g>
      <rect class="st0" x="43.6" y="28.8" width="20.6" height="33.9" rx="4.7" ry="4.7" transform="translate(99.4 -8.3) rotate(89.8)"/>
      <rect class="st0" x="39.3" y="30.9" width="20.6" height="33.9" rx="4.7" ry="4.7" transform="translate(97.3 -2) rotate(89.8)"/>
      <rect class="st0" x="35.9" y="33.2" width="20.6" height="33.9" rx="4.7" ry="4.7" transform="translate(96.1 3.7) rotate(89.8)"/>
    </g>
    <line class="st2" x1="31.4" y1="52.8" x2="61" y2="52.7"/>
    <line class="st2" x1="31.4" y1="54.2" x2="61" y2="54"/>
    <line class="st2" x1="31.4" y1="55.7" x2="61" y2="55.5"/>
    <line class="st2" x1="31.2" y1="57.5" x2="60.9" y2="57.3"/>
    <path class="st3" d="M49.4,49.5c-1.3-2.3-2.6-4.7-3.9-7-1.1,2.4-2.2,4.7-3.3,7.1,2.4,0,4.7,0,7.1,0Z"/>
  </g>
</svg>