<svg width="77" height="77" viewBox="0 0 77 77" fill="none" xmlns="http://www.w3.org/2000/svg">
<g id="repro organs 1" clip-path="url(#clip0_34_2357)">
<g id="Layer_1-2">
<g id="repro_organs">
<path id="Vector" d="M41.2662 1.51892C61.6492 2.96927 76.9971 20.6687 75.5468 41.0517C74.0964 61.4347 56.397 76.7826 36.014 75.3323C15.631 73.882 0.283039 56.1825 1.73338 35.7995C3.18373 15.4165 20.8832 0.0685778 41.2662 1.51892Z" fill="#00679A" stroke="black" stroke-width="2"/>
<g id="repro_organs-2">
<g id="repro_organs2">
<path id="Vector_2" d="M26.2908 52.3425L26.1337 56.6667L26.0841 59.5026L25.9766 62.2311L25.927 66.2411M21.9583 32.0361L21.8012 32.7306L21.6938 33.4748L21.6442 34.1693L21.5945 34.9134V36.4099L21.6442 37.1541L21.7516 37.8486V38.1132L21.9087 38.7002L22.0162 39.3947L22.1237 40.0892L22.1733 40.7837L22.2229 41.4783V42.1728L22.1733 42.8673L22.0658 43.5618L21.9583 44.2563V44.6284L22.0079 45.0004L22.0576 45.4304L22.165 45.8024L22.2725 46.1745L22.4296 46.5466L22.6446 46.9186L22.8596 47.2411L23.1241 47.5635L23.3887 47.8281L23.7112 48.0927L24.0336 48.3077L24.3561 48.5226L24.7281 48.6797L25.1002 48.8368" stroke="white" stroke-width="0.5"/>
<path id="Vector_3" d="M21.9583 27.7119L22.2312 28.1915L22.5454 28.671L22.8678 29.1506L23.2399 29.5805L23.6698 29.9526L24.0419 30.3825L24.4718 30.705L24.9514 31.077L25.4309 31.3995L25.9105 31.6145L25.9683 30.9696L26.018 30.3825V29.688V29.0431L25.9683 28.4065L25.8609 27.7616L25.7038 27.1745L25.5963 26.5379L25.3813 25.9508L25.1663 25.3059L24.9018 24.7189L24.6289 24.1319L24.3147 23.5945L23.9923 23.6523L23.7194 23.7598L23.4052 23.8673L23.1324 24.0244L22.8678 24.1815L22.6032 24.3965L22.3883 24.6693L22.2312 24.876L22.0658 25.1488L21.9087 25.463L21.8012 25.7359L21.7434 26.0583V26.3725L21.6938 26.695L21.7434 27.0174L21.8012 27.3399L21.9087 27.6045L21.9583 27.7119Z" fill="#00679A" stroke="white"/>
<path id="Vector_4" d="M29.7055 32.0361L29.8709 32.7306L30.028 33.483L30.0858 34.1776L30.1354 34.9217V35.6162V36.3686L30.0858 37.1127L29.9784 37.8072L29.9205 38.0801L29.813 38.6671L29.7055 39.3616L29.598 39.9983L29.5484 40.6928L29.4905 41.3873V42.0818L29.5484 42.7763L29.6559 43.4709L29.7055 44.1654V44.5457V44.9178L29.6559 45.3394L29.5484 45.7198L29.3913 46.034L29.226 46.4143L29.011 46.7864L28.796 47.0509L28.5314 47.3734L28.2669 47.638L27.994 47.9108L27.6798 48.1258L27.3574 48.3325L26.9274 48.4978L26.605 48.6549" stroke="white" stroke-width="0.5"/>
<path id="Vector_5" d="M29.7055 27.7119L29.4409 28.1915L29.1763 28.671L28.796 29.1506L28.4239 29.5805L28.0519 29.9526L27.6219 30.3825L27.2003 30.705L26.7125 31.077L26.2329 31.3995L25.8112 31.6145L25.7038 30.9696V30.3825L25.6459 29.688L25.7038 29.0431L25.7534 28.4065L25.8608 27.7616L25.9683 27.1745L26.1254 26.5379L26.2908 25.9508L26.5554 25.3059L26.7703 24.7189L27.0928 24.1319L27.407 23.5945L27.6798 23.6523L27.994 23.7598L28.2668 23.8673L28.5893 24.0244L28.8539 24.1815L29.0688 24.3965L29.2838 24.6693L29.4905 24.876L29.6559 25.1488L29.7634 25.463L29.8709 25.7359L29.9205 26.0583L29.9783 26.3725V26.695L29.9205 27.0174L29.8709 27.3399L29.7634 27.6045L29.7055 27.7119Z" fill="#00679A" stroke="white"/>
<path id="Vector_6" d="M26.605 48.6549L26.4479 46.1993L26.3404 43.7437L26.2329 41.2798V38.8242L26.1833 36.3686L26.2329 33.913L26.2908 31.4491L26.3983 28.9935V28.5139V28.0344V27.5466L26.4479 27.067L26.5058 26.5875L26.605 26.1575L26.7703 25.678L26.9274 25.2563L27.1424 24.8264L27.407 24.3965L27.6798 24.0244L27.9444 23.6523L28.2669 23.2803L28.6389 22.9578L29.011 22.685L29.3913 22.4204L29.7634 22.1558L30.1851 21.9408L30.6729 21.7259L30.9374 21.6763L31.202 21.5109L31.5741 21.4034L31.8469 21.3538L32.219 21.2959H32.5911L32.9135 21.3538L33.236 21.4034L33.5584 21.5109L33.8726 21.6184L34.1454 21.7837L34.4596 21.9904L34.7325 22.2054L34.9475 22.4783L35.1542 22.685L35.3691 23.0074L35.5345 23.2803L35.642 23.5944L35.7991 24.0244L35.9562 24.3965L36.0636 24.8264L36.1711 25.2563L36.229 25.678V26.1575V26.5875L36.1711 27.0174L36.0636 27.4474L35.9562 27.869L35.7991 28.299L35.5841 28.671L35.427 29.0431L35.2616 29.2581V29.3159L34.7325 30.0105L34.3025 30.705L33.9305 31.4491L33.5005 32.2015L33.1781 32.9456L32.8639 33.7476L32.5414 34.5496L32.2686 35.3516L32.0619 36.1536L31.8965 37.0052L31.7394 37.8072L31.632 38.6671L31.5245 39.4691L31.4749 40.3207V41.1723V42.0322L31.5245 42.8342L31.5741 43.6858L31.7394 44.5457L32.6985 44.7028L32.5911 43.9008L32.4836 43.0492V42.1893L32.434 41.3377L32.4836 40.4778L32.5414 39.6262L32.5911 38.7746L32.7564 37.9726L32.9135 37.1127L33.0706 36.2611L33.3434 35.4012L33.5584 34.6075L33.8726 33.8055L34.1951 33.0531L34.5175 32.2511L34.8896 31.507L35.3195 30.7546L35.7991 30.0105L36.2786 29.3159L36.444 29.101L36.5432 28.7289L36.7582 28.2494L36.8656 27.7615L36.9731 27.2324L37.0806 26.7528V26.2154V25.7359V25.1985L37.031 24.6693L36.9235 24.1815L36.816 23.6523L36.6507 23.1728L36.444 22.685L36.229 22.2633H36.014L35.9562 22.0979L35.642 21.8334L35.3195 21.5688L34.9971 21.2959L34.6746 21.0892L34.3025 20.9239L33.9305 20.7668L33.5584 20.6014L33.1285 20.4939L32.7564 20.4443H32.3265H31.9544L31.5245 20.4939L31.0945 20.5518L30.7225 20.6593L30.0858 21.0892L29.3913 21.4613L28.6885 21.7837L27.994 22.0979L27.5723 22.2633L27.622 22.0979L27.7294 21.7837L27.7873 21.4613V21.0892V20.7089L27.7294 20.3947L27.6798 20.0144L27.5723 19.7002L27.7873 19.5927L27.994 19.4852L28.1594 19.3199L28.3165 19.1049L28.4818 18.8982L28.5893 18.7328L28.6389 18.4683L28.6885 18.2533V17.9887L28.6389 17.7737L28.5314 17.5588L28.8539 17.3438L29.011 17.1867V16.1697L28.8539 15.7977L28.424 15.3677H28.2669H27.8369L27.4649 15.7977L27.2499 16.1697L27.0928 16.7568L26.9853 17.1867L26.6629 17.5588L26.5058 18.3029V18.7328L26.6629 19.4852L26.3983 20.7089L26.5058 21.0892L26.605 21.4613L26.6629 21.9904V22.5279V23.0653L26.605 23.5448V23.9748L26.3983 24.6114L26.1833 25.1488L26.0758 25.7359L25.7038 25.5705L25.4888 25.1488L25.2738 24.6114L25.1167 23.9748V23.5448L25.0589 23.0653V22.5279V21.9904L25.1167 21.4613L25.2159 21.0892L25.2738 20.7089L25.3234 20.3368L25.3813 19.9069L25.3234 19.5348L25.2738 19.3199L25.3813 19.1049L25.4888 18.8982L25.5384 18.6832V18.4683V18.2533L25.4888 17.9887L25.3813 17.8233L25.2159 17.6084L25.1167 17.4513L24.9514 17.2942L24.7364 17.1867H24.6868L24.7943 16.9139V16.6493V16.3847L24.7364 16.1697L24.6868 15.9052L24.5793 15.6902L24.4718 15.4752L24.3147 15.3181L24.0998 15.1528L23.9344 14.9957L23.7194 15.0453H23.5127L23.2978 15.1032L23.0828 15.2106L22.9753 15.3677L22.7603 15.5248L22.6528 15.6902L22.6032 15.9052L22.4958 16.1201V16.3268V16.5418L22.5454 16.7568L22.6032 16.9717L22.7603 17.1288L22.8678 17.2942L23.0249 17.4513L23.1324 17.5588L23.0828 17.7737L23.0249 17.9887V18.2533L23.0828 18.4683L23.1324 18.7328L23.2399 18.8982L23.3474 19.1049L23.5127 19.3199L23.7194 19.4852L23.8848 19.5927L24.0998 19.7002L23.9923 20.0144L23.9344 20.3947L23.8848 20.7089V21.0892L23.9344 21.4613L23.9923 21.7837L24.0998 22.0979V22.2633L23.7194 22.0979L22.9753 21.7837L22.2808 21.4613L21.6359 21.0892L20.9992 20.6593L20.5693 20.5518L20.1476 20.4939L19.7673 20.4443H19.3456H18.9653L18.5436 20.4939L18.1633 20.6014L17.7416 20.7668L17.3613 20.9239L17.0471 21.0892L16.6668 21.2959L16.3526 21.5688L16.0301 21.8334L15.7656 22.0979L15.6581 22.2633H15.4927L15.2281 22.685L15.071 23.1728L14.9057 23.6523L14.7486 24.1815L14.6907 24.6693L14.5832 25.1985V25.7359V26.2154L14.6411 26.7528L14.6907 27.2324L14.7982 27.7615L14.9636 28.2494L15.1206 28.7289L15.2777 29.101L15.4431 29.3159L15.9226 30.0105L16.3526 30.7546L16.7743 31.507L17.1546 32.2511L17.5267 33.0531L17.7912 33.8055L18.1137 34.6075L18.3783 35.4012L18.5932 36.2611L18.8082 37.1127L18.9653 37.9726L19.0728 38.7746L19.1803 39.6262L19.2381 40.4778V41.3377V42.1893L19.1803 43.0492L19.1307 43.9008L19.0232 44.7028L19.9823 44.5457L20.0897 43.6858L20.1972 42.8342V42.0322L20.2468 41.1723L20.1972 40.3207L20.1476 39.4691L20.0897 38.6671L19.9327 37.8072L19.8252 37.0052L19.6102 36.1536L19.3952 35.3516L19.1307 34.5496L18.8578 33.7476L18.5436 32.9456L18.1633 32.2015L17.7912 31.4491L17.3613 30.705L16.9396 30.0105L16.4601 29.3159V29.2581L16.2947 29.0431L16.0797 28.671L15.9226 28.299L15.7656 27.869L15.6002 27.4474L15.5506 27.0174L15.4927 26.5875V26.1575V25.678L15.5506 25.2563L15.6002 24.8264L15.7077 24.3965L15.873 24.0244L16.0301 23.5944L16.1872 23.2803L16.3526 23.0074L16.5097 22.685L16.7246 22.4783L16.9396 22.2054L17.2042 21.9904L17.5267 21.7837L17.7912 21.6184L18.1137 21.5109L18.4361 21.4034L18.8082 21.3538L19.1307 21.2959H19.4448L19.8252 21.3538L20.1476 21.4034L20.4618 21.5109L20.7843 21.6763L21.0488 21.7259L21.4788 21.9408L21.9087 22.1558L22.2808 22.4204L22.7107 22.685L23.0828 22.9578L23.4052 23.2803L23.7194 23.6523L24.0419 24.0244L24.3147 24.3965L24.5214 24.8264L24.7364 25.2563L24.9018 25.678L25.0589 26.1575L25.2159 26.5875L25.2738 27.067L25.3234 27.5466V28.0344L25.2738 28.5139L25.3234 28.9935L25.3813 31.4491L25.4888 33.913V36.3686V38.8242L25.4309 41.2798L25.3813 43.7437L25.2159 46.1993L25.1167 48.6549H26.605Z" fill="white" stroke="white" stroke-width="0.15"/>
<path id="Vector_7" d="M20.8587 46.1662V45.8438L20.8091 45.5792L20.7016 45.2567L20.5941 44.9922L20.4866 44.7772L20.3295 44.6201L20.1641 44.5126L19.9492 44.4051L19.7921 44.2977L19.5275 44.2398H19.3125H19.0976L18.8826 44.2977L18.6676 44.3473L18.4527 44.4547L18.2956 44.6201L18.1385 44.7772L17.7085 45.2071L17.4936 45.5792L17.3365 45.9513V46.3812L17.1711 47.1253L17.3861 47.5553V47.9852L17.444 48.3573L17.5514 48.7872L17.6589 49.1593L17.7085 49.3164L20.8587 46.1662Z" fill="#00679A" stroke="white"/>
<path id="Vector_8" d="M18.8082 50.416L18.9653 50.6889L19.1802 50.9535L19.3952 51.1684L19.6598 51.433L19.9326 51.5984L20.1972 51.7555L20.5197 51.863L20.8421 51.9704L21.1563 52.02L21.4788 52.0779H21.8012L22.1237 52.02L22.4379 51.9704L22.7603 51.863L23.0828 51.7555L23.3473 51.5984L23.5127 51.433L23.6698 51.218L23.7773 51.0031L23.8269 50.7385L23.8848 50.5235L23.9344 50.3086V50.044L23.8848 49.829L23.7773 49.5644L23.6698 49.4073L23.5127 49.1924L23.3473 49.027L23.1903 48.8699L23.1324 48.8203L22.9257 48.7128L22.6528 48.4979L22.4379 48.2829L22.1733 48.0183L22.0162 47.7455L21.8508 47.4809L21.7433 47.1584L21.6359 46.8938L21.5863 46.5218L21.5366 46.1993V45.8769V45.7198L21.4292 45.5544L21.3217 45.4469L21.2142 45.3395L21.0488 45.2402L20.8917 45.1824H20.6768H20.5197L20.3543 45.2402L20.1972 45.1328L19.9822 45.3395L19.3952 45.5048L19.1306 45.8769L18.8578 46.0918L18.6511 46.3068L18.4361 46.5218L18.2708 46.7864L18.1137 47.0509L18.0062 47.3734L17.9566 47.638L17.8987 47.9604L17.8491 48.2829L17.8987 48.5475L17.9566 48.8699L18.0062 49.1924V49.242L18.8082 50.416Z" fill="#00679A" stroke="white" stroke-width="0.5"/>
<path id="Vector_9" d="M30.5075 46.0918V45.7694L30.615 45.5048L30.6729 45.1823L30.7804 44.9178L30.9374 44.7028L31.0945 44.5457L31.202 44.4382L31.417 44.3307L31.632 44.2233L31.8469 44.1654H32.0619H32.2686L32.5414 44.2233L32.6985 44.2729L32.9135 44.3803L33.1285 44.5457L33.236 44.7028H33.2856L33.6576 45.1327L33.8726 45.5048L34.0876 45.8769V46.3068L34.2529 47.0509L34.038 47.4809L33.9801 47.9108L33.9305 48.2829L33.823 48.7128L33.7155 49.0849L33.6576 49.242L30.5075 46.0918Z" fill="#00679A" stroke="white"/>
<path id="Vector_10" d="M32.8639 50.416L32.6985 50.6889L32.5415 50.9535L32.2686 51.1684L32.0619 51.433L31.7891 51.5984L31.4749 51.7555L31.202 51.863L30.8796 51.9704L30.5075 52.02L30.1851 52.0779H29.8709L29.5484 52.02L29.226 51.9704L28.9614 51.863L28.6389 51.7555L28.3744 51.5984L28.209 51.433L28.0519 51.218L27.9444 51.0031L27.8369 50.7385L27.7873 50.5235V50.3086V50.044L27.8369 49.829L27.8948 49.5644L27.994 49.4073L28.1594 49.1924L28.3165 49.027L28.5314 48.8699V48.8203L28.796 48.7128L29.011 48.4979L29.2838 48.2829L29.4905 48.0183L29.7055 47.7455L29.813 47.4809L29.9784 47.1584L30.028 46.8938L30.0858 46.5218L30.1355 46.1993V45.8769L30.1851 45.7198L30.2429 45.5544L30.3504 45.4469L30.5075 45.3395L30.6729 45.2402L30.83 45.1824H30.9871H31.1524L31.3095 45.2402L31.5245 45.1328L31.7395 45.3395L32.2686 45.5048L32.5415 45.8769L32.806 46.0918L33.021 46.3068L33.236 46.5218L33.3931 46.7864L33.5584 47.0509L33.6576 47.3734L33.7651 47.638L33.823 47.9604V48.2829V48.5475L33.7651 48.8699L33.6576 49.1924V49.242L32.8639 50.416Z" fill="#00679A" stroke="white" stroke-width="0.5"/>
<path id="Vector_11" d="M37.031 31.4491L36.7085 31.7219L36.3365 32.1436L35.9562 32.5736L35.6916 33.0035L35.3691 33.4252L35.1542 33.913L34.8896 34.3925L34.7325 34.9217L34.5671 35.4012L34.41 35.9387L34.3025 36.4761L34.2529 37.0052V37.5427V38.0801V39.0392L34.3025 40.2711L34.41 41.4948L34.5175 42.6689L34.6746 43.9008L34.84 45.0749L35.0549 46.3068L35.1045 46.7863L35.1542 47.2659V47.8033V48.2829L35.1045 48.7624L34.9971 49.242L34.84 49.7794L34.7325 50.2589L34.5175 50.6889L34.3025 51.1684L34.038 51.5984L33.7651 51.9704L33.5005 52.3425L33.1781 52.6071L32.8639 52.822L32.5414 53.037L32.1694 53.1941L31.7891 53.3016L31.417 53.4669L31.0945 53.5165H30.6729H30.2925H29.9205L29.5484 53.4669L29.1763 53.3595L28.796 53.1941L28.424 53.037L28.1015 52.8799L27.994 52.7724L27.8369 52.7145L27.2499 52.4004L26.605 52.1854L25.9683 51.9704H25.7038L25.0589 52.1854L24.4718 52.4004L23.8269 52.7145L23.7194 52.7724L23.6202 52.8799L23.2399 53.037L22.9257 53.1941L22.5454 53.3595L22.1733 53.4669L21.8012 53.5165H21.4292H20.9992H20.6272L20.2468 53.4669L19.8748 53.3016L19.5027 53.1941L19.1803 53.037L18.8082 52.822L18.4857 52.6071L18.2212 52.3425L17.9566 51.9704L17.6341 51.5984L17.4192 51.1684L17.2042 50.6889L16.9892 50.2589L16.8321 49.7794L16.7246 49.242L16.6172 48.7624L16.5097 48.2829V47.8033V47.2659L16.5676 46.7863L16.6668 46.3068L16.8817 45.0749L17.0471 43.9008L17.2042 42.6689L17.3117 41.4948L17.3613 40.2711L17.4192 39.0392L17.4688 38.0801V37.5427L17.4192 37.0052L17.3613 36.4761L17.2621 35.9387L17.0967 35.4012L16.9396 34.9217L16.7743 34.3925L16.5676 33.913L16.2947 33.4252L16.0301 33.0035L15.7077 32.5736L15.3852 32.1436L15.0132 31.7219L14.6907 31.4491" stroke="white" stroke-width="0.5"/>
<g id="Layer_6-2">
<g id="Vector_12">
<path d="M53.0958 38.8242V38.1876V38.8242ZM53.6911 66.2328L53.5423 55.9887L53.3935 45.8107M59.8343 31.8294L59.2886 32.5074L58.7429 33.235L58.2468 33.9626L57.7508 34.6902L57.2547 35.4178L56.8082 36.1867L56.3617 36.9556L55.9649 37.7246L55.568 38.4935L55.4192 38.8573M50.971 38.7333L50.5245 37.9147L50.078 37.1458L49.6315 36.3769L49.1354 35.6079L48.6394 34.839L48.0937 34.0701L47.548 33.3425L47.0023 32.6149L46.407 31.8873" fill="#00679A"/>
<path d="M53.0958 38.8242V38.1876M53.6911 66.2328L53.5423 55.9887L53.3935 45.8107M59.8343 31.8294L59.2886 32.5074L58.7429 33.235L58.2468 33.9626L57.7508 34.6902L57.2547 35.4178L56.8082 36.1867L56.3617 36.9556L55.9649 37.7246L55.568 38.4935L55.4192 38.8573M50.971 38.7333L50.5245 37.9147L50.078 37.1458L49.6315 36.3769L49.1354 35.6079L48.6394 34.839L48.0937 34.0701L47.548 33.3425L47.0023 32.6149L46.407 31.8873" stroke="white" stroke-width="0.75"/>
</g>
<path id="Vector_13" d="M50.9709 38.6919L51.1694 39.1384L51.4588 39.8246L51.7564 40.5026L52.0541 41.1889L52.3021 41.8669L52.5501 42.5448L52.7486 43.2311L52.947 43.9091L53.0958 44.6367L53.2447 45.3229L53.3439 46.0422V45.728L53.4431 44.9591L53.6415 44.2729L53.7904 43.5453L53.9392 42.8673L54.1376 42.1397L54.336 41.4617L54.5841 40.7341L54.8321 40.0975L55.1298 39.3699L55.477 38.7333L55.4274 38.7829L55.2786 38.8738L55.0802 38.9648L54.8817 39.0061L54.6833 39.0557L54.4849 39.0971H54.2864H54.0384L53.84 39.0557L53.6415 39.0061L53.4431 38.9152L53.2943 38.8242L53.0958 38.7333L53.0462 38.7829L52.8974 38.8738L52.7486 38.9648L52.5501 39.0061L52.3517 39.0557L52.2029 39.0971H52.0045H51.806L51.6076 39.0557L51.4588 39.0061L51.2686 38.9152L51.1198 38.8242L51.0206 38.7333L50.9709 38.6919Z" fill="#00679A" stroke="white" stroke-width="0.75"/>
<path id="Vector_14" d="M54.8321 27.5135L55.0306 27.654L55.1794 27.8359L55.3282 27.9682L55.4771 28.1501L55.5763 28.332L55.6259 28.5635L55.7251 28.7454V28.9273L55.7747 29.1506V29.3738V29.4234L55.7251 30.4238L55.6259 31.4656L55.5267 32.4661L55.4274 33.5078L55.2786 34.5083L55.1298 35.5087L54.9314 36.5505L54.7329 37.5509V37.6005H51.3596V37.5509L51.1694 36.5505L50.971 35.5087L50.8221 34.5083L50.6733 33.5078L50.5741 32.4661L50.4749 31.4656L50.3757 30.4238L50.326 29.4234V29.3738V29.1506V28.9273L50.3757 28.7454L50.4749 28.5635L50.5245 28.332L50.6733 28.1501L50.7725 27.9682L50.9214 27.8359L51.0702 27.654L51.219 27.5135H54.8321Z" fill="#00679A" stroke="white" stroke-width="0.75"/>
<g id="Vector_15">
<path d="M51.219 27.5135L51.0206 27.6458L50.8717 27.7781L50.7229 27.9104L50.6237 28.0923L50.5245 28.2741L50.4253 28.456L50.3757 28.6379L50.326 28.8198V29.3159L50.3757 30.3164L50.4253 31.3581L50.5245 32.3586L50.6237 33.359L50.7725 34.3594L50.9214 35.3599L51.1198 36.3603L51.3182 37.3607V37.4021M54.8321 27.5135L54.981 27.6458L55.1298 27.7781L55.2786 27.9104L55.4274 28.0923L55.5267 28.2741L55.6259 28.456L55.6755 28.6379L55.7251 28.8198V29.3159L55.6755 30.3164L55.6259 31.3581L55.5267 32.3586L55.4274 33.359L55.2786 34.3594L55.1298 35.3599L54.9314 36.3603L54.7329 37.3607V37.4021" fill="#00679A"/>
<path d="M51.219 27.5135L51.0206 27.6458L50.8717 27.7781L50.7229 27.9104L50.6237 28.0923L50.5245 28.2741L50.4253 28.456L50.3757 28.6379L50.326 28.8198V29.3159L50.3757 30.3164L50.4253 31.3581L50.5245 32.3586L50.6237 33.359L50.7725 34.3594L50.9214 35.3599L51.1198 36.3603L51.3182 37.3607V37.4021M54.8321 27.5135L54.981 27.6458L55.1298 27.7781L55.2786 27.9104L55.4274 28.0923L55.5267 28.2741L55.6259 28.456L55.6755 28.6379L55.7251 28.8198V29.3159L55.6755 30.3164L55.6259 31.3581L55.5267 32.3586L55.4274 33.359L55.2786 34.3594L55.1298 35.3599L54.9314 36.3603L54.7329 37.3607V37.4021" stroke="white" stroke-width="0.5"/>
</g>
<path id="Vector_16" d="M53.0958 28.9273H53.2943L53.5423 28.8364L53.84 28.7868L54.088 28.6545L54.2864 28.5635L54.5345 28.423L54.7329 28.2411L54.9314 28.0592L55.1298 27.9269L55.2786 27.6954L55.4274 27.5135L55.5763 27.2903L55.6755 27.0588L55.7251 26.8355L55.8243 26.5627L56.618 25.9674L57.5027 24.9256L57.85 24.8843H58.2468H58.5941L58.991 24.9256L59.3382 24.9752L59.7351 25.0165L60.0824 25.1075L60.4296 25.1984L60.7769 25.339L61.1241 25.5209L61.3722 25.6118L61.6698 25.7441L61.9179 25.7855L62.2155 25.8351L62.5132 25.8764H62.7529H63.0506L63.3482 25.8351L63.6459 25.7855L63.8939 25.7441L64.142 25.6532L64.4396 25.5209L64.6877 25.4299L64.9357 25.2481L65.1341 25.1075L65.3822 24.9256L65.5806 24.7437L65.7294 24.5205L65.8783 24.3386L66.0271 24.0657L66.5728 23.7433L66.6224 23.5614L66.7216 23.3795L66.7712 23.1066L66.8208 22.8834V22.6519V22.4286L66.7712 22.2054L66.7216 21.9739L66.672 21.7507L66.5728 21.5192L66.4736 21.2959L66.3247 21.0644L66.1759 20.8825L66.0271 20.7006L65.8287 20.5187L65.6302 20.3864L65.4318 20.2955L65.1838 20.1549L64.9853 20.064L64.7373 19.973L64.4396 19.9317L64.1916 19.8821H63.9435H63.6955H63.4475L63.1994 19.9317L63.1002 19.973L62.5132 20.064L61.9179 20.2045L61.3226 20.3864L60.7273 20.5683L60.1816 20.7916L59.5863 21.0231L59.0406 21.2463L58.8918 21.3869L58.6933 21.4778L58.5445 21.5688L58.3461 21.6597L58.1476 21.7011H57.8996L57.7012 21.7507L57.5027 21.7011H57.3043L57.1059 21.6597L56.9157 21.5688L56.7173 21.4778L56.2212 21.3373L55.6259 21.1554L54.981 20.9735L54.3857 20.8412L53.7408 20.7502L53.0958 20.6593H53.0462L52.4013 20.7502L51.7564 20.8412L51.1694 20.9735L50.5245 21.1554L49.9292 21.3373L49.4331 21.4778L49.2347 21.5688L49.0362 21.6597L48.8378 21.7011H48.6394L48.4409 21.7507L48.1929 21.7011H47.9945L47.796 21.6597L47.5976 21.5688L47.3992 21.4778L47.2503 21.3869L47.1015 21.2463L46.5558 21.0231L45.9605 20.7916L45.3735 20.5683L44.8278 20.3864L44.2325 20.2045L43.6372 20.064L43.0419 19.973L42.9427 19.9317L42.6946 19.8821H42.4466H42.1985H41.9505L41.7025 19.9317L41.4048 19.973L41.1568 20.064L40.9583 20.1549L40.7103 20.2955L40.5119 20.3864L40.3134 20.5187L40.115 20.7006L39.9662 20.8825L39.8256 21.0644L39.6768 21.2959L39.5776 21.5192L39.4784 21.7507L39.3791 21.9739L39.3295 22.2054V22.4286V22.6519V22.8834L39.3791 23.1066L39.4287 23.3795L39.528 23.5614L39.5776 23.7433L40.115 24.0657L40.2142 24.3386L40.4126 24.5205L40.6111 24.7437L40.7599 24.9256L41.0079 25.1075L41.2064 25.2481L41.4544 25.4299L41.7025 25.5209L41.9505 25.6532L42.2482 25.7441L42.4962 25.7855L42.7938 25.8351L43.0915 25.8764H43.3891H43.6372L43.9348 25.8351L44.2325 25.7855L44.4805 25.7441L44.7286 25.6118H44.7782L45.0262 25.5209L45.3735 25.339L45.7125 25.1984L46.0597 25.1075L46.407 25.0165L46.8039 24.9752L47.1511 24.9256L47.4984 24.8843H47.8952H48.2921L48.6394 24.9256L49.5323 25.9674L50.326 26.5627L50.3757 26.8355L50.4749 27.0588L50.5741 27.2903L50.7229 27.5135L50.8717 27.6954L51.0206 27.9269L51.219 28.0592L51.4092 28.2411L51.6076 28.423L51.8556 28.5635L52.0541 28.6545L52.3021 28.7868L52.5998 28.8364L52.8478 28.9273H53.0462H53.0958Z" fill="#00679A" stroke="white" stroke-width="0.5"/>
<path id="Vector_17" d="M42.5954 21.8416V21.7011L42.6946 21.5688L42.7443 21.4282L42.8435 21.2959L42.9923 21.205L43.1411 21.114L43.2899 21.0231L43.4388 20.9735L43.5876 20.9321H43.7364H43.9349L44.0837 20.9735L44.2325 21.0231H44.3317L44.679 21.0644L45.0262 21.114L45.3239 21.205L45.6629 21.2959L45.9605 21.4282L46.2582 21.5688L46.5558 21.7507L46.8535 21.883L47.1015 22.1145L47.3496 22.2881H47.3992L47.548 22.379L47.6968 22.4286L47.8456 22.5196L47.9449 22.6105L48.0441 22.7428L48.1433 22.8338L48.1929 22.9743L48.2425 23.1562L48.1929 23.2885V23.6523V24.0657L48.2425 24.198L47.8456 24.2476L47.3496 24.289L46.8039 24.3386H46.3078L45.7621 24.289L45.2743 24.2476L44.7782 24.198L44.6294 23.9252L44.5302 23.7019L44.3813 23.4704L44.1829 23.2472L43.9845 23.0157L43.786 22.8338L43.538 22.6105L43.2899 22.47L43.0419 22.2881L42.7939 22.1558L42.5954 22.0649V21.8416Z" fill="#00679A" stroke="white" stroke-width="0.5"/>
<g id="Vector_18">
<path d="M42.5954 22.1144L42.645 22.5196L42.7443 23.1066L43.0419 23.6523L43.538 24.198M42.8931 24.198L42.3474 23.8342L42.0497 23.5614L41.8017 23.1066L41.6529 23.0653M41.2064 23.0653L41.4544 23.7019L41.7521 24.107L42.0001 24.3303L42.397 24.5535M40.8095 23.7019L41.1568 24.107L41.5537 24.3799L41.8017 24.6031M39.9662 22.7924L40.0158 23.3795L40.1646 23.7846L40.5615 24.1897L40.8591 24.322M40.0654 24.107L40.3134 24.2393L40.0654 24.107Z" fill="#00679A"/>
<path d="M42.5954 22.1144L42.645 22.5196L42.7443 23.1066L43.0419 23.6523L43.538 24.198M42.8931 24.198L42.3474 23.8342L42.0497 23.5614L41.8017 23.1066L41.6529 23.0653M41.2064 23.0653L41.4544 23.7019L41.7521 24.107L42.0001 24.3303L42.397 24.5535M40.8095 23.7019L41.1568 24.107L41.5537 24.3799L41.8017 24.6031M39.9662 22.7924L40.0158 23.3795L40.1646 23.7846L40.5615 24.1897L40.8591 24.322M40.0654 24.107L40.3134 24.2393" stroke="white" stroke-width="0.5"/>
</g>
<path id="Vector_19" d="M63.5963 21.8416L63.5467 21.7011L63.4475 21.5688L63.3482 21.4282L63.249 21.2959L63.1498 21.205L63.001 21.114L62.8522 21.0231L62.7116 20.9735L62.5628 20.9321H62.414H62.2155L62.0667 20.9735L61.9179 21.0231H61.8187L61.4714 21.0644L61.1241 21.114L60.8265 21.205L60.4792 21.2959L60.1816 21.4282L59.8839 21.5688L59.5863 21.7507L59.2886 21.883L59.0406 22.1145L58.7925 22.2881H58.7429L58.5941 22.379L58.4453 22.4286L58.2965 22.5196L58.1972 22.6105L58.098 22.7428L57.9988 22.8338L57.9492 22.9743L57.8996 23.1562L57.9492 23.2885L57.8996 23.6523L57.9492 24.0657L57.8996 24.198L58.2965 24.2476L58.7925 24.289L59.3382 24.3386H59.8343L60.3304 24.289L60.8761 24.2476L61.3722 24.198L61.4714 23.9252L61.6202 23.7019L61.769 23.4704L61.9675 23.2472L62.1659 23.0157L62.3644 22.8338L62.6124 22.6105L62.8522 22.47L63.0506 22.2881L63.3482 22.1558L63.5963 22.0649V21.8416Z" fill="#00679A" stroke="white" stroke-width="0.5"/>
<g id="Vector_20">
<path d="M63.5963 22.1144L63.5467 22.5196L63.4475 23.1066L63.1498 23.6523L62.6537 24.198M63.1994 24.198L63.7451 23.8342L64.0428 23.5614L64.2908 23.1066L64.4396 23.0653M64.9357 23.0653L64.6877 23.7019L64.39 24.107L64.142 24.3303L63.7451 24.5535M65.3326 23.7019L64.9853 24.107L64.5885 24.3799L64.3404 24.6031M66.1759 22.7924L66.1263 23.3795L65.9775 23.7846L65.5806 24.1897L65.283 24.322M66.0271 24.107L65.7791 24.2393L66.0271 24.107ZM49.6812 25.1075L49.8796 25.5126L50.1276 25.8268L50.4253 26.0996L50.6733 26.4634M50.8221 25.5209L50.8718 25.7441L51.0702 26.0583L51.3678 26.3312L51.4671 26.4634M51.5084 25.6532L51.6076 25.8764L51.8557 26.0087L52.0045 26.141L52.1533 26.2733L52.2029 26.3642V26.4056M52.2029 25.6532L52.5006 26.017L52.5502 26.1989L52.6494 26.4717M53.1455 25.6532L53.2447 25.8764V26.0996L53.2943 26.3725M54.3361 25.2894L54.088 25.7855L53.9888 26.1906L53.8896 26.4634M55.0306 25.6118L54.7329 25.926L54.4849 26.1493L54.4353 26.3725L54.3857 26.4138M55.8243 25.5622L55.4771 25.9674L55.4275 26.0996L55.3778 26.2815L55.2786 26.3725" fill="#00679A"/>
<path d="M63.5963 22.1144L63.5467 22.5196L63.4475 23.1066L63.1498 23.6523L62.6537 24.198M63.1994 24.198L63.7451 23.8342L64.0428 23.5614L64.2908 23.1066L64.4396 23.0653M64.9357 23.0653L64.6877 23.7019L64.39 24.107L64.142 24.3303L63.7451 24.5535M65.3326 23.7019L64.9853 24.107L64.5885 24.3799L64.3404 24.6031M66.1759 22.7924L66.1263 23.3795L65.9775 23.7846L65.5806 24.1897L65.283 24.322M66.0271 24.107L65.7791 24.2393M49.6812 25.1075L49.8796 25.5126L50.1276 25.8268L50.4253 26.0996L50.6733 26.4634M50.8221 25.5209L50.8718 25.7441L51.0702 26.0583L51.3678 26.3312L51.4671 26.4634M51.5084 25.6532L51.6076 25.8764L51.8557 26.0087L52.0045 26.141L52.1533 26.2733L52.2029 26.3642V26.4056M52.2029 25.6532L52.5006 26.017L52.5502 26.1989L52.6494 26.4717M53.1455 25.6532L53.2447 25.8764V26.0996L53.2943 26.3725M54.3361 25.2894L54.088 25.7855L53.9888 26.1906L53.8896 26.4634M55.0306 25.6118L54.7329 25.926L54.4849 26.1493L54.4353 26.3725L54.3857 26.4138M55.8243 25.5622L55.4771 25.9674L55.4275 26.0996L55.3778 26.2815L55.2786 26.3725" stroke="white" stroke-width="0.5"/>
</g>
</g>
</g>
</g>
</g>
</g>
</g>
<defs>
<clipPath id="clip0_34_2357">
<rect width="76" height="76" fill="white" transform="translate(0.63501 0.419067)"/>
</clipPath>
</defs>
</svg>
