<svg width="76" height="76" viewBox="0 0 76 76" fill="none" xmlns="http://www.w3.org/2000/svg">
<g clip-path="url(#clip0_34_62)">
<path d="M75.0067 37.5866C75.0067 57.7825 58.4516 74.1732 38.0067 74.1732C17.5618 74.1732 1.00671 57.7825 1.00671 37.5866C1.00671 17.3907 17.5618 1 38.0067 1C58.4516 1 75.0067 17.3907 75.0067 37.5866Z" fill="#00679A" stroke="black" stroke-width="2"/>
<path d="M14.1864 13.5184C13.9549 13.7638 13.6076 14.1318 13.1694 14.557C12.0946 15.6202 11.2678 16.3808 11.061 16.5116C9.78777 17.3376 4.58077 22.2099 3.77877 28C3.50593 29.9709 3.06359 32.0291 3.36124 34C3.92347 37.8519 3.66114 41.5939 4.22337 45.4458C4.41353 46.7379 4.6037 48.0546 5.15766 49.2404C5.68681 50.3854 6.53015 51.3585 7.32389 52.3481C11.9127 58.0646 15.4845 65.016 21.9335 68.5653C26.5141 71.0842 31.9379 71.5176 37.1799 71.6321C41.2891 71.722 45.4396 71.6321 49.4166 70.618C53.3935 69.6039 57.2134 67.5676 59.7186 64.3536C61.0001 62.7016 61.9096 60.7961 63.0754 59.0623C65.8617 54.9406 70.1777 51.7675 71.8644 47.0978C72.5506 45.1841 72.749 43.1314 72.7656 41.095C72.8565 30.21 67.6642 19.4067 59.0819 12.6025C53.5175 8.19448 46.5393 5.4221 39.404 5.34849C36.9153 5.32396 34.4431 5.61837 31.9792 5.95367C29.3335 6.32169 25.3565 7.04954 20.776 9.29034C19.0728 10.1163 16.7247 11.4412 14.1864 13.5021V13.5184Z" stroke="white" stroke-width="0.5" stroke-miterlimit="10"/>
<path d="M59.636 22.4734C60.6447 22.8905 61.3971 23.7574 61.9593 24.6897C62.9019 26.2681 63.3814 28.0754 63.8113 29.8665C64.0594 30.8805 64.2909 31.8946 64.5141 32.9087C64.8862 34.6098 65.2334 36.3926 64.8035 38.0773C64.696 38.4862 64.5224 38.9196 64.1421 39.1159C63.9354 39.2222 63.7039 39.2467 63.4724 39.2631C62.9845 39.304 62.4719 39.3449 62.0254 39.1404C61.6947 38.9851 61.4301 38.707 61.1904 38.4371C60.7687 37.971 60.3388 37.4966 60.099 36.9242C59.8757 36.4089 59.8179 35.8365 59.7765 35.2722C59.669 33.9228 59.6112 32.5571 59.3631 31.224C59.1151 29.891 58.6769 28.5661 57.8666 27.4703C57.1308 26.4725 56.3536 26.0636 55.9732 24.8206C55.7665 24.15 55.7996 23.6593 55.9567 23.2504C56.0146 23.1032 56.2213 22.547 56.7752 22.2853C56.9985 22.179 57.23 22.1463 57.8583 22.1954C58.495 22.2445 59.1234 22.269 59.6525 22.4816H59.636V22.4734Z" stroke="white" stroke-width="0.5" stroke-miterlimit="10"/>
<path d="M58.9332 23.4466C59.3632 23.3649 59.8841 23.3485 60.1486 23.6838C60.3388 23.921 60.3305 24.2645 60.2396 24.5507C60.1486 24.8369 59.9916 25.1068 59.9006 25.393C59.8841 25.4503 59.8675 25.5075 59.8758 25.5648C59.9006 25.7038 60.0494 25.7856 60.19 25.7774C60.3305 25.7692 60.4628 25.712 60.5951 25.6711C60.8514 25.5975 61.1408 25.5893 61.364 25.7202C61.5873 25.851 61.7278 26.1536 61.6121 26.3908C61.4715 26.677 61.0912 26.7342 60.777 26.816C60.4628 26.8978 60.1238 27.2004 60.2727 27.4866C60.3719 27.6747 60.6282 27.7156 60.8349 27.6665C61.0416 27.6175 61.2318 27.5112 61.4385 27.4784C62.0503 27.3967 62.5546 28.0591 62.5381 28.6725C62.5216 29.2858 62.1578 29.8256 61.8023 30.3326C61.9676 30.578 62.3314 30.5943 62.6291 30.5534C62.9267 30.5125 63.2657 30.4635 63.5055 30.6434C63.7535 30.8233 63.7866 31.1668 63.8031 31.4775C63.8197 31.7392 63.8279 32.0091 63.7452 32.2626C63.6626 32.5162 63.4724 32.7452 63.2078 32.7942C63.5055 32.8924 63.7287 33.1949 63.7287 33.5139C63.7287 33.8328 63.522 34.1354 63.2326 34.2499C63.1334 34.2908 63.0094 34.3235 62.9598 34.4217C62.8771 34.5771 63.059 34.757 63.2409 34.7815C63.4228 34.806 63.6047 34.7651 63.7701 34.8224C64.1173 34.9532 64.1421 35.4194 64.0842 35.7792C64.0181 36.1718 63.9271 36.5562 63.8114 36.9405C63.7866 37.0223 63.7618 37.0959 63.7039 37.1532C63.5716 37.284 63.3566 37.2268 63.1665 37.2268C62.9184 37.2268 62.6869 37.3658 62.5546 37.5702C62.5216 37.6275 62.4885 37.6929 62.505 37.7583C62.5464 37.9383 62.811 37.8974 62.9929 37.8728C63.2409 37.8401 63.5055 37.9383 63.6791 38.1182C63.5964 38.2736 63.398 38.3308 63.2244 38.3635C62.8523 38.4371 62.4637 38.4617 62.0916 38.3635C61.7196 38.2654 61.3888 38.0119 61.2648 37.652C61.1408 37.2922 61.2979 36.8424 61.6534 36.7034C61.9428 36.5807 62.2653 36.6788 62.5795 36.7034C62.8936 36.7279 63.274 36.5889 63.3153 36.2781C63.3484 35.9837 63.0177 35.7547 62.7117 35.7383C62.4058 35.722 62.1164 35.8365 61.8105 35.8447C61.5377 35.8447 61.2483 35.7629 61.0829 35.5421C60.9176 35.3213 60.9258 34.9778 61.1408 34.8142C61.2896 34.6997 61.5046 34.6915 61.6617 34.5852C61.9428 34.3971 61.9345 33.9882 61.8849 33.6529C61.3392 33.6366 60.7936 33.6202 60.2479 33.6039C60.1238 33.244 60.0329 32.7697 60.3471 32.5571C60.4711 32.4753 60.6282 32.4589 60.777 32.4507C61.4963 32.4344 62.2983 32.6307 62.8688 32.2054C63.0094 32.1073 63.1251 31.9601 63.1582 31.7965C63.1913 31.6329 63.1086 31.4367 62.9432 31.3794C62.8688 31.3549 62.7944 31.3549 62.72 31.3549C61.8105 31.3549 60.901 31.3631 59.9998 31.3712C59.8593 31.0523 59.7435 30.627 59.9998 30.398C60.1817 30.2345 60.4546 30.2508 60.6943 30.2099C61.1656 30.1282 61.5707 29.7765 61.7196 29.3267C61.8188 29.0159 61.7526 28.5989 61.455 28.4598C61.2566 28.3617 61.0168 28.4189 60.8018 28.4598C60.4711 28.5171 60.1321 28.5334 59.8014 28.5007C59.388 28.4598 58.8836 28.239 58.9084 27.8301C58.925 27.5684 59.1565 27.3803 59.3384 27.2004C59.5203 27.0205 59.6856 26.7342 59.5533 26.5053C59.4293 26.3008 59.1234 26.2926 58.8919 26.358C58.6604 26.4235 58.4206 26.5461 58.1808 26.5053C58.0899 26.219 58.032 25.8428 58.2801 25.6793C58.3627 25.622 58.462 25.6057 58.5612 25.573C59.0076 25.4257 59.3301 24.9596 59.3053 24.4853C59.3053 24.3953 59.2805 24.3053 59.2144 24.2481C59.1151 24.1663 58.9663 24.1909 58.8423 24.2154C58.123 24.3953 57.4036 24.6079 56.7009 24.8615C56.6347 24.518 56.6099 24.1745 56.6265 23.8228C56.6265 23.6593 56.6513 23.4875 56.7505 23.3649C56.8745 23.2095 57.1556 23.1277 57.354 23.1604C57.693 23.2013 57.4698 23.2585 57.66 23.3649C58.0816 23.602 58.4868 23.5202 58.9498 23.4303L58.9332 23.4466Z" stroke="white" stroke-width="0.5" stroke-miterlimit="10"/>
<path d="M52.3022 27.4458C52.9636 27.6257 53.5093 28.1082 53.931 28.6398C54.6503 29.5475 55.0885 30.6352 55.5019 31.7147C55.7334 32.3281 55.9649 32.9414 56.1882 33.5548C56.5602 34.5852 56.9158 35.6647 56.7835 36.7524C56.7504 37.0141 56.676 37.3004 56.4528 37.4476C56.337 37.5294 56.1882 37.5621 56.0476 37.5948C55.75 37.6602 55.4275 37.7256 55.1381 37.6357C54.9149 37.5621 54.733 37.4149 54.5594 37.2595C54.2617 37.006 53.9558 36.7443 53.7574 36.4008C53.5755 36.0982 53.4928 35.7465 53.4184 35.3949C53.2365 34.5607 53.0959 33.7184 52.8314 32.9087C52.575 32.0991 52.1864 31.3058 51.5911 30.6925C51.0537 30.1282 50.5328 29.9319 50.1938 29.1877C50.0119 28.787 49.9954 28.4762 50.0533 28.2063C50.0781 28.1082 50.1608 27.7483 50.4832 27.5439C50.6155 27.4621 50.7561 27.4212 51.1529 27.3967C51.5498 27.3803 51.9467 27.3394 52.2939 27.4376H52.3022V27.4458Z" stroke="white" stroke-width="0.5" stroke-miterlimit="10"/>
<path d="M51.9385 28.1082C52.1948 28.0182 52.5255 27.9691 52.7157 28.1654C52.848 28.2963 52.8728 28.5089 52.8397 28.697C52.8066 28.8851 52.7322 29.0568 52.6991 29.2449C52.6991 29.2776 52.6991 29.3185 52.6991 29.3512C52.7239 29.433 52.8232 29.4739 52.9141 29.4576C53.0051 29.4412 53.0795 29.4003 53.1539 29.3594C53.3027 29.294 53.4846 29.2613 53.6334 29.3349C53.7822 29.4085 53.8897 29.5802 53.8401 29.7356C53.774 29.9237 53.5425 29.9891 53.3606 30.0709C53.1787 30.1527 52.9802 30.3653 53.1043 30.5289C53.1787 30.6352 53.344 30.6434 53.4681 30.5943C53.5921 30.5452 53.6996 30.4635 53.8319 30.4308C54.2039 30.3326 54.576 30.7006 54.6173 31.085C54.6587 31.4694 54.4768 31.8374 54.2949 32.1809C54.4189 32.3199 54.6421 32.3035 54.824 32.2545C55.0059 32.2054 55.2126 32.1482 55.378 32.2381C55.5433 32.3363 55.593 32.5407 55.626 32.7288C55.6591 32.8924 55.6839 33.0559 55.6508 33.2195C55.6178 33.3831 55.5185 33.5466 55.3614 33.5957C55.5599 33.6366 55.717 33.8083 55.7418 33.9964C55.7666 34.1845 55.6674 34.3971 55.4937 34.4953C55.4359 34.528 55.3614 34.5607 55.3366 34.6179C55.2953 34.7243 55.4276 34.8142 55.5433 34.8224C55.6591 34.8306 55.7666 34.7815 55.8823 34.806C56.1056 34.8633 56.1635 35.1495 56.1552 35.3785C56.1552 35.6239 56.1221 35.8774 56.0808 36.1227C56.0808 36.1718 56.0642 36.229 56.0312 36.2617C55.9567 36.3517 55.8162 36.3354 55.7004 36.3517C55.5516 36.3762 55.4111 36.4744 55.3449 36.6134C55.3284 36.6543 55.3118 36.6952 55.3284 36.7361C55.3697 36.8424 55.5268 36.8015 55.6426 36.7688C55.7997 36.7279 55.965 36.7688 56.089 36.8669C56.0477 36.9732 55.9319 37.0223 55.8245 37.055C55.6012 37.1286 55.3532 37.1777 55.1217 37.145C54.8902 37.1123 54.6504 36.9814 54.5512 36.7688C54.452 36.5562 54.5098 36.2617 54.7165 36.1473C54.8902 36.0491 55.0969 36.0818 55.2953 36.0737C55.4937 36.0655 55.717 35.951 55.717 35.7547C55.717 35.5584 55.4855 35.4521 55.2953 35.4685C55.1051 35.4848 54.9315 35.5748 54.7413 35.6075C54.5677 35.632 54.3858 35.5993 54.2618 35.4767C54.1378 35.354 54.1212 35.1332 54.2453 35.0187C54.3279 34.9369 54.4602 34.9124 54.5512 34.8388C54.7083 34.6997 54.6669 34.4462 54.6173 34.2418C54.2783 34.2745 53.9311 34.3072 53.5921 34.3399C53.4846 34.1273 53.3936 33.841 53.5673 33.6775C53.6417 33.612 53.7326 33.5957 53.8319 33.5793C54.2783 33.5139 54.791 33.5793 55.1134 33.2604C55.1878 33.1868 55.254 33.0886 55.2622 32.9823C55.2705 32.876 55.2044 32.7615 55.0969 32.737C55.0473 32.7288 55.0059 32.737 54.9563 32.737C54.3941 32.8106 53.8236 32.8842 53.2614 32.966C53.1456 32.7779 53.0381 32.5244 53.1787 32.3608C53.2779 32.2463 53.4515 32.2299 53.6004 32.189C53.8897 32.0991 54.113 31.8456 54.1626 31.5593C54.1957 31.3549 54.1212 31.1014 53.9228 31.0441C53.7905 31.0032 53.65 31.0523 53.5177 31.0932C53.3192 31.1586 53.1043 31.1913 52.8976 31.1995C52.6413 31.2077 52.3023 31.1095 52.2857 30.856C52.2857 30.6925 52.4015 30.5616 52.5007 30.4308C52.5999 30.2999 52.6826 30.1118 52.5751 29.981C52.4759 29.8583 52.294 29.8828 52.1534 29.9401C52.0129 29.9973 51.8723 30.0955 51.7235 30.0873C51.6491 29.9155 51.5747 29.6865 51.7235 29.5639C51.7731 29.523 51.831 29.4985 51.8889 29.4739C52.1534 29.3431 52.3188 29.0323 52.2609 28.7379C52.2609 28.6806 52.2279 28.6316 52.1865 28.5989C52.1204 28.5498 52.0294 28.5825 51.955 28.607C51.5168 28.7788 51.0951 28.9669 50.6735 29.1795C50.6073 28.9751 50.566 28.7542 50.5412 28.5416C50.5412 28.4435 50.5412 28.329 50.5825 28.2472C50.6487 28.1409 50.814 28.0673 50.938 28.0673C51.153 28.0673 51.0124 28.1245 51.1447 28.1736C51.4259 28.2881 51.6739 28.2063 51.955 28.1164H51.9385V28.1082Z" stroke="white" stroke-width="0.5" stroke-miterlimit="10"/>
<path d="M8.27493 24.0927C7.52254 24.6161 7.05953 25.4421 6.77841 26.2763C6.2906 27.6993 6.24099 29.2122 6.22445 30.6924C6.22445 31.5348 6.20792 32.3771 6.22445 33.2195C6.22445 34.6261 6.28233 36.09 6.95204 37.3331C7.1174 37.6357 7.34064 37.9383 7.6879 38.02C7.87806 38.0609 8.0765 38.0364 8.26666 38.0119C8.68006 37.9546 9.11 37.8892 9.44073 37.6357C9.68877 37.4476 9.84586 37.1777 10.003 36.916C10.2593 36.4744 10.5238 36.0164 10.6231 35.5175C10.7057 35.0677 10.6479 34.6098 10.5817 34.16C10.4164 33.0805 10.2097 32.0009 10.16 30.9051C10.1104 29.8092 10.2262 28.6806 10.6975 27.6665C11.1191 26.7424 11.6814 26.2681 11.7641 25.2213C11.8054 24.657 11.6896 24.2726 11.4829 23.9864C11.4085 23.8801 11.1274 23.4875 10.6313 23.3894C10.4246 23.3485 10.2262 23.3649 9.72184 23.5284C9.20922 23.692 8.68833 23.8228 8.29147 24.1009L8.27493 24.0927Z" stroke="white" stroke-width="0.5" stroke-miterlimit="10"/>
<path d="M9.0355 24.7224C8.66343 24.7388 8.23349 24.8287 8.0764 25.1477C7.96892 25.3685 8.03506 25.6384 8.16735 25.8428C8.29964 26.0473 8.47327 26.2272 8.60556 26.4398C8.63036 26.4807 8.65516 26.5216 8.65516 26.5707C8.65516 26.6852 8.54768 26.7751 8.43193 26.7997C8.31617 26.8242 8.20042 26.7997 8.0764 26.7997C7.85316 26.7915 7.61339 26.8406 7.4563 26.9878C7.2992 27.135 7.24133 27.3967 7.38188 27.5684C7.54724 27.7729 7.87797 27.7402 8.15081 27.7483C8.42366 27.7565 8.76265 27.9283 8.68824 28.1818C8.63863 28.3453 8.44019 28.4271 8.2583 28.4271C8.0764 28.4271 7.90277 28.378 7.72914 28.4026C7.20825 28.4516 6.91887 29.0732 7.04289 29.5475C7.16691 30.0218 7.57205 30.3817 7.96065 30.7088C7.8697 30.9378 7.57205 31.0114 7.32401 31.0441C7.07597 31.0768 6.78658 31.0932 6.62122 31.2813C6.45586 31.4694 6.48893 31.7474 6.53027 31.9928C6.57161 32.2054 6.61295 32.418 6.72044 32.598C6.82792 32.7779 7.03462 32.9251 7.26613 32.9169C7.03462 33.0559 6.9106 33.334 6.96848 33.5793C7.02636 33.8247 7.24959 34.0291 7.51417 34.0618C7.60512 34.0782 7.71261 34.0782 7.77048 34.1436C7.8697 34.2499 7.74568 34.4217 7.60512 34.4789C7.46456 34.5362 7.2992 34.5362 7.17518 34.6179C6.91887 34.7897 6.98502 35.1577 7.10077 35.4276C7.22479 35.722 7.37362 36.0082 7.53898 36.2863C7.57205 36.3435 7.61339 36.4008 7.67127 36.4335C7.80356 36.5071 7.97718 36.4171 8.12601 36.3844C8.32444 36.3435 8.54768 36.4008 8.69651 36.5316C8.73785 36.5725 8.77092 36.6216 8.77092 36.6707C8.77092 36.8179 8.54768 36.8342 8.39059 36.8587C8.17562 36.8833 7.98545 37.006 7.87797 37.1859C7.97718 37.2922 8.15081 37.3004 8.29964 37.2922C8.62209 37.2758 8.94455 37.2268 9.23393 37.0714C9.52331 36.916 9.74655 36.6543 9.77962 36.3517C9.81269 36.0491 9.59772 35.722 9.28354 35.6811C9.02723 35.6402 8.77092 35.7792 8.51461 35.8528C8.2583 35.9264 7.91931 35.8937 7.82836 35.6647C7.74568 35.4358 7.97718 35.1986 8.22523 35.125C8.47327 35.0514 8.73785 35.0841 8.98589 35.035C9.20912 34.986 9.43236 34.8633 9.53158 34.6588C9.6308 34.4544 9.55638 34.1845 9.34141 34.1027C9.19259 34.0455 9.01896 34.0782 8.87013 34.0291C8.60556 33.931 8.53941 33.612 8.50634 33.3422C8.95281 33.2277 9.39929 33.105 9.84576 32.9905C9.87884 32.6879 9.87057 32.2954 9.56465 32.189C9.4489 32.1482 9.31661 32.1645 9.18432 32.189C8.58902 32.3117 7.96892 32.6225 7.41496 32.4017C7.28267 32.3526 7.15865 32.2627 7.10077 32.1318C7.04289 32.001 7.07597 31.8374 7.19999 31.7638C7.24959 31.7311 7.31574 31.7147 7.38188 31.6984C8.13428 31.5266 8.8784 31.3549 9.6308 31.1913C9.68867 30.9133 9.70521 30.5616 9.4489 30.4226C9.267 30.3244 9.04376 30.398 8.83706 30.4062C8.43193 30.4308 8.03506 30.2345 7.82836 29.9074C7.6878 29.6784 7.663 29.3431 7.88624 29.1795C8.03506 29.065 8.24176 29.065 8.42366 29.0487C8.70477 29.0323 8.98589 28.975 9.25873 28.8851C9.58946 28.7788 9.96152 28.5089 9.87057 28.19C9.81269 27.9855 9.58946 27.8874 9.39929 27.7729C9.20912 27.6584 9.02723 27.4703 9.09337 27.274C9.15952 27.0859 9.40756 27.0205 9.61426 27.0287C9.82096 27.0368 10.0359 27.0859 10.2261 27.0041C10.2426 26.7588 10.2261 26.4562 9.98632 26.3744C9.90364 26.3417 9.82096 26.3499 9.73828 26.3417C9.34141 26.309 8.99416 26.0064 8.92801 25.6302C8.92801 25.5648 8.91147 25.483 8.96108 25.4257C9.02723 25.344 9.15125 25.3276 9.25873 25.3358C9.88711 25.3358 10.5155 25.3685 11.1439 25.4257C11.1273 25.1477 11.086 24.8696 11.0116 24.5998C10.9785 24.4771 10.9289 24.3462 10.8214 24.2645C10.6891 24.1663 10.4411 24.1581 10.284 24.2154C10.0111 24.3135 10.2096 24.3135 10.069 24.4362C9.77135 24.6979 9.41583 24.7224 9.01896 24.7388L9.0355 24.7224Z" stroke="white" stroke-width="0.5" stroke-miterlimit="10"/>
<path d="M65.7792 42.9105C65.8288 43.5893 65.5973 44.2109 65.2831 44.7261C64.7539 45.6011 63.9933 46.239 63.2326 46.8442C62.8027 47.1877 62.3727 47.5312 61.9345 47.8665C61.2069 48.4226 60.4297 48.9869 59.5037 49.0605C59.2805 49.0768 59.0242 49.0605 58.8423 48.8724C58.743 48.7742 58.6686 48.6352 58.6025 48.5044C58.4619 48.2263 58.3131 47.9237 58.3048 47.6211C58.3048 47.3921 58.371 47.1877 58.4371 46.9832C58.5611 46.6398 58.6852 46.2963 58.9001 46.0346C59.0986 45.7974 59.3549 45.6502 59.6195 45.5112C60.2478 45.1759 60.8927 44.8733 61.4798 44.4644C62.0668 44.0555 62.596 43.5321 62.9267 42.8288C63.2243 42.1909 63.2326 41.6511 63.7452 41.185C64.0181 40.9314 64.2661 40.8497 64.4976 40.866C64.5803 40.866 64.9027 40.8824 65.1673 41.1604C65.2748 41.2749 65.3492 41.4058 65.4815 41.782C65.6138 42.1663 65.7626 42.5507 65.7874 42.9024L65.7792 42.9105Z" stroke="white" stroke-width="0.5" stroke-miterlimit="10"/>
<path d="M65.1343 42.6897C65.2831 42.9269 65.4154 43.2295 65.3162 43.4585C65.25 43.6139 65.0847 43.6793 64.9193 43.6793C64.7539 43.6793 64.5886 43.6384 64.4315 43.6466C64.3984 43.6466 64.3653 43.6466 64.3405 43.6629C64.2826 43.7038 64.2826 43.8101 64.3157 43.8919C64.3488 43.9737 64.4149 44.0391 64.4645 44.1127C64.5638 44.2436 64.6382 44.4153 64.6299 44.5789C64.6216 44.7424 64.5059 44.8815 64.3653 44.8569C64.1917 44.8324 64.0677 44.6198 63.9519 44.448C63.8362 44.2763 63.6047 44.1373 63.5055 44.2845C63.4393 44.3826 63.4806 44.538 63.5551 44.6525C63.6295 44.767 63.7287 44.8569 63.7948 44.9714C63.985 45.3149 63.7948 45.7484 63.4889 45.8629C63.183 45.9773 62.8357 45.8628 62.505 45.7565C62.4306 45.9037 62.505 46.1164 62.6042 46.2881C62.7035 46.4598 62.8027 46.6479 62.7779 46.8197C62.7531 46.9996 62.596 47.0896 62.4471 47.1632C62.3231 47.2204 62.1908 47.2858 62.0503 47.2858C61.9097 47.2858 61.7444 47.2204 61.6617 47.0732C61.6865 47.2695 61.5955 47.4576 61.4467 47.523C61.2979 47.5884 61.0995 47.523 60.9672 47.3758C60.9258 47.3267 60.8762 47.2531 60.8183 47.245C60.7191 47.2286 60.686 47.3758 60.7108 47.4821C60.7357 47.5884 60.8101 47.6947 60.8183 47.8092C60.8431 48.0382 60.6199 48.1445 60.4297 48.1854C60.223 48.2263 60.0163 48.2509 59.8014 48.2509C59.76 48.2509 59.7104 48.2509 59.6691 48.2263C59.5781 48.1691 59.5451 48.03 59.5037 47.9237C59.4376 47.7765 59.3218 47.662 59.1895 47.6293C59.1565 47.6211 59.1151 47.613 59.082 47.6375C59.0076 47.7029 59.082 47.842 59.1482 47.9483C59.2226 48.0873 59.2474 48.2672 59.1978 48.3981C59.0986 48.3817 59.0242 48.2754 58.9663 48.1773C58.8423 47.9728 58.7265 47.7438 58.6852 47.5066C58.6438 47.2695 58.6852 47.016 58.8257 46.8769C58.9663 46.7379 59.2226 46.7379 59.3797 46.9178C59.512 47.065 59.545 47.2777 59.6112 47.4658C59.6773 47.6539 59.8427 47.8583 59.9998 47.8174C60.1569 47.7765 60.1817 47.5394 60.1073 47.3513C60.0329 47.1632 59.9088 47.016 59.8344 46.836C59.76 46.6725 59.7352 46.4844 59.8014 46.3454C59.8675 46.2063 60.0329 46.1409 60.1652 46.239C60.2561 46.3045 60.314 46.4271 60.4049 46.5007C60.5703 46.6316 60.7605 46.5416 60.9093 46.4517C60.7853 46.1245 60.653 45.7974 60.5289 45.4703C60.6695 45.3231 60.8762 45.1759 61.0581 45.3231C61.1325 45.3803 61.1739 45.4703 61.2152 45.5603C61.3971 45.9855 61.5046 46.4926 61.8518 46.7543C61.9345 46.8197 62.0337 46.8606 62.1247 46.8442C62.2156 46.8279 62.29 46.7379 62.2735 46.6316C62.2735 46.5825 62.2487 46.5416 62.2322 46.4926C62.0007 45.9528 61.7774 45.4212 61.5459 44.8815C61.6699 44.7343 61.8436 44.5789 62.0172 44.6852C62.1412 44.7588 62.1991 44.9224 62.2818 45.0614C62.4389 45.3231 62.7117 45.4948 62.9598 45.4948C63.1334 45.4948 63.3153 45.3722 63.3153 45.1677C63.3153 45.0287 63.2243 44.8978 63.1582 44.7752C63.0507 44.5871 62.9598 44.3908 62.8936 44.1863C62.8109 43.9328 62.7944 43.5893 62.9928 43.5239C63.1251 43.483 63.2739 43.5812 63.4062 43.6548C63.5385 43.7284 63.7204 43.7693 63.7948 43.6466C63.861 43.5321 63.7948 43.3522 63.7039 43.2213C63.6129 43.0905 63.4972 42.976 63.4558 42.8288C63.5716 42.7225 63.737 42.608 63.8775 42.7225C63.9271 42.7633 63.9602 42.8206 64.0015 42.8697C64.1834 43.1068 64.4894 43.205 64.7126 43.0905C64.7539 43.0741 64.7953 43.0414 64.8035 42.9923C64.8201 42.9187 64.7705 42.8369 64.7291 42.7715C64.4645 42.379 64.1834 42.0028 63.8858 41.6348C64.0346 41.5285 64.2 41.4467 64.3736 41.3894C64.4563 41.3649 64.539 41.3404 64.6299 41.3731C64.7374 41.414 64.8449 41.5693 64.878 41.692C64.9441 41.9046 64.8614 41.782 64.8531 41.9128C64.8531 42.2072 64.9854 42.4362 65.1425 42.6897H65.1343Z" stroke="white" stroke-width="0.5" stroke-miterlimit="10"/>
<path d="M61.488 52.2172C61.736 52.9614 61.6203 53.7629 61.3888 54.4662C60.9836 55.6684 60.2478 56.707 59.4954 57.7048C59.0737 58.269 58.6438 58.8333 58.2056 59.3894C57.478 60.3218 56.6925 61.2704 55.5928 61.7447C55.3283 61.8592 55.0141 61.941 54.7412 61.8102C54.6255 61.7529 54.5759 61.7039 54.3526 61.4912C53.7739 60.9515 53.7325 61.0005 53.5672 60.7879C53.2943 60.4281 53.2364 60.0437 53.2199 59.8965C53.1951 59.7329 53.162 59.3567 53.4514 58.588C53.6912 57.9419 53.9723 57.4921 54.1129 57.2795C54.9975 55.8974 55.2042 55.7338 55.6755 54.9651C56.1964 54.1146 56.0145 54.1963 56.7669 52.8797C57.2547 52.021 57.6516 51.4403 58.2882 50.9496C58.4949 50.7943 58.8587 50.5407 59.3796 50.4426C59.6194 50.3935 59.9501 50.3363 60.2726 50.4998C60.4297 50.5816 60.5619 50.6961 60.8265 51.0723C61.0911 51.4485 61.3722 51.8165 61.5045 52.2091H61.488V52.2172Z" stroke="white" stroke-width="0.5" stroke-miterlimit="10"/>
<path d="M60.6446 52.2336C60.8844 52.438 61.1407 52.7243 61.0828 53.0269C61.0415 53.2313 60.8596 53.3703 60.6612 53.4439C60.4627 53.5175 60.256 53.5339 60.0576 53.6075C60.0163 53.6239 59.9832 53.6402 59.9584 53.6648C59.8922 53.7384 59.9253 53.861 59.9915 53.9346C60.0576 54.0082 60.1486 54.0655 60.2312 54.1227C60.3883 54.2372 60.5289 54.3926 60.562 54.5807C60.595 54.7688 60.4958 54.9733 60.3139 55.006C60.0989 55.0469 59.8922 54.8588 59.7021 54.7197C59.5119 54.5807 59.1977 54.5153 59.115 54.7197C59.0654 54.8506 59.1564 55.0141 59.2804 55.1123C59.4044 55.2104 59.545 55.2677 59.6607 55.374C59.9915 55.6847 59.8674 56.249 59.5367 56.5026C59.206 56.7561 58.7512 56.7724 58.313 56.7888C58.2634 56.9851 58.4205 57.1977 58.5776 57.3531C58.7347 57.5085 58.9166 57.672 58.9331 57.8847C58.9497 58.0973 58.7843 58.269 58.6272 58.4081C58.4949 58.5307 58.3544 58.6452 58.1808 58.7107C58.0071 58.7761 57.8004 58.7597 57.6516 58.637C57.7343 58.8497 57.6764 59.1032 57.511 59.2341C57.3457 59.3649 57.0894 59.3813 56.8909 59.2668C56.8248 59.2259 56.7504 59.1686 56.676 59.185C56.5519 59.2013 56.5437 59.3813 56.6181 59.4958C56.6925 59.6102 56.8 59.692 56.8413 59.8147C56.9323 60.0682 56.6925 60.2808 56.4775 60.3953C56.2378 60.5262 55.9897 60.6407 55.7334 60.7306C55.6838 60.747 55.6259 60.7715 55.568 60.7552C55.4358 60.7306 55.3696 60.5834 55.2787 60.4853C55.1629 60.3463 54.981 60.2727 54.8157 60.2808C54.766 60.2808 54.7164 60.2972 54.6916 60.3381C54.6172 60.4362 54.7578 60.5671 54.857 60.6652C54.9893 60.7961 55.0554 60.9842 55.0389 61.1559C54.9149 61.1723 54.7991 61.0905 54.6999 61.0005C54.4932 60.8206 54.2948 60.608 54.179 60.3626C54.0633 60.1173 54.0385 59.8147 54.179 59.5939C54.3196 59.3731 54.6255 59.2749 54.8653 59.4058C55.0637 59.5203 55.1629 59.7411 55.2952 59.9292C55.4275 60.1173 55.6755 60.2727 55.8574 60.1664C56.0393 60.06 55.998 59.7738 55.8574 59.6021C55.7169 59.4303 55.5267 59.3077 55.3862 59.1359C55.2539 58.9805 55.1712 58.7843 55.2125 58.5962C55.2539 58.4081 55.444 58.269 55.6259 58.3263C55.7582 58.3672 55.8574 58.4817 55.9814 58.5226C56.213 58.6043 56.4197 58.4244 56.5768 58.2527C56.3287 57.9337 56.0889 57.623 55.8409 57.304C55.9732 57.0832 56.1799 56.8297 56.4445 56.9196C56.5437 56.9524 56.6264 57.0341 56.7008 57.1241C57.0398 57.5248 57.3043 58.0564 57.8004 58.2036C57.9162 58.2363 58.0485 58.2445 58.1477 58.1954C58.2469 58.1464 58.313 58.0155 58.2717 57.8928C58.2552 57.8438 58.2138 57.7947 58.1808 57.7538C57.7591 57.2386 57.3374 56.7315 56.9157 56.2163C57.0232 56.0037 57.1886 55.7584 57.4366 55.7992C57.6103 55.832 57.726 55.9955 57.8583 56.11C58.1146 56.339 58.4949 56.4208 58.8009 56.3145C59.0158 56.2409 59.1977 56.0282 59.1398 55.7992C59.0985 55.6439 58.958 55.5375 58.8422 55.423C58.6603 55.2595 58.4949 55.0714 58.3544 54.8751C58.1808 54.6298 58.065 54.2454 58.2965 54.09C58.4453 53.9919 58.6438 54.041 58.8339 54.0655C59.0241 54.09 59.2473 54.0655 59.2969 53.8937C59.3466 53.7384 59.2143 53.5584 59.0737 53.4521C58.9332 53.3458 58.7595 53.264 58.6686 53.1086C58.7761 52.9369 58.9497 52.7406 59.1564 52.8142C59.2225 52.8388 59.2804 52.8878 59.3465 52.9287C59.6359 53.1168 60.0245 53.1005 60.2643 52.8878C60.3056 52.8469 60.347 52.7979 60.347 52.7406C60.347 52.6507 60.2643 52.5771 60.1899 52.5198C59.76 52.1845 59.3135 51.8738 58.8587 51.5793C59.0076 51.3994 59.1812 51.2359 59.3714 51.0968C59.4623 51.0314 59.5615 50.966 59.6773 50.9742C59.8178 50.9742 59.9915 51.105 60.0659 51.2277C60.1982 51.4403 60.0659 51.334 60.0989 51.4894C60.1651 51.8247 60.3966 52.0291 60.6612 52.2499L60.6446 52.2336Z" stroke="white" stroke-width="0.5" stroke-miterlimit="10"/>
<path d="M50.0945 64.7297C49.5819 65.3431 48.6311 65.7193 47.6389 65.9565C45.9605 66.3654 44.0919 66.4226 42.2482 66.4553C41.2064 66.4717 40.1563 66.488 39.1146 66.488C37.3617 66.4962 35.5345 66.4799 33.8809 65.9483C33.484 65.8174 33.0623 65.6375 32.897 65.3595C32.8308 65.245 32.8308 65.1795 32.806 64.8933C32.7482 64.1655 32.6489 64.1573 32.6986 63.9119C32.7812 63.503 33.1202 63.2413 33.2442 63.1432C33.3931 63.0287 33.7403 62.7915 34.8565 62.5544C35.7825 62.3581 36.5515 62.3008 36.9318 62.2763C39.3047 62.1209 39.7016 62.17 41.008 62.0719C42.4549 61.9574 42.1737 61.8756 44.34 61.663C45.7538 61.5239 46.7791 61.4667 47.9697 61.6548C48.3583 61.712 49.0032 61.8347 49.6563 62.1536C49.9623 62.3008 50.3757 62.5053 50.5493 62.8324C50.632 62.996 50.6485 63.1596 50.5493 63.5685C50.4418 63.9855 50.3591 64.4026 50.0863 64.7216H50.1028L50.0945 64.7297Z" stroke="white" stroke-width="0.5" stroke-miterlimit="10"/>
<path d="M49.1768 64.1246C49.2181 64.419 49.1768 64.7706 48.8213 64.9015C48.565 64.9914 48.226 64.9424 47.9366 64.8361C47.6472 64.7297 47.4074 64.5907 47.1263 64.4926C47.0684 64.4762 47.0106 64.4517 46.9527 64.4517C46.8121 64.4517 46.7212 64.5416 46.7046 64.6316C46.6881 64.7216 46.7377 64.8197 46.7708 64.9178C46.8287 65.0978 46.8039 65.2859 46.6468 65.4249C46.4897 65.5639 46.1755 65.6048 45.944 65.4903C45.6629 65.3595 45.6463 65.0978 45.5885 64.877C45.5306 64.6561 45.2577 64.3863 44.9601 64.4435C44.7617 64.4844 44.6955 64.648 44.7286 64.787C44.7617 64.926 44.8443 65.0732 44.8526 65.2123C44.8774 65.6293 44.1581 65.8747 43.5462 65.7765C42.9344 65.6784 42.4218 65.3595 41.9422 65.0569C41.6777 65.1305 41.6281 65.3676 41.6446 65.5721C41.6611 65.7765 41.6777 66.0055 41.471 66.1364C41.2643 66.2754 40.917 66.2509 40.6028 66.2182C40.3382 66.1936 40.0654 66.1609 39.8174 66.071C39.5693 65.981 39.3543 65.8174 39.3295 65.6375C39.1972 65.8256 38.8748 65.9237 38.5606 65.8829C38.2464 65.842 37.957 65.662 37.8661 65.4494C37.833 65.3758 37.8165 65.2859 37.7255 65.245C37.5767 65.1714 37.3783 65.2695 37.3369 65.384C37.2956 65.4985 37.3204 65.6293 37.2377 65.7275C37.0724 65.9401 36.6011 65.891 36.2456 65.8011C35.857 65.7029 35.4766 65.5884 35.1046 65.4576C35.0301 65.4331 34.9475 65.4004 34.8979 65.3513C34.7821 65.245 34.8565 65.1059 34.8731 64.9833C34.8896 64.8197 34.7821 64.6398 34.5837 64.5253C34.5258 64.4926 34.4597 64.468 34.3935 64.468C34.2116 64.468 34.2281 64.648 34.2281 64.7788C34.2281 64.9506 34.1124 65.1059 33.914 65.1959C33.7651 65.1141 33.7321 64.9833 33.7155 64.8606C33.6825 64.5989 33.6825 64.3372 33.823 64.1082C33.9636 63.8792 34.2447 63.6911 34.6167 63.6584C34.9888 63.6257 35.427 63.7974 35.5428 64.051C35.6337 64.2554 35.5097 64.4599 35.4601 64.6643C35.4105 64.8688 35.5097 65.1468 35.8156 65.2123C36.1133 65.2777 36.3696 65.0896 36.4109 64.8851C36.4523 64.6807 36.3696 64.4762 36.3861 64.2718C36.4026 64.0919 36.5267 63.9119 36.7582 63.8302C36.9897 63.7484 37.3452 63.8056 37.4858 63.9774C37.585 64.0919 37.5684 64.2309 37.6594 64.3536C37.8248 64.5662 38.2382 64.6153 38.5771 64.6316L38.7756 63.5521C39.1476 63.5194 39.6355 63.5276 39.8256 63.7647C39.9 63.8629 39.9 63.9692 39.8918 64.0673C39.8422 64.5498 39.5693 65.0487 39.9331 65.4903C40.0241 65.5966 40.1563 65.6948 40.3217 65.7357C40.4871 65.7765 40.6938 65.752 40.7682 65.6539C40.8013 65.613 40.8095 65.5557 40.8178 65.5067C40.9005 64.9015 40.9749 64.2963 41.0576 63.6993C41.3966 63.6502 41.8265 63.6339 42.0415 63.8383C42.1903 63.9774 42.1489 64.1573 42.1655 64.329C42.1986 64.648 42.521 64.9751 42.9592 65.1305C43.2651 65.245 43.6868 65.2531 43.8604 65.0732C43.9762 64.9506 43.9431 64.787 43.9266 64.6398C43.9018 64.4108 43.9266 64.1818 43.9845 63.9692C44.0589 63.6993 44.3317 63.3967 44.7451 63.4703C45.0014 63.5194 45.1751 63.6993 45.3404 63.8465C45.5058 63.9937 45.7786 64.1409 46.0184 64.0837C46.2416 64.0264 46.2747 63.8302 46.2334 63.6666C46.192 63.503 46.0928 63.3313 46.1507 63.1759C46.4483 63.1595 46.8287 63.1759 46.9775 63.3558C47.0271 63.4212 47.0354 63.4867 47.0602 63.5603C47.1677 63.8792 47.6059 64.1573 48.0854 64.2063C48.1764 64.2145 48.2673 64.2145 48.3335 64.1818C48.4327 64.1327 48.4161 64.0264 48.3996 63.9446C48.2838 63.4376 48.135 62.9387 47.9531 62.4317C48.3004 62.4317 48.6559 62.4726 49.0032 62.5298C49.1685 62.5544 49.3339 62.5953 49.4579 62.677C49.6067 62.7834 49.6563 62.9796 49.6067 63.1105C49.5323 63.3313 49.4993 63.1677 49.367 63.2822C49.0941 63.5276 49.1272 63.8138 49.1768 64.1246Z" stroke="white" stroke-width="0.5" stroke-miterlimit="10"/>
<path d="M15.0878 18.3762C15.0299 17.9101 15.2118 17.4357 15.4599 17.0105C15.8815 16.2908 16.4934 15.6938 17.1135 15.1131C17.4607 14.786 17.8163 14.4589 18.1718 14.14C18.7671 13.6002 19.3955 13.0523 20.1644 12.8069C20.3463 12.7497 20.5613 12.7088 20.7183 12.7987C20.7845 12.8396 20.8093 12.8723 20.925 13.0032C21.2227 13.3467 21.2558 13.3221 21.3302 13.4612C21.4542 13.6902 21.4459 13.9273 21.4377 14.0091C21.4377 14.1072 21.4046 14.3362 21.1069 14.7942C20.8672 15.1786 20.6191 15.4403 20.5034 15.5629C19.751 16.3726 19.5939 16.4625 19.1888 16.9123C18.734 17.4112 18.8663 17.3703 18.2049 18.139C17.7749 18.6461 17.4442 18.9814 16.9647 19.2513C16.8076 19.3412 16.543 19.4803 16.1957 19.5211C16.0386 19.5375 15.8154 19.5702 15.6335 19.4557C15.5425 19.3985 15.4764 19.3249 15.3606 19.0877C15.2449 18.8505 15.1126 18.6134 15.0795 18.368L15.0878 18.3762Z" stroke="white" stroke-width="0.5" stroke-miterlimit="10"/>
<path d="M15.6334 18.4008C15.5094 18.2699 15.3854 18.0818 15.4598 17.9019C15.5094 17.7792 15.65 17.6974 15.7823 17.6647C15.9146 17.632 16.0551 17.6238 16.1874 17.5911C16.2122 17.5911 16.237 17.5748 16.2618 17.5584C16.3114 17.5175 16.3114 17.4439 16.2784 17.3948C16.2453 17.3458 16.1957 17.3131 16.1461 17.2722C16.0634 17.1986 15.9972 17.0923 15.9972 16.9859C15.9972 16.8796 16.0882 16.7488 16.2122 16.7324C16.361 16.7161 16.4602 16.8387 16.5677 16.9287C16.6752 17.0187 16.8654 17.0759 16.9481 16.9532C16.9977 16.8714 16.9481 16.7733 16.8985 16.7079C16.8488 16.6425 16.7496 16.6016 16.6918 16.5361C16.5264 16.3317 16.6752 15.9964 16.9233 15.8574C17.1713 15.7183 17.469 15.7183 17.7418 15.7265C17.7997 15.6038 17.7253 15.473 17.6508 15.3749C17.5764 15.2767 17.4772 15.1704 17.4938 15.0396C17.5103 14.9087 17.6426 14.8106 17.7583 14.737C17.8575 14.6715 17.965 14.5979 18.0808 14.5734C18.1965 14.5489 18.3371 14.557 18.4115 14.6388C18.3867 14.508 18.4528 14.3526 18.5769 14.279C18.7009 14.2054 18.8663 14.2054 18.982 14.279C19.0233 14.3035 19.0564 14.3444 19.106 14.3362C19.1887 14.3362 19.2135 14.2217 19.1887 14.1481C19.1639 14.0745 19.0978 14.0173 19.0895 13.9437C19.0647 13.7883 19.2466 13.6656 19.4037 13.6002C19.5773 13.5266 19.7509 13.4694 19.9246 13.4203C19.9576 13.4121 19.999 13.4039 20.032 13.4121C20.1147 13.4285 20.1395 13.5184 20.1809 13.592C20.2387 13.682 20.338 13.7311 20.4537 13.7311C20.4868 13.7311 20.5199 13.7311 20.5447 13.7065C20.6025 13.6493 20.5281 13.5675 20.4868 13.5021C20.4206 13.4203 20.4041 13.3058 20.4372 13.1995C20.5199 13.1995 20.586 13.2485 20.6356 13.3058C20.7431 13.4203 20.8423 13.5593 20.8837 13.7147C20.925 13.8701 20.9002 14.05 20.7844 14.1809C20.6687 14.3117 20.4537 14.3608 20.3214 14.2708C20.2139 14.1972 20.1809 14.0582 20.1147 13.9355C20.0486 13.8128 19.9163 13.7147 19.784 13.7719C19.6517 13.8292 19.6434 14.0009 19.7013 14.1154C19.7592 14.2299 19.875 14.3117 19.9411 14.418C20.0072 14.5162 20.032 14.6388 19.9824 14.7533C19.9328 14.8678 19.7923 14.9414 19.6765 14.9005C19.6021 14.876 19.5525 14.8024 19.4698 14.7697C19.3293 14.7124 19.1722 14.8187 19.0482 14.9087C19.1639 15.1132 19.2797 15.3094 19.3954 15.5139C19.2797 15.6447 19.1143 15.7919 18.9572 15.7265C18.8993 15.702 18.858 15.6529 18.8166 15.5957C18.6513 15.3421 18.5521 15.0068 18.2627 14.9005C18.1883 14.876 18.1056 14.8678 18.0394 14.9005C17.9733 14.9332 17.9072 15.0068 17.9154 15.0804C17.9154 15.1132 17.9402 15.1377 17.9568 15.1704C18.1552 15.4975 18.3619 15.8247 18.5603 16.1436C18.4611 16.2663 18.3206 16.4135 18.1717 16.3726C18.0642 16.3481 18.0146 16.2417 17.9402 16.1681C17.8079 16.0209 17.5764 15.9555 17.3615 16.0127C17.2126 16.0536 17.0638 16.1763 17.0721 16.3153C17.0721 16.4135 17.1548 16.4789 17.2126 16.5525C17.3119 16.6588 17.3863 16.7733 17.4524 16.9042C17.5268 17.0595 17.5516 17.2967 17.3863 17.3867C17.2788 17.4439 17.1548 17.403 17.039 17.3867C16.9233 17.3703 16.7744 17.3703 16.7166 17.4766C16.6587 17.5748 16.7166 17.6811 16.7992 17.7547C16.8819 17.8283 16.9729 17.8774 17.0142 17.9755C16.9233 18.0736 16.7827 18.1881 16.6587 18.1391C16.6173 18.1227 16.5843 18.09 16.5512 18.0655C16.3941 17.9428 16.1378 17.9346 15.9559 18.0573C15.9228 18.0818 15.8898 18.1063 15.8815 18.1472C15.8649 18.2045 15.9146 18.2536 15.9476 18.2863C16.1791 18.5071 16.4189 18.7115 16.6752 18.9078C16.5512 19.0141 16.4189 19.1041 16.2784 19.1777C16.2122 19.2104 16.1378 19.2513 16.0634 19.2431C15.9724 19.2431 15.8815 19.1531 15.8484 19.0795C15.7905 18.9487 15.8649 19.0141 15.8649 18.9242C15.8649 18.7197 15.7409 18.5889 15.6086 18.4416L15.6334 18.4008Z" stroke="white" stroke-width="0.5" stroke-miterlimit="10"/>
<path d="M38.1473 9.01229C38.015 9.03682 37.8993 8.94686 37.8745 8.82419C37.8497 8.70152 37.9406 8.57885 38.0646 8.55431C38.1886 8.52978 38.3127 8.61974 38.3375 8.74241C38.3623 8.86508 38.2713 8.98775 38.1473 9.01229Z" fill="white" stroke="white" stroke-width="0.5" stroke-miterlimit="10"/>
<path d="M37.2543 9.01229C37.122 9.03682 37.0063 8.94686 36.9815 8.82419C36.9566 8.70152 37.0476 8.57885 37.1716 8.55431C37.2956 8.52978 37.4197 8.61974 37.4445 8.74241C37.4693 8.86508 37.3783 8.98775 37.2543 9.01229Z" fill="white" stroke="white" stroke-width="0.5" stroke-miterlimit="10"/>
<path d="M36.0884 9.11859C35.9561 9.14313 35.8403 9.05317 35.8155 8.9305C35.7907 8.80783 35.8817 8.68515 36.0057 8.66062C36.1297 8.63609 36.2537 8.72604 36.2785 8.84872C36.3033 8.97139 36.2124 9.09406 36.0884 9.11859Z" fill="white" stroke="white" stroke-width="0.5" stroke-miterlimit="10"/>
<path d="M34.8402 9.20856C34.7079 9.2331 34.5921 9.14314 34.5673 9.02046C34.5425 8.89779 34.6335 8.77512 34.7575 8.75059C34.8815 8.72605 35.0055 8.81601 35.0303 8.93868C35.0551 9.06135 34.9642 9.18403 34.8402 9.20856Z" fill="white" stroke="white" stroke-width="0.5" stroke-miterlimit="10"/>
<path d="M38.2714 10.0672C38.1391 10.0918 38.0233 10.0018 37.9985 9.87915C37.9737 9.75648 38.0647 9.63381 38.1887 9.60927C38.3127 9.58474 38.4367 9.6747 38.4615 9.79737C38.4864 9.92004 38.3954 10.0427 38.2714 10.0672Z" fill="white" stroke="white" stroke-width="0.5" stroke-miterlimit="10"/>
<path d="M37.3866 10.0754C37.2543 10.1 37.1386 10.01 37.1138 9.88733C37.089 9.76466 37.1799 9.64199 37.3039 9.61745C37.428 9.59292 37.552 9.68288 37.5768 9.80555C37.6016 9.92822 37.5106 10.0509 37.3866 10.0754Z" fill="white" stroke="white" stroke-width="0.5" stroke-miterlimit="10"/>
<path d="M36.2127 10.1818C36.0804 10.2063 35.9646 10.1163 35.9398 9.99365C35.915 9.87098 36.006 9.74831 36.13 9.72378C36.254 9.69924 36.378 9.7892 36.4028 9.91187C36.4276 10.0345 36.3367 10.1572 36.2127 10.1818Z" fill="white" stroke="white" stroke-width="0.5" stroke-miterlimit="10"/>
<path d="M34.9641 10.2717C34.8318 10.2962 34.716 10.2063 34.6912 10.0836C34.6664 9.96093 34.7574 9.83826 34.8814 9.81373C35.0054 9.78919 35.1294 9.87915 35.1542 10.0018C35.179 10.1245 35.0881 10.2472 34.9641 10.2717Z" fill="white" stroke="white" stroke-width="0.5" stroke-miterlimit="10"/>
<path d="M39.0899 9.13495C39.0899 9.2658 38.999 9.37211 38.8667 9.38029C38.7344 9.38847 38.6269 9.28215 38.6269 9.15948C38.6269 9.03681 38.7178 8.92232 38.8501 8.91414C38.9824 8.90596 39.0899 9.01228 39.0899 9.13495Z" stroke="white" stroke-width="0.5" stroke-miterlimit="10"/>
<path d="M34.3107 9.66652C34.3107 9.79737 34.2198 9.90368 34.0875 9.91186C33.9552 9.92004 33.8477 9.81372 33.8477 9.69105C33.8477 9.56838 33.9387 9.45389 34.071 9.44571C34.2032 9.43753 34.3107 9.54385 34.3107 9.66652Z" stroke="white" stroke-width="0.5" stroke-miterlimit="10"/>
<path d="M36.4938 11.0813C38.229 11.0813 39.6357 10.349 39.6357 9.44571C39.6357 8.54238 38.229 7.81009 36.4938 7.81009C34.7586 7.81009 33.352 8.54238 33.352 9.44571C33.352 10.349 34.7586 11.0813 36.4938 11.0813Z" stroke="white" stroke-width="0.5" stroke-miterlimit="10"/>
<path d="M45.076 10.6234C44.9768 10.6152 44.9024 10.5252 44.9107 10.4189C44.9189 10.3126 45.0099 10.2472 45.1174 10.2553C45.2248 10.2635 45.291 10.3535 45.2827 10.4598C45.2745 10.5661 45.1835 10.6315 45.076 10.6234Z" fill="white" stroke="white" stroke-width="0.5" stroke-miterlimit="10"/>
<path d="M44.398 10.4353C44.2988 10.4271 44.2244 10.3371 44.2327 10.2308C44.241 10.1245 44.3319 10.0591 44.4394 10.0672C44.5469 10.0754 44.613 10.1654 44.6047 10.2717C44.5965 10.378 44.5055 10.4434 44.398 10.4353Z" fill="white" stroke="white" stroke-width="0.5" stroke-miterlimit="10"/>
<path d="M43.4883 10.2717C43.3891 10.2635 43.3147 10.1736 43.323 10.0672C43.3313 9.96093 43.4222 9.89551 43.5297 9.90369C43.6372 9.91187 43.7033 10.0018 43.695 10.1081C43.6868 10.2145 43.5958 10.2799 43.4883 10.2717Z" fill="white" stroke="white" stroke-width="0.5" stroke-miterlimit="10"/>
<path d="M42.5211 10.0754C42.4219 10.0673 42.3475 9.97729 42.3558 9.87098C42.364 9.76466 42.455 9.69924 42.5625 9.70741C42.6699 9.71559 42.7361 9.80555 42.7278 9.91187C42.7196 10.0182 42.6286 10.0836 42.5211 10.0754Z" fill="white" stroke="white" stroke-width="0.5" stroke-miterlimit="10"/>
<path d="M44.9435 11.4575C44.8443 11.4494 44.7699 11.3594 44.7781 11.2531C44.7864 11.1468 44.8773 11.0813 44.9848 11.0895C45.0923 11.0977 45.1585 11.1877 45.1502 11.294C45.1419 11.4003 45.051 11.4657 44.9435 11.4575Z" fill="white" stroke="white" stroke-width="0.5" stroke-miterlimit="10"/>
<path d="M44.2739 11.2694C44.1747 11.2613 44.1003 11.1713 44.1086 11.065C44.1168 10.9587 44.2078 10.8933 44.3153 10.9014C44.4228 10.9096 44.4889 10.9996 44.4806 11.1059C44.4724 11.2122 44.3814 11.2776 44.2739 11.2694Z" fill="white" stroke="white" stroke-width="0.5" stroke-miterlimit="10"/>
<path d="M43.3562 11.1059C43.257 11.0977 43.1826 11.0077 43.1908 10.9014C43.1991 10.7951 43.2901 10.7297 43.3975 10.7379C43.505 10.746 43.5712 10.836 43.5629 10.9423C43.5546 11.0486 43.4637 11.1141 43.3562 11.1059Z" fill="white" stroke="white" stroke-width="0.5" stroke-miterlimit="10"/>
<path d="M42.3888 10.9096C42.2896 10.9014 42.2152 10.8115 42.2234 10.7051C42.2317 10.5988 42.3227 10.5334 42.4301 10.5416C42.5376 10.5498 42.6038 10.6397 42.5955 10.746C42.5872 10.8523 42.4963 10.9178 42.3888 10.9096Z" fill="white" stroke="white" stroke-width="0.5" stroke-miterlimit="10"/>
<path d="M45.7703 10.9178C45.7455 11.0159 45.6463 11.0813 45.5471 11.0568C45.4479 11.0323 45.39 10.9341 45.4066 10.836C45.4231 10.7379 45.5306 10.6724 45.6298 10.697C45.729 10.7215 45.7869 10.8196 45.7703 10.9178Z" fill="white" stroke="white" stroke-width="0.5" stroke-miterlimit="10"/>
<path d="M42.025 10.3126C42.0002 10.4107 41.901 10.4762 41.8018 10.4516C41.7026 10.4271 41.6447 10.329 41.6695 10.2308C41.6943 10.1327 41.7935 10.0673 41.8927 10.0918C41.9919 10.1163 42.0498 10.2145 42.0333 10.3126H42.025Z" fill="white" stroke="white" stroke-width="0.5" stroke-miterlimit="10"/>
<path d="M46.1175 11.2558C46.3128 10.5688 45.4021 9.71452 44.0834 9.34763C42.7647 8.98074 41.5373 9.24022 41.3419 9.92719C41.1466 10.6142 42.0573 11.4685 43.376 11.8354C44.6947 12.2023 45.9221 11.9428 46.1175 11.2558Z" stroke="white" stroke-width="0.5" stroke-miterlimit="10"/>
<path d="M41.6778 15.2685C41.5869 15.2604 41.5208 15.1786 41.529 15.0968C41.5373 15.015 41.62 14.9496 41.7109 14.9578C41.8019 14.9659 41.868 15.0477 41.8597 15.1295C41.8515 15.2113 41.7688 15.2767 41.6778 15.2685Z" fill="white" stroke="white" stroke-width="0.5" stroke-miterlimit="10"/>
<path d="M41.0825 15.105C40.9916 15.0968 40.9254 15.015 40.9337 14.9332C40.9419 14.8515 41.0246 14.786 41.1156 14.7942C41.2065 14.8024 41.2727 14.8842 41.2644 14.9659C41.2561 15.0477 41.1735 15.1132 41.0825 15.105Z" fill="white" stroke="white" stroke-width="0.5" stroke-miterlimit="10"/>
<path d="M40.2722 14.9578C40.1812 14.9496 40.1151 14.8678 40.1233 14.786C40.1316 14.7042 40.2143 14.6388 40.3052 14.647C40.3962 14.6552 40.4623 14.737 40.4541 14.8187C40.4458 14.9005 40.3631 14.9659 40.2722 14.9578Z" fill="white" stroke="white" stroke-width="0.5" stroke-miterlimit="10"/>
<path d="M39.4123 14.786C39.3214 14.7778 39.2552 14.6961 39.2635 14.6143C39.2718 14.5325 39.3545 14.4671 39.4454 14.4753C39.5364 14.4834 39.6025 14.5652 39.5942 14.647C39.586 14.7288 39.5033 14.7942 39.4123 14.786Z" fill="white" stroke="white" stroke-width="0.5" stroke-miterlimit="10"/>
<path d="M41.562 15.9882C41.471 15.98 41.4049 15.8982 41.4132 15.8165C41.4214 15.7347 41.5041 15.6693 41.5951 15.6774C41.686 15.6856 41.7522 15.7674 41.7439 15.8492C41.7356 15.931 41.6529 15.9964 41.562 15.9882Z" fill="white" stroke="white" stroke-width="0.5" stroke-miterlimit="10"/>
<path d="M40.9667 15.8246C40.8757 15.8165 40.8096 15.7347 40.8178 15.6529C40.8261 15.5711 40.9088 15.5057 40.9997 15.5139C41.0907 15.522 41.1568 15.6038 41.1486 15.6856C41.1403 15.7674 41.0576 15.8328 40.9667 15.8246Z" fill="white" stroke="white" stroke-width="0.5" stroke-miterlimit="10"/>
<path d="M40.1563 15.6856C40.0653 15.6774 39.9992 15.5957 40.0075 15.5139C40.0157 15.4321 40.0984 15.3667 40.1894 15.3749C40.2803 15.383 40.3465 15.4648 40.3382 15.5466C40.3299 15.6284 40.2472 15.6938 40.1563 15.6856Z" fill="white" stroke="white" stroke-width="0.5" stroke-miterlimit="10"/>
<path d="M39.2965 15.5139C39.2055 15.5057 39.1394 15.4239 39.1477 15.3421C39.1559 15.2604 39.2386 15.1949 39.3296 15.2031C39.4205 15.2113 39.4867 15.2931 39.4784 15.3749C39.4701 15.4566 39.3874 15.5221 39.2965 15.5139Z" fill="white" stroke="white" stroke-width="0.5" stroke-miterlimit="10"/>
<path d="M42.2977 15.5221C42.2729 15.6038 42.1903 15.6611 42.0993 15.6447C42.0084 15.6284 41.9588 15.5384 41.9753 15.4566C41.9918 15.3748 42.0828 15.3176 42.1737 15.334C42.2647 15.3503 42.3143 15.4403 42.2977 15.5221Z" fill="white" stroke="white" stroke-width="0.5" stroke-miterlimit="10"/>
<path d="M38.9739 14.9905C38.9491 15.0723 38.8664 15.1295 38.7755 15.1132C38.6845 15.0968 38.6349 15.0068 38.6515 14.9251C38.668 14.8433 38.7589 14.786 38.8499 14.8024C38.9408 14.8187 38.9905 14.9087 38.9739 14.9905Z" fill="white" stroke="white" stroke-width="0.5" stroke-miterlimit="10"/>
<path d="M42.6042 15.7988C42.7676 15.2015 41.9496 14.4629 40.7771 14.1491C39.6046 13.8353 38.5217 14.0651 38.3583 14.6624C38.1949 15.2597 39.013 15.9983 40.1854 16.3121C41.3579 16.6259 42.4409 16.3961 42.6042 15.7988Z" stroke="white" stroke-width="0.5" stroke-miterlimit="10"/>
<path d="M41.7686 28.4762C41.5206 28.5171 41.2808 28.3535 41.2394 28.1082C41.1981 27.8628 41.3635 27.6338 41.6198 27.5929C41.8761 27.5521 42.1076 27.7156 42.1489 27.961C42.1903 28.2063 42.0249 28.4353 41.7686 28.4762Z" fill="white" stroke="white" stroke-width="0.5" stroke-miterlimit="10"/>
<path d="M39.3295 28.4353C39.0815 28.4762 38.8417 28.3126 38.8004 28.0673C38.759 27.8219 38.9244 27.5929 39.1807 27.5521C39.437 27.5112 39.6685 27.6747 39.7099 27.9201C39.7512 28.1654 39.5859 28.3944 39.3295 28.4353Z" fill="white" stroke="white" stroke-width="0.5" stroke-miterlimit="10"/>
<path d="M38.2382 30.1691C37.9902 30.2099 37.7504 30.0464 37.7091 29.801C37.6677 29.5557 37.8331 29.3267 38.0894 29.2858C38.3457 29.2449 38.5772 29.4085 38.6186 29.6538C38.6599 29.8992 38.4945 30.1282 38.2382 30.1691Z" fill="white" stroke="white" stroke-width="0.5" stroke-miterlimit="10"/>
<path d="M43.3315 26.5298C43.3315 26.7833 43.1496 26.9959 42.8933 27.0041C42.637 27.0123 42.4303 26.816 42.422 26.5707C42.4137 26.3253 42.6039 26.1045 42.8602 26.0963C43.1165 26.0882 43.3232 26.2844 43.3315 26.5298Z" fill="white" stroke="white" stroke-width="0.5" stroke-miterlimit="10"/>
<path d="M46.9858 18.1063C46.7378 18.1472 46.498 17.9837 46.4566 17.7383C46.4153 17.493 46.5807 17.264 46.837 17.2231C47.0933 17.1822 47.3248 17.3458 47.3661 17.5911C47.4075 17.8365 47.2421 18.0655 46.9858 18.1063Z" fill="#1E1E1C" stroke="white" stroke-width="0.5" stroke-miterlimit="10"/>
<path d="M50.9462 22.0318C50.6981 22.0727 50.4583 21.9092 50.417 21.6638C50.3757 21.4185 50.541 21.1895 50.7973 21.1486C51.0536 21.1077 51.2851 21.2713 51.3265 21.5166C51.3678 21.762 51.2025 21.9909 50.9462 22.0318Z" fill="#1E1E1C" stroke="white" stroke-width="0.5" stroke-miterlimit="10"/>
<path d="M48.838 21.6066C48.5899 21.6474 48.3502 21.4839 48.3088 21.2385C48.2675 20.9932 48.4328 20.7642 48.6891 20.7233C48.9455 20.6824 49.177 20.846 49.2183 21.0913C49.2596 21.3367 49.0943 21.5657 48.838 21.6066Z" fill="#1E1E1C" stroke="white" stroke-width="0.5" stroke-miterlimit="10"/>
<path d="M46.779 21.2385C46.531 21.2794 46.2912 21.1159 46.2499 20.8705C46.2085 20.6252 46.3739 20.3962 46.6302 20.3553C46.8865 20.3144 47.118 20.478 47.1594 20.7233C47.2007 20.9687 47.0353 21.1977 46.779 21.2385Z" fill="#1E1E1C" stroke="white" stroke-width="0.5" stroke-miterlimit="10"/>
<path d="M47.9448 23.2095C47.6967 23.2504 47.457 23.0868 47.4156 22.8415C47.3743 22.5961 47.5396 22.3671 47.796 22.3262C48.0523 22.2853 48.2838 22.4489 48.3251 22.6943C48.3664 22.9396 48.2011 23.1686 47.9448 23.2095Z" fill="#1E1E1C" stroke="white" stroke-width="0.5" stroke-miterlimit="10"/>
<path d="M49.6813 19.5048C49.4333 19.5457 49.1935 19.3821 49.1521 19.1368C49.1108 18.8914 49.2762 18.6624 49.5325 18.6216C49.7888 18.5807 50.0203 18.7442 50.0616 18.9896C50.103 19.2349 49.9376 19.4639 49.6813 19.5048Z" fill="#1E1E1C" stroke="white" stroke-width="0.5" stroke-miterlimit="10"/>
<path d="M47.887 20.0773C47.639 20.1181 47.3992 19.9546 47.3579 19.7092C47.3165 19.4639 47.4819 19.2349 47.7382 19.194C47.9945 19.1531 48.226 19.3167 48.2674 19.562C48.3087 19.8074 48.1433 20.0364 47.887 20.0773Z" fill="#1E1E1C" stroke="white" stroke-width="0.5" stroke-miterlimit="10"/>
<path d="M46.5891 18.9978C46.5891 19.2513 46.4072 19.4639 46.1509 19.4721C45.8946 19.4803 45.6879 19.284 45.6796 19.0386C45.6713 18.7933 45.8615 18.5725 46.1095 18.5643C46.3576 18.5561 46.5726 18.7524 46.5808 18.9978H46.5891Z" fill="#1E1E1C" stroke="white" stroke-width="0.5" stroke-miterlimit="10"/>
<path d="M26.514 32.2708C26.266 32.3117 26.0262 32.1482 25.9848 31.9028C25.9435 31.6575 26.1089 31.4285 26.3652 31.3876C26.6215 31.3467 26.853 31.5103 26.8943 31.7556C26.9357 32.001 26.7703 32.2299 26.514 32.2708Z" fill="#1E1E1C" stroke="white" stroke-width="0.5" stroke-miterlimit="10"/>
<path d="M30.4828 36.1963C30.2348 36.2372 29.995 36.0737 29.9537 35.8283C29.9123 35.583 30.0777 35.354 30.334 35.3131C30.5903 35.2722 30.8218 35.4358 30.8632 35.6811C30.9045 35.9264 30.7391 36.1554 30.4828 36.1963Z" fill="#1E1E1C" stroke="white" stroke-width="0.5" stroke-miterlimit="10"/>
<path d="M28.3744 35.7711C28.1264 35.812 27.8866 35.6484 27.8453 35.403C27.8039 35.1577 27.9693 34.9287 28.2256 34.8878C28.4819 34.8469 28.7134 35.0105 28.7548 35.2558C28.7961 35.5012 28.6307 35.7302 28.3744 35.7711Z" fill="#1E1E1C" stroke="white" stroke-width="0.5" stroke-miterlimit="10"/>
<path d="M26.3074 35.403C26.0594 35.4439 25.8196 35.2804 25.7783 35.035C25.737 34.7897 25.9023 34.5607 26.1586 34.5198C26.4149 34.4789 26.6464 34.6425 26.6878 34.8878C26.7291 35.1332 26.5638 35.3622 26.3074 35.403Z" fill="#1E1E1C" stroke="white" stroke-width="0.5" stroke-miterlimit="10"/>
<path d="M28.9628 37.691C28.7147 37.7319 28.4749 37.5683 28.4336 37.323C28.3923 37.0776 28.5576 36.8487 28.8139 36.8078C29.0702 36.7669 29.3017 36.9304 29.3431 37.1758C29.3844 37.4211 29.2191 37.6501 28.9628 37.691Z" fill="#1E1E1C" stroke="white" stroke-width="0.5" stroke-miterlimit="10"/>
<path d="M29.2095 33.6693C28.9614 33.7102 28.7217 33.5466 28.6803 33.3013C28.639 33.0559 28.8044 32.8269 29.0607 32.786C29.317 32.7451 29.5485 32.9087 29.5898 33.154C29.6312 33.3994 29.4658 33.6284 29.2095 33.6693Z" fill="#1E1E1C" stroke="white" stroke-width="0.5" stroke-miterlimit="10"/>
<path d="M27.4237 34.2418C27.1756 34.2827 26.9359 34.1191 26.8945 33.8737C26.8532 33.6284 27.0186 33.3994 27.2749 33.3585C27.5312 33.3176 27.7627 33.4812 27.804 33.7265C27.8454 33.9719 27.68 34.2009 27.4237 34.2418Z" fill="#1E1E1C" stroke="white" stroke-width="0.5" stroke-miterlimit="10"/>
<path d="M26.1256 33.1622C26.1256 33.4158 25.9437 33.6284 25.6874 33.6366C25.431 33.6448 25.2243 33.4485 25.2161 33.2031C25.2078 32.9578 25.398 32.737 25.646 32.7288C25.8941 32.7206 26.109 32.9169 26.1173 33.1622H26.1256Z" fill="#1E1E1C" stroke="white" stroke-width="0.5" stroke-miterlimit="10"/>
<path d="M21.3667 36.4828C21.1186 36.5237 20.8789 36.3601 20.8375 36.1148C20.7962 35.8694 20.9616 35.6405 21.2179 35.5996C21.4742 35.5587 21.7057 35.7222 21.747 35.9676C21.7884 36.2129 21.623 36.4419 21.3667 36.4828Z" fill="#1E1E1C" stroke="white" stroke-width="0.5" stroke-miterlimit="10"/>
<path d="M26.4551 40.1444C26.207 40.1853 25.9672 40.0218 25.9259 39.7764C25.8846 39.5311 26.0499 39.3021 26.3062 39.2612C26.5625 39.2203 26.7941 39.3839 26.8354 39.6292C26.8767 39.8745 26.7114 40.1035 26.4551 40.1444Z" fill="#1E1E1C" stroke="white" stroke-width="0.5" stroke-miterlimit="10"/>
<path d="M23.2267 39.983C22.9787 40.0239 22.7389 39.8604 22.6975 39.615C22.6562 39.3697 22.8216 39.1407 23.0779 39.0998C23.3342 39.0589 23.5657 39.2225 23.607 39.4678C23.6484 39.7131 23.483 39.9421 23.2267 39.983Z" fill="#1E1E1C" stroke="white" stroke-width="0.5" stroke-miterlimit="10"/>
<path d="M21.1599 39.615C20.9119 39.6559 20.6721 39.4923 20.6308 39.247C20.5894 39.0017 20.7548 38.7727 21.0111 38.7318C21.2674 38.6909 21.4989 38.8545 21.5403 39.0998C21.5816 39.3451 21.4162 39.5741 21.1599 39.615Z" fill="#1E1E1C" stroke="white" stroke-width="0.5" stroke-miterlimit="10"/>
<path d="M22.0659 40.6698C21.8179 40.7106 21.5781 40.5471 21.5367 40.3017C21.4954 40.0564 21.6608 39.8274 21.9171 39.7865C22.1734 39.7456 22.4049 39.9092 22.4462 40.1545C22.4876 40.3999 22.3222 40.6289 22.0659 40.6698Z" fill="#1E1E1C" stroke="white" stroke-width="0.5" stroke-miterlimit="10"/>
<path d="M23.8022 36.9651C23.5542 37.0059 23.3144 36.8424 23.2731 36.597C23.2317 36.3517 23.3971 36.1227 23.6534 36.0818C23.9097 36.0409 24.1412 36.2045 24.1826 36.4498C24.2239 36.6952 24.0585 36.9242 23.8022 36.9651Z" fill="#1E1E1C" stroke="white" stroke-width="0.5" stroke-miterlimit="10"/>
<path d="M22.2677 38.4537C22.0197 38.4946 21.7799 38.3311 21.7386 38.0857C21.6972 37.8404 21.8626 37.6114 22.1189 37.5705C22.3752 37.5296 22.6067 37.6932 22.648 37.9385C22.6894 38.1839 22.524 38.4128 22.2677 38.4537Z" fill="#1E1E1C" stroke="white" stroke-width="0.5" stroke-miterlimit="10"/>
<path d="M20.978 37.3742C20.978 37.6277 20.7961 37.8404 20.5398 37.8485C20.2835 37.8567 20.0768 37.6604 20.0686 37.4151C20.0603 37.1698 20.2505 36.9489 20.4985 36.9408C20.7465 36.9326 20.9615 37.1289 20.9698 37.3742H20.978Z" fill="#1E1E1C" stroke="white" stroke-width="0.5" stroke-miterlimit="10"/>
<path d="M23.0251 33.8001C22.777 33.841 22.5373 33.6775 22.4959 33.4321C22.4546 33.1868 22.6199 32.9578 22.8762 32.9169C23.1326 32.876 23.3641 33.0396 23.4054 33.2849C23.4467 33.5303 23.2814 33.7592 23.0251 33.8001Z" fill="#1E1E1C" stroke="white" stroke-width="0.5" stroke-miterlimit="10"/>
<path d="M27.2452 38.6336C26.9972 38.6745 26.7574 38.511 26.716 38.2656C26.6747 38.0203 26.8401 37.7913 27.0964 37.7504C27.3527 37.7095 27.5842 37.8731 27.6255 38.1184C27.6669 38.3638 27.5015 38.5928 27.2452 38.6336Z" fill="#1E1E1C" stroke="white" stroke-width="0.5" stroke-miterlimit="10"/>
<path d="M24.7832 36.8732C24.5352 36.9141 24.2954 36.7505 24.2541 36.5052C24.2128 36.2598 24.3781 36.0308 24.6344 35.99C24.8907 35.9491 25.1222 36.1126 25.1636 36.358C25.2049 36.6033 25.0396 36.8323 24.7832 36.8732Z" fill="#1E1E1C" stroke="white" stroke-width="0.5" stroke-miterlimit="10"/>
<path d="M23.9473 38.5088C23.6993 38.5497 23.4595 38.3861 23.4182 38.1408C23.3768 37.8954 23.5422 37.6665 23.7985 37.6256C24.0548 37.5847 24.2863 37.7482 24.3277 37.9936C24.369 38.2389 24.2037 38.4679 23.9473 38.5088Z" fill="#1E1E1C" stroke="white" stroke-width="0.5" stroke-miterlimit="10"/>
<path d="M24.7832 40.9622C24.5352 41.0031 24.2954 40.8396 24.2541 40.5942C24.2128 40.3489 24.3781 40.1199 24.6344 40.079C24.8907 40.0381 25.1222 40.2017 25.1636 40.447C25.2049 40.6924 25.0396 40.9213 24.7832 40.9622Z" fill="#1E1E1C" stroke="white" stroke-width="0.5" stroke-miterlimit="10"/>
<path d="M28.1268 31.9663C27.8788 32.0072 27.639 31.8437 27.5977 31.5983C27.5564 31.353 27.7217 31.124 27.978 31.0831C28.2343 31.0422 28.4658 31.2058 28.5072 31.4511C28.5485 31.6964 28.3832 31.9254 28.1268 31.9663Z" fill="#1E1E1C" stroke="white" stroke-width="0.5" stroke-miterlimit="10"/>
<path d="M23.9473 35.2376C23.6993 35.2785 23.4595 35.1149 23.4182 34.8696C23.3768 34.6242 23.5422 34.3952 23.7985 34.3543C24.0548 34.3134 24.2863 34.477 24.3277 34.7223C24.369 34.9677 24.2037 35.1967 23.9473 35.2376Z" fill="#1E1E1C" stroke="white" stroke-width="0.5" stroke-miterlimit="10"/>
<path d="M22.8962 35.5996C22.8962 35.8531 22.7143 36.0657 22.458 36.0739C22.2016 36.0821 21.9949 35.8858 21.9867 35.6405C21.9784 35.3951 22.1686 35.1743 22.4166 35.1661C22.6647 35.1579 22.8796 35.3542 22.8879 35.5996H22.8962Z" fill="#1E1E1C" stroke="white" stroke-width="0.5" stroke-miterlimit="10"/>
<path d="M27.4979 36.7524C27.2499 36.7933 27.0101 36.6298 26.9688 36.3844C26.9274 36.1391 27.0928 35.9101 27.3491 35.8692C27.6054 35.8283 27.8369 35.9919 27.8782 36.2372C27.9196 36.4826 27.7542 36.7115 27.4979 36.7524Z" fill="#1E1E1C" stroke="white" stroke-width="0.5" stroke-miterlimit="10"/>
<path d="M31.7265 41.5859C31.4784 41.6268 31.2387 41.4633 31.1973 41.2179C31.156 40.9726 31.3214 40.7436 31.5777 40.7027C31.834 40.6618 32.0655 40.8254 32.1068 41.0707C32.1482 41.3161 31.9828 41.5451 31.7265 41.5859Z" fill="#1E1E1C" stroke="white" stroke-width="0.5" stroke-miterlimit="10"/>
<path d="M29.6181 41.1607C29.37 41.2016 29.1302 41.038 29.0889 40.7927C29.0476 40.5473 29.2129 40.3183 29.4692 40.2774C29.7255 40.2366 29.957 40.4001 29.9984 40.6455C30.0397 40.8908 29.8744 41.1198 29.6181 41.1607Z" fill="#1E1E1C" stroke="white" stroke-width="0.5" stroke-miterlimit="10"/>
<path d="M27.5509 40.7927C27.3028 40.8336 27.0631 40.67 27.0217 40.4247C26.9804 40.1793 27.1458 39.9503 27.4021 39.9094C27.6584 39.8685 27.8899 40.0321 27.9312 40.2774C27.9726 40.5228 27.8072 40.7518 27.5509 40.7927Z" fill="#1E1E1C" stroke="white" stroke-width="0.5" stroke-miterlimit="10"/>
<path d="M28.717 42.7636C28.469 42.8045 28.2292 42.6409 28.1879 42.3956C28.1465 42.1502 28.3119 41.9212 28.5682 41.8804C28.8245 41.8395 29.056 42.003 29.0974 42.2484C29.1387 42.4937 28.9733 42.7227 28.717 42.7636Z" fill="#1E1E1C" stroke="white" stroke-width="0.5" stroke-miterlimit="10"/>
<path d="M30.1934 38.1427C29.9454 38.1836 29.7056 38.02 29.6643 37.7747C29.6229 37.5294 29.7883 37.3004 30.0446 37.2595C30.3009 37.2186 30.5324 37.3822 30.5737 37.6275C30.6151 37.8728 30.4497 38.1018 30.1934 38.1427Z" fill="#1E1E1C" stroke="white" stroke-width="0.5" stroke-miterlimit="10"/>
<path d="M28.6673 39.6396C28.4193 39.6804 28.1795 39.5169 28.1382 39.2715C28.0968 39.0262 28.2622 38.7972 28.5185 38.7563C28.7748 38.7154 29.0063 38.879 29.0477 39.1243C29.089 39.3697 28.9237 39.5987 28.6673 39.6396Z" fill="#1E1E1C" stroke="white" stroke-width="0.5" stroke-miterlimit="10"/>
<path d="M26.8293 37.2352C26.8293 37.4887 26.6474 37.7013 26.3911 37.7095C26.1348 37.7177 25.9281 37.5214 25.9198 37.2761C25.9116 37.0307 26.1017 36.8099 26.3498 36.8017C26.5978 36.7936 26.8128 36.9898 26.8211 37.2352H26.8293Z" fill="#1E1E1C" stroke="white" stroke-width="0.5" stroke-miterlimit="10"/>
<path d="M19.7427 41.3812C19.4947 41.4221 19.2549 41.2586 19.2136 41.0132C19.1722 40.7679 19.3376 40.5389 19.5939 40.498C19.8502 40.4571 20.0817 40.6207 20.1231 40.866C20.1644 41.1114 19.999 41.3404 19.7427 41.3812Z" fill="#1E1E1C" stroke="white" stroke-width="0.5" stroke-miterlimit="10"/>
<path d="M23.7113 45.2986C23.4633 45.3394 23.2235 45.1759 23.1822 44.9305C23.1408 44.6852 23.3062 44.4562 23.5625 44.4153C23.8188 44.3744 24.0503 44.538 24.0916 44.7833C24.133 45.0287 23.9676 45.2577 23.7113 45.2986Z" fill="#1E1E1C" stroke="white" stroke-width="0.5" stroke-miterlimit="10"/>
<path d="M21.6029 44.8733C21.3549 44.9142 21.1151 44.7506 21.0738 44.5053C21.0324 44.2599 21.1978 44.031 21.4541 43.9901C21.7104 43.9492 21.9419 44.1127 21.9833 44.3581C22.0246 44.6034 21.8592 44.8324 21.6029 44.8733Z" fill="#1E1E1C" stroke="white" stroke-width="0.5" stroke-miterlimit="10"/>
<path d="M19.536 44.5053C19.2879 44.5462 19.0482 44.3826 19.0068 44.1373C18.9655 43.8919 19.1308 43.6629 19.3871 43.622C19.6435 43.5811 19.875 43.7447 19.9163 43.9901C19.9576 44.2354 19.7923 44.4644 19.536 44.5053Z" fill="#1E1E1C" stroke="white" stroke-width="0.5" stroke-miterlimit="10"/>
<path d="M20.7017 46.4762C20.4536 46.5171 20.2139 46.3535 20.1725 46.1082C20.1312 45.8628 20.2965 45.6339 20.5529 45.593C20.8092 45.5521 21.0407 45.7156 21.082 45.961C21.1233 46.2063 20.958 46.4353 20.7017 46.4762Z" fill="#1E1E1C" stroke="white" stroke-width="0.5" stroke-miterlimit="10"/>
<path d="M22.438 42.7715C22.19 42.8124 21.9502 42.6488 21.9088 42.4035C21.8675 42.1582 22.0329 41.9292 22.2892 41.8883C22.5455 41.8474 22.777 42.011 22.8183 42.2563C22.8597 42.5016 22.6943 42.7306 22.438 42.7715Z" fill="#1E1E1C" stroke="white" stroke-width="0.5" stroke-miterlimit="10"/>
<path d="M20.6438 43.3522C20.3957 43.3931 20.1559 43.2295 20.1146 42.9842C20.0733 42.7388 20.2386 42.5098 20.4949 42.4689C20.7512 42.428 20.9827 42.5916 21.0241 42.837C21.0654 43.0823 20.9001 43.3113 20.6438 43.3522Z" fill="#1E1E1C" stroke="white" stroke-width="0.5" stroke-miterlimit="10"/>
<path d="M19.3541 42.2645C19.3541 42.518 19.1722 42.7306 18.9158 42.7388C18.6595 42.747 18.4528 42.5507 18.4446 42.3054C18.4363 42.06 18.6265 41.8392 18.8745 41.831C19.1225 41.8229 19.3375 42.0191 19.3458 42.2645H19.3541Z" fill="#1E1E1C" stroke="white" stroke-width="0.5" stroke-miterlimit="10"/>
<path d="M23.6452 44.1782C23.3971 44.219 23.1573 44.0555 23.116 43.8101C23.0747 43.5648 23.24 43.3358 23.4963 43.2949C23.7526 43.254 23.9841 43.4176 24.0255 43.6629C24.0668 43.9083 23.9015 44.1373 23.6452 44.1782Z" fill="#1E1E1C" stroke="white" stroke-width="0.5" stroke-miterlimit="10"/>
<path d="M27.6138 48.0955C27.3657 48.1364 27.1259 47.9728 27.0846 47.7275C27.0433 47.4821 27.2086 47.2531 27.4649 47.2122C27.7212 47.1713 27.9527 47.3349 27.9941 47.5802C28.0354 47.8256 27.8701 48.0546 27.6138 48.0955Z" fill="#1E1E1C" stroke="white" stroke-width="0.5" stroke-miterlimit="10"/>
<path d="M25.5054 47.6702C25.2573 47.7111 25.0175 47.5475 24.9762 47.3022C24.9349 47.0569 25.1002 46.8279 25.3565 46.787C25.6128 46.7461 25.8443 46.9097 25.8857 47.155C25.927 47.4003 25.7617 47.6293 25.5054 47.6702Z" fill="#1E1E1C" stroke="white" stroke-width="0.5" stroke-miterlimit="10"/>
<path d="M23.4384 47.3022C23.1904 47.3431 22.9506 47.1795 22.9092 46.9342C22.8679 46.6888 23.0333 46.4598 23.2896 46.419C23.5459 46.3781 23.7774 46.5416 23.8187 46.787C23.8601 47.0323 23.6947 47.2613 23.4384 47.3022Z" fill="#1E1E1C" stroke="white" stroke-width="0.5" stroke-miterlimit="10"/>
<path d="M24.6041 49.2731C24.3561 49.314 24.1163 49.1504 24.075 48.9051C24.0336 48.6598 24.199 48.4308 24.4553 48.3899C24.7116 48.349 24.9431 48.5125 24.9844 48.7579C25.0258 49.0032 24.8604 49.2322 24.6041 49.2731Z" fill="#1E1E1C" stroke="white" stroke-width="0.5" stroke-miterlimit="10"/>
<path d="M26.3404 45.5684C26.0924 45.6093 25.8526 45.4458 25.8113 45.2004C25.7699 44.9551 25.9353 44.7261 26.1916 44.6852C26.4479 44.6443 26.6794 44.8079 26.7208 45.0532C26.7621 45.2986 26.5968 45.5275 26.3404 45.5684Z" fill="#1E1E1C" stroke="white" stroke-width="0.5" stroke-miterlimit="10"/>
<path d="M24.5464 46.1491C24.2984 46.19 24.0586 46.0264 24.0172 45.7811C23.9759 45.5357 24.1413 45.3067 24.3976 45.2658C24.6539 45.225 24.8854 45.3885 24.9267 45.6339C24.9681 45.8792 24.8027 46.1082 24.5464 46.1491Z" fill="#1E1E1C" stroke="white" stroke-width="0.5" stroke-miterlimit="10"/>
<path d="M23.2565 45.0614C23.2565 45.3149 23.0746 45.5275 22.8183 45.5357C22.562 45.5439 22.3553 45.3476 22.347 45.1023C22.3387 44.8569 22.5289 44.6361 22.7769 44.6279C23.025 44.6198 23.24 44.816 23.2482 45.0614H23.2565Z" fill="#1E1E1C" stroke="white" stroke-width="0.5" stroke-miterlimit="10"/>
<path d="M32.5995 38.9851C32.3514 39.0259 32.1117 38.8624 32.0703 38.617C32.029 38.3717 32.1943 38.1427 32.4507 38.1018C32.707 38.0609 32.9385 38.2245 32.9798 38.4698C33.0211 38.7152 32.8558 38.9442 32.5995 38.9851Z" fill="#1E1E1C" stroke="white" stroke-width="0.5" stroke-miterlimit="10"/>
<path d="M36.5681 42.9105C36.32 42.9514 36.0803 42.7879 36.0389 42.5425C35.9976 42.2972 36.1629 42.0682 36.4192 42.0273C36.6756 41.9864 36.9071 42.15 36.9484 42.3953C36.9897 42.6407 36.8244 42.8697 36.5681 42.9105Z" fill="white" stroke="white" stroke-width="0.5" stroke-miterlimit="10"/>
<path d="M34.4599 42.4853C34.2118 42.5262 33.9721 42.3626 33.9307 42.1173C33.8894 41.8719 34.0548 41.6429 34.3111 41.602C34.5674 41.5612 34.7989 41.7247 34.8402 41.9701C34.8816 42.2154 34.7162 42.4444 34.4599 42.4853Z" fill="#1E1E1C" stroke="white" stroke-width="0.5" stroke-miterlimit="10"/>
<path d="M31.4704 43.4157C31.2224 43.4566 30.9826 43.293 30.9413 43.0477C30.8999 42.8023 31.0653 42.5733 31.3216 42.5324C31.5779 42.4916 31.8094 42.6551 31.8508 42.9005C31.8921 43.1458 31.7268 43.3748 31.4704 43.4157Z" fill="#1E1E1C" stroke="white" stroke-width="0.5" stroke-miterlimit="10"/>
<path d="M33.5584 44.0882C33.3104 44.1291 33.0706 43.9655 33.0293 43.7202C32.9879 43.4748 33.1533 43.2459 33.4096 43.205C33.6659 43.1641 33.8974 43.3276 33.9388 43.573C33.9801 43.8183 33.8147 44.0473 33.5584 44.0882Z" fill="#1E1E1C" stroke="white" stroke-width="0.5" stroke-miterlimit="10"/>
<path d="M35.295 40.3835C35.0469 40.4244 34.8072 40.2608 34.7658 40.0155C34.7245 39.7702 34.8898 39.5412 35.1461 39.5003C35.4025 39.4594 35.634 39.6229 35.6753 39.8683C35.7166 40.1136 35.5513 40.3426 35.295 40.3835Z" fill="#1E1E1C" stroke="white" stroke-width="0.5" stroke-miterlimit="10"/>
<path d="M33.5088 40.956C33.2607 40.9969 33.021 40.8333 32.9796 40.588C32.9383 40.3426 33.1036 40.1136 33.3599 40.0727C33.6163 40.0318 33.8478 40.1954 33.8891 40.4408C33.9304 40.6861 33.7651 40.9151 33.5088 40.956Z" fill="#1E1E1C" stroke="white" stroke-width="0.5" stroke-miterlimit="10"/>
<path d="M32.2108 39.8765C32.2108 40.13 32.0289 40.3426 31.7726 40.3508C31.5163 40.359 31.3096 40.1627 31.3013 39.9174C31.2931 39.672 31.4832 39.4512 31.7313 39.443C31.9793 39.4348 32.1943 39.6311 32.2026 39.8765H32.2108Z" fill="#1E1E1C" stroke="white" stroke-width="0.5" stroke-miterlimit="10"/>
<path d="M31.6485 33.4485C31.4005 33.4894 31.1607 33.3258 31.1194 33.0805C31.078 32.8351 31.2434 32.6061 31.4997 32.5653C31.756 32.5244 31.9875 32.6879 32.0289 32.9333C32.0702 33.1786 31.9049 33.4076 31.6485 33.4485Z" fill="#1E1E1C" stroke="white" stroke-width="0.5" stroke-miterlimit="10"/>
<path d="M35.6172 37.3658C35.3691 37.4067 35.1294 37.2431 35.088 36.9978C35.0467 36.7524 35.212 36.5234 35.4683 36.4825C35.7247 36.4417 35.9562 36.6052 35.9975 36.8506C36.0388 37.0959 35.8735 37.3249 35.6172 37.3658Z" fill="#1E1E1C" stroke="white" stroke-width="0.5" stroke-miterlimit="10"/>
<path d="M33.5088 36.9405C33.2607 36.9814 33.021 36.8179 32.9796 36.5725C32.9383 36.3272 33.1036 36.0982 33.3599 36.0573C33.6163 36.0164 33.8478 36.18 33.8891 36.4253C33.9304 36.6706 33.7651 36.8996 33.5088 36.9405Z" fill="#1E1E1C" stroke="white" stroke-width="0.5" stroke-miterlimit="10"/>
<path d="M31.4704 37.691C31.2224 37.7319 30.9826 37.5683 30.9413 37.323C30.8999 37.0776 31.0653 36.8487 31.3216 36.8078C31.5779 36.7669 31.8094 36.9304 31.8508 37.1758C31.8921 37.4211 31.7268 37.6501 31.4704 37.691Z" fill="#1E1E1C" stroke="white" stroke-width="0.5" stroke-miterlimit="10"/>
<path d="M33.9781 38.5088C33.7301 38.5497 33.4903 38.3861 33.449 38.1408C33.4076 37.8954 33.573 37.6665 33.8293 37.6256C34.0856 37.5847 34.3171 37.7482 34.3585 37.9936C34.3998 38.2389 34.2344 38.4679 33.9781 38.5088Z" fill="#1E1E1C" stroke="white" stroke-width="0.5" stroke-miterlimit="10"/>
<path d="M34.3438 34.8388C34.0958 34.8797 33.856 34.7161 33.8147 34.4707C33.7733 34.2254 33.9387 33.9964 34.195 33.9555C34.4513 33.9146 34.6828 34.0782 34.7242 34.3235C34.7655 34.5689 34.6001 34.7979 34.3438 34.8388Z" fill="#1E1E1C" stroke="white" stroke-width="0.5" stroke-miterlimit="10"/>
<path d="M32.5498 35.4194C32.3017 35.4603 32.062 35.2967 32.0206 35.0514C31.9793 34.806 32.1447 34.5771 32.401 34.5362C32.6573 34.4953 32.8888 34.6588 32.9301 34.9042C32.9715 35.1495 32.8061 35.3785 32.5498 35.4194Z" fill="#1E1E1C" stroke="white" stroke-width="0.5" stroke-miterlimit="10"/>
<path d="M31.2599 34.3399C31.2599 34.5934 31.078 34.806 30.8217 34.8142C30.5654 34.8224 30.3587 34.6261 30.3504 34.3808C30.3422 34.1354 30.5323 33.9146 30.7804 33.9065C31.0284 33.8983 31.2434 34.0945 31.2516 34.3399H31.2599Z" fill="#1E1E1C" stroke="white" stroke-width="0.5" stroke-miterlimit="10"/>
<path d="M36.6011 22.9887C36.353 23.0296 36.1132 22.866 36.0719 22.6207C36.0306 22.3753 36.1959 22.1463 36.4522 22.1054C36.7085 22.0646 36.9401 22.2281 36.9814 22.4735C37.0227 22.7188 36.8574 22.9478 36.6011 22.9887Z" fill="white" stroke="white" stroke-width="0.5" stroke-miterlimit="10"/>
<path d="M41.3303 25.4994C41.0823 25.5403 40.8425 25.3767 40.8012 25.1313C40.7598 24.886 40.9252 24.657 41.1815 24.6161C41.4378 24.5752 41.6693 24.7388 41.7107 24.9841C41.752 25.2295 41.5866 25.4585 41.3303 25.4994Z" fill="white" stroke="white" stroke-width="0.5" stroke-miterlimit="10"/>
<path d="M38.2712 25.9819C38.0232 26.0228 37.7834 25.8592 37.7421 25.6138C37.7007 25.3685 37.8661 25.1395 38.1224 25.0986C38.3787 25.0577 38.6102 25.2213 38.6516 25.4666C38.6929 25.712 38.5275 25.941 38.2712 25.9819Z" fill="white" stroke="white" stroke-width="0.5" stroke-miterlimit="10"/>
<path d="M35.7992 26.0064C35.5511 26.0473 35.3114 25.8837 35.27 25.6384C35.2287 25.393 35.394 25.164 35.6504 25.1231C35.9067 25.0823 36.1382 25.2458 36.1795 25.4912C36.2208 25.7365 36.0555 25.9655 35.7992 26.0064Z" fill="white" stroke="white" stroke-width="0.5" stroke-miterlimit="10"/>
<path d="M37.5603 28.0918C37.3122 28.1327 37.0724 27.9691 37.0311 27.7238C36.9898 27.4784 37.1551 27.2495 37.4114 27.2086C37.6677 27.1677 37.8993 27.3312 37.9406 27.5766C37.9819 27.8219 37.8166 28.0509 37.5603 28.0918Z" fill="white" stroke="white" stroke-width="0.5" stroke-miterlimit="10"/>
<path d="M38.726 22.9723C38.4779 23.0132 38.2382 22.8497 38.1968 22.6043C38.1555 22.359 38.3208 22.13 38.5771 22.0891C38.8335 22.0482 39.065 22.2118 39.1063 22.4571C39.1476 22.7024 38.9823 22.9314 38.726 22.9723Z" fill="white" stroke="white" stroke-width="0.5" stroke-miterlimit="10"/>
<path d="M40.0407 24.1909C39.7927 24.2317 39.5529 24.0682 39.5116 23.8228C39.4702 23.5775 39.6356 23.3485 39.8919 23.3076C40.1482 23.2667 40.3797 23.4303 40.4211 23.6756C40.4624 23.921 40.297 24.15 40.0407 24.1909Z" fill="white" stroke="white" stroke-width="0.5" stroke-miterlimit="10"/>
<path d="M36.2126 23.8801C36.2126 24.1336 36.0307 24.3462 35.7744 24.3544C35.5181 24.3626 35.3114 24.1663 35.3031 23.921C35.2949 23.6756 35.485 23.4548 35.7331 23.4466C35.9811 23.4385 36.1961 23.6347 36.2044 23.8801H36.2126Z" fill="white" stroke="white" stroke-width="0.5" stroke-miterlimit="10"/>
<path d="M50.1113 43.941C50.1526 44.1863 49.979 44.4235 49.7309 44.4562C49.4829 44.4889 49.2514 44.3254 49.21 44.0718C49.1687 43.8183 49.3423 43.5893 49.5904 43.5566C49.8384 43.5239 50.0699 43.6875 50.1113 43.941Z" fill="white" stroke="white" stroke-width="0.5" stroke-miterlimit="10"/>
<path d="M50.0284 46.3535C50.0697 46.5989 49.8961 46.836 49.648 46.8688C49.4 46.9015 49.1685 46.7379 49.1272 46.4844C49.0858 46.2309 49.2594 46.0019 49.5075 45.9692C49.7555 45.9365 49.987 46.1 50.0284 46.3535Z" fill="white" stroke="white" stroke-width="0.5" stroke-miterlimit="10"/>
<path d="M48.1681 42.3626C48.4244 42.3626 48.6311 42.5507 48.6394 42.8042C48.6476 43.0578 48.4492 43.2622 48.1929 43.2622C47.9366 43.2622 47.7299 43.0741 47.7216 42.8206C47.7134 42.5671 47.9118 42.3626 48.1681 42.3626Z" fill="white" stroke="white" stroke-width="0.5" stroke-miterlimit="10"/>
<path d="M44.4805 48.9542C44.5219 49.1995 44.3482 49.4367 44.1002 49.4694C43.8522 49.5021 43.6206 49.3385 43.5793 49.085C43.538 48.8315 43.7116 48.6025 43.9596 48.5698C44.2077 48.5371 44.4392 48.7007 44.4805 48.9542Z" fill="white" stroke="white" stroke-width="0.5" stroke-miterlimit="10"/>
<path d="M47.1016 44.3254C47.143 44.5707 46.9693 44.8079 46.7213 44.8406C46.4732 44.8733 46.2417 44.7097 46.2004 44.4562C46.1591 44.2027 46.3327 43.9737 46.5807 43.941C46.8288 43.9083 47.0603 44.0718 47.1016 44.3254Z" fill="white" stroke="white" stroke-width="0.5" stroke-miterlimit="10"/>
<path d="M47.5396 47.3594C47.581 47.6048 47.4073 47.842 47.1593 47.8747C46.9113 47.9074 46.6798 47.7438 46.6384 47.4903C46.5971 47.2368 46.7707 47.0078 47.0187 46.9751C47.2668 46.9424 47.4983 47.1059 47.5396 47.3594Z" fill="white" stroke="white" stroke-width="0.5" stroke-miterlimit="10"/>
<path d="M47.5149 49.8047C47.5563 50.0501 47.3826 50.2872 47.1346 50.3199C46.8865 50.3526 46.655 50.1891 46.6137 49.9356C46.5724 49.682 46.746 49.453 46.994 49.4203C47.2421 49.3876 47.4736 49.5512 47.5149 49.8047Z" fill="white" stroke="white" stroke-width="0.5" stroke-miterlimit="10"/>
<path d="M49.6481 48.0955C49.6894 48.3408 49.5158 48.578 49.2677 48.6107C49.0197 48.6434 48.7882 48.4798 48.7468 48.2263C48.7055 47.9728 48.8791 47.7438 49.1272 47.7111C49.3752 47.6784 49.6067 47.842 49.6481 48.0955Z" fill="white" stroke="white" stroke-width="0.5" stroke-miterlimit="10"/>
<path d="M44.5055 46.8524C44.5468 47.0978 44.3732 47.3349 44.1252 47.3676C43.8771 47.4003 43.6456 47.2368 43.6043 46.9833C43.5629 46.7297 43.7366 46.5007 43.9846 46.468C44.2326 46.4353 44.4641 46.5989 44.5055 46.8524Z" fill="white" stroke="white" stroke-width="0.5" stroke-miterlimit="10"/>
<path d="M45.7539 45.5766C45.7952 45.8219 45.6216 46.0591 45.3735 46.0918C45.1255 46.1245 44.894 45.961 44.8527 45.7075C44.8113 45.4539 44.9849 45.2249 45.233 45.1922C45.481 45.1595 45.7125 45.3231 45.7539 45.5766Z" fill="white" stroke="white" stroke-width="0.5" stroke-miterlimit="10"/>
<path d="M45.3734 49.3549C45.6298 49.3549 45.8365 49.543 45.8447 49.7965C45.853 50.05 45.6546 50.2545 45.3983 50.2545C45.1419 50.2545 44.9352 50.0664 44.927 49.821C44.9187 49.5757 45.1171 49.3631 45.3734 49.3631V49.3549Z" fill="white" stroke="white" stroke-width="0.5" stroke-miterlimit="10"/>
<path d="M43.3066 37.0468C43.3066 37.3903 43.2404 37.7338 43.166 38.0691C42.8436 39.5412 42.5211 41.0214 42.1987 42.4935C42.1077 42.9269 42.0829 43.4994 42.4963 43.6711C42.7444 43.7693 43.042 43.6466 43.2074 43.4421C43.3727 43.2377 43.4306 42.9596 43.4554 42.6979C43.5546 41.7084 43.2983 40.6616 43.7035 39.7538C43.8854 39.3449 44.1913 38.9932 44.3649 38.568C44.7618 37.5866 44.307 36.548 44.059 35.583C43.9267 35.0514 43.8606 34.5607 43.8771 34.0128C43.8936 33.6039 44.0673 32.8269 43.596 32.5652C42.8601 32.1645 42.4054 33.4158 42.3971 33.9392C42.3806 35.0432 43.2818 35.9346 43.3149 37.0387H43.3066V37.0468Z" stroke="white" stroke-width="0.5" stroke-miterlimit="10"/>
<path d="M44.2161 33.6611C44.0838 33.6856 43.968 33.5957 43.9432 33.473C43.9184 33.3503 44.0094 33.2277 44.1334 33.2031C44.2574 33.1786 44.3814 33.2686 44.4062 33.3912C44.431 33.5139 44.3401 33.6366 44.2161 33.6611Z" fill="white" stroke="white" stroke-width="0.5" stroke-miterlimit="10"/>
<path d="M43.2239 32.5325C43.0916 32.5571 42.9759 32.4671 42.9511 32.3444C42.9263 32.2218 43.0172 32.0991 43.1412 32.0746C43.2652 32.05 43.3893 32.14 43.4141 32.2627C43.4389 32.3853 43.3479 32.508 43.2239 32.5325Z" fill="white" stroke="white" stroke-width="0.5" stroke-miterlimit="10"/>
<path d="M42.2649 33.7429C42.1327 33.7674 42.0169 33.6775 41.9921 33.5548C41.9673 33.4321 42.0582 33.3095 42.1823 33.2849C42.3063 33.2604 42.4303 33.3503 42.4551 33.473C42.4799 33.5957 42.389 33.7184 42.2649 33.7429Z" fill="white" stroke="white" stroke-width="0.5" stroke-miterlimit="10"/>
<path d="M42.8271 36.1473C42.6948 36.1718 42.579 36.0818 42.5542 35.9592C42.5294 35.8365 42.6204 35.7138 42.7444 35.6893C42.8684 35.6647 42.9924 35.7547 43.0172 35.8774C43.0421 36 42.9511 36.1227 42.8271 36.1473Z" fill="white" stroke="white" stroke-width="0.5" stroke-miterlimit="10"/>
<path d="M44.2078 35.264C44.0755 35.2886 43.9598 35.1986 43.935 35.0759C43.9102 34.9532 44.0011 34.8306 44.1251 34.806C44.2492 34.7815 44.3732 34.8715 44.398 34.9941C44.4228 35.1168 44.3318 35.2395 44.2078 35.264Z" fill="white" stroke="white" stroke-width="0.5" stroke-miterlimit="10"/>
<path d="M44.6955 36.9651C44.5633 36.9896 44.4475 36.8996 44.4227 36.777C44.3979 36.6543 44.4888 36.5316 44.6129 36.5071C44.7369 36.4825 44.8609 36.5725 44.8857 36.6952C44.9105 36.8178 44.8196 36.9405 44.6955 36.9651Z" fill="white" stroke="white" stroke-width="0.5" stroke-miterlimit="10"/>
<path d="M44.5797 38.7397C44.4474 38.7642 44.3316 38.6743 44.3068 38.5516C44.282 38.4289 44.373 38.3063 44.497 38.2817C44.621 38.2572 44.745 38.3472 44.7698 38.4698C44.7946 38.5925 44.7037 38.7152 44.5797 38.7397Z" fill="white" stroke="white" stroke-width="0.5" stroke-miterlimit="10"/>
<path d="M43.7778 40.5471C43.6455 40.5716 43.5298 40.4816 43.5049 40.359C43.4801 40.2363 43.5711 40.1136 43.6951 40.0891C43.8191 40.0646 43.9432 40.1545 43.968 40.2772C43.9928 40.3999 43.9018 40.5225 43.7778 40.5471Z" stroke="white" stroke-width="0.5" stroke-miterlimit="10"/>
<path d="M43.9183 42.3544C43.9183 42.4853 43.8274 42.5916 43.6951 42.5998C43.5628 42.608 43.4553 42.5016 43.4553 42.379C43.4553 42.2563 43.5463 42.1418 43.6786 42.1336C43.8108 42.1255 43.9183 42.2318 43.9183 42.3544Z" fill="white" stroke="white" stroke-width="0.5" stroke-miterlimit="10"/>
<path d="M43.2238 37.971C43.2238 38.1018 43.1329 38.2081 43.0006 38.2163C42.8683 38.2245 42.7608 38.1182 42.7608 37.9955C42.7608 37.8728 42.8518 37.7583 42.9841 37.7502C43.1164 37.742 43.2238 37.8483 43.2238 37.971Z" fill="white" stroke="white" stroke-width="0.5" stroke-miterlimit="10"/>
<path d="M42.8021 39.762C42.8021 39.8928 42.7111 39.9991 42.5788 40.0073C42.4465 40.0155 42.3391 39.9092 42.3391 39.7865C42.3391 39.6638 42.43 39.5493 42.5623 39.5412C42.6946 39.533 42.8021 39.6393 42.8021 39.762Z" fill="white" stroke="white" stroke-width="0.5" stroke-miterlimit="10"/>
<path d="M42.3723 41.9946C42.3723 42.1254 42.2813 42.2318 42.149 42.2399C42.0167 42.2481 41.9092 42.1418 41.9092 42.0191C41.9092 41.8965 42.0002 41.782 42.1325 41.7738C42.2648 41.7656 42.3723 41.8719 42.3723 41.9946Z" fill="white" stroke="white" stroke-width="0.5" stroke-miterlimit="10"/>
<path d="M39.8754 38.1182C39.8754 38.5434 39.8092 38.9605 39.7348 39.3694C39.4124 41.1768 39.0899 42.9841 38.7675 44.7997C38.6765 45.3313 38.6517 46.0346 39.0651 46.239C39.3132 46.3617 39.6108 46.2063 39.7762 45.9528C39.9415 45.6993 39.9994 45.364 40.0242 45.045C40.1234 43.8347 39.8671 42.5507 40.2722 41.4385C40.4541 40.9314 40.7601 40.5062 40.9337 39.991C41.3306 38.7888 40.8758 37.513 40.6278 36.3353C40.4955 35.6893 40.4293 35.0841 40.4459 34.4135C40.4624 33.9146 40.636 32.9578 40.1648 32.6388C39.4289 32.1482 38.9742 33.6775 38.9659 34.3235C38.9494 35.6729 39.8506 36.7688 39.8836 38.1182H39.8754Z" stroke="white" stroke-width="0.5" stroke-miterlimit="10"/>
<path d="M40.7766 33.9719C40.6443 33.9964 40.5286 33.8983 40.5038 33.7429C40.479 33.5875 40.5699 33.4403 40.6939 33.4158C40.8179 33.3912 40.942 33.4894 40.9668 33.6447C40.9916 33.8001 40.9006 33.9473 40.7766 33.9719Z" fill="white" stroke="white" stroke-width="0.5" stroke-miterlimit="10"/>
<path d="M39.7927 32.5898C39.6604 32.6143 39.5446 32.5162 39.5198 32.3608C39.495 32.2054 39.586 32.0582 39.71 32.0337C39.834 32.0091 39.958 32.1073 39.9829 32.2626C40.0077 32.418 39.9167 32.5652 39.7927 32.5898Z" fill="white" stroke="white" stroke-width="0.5" stroke-miterlimit="10"/>
<path d="M38.8335 34.07C38.7012 34.0945 38.5855 33.9964 38.5607 33.841C38.5359 33.6856 38.6268 33.5384 38.7508 33.5139C38.8749 33.4894 38.9989 33.5875 39.0237 33.7429C39.0485 33.8983 38.9575 34.0455 38.8335 34.07Z" fill="white" stroke="white" stroke-width="0.5" stroke-miterlimit="10"/>
<path d="M39.3957 37.0223C39.2634 37.0468 39.1476 36.9487 39.1228 36.7933C39.098 36.6379 39.189 36.4907 39.313 36.4662C39.437 36.4417 39.561 36.5398 39.5858 36.6952C39.6107 36.8506 39.5197 36.9978 39.3957 37.0223Z" fill="white" stroke="white" stroke-width="0.5" stroke-miterlimit="10"/>
<path d="M40.7766 35.9346C40.6443 35.9592 40.5286 35.861 40.5038 35.7056C40.479 35.5502 40.5699 35.403 40.6939 35.3785C40.8179 35.354 40.942 35.4521 40.9668 35.6075C40.9916 35.7629 40.9006 35.9101 40.7766 35.9346Z" fill="white" stroke="white" stroke-width="0.5" stroke-miterlimit="10"/>
<path d="M41.2643 38.0282C41.132 38.0527 41.0163 37.9546 40.9915 37.7992C40.9667 37.6438 41.0576 37.4966 41.1817 37.4721C41.3057 37.4476 41.4297 37.5457 41.4545 37.7011C41.4793 37.8565 41.3884 38.0037 41.2643 38.0282Z" fill="white" stroke="white" stroke-width="0.5" stroke-miterlimit="10"/>
<path d="M41.1485 40.1872C41.0162 40.2118 40.9005 40.1136 40.8756 39.9582C40.8508 39.8029 40.9418 39.6556 41.0658 39.6311C41.1898 39.6066 41.3139 39.7047 41.3387 39.8601C41.3635 40.0155 41.2725 40.1627 41.1485 40.1872Z" fill="white" stroke="white" stroke-width="0.5" stroke-miterlimit="10"/>
<path d="M40.3466 42.4117C40.2143 42.4362 40.0986 42.3381 40.0738 42.1827C40.049 42.0273 40.1399 41.8801 40.2639 41.8556C40.388 41.831 40.512 41.9292 40.5368 42.0846C40.5616 42.2399 40.4706 42.3871 40.3466 42.4117Z" fill="white" stroke="white" stroke-width="0.5" stroke-miterlimit="10"/>
<path d="M40.4871 44.628C40.4871 44.7833 40.3962 44.9224 40.2639 44.9224C40.1316 44.9224 40.0241 44.8079 40.0241 44.6525C40.0241 44.4971 40.1151 44.3581 40.2473 44.3581C40.3796 44.3581 40.4871 44.4726 40.4871 44.628Z" fill="white" stroke="white" stroke-width="0.5" stroke-miterlimit="10"/>
<path d="M39.7926 39.2468C39.7926 39.4021 39.7017 39.5412 39.5694 39.5412C39.4371 39.5412 39.3296 39.4267 39.3296 39.2713C39.3296 39.1159 39.4206 38.9769 39.5529 38.9769C39.6851 38.9769 39.7926 39.0914 39.7926 39.2468Z" fill="white" stroke="white" stroke-width="0.5" stroke-miterlimit="10"/>
<path d="M39.3711 41.4548C39.3711 41.6102 39.2801 41.7493 39.1478 41.7493C39.0155 41.7493 38.9081 41.6348 38.9081 41.4794C38.9081 41.324 38.999 41.185 39.1313 41.185C39.2636 41.185 39.3711 41.2995 39.3711 41.4548Z" fill="white" stroke="white" stroke-width="0.5" stroke-miterlimit="10"/>
<path d="M38.9411 44.1782C38.9411 44.3335 38.8501 44.4726 38.7178 44.4726C38.5855 44.4726 38.4781 44.3581 38.4781 44.2027C38.4781 44.0473 38.569 43.9083 38.7013 43.9083C38.8336 43.9083 38.9411 44.0228 38.9411 44.1782Z" stroke="white" stroke-width="0.5" stroke-miterlimit="10"/>
<path d="M14.8478 53.5584C15.1537 53.8529 15.3935 54.2045 15.6332 54.548C16.6833 56.0609 17.7333 57.5821 18.7834 59.095C19.0893 59.5366 19.5771 60.06 20.0153 59.921C20.2799 59.8392 20.3791 59.5203 20.3212 59.2259C20.2633 58.9315 20.0649 58.6534 19.8582 58.4081C19.0727 57.4758 17.9814 56.7316 17.4853 55.6602C17.262 55.1695 17.1711 54.6543 16.9313 54.1718C16.3608 53.035 15.1372 52.4462 14.1285 51.7756C13.5745 51.4076 13.0949 51.0232 12.6402 50.5244C12.3012 50.1564 11.7472 49.3549 11.185 49.453C10.3169 49.6084 11.0693 51.0232 11.524 51.4812C12.4666 52.4544 13.8887 52.6098 14.8643 53.5584H14.8478Z" stroke="white" stroke-width="0.5" stroke-miterlimit="10"/>
<path d="M12.5577 49.9764C12.4833 50.0827 12.3262 50.0909 12.2022 50.001C12.0781 49.911 12.0368 49.7393 12.1112 49.633C12.1856 49.5266 12.3427 49.5185 12.4667 49.6084C12.5908 49.6984 12.6321 49.8701 12.5577 49.9764Z" stroke="white" stroke-width="0.5" stroke-miterlimit="10"/>
<path d="M10.8709 49.6738C10.7965 49.7802 10.6394 49.7883 10.5153 49.6984C10.3913 49.6084 10.35 49.4367 10.4244 49.3304C10.4988 49.224 10.6559 49.2159 10.7799 49.3058C10.9039 49.3958 10.9453 49.5675 10.8709 49.6738Z" stroke="white" stroke-width="0.5" stroke-miterlimit="10"/>
<path d="M11.2347 51.3913C11.1603 51.4976 11.0032 51.5058 10.8792 51.4158C10.7551 51.3258 10.7138 51.1541 10.7882 51.0478C10.8626 50.9415 11.0197 50.9333 11.1437 51.0232C11.2678 51.1132 11.3091 51.2849 11.2347 51.3913Z" stroke="white" stroke-width="0.5" stroke-miterlimit="10"/>
<path d="M13.7234 53.1086C13.649 53.215 13.4919 53.2231 13.3679 53.1332C13.2439 53.0432 13.2025 52.8715 13.277 52.7652C13.3514 52.6589 13.5085 52.6507 13.6325 52.7406C13.7565 52.8306 13.7978 53.0023 13.7234 53.1086Z" stroke="white" stroke-width="0.5" stroke-miterlimit="10"/>
<path d="M13.9467 51.3749C13.8723 51.4812 13.7152 51.4894 13.5911 51.3994C13.4671 51.3095 13.4258 51.1377 13.5002 51.0314C13.5746 50.9251 13.7317 50.9169 13.8557 51.0069C13.9797 51.0968 14.0211 51.2686 13.9467 51.3749Z" stroke="white" stroke-width="0.5" stroke-miterlimit="10"/>
<path d="M15.7739 52.5362C15.6995 52.6425 15.5424 52.6507 15.4184 52.5607C15.2944 52.4708 15.253 52.299 15.3274 52.1927C15.4018 52.0864 15.5589 52.0782 15.683 52.1682C15.807 52.2581 15.8483 52.4299 15.7739 52.5362Z" stroke="white" stroke-width="0.5" stroke-miterlimit="10"/>
<path d="M17.2208 54.1554C17.1464 54.2618 16.9893 54.2699 16.8653 54.18C16.7413 54.09 16.6999 53.9183 16.7743 53.812C16.8487 53.7057 17.0058 53.6975 17.1299 53.7874C17.2539 53.8774 17.2952 54.0491 17.2208 54.1554Z" stroke="white" stroke-width="0.5" stroke-miterlimit="10"/>
<path d="M18.2212 56.2981C18.1468 56.4044 17.9897 56.4126 17.8657 56.3227C17.7417 56.2327 17.7003 56.061 17.7747 55.9546C17.8491 55.8483 18.0062 55.8401 18.1303 55.9301C18.2543 56.0201 18.2956 56.1918 18.2212 56.2981Z" stroke="white" stroke-width="0.5" stroke-miterlimit="10"/>
<path d="M19.8913 57.7865C20.0071 57.8928 20.0319 58.0564 19.9409 58.1545C19.85 58.2527 19.6929 58.2363 19.5771 58.13C19.4614 58.0237 19.4366 57.8601 19.5275 57.762C19.6185 57.6639 19.7756 57.6802 19.8913 57.7865Z" stroke="white" stroke-width="0.5" stroke-miterlimit="10"/>
<path d="M15.5838 54.4253C15.6996 54.5316 15.7244 54.6952 15.6334 54.7933C15.5425 54.8915 15.3854 54.8751 15.2696 54.7688C15.1539 54.6625 15.1291 54.4989 15.22 54.4008C15.311 54.3026 15.4681 54.319 15.5838 54.4253Z" stroke="white" stroke-width="0.5" stroke-miterlimit="10"/>
<path d="M16.8404 56.2899C16.9562 56.3963 16.981 56.5598 16.8901 56.658C16.7991 56.7561 16.642 56.7397 16.5263 56.6334C16.4105 56.5271 16.3857 56.3635 16.4767 56.2654C16.5676 56.1673 16.7247 56.1836 16.8404 56.2899Z" stroke="white" stroke-width="0.5" stroke-miterlimit="10"/>
<path d="M18.4694 58.5389C18.5851 58.6452 18.6099 58.8088 18.519 58.9069C18.428 59.0051 18.2709 58.9887 18.1552 58.8824C18.0394 58.7761 18.0146 58.6125 18.1056 58.5144C18.1965 58.4162 18.3536 58.4326 18.4694 58.5389Z" stroke="white" stroke-width="0.5" stroke-miterlimit="10"/>
<path d="M16.0222 50.3199C16.3281 50.6143 16.5678 50.966 16.8076 51.3095C17.8577 52.8224 18.9077 54.3435 19.9577 55.8565C20.2637 56.2981 20.7515 56.8215 21.1897 56.6825C21.4543 56.6007 21.5535 56.2818 21.4956 55.9873C21.4377 55.6929 21.2393 55.4149 21.0326 55.1695C20.2471 54.2372 19.1557 53.493 18.6597 52.4217C18.4364 51.931 18.3455 51.4158 18.1057 50.9333C17.5352 49.7965 16.3115 49.2077 15.3028 48.5371C14.7489 48.1691 14.2693 47.7847 13.8146 47.2858C13.4756 46.9178 12.9216 46.1164 12.3594 46.2145C11.4913 46.3699 12.2436 47.7847 12.6984 48.2427C13.6409 49.2159 15.0631 49.3712 16.0387 50.3199H16.0222Z" stroke="white" stroke-width="0.5" stroke-miterlimit="10"/>
<path d="M13.7234 46.7297C13.649 46.836 13.4919 46.8442 13.3679 46.7543C13.2439 46.6643 13.2025 46.4926 13.277 46.3862C13.3514 46.2799 13.5085 46.2718 13.6325 46.3617C13.7565 46.4517 13.7978 46.6234 13.7234 46.7297Z" stroke="white" stroke-width="0.5" stroke-miterlimit="10"/>
<path d="M12.0366 46.4271C11.9622 46.5334 11.8051 46.5416 11.681 46.4517C11.557 46.3617 11.5157 46.19 11.5901 46.0836C11.6645 45.9773 11.8216 45.9692 11.9456 46.0591C12.0696 46.1491 12.111 46.3208 12.0366 46.4271Z" stroke="white" stroke-width="0.5" stroke-miterlimit="10"/>
<path d="M12.4089 48.1527C12.3344 48.259 12.1774 48.2672 12.0533 48.1773C11.9293 48.0873 11.888 47.9156 11.9624 47.8092C12.0368 47.7029 12.1939 47.6947 12.3179 47.7847C12.4419 47.8747 12.4833 48.0464 12.4089 48.1527Z" stroke="white" stroke-width="0.5" stroke-miterlimit="10"/>
<path d="M14.8976 49.8701C14.8232 49.9764 14.6661 49.9846 14.5421 49.8947C14.418 49.8047 14.3767 49.633 14.4511 49.5266C14.5255 49.4203 14.6826 49.4121 14.8066 49.5021C14.9307 49.5921 14.972 49.7638 14.8976 49.8701Z" stroke="white" stroke-width="0.5" stroke-miterlimit="10"/>
<path d="M15.1124 48.1364C15.038 48.2427 14.8809 48.2509 14.7569 48.1609C14.6329 48.0709 14.5915 47.8992 14.6659 47.7929C14.7403 47.6866 14.8974 47.6784 15.0215 47.7683C15.1455 47.8583 15.1868 48.03 15.1124 48.1364Z" stroke="white" stroke-width="0.5" stroke-miterlimit="10"/>
<path d="M16.9398 49.2895C16.8654 49.3958 16.7083 49.404 16.5843 49.314C16.4603 49.224 16.4189 49.0523 16.4934 48.946C16.5678 48.8397 16.7249 48.8315 16.8489 48.9215C16.9729 49.0114 17.0142 49.1832 16.9398 49.2895Z" stroke="white" stroke-width="0.5" stroke-miterlimit="10"/>
<path d="M18.395 50.9169C18.3206 51.0232 18.1635 51.0314 18.0394 50.9415C17.9154 50.8515 17.8741 50.6798 17.9485 50.5734C18.0229 50.4671 18.18 50.4589 18.304 50.5489C18.428 50.6389 18.4694 50.8106 18.395 50.9169Z" stroke="white" stroke-width="0.5" stroke-miterlimit="10"/>
<path d="M19.3954 53.0596C19.321 53.1659 19.1639 53.1741 19.0398 53.0841C18.9158 52.9942 18.8745 52.8224 18.9489 52.7161C19.0233 52.6098 19.1804 52.6016 19.3044 52.6916C19.4284 52.7815 19.4698 52.9533 19.3954 53.0596Z" stroke="white" stroke-width="0.5" stroke-miterlimit="10"/>
<path d="M21.0571 54.548C21.1728 54.6543 21.1976 54.8179 21.1067 54.916C21.0157 55.0142 20.8586 54.9978 20.7429 54.8915C20.6271 54.7852 20.6023 54.6216 20.6933 54.5235C20.7842 54.4253 20.9413 54.4417 21.0571 54.548Z" stroke="white" stroke-width="0.5" stroke-miterlimit="10"/>
<path d="M16.7578 51.1868C16.8736 51.2931 16.8984 51.4567 16.8074 51.5548C16.7165 51.6529 16.5594 51.6366 16.4436 51.5303C16.3279 51.424 16.3031 51.2604 16.394 51.1623C16.485 51.0641 16.6421 51.0805 16.7578 51.1868Z" stroke="white" stroke-width="0.5" stroke-miterlimit="10"/>
<path d="M18.0144 53.0514C18.1302 53.1577 18.155 53.3213 18.064 53.4194C17.9731 53.5176 17.816 53.5012 17.7002 53.3949C17.5845 53.2886 17.5597 53.125 17.6506 53.0269C17.7416 52.9287 17.8987 52.9451 18.0144 53.0514Z" stroke="white" stroke-width="0.5" stroke-miterlimit="10"/>
<path d="M19.6433 55.2922C19.7591 55.3985 19.7839 55.5621 19.6929 55.6602C19.602 55.7584 19.4449 55.742 19.3291 55.6357C19.2134 55.5294 19.1886 55.3658 19.2795 55.2677C19.3705 55.1695 19.5276 55.1859 19.6433 55.2922Z" stroke="white" stroke-width="0.5" stroke-miterlimit="10"/>
<path d="M18.2545 49.0114C18.486 49.2322 18.6761 49.4939 18.858 49.7556C19.66 50.8924 20.4703 52.0291 21.2723 53.1741C21.5038 53.5094 21.8759 53.9019 22.2149 53.7956C22.4133 53.7302 22.496 53.493 22.4464 53.2722C22.3968 53.0514 22.2479 52.8388 22.0908 52.6589C21.4873 51.9555 20.6522 51.3994 20.2719 50.598C20.0982 50.23 20.0321 49.8374 19.8502 49.4776C19.412 48.6271 18.4694 48.1773 17.7005 47.6784C17.2706 47.4003 16.9068 47.1141 16.5595 46.7379C16.3032 46.4599 15.8733 45.8629 15.4433 45.9365C14.7736 46.0509 15.3524 47.1141 15.6996 47.4658C16.4272 48.1936 17.5103 48.3163 18.2627 49.0278V49.0114H18.2545Z" stroke="white" stroke-width="0.5" stroke-miterlimit="10"/>
<path d="M16.4933 46.3208C16.4354 46.4026 16.3114 46.4108 16.2204 46.3372C16.1295 46.2636 16.0964 46.1409 16.146 46.0591C16.1956 45.9773 16.3279 45.9692 16.4188 46.0428C16.5098 46.1164 16.5429 46.239 16.4933 46.3208Z" stroke="white" stroke-width="0.5" stroke-miterlimit="10"/>
<path d="M15.2035 46.0918C15.1456 46.1736 15.0216 46.1818 14.9306 46.1082C14.8397 46.0346 14.8066 45.9119 14.8562 45.8301C14.9058 45.7484 15.0381 45.7402 15.1291 45.8138C15.22 45.8874 15.2531 46.0101 15.2035 46.0918Z" stroke="white" stroke-width="0.5" stroke-miterlimit="10"/>
<path d="M15.4846 47.384C15.4267 47.4658 15.3027 47.4739 15.2118 47.4003C15.1208 47.3267 15.0878 47.2041 15.1374 47.1223C15.187 47.0405 15.3193 47.0323 15.4102 47.1059C15.5012 47.1795 15.5342 47.3022 15.4846 47.384Z" stroke="white" stroke-width="0.5" stroke-miterlimit="10"/>
<path d="M17.3943 48.6761C17.3364 48.7579 17.2124 48.7661 17.1215 48.6925C17.0305 48.6189 16.9975 48.4962 17.0471 48.4144C17.0967 48.3326 17.229 48.3244 17.3199 48.398C17.4109 48.4717 17.4439 48.5943 17.3943 48.6761Z" stroke="white" stroke-width="0.5" stroke-miterlimit="10"/>
<path d="M17.5598 47.3676C17.502 47.4494 17.3779 47.4576 17.287 47.384C17.1961 47.3104 17.163 47.1877 17.2126 47.1059C17.2622 47.0241 17.3945 47.016 17.4854 47.0896C17.5764 47.1632 17.6095 47.2858 17.5598 47.3676Z" stroke="white" stroke-width="0.5" stroke-miterlimit="10"/>
<path d="M18.9655 48.2427C18.9076 48.3245 18.7836 48.3326 18.6927 48.259C18.6017 48.1854 18.5686 48.0628 18.6183 47.981C18.6679 47.8992 18.8002 47.891 18.8911 47.9646C18.9821 48.0382 19.0151 48.1609 18.9655 48.2427Z" stroke="white" stroke-width="0.5" stroke-miterlimit="10"/>
<path d="M20.0733 49.4612C20.0154 49.543 19.8914 49.5512 19.8005 49.4776C19.7095 49.404 19.6764 49.2813 19.726 49.1995C19.7757 49.1177 19.9079 49.1096 19.9989 49.1832C20.0898 49.2568 20.1229 49.3794 20.0733 49.4612Z" stroke="white" stroke-width="0.5" stroke-miterlimit="10"/>
<path d="M20.8422 51.0723C20.7843 51.1541 20.6603 51.1623 20.5694 51.0887C20.4784 51.0151 20.4454 50.8924 20.495 50.8106C20.5446 50.7288 20.6769 50.7206 20.7678 50.7942C20.8588 50.8678 20.8918 50.9905 20.8422 51.0723Z" stroke="white" stroke-width="0.5" stroke-miterlimit="10"/>
<path d="M22.1237 52.1845C22.2146 52.2663 22.2312 52.389 22.165 52.4626C22.0989 52.5362 21.9749 52.528 21.8839 52.4462C21.793 52.3644 21.7764 52.2418 21.8426 52.1682C21.9087 52.0946 22.0327 52.1027 22.1237 52.1845Z" stroke="white" stroke-width="0.5" stroke-miterlimit="10"/>
<path d="M18.8248 49.6657C18.9158 49.7474 18.9323 49.8701 18.8662 49.9437C18.8 50.0173 18.676 50.001 18.5851 49.9274C18.4941 49.8538 18.4776 49.7229 18.5437 49.6493C18.6099 49.5757 18.7339 49.5839 18.8248 49.6657Z" stroke="white" stroke-width="0.5" stroke-miterlimit="10"/>
<path d="M19.7838 51.0641C19.8747 51.1459 19.8913 51.2686 19.8251 51.3422C19.759 51.4158 19.635 51.3994 19.544 51.3258C19.4531 51.2522 19.4365 51.1214 19.5027 51.0478C19.5688 50.9742 19.6928 50.9823 19.7838 51.0641Z" stroke="white" stroke-width="0.5" stroke-miterlimit="10"/>
<path d="M21.0324 52.7488C21.1233 52.8306 21.1399 52.9533 21.0737 53.0269C21.0076 53.1005 20.8835 53.0841 20.7926 53.0105C20.7017 52.9369 20.6851 52.8061 20.7513 52.7325C20.8174 52.6589 20.9414 52.667 21.0324 52.7488Z" stroke="white" stroke-width="0.5" stroke-miterlimit="10"/>
<path d="M16.3361 29.4984C16.1791 29.2204 16.2121 28.8687 16.3527 28.5825C16.4932 28.2963 16.7247 28.0673 16.948 27.8383C17.9484 26.8651 19.015 25.9491 20.1725 25.1722C20.5777 24.8942 20.9993 24.6406 21.3962 24.3462C21.8509 24.0027 22.2643 23.6102 22.7439 23.3076C23.1656 23.0377 23.6286 22.8333 24.0999 22.6615C25.9188 21.9991 27.8618 21.8028 29.7883 21.6147C29.9867 21.5984 30.1851 21.5738 30.3753 21.6311C30.5655 21.6883 30.7391 21.8274 30.7722 22.0155C30.8052 22.2036 30.6895 22.3998 30.5241 22.5062C30.3588 22.6125 30.1686 22.6615 29.9784 22.7024C29.5237 22.8006 29.0607 22.8742 28.5977 22.8333C28.1429 22.8006 27.7047 22.6534 27.2582 22.6125C26.1503 22.5143 25.092 23.0377 24.1081 23.5448C23.2234 24.0027 22.3388 24.4525 21.5285 25.0332C20.5032 25.7692 19.6268 26.6852 18.7504 27.5929C18.2874 28.0754 17.8244 28.558 17.4689 29.1222C17.3531 29.3103 17.2456 29.7029 17.0307 29.801C16.7826 29.9155 16.4436 29.7029 16.3279 29.4984H16.3361Z" stroke="white" stroke-width="0.5" stroke-miterlimit="10"/>
<path d="M15.5506 27.5766C15.468 27.3885 15.4928 27.1431 15.5506 26.9469C15.6085 26.7506 15.7325 26.587 15.8483 26.4398C16.3444 25.7692 16.8818 25.1395 17.4606 24.6079C17.6673 24.4198 17.874 24.2399 18.0724 24.0436C18.2956 23.8065 18.5106 23.5366 18.7421 23.3321C18.9323 23.1686 19.0894 23.0704 19.4201 22.8905C20.5694 22.2526 21.1564 21.9337 21.6938 21.9255C21.7434 21.9255 22.1899 21.9255 22.5454 22.179C22.6777 22.2772 22.7356 22.3589 22.7439 22.4407C22.7604 22.5716 22.7025 22.7024 22.6198 22.776C22.5372 22.8496 22.4462 22.8823 22.347 22.9151C22.008 23.0132 21.7103 23.005 21.6607 23.005C21.5367 23.005 21.0985 23.0296 20.6934 23.1604C20.404 23.2585 20.2138 23.3976 20.0485 23.5039C18.8248 24.3626 18.8992 24.1581 18.3783 24.5997C17.783 25.1068 17.2787 25.5402 16.9727 26.2517C16.9479 26.309 16.8074 26.6443 16.5593 27.0614C16.179 27.7074 16.0054 27.781 15.8814 27.781C15.7243 27.781 15.5754 27.6829 15.5258 27.5684H15.5506V27.5766Z" stroke="white" stroke-width="0.5" stroke-miterlimit="10"/>
<path d="M24.8687 20.568C24.9431 20.4126 25.1002 20.2735 25.2573 20.1836C25.4144 20.0936 25.5715 20.0609 25.7286 20.02C26.3983 19.8646 27.068 19.7501 27.6964 19.7174C27.7295 19.7174 27.8039 19.7174 27.8948 19.7093C28.1842 19.6847 28.3413 19.6275 28.5067 19.5948C28.672 19.562 28.8291 19.5702 29.1516 19.5948C29.3914 19.6111 29.6807 19.6275 30.028 19.7174C30.9044 19.9382 31.1607 20.3717 31.723 20.6906C31.756 20.707 31.8387 20.756 31.8718 20.846C31.8966 20.9196 31.8883 21.0177 31.8139 21.1077C31.7395 21.1977 31.632 21.2467 31.5411 21.2549C31.4501 21.2549 31.384 21.2304 31.3178 21.1977C31.0698 21.0832 30.9127 20.9114 30.8961 20.9033C30.6812 20.6824 30.3753 20.617 29.7717 20.4698C29.4327 20.388 29.1599 20.3717 28.978 20.3553C28.8457 20.3471 28.5149 20.3226 28.0437 20.3553C27.407 20.3962 27.3905 20.478 26.3487 20.617C25.8278 20.6824 25.7865 20.6743 25.5881 20.7315C25.2491 20.8378 25.0424 20.9687 24.9266 20.8787C24.8191 20.7969 24.8605 20.5761 24.8687 20.568Z" stroke="white" stroke-width="0.5" stroke-miterlimit="10"/>
<path d="M29.1599 23.3894C29.8379 23.324 30.4993 23.1277 31.1773 23.0541C31.4584 23.0296 31.7809 23.0296 31.9876 23.2177C32.2687 23.4712 32.2108 23.9455 31.9545 24.2236C31.6982 24.5016 31.3013 24.5916 30.9293 24.6161C30.5324 24.6406 30.1355 24.5916 29.7552 24.5016C29.3997 24.4198 29.0359 24.289 28.6721 24.3053C28.3827 24.3135 28.1099 24.4117 27.837 24.4853C27.2583 24.6488 26.3901 24.9023 25.7865 24.796C25.183 24.6897 25.6212 24.1091 25.9684 23.9455C27.0019 23.4712 28.0603 23.5039 29.1682 23.3894H29.1599Z" stroke="white" stroke-width="0.5" stroke-miterlimit="10"/>
<path d="M23.5211 26.8896C23.736 26.4971 24.0585 26.1618 24.4471 25.9328C24.7282 25.761 25.0424 25.6466 25.3648 25.5566C26.1172 25.344 26.911 25.254 27.6882 25.3031C27.8205 25.3031 27.9693 25.3276 28.0685 25.4257C28.2091 25.5648 28.1677 25.8019 28.0354 25.9491C27.9031 26.0963 27.713 26.1536 27.5228 26.2027C26.448 26.4889 25.2408 26.4889 24.3809 27.184C24.2156 27.3149 24.0585 27.4785 23.8766 27.5848C23.6947 27.6911 23.4467 27.7402 23.2565 27.6338C23.0415 27.5193 22.9671 27.2086 23.1077 27.0041C23.2896 26.7342 23.7526 26.7015 23.8601 26.3989" stroke="white" stroke-width="0.5" stroke-miterlimit="10"/>
<path d="M17.6922 30.4553C17.6922 30.4553 17.8907 29.5884 18.0643 29.3921C18.4446 28.9587 19.1226 28.9096 19.5526 28.5334C19.8833 28.239 20.0238 27.7892 20.2719 27.4212C20.6439 26.8651 21.2889 26.4889 21.9668 26.4317C22.066 26.4317 22.1735 26.4235 22.2728 26.4644C22.4877 26.5625 22.5373 26.8651 22.4381 27.0777C22.3389 27.2904 22.1405 27.4376 21.942 27.5684C21.2558 28.0509 20.5695 28.5334 19.875 29.0159C19.7097 29.1304 19.536 29.2531 19.4203 29.4167C19.2632 29.6375 19.2053 29.9073 19.1061 30.1527C18.9986 30.4144 18.8332 30.6434 18.6183 30.8397C18.4033 31.0278 18.0974 31.1831 17.8411 31.0605C17.593 30.946 17.4938 30.627 17.5517 30.3653C17.6096 30.1036 17.7832 29.8746 17.9568 29.6702" stroke="white" stroke-width="0.5" stroke-miterlimit="10"/>
<path d="M27.746 50.1073C33.7096 50.1073 38.5441 45.6586 38.5441 40.1709C38.5441 34.6832 33.7096 30.2345 27.746 30.2345C21.7824 30.2345 16.9479 34.6832 16.9479 40.1709C16.9479 45.6586 21.7824 50.1073 27.746 50.1073Z" stroke="white" stroke-width="0.5" stroke-miterlimit="10"/>
</g>
<defs>
<clipPath id="clip0_34_62">
<rect width="76" height="76" fill="white" transform="translate(0.00671387)"/>
</clipPath>
</defs>
</svg>
