<svg width="92" height="93" viewBox="0 0 92 93" fill="none" xmlns="http://www.w3.org/2000/svg">
<g id="Musculoskeletal 1">
<g id="Layer_1-2">
<g id="Musculoskeletal">
<path id="Vector" d="M71 48.1452C71 67.4752 55.33 83.1452 36 83.1452C16.67 83.1452 1 67.4752 1 48.1452C1 28.8153 16.67 13.1452 36 13.1452C55.33 13.1452 71 28.8153 71 48.1452Z" fill="#00679A" stroke="black" stroke-width="2"/>
<g id="module204">
<g id="Knee">
<g id="Vector_2">
<path d="M52.2768 32.2444L51.329 32.3698L50.3812 32.4873L49.4334 32.5734L48.4308 32.6361L47.5144 32.6596H46.5901L43.6371 32.8397L41.6789 33.2862L40.5587 34.0225L40.1123 34.9076L40.1984 35.8867L40.7076 36.9207L41.4752 38.0486L42.3916 38.9964L43.3081 40.328L43.9269 41.8319L44.2245 43.5473L44.2872 45.2941L44.1697 47.0721L43.8721 48.7875L43.5196 50.4481L43.1044 51.8659L42.423 54.1452L41.9452 55.8606L41.6554 57.3646L41.3577 59.0251L41.1227 60.5055L41.0601 61.657L41.2402 62.7536L41.7963 64.1478L42.1253 65.033L42.3916 65.9494L42.5091 66.811L42.3916 67.6648L42.0078 68.4011L41.2089 69.0277L39.9948 69.4664L38.2794 69.7092L36.6815 69.9129L35.0836 70.2967L33.4856 70.798L32.0679 71.3306L30.8225 71.8946L29.906 72.3411L29.2245 72.6622L29.0209 72.811L28.1279 73.14L27.2976 73.1713L26.7415 73.0773L26.5065 73.0225L25.9974 73.1948L25.4413 73.1713L25.0261 73.0773L24.8146 73.0225H24.5796L24.376 72.8737L24.282 72.7249L24.2272 72.6387L23.6319 72.7562L23.2167 72.6387L22.9817 72.3959L23.0444 72.1061L22.3629 72.1296L21.9791 71.8084L21.799 71.3933L21.8303 71.127L21.1488 71.0095L20.5535 70.6257L20.2872 70.1478L20.2559 69.7954L20.1149 69.5604L20.3499 69.2941L20.8825 69.0591L21.7363 68.9651L21.8538 68.8162L22.0026 68.6988L22.2141 68.5813L22.5117 68.4951L22.8329 68.3776L23.2794 68.2836L23.8982 68.1974L24.5796 68.08L25.4413 67.8685L26.3812 67.5787L27.423 67.1635L28.4883 66.5995L29.577 65.9181L30.6423 65.0878L31.7389 64.0538L32.7493 62.8711L33.4856 61.5082L33.8381 60.0277L33.9008 58.4298L33.752 56.8319L33.4543 55.2653L33.0392 53.8162L32.6554 52.4847L32.3577 51.3332L31.6841 49.0852L30.9399 46.657L30.3211 44.3776L30.0548 42.576L29.9373 41.3619L29.6945 40.5003L29.4282 39.8189L29.1071 39.2627L28.7781 38.1974L28.7546 37.3672V36.9834L28.6057 36.5682L28.3943 36.1217L28.0966 35.6831L27.6893 35.1191L27.329 34.3515L27.094 33.3724L27.0313 32.1035L27.1253 31.422L27.2976 30.7405L27.564 30.0904L27.9556 29.4638L28.4256 28.845L29.0444 28.3123L29.7259 27.811L30.5561 27.3646L31.3864 26.9494L32.1227 26.5343L32.8355 26.1191L33.517 25.7353L34.1984 25.3515L34.8799 24.9364L35.6162 24.4977L36.4465 24.0199L36.8616 23.7536L37.4178 23.4873L38.0444 23.1661L38.7258 22.8058L39.4621 22.4533L40.2924 22.1008L41.1227 21.717" fill="#00679A"/>
<path d="M52.2768 32.2444L51.329 32.3698L50.3812 32.4873L49.4334 32.5734L48.4308 32.6361L47.5144 32.6596H46.5901L43.6371 32.8397L41.6789 33.2862L40.5587 34.0225L40.1123 34.9076L40.1984 35.8867L40.7076 36.9207L41.4752 38.0486L42.3916 38.9964L43.3081 40.328L43.9269 41.8319L44.2245 43.5473L44.2872 45.2941L44.1697 47.0721L43.8721 48.7875L43.5196 50.4481L43.1044 51.8659L42.423 54.1452L41.9452 55.8606L41.6554 57.3646L41.3577 59.0251L41.1227 60.5055L41.0601 61.657L41.2402 62.7536L41.7963 64.1478L42.1253 65.033L42.3916 65.9494L42.5091 66.811L42.3916 67.6648L42.0078 68.4011L41.2089 69.0277L39.9948 69.4664L38.2794 69.7092L36.6815 69.9129L35.0836 70.2967L33.4856 70.798L32.0679 71.3306L30.8225 71.8946L29.906 72.3411L29.2245 72.6622L29.0209 72.811L28.1279 73.14L27.2976 73.1713L26.7415 73.0773L26.5065 73.0225L25.9974 73.1948L25.4413 73.1713L25.0261 73.0773L24.8146 73.0225H24.5796L24.376 72.8737L24.282 72.7249L24.2272 72.6387L23.6319 72.7562L23.2167 72.6387L22.9817 72.3959L23.0444 72.1061L22.3629 72.1296L21.9791 71.8084L21.799 71.3933L21.8303 71.127L21.1488 71.0095L20.5535 70.6257L20.2872 70.1478L20.2559 69.7954L20.1149 69.5604L20.3499 69.2941L20.8825 69.0591L21.7363 68.9651L21.8538 68.8162L22.0026 68.6988L22.2141 68.5813L22.5117 68.4951L22.8329 68.3776L23.2794 68.2836L23.8982 68.1975L24.5796 68.08L25.4413 67.8685L26.3812 67.5787L27.423 67.1635L28.4883 66.5995L29.577 65.9181L30.6423 65.0878L31.7389 64.0538L32.7493 62.8711L33.4856 61.5082L33.8381 60.0277L33.9008 58.4298L33.752 56.8319L33.4543 55.2653L33.0392 53.8163L32.6554 52.4847L32.3577 51.3332L31.6841 49.0852L30.9399 46.657L30.3211 44.3776L30.0548 42.576L29.9373 41.3619L29.6945 40.5003L29.4282 39.8189L29.1071 39.2627L28.7781 38.1974L28.7546 37.3672V36.9834L28.6057 36.5682L28.3943 36.1217L28.0966 35.6831L27.6893 35.1191L27.329 34.3515L27.094 33.3724L27.0313 32.1035L27.1253 31.422L27.2976 30.7405L27.564 30.0904L27.9556 29.4638L28.4256 28.845L29.0444 28.3123L29.7259 27.811L30.5561 27.3646L31.3864 26.9494L32.1227 26.5343L32.8355 26.1191L33.517 25.7353L34.1984 25.3515L34.8799 24.9364L35.6162 24.4977L36.4465 24.0199L36.8616 23.7536L37.4178 23.4873L38.0444 23.1661L38.7258 22.8058L39.4621 22.4533L40.2924 22.1008L41.1227 21.717" stroke="white"/>
</g>
</g>
<g id="Layer_6">
<path id="Vector_3" d="M34.9034 34.939L35.6162 34.704L35.8198 34.6413L36.1488 35.3541L35.53 35.7379L35.1462 36.0669L34.9347 36.5369L35.2324 37.8136L35.436 38.0173L35.0835 40.1165L35.0209 42.576L35.1149 43.6413L35.7337 46.422L36.1175 47.4559L36.8303 50.5656L37.3629 51.717L37.6841 54.5604L37.4491 55.892L37.1279 56.3933L36.329 56.7144L36.1802 56.0095L36.235 54.9129L36.0627 53.4324L35.8825 51.952L35.3499 50.3228L34.4021 47.3384L33.3055 43.5473L32.9217 40.7666L32.3577 39.7954L32.0914 39.5525L31.8016 38.3463L31.9504 37.2183L32.3577 35.7066L32.5379 35.4168L32.718 35.2053L34.5509 34.8528L34.9034 34.939Z" fill="#00679A" stroke="white" stroke-width="0.5"/>
<path id="Vector_4" d="M37.7154 35.4168L37.8329 36.7484L37.5979 38.9651L37.8329 42.7249L38.248 45.388L38.3342 46.657L38.8982 49.0852L38.8433 50.3541L39.0783 54.3176L39.3133 56.5108L39.4308 57.7562L39.3995 58.1087L38.9295 58.5552L38.6945 58.61L37.8642 57.8424L37.1279 56.6596L37.5979 55.9468L37.9269 54.4977L37.7467 52.0695L38.013 51.5682V49.6178L37.7781 47.7849L37.1828 45.2079L36.8851 42.2784L36.9478 41.3306L36.6814 39.8502L36.7128 39.1687L36.4151 38.2836L35.9452 37.6883L35.8825 37.4847L35.4673 36.952V36.4507L35.6162 36.0042L36.1488 35.4403L36.564 35.174L37.4491 35.0565L37.7154 35.4168Z" fill="#00679A" stroke="white" stroke-width="0.5"/>
<g id="Vector_5">
<path d="M38.9922 31.4768C36.8616 31.9233 35.9138 32.6909 35.9138 32.6909C35.5614 32.8711 35.7963 33.5525 35.7963 33.5525C35.765 33.999 35.1462 34.3515 35.1462 34.3515C33.9635 34.798 33.3681 34.1478 33.3681 34.1478C30.705 31.7823 33.1645 29.6831 33.1645 29.6831C33.6971 29.0643 35.1776 29.5343 35.1776 29.5343C35.1776 29.5343 37.9034 28.6178 39.2898 28.7666" fill="#00679A"/>
<path d="M38.9922 31.4768C36.8616 31.9233 35.9138 32.6909 35.9138 32.6909C35.5614 32.8711 35.7963 33.5525 35.7963 33.5525C35.765 33.999 35.1462 34.3515 35.1462 34.3515C33.9635 34.798 33.3681 34.1478 33.3681 34.1478C30.705 31.7823 33.1645 29.6831 33.1645 29.6831C33.6971 29.0643 35.1776 29.5343 35.1776 29.5343C35.1776 29.5343 37.9034 28.6178 39.2898 28.7666" stroke="white" stroke-width="0.5" stroke-miterlimit="10"/>
</g>
<path id="Vector_6" d="M31.3551 30.9442V32.3933C31.2376 32.4794 31.5587 33.3411 31.5587 33.3411C31.7076 33.7562 31.6762 34.1713 31.6762 34.1713C31.4961 35.0878 30.6109 35.3854 30.6109 35.3854C30.047 35.3228 29.6632 34.469 29.6632 34.469C28.4491 31.5395 29.4282 30.5055 29.4282 30.5055C30.1096 29.7928 31.1436 30.0042 31.2297 30.0904C31.1984 30.0904 31.4334 30.8267 31.3472 30.952L31.3551 30.9442Z" fill="#00679A" stroke="white" stroke-width="0.5" stroke-miterlimit="10"/>
</g>
</g>
</g>
</g>
</g>
</svg>
