<svg width="76" height="77" viewBox="0 0 76 77" fill="none" xmlns="http://www.w3.org/2000/svg">
<g id="Gastrointestinal 1" clip-path="url(#clip0_34_2405)">
<g id="Layer_1-2">
<g id="Gastrointestinal">
<path id="Vector" d="M75 38.4191C75 58.8536 58.4345 75.4191 38 75.4191C17.5655 75.4191 1 58.8536 1 38.4191C1 17.9845 17.5655 1.41907 38 1.41907C58.4345 1.41907 75 17.9845 75 38.4191Z" fill="#00679A" stroke="black" stroke-width="2"/>
<path id="Vector_2" d="M33.1963 9.97696H36.5448L36.9417 11.9613L37.0409 13.9043L36.9251 15.6902L36.6854 17.3521L36.3629 18.7824L35.9826 19.8573L35.5692 20.6428L35.1641 21.2629L34.701 21.9822L34.1388 22.9578L33.7254 24.2807L33.5766 25.8516L33.775 27.3399L34.0727 28.5553L34.4447 29.7542L34.7672 31.1763L34.8747 32.1932L35.0566 33.4665L35.2798 34.9878L35.5527 36.6084L35.8999 38.1793L36.3464 39.6676L36.9251 40.916L37.6279 41.8255L38.339 42.487L38.926 43.0409L39.9513 43.9339L40.9765 44.4713L41.5883 44.6449L42.6301 44.8434L43.5561 45.1162L44.3995 45.5379L45.2511 46.1332L46.1027 46.6293L46.9543 46.8773L47.7811 46.8277L48.6823 46.4556L49.0957 45.8107L49.1453 45.2402L49.4595 44.6119L50.1375 43.9504L50.6501 43.6445L51.1793 43.413L51.5927 43.3468L52.0392 43.198L52.0888 42.859L52.4278 42.487L52.8412 42.272L53.5026 42.1149L54.1227 42.024L54.6849 42.148L55.2141 42.4704L55.7102 42.4539L56.0905 42.1645L56.8264 42.0984L57.4217 42.2224L57.9839 42.4539L58.5131 42.7763L58.6867 43.2228L59.0835 43.3634L59.4391 43.1815L60.1253 43.2559L60.6876 43.5784L61.2002 43.9504L61.6466 44.5457L61.7459 45.0831L62.0849 45.3229L62.4983 45.3312L62.9447 45.6454L63.4739 46.3812L63.631 47.2246L63.6062 47.7951L64.0527 48.0266L64.1932 48.2085L64.4165 49.0105L64.6149 49.8869L64.4661 50.3664L64.2759 50.7054L64.6562 50.97L64.9952 51.2594L65.0779 51.9043L64.9787 52.8303L64.6562 53.6323L64.8795 53.8638L65.0448 54.1367L65.0779 54.9552L65.0448 55.4595L64.7389 56.3112L64.1932 57.0305L64.4165 57.2951L64.5818 57.8325L64.2759 59.1058L63.7302 61.2058H58.9265L59.1166 59.7259L59.4225 58.279L59.6954 57.2041L60.0178 56.8486L60.3072 56.7246L59.7615 55.5422L59.6623 54.8312L59.6954 54.1367L59.9352 53.9052L60.2576 53.7729L59.5466 52.7063L59.4225 52.1027L59.2902 51.3669L59.5052 51.0609L59.7615 50.8625L59.4391 50.416L59.1497 50.2093L58.6536 49.7959L58.1906 49.1841L57.8847 48.5226L58.3477 48.2911L58.3973 48.0927L57.9839 47.9191L57.3721 48.0266L56.7354 48.1837L55.7598 48.0266L55.1976 47.7951L55.4043 47.547L55.0487 47.4313L54.5857 47.6297L53.8664 48.2085L53.1636 48.473L52.3616 48.3821L51.3694 47.9356L50.4104 47.6462L49.6414 47.8116L49.0461 48.2581L48.6823 48.9361L48.4674 49.9199L48.6327 50.9369L48.7154 51.4909L48.4674 52.2763L48.0705 52.9213L47.4504 53.6737L46.5326 54.4756L45.3338 55.228L43.7959 55.9391L41.9521 56.4765L39.8438 56.8817L37.2972 57.0139L34.7672 56.7824L32.4604 56.121L30.4099 55.1867L28.6488 54.0457L27.1275 52.8303L25.8625 51.5984L24.8042 50.5483L23.1588 48.812L20.356 46.3481L17.8921 43.9008L17.1231 42.8838L16.2219 41.5609L15.2959 39.8743L14.3947 37.8072L13.5844 35.4508L12.9395 32.7555L12.6005 29.7294L12.5757 27.0505L12.8734 24.7685L13.4687 22.8586L14.3947 21.3042L15.6349 20.0723L17.1976 19.1214L19.124 18.4765L21.3647 18.03L23.0927 18.2285L24.6305 18.8155L26.0692 19.6175L27.4996 20.5353L28.376 20.6593L29.1614 20.5683L30.0131 20.1549L30.8233 19.4108L31.2946 18.7659L32.1379 17.4265L32.7911 15.8555L33.1632 13.5157L33.1963 9.97696Z" fill="#00679A" stroke="white" stroke-width="0.75"/>
<g id="Vector_3">
<path d="M21.993 41.2715C22.2163 39.5683 23.0844 40.9574 23.4234 39.5435L21.993 41.2715Z" fill="#00679A"/>
<path d="M21.993 41.2715C22.2163 39.5683 23.0844 40.9574 23.4234 39.5435" stroke="white" stroke-width="0.25" stroke-linecap="round" stroke-linejoin="round"/>
</g>
<g id="Vector_4">
<path d="M22.6131 38.7911C21.8277 39.3368 22.9604 39.8743 22.4064 40.3621L22.6131 38.7911Z" fill="#00679A"/>
<path d="M22.6131 38.7911C21.8277 39.3368 22.9604 39.8743 22.4064 40.3621" stroke="white" stroke-width="0.25" stroke-linecap="round" stroke-linejoin="round"/>
</g>
<g id="Vector_5">
<path d="M23.9526 42.2885C22.4891 42.0405 21.3977 40.5936 20.2071 39.7502C18.8594 38.7911 17.7267 33.8799 18.2476 30.7794C18.9008 27.0257 20.9513 23.0157 25.0026 22.6519" fill="#00679A"/>
<path d="M23.9526 42.2885C22.4891 42.0405 21.3977 40.5936 20.2071 39.7502C18.8594 38.7911 17.7267 33.8799 18.2476 30.7794C18.9008 27.0257 20.9513 23.0157 25.0026 22.6519" stroke="white" stroke-width="0.25" stroke-linecap="round" stroke-linejoin="round"/>
</g>
<g id="Vector_6">
<path d="M23.2829 23.057C24.3329 22.8917 24.0518 24.3468 24.8207 24.7437L23.2829 23.057Z" fill="#00679A"/>
<path d="M23.2829 23.057C24.3329 22.8917 24.0518 24.3468 24.8207 24.7437" stroke="white" stroke-width="0.25" stroke-linecap="round" stroke-linejoin="round"/>
</g>
<g id="Vector_7">
<path d="M25.3251 24.1153C24.9778 23.7929 24.5231 23.7929 24.1345 23.6192L25.3251 24.1153Z" fill="#00679A"/>
<path d="M25.3251 24.1153C24.9778 23.7929 24.5231 23.7929 24.1345 23.6192" stroke="white" stroke-width="0.25" stroke-linecap="round" stroke-linejoin="round"/>
</g>
<g id="Vector_8">
<path d="M23.2663 24.3634C22.456 24.785 21.8442 25.3803 20.8355 24.8429L23.2663 24.3634Z" fill="#00679A"/>
<path d="M23.2663 24.3634C22.456 24.785 21.8442 25.3803 20.8355 24.8429" stroke="white" stroke-width="0.25" stroke-linecap="round" stroke-linejoin="round"/>
</g>
<g id="Vector_9">
<path d="M21.9269 25.0165C22.7372 25.2811 22.671 26.2237 23.3077 26.6453L21.9269 25.0165Z" fill="#00679A"/>
<path d="M21.9269 25.0165C22.7372 25.2811 22.671 26.2237 23.3077 26.6453" stroke="white" stroke-width="0.25" stroke-linecap="round" stroke-linejoin="round"/>
</g>
<g id="Vector_10">
<path d="M24.5396 26.05C23.44 25.9508 23.8203 25.0413 22.7454 25.8764L24.5396 26.05Z" fill="#00679A"/>
<path d="M24.5396 26.05C23.44 25.9508 23.8203 25.0413 22.7454 25.8764" stroke="white" stroke-width="0.25" stroke-linecap="round" stroke-linejoin="round"/>
</g>
<g id="Vector_11">
<path d="M19.1406 27.6292C21.53 27.1662 20.3725 27.9269 21.4804 28.1997L19.1406 27.6292Z" fill="#00679A"/>
<path d="M19.1406 27.6292C21.53 27.1662 20.3725 27.9269 21.4804 28.1997" stroke="white" stroke-width="0.25" stroke-linecap="round" stroke-linejoin="round"/>
</g>
<g id="Vector_12">
<path d="M20.5048 28.2494C20.0418 28.208 19.8351 28.0427 19.678 27.5466L20.5048 28.2494Z" fill="#00679A"/>
<path d="M20.5048 28.2494C20.0418 28.208 19.8351 28.0427 19.678 27.5466" stroke="white" stroke-width="0.25" stroke-linecap="round" stroke-linejoin="round"/>
</g>
<g id="Vector_13">
<path d="M18.6941 28.9273C18.2807 28.8529 17.4125 28.8612 17.3464 28.2411C17.2306 27.3399 16.3873 27.9682 16.2054 27.1084" fill="#00679A"/>
<path d="M18.6941 28.9273C18.2807 28.8529 17.4125 28.8612 17.3464 28.2411C17.2306 27.3399 16.3873 27.9682 16.2054 27.1084" stroke="white" stroke-width="0.25" stroke-linecap="round" stroke-linejoin="round"/>
</g>
<g id="Vector_14">
<path d="M15.8085 28.7041C16.5857 29.2167 16.809 28.1998 17.4291 28.4891L15.8085 28.7041Z" fill="#00679A"/>
<path d="M15.8085 28.7041C16.5857 29.2167 16.809 28.1998 17.4291 28.4891" stroke="white" stroke-width="0.25" stroke-linecap="round" stroke-linejoin="round"/>
</g>
<g id="Vector_15">
<path d="M18.3055 30.49C19.7193 29.8616 18.6775 31.1763 20.1327 30.9117L18.3055 30.49Z" fill="#00679A"/>
<path d="M18.3055 30.49C19.7193 29.8616 18.6775 31.1763 20.1327 30.9117" stroke="white" stroke-width="0.25" stroke-linecap="round" stroke-linejoin="round"/>
</g>
<g id="Vector_16">
<path d="M20.9347 30.7298C19.8103 29.2332 20.1162 30.2419 18.8512 30.3246C19.5622 30.2667 19.7193 29.0265 20.2733 28.9935" fill="#00679A"/>
<path d="M20.9347 30.7298C19.8103 29.2332 20.1162 30.2419 18.8512 30.3246C19.5622 30.2667 19.7193 29.0265 20.2733 28.9935" stroke="white" stroke-width="0.25" stroke-linecap="round" stroke-linejoin="round"/>
</g>
<g id="Vector_17">
<path d="M18.1732 31.3499C17.0157 31.6062 16.4948 30.5975 15.9822 30.49L18.1732 31.3499Z" fill="#00679A"/>
<path d="M18.1732 31.3499C17.0157 31.6062 16.4948 30.5975 15.9822 30.49" stroke="white" stroke-width="0.25" stroke-linecap="round" stroke-linejoin="round"/>
</g>
<g id="Vector_18">
<path d="M16.1971 32.0444C16.1971 31.6475 16.4782 31.2176 16.8255 31.0522L16.1971 32.0444Z" fill="#00679A"/>
<path d="M16.1971 32.0444C16.1971 31.6475 16.4782 31.2176 16.8255 31.0522" stroke="white" stroke-width="0.25" stroke-linecap="round" stroke-linejoin="round"/>
</g>
<g id="Vector_19">
<path d="M15.5605 32.7472C16.4534 33.2763 17.4704 33.6401 18.2228 34.3347L15.5605 32.7472Z" fill="#00679A"/>
<path d="M15.5605 32.7472C16.4534 33.2763 17.4704 33.6401 18.2228 34.3347" stroke="white" stroke-width="0.25" stroke-linecap="round" stroke-linejoin="round"/>
</g>
<g id="Vector_20">
<path d="M17.2306 32.4082C17.4704 32.8547 17.1397 33.359 17.4373 33.7642C16.6684 33.7228 17.0239 33.3921 16.5278 33.8634" fill="#00679A"/>
<path d="M17.2306 32.4082C17.4704 32.8547 17.1397 33.359 17.4373 33.7642C16.6684 33.7228 17.0239 33.3921 16.5278 33.8634" stroke="white" stroke-width="0.25" stroke-linecap="round" stroke-linejoin="round"/>
</g>
<g id="Vector_21">
<path d="M18.1236 32.9291C18.5204 32.3751 19.3803 32.9787 19.926 32.8051C20.3642 32.6728 20.4882 33.1027 20.819 33.1606" fill="#00679A"/>
<path d="M18.1236 32.9291C18.5204 32.3751 19.3803 32.9787 19.926 32.8051C20.3642 32.6728 20.4882 33.1027 20.819 33.1606" stroke="white" stroke-width="0.25" stroke-linecap="round" stroke-linejoin="round"/>
</g>
<g id="Vector_22">
<path d="M19.463 33.6401C19.5705 33.359 19.4961 33.02 19.2894 32.7885C19.5374 32.4991 19.7193 32.1353 19.8103 31.7467" fill="#00679A"/>
<path d="M19.463 33.6401C19.5705 33.359 19.4961 33.02 19.2894 32.7885C19.5374 32.4991 19.7193 32.1353 19.8103 31.7467" stroke="white" stroke-width="0.25" stroke-linecap="round" stroke-linejoin="round"/>
</g>
<g id="Vector_23">
<path d="M21.0174 34.4504C19.8847 35.3351 19.7441 34.93 18.3468 35.1367L21.0174 34.4504Z" fill="#00679A"/>
<path d="M21.0174 34.4504C19.8847 35.3351 19.7441 34.93 18.3468 35.1367" stroke="white" stroke-width="0.25" stroke-linecap="round" stroke-linejoin="round"/>
</g>
<g id="Vector_24">
<path d="M20.1245 33.6236C19.3886 33.7559 19.926 35.0622 19.1075 35.0705C20.4717 36.0048 19.2067 36.0296 21.158 36.2446" fill="#00679A"/>
<path d="M20.1245 33.6236C19.3886 33.7559 19.926 35.0622 19.1075 35.0705C20.4717 36.0048 19.2067 36.0296 21.158 36.2446" stroke="white" stroke-width="0.25" stroke-linecap="round" stroke-linejoin="round"/>
</g>
<g id="Vector_25">
<path d="M18.8512 37.3277C17.5944 35.2193 17.4787 36.8316 16.2137 35.9056L18.8512 37.3277Z" fill="#00679A"/>
<path d="M18.8512 37.3277C17.5944 35.2193 17.4787 36.8316 16.2137 35.9056" stroke="white" stroke-width="0.25" stroke-linecap="round" stroke-linejoin="round"/>
</g>
<g id="Vector_26">
<path d="M16.6519 34.7646C17.5448 34.9051 17.0074 35.9221 17.6771 36.1702L16.6519 34.7646Z" fill="#00679A"/>
<path d="M16.6519 34.7646C17.5448 34.9051 17.0074 35.9221 17.6771 36.1702" stroke="white" stroke-width="0.25" stroke-linecap="round" stroke-linejoin="round"/>
</g>
<g id="Vector_27">
<path d="M19.2894 38.4522C20.5627 37.1954 20.2898 39.4939 21.2158 38.4025L19.2894 38.4522Z" fill="#00679A"/>
<path d="M19.2894 38.4522C20.5627 37.1954 20.2898 39.4939 21.2158 38.4025" stroke="white" stroke-width="0.25" stroke-linecap="round" stroke-linejoin="round"/>
</g>
<g id="Vector_28">
<path d="M21.1332 37.1871C20.728 37.3029 20.5379 38.1462 20.1493 38.138L21.1332 37.1871Z" fill="#00679A"/>
<path d="M21.1332 37.1871C20.728 37.3029 20.5379 38.1462 20.1493 38.138" stroke="white" stroke-width="0.25" stroke-linecap="round" stroke-linejoin="round"/>
</g>
<g id="Vector_29">
<path d="M22.1832 40.5853C21.9434 39.3038 21.4639 40.9822 21.7202 38.7994L22.1832 40.5853Z" fill="#00679A"/>
<path d="M22.1832 40.5853C21.9434 39.3038 21.4639 40.9822 21.7202 38.7994" stroke="white" stroke-width="0.25" stroke-linecap="round" stroke-linejoin="round"/>
</g>
<g id="Vector_30">
<path d="M19.7359 26.5379C20.0004 24.8346 18.5122 23.2803 19.2398 21.7093L19.7359 26.5379Z" fill="#00679A"/>
<path d="M19.7359 26.5379C20.0004 24.8346 18.5122 23.2803 19.2398 21.7093" stroke="white" stroke-width="0.25" stroke-linecap="round" stroke-linejoin="round"/>
</g>
<g id="Vector_31">
<path d="M18.2807 21.9822C18.7106 22.1558 18.9587 22.5196 19.0662 23.057L18.2807 21.9822Z" fill="#00679A"/>
<path d="M18.2807 21.9822C18.7106 22.1558 18.9587 22.5196 19.0662 23.057" stroke="white" stroke-width="0.25" stroke-linecap="round" stroke-linejoin="round"/>
</g>
<g id="Vector_32">
<path d="M19.5457 21.9822C19.6284 22.2964 20.0418 22.4783 19.8929 22.8669L19.5457 21.9822Z" fill="#00679A"/>
<path d="M19.5457 21.9822C19.6284 22.2964 20.0418 22.4783 19.8929 22.8669" stroke="white" stroke-width="0.25" stroke-linecap="round" stroke-linejoin="round"/>
</g>
<g id="Vector_33">
<path d="M20.5544 22.4121C20.0831 23.1314 19.6532 22.3625 19.3059 24.0657C18.661 23.7267 18.2228 23.2058 17.6358 22.7842" fill="#00679A"/>
<path d="M20.5544 22.4121C20.0831 23.1314 19.6532 22.3625 19.3059 24.0657C18.661 23.7267 18.2228 23.2058 17.6358 22.7842" stroke="white" stroke-width="0.25" stroke-linecap="round" stroke-linejoin="round"/>
</g>
<g id="Vector_34">
<path d="M17.6027 23.4456C18.0492 24.322 18.9835 24.1319 19.5126 24.7354L17.6027 23.4456Z" fill="#00679A"/>
<path d="M17.6027 23.4456C18.0492 24.322 18.9835 24.1319 19.5126 24.7354" stroke="white" stroke-width="0.25" stroke-linecap="round" stroke-linejoin="round"/>
</g>
<g id="Vector_35">
<path d="M19.3059 24.0657C19.7111 23.3547 20.8272 24.0244 20.8769 23.024L19.3059 24.0657Z" fill="#00679A"/>
<path d="M19.3059 24.0657C19.7111 23.3547 20.8272 24.0244 20.8769 23.024" stroke="white" stroke-width="0.25" stroke-linecap="round" stroke-linejoin="round"/>
</g>
<g id="Vector_36">
<path d="M22.0509 23.5944C22.9439 23.024 22.6214 21.5936 23.3903 20.8246L22.0509 23.5944Z" fill="#00679A"/>
<path d="M22.0509 23.5944C22.9439 23.024 22.6214 21.5936 23.3903 20.8246" stroke="white" stroke-width="0.25" stroke-linecap="round" stroke-linejoin="round"/>
</g>
<g id="Vector_37">
<path d="M22.9439 20.2045C22.7868 20.6675 22.7702 21.1967 22.9191 21.6762L22.9439 20.2045Z" fill="#00679A"/>
<path d="M22.9439 20.2045C22.7868 20.6675 22.7702 21.1967 22.9191 21.6762" stroke="white" stroke-width="0.25" stroke-linecap="round" stroke-linejoin="round"/>
</g>
<g id="Vector_38">
<path d="M22.8198 22.0318C23.2498 21.577 24.0022 22.3129 24.1593 21.5026L22.8198 22.0318Z" fill="#00679A"/>
<path d="M22.8198 22.0318C23.2498 21.577 24.0022 22.3129 24.1593 21.5026" stroke="white" stroke-width="0.25" stroke-linecap="round" stroke-linejoin="round"/>
</g>
<g id="Vector_39">
<path d="M23.8451 21.0479C23.8451 21.3869 23.6549 21.7011 23.3821 21.8664L23.8451 21.0479Z" fill="#00679A"/>
<path d="M23.8451 21.0479C23.8451 21.3869 23.6549 21.7011 23.3821 21.8664" stroke="white" stroke-width="0.25" stroke-linecap="round" stroke-linejoin="round"/>
</g>
</g>
</g>
</g>
<defs>
<clipPath id="clip0_34_2405">
<rect width="76" height="76" fill="white" transform="translate(0 0.419067)"/>
</clipPath>
</defs>
</svg>
