<svg width="76" height="76" viewBox="0 0 76 76" fill="none" xmlns="http://www.w3.org/2000/svg">
<g clip-path="url(#clip0_34_302)">
<path d="M75 38C75 58.4345 58.4345 75 38 75C17.5655 75 1 58.4345 1 38C1 17.5655 17.5655 1 38 1C58.4345 1 75 17.5655 75 38Z" fill="#00679A" stroke="black" stroke-width="2"/>
<path d="M13.2868 22.7868C13.5596 22.8529 13.8821 22.9356 14.0474 23.0596L14.0805 22.9273C13.8407 22.8529 13.4604 22.7206 13.2785 22.7868H13.2868Z" stroke="white" stroke-width="0.5"/>
<path d="M14.1466 22.9356L14.097 23.134C14.2459 23.1506 14.1384 23.101 14.2789 23.1836C13.9896 23.4482 13.7002 23.4896 13.4935 23.9691L13.5513 23.9856C13.7911 23.4069 14.2293 23.4648 14.5518 23.1092L14.4278 23.0762C14.3616 23.0017 14.2955 22.9769 14.1466 22.9356Z" stroke="white" stroke-width="0.5"/>
<path d="M13.3364 25.5648L13.4604 25.5979C13.386 25.4904 13.4439 25.5483 13.3364 25.5648Z" stroke="white" stroke-width="0.5"/>
<path d="M13.5017 25.6723C13.7829 25.7963 14.1632 26.1436 14.4278 26.0527C14.1136 25.9369 13.7415 25.6062 13.5017 25.6723Z" stroke="white" stroke-width="0.5"/>
<path d="M14.5931 23.2002C14.8164 23.2829 14.99 23.4317 15.1967 23.3573C14.9735 23.2746 14.7998 23.1258 14.5931 23.2002Z" stroke="white" stroke-width="0.5"/>
<path d="M14.2376 25.3003C14.436 25.7302 14.3203 26.1519 14.8164 26.3007L14.8329 26.2346C14.4939 26.0444 14.3368 25.2341 14.2376 25.3003Z" stroke="white" stroke-width="0.5"/>
<path d="M12.3029 33.0144C12.5261 32.9399 12.7245 32.849 12.9891 32.8407L13.0222 32.7084L12.9643 32.6919C12.7493 32.8325 12.493 32.8407 12.3029 33.0144Z" stroke="white" stroke-width="0.5"/>
<path d="M15.4861 20.7363C15.4943 21.0257 15.5109 21.3068 15.5191 21.5962L15.577 21.6127L15.6266 21.4143C15.5853 21.3233 15.5439 20.604 15.4778 20.7363H15.4861Z" stroke="white" stroke-width="0.5"/>
<path d="M13.5844 28.3181C13.7415 28.2437 13.8242 28.161 13.9317 27.9791L13.8738 27.9626L13.8573 28.0287C13.7581 28.0949 13.6754 28.2106 13.5927 28.3098H13.5844V28.3181Z" stroke="white" stroke-width="0.5"/>
<path d="M12.9064 31.1871C13.0305 31.121 12.9808 31.1623 13.0801 31.0218C12.8734 31.0631 13.047 31.0218 12.9064 31.1871Z" stroke="white" stroke-width="0.5"/>
<path d="M21.0257 36.9748C20.7942 37.8098 20.2237 39.3394 20.4469 39.943C20.5131 39.5627 20.5792 39.1575 20.7363 38.8185L20.9182 38.8681C21.0257 39.1493 21.3399 39.3394 21.5796 39.5379L21.6127 39.4056C21.1084 39.1989 20.9926 38.802 20.7776 38.4134C21.0339 37.3716 21.3647 36.7267 21.7119 36.0405L21.7698 36.057C21.9021 36.2224 22.4147 36.4787 22.6462 36.6358C22.9273 36.8259 23.0513 36.6358 23.3077 36.8094C23.6715 37.074 23.688 37.3137 24.027 37.4956C23.903 37.8594 24.3577 38.1984 24.5231 38.5457C24.4569 38.8847 24.8455 39.604 24.9943 39.943C24.9365 40.1084 24.8951 40.1993 24.8703 40.406L24.7711 40.3068L24.7546 40.3729C24.7546 40.3729 24.027 41.084 23.7707 41.1832C23.7872 41.3072 23.8947 41.3486 23.7789 41.3982C23.6715 41.4809 23.7211 41.4643 23.564 41.4809L23.5805 41.4147L23.7376 41.3155L23.6797 41.299C23.4978 41.5057 23.2746 41.762 23.0265 41.8364C23.0513 41.9521 23.1836 41.9273 23.0513 41.9852L22.9769 42.0348C22.8612 41.8446 22.5635 41.6793 22.3238 41.5801L22.3072 41.6462C22.5057 41.7206 22.7537 41.8529 22.8529 42.0017C22.5883 42.1754 22.1749 42.5392 21.9517 42.7624L22.0096 42.7789C22.1915 42.6136 22.3403 42.7211 22.5635 42.6384C22.5057 42.4896 22.5718 42.5144 22.5139 42.3407C22.7702 42.3655 22.7785 42.3159 22.8033 42.2002L22.6462 42.2994L22.6793 42.1671C23.6301 41.9852 24.1593 40.6789 25.1514 40.5466C25.1514 40.8359 25.3168 40.8856 25.3499 41.0261L25.2589 41.1419L25.3995 41.1088L25.2837 41.2907C25.292 41.4147 25.416 41.5222 25.4574 41.6214C25.3499 42.0017 25.4574 42.9856 25.54 43.275L25.4243 43.4569L25.5483 43.49C25.5483 43.7546 25.1845 43.8703 25.1928 44.1101L25.2341 44.1928V43.9778C25.3664 44.0357 25.2424 44.0274 25.4077 44.0274L25.3829 43.8786L25.4408 43.8951L25.4574 43.829C25.5896 43.9199 25.5566 43.8869 25.7385 43.9695L25.755 43.9034C25.3912 43.0352 25.5235 41.6793 25.6475 40.621C25.755 40.6706 25.9038 40.5962 26.0279 40.6458C26.3172 40.7615 26.5405 40.9269 26.6976 41.0344L26.7306 40.9021L26.6066 40.869C26.3586 40.6127 25.9782 40.6292 25.8046 40.2406C25.7054 40.0091 25.6062 38.6201 25.7467 38.2398C25.8129 38.0579 25.879 37.2972 25.9452 37.2311C26.1353 37.0409 26.2924 36.9252 26.4743 36.6606C26.6397 36.611 27.8386 36.0983 28.0287 35.8586C28.161 35.6932 28.4256 35.3046 28.5827 35.2219C29.393 34.6845 31.6088 35.2633 33.064 35.255C33.1797 35.255 33.5022 35.4369 33.7089 35.4948C34.4613 35.6932 35.3542 35.8751 36.0074 36.0239C36.3795 36.1066 36.8177 36.4952 37.2972 36.5035C37.7189 36.5035 38 36.7598 38.5209 36.7515C39.6784 36.7267 40.8111 37.1071 42.0679 37.1815L42.4151 37.3386L44.7633 37.9504C45.003 37.9752 45.6562 38.248 45.8712 38.3803C46.2433 38.6118 46.483 38.4547 46.8303 38.6284C47.7315 39.0748 49.4761 39.8603 50.9064 39.9678C51.1958 39.9926 51.8077 40.2572 52.2459 40.2489C52.6427 40.2489 53.1554 40.3151 53.577 40.3151C53.7507 40.3812 53.9243 40.4556 54.0979 40.5218C55.057 40.497 58.2319 41.2742 59.0257 41.8033C59.3316 42.01 59.7533 41.9025 59.9848 42.0513C60.1171 42.1423 60.0509 42.2415 60.1584 42.3821C60.3155 42.5888 60.5718 42.5309 60.7041 42.7376L60.6131 42.8534C61.0844 43.366 61.4565 43.4735 61.7045 43.8455C61.9195 44.168 63.1101 44.54 63.1762 44.8625C63.3829 45.1105 63.3333 47.5248 62.8372 48.3847L62.8951 48.4012C62.9861 48.3847 63.0853 48.4178 63.1928 48.4756L63.2093 48.4095C63.1266 48.1366 63.4243 47.2933 63.4408 46.7724C63.4574 46.0531 63.3251 45.6149 63.5483 44.8873L63.6062 44.9038C63.6806 45.1436 63.7633 45.0361 63.7798 45.2346C64.1849 46.1275 64.2263 47.3925 64.4909 48.178L64.3751 48.3599C64.3916 48.55 64.4909 48.6162 64.5322 48.7567C64.5405 48.7898 64.342 49.2198 64.3751 49.352C64.433 49.4265 64.4661 49.4265 64.5983 49.4843C64.7306 49.2776 64.6728 49.5257 64.805 49.1867C64.6562 49.0875 64.8381 49.1536 64.7224 49.0213C64.5983 49.0544 64.7224 49.0379 64.5983 48.9883C64.7637 48.4839 64.3172 46.8634 64.4247 46.6815C64.4578 46.6236 64.1023 45.896 64.2098 45.772C64.0775 45.4826 63.8708 45.2594 63.879 44.8377L64.003 44.8708C64.3255 45.2676 64.805 45.1271 65.0366 45.3503C65.144 45.4578 65.5492 45.9291 65.698 46.02L65.8964 46.0035C65.8385 46.1192 66.1114 46.4417 66.3594 46.6897C66.285 46.8551 66.2685 46.8303 66.2768 47.0204L66.3181 47.1031C66.4421 47.1362 66.3512 47.037 66.4421 47.1362C66.5413 47.0783 66.6736 47.0453 66.6157 46.9708C66.6819 46.8303 66.6902 46.913 66.6654 46.7724C66.5992 46.6815 66.5331 46.7724 66.3842 46.6319C66.2685 46.5161 66.2602 46.2763 66.2271 46.235C65.9295 45.7306 65.0614 45.3172 64.5735 44.9534C64.2924 44.7467 63.9452 44.8956 63.9038 44.5648C64.3007 44.3747 64.5735 43.8703 64.9952 43.5727C65.0614 43.5231 65.4665 43.5561 65.6484 43.5313C65.6484 43.366 65.7145 43.2833 65.6732 43.1841C65.6153 43.1097 65.607 43.1345 65.45 43.0518C65.2433 43.5644 64.2015 43.8621 63.9369 44.4326C63.7633 44.3912 63.7302 44.4822 63.4243 44.4326C63.3747 44.3747 63.0191 44.2589 63.0191 44.2589L63.0522 44.1266L62.8538 44.1432L62.8869 44.0109C62.7463 43.8372 62.366 43.7959 62.3164 43.7215L62.3494 43.5892L62.151 43.6057C61.8368 43.1345 61.101 42.4234 60.4395 42.0265L60.5139 41.9769C61.0017 41.795 61.6301 42.2498 62.1923 42.2002C63.3912 42.0844 65.4086 42.2002 66.1197 43.151C66.4917 43.6388 67.0209 43.6719 67.0705 44.1762C66.9795 44.2755 67.054 44.1762 67.0374 44.3085C67.1201 44.3747 67.1697 44.3995 67.3185 44.4491C67.3516 44.2755 67.4591 44.2672 67.426 44.0522C67.4012 44.0191 66.9961 43.8207 66.9795 43.7959C66.4339 42.8616 65.8386 42.8699 64.9291 42.0596L65.0035 42.01C65.0944 41.9604 66.3346 41.5801 66.3346 41.5801C66.9547 41.2245 67.0622 40.9104 67.7567 40.8194C67.8063 40.654 67.7898 40.7533 67.9056 40.5052L67.8642 40.4225C67.6823 40.3977 67.8064 40.3812 67.5666 40.3481C66.1114 42.0596 63.8377 42.2415 60.9852 41.4726L61.0348 41.2741C61.1423 41.3072 61.1092 41.3899 61.2746 41.3403L61.3077 41.208L61.473 41.3238C61.7128 41.299 61.936 41.1336 62.1345 41.0013C62.1345 41.0013 62.366 41.0426 62.3742 41.0674C62.8373 40.6954 63.0109 40.869 63.507 40.654C63.9369 40.4721 64.309 40.0505 64.8216 39.7942C65.1192 40.1414 65.9543 40.0918 66.0204 40.6044C66.0618 40.7202 66.037 40.869 66.037 41.0344C66.1693 41.0178 66.2272 41.0592 66.2933 41.0344L66.4339 41.0013C66.4339 40.8773 66.4339 40.9352 66.409 40.8525C66.3677 40.3812 65.8055 40.1001 65.4582 39.8272C65.1936 39.6205 65.1275 39.9017 65.0531 39.6536C65.1192 39.5957 65.0779 39.6371 65.144 39.5379C65.3838 39.6867 66.4504 39.5875 66.8721 39.5627C67.178 39.5461 67.6658 39.8851 67.9386 39.9099C67.9965 39.819 68.0048 39.8107 68.0709 39.6619C67.8808 39.5379 68.1205 39.5957 67.9221 39.48C67.8394 39.5131 67.8642 39.48 67.6823 39.4138C67.6575 39.5792 67.7154 39.4552 67.6327 39.6123C67.4012 39.4469 67.2028 39.5131 67.0126 39.5213C66.8307 39.5379 66.5661 39.2485 66.2933 39.3312C66.0204 39.4138 65.5574 39.3973 65.1275 39.3808L65.144 39.3146C65.7641 39.0583 66.4421 38.0248 66.4421 38.0248C66.7232 37.8181 67.0705 37.2311 67.0457 37.1897C67.1862 37.0326 67.6079 36.5531 67.5252 36.3216C67.426 36.3547 67.3681 36.3216 67.2276 36.2472L67.1945 36.3795C67.2772 36.7019 66.9051 37.0078 66.7398 37.3964C66.4339 38.1075 64.1767 39.943 63.1266 40.4225C63.1266 40.4225 60.9025 40.9434 60.6545 41.0509C60.2328 41.2411 59.0339 40.3399 58.3477 40.3068C57.8268 40.282 56.8264 39.6619 56.0161 39.6288C55.611 39.6123 53.3786 39.265 53.238 39.1906C52.775 38.9343 52.2211 39.2402 51.8655 39.05C51.3695 38.7772 50.46 38.926 49.8647 38.6036C49.6414 38.4795 49.104 38.4465 48.9056 38.3555C48.7816 38.2976 48.6989 38.1488 48.4591 38.0992C48.3103 38.0827 48.1697 38.0744 48.0209 38.0579C47.3346 37.6445 46.5161 37.5866 45.7802 37.0492C45.5487 36.8838 45.1436 36.983 44.9782 36.9086C43.9282 36.4456 42.349 35.9991 41.3568 36.0405C41.2907 36.0405 41.0178 35.8338 40.8359 35.8338C40.0174 35.8338 39.5213 35.6271 38.7524 35.718C38.7111 35.718 38.4961 35.5444 38.3473 35.5444C37.5535 35.5444 36.5862 34.9904 35.8668 34.9739C35.7511 34.9739 35.6023 34.792 35.5444 34.7507C35.2633 34.5605 34.6432 34.4778 34.4613 34.4695C34.1802 34.4695 33.3616 33.9487 33.2707 33.8742C33.064 33.7089 32.4439 33.403 32.2868 33.4774L32.3198 33.3451L32.1214 33.3616L32.1545 33.2293L32.0966 33.2128L31.9561 33.2459C31.7576 32.8986 31.5674 32.9151 31.3525 32.5927C31.3359 32.5679 31.1871 32.634 31.1127 32.5265C31.1127 32.5265 31.2202 32.3943 31.1044 32.3116L30.906 32.3281C30.997 32.0139 30.4099 31.8734 30.3107 31.3938C30.2611 31.1375 30.4017 30.7158 30.3769 30.6332L30.2528 30.6001C30.3107 30.3272 30.2694 30.4347 30.2198 30.2363L30.3355 30.0544L30.2115 30.0213C30.1123 29.4674 30.5753 29.054 30.6332 28.6406C30.7489 27.8468 31.9974 26.9621 32.5679 26.3834C32.8655 26.5983 33.5931 26.772 33.8742 26.7968L33.8908 26.7306C33.5766 26.6232 32.8655 26.3999 32.8159 26.1684C32.7415 26.0527 32.7581 26.1105 32.7498 25.9369C32.9151 25.8377 32.8573 25.8625 32.9565 25.6393C33.097 25.6971 32.973 25.6889 33.1384 25.6889V25.4739C33.4856 25.5731 33.7171 24.8455 34.0148 24.7794C34.1719 24.7959 34.9822 24.2833 35.131 23.936C34.9822 23.8947 35.0648 23.903 34.8499 23.7955C34.7672 24.1014 33.0061 25.5814 32.6754 25.4987L32.6588 25.5648L32.7002 25.6475L32.5762 25.6144C32.5183 25.6475 32.3281 25.6723 32.1214 25.6393C32.1876 25.507 32.1793 24.2998 32.0387 23.9856C31.8816 24.8455 32.0222 25.0522 31.9726 25.7385C31.6832 25.6641 31.2367 26.218 30.9556 26.1849L30.9391 26.2511L30.9804 26.3338L30.8564 26.3007C30.7489 26.3916 29.517 26.7306 29.2441 26.5901C28.8638 26.3999 28.1279 26.5405 28.0783 26.1436C27.9543 25.5979 29.2689 23.9112 29.5914 23.7789C29.98 23.597 30.4347 23.9939 30.782 23.8782C30.3934 23.7541 30.1536 23.6963 29.7567 23.6136C29.9304 23.0762 30.2198 23.0265 30.4513 22.6628L30.3272 22.6297C30.0875 22.9439 28.5827 24.7298 28.3098 24.7215C28.1693 24.1593 27.7145 22.3238 27.3507 21.993L27.3177 22.1253C27.5326 22.423 27.7724 23.0596 27.7311 23.5061L27.607 23.473C27.4913 23.3077 27.02 23.0844 26.7802 23.1919C27.7807 23.4399 28.3346 24.2916 28.1693 25.2507C27.9708 25.4739 27.9956 25.8873 27.7228 25.9865C27.5244 25.755 26.7885 25.3912 26.7885 25.3912C26.7058 25.2424 26.2842 24.4321 26.3503 24.3577C26.3007 24.2337 26.094 24.1179 26.0609 24.0022C26.0527 23.9608 26.1601 23.8782 26.1271 23.7376C26.1023 23.5888 26.0278 23.2746 25.9617 23.1258L25.8377 23.0927L25.9534 22.9108C25.9369 22.6793 25.7963 22.5387 25.755 22.4312C25.755 22.4312 25.8129 21.8029 25.8046 21.7367C26.0609 21.7119 27.0366 20.7115 27.0366 20.7115C26.9208 20.819 26.9208 20.8272 26.7472 20.852L26.7637 20.7859C27.2598 20.6123 27.7972 20.1823 28.161 20.0914L28.1197 20.0087C28.1197 20.0087 27.822 19.9756 27.7724 19.8516L28.0453 18.7933L27.9212 18.7602C27.9212 18.9421 27.6897 20.1741 27.5988 20.2319C26.9704 20.6453 26.4743 21.0422 25.8046 21.4639C25.7054 21.3812 25.7715 21.4225 25.6227 21.4143C25.5814 20.5875 25.7385 19.4217 26.2097 18.1649L26.1105 18.0657C25.9948 18.2393 26.0692 18.1815 25.879 18.2145L25.8377 18.1319L25.8211 18.198C25.9204 18.4212 25.4491 20.8438 25.2755 21.0339C25.2093 21.0587 25.1514 21.0257 25.0191 21.0339C25.0026 20.5296 24.5644 20.05 24.4156 19.8847L24.399 19.9508C24.5396 20.1493 24.6802 20.356 24.8207 20.5544L24.5727 20.7694C24.7628 20.8272 25.0357 21.2241 25.2341 21.4391L25.1184 21.621L24.9365 21.5714C24.9365 21.5714 23.9608 20.9843 23.8782 20.943L23.8285 21.1414L23.9526 21.1745C24.027 21.2737 24.2916 21.3233 24.2998 21.3316C24.5644 21.6789 24.7463 21.7037 25.0357 21.9517C24.9282 22.208 24.7298 23.3573 24.6057 23.6136C24.1262 24.5809 23.564 25.7137 22.8116 25.8377C22.3734 25.7715 22.0675 24.2337 21.7037 23.9195L21.6706 24.0518C22.0261 24.4817 22.332 25.2589 22.4974 25.8211L22.3734 25.7881C22.2328 25.5483 21.2985 24.4735 21.0836 24.3164L21.067 24.3825C21.2489 24.5892 21.7202 25.0605 21.7781 25.3499C21.4473 25.2755 20.9347 25.2176 20.6867 25.3499L20.8686 25.3995C21.4721 25.1184 22.0757 25.6227 22.3982 25.9369L22.3651 26.0692C22.2493 26.1271 22.208 26.1767 22.1171 26.2842C21.9682 26.2346 20.9926 26.3338 20.4965 26.3586C20.2237 26.3751 19.9591 26.1271 19.8103 26.0361C19.6449 25.9369 19.4217 25.9617 19.3142 25.9782C19.0827 25.7715 18.8594 25.6806 18.5205 25.5566C18.6031 25.2672 18.446 25.54 18.5039 25.1266C18.4378 24.8538 18.5535 24.4487 18.6775 23.9691L18.4956 23.9195C18.4047 24.4404 18.3138 24.9613 18.2228 25.4739C17.5118 25.1762 16.8172 24.399 16.6353 24.4238C16.6023 24.4238 16.4121 24.0518 16.3294 24.1345C16.2633 24.1923 16.3046 24.151 16.2385 24.2502C16.6105 24.3246 17.7019 25.7054 17.7102 25.7633L17.6523 25.7467C17.5944 25.8708 17.735 25.8211 17.6192 25.879C17.1976 26.1105 16.8751 26.1932 16.4865 26.2924C16.4286 26.4413 16.4204 26.4495 16.3542 26.5405L16.4121 26.557L16.4286 26.4909C16.4865 26.4495 16.5444 26.3668 16.6023 26.3255C16.6849 26.5735 17.4291 26.0857 18.0492 26.2015C18.1484 26.4743 18.6527 26.9456 18.8594 27.0448L18.7685 27.1606L18.8264 27.1771C18.8925 27.1771 18.8594 27.1275 18.8842 27.1936C19.4878 28.285 19.9508 28.9134 19.5622 30.2694L18.661 30.0379C18.661 29.7319 18.5949 29.641 18.6693 29.2607C18.7768 29.2193 19.0083 29.1449 18.9173 29.0457L18.6114 29.2524L18.6279 29.1862C18.5866 29.0788 18.6279 28.6819 18.4956 28.9382C18.5866 29.2028 18.5783 29.6989 18.537 30.0131C18.0905 29.9552 17.6606 29.7981 17.2141 29.6658C17.2306 29.4508 17.2141 29.1201 17.148 28.9382C17.1066 29.2359 17.1562 29.3847 17.148 29.6493L16.1889 29.4012L16.1393 29.5997C16.7097 29.7154 17.2306 29.8808 17.8259 30.0379L17.7929 30.1701C17.2637 30.4017 16.6601 31.0383 16.2385 31.4682L16.3625 31.5013L16.379 31.4352C16.5609 31.3277 16.7263 31.1789 16.8751 30.997L16.9991 31.03C16.9247 31.3525 16.9165 31.6336 17.0487 31.8238L17.0653 31.7576C16.9826 31.584 16.9909 31.0218 17.0901 30.9143C17.611 30.0379 18.3303 30.1371 19.5126 30.4843L19.554 30.567C19.5126 30.9225 19.4465 31.3029 19.5705 31.493C19.587 31.7493 19.2894 32.0139 19.215 32.1131C19.1736 32.4935 18.3055 33.2459 17.8838 33.5352C17.52 33.7833 17.3464 34.3207 16.7842 34.3124C16.6932 33.9652 16.2467 34.0396 16.0731 33.8412C15.6928 33.4195 15.3538 33.097 14.9404 32.7663C14.9652 32.7084 15.1554 32.0801 15.1305 32.0387L15.0892 31.956L14.9156 32.6175L14.6345 32.4769L14.5849 32.6754C15.0727 32.8325 15.1802 33.5104 15.8085 33.6345L15.7176 33.7502L15.7755 33.7668C15.7755 33.7668 16.5609 34.3373 16.6767 34.4943C16.6105 34.6018 16.6519 34.5522 16.5857 34.6101C16.503 34.6432 16.47 34.6349 16.3294 34.6101C16.1889 34.4613 15.9325 34.4613 15.7589 34.3207L15.7424 34.3869L15.8003 34.4034C15.792 34.5357 15.6928 34.4282 15.7672 34.5357C15.8581 34.6432 16.0896 34.701 16.2881 34.7424C16.2302 34.8912 16.1641 35.04 16.1062 35.1889C15.7093 35.0896 14.7668 36.2224 14.188 36.3877C13.9565 36.4539 13.1297 36.2224 13.0635 36.0239C12.923 36.0405 12.9891 36.1397 12.8899 36.1893C12.7328 36.1645 12.0052 35.8668 11.7324 35.9578C12.3442 36.0983 14.0557 36.3299 14.0392 36.7019C14.0061 36.7598 13.9896 36.7185 14.0226 36.7681L14.064 36.8507C14.2045 36.3629 15.4778 35.8668 15.8912 35.4865L15.9491 35.503C16.007 35.379 15.8664 35.4286 15.9822 35.3708C16.255 35.1723 16.3708 35.1227 16.7924 35.2302C16.5444 35.8007 16.379 37.2476 16.0235 37.9339L15.9243 37.8346L15.9077 37.9008L15.9491 37.9835C16.0648 37.9587 16.1062 37.8346 16.1475 37.9669C16.2385 38.0992 16.2467 38.1488 16.2385 38.3473L16.2963 38.3638L16.346 38.1654C16.131 37.7768 16.9082 35.0979 17.4125 35.04C17.7433 34.9243 20.2733 34.3455 21.067 35.5609C21.1662 35.7097 21.4721 35.6767 21.4804 35.9495C21.4721 36.0983 21.2158 36.5448 21.0339 36.6854C20.3394 37.1401 19.4795 37.0326 18.785 36.4539L18.7685 36.52C18.9669 36.6771 19.4878 36.9582 19.5457 37.2228L19.4217 37.1897C19.124 37.4295 18.537 37.4874 18.1649 37.5701L18.1484 37.6362L18.2724 37.6693C18.6693 37.4708 20.5379 36.95 21.0009 37.0326L21.0257 36.9748Z" stroke="white" stroke-width="0.5"/>
<path d="M13.0635 31.2946C13.1462 31.1954 13.1379 31.2202 13.1131 31.0962L13.0635 31.2946Z" stroke="white" stroke-width="0.5"/>
<path d="M15.5357 21.8111C15.6101 21.9104 15.5688 21.8938 15.6845 21.993L15.7011 21.9269C15.577 21.7946 15.668 21.6458 15.5357 21.8111Z" stroke="white" stroke-width="0.5"/>
<path d="M13.171 31.3938H13.4273C13.4273 31.3938 13.3612 31.4682 13.3364 31.5096L13.3943 31.5261C13.4687 31.4848 13.4191 31.5096 13.5348 31.493C13.4852 31.4269 13.5265 31.4682 13.4356 31.3938C13.3446 31.2615 13.3364 31.3442 13.2289 31.1954L13.1793 31.3938H13.171Z" stroke="white" stroke-width="0.5"/>
<path d="M14.1218 27.7476C14.2872 27.7889 14.1632 27.7476 14.3451 27.8799C14.3699 27.822 14.5518 27.5822 14.5518 27.5822C14.3864 27.5492 14.2872 27.5822 14.1218 27.7559V27.7476Z" stroke="white" stroke-width="0.5"/>
<path d="M15.6101 22.2576L15.7341 22.2907C15.668 22.4312 15.6597 22.3486 15.6845 22.4891L15.7176 22.3568C15.7424 22.299 15.7755 22.2163 15.7258 22.0757L15.6101 22.2576Z" stroke="white" stroke-width="0.5"/>
<path d="M15.6432 22.6214L15.792 22.8033C15.7259 22.6297 15.7341 22.6379 15.6432 22.6214Z" stroke="white" stroke-width="0.5"/>
<path d="M12.9312 33.312C13.0387 33.2045 13.1462 32.9234 13.2041 32.7498L13.1049 32.6506L13.0718 32.7829C13.0883 32.8903 13.0057 33.0722 12.9312 33.312Z" stroke="white" stroke-width="0.5"/>
<path d="M14.4443 27.4748C14.7089 27.4334 14.8825 27.3011 15.0809 27.0035L15.1802 27.1027L15.1967 27.0366L15.2546 27.0531L15.2132 26.9704C15.0479 27.0779 14.7254 27.2019 14.436 27.4748H14.4443Z" stroke="white" stroke-width="0.5"/>
<path d="M15.4613 23.564C15.5605 23.6301 15.9243 23.7541 15.9243 23.7541C16.0318 23.903 16.0152 23.9939 16.2137 24.1097L16.2467 23.9774L16.3046 23.9939L16.2633 23.9112C16.1889 23.9526 16.2385 23.9278 16.1227 23.9443C16.1227 23.8616 16.1062 23.5557 15.8747 23.6632C15.8168 23.5392 15.7672 23.101 15.7755 23.0679L15.8333 23.0844L15.792 23.0017C15.6597 23.2415 15.6514 23.3407 15.453 23.5557L15.4613 23.564Z" stroke="white" stroke-width="0.5"/>
<path d="M15.8416 22.1005C15.9243 22.0013 15.916 22.0261 15.8912 21.9021L15.8416 22.1005Z" stroke="white" stroke-width="0.5"/>
<path d="M12.4682 35.3212C12.584 35.4617 12.5923 35.5609 12.7576 35.6767L12.7741 35.6105L12.5013 35.1889L12.4682 35.3212Z" stroke="white" stroke-width="0.5"/>
<path d="M13.4356 31.6088L13.634 31.5923L13.5927 31.5096L13.4356 31.6088Z" stroke="white" stroke-width="0.5"/>
<path d="M14.3286 28.1527C14.4112 28.3181 14.436 28.5248 14.4278 28.748L14.4856 28.7646L14.5187 28.6323C14.4278 28.4339 14.4526 28.161 14.3699 27.9543L14.3203 28.1527H14.3286Z" stroke="white" stroke-width="0.5"/>
<path d="M15.6762 22.9852C15.7755 22.8943 15.8003 22.9439 15.7093 22.8529L15.6762 22.9852Z" stroke="white" stroke-width="0.5"/>
<path d="M15.9739 21.8525C16.0979 21.7533 16.1227 21.745 16.1062 21.6044L16.0731 21.7367C16.007 21.7946 16.0483 21.7533 15.9822 21.8525H15.9739Z" stroke="white" stroke-width="0.5"/>
<path d="M14.9156 26.3999L15.0396 26.433C14.9652 26.3255 15.0231 26.3834 14.9156 26.3999Z" stroke="white" stroke-width="0.5"/>
<path d="M16.1806 21.5548C16.3211 21.4556 16.3046 21.53 16.2963 21.3729L16.1806 21.5548Z" stroke="white" stroke-width="0.5"/>
<path d="M13.601 31.7163C13.7415 31.7576 13.7167 31.7742 13.8655 31.923L13.8821 31.8568C13.849 31.7742 13.9069 31.7163 13.8325 31.5592C13.7167 31.7659 13.7746 31.5426 13.601 31.708V31.7163Z" stroke="white" stroke-width="0.5"/>
<path d="M13.4191 32.6671C13.5183 32.5844 13.4687 32.6423 13.4521 32.5348L13.4191 32.6671Z" stroke="white" stroke-width="0.5"/>
<path d="M15.0809 26.5074L15.2794 26.4909C15.1553 26.4247 15.2298 26.4082 15.0809 26.5074Z" stroke="white" stroke-width="0.5"/>
<path d="M13.5762 32.5596C13.7663 32.5596 13.8077 32.5761 13.9317 32.4356L13.8738 32.4191C13.7829 32.4769 13.6754 32.4935 13.5844 32.5596H13.5762Z" stroke="white" stroke-width="0.5"/>
<path d="M13.9482 31.1044C14.0392 31.0052 14.0474 30.9721 14.0144 30.8399L13.9482 31.1044Z" stroke="white" stroke-width="0.5"/>
<path d="M12.832 35.9082L12.9561 35.9413C12.923 35.8917 12.9809 35.842 12.8568 35.842L12.8403 35.9082H12.832Z" stroke="white" stroke-width="0.5"/>
<path d="M15.4034 26.5239L15.3207 26.8547L15.3786 26.8712C15.5605 26.772 15.8251 26.7058 15.8829 26.648C15.9739 26.5653 16.0648 26.4743 16.0152 26.3999C15.8223 26.5432 15.6184 26.5846 15.4034 26.5239Z" stroke="white" stroke-width="0.5"/>
<path d="M13.9813 32.4604C14.1301 32.4191 14.0805 32.5017 14.1797 32.4439C14.064 32.295 14.097 32.4191 13.9813 32.4604Z" stroke="white" stroke-width="0.5"/>
<path d="M12.5757 38.6036L12.6997 38.6366L12.8486 38.3225L12.7907 38.3059L12.7741 38.3721C12.708 38.4217 12.6419 38.5292 12.584 38.6036H12.5757Z" stroke="white" stroke-width="0.5"/>
<path d="M14.1963 32.3695C14.3534 32.3943 14.3782 32.4935 14.4856 32.2289C14.2541 32.1628 14.403 32.2702 14.2624 32.0966L14.1963 32.3612V32.3695Z" stroke="white" stroke-width="0.5"/>
<path d="M17.0983 21.2241C17.2637 21.191 17.3795 21.1414 17.5696 21.1332C17.52 21.067 17.5614 21.1084 17.4704 21.0339C17.3464 21.1084 17.2141 21.1249 17.0983 21.2241Z" stroke="white" stroke-width="0.5"/>
<path d="M15.8168 26.6314L15.8499 26.4991L15.9078 26.5157C15.8416 26.6232 15.8829 26.5735 15.8168 26.6314Z" stroke="white" stroke-width="0.5"/>
<path d="M17.4043 20.5296C17.5696 20.6701 17.735 20.8355 17.859 21.0009L17.8921 20.8686L17.8342 20.852C17.7433 20.6867 17.5448 20.4965 17.4043 20.5296Z" stroke="white" stroke-width="0.5"/>
<path d="M12.8982 38.124L13.0222 38.1571C13.138 38.0413 13.1876 38.0331 13.2868 37.876C13.3529 37.8098 13.3364 37.8016 13.4191 37.6279C13.295 37.5949 13.386 37.6941 13.295 37.5949C13.295 37.5949 12.9478 38.0165 12.8982 38.1323V38.124Z" stroke="white" stroke-width="0.5"/>
<path d="M13.9565 34.2876C14.2707 34.3786 14.7171 34.5026 14.9569 34.4034C14.6758 34.3207 14.188 34.1967 13.9565 34.2876Z" stroke="white" stroke-width="0.5"/>
<path d="M14.2045 33.5766L14.3285 33.6097C14.2541 33.5022 14.312 33.5601 14.2045 33.5766Z" stroke="white" stroke-width="0.5"/>
<path d="M14.4856 32.5183C14.5683 32.4191 14.5601 32.4439 14.5352 32.3198L14.4856 32.5183Z" stroke="white" stroke-width="0.5"/>
<path d="M16.0152 26.6149L16.2881 26.5487C16.2881 26.4247 16.2881 26.4826 16.2633 26.3999C16.1971 26.5074 16.2385 26.4578 16.1723 26.5157C16.1723 26.3916 16.1723 26.4495 16.1475 26.3668C16.0896 26.5157 16.0814 26.5239 16.0152 26.6149Z" stroke="white" stroke-width="0.5"/>
<path d="M13.8821 35.3294C14.0722 35.255 14.9569 34.5688 14.9239 34.5357C14.5931 34.8168 14.2045 35.007 13.8821 35.3294Z" stroke="white" stroke-width="0.5"/>
<path d="M17.644 21.0836L17.7681 21.1166C17.6937 21.0091 17.7515 21.067 17.644 21.0836Z" stroke="white" stroke-width="0.5"/>
<path d="M13.2785 38.1488L13.4935 38.5622L13.51 38.4961C13.4108 38.2977 13.4439 38.1654 13.2785 38.1488Z" stroke="white" stroke-width="0.5"/>
<path d="M13.5927 37.1732L13.6919 37.2724C13.634 37.1319 13.5927 37.1732 13.5927 37.1732Z" stroke="white" stroke-width="0.5"/>
<path d="M13.6919 37.0574L13.7911 37.1567C13.7333 37.0161 13.6919 37.0574 13.6919 37.0574Z" stroke="white" stroke-width="0.5"/>
<path d="M13.7829 36.9334L13.8821 37.0326C13.8242 36.8921 13.7829 36.9334 13.7829 36.9334Z" stroke="white" stroke-width="0.5"/>
<path d="M15.1884 31.7824C15.2876 31.6832 15.3125 31.584 15.2711 31.4517L15.1884 31.7824Z" stroke="white" stroke-width="0.5"/>
<path d="M14.7171 33.8494C14.8494 33.8494 14.8329 33.866 14.9156 33.8329C14.7833 33.8329 14.7998 33.8164 14.7171 33.8494Z" stroke="white" stroke-width="0.5"/>
<path d="M15.2711 31.9395L15.4695 31.923C15.3455 31.8568 15.4199 31.8403 15.2711 31.9395Z" stroke="white" stroke-width="0.5"/>
<path d="M16.8751 26.2676L16.9082 26.1353L16.9661 26.1519C16.8999 26.2594 16.9413 26.2097 16.8751 26.2676Z" stroke="white" stroke-width="0.5"/>
<path d="M18.1567 21.3564L18.322 21.4721L18.3551 21.3399C18.2641 21.2737 18.2972 21.3151 18.2559 21.2406L18.198 21.2241L18.1649 21.3564H18.1567Z" stroke="white" stroke-width="0.5"/>
<path d="M14.9983 33.9983C15.1305 33.9983 15.114 34.0148 15.1967 33.9817C15.0644 33.9817 15.0809 33.9652 14.9983 33.9983Z" stroke="white" stroke-width="0.5"/>
<path d="M14.9983 34.4943L15.0975 34.5936C15.0396 34.453 14.9983 34.4943 14.9983 34.4943Z" stroke="white" stroke-width="0.5"/>
<path d="M18.3551 21.5548L18.3964 21.6375C18.413 21.7781 18.4874 21.5218 18.4874 21.5218C18.3716 21.5383 18.4295 21.5218 18.3468 21.5548H18.3551Z" stroke="white" stroke-width="0.5"/>
<path d="M15.2215 34.1223C15.4365 34.205 15.5274 34.3042 15.701 34.2463C15.4861 34.1636 15.3951 34.0644 15.2215 34.1223Z" stroke="white" stroke-width="0.5"/>
<path d="M18.5453 21.8194C18.752 21.8856 18.6775 22.1584 18.8429 22.3899L18.9091 22.1253L18.7437 22.0096C18.8677 21.8938 18.8594 21.9434 18.9504 21.7119L18.8512 21.6127L18.5453 21.8194Z" stroke="white" stroke-width="0.5"/>
<path d="M18.9752 20.1575C19.0827 20.3477 18.9091 20.3477 19.0662 20.5379L19.0827 20.4717C19.0496 20.2237 19.248 19.9756 19.0579 19.8268L18.9752 20.1575Z" stroke="white" stroke-width="0.5"/>
<path d="M14.3699 38.1488C14.5849 38.215 14.899 38.3142 15.0479 38.2563C14.8329 38.1902 14.5187 38.0909 14.3699 38.1488Z" stroke="white" stroke-width="0.5"/>
<path d="M15.3125 34.5026C15.4695 34.5357 15.5357 34.5522 15.6266 34.5026C15.4695 34.4695 15.4034 34.453 15.3125 34.5026Z" stroke="white" stroke-width="0.5"/>
<path d="M18.9091 20.9182C18.9504 21.0257 18.9504 21.1332 18.9421 21.282L19 21.2985L19.0496 21.1001C18.9835 20.9843 19.0165 20.7032 18.9008 20.9182H18.9091Z" stroke="white" stroke-width="0.5"/>
<path d="M19.0248 20.7363C19.124 20.6536 19.0744 20.7115 19.0579 20.604L19.0248 20.7363Z" stroke="white" stroke-width="0.5"/>
<path d="M14.403 39.0087C14.4526 38.9674 14.4939 39.0252 14.4939 38.893L14.436 38.8764L14.403 39.0087Z" stroke="white" stroke-width="0.5"/>
<path d="M18.6776 22.5553C18.7024 22.6131 18.7189 22.7206 18.7437 22.7868L18.7768 22.6545L18.9339 22.5553L18.876 22.5387C18.7933 22.6131 18.8429 22.5139 18.7106 22.423L18.6776 22.5553Z" stroke="white" stroke-width="0.5"/>
<path d="M19.0744 21.0339L19.3473 20.9678L19.3059 20.8851L19.0744 21.0339Z" stroke="white" stroke-width="0.5"/>
<path d="M18.5783 23.1671C18.6527 23.2498 18.5783 23.3655 18.6775 23.2663C18.7437 23.2002 18.752 23.1671 18.8098 23.0183C18.7768 22.9356 18.7933 22.9935 18.785 22.8695L18.7106 22.9191C18.6445 22.9852 18.6362 23.0183 18.5783 23.1671Z" stroke="white" stroke-width="0.5"/>
<path d="M14.5518 38.9095L14.7833 38.7607" stroke="white" stroke-width="0.5"/>
<path d="M18.5039 23.7128L18.6693 23.8285L18.752 23.4978L18.5866 23.3821L18.5039 23.7128Z" stroke="white" stroke-width="0.5"/>
<path d="M14.8081 38.6863L15.0065 38.6697L14.9652 38.587L14.8081 38.6863Z" stroke="white" stroke-width="0.5"/>
<path d="M18.9917 22.5718L19.1158 22.6049C19.0413 22.4974 19.0992 22.5553 18.9917 22.5718Z" stroke="white" stroke-width="0.5"/>
<path d="M15.0561 38.4713C15.1967 38.3969 15.1554 38.4382 15.2463 38.2398L15.1223 38.2067C15.1057 38.3721 15.1305 38.3225 15.0561 38.4713Z" stroke="white" stroke-width="0.5"/>
<path d="M19.1902 22.547C19.2894 22.4643 19.2398 22.5222 19.2232 22.4147L19.1902 22.547Z" stroke="white" stroke-width="0.5"/>
<path d="M19.7028 20.8438L19.8268 20.8768C19.7524 20.7694 19.8103 20.8272 19.7028 20.8438Z" stroke="white" stroke-width="0.5"/>
<path d="M19.3307 22.5139L19.4878 22.4147" stroke="white" stroke-width="0.5"/>
<path d="M15.2711 38.3886L15.577 38.1819C15.4199 38.0661 15.3207 38.339 15.2711 38.3886Z" stroke="white" stroke-width="0.5"/>
<path d="M19.5292 22.4974L19.7193 22.762C19.802 22.6793 19.5705 22.4891 19.5292 22.4974Z" stroke="white" stroke-width="0.5"/>
<path d="M15.5357 38.0992L15.6597 38.1323C15.6184 38.0083 15.6597 38.0413 15.5357 38.0992Z" stroke="white" stroke-width="0.5"/>
<path d="M19.6201 22.3816L19.7441 22.4147C19.6697 22.3072 19.7276 22.3651 19.6201 22.3816Z" stroke="white" stroke-width="0.5"/>
<path d="M19.8185 22.3568L19.9426 22.3899C19.8682 22.2824 19.926 22.3403 19.8185 22.3568Z" stroke="white" stroke-width="0.5"/>
<path d="M20.819 19.0083C20.9182 18.9256 20.8686 18.9835 20.852 18.876L20.819 19.0083Z" stroke="white" stroke-width="0.5"/>
<path d="M20.9182 19.1075C21.0257 19.0165 21.0505 19.0248 21.0339 18.9256L20.9182 19.1075Z" stroke="white" stroke-width="0.5"/>
<path d="M21.0836 19.215L21.2076 19.248C21.191 19.1571 21.1745 19.0909 21.1414 19.0165L21.0918 19.215H21.0836Z" stroke="white" stroke-width="0.5"/>
<path d="M16.2467 38.5705C16.2798 38.6532 16.2633 38.5953 16.2715 38.7193L16.3294 38.7359L16.379 38.5374L16.2963 38.3721L16.2467 38.5705Z" stroke="white" stroke-width="0.5"/>
<path d="M21.1332 20.0087L21.2903 19.9095" stroke="white" stroke-width="0.5"/>
<path d="M21.3068 19.3473L21.5052 19.3307L21.5218 19.2646C21.3647 19.2811 21.4143 19.2646 21.3068 19.3473Z" stroke="white" stroke-width="0.5"/>
<path d="M16.2633 39.0004C16.3625 38.9095 16.3873 38.9591 16.2963 38.8681L16.2633 39.0004Z" stroke="white" stroke-width="0.5"/>
<path d="M16.2715 39.2154L16.3956 39.2485C16.3294 39.389 16.3212 39.3064 16.346 39.4469C16.4204 39.4056 16.3708 39.4304 16.4865 39.4138L16.5031 39.3477C16.4782 39.2898 16.4617 39.1823 16.4369 39.1162L16.3956 39.0335L16.379 39.0997C16.3129 39.1575 16.3542 39.1162 16.2881 39.2154H16.2715Z" stroke="white" stroke-width="0.5"/>
<path d="M21.3068 19.8433L21.6954 19.587C21.8856 19.5457 21.8194 19.6945 21.9352 19.6532C21.9021 19.5705 21.9186 19.6284 21.9104 19.5044L21.7285 19.4547C21.5879 19.587 21.4474 19.7111 21.3068 19.8433Z" stroke="white" stroke-width="0.5"/>
<path d="M21.4722 19.463L21.6706 19.4465C21.5466 19.3803 21.621 19.3638 21.4722 19.463Z" stroke="white" stroke-width="0.5"/>
<path d="M16.3046 39.5792C16.3542 39.6867 16.3542 39.7198 16.3542 39.8769L16.4121 39.8934L16.4452 39.7611C16.4204 39.6784 16.4286 39.6867 16.4369 39.5461C16.3211 39.5627 16.379 39.5461 16.2963 39.5792H16.3046Z" stroke="white" stroke-width="0.5"/>
<path d="M16.3708 40.0836L16.5196 40.2655C16.5775 40.1993 16.4286 39.9926 16.4121 39.9513L16.379 40.0836H16.3708Z" stroke="white" stroke-width="0.5"/>
<path d="M16.5527 39.356C16.6932 39.3808 16.7263 39.389 16.809 39.356C16.6684 39.3312 16.6353 39.3229 16.5527 39.356Z" stroke="white" stroke-width="0.5"/>
<path d="M22.2824 17.8259C22.3651 17.7267 22.3568 17.7515 22.332 17.6275L22.2824 17.8259Z" stroke="white" stroke-width="0.5"/>
<path d="M22.2907 18.0409C22.3155 18.0988 22.332 18.2063 22.3568 18.2724L22.3982 18.3551L22.4147 18.2889C22.3734 18.1815 22.4147 17.7846 22.2824 18.0409H22.2907Z" stroke="white" stroke-width="0.5"/>
<path d="M16.842 39.5048C17.0239 39.5627 17.2224 39.6123 17.3381 39.5627C17.1562 39.5048 16.9578 39.4552 16.842 39.5048Z" stroke="white" stroke-width="0.5"/>
<path d="M22.2907 18.537L22.4147 18.5701C22.3486 18.7272 22.3816 18.6197 22.3486 18.8346L22.4064 18.8512C22.4478 18.6941 22.4726 18.6031 22.4312 18.5039C22.5387 18.4378 22.795 18.3634 22.6958 18.2228C22.5139 18.446 22.3816 18.4047 22.2907 18.5453V18.537Z" stroke="white" stroke-width="0.5"/>
<path d="M22.0178 19.8103C22.2328 19.8681 22.2163 19.926 22.4643 20.0666L22.4974 19.9343C22.4808 19.8185 22.4974 19.926 22.547 19.7359L22.4891 19.7193C22.332 19.8268 22.2328 19.6862 22.0178 19.8103Z" stroke="white" stroke-width="0.5"/>
<path d="M22.3486 19.0496C22.3816 19.1323 22.3651 19.0744 22.3734 19.1984L22.4312 19.215L22.4643 19.0827C22.3568 19.0165 22.4395 18.9587 22.3403 19.0496H22.3486Z" stroke="white" stroke-width="0.5"/>
<path d="M22.7702 18.1649L23.0762 17.9582" stroke="white" stroke-width="0.5"/>
<path d="M22.0674 21.1001C22.2741 21.0174 22.3568 21.0422 22.456 20.8438L22.3568 20.7446L22.3403 20.8107C22.3816 20.852 22.1749 20.9761 22.0757 21.0918H22.0674V21.1001Z" stroke="white" stroke-width="0.5"/>
<path d="M22.4726 20.7859L22.6297 20.6867" stroke="white" stroke-width="0.5"/>
<path d="M22.8529 20.3146C22.9439 20.4056 22.9356 20.4221 23.0596 20.5131L23.134 20.4634L23.1506 20.3973C22.9687 20.3394 22.9191 20.2981 22.8529 20.3229V20.3146Z" stroke="white" stroke-width="0.5"/>
<path d="M22.1088 24.1593C22.208 24.0766 22.1584 24.1345 22.1419 24.027L22.1088 24.1593Z" stroke="white" stroke-width="0.5"/>
<path d="M23.349 19.3803C23.4482 19.2977 23.3986 19.3555 23.3821 19.248L23.349 19.3803Z" stroke="white" stroke-width="0.5"/>
<path d="M23.3077 19.7937C23.473 19.7937 23.6467 19.7772 23.7789 19.7028L23.597 19.6532C23.5061 19.7111 23.3986 19.7276 23.3077 19.7937Z" stroke="white" stroke-width="0.5"/>
<path d="M23.1754 20.5379L23.2994 20.5709L23.3325 20.4386L23.2084 20.4056L23.1754 20.5379Z" stroke="white" stroke-width="0.5"/>
<path d="M23.4565 19.4795C23.5557 19.3969 23.5061 19.4547 23.4896 19.3473L23.4565 19.4795Z" stroke="white" stroke-width="0.5"/>
<path d="M23.8864 18.8098L24.0104 18.8429C23.936 18.7354 23.9939 18.7933 23.8864 18.8098Z" stroke="white" stroke-width="0.5"/>
<path d="M24.3329 17.0901C24.5148 17.148 24.7132 17.1976 24.829 17.148C24.6471 17.0901 24.4487 17.0405 24.3329 17.0901Z" stroke="white" stroke-width="0.5"/>
<path d="M24.5892 16.0896C24.7546 16.1393 24.8372 16.346 24.9034 16.594L24.9778 16.5444C25.0109 16.4865 25.0274 16.5279 24.9943 16.4782C24.862 16.4204 24.8372 16.1227 24.614 15.9574L24.5809 16.0896H24.5892Z" stroke="white" stroke-width="0.5"/>
<path d="M23.5061 20.7694C23.6466 20.7694 23.6136 20.8107 23.7045 20.7528C23.5805 20.6205 23.6384 20.7115 23.5061 20.7694Z" stroke="white" stroke-width="0.5"/>
<path d="M23.9691 18.9752C24.0683 19.1158 24.4404 19.5953 24.4486 19.5953C24.1841 19.4547 24.3164 18.8346 23.9691 18.9752Z" stroke="white" stroke-width="0.5"/>
<path d="M23.8037 19.8516C23.903 19.7689 23.8533 19.8268 23.8368 19.7193L23.8037 19.8516Z" stroke="white" stroke-width="0.5"/>
<path d="M23.9278 19.8847L24.0766 20.0666C24.0766 20.0666 24.0022 19.7111 23.9278 19.8847Z" stroke="white" stroke-width="0.5"/>
<path d="M23.7128 20.9595L23.8368 20.9926L23.8864 20.7942L23.7624 20.7611L23.7128 20.9595Z" stroke="white" stroke-width="0.5"/>
<path d="M24.1345 20.0831C24.2254 20.1741 24.2171 20.1906 24.3412 20.2816L24.3577 20.2154C24.2171 20.141 24.2171 20.017 24.1345 20.0831Z" stroke="white" stroke-width="0.5"/>
<path d="M24.8703 17.2306L24.9944 17.2637C24.9199 17.1562 24.9778 17.2141 24.8703 17.2306Z" stroke="white" stroke-width="0.5"/>
<path d="M25.0357 16.842C25.1762 17.0074 25.2341 17.1728 25.2755 17.4043C25.3664 17.3629 25.3003 17.3299 25.3664 17.2885L25.5152 17.4704L25.0853 16.6519C25.0853 16.7842 25.1514 16.7511 25.0357 16.8503V16.842Z" stroke="white" stroke-width="0.5"/>
<path d="M25.0522 17.272L25.1762 17.305C25.1018 17.1976 25.1597 17.2554 25.0522 17.272Z" stroke="white" stroke-width="0.5"/>
<path d="M24.366 20.4221C24.4652 20.3394 24.4156 20.3973 24.399 20.2898L24.366 20.4221Z" stroke="white" stroke-width="0.5"/>
<path d="M24.6057 19.4961C24.7463 19.3638 24.9034 18.752 24.8455 18.5701L24.6057 19.4961Z" stroke="white" stroke-width="0.5"/>
<path d="M24.5809 19.8433C24.6636 19.7441 24.6553 19.7689 24.6305 19.6449L24.5809 19.8433Z" stroke="white" stroke-width="0.5"/>
<path d="M24.4652 20.5213L24.5644 20.6205L24.6554 20.5048C24.6554 20.5048 24.4735 20.5131 24.4569 20.5213H24.4652Z" stroke="white" stroke-width="0.5"/>
<path d="M25.4243 17.5862L25.6145 17.8507C25.6971 17.7681 25.4656 17.5779 25.4243 17.5862Z" stroke="white" stroke-width="0.5"/>
<path d="M25.6723 17.859L25.8294 18.2559C25.8625 18.2063 25.7964 17.7433 25.6723 17.859Z" stroke="white" stroke-width="0.5"/>
<path d="M26.2511 17.8673L26.3503 17.9665C26.3503 17.8425 26.309 17.7267 26.2511 17.8673Z" stroke="white" stroke-width="0.5"/>
<path d="M26.3586 17.6854C26.4991 17.611 26.5487 17.52 26.6397 17.3381L26.5818 17.3216L26.5653 17.3877C26.4991 17.4456 26.4082 17.611 26.3586 17.6854Z" stroke="white" stroke-width="0.5"/>
<path d="M26.6149 17.181C26.8133 17.2472 26.681 17.0901 26.9208 16.9743C26.9869 16.9413 27.2763 16.9909 27.45 16.8999L27.2681 16.8503C27.1936 16.8916 27.0779 16.8999 26.9952 16.9164L27.0614 16.6519C27.0448 16.47 27.5078 16.007 27.45 15.8995C27.0531 16.4286 26.9291 16.6932 26.6066 17.1645V17.181H26.6149Z" stroke="white" stroke-width="0.5"/>
<path d="M27.5244 16.9247C27.698 16.9743 27.8551 17.0157 27.9626 16.9661C27.7889 16.9164 27.6319 16.8751 27.5244 16.9247Z" stroke="white" stroke-width="0.5"/>
<path d="M21.067 42.5144C21.1662 42.597 21.1993 42.6466 21.3316 42.7211L21.3481 42.6549L21.2241 42.6218C21.1414 42.5061 21.158 42.4813 21.0587 42.5061H21.067V42.5144Z" stroke="white" stroke-width="0.5"/>
<path d="M27.483 18.0492C27.5988 18.1732 27.7145 18.2972 27.8386 18.4212L27.8551 18.3551L27.7972 18.3386C27.7228 18.1649 27.6319 18.0244 27.4913 18.0492H27.483Z" stroke="white" stroke-width="0.5"/>
<path d="M20.8768 43.738C21.0339 43.7215 20.9843 43.738 21.0918 43.6554C21.1249 43.5975 21.1414 43.6388 21.1084 43.5892C21.0339 43.6306 21.0835 43.6057 20.9678 43.6223L20.9843 43.5561L21.0422 43.5727L21.4143 43.3825C21.2737 43.2502 20.9347 43.6471 20.8768 43.738Z" stroke="white" stroke-width="0.5"/>
<path d="M21.2324 43.3329C21.3977 43.2998 21.4887 43.3329 21.5879 43.2089L21.6623 43.1593C21.5714 43.0601 21.3481 43.2171 21.2324 43.3329Z" stroke="white" stroke-width="0.5"/>
<path d="M21.3729 42.8037C21.5052 42.8037 21.4887 42.8203 21.5714 42.7872C21.4391 42.7872 21.4556 42.7707 21.3729 42.8037Z" stroke="white" stroke-width="0.5"/>
<path d="M27.3342 20.3477C27.4417 20.265 27.3921 20.2816 27.5492 20.265L27.5326 20.3312L27.4748 20.3146C27.4003 20.356 27.45 20.3312 27.3342 20.3477Z" stroke="white" stroke-width="0.5"/>
<path d="M27.8055 18.5535L27.8468 18.6362C27.8634 18.7768 27.9378 18.5205 27.9378 18.5205C27.822 18.537 27.8799 18.5205 27.7972 18.5535H27.8055Z" stroke="white" stroke-width="0.5"/>
<path d="M21.5962 42.936C21.6871 43.0022 21.654 42.9608 21.6954 43.0352C21.8111 43.0187 21.7533 43.0352 21.8359 43.0022C21.9434 42.9608 22.1749 42.8864 22.084 42.7872C21.9186 42.9195 21.9848 42.812 21.8111 42.8534L21.8525 42.936C21.9517 43.0187 21.7119 42.9691 21.7119 42.9691C21.6375 42.8616 21.6954 42.9195 21.5879 42.936H21.5962Z" stroke="white" stroke-width="0.5"/>
<path d="M22.0096 41.3403C22.1088 41.423 22.1419 41.4726 22.2742 41.547L22.2907 41.4809L22.1667 41.4478C22.084 41.332 22.1005 41.3072 22.0013 41.332H22.0096V41.3403Z" stroke="white" stroke-width="0.5"/>
<path d="M28.0453 18.6197C28.1445 18.537 28.0949 18.5949 28.0783 18.4874L28.0453 18.6197Z" stroke="white" stroke-width="0.5"/>
<path d="M28.1114 18.3551C28.2437 18.2393 28.376 17.7267 28.3181 17.5614L28.1114 18.3551Z" stroke="white" stroke-width="0.5"/>
<path d="M22.4064 42.7872C22.4726 43.0104 22.3734 43.366 22.456 43.5809L22.5056 43.3825C22.4891 43.3081 22.4974 42.597 22.4064 42.7872Z" stroke="white" stroke-width="0.5"/>
<path d="M28.4917 19.8681C28.6158 19.802 28.5661 19.8433 28.6654 19.7028L28.6075 19.6862L28.5909 19.7524C28.5248 19.8103 28.5661 19.7689 28.5 19.8681H28.4917Z" stroke="white" stroke-width="0.5"/>
<path d="M22.3486 43.9778C22.3899 44.1184 22.3486 44.3499 22.4064 44.4904L22.4726 44.2259C22.3899 43.9943 22.5222 43.9695 22.3816 43.8455L22.3486 43.9778Z" stroke="white" stroke-width="0.5"/>
<path d="M22.3403 44.755C22.423 44.6558 22.4147 44.6806 22.3899 44.5566L22.3403 44.755Z" stroke="white" stroke-width="0.5"/>
<path d="M22.547 43.9613C22.6958 44.0936 22.7537 44.1845 22.9769 44.2837L22.9935 44.2176L22.8695 44.1845C22.7868 44.0522 22.6131 43.9365 22.547 43.9613Z" stroke="white" stroke-width="0.5"/>
<path d="M28.839 19.7441L29.2193 19.7689L29.4508 19.6201C29.3929 19.4878 29.426 19.5374 29.3516 19.5209L29.3929 19.6036L29.2689 19.5705C29.178 19.4878 29.2441 19.6284 29.087 19.5209L29.0705 19.587L29.1118 19.6697L28.9878 19.6366L29.0044 19.5705L28.9299 19.6201C28.8638 19.678 28.9051 19.6366 28.839 19.7359V19.7441Z" stroke="white" stroke-width="0.5"/>
<path d="M23.2581 41.7372C23.3655 41.6545 23.3159 41.671 23.473 41.6545L23.4565 41.7206L23.3986 41.7041C23.3242 41.7454 23.3738 41.7206 23.2581 41.7372Z" stroke="white" stroke-width="0.5"/>
<path d="M29.3185 19.8681C29.5748 20.017 29.6493 20.2237 29.8146 20.4221L29.8312 20.356C29.7071 20.1823 29.5831 20.0087 29.4508 19.8351C29.3351 19.8516 29.393 19.8351 29.3103 19.8681H29.3185Z" stroke="white" stroke-width="0.5"/>
<path d="M23.0183 44.3664L23.1423 44.3995C23.0679 44.292 23.1258 44.3499 23.0183 44.3664Z" stroke="white" stroke-width="0.5"/>
<path d="M29.6245 19.4547L29.7485 19.4878C29.6741 19.3803 29.7319 19.4382 29.6245 19.4547Z" stroke="white" stroke-width="0.5"/>
<path d="M29.9552 19.3969L30.0792 19.4299C30.0048 19.3225 30.0627 19.3803 29.9552 19.3969Z" stroke="white" stroke-width="0.5"/>
<path d="M23.6714 44.8211C24.0435 44.8956 24.2667 44.7881 24.5809 44.7715L24.5148 45.0361C24.4156 45.1188 24.3164 45.2759 24.2337 45.3834L24.2916 45.3999L24.3081 45.3338C24.6305 45.1105 24.6884 44.6889 24.7546 44.5979L24.7711 44.5318C24.8951 44.5318 24.7876 44.6475 24.8951 44.5648C24.8207 44.4408 24.9778 44.5152 24.8703 44.416C24.49 44.7881 24.1427 44.6144 23.6797 44.8129H23.6714V44.8211Z" stroke="white" stroke-width="0.5"/>
<path d="M23.7624 45.9704L23.9195 45.8712" stroke="white" stroke-width="0.5"/>
<path d="M23.8699 45.7885L23.9939 45.8216C23.9195 45.7141 23.9774 45.772 23.8699 45.7885Z" stroke="white" stroke-width="0.5"/>
<path d="M24.027 45.6893C24.1345 45.5983 24.1593 45.6066 24.1427 45.5074L24.027 45.6893Z" stroke="white" stroke-width="0.5"/>
<path d="M24.9447 44.3664L25.0688 44.3995L25.0274 44.3168L24.9861 44.2341L24.953 44.3664H24.9447Z" stroke="white" stroke-width="0.5"/>
<path d="M25.0605 44.1845L25.1597 44.2837C25.1018 44.1432 25.0605 44.1845 25.0605 44.1845Z" stroke="white" stroke-width="0.5"/>
<path d="M31.1954 21.067C31.3938 21.1249 31.6253 21.191 31.7576 21.1414C31.5592 21.0836 31.3277 21.0174 31.1954 21.067Z" stroke="white" stroke-width="0.5"/>
<path d="M25.6475 44.1266L25.7963 44.3085C25.9204 44.1597 25.8129 44.0522 25.6475 44.1266Z" stroke="white" stroke-width="0.5"/>
<path d="M31.1871 22.8364C31.2863 22.7537 31.2367 22.8116 31.2202 22.7041L31.1871 22.8364Z" stroke="white" stroke-width="0.5"/>
<path d="M31.9147 20.265C32.1214 20.265 31.9974 20.3229 32.1297 20.1823L32.0718 20.1658L32.0305 20.0831L32.0139 20.1493C31.9478 20.2071 31.9891 20.1658 31.923 20.265H31.9147Z" stroke="white" stroke-width="0.5"/>
<path d="M31.3359 22.7289C31.7907 22.8364 31.8651 22.9935 32.1297 23.1506L32.1462 23.0844C31.9395 22.5139 32.3612 22.1253 32.3198 21.9269L32.0883 22.0757L32.047 21.993C32.1131 21.8525 32.1214 21.9352 32.0966 21.7946L32.0635 21.9269L32.0056 21.9104C32.0222 22.2493 32.0553 22.4726 31.9643 22.8198C31.7576 22.7537 31.4848 22.671 31.3442 22.7289H31.3359Z" stroke="white" stroke-width="0.5"/>
<path d="M31.923 20.4717L32.047 20.5048C31.9808 20.6784 31.9478 20.7611 32.0057 20.9182L32.0387 20.7859C32.0387 20.7859 32.0883 20.5296 32.0635 20.4386C32.0139 20.3725 32.0553 20.4138 31.9643 20.3394L31.9312 20.4717H31.923Z" stroke="white" stroke-width="0.5"/>
<path d="M25.7633 44.4408L25.9121 44.6227C26.0361 44.4739 25.9286 44.3664 25.7633 44.4408Z" stroke="white" stroke-width="0.5"/>
<path d="M31.9312 21.1828C32.0801 21.2985 31.9726 21.3729 32.1131 21.2324C32.0057 21.0587 32.1131 21.1084 32.0635 20.9347L32.0305 21.067C31.9643 21.1249 32.0057 21.0836 31.9395 21.1828H31.9312Z" stroke="white" stroke-width="0.5"/>
<path d="M26.8216 41.1005L26.8629 41.1832C26.8795 41.3238 26.9539 41.0674 26.9539 41.0674C26.8381 41.084 26.896 41.0674 26.8133 41.1005H26.8216Z" stroke="white" stroke-width="0.5"/>
<path d="M26.1601 45.3916C26.2924 45.3916 26.2759 45.4082 26.3586 45.3751C26.3007 45.2428 26.0527 44.5979 25.9534 44.7054L26.0113 44.7219L25.9204 44.8377L25.9782 44.8542C26.0361 44.9286 26.0278 44.8956 26.1436 44.97V45.1849C26.1436 45.1849 26.0857 45.1188 26.0527 45.0857L26.0361 45.1519C26.1849 45.2842 26.1767 45.1105 26.1684 45.3999H26.1601V45.3916Z" stroke="white" stroke-width="0.5"/>
<path d="M26.9869 41.2163C27.2846 41.332 27.7063 41.6131 27.7559 41.7041C27.7807 41.7702 27.7724 41.9025 27.7889 42.0679L27.8634 42.0183C27.8964 41.9604 27.913 42.0017 27.8799 41.9521L27.8055 42.0017L27.8385 41.8695C27.9874 41.795 27.8137 41.7785 27.9956 41.7702C28.4256 41.6297 29.1201 42.1092 29.3268 41.8364C29.2359 41.7702 29.2689 41.8116 29.2276 41.7372C28.1941 41.9521 27.6318 41.3982 27.02 41.0923L26.9869 41.2245V41.2163Z" stroke="white" stroke-width="0.5"/>
<path d="M26.1849 45.5405C26.3668 45.7637 26.3999 46.0448 26.6479 46.2267L26.6645 46.1606C26.4247 45.8795 26.3586 45.4413 26.1849 45.5405Z" stroke="white" stroke-width="0.5"/>
<path d="M32.171 23.2332C31.9643 23.2332 32.0883 23.1754 31.9561 23.3159L32.0801 23.349L32.1214 23.4317L32.171 23.2332Z" stroke="white" stroke-width="0.5"/>
<path d="M31.9643 23.5309C32.1545 23.5805 32.1628 23.5144 32.1628 23.5144C32.1132 23.4151 31.9643 23.5309 31.9643 23.5309Z" stroke="white" stroke-width="0.5"/>
<path d="M26.3916 45.2428C26.5322 45.2676 26.5653 45.2759 26.648 45.2428C26.5074 45.218 26.4743 45.2097 26.3916 45.2428Z" stroke="white" stroke-width="0.5"/>
<path d="M31.9561 23.812C32.1628 23.812 32.0387 23.8699 32.171 23.7293L31.9891 23.6797L31.9561 23.812Z" stroke="white" stroke-width="0.5"/>
<path d="M32.4769 21.8194L32.601 21.8525C32.5265 21.745 32.5844 21.8029 32.4769 21.8194Z" stroke="white" stroke-width="0.5"/>
<path d="M32.5679 21.7037L32.6919 21.7367C32.6506 21.6127 32.6919 21.6458 32.5679 21.7037Z" stroke="white" stroke-width="0.5"/>
<path d="M32.7415 21.5383C32.8573 21.6706 32.9151 21.4804 32.8986 21.4391L32.7415 21.5383Z" stroke="white" stroke-width="0.5"/>
<path d="M26.7058 45.2511C26.9373 45.309 27.0696 45.3172 27.2184 45.2511C27.2515 45.1932 27.2681 45.2346 27.235 45.1849C27.0944 45.2511 26.8547 45.1849 26.7058 45.2594V45.2511Z" stroke="white" stroke-width="0.5"/>
<path d="M33.064 21.2654C33.097 21.3481 33.0805 21.2903 33.0888 21.4143L33.1466 21.4308C33.1466 21.3481 33.1549 21.1001 33.064 21.2654Z" stroke="white" stroke-width="0.5"/>
<path d="M33.2376 21.1001C33.4526 21.0753 33.7585 20.8107 33.7337 20.6619C33.5849 20.8355 33.403 20.9595 33.2376 21.1001Z" stroke="white" stroke-width="0.5"/>
<path d="M27.8138 42.2167L27.9791 42.3325L27.9956 42.2663C27.8303 42.1836 27.9874 42.1258 27.8138 42.2167Z" stroke="white" stroke-width="0.5"/>
<path d="M33.2293 21.3812C33.436 21.4473 33.7089 21.53 33.8494 21.4721C33.6427 21.406 33.3699 21.3233 33.2293 21.3812Z" stroke="white" stroke-width="0.5"/>
<path d="M27.5574 43.705C27.7228 43.6306 27.8468 43.4569 27.7972 43.275C27.7228 43.4735 27.6567 43.5727 27.5574 43.705Z" stroke="white" stroke-width="0.5"/>
<path d="M27.8882 42.44L28.1197 42.7872C27.9957 42.6549 28.0949 42.3903 27.8882 42.44Z" stroke="white" stroke-width="0.5"/>
<path d="M27.9791 42.8203C27.9295 43.0022 27.9047 43.1262 27.9378 43.2337C27.9956 43.0601 28.0205 43.0187 28.0866 42.9195L28.1858 43.0187L28.2024 42.9526L28.1445 42.936C28.0949 42.8699 28.0949 42.8782 27.9791 42.8203Z" stroke="white" stroke-width="0.5"/>
<path d="M28.0949 43.1345C28.2437 43.2502 28.1362 43.3246 28.2768 43.1841C28.1031 43.1345 28.2106 43.1014 28.0949 43.1345Z" stroke="white" stroke-width="0.5"/>
<path d="M28.2023 43.4487C28.3181 43.6884 28.3016 44.0026 28.4504 44.2176L28.4669 44.1514C28.4173 44.0357 28.3098 43.2998 28.2023 43.4487Z" stroke="white" stroke-width="0.5"/>
<path d="M29.2855 41.7454C29.4426 41.6462 29.6245 41.423 29.5996 41.2576L29.5666 41.3899C29.4426 41.4726 29.3681 41.5718 29.2855 41.7372V41.7454Z" stroke="white" stroke-width="0.5"/>
<path d="M29.3516 41.9769C29.5997 41.9935 29.856 42.01 30.104 42.0348C30.0544 41.9687 30.0957 42.01 30.0048 41.9356C29.8064 42.0183 29.5252 41.9025 29.3847 41.8447L29.3516 41.9769Z" stroke="white" stroke-width="0.5"/>
<path d="M34.5936 21.8029C34.6845 21.8938 34.6762 21.9104 34.8003 22.0013L34.8168 21.9352L34.7589 21.9186C34.6762 21.8029 34.6928 21.7781 34.5936 21.8029Z" stroke="white" stroke-width="0.5"/>
<path d="M29.6823 41.208C29.7815 41.1253 29.7319 41.1832 29.7154 41.0757L29.6823 41.208Z" stroke="white" stroke-width="0.5"/>
<path d="M34.8251 22.1501L34.9904 22.2659C34.9326 22.423 34.9408 22.2907 34.9408 22.4643C35.0483 22.5718 35.0235 22.5883 35.2054 22.671C35.1971 22.5222 35.2385 22.5553 35.1971 22.456C35.0566 22.4974 35.0814 22.4643 34.9574 22.3899C35.0152 22.2328 35.007 22.3651 35.007 22.1915C34.8747 22.1336 34.9574 22.1171 34.8251 22.1419V22.1501Z" stroke="white" stroke-width="0.5"/>
<path d="M33.9983 26.8216C34.2215 26.9787 34.8829 27.3342 35.0318 27.3011L35.0896 27.3177L35.0483 27.235C34.9739 27.2763 35.0235 27.2515 34.9077 27.2681L34.9243 27.2019C35.04 27.1192 35.3294 26.8464 35.2881 26.7968L35.2715 26.8629L35.1723 26.7637L35.1558 26.8299L35.0979 26.8133L35.1227 26.9621L35.0648 26.9456C34.9904 26.9869 35.04 26.9621 34.9243 26.9787L35.0152 26.8629L34.9574 26.8464C34.8416 27.0035 34.9822 26.9787 34.7837 27.0117C34.668 26.8547 34.1057 26.7058 33.9983 26.805V26.8216Z" stroke="white" stroke-width="0.5"/>
<path d="M35.3956 21.4473C35.4948 21.3481 35.5196 21.2489 35.4782 21.1166L35.3956 21.4473Z" stroke="white" stroke-width="0.5"/>
<path d="M34.9243 23.5226C35.0896 23.5392 34.9904 23.5888 35.0814 23.4234C35.0483 23.2994 35.131 22.9852 35.0979 22.8612L34.9243 23.5226Z" stroke="white" stroke-width="0.5"/>
<path d="M35.2137 22.3899C35.346 22.2742 35.4782 21.7615 35.4204 21.5962L35.2137 22.3899Z" stroke="white" stroke-width="0.5"/>
<path d="M35.1806 24.0104C35.1806 24.0104 35.4369 23.903 35.2963 23.8285C35.2963 23.8285 35.2054 23.9443 35.1806 24.0104Z" stroke="white" stroke-width="0.5"/>
<path d="M35.3459 23.8451C35.4038 23.8203 35.4121 23.903 35.5444 23.8285C35.4534 23.688 35.4452 23.7789 35.3459 23.8451Z" stroke="white" stroke-width="0.5"/>
<path d="M35.5609 23.7624L35.6601 23.8616C35.6023 23.7211 35.5609 23.7624 35.5609 23.7624Z" stroke="white" stroke-width="0.5"/>
<path d="M35.9164 23.6384C36.057 23.6963 35.9661 23.6715 36.1562 23.7045L36.1149 23.6218C36.0157 23.5392 36.2554 23.5888 36.2554 23.5888C36.4787 23.8782 36.8342 23.4978 36.8259 23.3821C36.7019 23.4151 36.8259 23.3986 36.7019 23.349L36.6854 23.4151C36.6854 23.4813 36.7267 23.4565 36.6688 23.4813L36.6523 23.5474C36.5448 23.4813 36.6275 23.4234 36.5283 23.5144C36.3464 23.4482 36.0074 23.5557 35.9164 23.6384Z" stroke="white" stroke-width="0.5"/>
<path d="M35.0566 27.45C35.2715 27.4913 35.4948 27.8634 35.6519 27.8882L35.7098 27.9047L35.6684 27.822C35.6684 27.822 35.2633 27.3177 35.0566 27.45Z" stroke="white" stroke-width="0.5"/>
<path d="M35.4865 26.7802C35.6105 26.7141 35.5609 26.7554 35.6601 26.6149L35.6023 26.5983L35.5857 26.6645C35.5196 26.7224 35.5609 26.681 35.4948 26.7802H35.4865Z" stroke="white" stroke-width="0.5"/>
<path d="M35.7015 26.6976C35.9164 26.6066 35.8668 26.6232 36.057 26.5735C36.057 26.4495 36.057 26.5074 36.0322 26.4247C35.9661 26.5322 36.0074 26.4826 35.9413 26.5405L35.8999 26.4578C35.9743 26.2759 36.0239 26.2924 35.9826 26.1271C35.8586 26.4909 35.8503 26.4991 35.7097 26.6893H35.7015V26.6976Z" stroke="white" stroke-width="0.5"/>
<path d="M36.5779 23.812C36.8507 23.9691 36.9334 24.1841 37.1319 24.3825L37.1484 24.3164L37.1071 24.2337C36.9417 24.0683 36.8011 23.7541 36.5779 23.812Z" stroke="white" stroke-width="0.5"/>
<path d="M36.0487 26.0775C36.1562 25.9782 36.2141 25.755 36.1728 25.6144L36.0487 26.0775Z" stroke="white" stroke-width="0.5"/>
<path d="M36.1479 26.4578C36.3298 26.4578 36.4456 26.3999 36.5779 26.2842L36.6358 26.3007L36.5944 26.218C36.4539 26.3338 36.2885 26.342 36.1479 26.4578Z" stroke="white" stroke-width="0.5"/>
<path d="M36.9582 23.3407L37.0822 23.3738C37.0078 23.2663 37.0657 23.3242 36.9582 23.3407Z" stroke="white" stroke-width="0.5"/>
<path d="M35.7097 28.4008C35.7842 28.3512 35.8172 28.3016 35.8834 28.2354C36.1893 28.3925 36.3133 28.5992 36.5035 28.8225L36.5366 28.6902L36.4125 28.6571C36.2885 28.3098 35.933 28.1114 35.8586 28.0866C35.8172 28.1445 35.7842 28.2354 35.7097 28.4008Z" stroke="white" stroke-width="0.5"/>
<path d="M35.6105 29.0126C35.7263 28.9051 35.8007 28.6323 35.7511 28.4835L35.6105 29.0126Z" stroke="white" stroke-width="0.5"/>
<path d="M37.1566 23.3242C37.2889 23.3242 37.3882 23.3242 37.4956 23.2663L37.3137 23.2167L37.1566 23.3159V23.3242Z" stroke="white" stroke-width="0.5"/>
<path d="M36.7929 26.2015C36.9252 26.1436 36.9334 26.094 37.0822 26.0609C37.0326 25.9948 37.074 26.0361 36.983 25.9617C36.8921 26.0609 36.8755 26.0527 36.7929 26.1932V26.2015Z" stroke="white" stroke-width="0.5"/>
</g>
<defs>
<clipPath id="clip0_34_302">
<rect width="76" height="76" fill="white"/>
</clipPath>
</defs>
</svg>
