<svg width="93" height="93" viewBox="0 0 93 93" fill="none" xmlns="http://www.w3.org/2000/svg">
<g id="Heart 1" clip-path="url(#clip0_34_286)">
<g id="Layer_1-2">
<g id="Heart">
<path id="Vector" d="M73 45.6915C73 65.3231 57.0854 81.2377 37.4538 81.2377C17.8221 81.2377 1.90753 65.3231 1.90753 45.6915C1.90753 26.0598 17.8221 10.1452 37.4538 10.1452C57.0854 10.1452 73 26.0598 73 45.6915Z" fill="#00679A" stroke="black" stroke-width="2"/>
<path id="Vector_2" d="M32.4998 17.1844C32.8417 17.4071 33.1598 17.6218 33.2552 18.0194L33.2234 18.7907C31.9671 21.2875 31.0844 23.9275 30.7425 26.7902C30.6948 26.9651 30.5676 27.148 30.6153 27.3229C32.3249 28.6588 34.4957 29.5653 36.7063 29.1121C37.2232 28.8338 37.8673 28.8735 38.3682 28.5634C39.235 28.2692 40.1415 27.8557 40.9764 27.482C42.6542 25.0169 44.0219 22.0748 45.2465 19.2519C45.6202 18.7032 45.8429 17.9478 46.4074 17.4309L47.3935 16.8823C48.133 16.6914 48.8725 16.596 49.5643 16.9618C49.9857 17.3832 50.598 17.7331 50.8048 18.3295C51.0751 19.4268 50.7729 20.4526 50.1766 21.3432C49.9857 22.194 49.5166 22.9574 49.3257 23.8083L49.3893 23.856C51.2421 22.9574 53.238 22.6632 55.2657 22.2179C55.7985 22.2179 56.2994 22.3292 56.6652 22.703C57.6512 23.848 57.5478 25.6849 57.3252 27.1162C57.023 27.7603 56.6811 28.5952 55.9734 28.9371C54.1842 29.1439 52.4349 29.7403 50.8366 30.3366L50.7729 30.4162C51.091 31.3624 51.4011 32.3166 51.5602 33.3185C51.7192 33.74 52.1247 34.0581 52.5064 34.2171C53.7628 34.392 55.3054 34.0581 56.5459 34.6226C56.8481 34.734 57.4127 35.219 57.5319 34.5749C58.7724 33.4776 60.4025 32.7858 61.6986 31.6725C62.0247 31.6566 62.3586 31.5453 62.637 31.752C63.0266 32.3166 62.955 33.3106 62.637 33.9229C61.6827 34.8532 60.2991 34.9884 59.496 36.1335L59.2098 36.4197C60.9671 38.678 61.4283 42.1847 60.0447 44.7929C59.337 46.3037 58.3351 47.6714 57.3888 48.9358L57.357 48.9199C56.8083 49.9059 56.2438 50.6931 55.6156 51.5439C55.1146 52.2358 54.6534 52.8003 54.1047 53.4285C53.071 54.5099 52.1725 55.7504 51.2103 56.8239C51.0831 57.0625 50.8843 57.3249 50.6934 57.5157C49.1349 59.8694 47.0674 61.9766 45.7315 64.4417C44.006 67.0021 42.1214 68.998 39.3065 70.1908C38.0661 70.5963 36.8574 70.819 35.4738 70.9939C33.8993 71.3677 32.1897 70.9621 30.663 70.6679C29.4861 70.4134 28.3888 70.1192 27.363 69.3956C25.884 68.2665 24.5799 66.9306 23.3712 65.5152C22.4409 64.4496 21.5503 63.4875 21.0175 62.247C20.6597 61.9448 20.6438 61.4121 20.3734 61.086C19.5703 59.0743 18.4729 57.4919 17.7652 55.5119C15.6739 57.2215 14.1074 59.122 12.0002 60.76C11.6106 60.9191 11.2925 61.2292 10.9029 61.3882C9.75782 61.4359 8.35832 61.4518 7.6188 60.3704C7.27688 59.8376 7.07013 59.1776 7.14965 58.5494C7.02242 58.4858 7.19736 58.454 7.14965 58.3745C7.16556 57.6191 7.49158 56.8955 7.90507 56.2991L8.15952 56.1719C9.72602 54.4622 11.6026 53.341 13.2645 51.6632C15.0537 50.6613 15.7614 48.7767 16.811 47.2182C17.0814 46.3992 17.3279 45.5404 17.4233 44.6418L17.5346 44.4987C17.5823 44.3238 17.5028 43.9659 17.7096 43.8069C17.6619 43.7751 17.646 43.5683 17.7255 43.4809C17.8845 42.5823 18.3378 41.7235 18.5127 40.7932C18.5763 40.3558 18.7513 39.9742 18.9819 39.6004C19.3874 38.2963 19.8327 36.9127 20.612 35.7359C21.6934 33.899 22.4011 32.0304 23.3633 30.1776L23.5223 29.6448C23.6495 29.6925 23.5859 29.5494 23.6495 29.5017C22.5204 28.2294 20.9777 27.0685 19.4987 26.1222C19.5941 25.5417 19.3874 24.7545 19.785 24.2854C19.8963 23.9275 20.0394 23.7685 20.1905 23.4186C20.2859 23.3391 20.3655 23.1085 20.5483 23.1085C20.4688 23.0926 20.5483 22.9336 20.612 22.9017C21.0493 22.4644 21.6457 22.2736 22.1705 22.0032C23.411 22.8858 24.3413 24.1899 25.5341 25.0487C25.9555 24.1502 26.3054 23.1483 26.711 22.4724C26.7746 22.2974 26.9495 21.8919 26.9813 21.6374C27.2358 20.9933 27.4823 20.1902 27.5777 19.403L27.6731 19.3235L27.6095 19.2917C27.6731 18.3772 27.9832 17.4389 28.8341 17.0413C29.9632 16.4926 31.49 16.4926 32.5078 17.1844H32.4998Z" fill="#00679A" stroke="white" stroke-miterlimit="10"/>
<path id="Vector_3" d="M56.1881 23.9593C56.5936 24.6193 56.6413 25.5338 56.4743 26.329C56.4107 26.3926 56.3948 26.5198 56.4425 26.6073C56.0052 27.1877 55.7825 28.0068 54.8522 27.9591C52.6973 28.4918 50.5185 29.0087 48.4749 29.8436C47.9898 29.9868 47.4889 30.1299 47.0913 30.3923C44.5626 31.1636 42.0658 32.2451 39.8949 33.6128C39.394 34.0819 38.8294 34.5272 38.3046 34.9805C37.8831 35.4973 37.5174 36.1096 37.1754 36.6106C36.6109 37.4614 36.1099 38.352 35.5771 39.2187C35.4499 39.3142 35.275 39.4096 35.0921 39.3301C35.0444 38.7019 35.2511 38.3997 35.4976 37.851C35.5612 37.6125 35.6249 37.2229 35.434 37.0161C35.3227 36.873 35.1318 36.8412 34.9649 36.9048C34.1617 37.7238 33.788 38.9484 33.4381 40.0298C33.8914 41.3657 33.9868 42.5903 34.2412 43.9739C34.4003 44.2124 34.3049 44.6021 34.448 44.777C34.4639 45.1269 34.3844 45.5801 34.4162 46.0016C34.448 46.097 34.4798 46.3197 34.5116 46.4071C34.4639 46.6298 34.5752 46.7968 34.5275 47.0194C34.6865 47.8861 34.5752 49.1902 34.7343 50.0649C34.607 50.3194 34.8774 50.6295 34.6706 50.8999L34.7024 51.0112H34.6706C34.6865 52.6413 34.3287 54.5736 34.0902 56.4422C33.7482 58.3109 33.0564 59.933 31.9511 61.4836C31.323 62.255 30.5675 62.7082 29.7326 62.9627C28.6035 63.0581 27.5141 63.1376 26.544 62.5253C25.2717 61.5632 24.0153 60.6248 23.4348 59.0504C22.1466 56.8637 21.3594 54.2555 20.4529 51.8064C20.0951 50.3432 19.3715 49.0551 19.292 47.4886C19.3238 46.8604 19.9201 46.5741 20.4211 46.3753L21.0811 46.3435C21.1606 46.4866 21.4389 46.423 21.5821 46.5184C22.1625 46.7888 22.7907 47.1943 23.5143 47.0671C23.7847 46.7968 23.8165 46.423 23.6575 46.0891C23.3314 45.604 22.6556 45.2859 22.0989 45.0394C21.7093 44.7532 21.2958 44.3953 21.3435 43.8626C21.2322 42.964 21.7331 42.3676 22.0512 41.6917C22.1943 41.6122 22.1625 41.4532 22.2421 41.3339C23.1565 40.3479 23.9517 39.6084 25.2081 39.338C25.7885 39.2585 26.4485 39.0836 26.9177 39.4812C27.5777 40.3161 27.7208 41.2703 27.5618 42.3756C27.355 43.4888 26.5281 44.5862 25.9714 45.4211C25.6295 45.7948 25.4705 46.2401 25.1524 46.6934C25.1524 46.7888 25.1842 46.8842 25.0411 46.916C25.057 46.9956 25.0252 47.1546 25.1524 47.2102C25.057 47.2421 25.0888 47.4011 25.1524 47.4488C25.2478 47.6874 25.5579 47.5919 25.7329 47.6396C26.8938 46.9637 27.3073 45.93 28.1661 45.0315L29.4702 43.4173V43.29C30.5357 42.1291 32.1897 40.825 31.8875 39.2346C31.9352 39.0597 31.808 38.6224 31.7444 38.511C31.6808 38.0737 31.5377 37.4773 31.0208 37.207C30.8299 37.1274 30.6153 37.1751 30.4403 37.2388C29.4861 37.9942 30.9095 39.4573 29.6849 39.7992C29.4304 39.8946 29.1362 39.831 28.85 39.7674C28.3967 39.4096 28.4444 38.8291 28.4921 38.3202C28.9295 37.0161 29.4145 35.7438 29.5736 34.4397C29.8678 32.412 30.0268 30.7024 30.4403 28.6906C31.7921 29.4938 33.128 30.2015 34.5275 30.8615C35.2511 31.1477 36.094 31.0682 36.8176 30.9251C39.553 29.8913 42.1135 28.0783 45.0159 27.3547C48.1409 26.5198 51.2977 25.6133 54.5341 25.1282C54.6931 24.6114 54.7568 24.015 55.2259 23.6492C55.6155 23.6174 55.9972 23.6492 56.2119 23.9752L56.1881 23.9593Z" stroke="white" stroke-width="0.5" stroke-linecap="round" stroke-linejoin="round"/>
<path id="Vector_4" d="M48.9122 31.1C49.0395 31.3863 49.3496 31.4737 49.5563 31.6964C49.9937 32.1814 50.1845 32.8096 50.4231 33.3901C50.5503 33.9547 50.5344 34.7101 50.4708 35.4178C50.0811 36.8332 49.7154 38.2486 48.7134 39.4414L48.7293 39.4732C48.0216 40.2922 47.298 41.4373 46.3915 42.1291C45.5407 42.805 44.2048 42.3835 43.2824 42.8368C43.1552 42.9958 42.8132 42.9958 42.9087 43.2423C42.7178 43.2741 42.8291 43.4332 42.8132 43.5604C42.9405 43.6876 43.0041 43.8864 43.2188 43.8546C44.0378 43.6638 44.9443 43.6956 45.7156 43.9341C46.153 44.0932 46.3279 44.5305 46.5347 44.9201C46.5665 45.7551 46.4233 46.5105 46.0655 47.1625C46.0973 47.2898 46.0019 47.2262 45.9542 47.3375C45.6918 47.5601 45.7156 47.9816 45.811 48.2837C45.9224 48.5382 46.1371 48.6257 46.3597 48.7211C47.9898 48.4428 48.5146 46.6934 49.1428 45.4211C50.5105 42.6698 50.3515 39.2983 53.0233 37.191C54.2001 36.4674 55.6792 36.3402 57.0151 36.8014C57.6273 36.9763 57.8977 37.6682 58.2714 38.026C58.3828 38.5269 58.4305 39.2506 58.1283 39.6243C56.6016 41.4134 54.0729 42.7493 52.2997 44.4908C51.5443 45.1189 50.8365 45.8585 50.1288 46.5184C48.952 47.4488 47.9262 48.6416 47.0833 49.9616C47.0197 50.1842 46.9561 50.4307 47.0197 50.6693C47.0992 50.7647 47.2105 50.7647 47.1628 50.9237C47.4014 51.0509 47.6956 51.0191 47.9501 50.9555C48.9361 50.4228 49.1428 49.1982 50.1686 48.9278C50.4469 48.8483 50.431 49.1505 50.4946 49.3016C50.7173 51.1066 49.0156 51.8143 48.2045 53.1343C45.819 56.1639 42.9882 59.2492 39.9108 61.5393C38.7499 62.1516 37.5412 63.2012 36.0304 62.8593C35.4817 62.3901 35.7282 61.6665 35.7123 61.0702C35.8873 60.6487 35.8396 60.1398 35.9668 59.7024C36.4041 57.3646 36.2212 55.1143 36.3564 52.856L36.2928 52.8083L36.3564 52.7765C36.3882 50.1206 36.1179 47.7192 37.4856 45.3177C38.1138 44.451 39.2111 44.0614 40.1574 43.6081C40.3005 43.465 40.2369 43.298 40.2051 43.1231C39.9824 42.8368 39.561 42.8447 39.2509 42.9481C39.0918 42.9799 38.893 43.0912 38.8135 43.2026C38.6545 43.1867 38.4557 43.3298 38.3444 43.4252C37.5412 43.7751 37.1198 44.777 36.1735 44.8724C35.8793 44.0375 36.0145 43.1628 35.9986 42.2643C36.1417 39.9105 37.7718 37.851 39.4258 36.2766C40.0222 35.6961 40.539 35.1952 41.1672 34.734V34.6544L41.1831 34.6862C43.4891 32.9607 46.1927 31.9986 48.8963 31.0921H48.9122V31.1Z" stroke="white" stroke-width="0.5" stroke-linecap="round" stroke-linejoin="round"/>
<path id="Vector_5" d="M31.5217 17.8763C31.6808 18.0512 31.8716 18.3454 31.7603 18.5999C31.6013 18.8066 31.3866 18.8702 31.1798 19.0054L30.6789 18.9418C30.5198 19.1326 30.4085 19.3632 30.4562 19.6495L30.5357 19.7608C29.8757 22.8063 29.5179 25.6849 28.7943 28.6509C28.683 28.9769 28.4524 29.2313 28.1502 29.3745C27.8401 29.4381 27.5538 29.4699 27.2357 29.295C27.9276 26.0109 28.6989 22.5678 29.7008 19.2917C29.8439 19.2281 29.828 19.0372 29.8757 18.8861C29.7326 18.6794 29.2316 18.6317 29.4543 18.242C29.8439 17.582 30.9174 17.4707 31.5138 17.8683L31.5217 17.8763Z" stroke="white" stroke-width="0.5" stroke-linecap="round" stroke-linejoin="round"/>
<path id="Vector_6" d="M49.3178 18.5999C49.6597 19.1326 49.445 19.729 49.1746 20.23C48.9679 20.5003 48.6737 20.6514 48.3397 20.5321C48.3079 20.4526 48.1966 20.4685 48.1489 20.5162L48.0535 20.5958C47.6638 22.1066 47.139 23.514 46.6062 25.0249C46.2166 25.2475 45.7872 25.5258 45.334 25.669C46.0099 23.8162 46.6858 22.1225 47.3935 20.3095C47.4571 20.2777 47.4412 20.1982 47.4412 20.1346C47.0356 19.9596 47.0197 19.4746 46.9243 19.0849C46.9402 18.8782 46.972 18.6635 47.1311 18.5044C47.5843 18.3613 48.2761 17.7013 48.8884 18.1625L49.3257 18.5999H49.3178Z" stroke="white" stroke-width="0.5" stroke-linecap="round" stroke-linejoin="round"/>
<path id="Vector_7" d="M24.7071 27.0049C24.7071 27.3945 24.3811 27.6172 24.3016 27.9511C24.1743 27.8716 23.9119 27.7444 23.8006 27.5456C22.9816 26.7107 21.8842 25.9711 21.0493 25.1601C21.256 24.8579 21.4389 24.4683 21.8047 24.2933C22.9179 25.1123 23.6416 25.9552 24.7071 26.9969V27.0049Z" stroke="white" stroke-width="0.5" stroke-linecap="round" stroke-linejoin="round"/>
<path id="Vector_8" d="M14.9662 54.3986C13.7416 55.814 12.1672 56.975 10.8313 58.3427C10.8154 58.5494 11.1017 58.5017 11.1176 58.7164C11.2925 59.0742 11.2925 59.4718 11.1176 59.8456C10.8313 60.2511 10.3463 60.3942 9.893 60.3942C9.23301 60.3783 8.70024 59.941 8.39807 59.3605C8.23904 58.8118 8.42988 58.3586 8.74 57.961C9.33638 57.3328 10.2508 57.301 11.0619 57.3805C12.4932 56.4979 13.5906 55.1461 14.8628 54.1442C14.8787 54.2078 15.006 54.2873 14.9742 54.3986H14.9662Z" stroke="white" stroke-width="0.5" stroke-linecap="round" stroke-linejoin="round"/>
<path id="Vector_9" d="M61.2136 32.8892C61.1818 33.0005 61.1261 33.0959 61.2136 33.1913C61.142 33.573 61.2534 33.8831 61.3965 34.1535C61.15 34.4556 60.7365 34.4556 60.4582 34.7419C60.156 35.0441 59.989 35.1634 59.6551 35.5053C59.4563 35.0838 59.3052 34.6624 58.9792 34.4477L59.011 34.3364C59.7346 33.6684 60.4105 33.1277 61.2056 32.8971L61.2136 32.8892Z" stroke="white" stroke-width="0.5" stroke-linecap="round" stroke-linejoin="round"/>
</g>
</g>
</g>
<defs>
<clipPath id="clip0_34_286">
<rect width="91.92" height="91.92" fill="white" transform="translate(0.907532 0.145233)"/>
</clipPath>
</defs>
</svg>
