<svg width="76" height="76" viewBox="0 0 76 76" fill="none" xmlns="http://www.w3.org/2000/svg">
<g id="Lungs 1">
<g id="Layer_1-2">
<g id="Lungs">
<path id="Vector" d="M37.5309 74.4694C56.7477 74.4694 72.3261 58.457 72.3261 38.7047C72.3261 18.9524 56.7477 2.94 37.5309 2.94C18.3141 2.94 2.73572 18.9524 2.73572 38.7047C2.73572 58.457 18.3141 74.4694 37.5309 74.4694Z" fill="#00679A" stroke="black" stroke-width="2"/>
<path id="Vector_2" d="M32.9194 10.706L35.4618 9.60313H35.4704L35.5474 9.56936C35.5629 9.57741 35.5906 9.59485 35.6303 9.63097C35.7619 9.7507 35.9276 9.98568 36.1133 10.3553C36.4789 11.0832 36.8394 12.1627 37.1658 13.3599C37.8164 15.7467 38.2977 18.4746 38.4119 19.4709L38.4124 19.4745C38.465 19.9052 38.5277 20.6043 38.6032 21.4445C38.6101 21.5218 38.6172 21.6003 38.6243 21.6799C38.7088 22.6189 38.8076 23.7004 38.9228 24.7373C39.0376 25.7716 39.1701 26.7738 39.323 27.5513C39.3992 27.9384 39.4835 28.2857 39.5786 28.5589C39.626 28.6951 39.6809 28.8269 39.7463 28.9411C39.8062 29.0458 39.9029 29.1859 40.0557 29.2795L40.6608 29.6501L40.8062 28.9556C41.0626 27.7313 40.889 26.5399 40.7293 25.4436C40.7223 25.3959 40.7154 25.3484 40.7085 25.301C40.5399 24.1379 40.4052 23.0702 40.6802 21.9809C41.0944 20.3729 41.6759 19.5189 42.2741 19.1145C42.8507 18.7248 43.5387 18.6902 44.3418 18.9558C45.1553 19.2248 46.0346 19.7884 46.9041 20.5099C47.7646 21.2238 48.5885 22.0695 49.2964 22.8764C53.4586 28.218 57.3459 34.3404 58.8942 40.7061L58.904 40.7464L58.9203 40.7845C60.9874 45.6191 62.1411 51.533 60.776 56.4135C60.5473 57.2245 59.9077 57.6725 59.1546 57.7851C58.3838 57.9004 57.5619 57.6501 57.0645 57.1242C56.9344 56.9849 56.7498 56.8901 56.5989 56.8237C56.4303 56.7495 56.2274 56.679 56.0063 56.612C55.5628 56.4775 55.0039 56.3442 54.4095 56.2169C53.5673 56.0364 52.6256 55.8619 51.8051 55.7099C51.4692 55.6477 51.1537 55.5893 50.8736 55.5357L50.8583 55.5328L50.8429 55.5308C47.6374 55.1219 45.0144 54.7352 43.2229 53.5944C42.348 53.0374 41.6771 52.3014 41.2415 51.2814C40.8021 50.2527 40.5898 48.9055 40.6874 47.1128L40.6875 47.112C40.698 46.9119 40.7069 46.7137 40.7158 46.5176C40.7858 44.9621 40.85 43.5354 41.6842 42.3087L41.8286 42.0964L41.7402 41.8554C41.4932 41.1816 41.4573 40.478 41.4169 39.6863C41.4142 39.6326 41.4114 39.5785 41.4086 39.5239C41.3652 38.693 41.3002 37.7711 40.8733 36.8847L40.8733 36.8847L40.8716 36.8812C40.1096 35.3301 39.5767 33.6106 40.0737 32.0643L40.2245 31.595L39.7574 31.4375L38.3265 30.955L37.9811 30.8386L37.7645 31.1318L36.3337 33.0695L36.2003 33.25L36.2467 33.4697C36.9287 36.7035 36.4997 40.4331 35.7341 43.7194L35.7062 43.8392L35.7371 43.9583C36.1631 45.6023 36.1842 47.4545 35.4253 49.1648C34.672 50.8623 33.1235 52.4813 30.2941 53.6276C28.319 54.2869 25.8889 54.6466 24.0255 54.2388L23.8805 54.2071L23.7416 54.2596C20.8855 55.3408 18.2873 56.7474 16.0838 58.7882L16.083 58.789C15.9148 58.9455 15.7938 59.012 15.7197 59.0375C15.656 59.0594 15.6318 59.0504 15.6242 59.0476L15.6239 59.0475C15.5803 59.0314 15.4625 58.9384 15.3388 58.6283C15.226 58.3455 15.1511 57.9876 15.1113 57.6508C15.0706 57.3069 15.0725 57.038 15.0867 56.9361L15.0898 56.9139L15.0908 56.8915C15.1485 55.707 15.0918 54.478 15.0362 53.2737C15.0104 52.7143 14.9848 52.1602 14.9711 51.6184C14.927 49.8799 14.9993 48.2126 15.5131 46.6504L15.5681 46.483L15.5061 46.3181C15.436 46.132 15.3633 45.681 15.3319 45.0263C15.3016 44.3929 15.312 43.6243 15.3792 42.8406C15.4465 42.0555 15.5698 41.2686 15.76 40.5937C15.9537 39.9062 16.2016 39.3913 16.4827 39.0964L16.7068 38.8612L16.583 38.5609C16.5013 38.3627 16.4957 38.0811 16.6033 37.6799C16.7099 37.2824 16.91 36.8305 17.161 36.3297C17.2836 36.0854 17.4147 35.8361 17.5494 35.5801L17.5558 35.568C17.6918 35.3094 17.8313 35.0442 17.9637 34.7795C18.2265 34.2539 18.4735 33.7074 18.6229 33.1768C19.462 30.2759 21.3205 27.6124 23.8113 25.5593C24.4683 25.0258 25.015 24.3756 25.5161 23.7195C25.7158 23.4582 25.9039 23.2022 26.089 22.9502C26.3836 22.5492 26.6706 22.1586 26.9844 21.7733C27.9764 20.5556 29.0708 19.6118 30.8052 19.4367L30.8095 19.4362C32.2257 19.2811 32.778 19.5939 33.0554 19.9625C33.2123 20.1711 33.322 20.4484 33.4054 20.8083C33.4806 21.1334 33.5271 21.4896 33.5793 21.8888C33.5851 21.9332 33.5909 21.9782 33.5969 22.0237C33.6517 22.5739 33.687 23.1322 33.723 23.7031C33.7282 23.7861 33.7335 23.8693 33.7388 23.9528C33.7807 24.6092 33.8273 25.2799 33.9098 25.9458C34.0747 27.2783 34.386 28.6223 35.1158 29.8684L35.5148 30.5495L35.9601 29.8978C36.0392 29.782 36.0795 29.6515 36.1034 29.5492C36.1292 29.4391 36.1457 29.3167 36.1566 29.1901C36.1783 28.9366 36.1804 28.6248 36.1693 28.2772C36.1472 27.5798 36.0704 26.6895 35.9668 25.7333C35.7612 23.8355 35.4457 21.637 35.2229 20.0847L35.217 20.0435C35.1416 19.5153 34.9159 18.6446 34.645 17.6665C34.5121 17.187 34.3659 16.673 34.2168 16.1491L34.2024 16.0982C34.0481 15.556 33.8911 15.0037 33.7418 14.4646C33.4424 13.3826 33.1788 12.3696 33.0338 11.6127C32.9606 11.2306 32.9226 10.9383 32.9195 10.7441C32.9193 10.7305 32.9192 10.7179 32.9194 10.706ZM40.6308 28.4701C40.6307 28.4701 40.6301 28.4694 40.6289 28.4677C40.6302 28.4692 40.6308 28.4701 40.6308 28.4701ZM32.7378 10.7848L32.7407 10.7836C32.7397 10.784 32.7388 10.7844 32.7378 10.7848Z" fill="#00679A" stroke="white"/>
<path id="Vector_3" d="M35.3656 9.10313C36.963 8.40278 38.674 17.3673 38.9087 19.4139C39.1434 21.336 39.5673 28.394 40.3169 28.8531C40.809 26.503 39.5901 24.2541 40.1957 21.8573C41.9067 15.2118 46.7974 19.266 49.6819 22.5577C53.8609 27.9193 57.8053 34.1135 59.38 40.5879C61.4695 45.4748 62.6657 51.5134 61.2576 56.5482C60.6746 58.6181 57.9491 58.7893 56.7 57.4664C56.2533 56.9839 52.7329 56.4003 50.7796 56.0268C44.4353 55.2175 39.7869 54.4549 40.1882 47.0856C40.279 45.3659 40.2336 43.5527 41.2708 42.0275C40.6803 40.4167 41.1799 38.6736 40.4228 37.1017C39.6506 35.5298 39.0374 33.6544 39.5976 31.9113L38.1668 31.4288L36.7359 33.3665C37.44 36.7048 36.9933 40.5179 36.2211 43.8329C37.1144 47.2802 36.3422 51.7235 30.4673 54.0969C28.4459 54.7739 25.9097 55.163 23.9186 54.7273C21.1023 55.7933 18.5661 57.1707 16.4236 59.155C14.8261 60.6413 14.5006 57.5209 14.5914 56.8672C14.758 53.4433 13.9555 49.7859 15.0381 46.4942C14.6369 45.4281 14.6596 40.2844 16.1207 38.7514C15.5529 37.3741 17.597 34.9773 18.1421 33.0396C19.0128 30.0281 20.9357 27.2812 23.4946 25.1723C25.94 23.188 26.9015 19.3283 30.755 18.9392C33.7379 18.6124 33.859 20.1843 34.0937 21.9663C34.3511 24.542 34.1845 27.289 35.5473 29.6157C35.994 28.962 35.1687 23.2269 34.7221 20.1142C34.4419 18.1532 31.83 10.6283 32.5417 10.3249L35.358 9.10313H35.3656Z" fill="#00679A" stroke="white" stroke-miterlimit="10"/>
<path id="Vector_4" d="M29.0366 28.7986C28.9155 29.0398 28.6353 29.141 28.4006 29.0243C28.1659 28.8997 28.0751 28.6118 28.1962 28.3628C28.3174 28.1216 28.5975 28.0204 28.8322 28.1371C29.0669 28.2539 29.1577 28.5496 29.0366 28.7986Z" fill="#00679A" stroke="white" stroke-width="0.25" stroke-miterlimit="10"/>
<g id="Vector_5">
<path d="M28.6584 29.0865L30.1347 30.316C31.4974 31.1564 33.0797 31.0086 33.6778 29.9892C34.2456 29.0165 33.7156 27.608 32.4892 26.752L30.3466 24.6432" fill="#00679A"/>
<path d="M28.6584 29.0865L30.1347 30.316C31.4974 31.1564 33.0797 31.0086 33.6778 29.9892C34.2456 29.0165 33.7156 27.608 32.4892 26.752L30.3466 24.6432" stroke="white" stroke-width="0.25" stroke-miterlimit="10"/>
</g>
<path id="Vector_6" d="M28.802 27.857C28.6808 28.0983 28.4007 28.1994 28.166 28.0827C27.9313 27.966 27.8405 27.6703 27.9616 27.4212C28.0827 27.18 28.3629 27.0789 28.5976 27.1956C28.8322 27.3123 28.9231 27.608 28.802 27.857Z" fill="#00679A" stroke="white" stroke-width="0.25" stroke-miterlimit="10"/>
<path id="Vector_7" d="M28.3323 27.1256C28.2112 27.3668 27.9311 27.468 27.6964 27.3512C27.4617 27.2345 27.3708 26.9388 27.4919 26.6898C27.6131 26.4486 27.8932 26.3474 28.1279 26.4641C28.3626 26.5808 28.4534 26.8765 28.3323 27.1256Z" fill="#00679A" stroke="white" stroke-width="0.25" stroke-miterlimit="10"/>
<path id="Vector_8" d="M27.4163 27.0399C27.2951 27.2812 27.015 27.3823 26.7803 27.2656C26.5456 27.1489 26.4548 26.8532 26.5759 26.6042C26.697 26.3629 26.9772 26.2618 27.2118 26.3785C27.4465 26.4952 27.5374 26.7909 27.4163 27.0399Z" fill="#00679A" stroke="white" stroke-width="0.25" stroke-miterlimit="10"/>
<path id="Vector_9" d="M26.3868 26.6742C26.2656 26.9155 25.9855 27.0166 25.7508 26.8999C25.5161 26.7754 25.4253 26.4875 25.5464 26.2384C25.6676 25.9972 25.9477 25.8961 26.1824 26.0128C26.4171 26.1295 26.5079 26.4252 26.3868 26.6742Z" fill="#00679A" stroke="white" stroke-width="0.25" stroke-miterlimit="10"/>
<path id="Vector_10" d="M27.5678 28.2072C27.4466 28.4484 27.1665 28.5496 26.9318 28.4329C26.6971 28.3084 26.6063 28.0204 26.7274 27.7714C26.8486 27.5302 27.1287 27.429 27.3634 27.5458C27.5981 27.6703 27.6889 27.9582 27.5678 28.2072Z" fill="#00679A" stroke="white" stroke-width="0.25" stroke-miterlimit="10"/>
<path id="Vector_11" d="M25.9554 27.8648C25.8342 28.1061 25.5541 28.2072 25.3194 28.0905C25.0847 27.966 24.9939 27.6781 25.115 27.429C25.2362 27.1878 25.5163 27.0866 25.751 27.2034C25.9857 27.3201 26.0765 27.6158 25.9554 27.8648Z" fill="#00679A" stroke="white" stroke-width="0.25" stroke-miterlimit="10"/>
<path id="Vector_12" d="M26.1294 29.1955C26.0082 29.4367 25.7281 29.5379 25.4934 29.4212C25.2587 29.2967 25.1679 29.0087 25.289 28.7597C25.4101 28.5185 25.6903 28.4173 25.9249 28.534C26.1596 28.6508 26.2505 28.9465 26.1294 29.1955Z" fill="#00679A" stroke="white" stroke-width="0.25" stroke-miterlimit="10"/>
<path id="Vector_13" d="M27.1064 29.2889C26.9853 29.5301 26.7052 29.6313 26.4705 29.5145C26.2358 29.3978 26.1449 29.1021 26.2661 28.8531C26.3872 28.6119 26.6673 28.5107 26.902 28.6274C27.1367 28.7442 27.2275 29.0399 27.1064 29.2889Z" fill="#00679A" stroke="white" stroke-width="0.25" stroke-miterlimit="10"/>
<path id="Vector_14" d="M26.5983 28.4017C26.4772 28.643 26.1971 28.7441 25.9624 28.6274C25.7277 28.5107 25.6368 28.215 25.758 27.966C25.8791 27.7247 26.1592 27.6236 26.3939 27.7403C26.6286 27.8648 26.7195 28.1527 26.5983 28.4017Z" fill="#00679A" stroke="white" stroke-width="0.25" stroke-miterlimit="10"/>
<path id="Vector_15" d="M25.3951 28.3394C25.2739 28.5807 24.9938 28.6818 24.7591 28.5651C24.5244 28.4484 24.4336 28.1527 24.5547 27.9037C24.6759 27.6624 24.956 27.5613 25.1907 27.678C25.4254 27.7947 25.5162 28.0904 25.3951 28.3394Z" fill="#00679A" stroke="white" stroke-width="0.25" stroke-miterlimit="10"/>
<path id="Vector_16" d="M24.8275 29.1799C24.7064 29.4211 24.4263 29.5223 24.1916 29.4056C23.9569 29.2811 23.8661 28.9932 23.9872 28.7441C24.1083 28.5029 24.3884 28.4017 24.6231 28.5185C24.8578 28.643 24.9487 28.9309 24.8275 29.1799Z" fill="#00679A" stroke="white" stroke-width="0.25" stroke-miterlimit="10"/>
<path id="Vector_17" d="M24.6305 28.0983C24.5094 28.3395 24.2293 28.4407 23.9946 28.324C23.7599 28.2072 23.669 27.9115 23.7902 27.6625C23.9113 27.4213 24.1914 27.3201 24.4261 27.4368C24.6608 27.5536 24.7517 27.8493 24.6305 28.0983Z" fill="#00679A" stroke="white" stroke-width="0.25" stroke-miterlimit="10"/>
<path id="Vector_18" d="M25.4404 27.2578C25.3193 27.4991 25.0391 27.6002 24.8045 27.4835C24.5698 27.3668 24.4789 27.0711 24.6 26.8221C24.7212 26.5808 25.0013 26.4797 25.236 26.5964C25.4707 26.7131 25.5615 27.0088 25.4404 27.2578Z" fill="#00679A" stroke="white" stroke-width="0.25" stroke-miterlimit="10"/>
<path id="Vector_19" d="M25.4483 29.8803C25.3271 30.1215 25.047 30.2227 24.8123 30.1059C24.5776 29.9892 24.4868 29.6935 24.6079 29.4445C24.729 29.2033 25.0092 29.1021 25.2439 29.2188C25.4786 29.3356 25.5694 29.6313 25.4483 29.8803Z" fill="#00679A" stroke="white" stroke-width="0.25" stroke-miterlimit="10"/>
<path id="Vector_20" d="M28.0218 29.0399C27.9007 29.2811 27.6206 29.3823 27.3859 29.2655C27.1512 29.141 27.0604 28.8531 27.1815 28.6041C27.3026 28.3629 27.5827 28.2617 27.8174 28.3784C28.0521 28.5029 28.143 28.7909 28.0218 29.0399Z" fill="#00679A" stroke="white" stroke-width="0.25" stroke-miterlimit="10"/>
<g id="Vector_21">
<path d="M26.5986 29.5846L26.9923 30.3472L28.4988 31.0242C28.9909 31.1253 28.8622 30.7051 28.8622 30.7051C27.7266 29.6546 27.9689 29.4289 27.6736 29.3433" fill="#00679A"/>
<path d="M26.5986 29.5846L26.9923 30.3472L28.4988 31.0242C28.9909 31.1253 28.8622 30.7051 28.8622 30.7051C27.7266 29.6546 27.9689 29.4289 27.6736 29.3433" stroke="white" stroke-width="0.25" stroke-miterlimit="10"/>
</g>
<g id="Vector_22">
<path d="M25.4481 29.8802L25.9705 30.5028L27.1515 31.0397L24.7667 31.1564L24.3201 30.9463" fill="#00679A"/>
<path d="M25.4481 29.8802L25.9705 30.5028L27.1515 31.0397L24.7667 31.1564L24.3201 30.9463" stroke="white" stroke-width="0.25" stroke-miterlimit="10"/>
</g>
<path id="Vector_23" d="M24.282 30.7985C24.1609 31.0397 23.8808 31.1409 23.6461 31.0242C23.4114 30.9074 23.3206 30.6117 23.4417 30.3627C23.5628 30.1215 23.8429 30.0203 24.0776 30.1371C24.3123 30.2538 24.4032 30.5495 24.282 30.7985Z" fill="#00679A" stroke="white" stroke-width="0.25" stroke-miterlimit="10"/>
<path id="Vector_24" d="M23.1086 30.6195C22.9874 30.8608 22.7073 30.9619 22.4726 30.8452C22.2379 30.7285 22.1471 30.4328 22.2682 30.1838C22.3894 29.9425 22.6695 29.8414 22.9042 29.9581C23.1389 30.0748 23.2297 30.3705 23.1086 30.6195Z" fill="#00679A" stroke="white" stroke-width="0.25" stroke-miterlimit="10"/>
<path id="Vector_25" d="M22.1925 31.3744C22.0714 31.6156 21.7913 31.7168 21.5566 31.6C21.3219 31.4755 21.231 31.1876 21.3521 30.9386C21.4733 30.6973 21.7534 30.5962 21.9881 30.7129C22.2228 30.8296 22.3136 31.1253 22.1925 31.3744Z" fill="#00679A" stroke="white" stroke-width="0.25" stroke-miterlimit="10"/>
<path id="Vector_26" d="M23.6235 31.6C23.5024 31.8413 23.2223 31.9424 22.9876 31.8257C22.7529 31.709 22.662 31.4133 22.7832 31.1643C22.9043 30.923 23.1844 30.8219 23.4191 30.9386C23.6538 31.0553 23.7447 31.351 23.6235 31.6Z" fill="#00679A" stroke="white" stroke-width="0.25" stroke-miterlimit="10"/>
<path id="Vector_27" d="M23.4872 32.5727C23.366 32.814 23.0859 32.9151 22.8512 32.7984C22.6165 32.6817 22.5257 32.386 22.6468 32.1369C22.768 31.8957 23.0481 31.7945 23.2828 31.9113C23.5175 32.0358 23.6083 32.3237 23.4872 32.5727Z" fill="#00679A" stroke="white" stroke-width="0.25" stroke-miterlimit="10"/>
<path id="Vector_28" d="M24.456 32.3627C24.3349 32.6039 24.0547 32.705 23.82 32.5883C23.5854 32.4716 23.4945 32.1759 23.6156 31.9269C23.7368 31.6856 24.0169 31.5845 24.2516 31.7012C24.4863 31.8257 24.5771 32.1136 24.456 32.3627Z" fill="#00679A" stroke="white" stroke-width="0.25" stroke-miterlimit="10"/>
<g id="Vector_29">
<path d="M25.2661 32.8684L26.5531 32.2615C26.9013 32.0591 26.4471 31.9268 26.4471 31.9268C26.4471 31.9268 24.7664 31.8724 24.6831 31.8335" fill="#00679A"/>
<path d="M25.2661 32.8684L26.5531 32.2615C26.9013 32.0591 26.4471 31.9268 26.4471 31.9268C26.4471 31.9268 24.7664 31.8724 24.6831 31.8335" stroke="white" stroke-width="0.25" stroke-miterlimit="10"/>
</g>
<path id="Vector_30" d="M21.8895 33.0008C21.7684 33.242 21.4882 33.3432 21.2535 33.2264C21.0189 33.1097 20.928 32.814 21.0491 32.565C21.1703 32.3238 21.4504 32.2226 21.6851 32.3393C21.9198 32.4561 22.0106 32.7518 21.8895 33.0008Z" fill="#00679A" stroke="white" stroke-width="0.25" stroke-miterlimit="10"/>
<path id="Vector_31" d="M23.5323 33.7944C23.4111 34.0357 23.131 34.1368 22.8963 34.0201C22.6616 33.8956 22.5708 33.6077 22.6919 33.3587C22.813 33.1174 23.0931 33.0163 23.3278 33.133C23.5625 33.2497 23.6534 33.5454 23.5323 33.7944Z" fill="#00679A" stroke="white" stroke-width="0.25" stroke-miterlimit="10"/>
<path id="Vector_32" d="M22.3972 34.1524C22.276 34.3936 21.9959 34.4948 21.7612 34.3781C21.5265 34.2613 21.4357 33.9656 21.5568 33.7166C21.678 33.4754 21.9581 33.3742 22.1928 33.491C22.4275 33.6155 22.5183 33.9034 22.3972 34.1524Z" fill="#00679A" stroke="white" stroke-width="0.25" stroke-miterlimit="10"/>
<path id="Vector_33" d="M22.7449 33.3353C22.6237 33.5766 22.3436 33.6777 22.1089 33.561C21.8742 33.4443 21.7834 33.1486 21.9045 32.8995C22.0256 32.6583 22.3058 32.5572 22.5405 32.6739C22.7752 32.7906 22.866 33.0863 22.7449 33.3353Z" fill="#00679A" stroke="white" stroke-width="0.25" stroke-miterlimit="10"/>
<path id="Vector_34" d="M22.5482 32.1681C22.4271 32.4093 22.147 32.5105 21.9123 32.3938C21.6776 32.277 21.5868 31.9813 21.7079 31.7323C21.829 31.4911 22.1091 31.3899 22.3438 31.5066C22.5785 31.6234 22.6694 31.9191 22.5482 32.1681Z" fill="#00679A" stroke="white" stroke-width="0.25" stroke-miterlimit="10"/>
<path id="Vector_35" d="M24.7442 33.7089C24.6231 33.9501 24.343 34.0513 24.1083 33.9345C23.8736 33.8178 23.7827 33.5221 23.9039 33.2731C24.025 33.0319 24.3051 32.9307 24.5398 33.0474C24.7745 33.1641 24.8654 33.4598 24.7442 33.7089Z" fill="#00679A" stroke="white" stroke-width="0.25" stroke-miterlimit="10"/>
<g id="Vector_36">
<path d="M27.0681 35.5609C29.8996 35.8021 31.8755 34.6582 31.8755 34.6582C34.9417 32.4482 31.7241 31.9813 31.7241 31.9813L28.2264 31.8802C27.8706 31.7946 27.6132 32.1681 27.6132 32.1681C27.0757 33.1564 26.2883 33.2497 26.1066 33.2186" fill="#00679A"/>
<path d="M27.0681 35.5609C29.8996 35.8021 31.8755 34.6582 31.8755 34.6582C34.9417 32.4482 31.7241 31.9813 31.7241 31.9813L28.2264 31.8802C27.8706 31.7946 27.6132 32.1681 27.6132 32.1681C27.0757 33.1564 26.2883 33.2497 26.1066 33.2186" stroke="white" stroke-width="0.25" stroke-miterlimit="10"/>
</g>
<g id="Vector_37">
<path d="M27.3861 40.0821C33.3595 39.3117 32.9128 35.9344 32.9128 35.9344C30.3236 34.9462 27.6435 39.0471 27.6435 39.0471" fill="#00679A"/>
<path d="M27.3861 40.0821C33.3595 39.3117 32.9128 35.9344 32.9128 35.9344C30.3236 34.9462 27.6435 39.0471 27.6435 39.0471" stroke="white" stroke-width="0.25" stroke-miterlimit="10"/>
</g>
<path id="Vector_38" d="M24.0474 35.4365C23.9263 35.6777 23.6462 35.7789 23.4115 35.6621C23.1768 35.5454 23.086 35.2497 23.2071 35.0007C23.3282 34.7595 23.6083 34.6583 23.843 34.775C24.0777 34.8917 24.1686 35.1874 24.0474 35.4365Z" fill="#00679A" stroke="white" stroke-width="0.25" stroke-miterlimit="10"/>
<path id="Vector_39" d="M24.7818 34.5415C24.6607 34.7827 24.3806 34.8839 24.1459 34.7672C23.9112 34.6504 23.8203 34.3547 23.9415 34.1057C24.0626 33.8645 24.3427 33.7633 24.5774 33.8801C24.8121 33.9968 24.903 34.2925 24.7818 34.5415Z" fill="#00679A" stroke="white" stroke-width="0.25" stroke-miterlimit="10"/>
<path id="Vector_40" d="M23.0934 35.7632C22.9722 36.0044 22.6921 36.1056 22.4574 35.9889C22.2227 35.8644 22.1319 35.5764 22.253 35.3274C22.3742 35.0862 22.6543 34.985 22.889 35.1018C23.1237 35.2185 23.2145 35.5142 23.0934 35.7632Z" fill="#00679A" stroke="white" stroke-width="0.25" stroke-miterlimit="10"/>
<path id="Vector_41" d="M23.2527 34.9228C23.1316 35.164 22.8515 35.2652 22.6168 35.1485C22.3821 35.0317 22.2913 34.736 22.4124 34.487C22.5335 34.2458 22.8136 34.1446 23.0483 34.2613C23.283 34.3781 23.3739 34.6738 23.2527 34.9228Z" fill="#00679A" stroke="white" stroke-width="0.25" stroke-miterlimit="10"/>
<path id="Vector_42" d="M21.9425 35.2185C21.8213 35.4598 21.5412 35.5609 21.3065 35.4442C21.0718 35.3275 20.981 35.0318 21.1021 34.7828C21.2232 34.5415 21.5034 34.4404 21.7381 34.5571C21.9728 34.6816 22.0636 34.9695 21.9425 35.2185Z" fill="#00679A" stroke="white" stroke-width="0.25" stroke-miterlimit="10"/>
<path id="Vector_43" d="M21.1399 33.7789C21.0188 34.0201 20.7387 34.1213 20.504 34.0046C20.2693 33.8879 20.1784 33.5922 20.2996 33.3431C20.4207 33.1019 20.7008 33.0007 20.9355 33.1175C21.1702 33.2342 21.261 33.5299 21.1399 33.7789Z" fill="#00679A" stroke="white" stroke-width="0.25" stroke-miterlimit="10"/>
<path id="Vector_44" d="M21.0342 34.7983C20.9131 35.0395 20.633 35.1407 20.3983 35.0239C20.1636 34.8994 20.0728 34.6115 20.1939 34.3625C20.315 34.1213 20.5951 34.0201 20.8298 34.1368C21.0645 34.2613 21.1554 34.5493 21.0342 34.7983Z" fill="#00679A" stroke="white" stroke-width="0.25" stroke-miterlimit="10"/>
<g id="Vector_45">
<path d="M22.0866 35.9578C21.4128 36.1679 21.9882 36.4636 21.9882 36.4636C25.6297 37.125 27.9085 36.627 27.9085 36.627C28.393 36.3469 27.8404 36.2068 27.8404 36.2068C27.8404 36.2068 27.2726 36.1912 26.6442 35.9189" fill="#00679A"/>
<path d="M22.0866 35.9578C21.4128 36.1679 21.9882 36.4636 21.9882 36.4636C25.6297 37.125 27.9085 36.627 27.9085 36.627C28.393 36.3469 27.8404 36.2068 27.8404 36.2068C27.8404 36.2068 27.2726 36.1912 26.6442 35.9189" stroke="white" stroke-width="0.25" stroke-miterlimit="10"/>
</g>
<g id="Vector_46">
<path d="M21.3374 37.9421C21.0725 37.374 21.716 37.2184 21.716 37.2184C21.716 37.2184 24.0251 37.981 26.16 37.7631" fill="#00679A"/>
<path d="M21.3374 37.9421C21.0725 37.374 21.716 37.2184 21.716 37.2184C21.716 37.2184 24.0251 37.981 26.16 37.7631" stroke="white" stroke-width="0.25" stroke-miterlimit="10"/>
</g>
<path id="Vector_47" d="M21.2765 38.16C21.1553 38.4012 20.8752 38.5024 20.6405 38.3856C20.4058 38.2611 20.315 37.9732 20.4361 37.7242C20.5572 37.483 20.8374 37.3818 21.072 37.4985C21.3067 37.623 21.3976 37.911 21.2765 38.16Z" fill="#00679A" stroke="white" stroke-width="0.25" stroke-miterlimit="10"/>
<path id="Vector_48" d="M20.3149 37.9888C20.1938 38.2301 19.9137 38.3312 19.679 38.2145C19.4443 38.09 19.3534 37.8021 19.4746 37.5531C19.5957 37.3118 19.8758 37.2107 20.1105 37.3274C20.3452 37.4519 20.436 37.7398 20.3149 37.9888Z" fill="#00679A" stroke="white" stroke-width="0.25" stroke-miterlimit="10"/>
<path id="Vector_49" d="M20.7162 37.125C20.5951 37.3663 20.315 37.4674 20.0803 37.3507C19.8456 37.2262 19.7547 36.9383 19.8759 36.6893C19.997 36.448 20.2771 36.3469 20.5118 36.4636C20.7465 36.5881 20.8373 36.876 20.7162 37.125Z" fill="#00679A" stroke="white" stroke-width="0.25" stroke-miterlimit="10"/>
<path id="Vector_50" d="M19.9742 36.7204C19.853 36.9616 19.5729 37.0628 19.3382 36.946C19.1035 36.8293 19.0127 36.5336 19.1338 36.2846C19.255 36.0434 19.5351 35.9422 19.7698 36.0589C20.0045 36.1834 20.0953 36.4713 19.9742 36.7204Z" fill="#00679A" stroke="white" stroke-width="0.25" stroke-miterlimit="10"/>
<path id="Vector_51" d="M19.119 36.4791C18.9978 36.7204 18.7177 36.8215 18.483 36.7048C18.2483 36.5881 18.1575 36.2924 18.2786 36.0433C18.3997 35.8021 18.6798 35.701 18.9145 35.8177C19.1492 35.9422 19.2401 36.2301 19.119 36.4791Z" fill="#00679A" stroke="white" stroke-width="0.25" stroke-miterlimit="10"/>
<path id="Vector_52" d="M20.845 36.199C20.7239 36.4403 20.4438 36.5414 20.2091 36.4247C19.9744 36.308 19.8835 36.0123 20.0047 35.7633C20.1258 35.522 20.4059 35.4209 20.6406 35.5376C20.8753 35.6543 20.9662 35.95 20.845 36.199Z" fill="#00679A" stroke="white" stroke-width="0.25" stroke-miterlimit="10"/>
<g id="Vector_53">
<path d="M28.908 43.506C33.7002 41.6151 33.5337 38.3156 33.5337 38.3156C31.5274 37.8176 29.1729 42.4244 29.1729 42.4244" fill="#00679A"/>
<path d="M28.908 43.506C33.7002 41.6151 33.5337 38.3156 33.5337 38.3156C31.5274 37.8176 29.1729 42.4244 29.1729 42.4244" stroke="white" stroke-width="0.25" stroke-miterlimit="10"/>
</g>
<g id="Vector_54">
<path d="M21.7079 39.8408C20.0878 39.1716 19.7698 39.8252 19.7698 39.8252C19.5048 39.5529 19.8531 38.9848 19.8531 38.9848C20.4057 38.658 21.5035 39.0548 21.5035 39.0548C22.5861 39.475 23.6006 39.226 23.6006 39.226C24.8649 39.1326 24.9936 37.802 24.9936 37.802" fill="#00679A"/>
<path d="M21.7079 39.8408C20.0878 39.1716 19.7698 39.8252 19.7698 39.8252C19.5048 39.5529 19.8531 38.9848 19.8531 38.9848C20.4057 38.658 21.5035 39.0548 21.5035 39.0548C22.5861 39.475 23.6006 39.226 23.6006 39.226C24.8649 39.1326 24.9936 37.802 24.9936 37.802" stroke="white" stroke-width="0.25" stroke-miterlimit="10"/>
</g>
<g id="Vector_55">
<path d="M21.1861 41.4439C21.9129 40.6969 22.5867 40.6035 22.5867 40.6035C23.2983 40.6969 23.8661 40.4167 23.8661 40.4167C24.4037 40.4556 25.2592 39.3351 25.2592 39.3351C26.3569 37.8332 27.6818 37.8332 27.6818 37.8332C27.0307 38.2145 26.6598 38.8993 26.6446 39.1327" fill="#00679A"/>
<path d="M21.1861 41.4439C21.9129 40.6969 22.5867 40.6035 22.5867 40.6035C23.2983 40.6969 23.8661 40.4167 23.8661 40.4167C24.4037 40.4556 25.2592 39.3351 25.2592 39.3351C26.3569 37.8332 27.6818 37.8332 27.6818 37.8332C27.0307 38.2145 26.6598 38.8993 26.6446 39.1327" stroke="white" stroke-width="0.25" stroke-miterlimit="10"/>
</g>
<path id="Vector_56" d="M19.5803 39.1872C19.4592 39.4284 19.179 39.5296 18.9443 39.4129C18.7097 39.2884 18.6188 39.0004 18.7399 38.7514C18.8611 38.5102 19.1412 38.409 19.3759 38.5257C19.6106 38.6425 19.7014 38.9382 19.5803 39.1872Z" fill="#00679A" stroke="white" stroke-width="0.25" stroke-miterlimit="10"/>
<path id="Vector_57" d="M18.8465 38.2612C18.7254 38.5024 18.4452 38.6036 18.2105 38.4868C17.9759 38.3701 17.885 38.0744 18.0061 37.8254C18.1273 37.5842 18.4074 37.483 18.6421 37.5997C18.8768 37.7164 18.9676 38.0122 18.8465 38.2612Z" fill="#00679A" stroke="white" stroke-width="0.25" stroke-miterlimit="10"/>
<path id="Vector_58" d="M18.3239 39.9965C18.2027 40.2377 17.9226 40.3389 17.6879 40.2221C17.4532 40.1054 17.3624 39.8097 17.4835 39.5607C17.6047 39.3194 17.8848 39.2183 18.1195 39.335C18.3542 39.4595 18.445 39.7474 18.3239 39.9965Z" fill="#00679A" stroke="white" stroke-width="0.25" stroke-miterlimit="10"/>
<path id="Vector_59" d="M18.1651 41.8096C18.044 42.0508 17.7639 42.152 17.5292 42.0353C17.2945 41.9108 17.2036 41.6228 17.3248 41.3738C17.4459 41.1326 17.726 41.0314 17.9607 41.1482C18.1954 41.2727 18.2863 41.5606 18.1651 41.8096Z" fill="#00679A" stroke="white" stroke-width="0.25" stroke-miterlimit="10"/>
<path id="Vector_60" d="M19.7399 40.4167C19.6188 40.6579 19.3387 40.759 19.104 40.6423C18.8693 40.5256 18.7784 40.2299 18.8996 39.9809C19.0207 39.7396 19.3008 39.6385 19.5355 39.7552C19.7702 39.8719 19.8611 40.1676 19.7399 40.4167Z" fill="#00679A" stroke="white" stroke-width="0.25" stroke-miterlimit="10"/>
<path id="Vector_61" d="M19.6036 41.5061C19.4825 41.7474 19.2024 41.8485 18.9677 41.7318C18.733 41.6073 18.6421 41.3194 18.7632 41.0704C18.8844 40.8291 19.1645 40.728 19.3992 40.8447C19.6339 40.9692 19.7247 41.2571 19.6036 41.5061Z" fill="#00679A" stroke="white" stroke-width="0.25" stroke-miterlimit="10"/>
<path id="Vector_62" d="M21.5115 42.4633C21.3904 42.7045 21.1102 42.8057 20.8756 42.689C20.6409 42.5644 20.55 42.2765 20.6711 42.0275C20.7923 41.7863 21.0724 41.6851 21.3071 41.8018C21.5418 41.9186 21.6326 42.2143 21.5115 42.4633Z" fill="#00679A" stroke="white" stroke-width="0.25" stroke-miterlimit="10"/>
<path id="Vector_63" d="M19.9138 42.6189C19.7927 42.8602 19.5126 42.9613 19.2779 42.8446C19.0432 42.7279 18.9523 42.4322 19.0735 42.1831C19.1946 41.9419 19.4747 41.8408 19.7094 41.9575C19.9441 42.082 20.0349 42.3699 19.9138 42.6189Z" fill="#00679A" stroke="white" stroke-width="0.25" stroke-miterlimit="10"/>
<path id="Vector_64" d="M18.763 43.078C18.6419 43.3192 18.3617 43.4204 18.1271 43.3037C17.8924 43.1792 17.8015 42.8912 17.9226 42.6422C18.0438 42.401 18.3239 42.2998 18.5586 42.4166C18.7933 42.5411 18.8841 42.829 18.763 43.078Z" fill="#00679A" stroke="white" stroke-width="0.25" stroke-miterlimit="10"/>
<g id="Vector_65">
<path d="M27.1668 49.9337C26.4098 50.2139 26.7353 49.5369 26.7353 49.5369C29.6349 46.3853 32.05 45.2491 32.05 45.2491C32.6859 45.1713 32.262 45.6771 32.262 45.6771C32.262 45.6771 31.7547 46.0818 31.3535 46.7821" fill="#00679A"/>
<path d="M27.1668 49.9337C26.4098 50.2139 26.7353 49.5369 26.7353 49.5369C29.6349 46.3853 32.05 45.2491 32.05 45.2491C32.6859 45.1713 32.262 45.6771 32.262 45.6771C32.262 45.6771 31.7547 46.0818 31.3535 46.7821" stroke="white" stroke-width="0.25" stroke-miterlimit="10"/>
</g>
<g id="Vector_66">
<path d="M25.1602 48.642C25.2965 49.3501 25.9854 49.0388 25.9854 49.0388C25.9854 49.0388 27.5904 46.7277 29.6951 45.4359" fill="#00679A"/>
<path d="M25.1602 48.642C25.2965 49.3501 25.9854 49.0388 25.9854 49.0388C25.9854 49.0388 27.5904 46.7277 29.6951 45.4359" stroke="white" stroke-width="0.25" stroke-miterlimit="10"/>
</g>
<path id="Vector_67" d="M24.9636 48.4863C24.691 48.3462 24.3655 48.4552 24.2292 48.7275C24.0929 48.9999 24.2065 49.3345 24.479 49.4746C24.7516 49.6146 25.0771 49.5057 25.2134 49.2333C25.3497 48.961 25.2361 48.6264 24.9636 48.4863Z" fill="#00679A" stroke="white" stroke-width="0.25" stroke-miterlimit="10"/>
<path id="Vector_68" d="M24.1916 49.3112C23.919 49.1711 23.5935 49.2801 23.4572 49.5524C23.3209 49.8248 23.4345 50.1594 23.707 50.2995C23.9796 50.4396 24.3051 50.3306 24.4414 50.0583C24.5777 49.7859 24.4641 49.4513 24.1916 49.3112Z" fill="#00679A" stroke="white" stroke-width="0.25" stroke-miterlimit="10"/>
<path id="Vector_69" d="M25.13 49.8248C24.8574 49.6847 24.5319 49.7936 24.3956 50.066C24.2594 50.3384 24.3729 50.673 24.6455 50.813C24.918 50.9531 25.2436 50.8442 25.3798 50.5718C25.5161 50.2994 25.4025 49.9648 25.13 49.8248Z" fill="#00679A" stroke="white" stroke-width="0.25" stroke-miterlimit="10"/>
<path id="Vector_70" d="M24.721 50.7197C24.4485 50.5796 24.1229 50.6885 23.9867 50.9609C23.8504 51.2332 23.964 51.5679 24.2365 51.7079C24.5091 51.848 24.8346 51.7391 24.9709 51.4667C25.1071 51.1943 24.9936 50.8597 24.721 50.7197Z" fill="#00679A" stroke="white" stroke-width="0.25" stroke-miterlimit="10"/>
<path id="Vector_71" d="M24.1001 51.529C23.8275 51.3889 23.502 51.4978 23.3657 51.7702C23.2295 52.0425 23.343 52.3772 23.6156 52.5172C23.8881 52.6573 24.2137 52.5484 24.3499 52.276C24.4862 52.0036 24.3726 51.669 24.1001 51.529Z" fill="#00679A" stroke="white" stroke-width="0.25" stroke-miterlimit="10"/>
<path id="Vector_72" d="M25.8644 50.5796C25.5919 50.4395 25.2663 50.5485 25.13 50.8208C24.9938 51.0932 25.1073 51.4278 25.3799 51.5679C25.6524 51.7079 25.978 51.599 26.1142 51.3266C26.2505 51.0543 26.1369 50.7197 25.8644 50.5796Z" fill="#00679A" stroke="white" stroke-width="0.25" stroke-miterlimit="10"/>
<g id="Vector_73">
<path d="M24.2365 46.642C23.1918 48.3929 22.4725 48.0194 22.4725 48.0194C22.412 48.4552 23.1085 48.7353 23.1085 48.7353C23.8353 48.6419 24.5696 47.5136 24.5696 47.5136C25.2813 46.3697 26.3791 45.895 26.3791 45.895C27.5979 45.0935 28.5973 46.2218 28.5973 46.2218" fill="#00679A"/>
<path d="M24.2365 46.642C23.1918 48.3929 22.4725 48.0194 22.4725 48.0194C22.412 48.4552 23.1085 48.7353 23.1085 48.7353C23.8353 48.6419 24.5696 47.5136 24.5696 47.5136C25.2813 46.3697 26.3791 45.895 26.3791 45.895C27.5979 45.0935 28.5973 46.2218 28.5973 46.2218" stroke="white" stroke-width="0.25" stroke-miterlimit="10"/>
</g>
<g id="Vector_74">
<path d="M22.6995 45.5449C23.8578 45.7161 24.5392 45.3348 24.5392 45.3348C25.1297 44.7511 25.8338 44.6111 25.8338 44.6111C26.3032 44.1908 27.8249 44.6266 27.8249 44.6266C29.8312 45.2336 31.0349 44.3076 31.0349 44.3076C30.187 44.4165 29.3921 44.043 29.2255 43.8407" fill="#00679A"/>
<path d="M22.6995 45.5449C23.8578 45.7161 24.5392 45.3348 24.5392 45.3348C25.1297 44.7511 25.8338 44.6111 25.8338 44.6111C26.3032 44.1908 27.8249 44.6266 27.8249 44.6266C29.8312 45.2336 31.0349 44.3076 31.0349 44.3076C30.187 44.4165 29.3921 44.043 29.2255 43.8407" stroke="white" stroke-width="0.25" stroke-miterlimit="10"/>
</g>
<path id="Vector_75" d="M22.7298 48.7353C22.4572 48.5953 22.1317 48.7042 21.9954 48.9766C21.8592 49.2489 21.9727 49.5836 22.2453 49.7236C22.5178 49.8637 22.8434 49.7547 22.9796 49.4824C23.1159 49.21 23.0023 48.8754 22.7298 48.7353Z" fill="#00679A" stroke="white" stroke-width="0.25" stroke-miterlimit="10"/>
<path id="Vector_76" d="M22.6697 50.0971C22.3972 49.9571 22.0716 50.066 21.9354 50.3384C21.7991 50.6107 21.9127 50.9453 22.1852 51.0854C22.4578 51.2255 22.7833 51.1165 22.9196 50.8442C23.0558 50.5718 22.9423 50.2372 22.6697 50.0971Z" fill="#00679A" stroke="white" stroke-width="0.25" stroke-miterlimit="10"/>
<path id="Vector_77" d="M21.0419 48.8676C20.7694 48.7275 20.4438 48.8365 20.3076 49.1088C20.1713 49.3812 20.2848 49.7158 20.5574 49.8559C20.8299 49.996 21.1555 49.887 21.2918 49.6146C21.428 49.3423 21.3145 49.0077 21.0419 48.8676Z" fill="#00679A" stroke="white" stroke-width="0.25" stroke-miterlimit="10"/>
<path id="Vector_78" d="M19.6789 47.319C19.4064 47.179 19.0808 47.2879 18.9446 47.5603C18.8083 47.8326 18.9218 48.1672 19.1944 48.3073C19.4669 48.4474 19.7925 48.3384 19.9288 48.0661C20.065 47.7937 19.9515 47.4591 19.6789 47.319Z" fill="#00679A" stroke="white" stroke-width="0.25" stroke-miterlimit="10"/>
<path id="Vector_79" d="M22.0488 47.4902C21.7762 47.3502 21.4507 47.4591 21.3144 47.7315C21.1781 48.0038 21.2917 48.3384 21.5642 48.4785C21.8368 48.6186 22.1623 48.5096 22.2986 48.2373C22.4349 47.9649 22.3213 47.6303 22.0488 47.4902Z" fill="#00679A" stroke="white" stroke-width="0.25" stroke-miterlimit="10"/>
<path id="Vector_80" d="M21.2086 46.5954C20.936 46.4553 20.6105 46.5642 20.4742 46.8366C20.3379 47.109 20.4515 47.4436 20.7241 47.5836C20.9966 47.7237 21.3221 47.6148 21.4584 47.3424C21.5947 47.07 21.4811 46.7354 21.2086 46.5954Z" fill="#00679A" stroke="white" stroke-width="0.25" stroke-miterlimit="10"/>
<path id="Vector_81" d="M22.3214 44.3776C22.0489 44.2375 21.7233 44.3464 21.587 44.6188C21.4508 44.8911 21.5643 45.2258 21.8369 45.3658C22.1094 45.5059 22.435 45.397 22.5712 45.1246C22.7075 44.8522 22.594 44.5176 22.3214 44.3776Z" fill="#00679A" stroke="white" stroke-width="0.25" stroke-miterlimit="10"/>
<path id="Vector_82" d="M20.7545 45.3503C20.482 45.2102 20.1564 45.3192 20.0201 45.5915C19.8839 45.8639 19.9974 46.1985 20.27 46.3386C20.5425 46.4787 20.8681 46.3697 21.0043 46.0973C21.1406 45.825 21.0271 45.4904 20.7545 45.3503Z" fill="#00679A" stroke="white" stroke-width="0.25" stroke-miterlimit="10"/>
<path id="Vector_83" d="M19.3992 45.7394C19.1267 45.5993 18.8011 45.7082 18.6649 45.9806C18.5286 46.253 18.6421 46.5876 18.9147 46.7276C19.1872 46.8677 19.5128 46.7588 19.6491 46.4864C19.7853 46.2141 19.6718 45.8794 19.3992 45.7394Z" fill="#00679A" stroke="white" stroke-width="0.25" stroke-miterlimit="10"/>
<g id="Vector_84">
<path d="M22.6542 42.759C22.1697 43.2025 22.7072 43.2726 22.7072 43.2726C25.7961 42.5489 27.4844 41.2415 27.4844 41.2415C27.7948 40.798 27.3178 40.8758 27.3178 40.8758C27.3178 40.8758 26.8636 41.0703 26.2882 41.047" fill="#00679A"/>
<path d="M22.6542 42.759C22.1697 43.2025 22.7072 43.2726 22.7072 43.2726C25.7961 42.5489 27.4844 41.2415 27.4844 41.2415C27.7948 40.798 27.3178 40.8758 27.3178 40.8758C27.3178 40.8758 26.8636 41.0703 26.2882 41.047" stroke="white" stroke-width="0.25" stroke-miterlimit="10"/>
</g>
<g id="Vector_85">
<path d="M23.4947 44.6655C23.0329 44.2453 23.5704 43.8484 23.5704 43.8484C23.5704 43.8484 25.9779 43.6228 27.8706 42.5722" fill="#00679A"/>
<path d="M23.4947 44.6655C23.0329 44.2453 23.5704 43.8484 23.5704 43.8484C23.5704 43.8484 25.9779 43.6228 27.8706 42.5722" stroke="white" stroke-width="0.25" stroke-miterlimit="10"/>
</g>
<path id="Vector_86" d="M21.5263 45.9261C21.4809 45.6615 21.6474 45.4047 21.9048 45.3502C22.1622 45.3036 22.4045 45.4825 22.4575 45.7471C22.5029 46.0117 22.3364 46.2685 22.079 46.323C21.8215 46.3696 21.5717 46.1907 21.5263 45.9261Z" fill="#00679A" stroke="white" stroke-width="0.25" stroke-miterlimit="10"/>
<path id="Vector_87" d="M21.776 46.8677C21.7306 46.6032 21.8971 46.3464 22.1545 46.2919C22.4119 46.2452 22.6618 46.4242 22.7072 46.6888C22.7526 46.9533 22.5861 47.2101 22.3286 47.2646C22.0712 47.3113 21.829 47.1323 21.776 46.8677Z" fill="#00679A" stroke="white" stroke-width="0.25" stroke-miterlimit="10"/>
<path id="Vector_88" d="M22.8589 46.4786C22.8135 46.2141 22.9801 45.9573 23.2375 45.9028C23.4949 45.8561 23.7447 46.0351 23.7901 46.2997C23.8356 46.5642 23.669 46.821 23.4116 46.8755C23.1542 46.9222 22.9119 46.7432 22.8589 46.4786Z" fill="#00679A" stroke="white" stroke-width="0.25" stroke-miterlimit="10"/>
<path id="Vector_89" d="M17.8014 44.8055C17.756 44.541 17.9225 44.2842 18.1799 44.2297C18.4373 44.183 18.6872 44.362 18.7326 44.6266C18.778 44.8911 18.6115 45.1479 18.3541 45.2024C18.0967 45.2491 17.8544 45.0701 17.8014 44.8055Z" fill="#00679A" stroke="white" stroke-width="0.25" stroke-miterlimit="10"/>
<path id="Vector_90" d="M18.8843 45.1168C18.8389 44.8522 19.0055 44.5954 19.2629 44.5409C19.5203 44.4943 19.7701 44.6732 19.8155 44.9378C19.8609 45.2024 19.6944 45.4592 19.437 45.5137C19.1796 45.5604 18.9373 45.3814 18.8843 45.1168Z" fill="#00679A" stroke="white" stroke-width="0.25" stroke-miterlimit="10"/>
<path id="Vector_91" d="M19.664 44.6188C19.6186 44.3542 19.7852 44.0974 20.0426 44.043C20.3 43.9963 20.5498 44.1753 20.5952 44.4398C20.6407 44.7044 20.4741 44.9612 20.2167 45.0157C19.9593 45.0624 19.717 44.8834 19.664 44.6188Z" fill="#00679A" stroke="white" stroke-width="0.25" stroke-miterlimit="10"/>
<path id="Vector_92" d="M20.6936 44.2686C20.6481 44.004 20.8147 43.7472 21.0721 43.6928C21.3295 43.6461 21.5718 43.8251 21.6248 44.0896C21.6702 44.3542 21.5036 44.611 21.2462 44.6655C20.9888 44.7122 20.739 44.5332 20.6936 44.2686Z" fill="#00679A" stroke="white" stroke-width="0.25" stroke-miterlimit="10"/>
<path id="Vector_93" d="M17.0824 43.7161C17.037 43.4516 17.2035 43.1948 17.4609 43.1403C17.7184 43.0936 17.9606 43.2726 18.0136 43.5371C18.059 43.8017 17.8925 44.0585 17.6351 44.113C17.3777 44.1597 17.1354 43.9807 17.0824 43.7161Z" fill="#00679A" stroke="white" stroke-width="0.25" stroke-miterlimit="10"/>
<path id="Vector_94" d="M19.9743 41.2026C19.9289 40.938 20.0955 40.6812 20.3529 40.6268C20.6103 40.5801 20.8601 40.7591 20.9055 41.0236C20.951 41.2882 20.7844 41.545 20.527 41.5995C20.2696 41.6462 20.0273 41.4672 19.9743 41.2026Z" fill="#00679A" stroke="white" stroke-width="0.25" stroke-miterlimit="10"/>
<path id="Vector_95" d="M18.9373 43.5294C18.8919 43.2648 19.0585 43.008 19.3159 42.9535C19.5733 42.9068 19.8231 43.0858 19.8685 43.3504C19.914 43.615 19.7474 43.8718 19.49 43.9262C19.2326 43.9729 18.9828 43.7939 18.9373 43.5294Z" fill="#00679A" stroke="white" stroke-width="0.25" stroke-miterlimit="10"/>
<path id="Vector_96" d="M19.9743 43.1792C19.9289 42.9146 20.0955 42.6578 20.3529 42.6033C20.6103 42.5566 20.8601 42.7356 20.9055 43.0002C20.951 43.2648 20.7844 43.5216 20.527 43.576C20.2696 43.6227 20.0198 43.4437 19.9743 43.1792Z" fill="#00679A" stroke="white" stroke-width="0.25" stroke-miterlimit="10"/>
<path id="Vector_97" d="M46.0103 27.678C46.1314 27.9193 46.4115 28.0204 46.6462 27.9037C46.8809 27.7792 46.9717 27.4913 46.8506 27.2423C46.7295 27.001 46.4494 26.8999 46.2147 27.0166C45.98 27.1333 45.8891 27.429 46.0103 27.678Z" fill="#00679A" stroke="white" stroke-width="0.25" stroke-miterlimit="10"/>
<g id="Vector_98">
<path d="M46.3814 27.966L44.9051 29.1955C43.5423 30.0359 41.96 29.888 41.3619 28.8686C40.7941 27.8959 41.3241 26.4874 42.5505 25.6314L44.6931 23.5226" fill="#00679A"/>
<path d="M46.3814 27.966L44.9051 29.1955C43.5423 30.0359 41.96 29.888 41.3619 28.8686C40.7941 27.8959 41.3241 26.4874 42.5505 25.6314L44.6931 23.5226" stroke="white" stroke-width="0.25" stroke-miterlimit="10"/>
</g>
<path id="Vector_99" d="M46.2451 26.7364C46.3662 26.9777 46.6463 27.0788 46.881 26.9621C47.1157 26.8454 47.2066 26.5497 47.0854 26.3007C46.9643 26.0594 46.6842 25.9583 46.4495 26.075C46.2148 26.1917 46.124 26.4874 46.2451 26.7364Z" fill="#00679A" stroke="white" stroke-width="0.25" stroke-miterlimit="10"/>
<path id="Vector_100" d="M46.7145 26.005C46.8356 26.2462 47.1158 26.3474 47.3505 26.2306C47.5851 26.1139 47.676 25.8182 47.5549 25.5692C47.4337 25.3279 47.1536 25.2268 46.9189 25.3435C46.6842 25.4602 46.5934 25.7559 46.7145 26.005Z" fill="#00679A" stroke="white" stroke-width="0.25" stroke-miterlimit="10"/>
<path id="Vector_101" d="M47.6302 25.9194C47.7513 26.1606 48.0314 26.2618 48.2661 26.145C48.5008 26.0283 48.5916 25.7326 48.4705 25.4836C48.3494 25.2424 48.0693 25.1412 47.8346 25.2579C47.5999 25.3747 47.509 25.6704 47.6302 25.9194Z" fill="#00679A" stroke="white" stroke-width="0.25" stroke-miterlimit="10"/>
<path id="Vector_102" d="M48.6603 25.5536C48.7814 25.7949 49.0615 25.896 49.2962 25.7793C49.5309 25.6548 49.6217 25.3669 49.5006 25.1179C49.3795 24.8766 49.0994 24.7755 48.8647 24.8922C48.63 25.0089 48.5391 25.3046 48.6603 25.5536Z" fill="#00679A" stroke="white" stroke-width="0.25" stroke-miterlimit="10"/>
<path id="Vector_103" d="M47.4712 27.0866C47.5923 27.3279 47.8724 27.429 48.1071 27.3123C48.3418 27.1878 48.4327 26.8999 48.3115 26.6508C48.1904 26.4096 47.9103 26.3085 47.6756 26.4252C47.4409 26.5497 47.3501 26.8376 47.4712 27.0866Z" fill="#00679A" stroke="white" stroke-width="0.25" stroke-miterlimit="10"/>
<path id="Vector_104" d="M49.092 26.7443C49.2131 26.9855 49.4932 27.0867 49.7279 26.9699C49.9626 26.8454 50.0534 26.5575 49.9323 26.3085C49.8112 26.0673 49.5311 25.9661 49.2964 26.0828C49.0617 26.1996 48.9708 26.4953 49.092 26.7443Z" fill="#00679A" stroke="white" stroke-width="0.25" stroke-miterlimit="10"/>
<path id="Vector_105" d="M48.9173 28.0749C49.0385 28.3161 49.3186 28.4173 49.5533 28.3006C49.788 28.1761 49.8788 27.8882 49.7577 27.6391C49.6366 27.3979 49.3564 27.2967 49.1217 27.4135C48.887 27.5302 48.7962 27.8259 48.9173 28.0749Z" fill="#00679A" stroke="white" stroke-width="0.25" stroke-miterlimit="10"/>
<path id="Vector_106" d="M47.9406 28.1683C48.0618 28.4095 48.3419 28.5107 48.5766 28.394C48.8113 28.2772 48.9021 27.9815 48.781 27.7325C48.6599 27.4913 48.3798 27.3901 48.1451 27.5069C47.9104 27.6236 47.8195 27.9193 47.9406 28.1683Z" fill="#00679A" stroke="white" stroke-width="0.25" stroke-miterlimit="10"/>
<path id="Vector_107" d="M48.4479 27.2812C48.5691 27.5224 48.8492 27.6236 49.0839 27.5068C49.3186 27.3901 49.4094 27.0944 49.2883 26.8454C49.1672 26.6042 48.887 26.503 48.6524 26.6197C48.4177 26.7442 48.3268 27.0322 48.4479 27.2812Z" fill="#00679A" stroke="white" stroke-width="0.25" stroke-miterlimit="10"/>
<path id="Vector_108" d="M49.6518 27.2189C49.7729 27.4601 50.053 27.5613 50.2877 27.4446C50.5224 27.3279 50.6133 27.0322 50.4921 26.7831C50.371 26.5419 50.0909 26.4407 49.8562 26.5575C49.6215 26.6742 49.5306 26.9699 49.6518 27.2189Z" fill="#00679A" stroke="white" stroke-width="0.25" stroke-miterlimit="10"/>
<path id="Vector_109" d="M50.2197 28.0593C50.3409 28.3005 50.621 28.4017 50.8557 28.285C51.0904 28.1605 51.1812 27.8725 51.0601 27.6235C50.939 27.3823 50.6588 27.2811 50.4241 27.3979C50.1894 27.5224 50.0986 27.8103 50.2197 28.0593Z" fill="#00679A" stroke="white" stroke-width="0.25" stroke-miterlimit="10"/>
<path id="Vector_110" d="M50.4086 26.9777C50.5297 27.219 50.8098 27.3201 51.0445 27.2034C51.2792 27.0867 51.3701 26.791 51.2489 26.5419C51.1278 26.3007 50.8477 26.1995 50.613 26.3163C50.3783 26.433 50.2874 26.7287 50.4086 26.9777Z" fill="#00679A" stroke="white" stroke-width="0.25" stroke-miterlimit="10"/>
<path id="Vector_111" d="M49.6061 26.1373C49.7272 26.3785 50.0073 26.4797 50.242 26.3629C50.4767 26.2462 50.5675 25.9505 50.4464 25.7015C50.3253 25.4603 50.0452 25.3591 49.8105 25.4758C49.5758 25.5925 49.4849 25.8883 49.6061 26.1373Z" fill="#00679A" stroke="white" stroke-width="0.25" stroke-miterlimit="10"/>
<path id="Vector_112" d="M49.5988 28.7597C49.7199 29.0009 50 29.1021 50.2347 28.9854C50.4694 28.8687 50.5603 28.573 50.4391 28.3239C50.318 28.0827 50.0379 27.9815 49.8032 28.0983C49.5685 28.215 49.4777 28.5107 49.5988 28.7597Z" fill="#00679A" stroke="white" stroke-width="0.25" stroke-miterlimit="10"/>
<path id="Vector_113" d="M47.0171 27.9193C47.1383 28.1605 47.4184 28.2617 47.6531 28.1449C47.8878 28.0204 47.9786 27.7325 47.8575 27.4835C47.7363 27.2423 47.4562 27.1411 47.2215 27.2578C46.9868 27.3823 46.896 27.6703 47.0171 27.9193Z" fill="#00679A" stroke="white" stroke-width="0.25" stroke-miterlimit="10"/>
<g id="Vector_114">
<path d="M48.4477 28.464L48.054 29.2266L46.5474 29.9036C46.0553 30.0048 46.184 29.5845 46.184 29.5845C47.3196 28.534 47.0774 28.3083 47.3726 28.2227" fill="#00679A"/>
<path d="M48.4477 28.464L48.054 29.2266L46.5474 29.9036C46.0553 30.0048 46.184 29.5845 46.184 29.5845C47.3196 28.534 47.0774 28.3083 47.3726 28.2227" stroke="white" stroke-width="0.25" stroke-miterlimit="10"/>
</g>
<g id="Vector_115">
<path d="M49.5984 28.7597L49.0684 29.3822L47.895 29.9191L50.2797 30.0359L50.7264 29.8258" fill="#00679A"/>
<path d="M49.5984 28.7597L49.0684 29.3822L47.895 29.9191L50.2797 30.0359L50.7264 29.8258" stroke="white" stroke-width="0.25" stroke-miterlimit="10"/>
</g>
<path id="Vector_116" d="M50.7571 29.6779C50.8782 29.9191 51.1584 30.0203 51.3931 29.9036C51.6277 29.7869 51.7186 29.4912 51.5975 29.2421C51.4763 29.0009 51.1962 28.8997 50.9615 29.0165C50.7268 29.1332 50.636 29.4289 50.7571 29.6779Z" fill="#00679A" stroke="white" stroke-width="0.25" stroke-miterlimit="10"/>
<path id="Vector_117" d="M51.938 29.4989C52.0591 29.7402 52.3392 29.8413 52.5739 29.7246C52.8086 29.6079 52.8994 29.3122 52.7783 29.0632C52.6572 28.8219 52.3771 28.7208 52.1424 28.8375C51.9077 28.9542 51.8168 29.2499 51.938 29.4989Z" fill="#00679A" stroke="white" stroke-width="0.25" stroke-miterlimit="10"/>
<path id="Vector_118" d="M52.8469 30.2538C52.968 30.495 53.2481 30.5962 53.4828 30.4794C53.7175 30.3549 53.8084 30.067 53.6872 29.818C53.5661 29.5768 53.286 29.4756 53.0513 29.5923C52.8166 29.709 52.7257 30.0047 52.8469 30.2538Z" fill="#00679A" stroke="white" stroke-width="0.25" stroke-miterlimit="10"/>
<path id="Vector_119" d="M51.4236 30.4794C51.5448 30.7207 51.8249 30.8218 52.0596 30.7051C52.2943 30.5884 52.3851 30.2927 52.264 30.0437C52.1428 29.8024 51.8627 29.7013 51.628 29.818C51.3933 29.9347 51.3025 30.2304 51.4236 30.4794Z" fill="#00679A" stroke="white" stroke-width="0.25" stroke-miterlimit="10"/>
<path id="Vector_120" d="M51.5515 31.4522C51.6727 31.6934 51.9528 31.7946 52.1875 31.6778C52.4222 31.5611 52.513 31.2654 52.3919 31.0164C52.2708 30.7752 51.9907 30.674 51.756 30.7907C51.5213 30.9152 51.4304 31.2032 51.5515 31.4522Z" fill="#00679A" stroke="white" stroke-width="0.25" stroke-miterlimit="10"/>
<path id="Vector_121" d="M50.5831 31.2421C50.7043 31.4833 50.9844 31.5845 51.2191 31.4677C51.4538 31.351 51.5446 31.0553 51.4235 30.8063C51.3024 30.5651 51.0222 30.4639 50.7875 30.5806C50.5529 30.7051 50.462 30.993 50.5831 31.2421Z" fill="#00679A" stroke="white" stroke-width="0.25" stroke-miterlimit="10"/>
<g id="Vector_122">
<path d="M49.7805 31.7479L48.4935 31.1409C48.1453 30.9386 48.5995 30.8063 48.5995 30.8063C48.5995 30.8063 50.2802 30.7518 50.3635 30.7129" fill="#00679A"/>
<path d="M49.7805 31.7479L48.4935 31.1409C48.1453 30.9386 48.5995 30.8063 48.5995 30.8063C48.5995 30.8063 50.2802 30.7518 50.3635 30.7129" stroke="white" stroke-width="0.25" stroke-miterlimit="10"/>
</g>
<path id="Vector_123" d="M53.1493 31.8801C53.2704 32.1214 53.5505 32.2225 53.7852 32.1058C54.0199 31.9891 54.1108 31.6934 53.9896 31.4444C53.8685 31.2031 53.5884 31.102 53.3537 31.2187C53.119 31.3354 53.0281 31.6311 53.1493 31.8801Z" fill="#00679A" stroke="white" stroke-width="0.25" stroke-miterlimit="10"/>
<path id="Vector_124" d="M51.5069 32.6739C51.628 32.9151 51.9081 33.0163 52.1428 32.8996C52.3775 32.775 52.4684 32.4871 52.3472 32.2381C52.2261 31.9969 51.946 31.8957 51.7113 32.0124C51.4766 32.1292 51.3857 32.4249 51.5069 32.6739Z" fill="#00679A" stroke="white" stroke-width="0.25" stroke-miterlimit="10"/>
<path id="Vector_125" d="M52.6497 33.0319C52.7708 33.2731 53.0509 33.3743 53.2856 33.2575C53.5203 33.1408 53.6111 32.8451 53.49 32.5961C53.3689 32.3548 53.0888 32.2537 52.8541 32.3704C52.6194 32.4949 52.5285 32.7828 52.6497 33.0319Z" fill="#00679A" stroke="white" stroke-width="0.25" stroke-miterlimit="10"/>
<path id="Vector_126" d="M52.3011 32.2148C52.4222 32.456 52.7023 32.5572 52.937 32.4404C53.1717 32.3237 53.2626 32.028 53.1414 31.779C53.0203 31.5378 52.7402 31.4366 52.5055 31.5533C52.2708 31.67 52.18 31.9657 52.3011 32.2148Z" fill="#00679A" stroke="white" stroke-width="0.25" stroke-miterlimit="10"/>
<path id="Vector_127" d="M52.4984 31.0475C52.6195 31.2887 52.8996 31.3899 53.1343 31.2732C53.369 31.1564 53.4598 30.8607 53.3387 30.6117C53.2176 30.3705 52.9375 30.2693 52.7028 30.3861C52.4681 30.5028 52.3772 30.7985 52.4984 31.0475Z" fill="#00679A" stroke="white" stroke-width="0.25" stroke-miterlimit="10"/>
<path id="Vector_128" d="M50.3026 32.5883C50.4238 32.8295 50.7039 32.9307 50.9386 32.814C51.1733 32.6973 51.2641 32.4016 51.143 32.1525C51.0219 31.9113 50.7417 31.8101 50.5071 31.9269C50.2724 32.0436 50.1815 32.3393 50.3026 32.5883Z" fill="#00679A" stroke="white" stroke-width="0.25" stroke-miterlimit="10"/>
<g id="Vector_129">
<path d="M47.9785 34.4404C45.1471 34.6816 43.1711 33.5377 43.1711 33.5377C40.105 31.3277 43.3225 30.8608 43.3225 30.8608L46.8202 30.7596C47.176 30.674 47.4335 31.0476 47.4335 31.0476C47.971 32.0358 48.7583 32.1292 48.94 32.0981" fill="#00679A"/>
<path d="M47.9785 34.4404C45.1471 34.6816 43.1711 33.5377 43.1711 33.5377C40.105 31.3277 43.3225 30.8608 43.3225 30.8608L46.8202 30.7596C47.176 30.674 47.4335 31.0476 47.4335 31.0476C47.971 32.0358 48.7583 32.1292 48.94 32.0981" stroke="white" stroke-width="0.25" stroke-miterlimit="10"/>
</g>
<g id="Vector_130">
<path d="M47.6606 38.9615C41.6873 38.1911 42.1339 34.8138 42.1339 34.8138C44.7231 33.8255 47.4032 37.9265 47.4032 37.9265" fill="#00679A"/>
<path d="M47.6606 38.9615C41.6873 38.1911 42.1339 34.8138 42.1339 34.8138C44.7231 33.8255 47.4032 37.9265 47.4032 37.9265" stroke="white" stroke-width="0.25" stroke-miterlimit="10"/>
</g>
<path id="Vector_131" d="M50.999 34.3158C51.1202 34.5571 51.4003 34.6582 51.635 34.5415C51.8697 34.4248 51.9605 34.1291 51.8394 33.8801C51.7183 33.6388 51.4381 33.5377 51.2034 33.6544C50.9687 33.7711 50.8779 34.0668 50.999 34.3158Z" fill="#00679A" stroke="white" stroke-width="0.25" stroke-miterlimit="10"/>
<path id="Vector_132" d="M50.2652 33.4209C50.3864 33.6622 50.6665 33.7633 50.9012 33.6466C51.1359 33.5299 51.2267 33.2342 51.1056 32.9852C50.9845 32.7439 50.7043 32.6428 50.4696 32.7595C50.2349 32.8762 50.1441 33.1719 50.2652 33.4209Z" fill="#00679A" stroke="white" stroke-width="0.25" stroke-miterlimit="10"/>
<path id="Vector_133" d="M51.9533 34.6427C52.0744 34.8839 52.3546 34.9851 52.5893 34.8684C52.8239 34.7439 52.9148 34.4559 52.7937 34.2069C52.6725 33.9657 52.3924 33.8645 52.1577 33.9813C51.923 34.098 51.8322 34.3937 51.9533 34.6427Z" fill="#00679A" stroke="white" stroke-width="0.25" stroke-miterlimit="10"/>
<path id="Vector_134" d="M51.7864 33.8022C51.9075 34.0435 52.1877 34.1446 52.4224 34.0279C52.657 33.9112 52.7479 33.6155 52.6268 33.3665C52.5056 33.1252 52.2255 33.0241 51.9908 33.1408C51.7561 33.2575 51.6653 33.5532 51.7864 33.8022Z" fill="#00679A" stroke="white" stroke-width="0.25" stroke-miterlimit="10"/>
<path id="Vector_135" d="M53.0964 34.0979C53.2176 34.3392 53.4977 34.4403 53.7324 34.3236C53.9671 34.2069 54.0579 33.9112 53.9368 33.6622C53.8157 33.4209 53.5355 33.3198 53.3009 33.4365C53.0662 33.561 52.9753 33.8489 53.0964 34.0979Z" fill="#00679A" stroke="white" stroke-width="0.25" stroke-miterlimit="10"/>
<path id="Vector_136" d="M53.9065 32.6584C54.0276 32.8996 54.3078 33.0007 54.5424 32.884C54.7771 32.7673 54.868 32.4716 54.7469 32.2226C54.6257 31.9813 54.3456 31.8802 54.1109 31.9969C53.8762 32.1136 53.7854 32.4093 53.9065 32.6584Z" fill="#00679A" stroke="white" stroke-width="0.25" stroke-miterlimit="10"/>
<path id="Vector_137" d="M54.005 33.6778C54.1261 33.919 54.4062 34.0202 54.6409 33.9034C54.8756 33.7789 54.9665 33.491 54.8453 33.242C54.7242 33.0008 54.4441 32.8996 54.2094 33.0163C53.9747 33.1408 53.8838 33.4287 54.005 33.6778Z" fill="#00679A" stroke="white" stroke-width="0.25" stroke-miterlimit="10"/>
<g id="Vector_138">
<path d="M52.9601 34.8371C53.6339 35.0472 53.0586 35.343 53.0586 35.343C49.417 36.0044 47.1382 35.5064 47.1382 35.5064C46.6537 35.2262 47.2064 35.0862 47.2064 35.0862C47.2064 35.0862 47.7742 35.0706 48.4026 34.7982" fill="#00679A"/>
<path d="M52.9601 34.8371C53.6339 35.0472 53.0586 35.343 53.0586 35.343C49.417 36.0044 47.1382 35.5064 47.1382 35.5064C46.6537 35.2262 47.2064 35.0862 47.2064 35.0862C47.2064 35.0862 47.7742 35.0706 48.4026 34.7982" stroke="white" stroke-width="0.25" stroke-miterlimit="10"/>
</g>
<g id="Vector_139">
<path d="M53.7098 36.8216C53.9748 36.2535 53.3313 36.0979 53.3313 36.0979C53.3313 36.0979 51.0222 36.8605 48.8873 36.6426" fill="#00679A"/>
<path d="M53.7098 36.8216C53.9748 36.2535 53.3313 36.0979 53.3313 36.0979C53.3313 36.0979 51.0222 36.8605 48.8873 36.6426" stroke="white" stroke-width="0.25" stroke-miterlimit="10"/>
</g>
<path id="Vector_140" d="M53.7702 37.0394C53.8913 37.2807 54.1715 37.3818 54.4061 37.2651C54.6408 37.1406 54.7317 36.8527 54.6106 36.6036C54.4894 36.3624 54.2093 36.2613 53.9746 36.378C53.7399 36.5025 53.6491 36.7904 53.7702 37.0394Z" fill="#00679A" stroke="white" stroke-width="0.25" stroke-miterlimit="10"/>
<path id="Vector_141" d="M54.7313 36.8683C54.8524 37.1095 55.1325 37.2106 55.3672 37.0939C55.6019 36.9694 55.6928 36.6815 55.5717 36.4325C55.4505 36.1912 55.1704 36.0901 54.9357 36.2068C54.701 36.3313 54.6102 36.6192 54.7313 36.8683Z" fill="#00679A" stroke="white" stroke-width="0.25" stroke-miterlimit="10"/>
<path id="Vector_142" d="M54.3302 36.0045C54.4514 36.2457 54.7315 36.3469 54.9662 36.2302C55.2009 36.1057 55.2917 35.8178 55.1706 35.5687C55.0495 35.3275 54.7693 35.2263 54.5346 35.3431C54.2999 35.4676 54.2091 35.7555 54.3302 36.0045Z" fill="#00679A" stroke="white" stroke-width="0.25" stroke-miterlimit="10"/>
<path id="Vector_143" d="M55.0727 35.5998C55.1939 35.8411 55.474 35.9422 55.7087 35.8255C55.9434 35.701 56.0342 35.4131 55.9131 35.164C55.7919 34.9228 55.5118 34.8216 55.2771 34.9384C55.0424 35.0629 54.9516 35.3508 55.0727 35.5998Z" fill="#00679A" stroke="white" stroke-width="0.25" stroke-miterlimit="10"/>
<path id="Vector_144" d="M55.9202 35.3586C56.0414 35.5998 56.3215 35.701 56.5562 35.5843C56.7909 35.4675 56.8817 35.1718 56.7606 34.9228C56.6395 34.6816 56.3593 34.5804 56.1246 34.6971C55.8899 34.8217 55.7991 35.1096 55.9202 35.3586Z" fill="#00679A" stroke="white" stroke-width="0.25" stroke-miterlimit="10"/>
<path id="Vector_145" d="M54.2018 35.0785C54.3229 35.3197 54.6031 35.4209 54.8378 35.3042C55.0725 35.1874 55.1633 34.8917 55.0422 34.6427C54.921 34.4015 54.6409 34.3003 54.4062 34.417C54.1715 34.5338 54.0807 34.8295 54.2018 35.0785Z" fill="#00679A" stroke="white" stroke-width="0.25" stroke-miterlimit="10"/>
<g id="Vector_146">
<path d="M46.1386 42.3855C41.3463 40.4945 41.5129 37.1951 41.5129 37.1951C43.5191 36.697 45.8736 41.3038 45.8736 41.3038" fill="#00679A"/>
<path d="M46.1386 42.3855C41.3463 40.4945 41.5129 37.1951 41.5129 37.1951C43.5191 36.697 45.8736 41.3038 45.8736 41.3038" stroke="white" stroke-width="0.25" stroke-miterlimit="10"/>
</g>
<g id="Vector_147">
<path d="M53.3385 38.7202C54.9586 38.051 55.2766 38.7047 55.2766 38.7047C55.5416 38.4323 55.1933 37.8642 55.1933 37.8642C54.6407 37.5374 53.5429 37.9343 53.5429 37.9343C52.4603 38.3545 51.4458 38.1055 51.4458 38.1055C50.1815 38.0121 50.0528 36.6814 50.0528 36.6814" fill="#00679A"/>
<path d="M53.3385 38.7202C54.9586 38.051 55.2766 38.7047 55.2766 38.7047C55.5416 38.4323 55.1933 37.8642 55.1933 37.8642C54.6407 37.5374 53.5429 37.9343 53.5429 37.9343C52.4603 38.3545 51.4458 38.1055 51.4458 38.1055C50.1815 38.0121 50.0528 36.6814 50.0528 36.6814" stroke="white" stroke-width="0.25" stroke-miterlimit="10"/>
</g>
<g id="Vector_148">
<path d="M53.8613 40.3233C53.1345 39.5763 52.4607 39.4829 52.4607 39.4829C51.749 39.5763 51.1812 39.2961 51.1812 39.2961C50.6437 39.335 49.7882 38.2145 49.7882 38.2145C48.6905 36.7126 47.3656 36.7126 47.3656 36.7126C48.0167 37.0861 48.3876 37.7787 48.4028 38.0121" fill="#00679A"/>
<path d="M53.8613 40.3233C53.1345 39.5763 52.4607 39.4829 52.4607 39.4829C51.749 39.5763 51.1812 39.2961 51.1812 39.2961C50.6437 39.335 49.7882 38.2145 49.7882 38.2145C48.6905 36.7126 47.3656 36.7126 47.3656 36.7126C48.0167 37.0861 48.3876 37.7787 48.4028 38.0121" stroke="white" stroke-width="0.25" stroke-miterlimit="10"/>
</g>
<path id="Vector_149" d="M55.4662 38.0666C55.5873 38.3078 55.8674 38.409 56.1021 38.2923C56.3368 38.1677 56.4276 37.8798 56.3065 37.6308C56.1854 37.3896 55.9053 37.2884 55.6706 37.4051C55.4359 37.5219 55.345 37.8176 55.4662 38.0666Z" fill="#00679A" stroke="white" stroke-width="0.25" stroke-miterlimit="10"/>
<path id="Vector_150" d="M56.2005 37.1406C56.3216 37.3818 56.6017 37.483 56.8364 37.3662C57.0711 37.2495 57.162 36.9538 57.0408 36.7048C56.9197 36.4636 56.6396 36.3624 56.4049 36.4791C56.1702 36.6036 56.0793 36.8915 56.2005 37.1406Z" fill="#00679A" stroke="white" stroke-width="0.25" stroke-miterlimit="10"/>
<path id="Vector_151" d="M56.7155 38.8759C56.8367 39.1171 57.1168 39.2183 57.3515 39.1016C57.5862 38.977 57.677 38.6891 57.5559 38.4401C57.4347 38.1989 57.1546 38.0977 56.9199 38.2144C56.6852 38.3389 56.5944 38.6269 56.7155 38.8759Z" fill="#00679A" stroke="white" stroke-width="0.25" stroke-miterlimit="10"/>
<path id="Vector_152" d="M56.8819 40.6891C57.0031 40.9303 57.2832 41.0314 57.5179 40.9147C57.7526 40.7902 57.8434 40.5023 57.7223 40.2533C57.6012 40.012 57.321 39.9109 57.0863 40.0276C56.8517 40.1521 56.7608 40.44 56.8819 40.6891Z" fill="#00679A" stroke="white" stroke-width="0.25" stroke-miterlimit="10"/>
<path id="Vector_153" d="M55.3071 39.2961C55.4283 39.5374 55.7084 39.6385 55.9431 39.5218C56.1778 39.3973 56.2686 39.1094 56.1475 38.8604C56.0264 38.6191 55.7462 38.518 55.5115 38.6347C55.2768 38.7514 55.186 39.0471 55.3071 39.2961Z" fill="#00679A" stroke="white" stroke-width="0.25" stroke-miterlimit="10"/>
<path id="Vector_154" d="M55.4435 40.3856C55.5646 40.6268 55.8447 40.728 56.0794 40.6113C56.3141 40.4867 56.4049 40.1988 56.2838 39.9498C56.1627 39.7086 55.8826 39.6074 55.6479 39.7241C55.4132 39.8486 55.3223 40.1366 55.4435 40.3856Z" fill="#00679A" stroke="white" stroke-width="0.25" stroke-miterlimit="10"/>
<path id="Vector_155" d="M53.5279 41.3427C53.649 41.5839 53.9291 41.6851 54.1638 41.5684C54.3985 41.4439 54.4894 41.1559 54.3682 40.9069C54.2471 40.6657 53.967 40.5645 53.7323 40.6813C53.4976 40.798 53.4067 41.0937 53.5279 41.3427Z" fill="#00679A" stroke="white" stroke-width="0.25" stroke-miterlimit="10"/>
<path id="Vector_156" d="M55.1256 41.4983C55.2467 41.7395 55.5268 41.8407 55.7615 41.724C55.9962 41.5995 56.087 41.3116 55.9659 41.0625C55.8448 40.8213 55.5647 40.7201 55.33 40.8369C55.0953 40.9614 55.0044 41.2493 55.1256 41.4983Z" fill="#00679A" stroke="white" stroke-width="0.25" stroke-miterlimit="10"/>
<path id="Vector_157" d="M56.2758 41.9575C56.3969 42.1987 56.677 42.2998 56.9117 42.1831C57.1464 42.0586 57.2373 41.7707 57.1161 41.5217C56.995 41.2804 56.7149 41.1793 56.4802 41.296C56.2455 41.4205 56.1547 41.7084 56.2758 41.9575Z" fill="#00679A" stroke="white" stroke-width="0.25" stroke-miterlimit="10"/>
<g id="Vector_158">
<path d="M47.8804 48.8132C48.6375 49.0933 48.312 48.4163 48.312 48.4163C45.4124 45.2647 42.9973 44.1286 42.9973 44.1286C42.3614 44.0508 42.7853 44.5566 42.7853 44.5566C42.7853 44.5566 43.2926 44.9612 43.6938 45.6616" fill="#00679A"/>
<path d="M47.8804 48.8132C48.6375 49.0933 48.312 48.4163 48.312 48.4163C45.4124 45.2647 42.9973 44.1286 42.9973 44.1286C42.3614 44.0508 42.7853 44.5566 42.7853 44.5566C42.7853 44.5566 43.2926 44.9612 43.6938 45.6616" stroke="white" stroke-width="0.25" stroke-miterlimit="10"/>
</g>
<g id="Vector_159">
<path d="M49.8861 47.5214C49.7499 48.2295 49.0609 47.9183 49.0609 47.9183C49.0609 47.9183 47.4559 45.6071 45.3513 44.3153" fill="#00679A"/>
<path d="M49.8861 47.5214C49.7499 48.2295 49.0609 47.9183 49.0609 47.9183C49.0609 47.9183 47.4559 45.6071 45.3513 44.3153" stroke="white" stroke-width="0.25" stroke-miterlimit="10"/>
</g>
<path id="Vector_160" d="M50.0836 47.3657C50.3561 47.2256 50.6816 47.3346 50.8179 47.6069C50.9542 47.8793 50.8406 48.2139 50.5681 48.354C50.2955 48.4941 49.97 48.3851 49.8337 48.1128C49.6974 47.8404 49.811 47.5058 50.0836 47.3657Z" fill="#00679A" stroke="white" stroke-width="0.25" stroke-miterlimit="10"/>
<path id="Vector_161" d="M50.8555 48.1906C51.1281 48.0506 51.4536 48.1595 51.5899 48.4319C51.7262 48.7042 51.6126 49.0388 51.34 49.1789C51.0675 49.319 50.742 49.21 50.6057 48.9377C50.4694 48.6653 50.583 48.3307 50.8555 48.1906Z" fill="#00679A" stroke="white" stroke-width="0.25" stroke-miterlimit="10"/>
<path id="Vector_162" d="M49.9169 48.7042C50.1894 48.5641 50.515 48.6731 50.6512 48.9454C50.7875 49.2178 50.6739 49.5524 50.4014 49.6925C50.1288 49.8325 49.8033 49.7236 49.667 49.4512C49.5308 49.1789 49.6443 48.8443 49.9169 48.7042Z" fill="#00679A" stroke="white" stroke-width="0.25" stroke-miterlimit="10"/>
<path id="Vector_163" d="M50.3181 49.5991C50.5907 49.459 50.9162 49.5679 51.0525 49.8403C51.1888 50.1126 51.0752 50.4473 50.8027 50.5873C50.5301 50.7274 50.2046 50.6185 50.0683 50.3461C49.932 50.0737 50.0456 49.7391 50.3181 49.5991Z" fill="#00679A" stroke="white" stroke-width="0.25" stroke-miterlimit="10"/>
<path id="Vector_164" d="M50.9459 50.4084C51.2185 50.2684 51.544 50.3773 51.6803 50.6497C51.8166 50.922 51.703 51.2566 51.4305 51.3967C51.1579 51.5368 50.8324 51.4278 50.6961 51.1555C50.5598 50.8831 50.6734 50.5485 50.9459 50.4084Z" fill="#00679A" stroke="white" stroke-width="0.25" stroke-miterlimit="10"/>
<path id="Vector_165" d="M49.1743 49.4591C49.4469 49.319 49.7724 49.4279 49.9087 49.7003C50.0449 49.9727 49.9314 50.3073 49.6588 50.4473C49.3863 50.5874 49.0607 50.4785 48.9245 50.2061C48.7882 49.9338 48.9018 49.5991 49.1743 49.4591Z" fill="#00679A" stroke="white" stroke-width="0.25" stroke-miterlimit="10"/>
<g id="Vector_166">
<path d="M50.8026 45.5215C51.8474 47.2724 52.5666 46.8989 52.5666 46.8989C52.6271 47.3346 51.9306 47.6148 51.9306 47.6148C51.2038 47.5214 50.4695 46.393 50.4695 46.393C49.7578 45.2491 48.6601 44.7744 48.6601 44.7744C47.4412 43.9729 46.4418 45.1013 46.4418 45.1013" fill="#00679A"/>
<path d="M50.8026 45.5215C51.8474 47.2724 52.5666 46.8989 52.5666 46.8989C52.6271 47.3346 51.9306 47.6148 51.9306 47.6148C51.2038 47.5214 50.4695 46.393 50.4695 46.393C49.7578 45.2491 48.6601 44.7744 48.6601 44.7744C47.4412 43.9729 46.4418 45.1013 46.4418 45.1013" stroke="white" stroke-width="0.25" stroke-miterlimit="10"/>
</g>
<g id="Vector_167">
<path d="M52.3468 44.4243C51.1884 44.5955 50.5071 44.2142 50.5071 44.2142C49.9165 43.6306 49.2125 43.4905 49.2125 43.4905C48.7431 43.0703 47.2214 43.506 47.2214 43.506C45.2151 44.113 44.0114 43.187 44.0114 43.187C44.8593 43.2959 45.6542 42.9224 45.8208 42.7201" fill="#00679A"/>
<path d="M52.3468 44.4243C51.1884 44.5955 50.5071 44.2142 50.5071 44.2142C49.9165 43.6306 49.2125 43.4905 49.2125 43.4905C48.7431 43.0703 47.2214 43.506 47.2214 43.506C45.2151 44.113 44.0114 43.187 44.0114 43.187C44.8593 43.2959 45.6542 42.9224 45.8208 42.7201" stroke="white" stroke-width="0.25" stroke-miterlimit="10"/>
</g>
<path id="Vector_168" d="M52.3164 47.6148C52.589 47.4747 52.9145 47.5836 53.0508 47.856C53.1871 48.1284 53.0735 48.463 52.801 48.603C52.5284 48.7431 52.2029 48.6342 52.0666 48.3618C51.9303 48.0895 52.0439 47.7548 52.3164 47.6148Z" fill="#00679A" stroke="white" stroke-width="0.25" stroke-miterlimit="10"/>
<path id="Vector_169" d="M52.3773 48.9766C52.6499 48.8365 52.9754 48.9454 53.1117 49.2178C53.248 49.4901 53.1344 49.8248 52.8619 49.9648C52.5893 50.1049 52.2638 49.996 52.1275 49.7236C51.9912 49.4512 52.1048 49.1166 52.3773 48.9766Z" fill="#00679A" stroke="white" stroke-width="0.25" stroke-miterlimit="10"/>
<path id="Vector_170" d="M54.0051 47.7471C54.2777 47.607 54.6032 47.7159 54.7395 47.9883C54.8758 48.2607 54.7622 48.5953 54.4896 48.7353C54.2171 48.8754 53.8916 48.7665 53.7553 48.4941C53.619 48.2217 53.7326 47.8871 54.0051 47.7471Z" fill="#00679A" stroke="white" stroke-width="0.25" stroke-miterlimit="10"/>
<path id="Vector_171" d="M55.3601 46.1985C55.6326 46.0584 55.9582 46.1674 56.0945 46.4397C56.2307 46.7121 56.1172 47.0467 55.8446 47.1868C55.5721 47.3269 55.2465 47.2179 55.1103 46.9456C54.974 46.6732 55.0876 46.3386 55.3601 46.1985Z" fill="#00679A" stroke="white" stroke-width="0.25" stroke-miterlimit="10"/>
<path id="Vector_172" d="M52.9902 46.3697C53.2627 46.2296 53.5883 46.3386 53.7245 46.6109C53.8608 46.8833 53.7472 47.2179 53.4747 47.358C53.2021 47.498 52.8766 47.3891 52.7403 47.1167C52.6041 46.8444 52.7176 46.5098 52.9902 46.3697Z" fill="#00679A" stroke="white" stroke-width="0.25" stroke-miterlimit="10"/>
<path id="Vector_173" d="M53.8382 45.4748C54.1108 45.3347 54.4363 45.4436 54.5726 45.716C54.7089 45.9883 54.5953 46.323 54.3227 46.463C54.0502 46.6031 53.7247 46.4942 53.5884 46.2218C53.4521 45.9494 53.5657 45.6148 53.8382 45.4748Z" fill="#00679A" stroke="white" stroke-width="0.25" stroke-miterlimit="10"/>
<path id="Vector_174" d="M52.7177 43.257C52.9903 43.1169 53.3158 43.2259 53.4521 43.4982C53.5884 43.7706 53.4748 44.1052 53.2023 44.2453C52.9297 44.3854 52.6042 44.2764 52.4679 44.0041C52.3316 43.7317 52.4452 43.3971 52.7177 43.257Z" fill="#00679A" stroke="white" stroke-width="0.25" stroke-miterlimit="10"/>
<path id="Vector_175" d="M54.2927 44.2297C54.5653 44.0897 54.8908 44.1986 55.0271 44.471C55.1634 44.7433 55.0498 45.0779 54.7773 45.218C54.5047 45.3581 54.1792 45.2491 54.0429 44.9768C53.9066 44.7044 54.0202 44.3698 54.2927 44.2297Z" fill="#00679A" stroke="white" stroke-width="0.25" stroke-miterlimit="10"/>
<path id="Vector_176" d="M55.6479 44.6188C55.9204 44.4788 56.246 44.5877 56.3822 44.8601C56.5185 45.1324 56.405 45.467 56.1324 45.6071C55.8599 45.7472 55.5343 45.6382 55.398 45.3659C55.2618 45.0935 55.3753 44.7589 55.6479 44.6188Z" fill="#00679A" stroke="white" stroke-width="0.25" stroke-miterlimit="10"/>
<g id="Vector_177">
<path d="M52.3848 41.6384C52.8693 42.082 52.3318 42.152 52.3318 42.152C49.2429 41.4283 47.5547 40.121 47.5547 40.121C47.2443 39.6774 47.7212 39.7553 47.7212 39.7553C47.7212 39.7553 48.1755 39.9498 48.7508 39.9264" fill="#00679A"/>
<path d="M52.3848 41.6384C52.8693 42.082 52.3318 42.152 52.3318 42.152C49.2429 41.4283 47.5547 40.121 47.5547 40.121C47.2443 39.6774 47.7212 39.7553 47.7212 39.7553C47.7212 39.7553 48.1755 39.9498 48.7508 39.9264" stroke="white" stroke-width="0.25" stroke-miterlimit="10"/>
</g>
<g id="Vector_178">
<path d="M51.5445 43.5449C52.0063 43.1247 51.4688 42.7279 51.4688 42.7279C51.4688 42.7279 49.0613 42.5022 47.1686 41.4517" fill="#00679A"/>
<path d="M51.5445 43.5449C52.0063 43.1247 51.4688 42.7279 51.4688 42.7279C51.4688 42.7279 49.0613 42.5022 47.1686 41.4517" stroke="white" stroke-width="0.25" stroke-miterlimit="10"/>
</g>
<path id="Vector_179" d="M53.5203 44.8055C53.5658 44.541 53.3992 44.2842 53.1418 44.2297C52.8844 44.183 52.6421 44.362 52.5891 44.6266C52.5437 44.8911 52.7103 45.1479 52.9677 45.2024C53.2251 45.2491 53.4749 45.0701 53.5203 44.8055Z" fill="#00679A" stroke="white" stroke-width="0.25" stroke-miterlimit="10"/>
<path id="Vector_180" d="M53.2705 45.7472C53.316 45.4826 53.1494 45.2258 52.892 45.1713C52.6346 45.1246 52.3848 45.3036 52.3393 45.5682C52.2939 45.8328 52.4605 46.0896 52.7179 46.144C52.9753 46.1907 53.2175 46.0117 53.2705 45.7472Z" fill="#00679A" stroke="white" stroke-width="0.25" stroke-miterlimit="10"/>
<path id="Vector_181" d="M52.1801 45.3581C52.2256 45.0935 52.059 44.8367 51.8016 44.7822C51.5442 44.7356 51.2944 44.9145 51.2489 45.1791C51.2035 45.4437 51.3701 45.7005 51.6275 45.755C51.8849 45.8017 52.1271 45.6227 52.1801 45.3581Z" fill="#00679A" stroke="white" stroke-width="0.25" stroke-miterlimit="10"/>
<path id="Vector_182" d="M57.2377 43.685C57.2831 43.4204 57.1166 43.1636 56.8592 43.1092C56.6018 43.0625 56.3519 43.2414 56.3065 43.506C56.2611 43.7706 56.4276 44.0274 56.685 44.0819C56.9424 44.1286 57.1847 43.9496 57.2377 43.685Z" fill="#00679A" stroke="white" stroke-width="0.25" stroke-miterlimit="10"/>
<path id="Vector_183" d="M56.1624 43.9963C56.2079 43.7317 56.0413 43.4749 55.7839 43.4204C55.5265 43.3737 55.2767 43.5527 55.2312 43.8173C55.1858 44.0819 55.3524 44.3387 55.6098 44.3931C55.8672 44.4398 56.1095 44.2609 56.1624 43.9963Z" fill="#00679A" stroke="white" stroke-width="0.25" stroke-miterlimit="10"/>
<path id="Vector_184" d="M55.3825 43.4983C55.428 43.2337 55.2614 42.9769 55.004 42.9224C54.7466 42.8758 54.4968 43.0547 54.4513 43.3193C54.4059 43.5839 54.5725 43.8407 54.8299 43.8952C55.0873 43.9419 55.3295 43.7629 55.3825 43.4983Z" fill="#00679A" stroke="white" stroke-width="0.25" stroke-miterlimit="10"/>
<path id="Vector_185" d="M54.353 43.1481C54.3985 42.8835 54.2319 42.6267 53.9745 42.5722C53.7171 42.5255 53.4748 42.7045 53.4218 42.9691C53.3764 43.2337 53.543 43.4905 53.8004 43.5449C54.0578 43.5916 54.3076 43.4126 54.353 43.1481Z" fill="#00679A" stroke="white" stroke-width="0.25" stroke-miterlimit="10"/>
<path id="Vector_186" d="M57.9642 42.5955C58.0096 42.3309 57.843 42.0741 57.5856 42.0197C57.3282 41.973 57.086 42.152 57.033 42.4165C56.9875 42.6811 57.1541 42.9379 57.4115 42.9924C57.6689 43.0391 57.9112 42.8601 57.9642 42.5955Z" fill="#00679A" stroke="white" stroke-width="0.25" stroke-miterlimit="10"/>
<path id="Vector_187" d="M55.0723 40.0821C55.1177 39.8175 54.9511 39.5607 54.6937 39.5062C54.4363 39.4596 54.1865 39.6385 54.1411 39.9031C54.0956 40.1677 54.2622 40.4245 54.5196 40.479C54.777 40.5257 55.0193 40.3467 55.0723 40.0821Z" fill="#00679A" stroke="white" stroke-width="0.25" stroke-miterlimit="10"/>
<path id="Vector_188" d="M56.1099 42.4088C56.1553 42.1442 55.9887 41.8874 55.7313 41.833C55.4739 41.7863 55.2241 41.9653 55.1787 42.2298C55.1332 42.4944 55.2998 42.7512 55.5572 42.8057C55.8146 42.8524 56.0644 42.6734 56.1099 42.4088Z" fill="#00679A" stroke="white" stroke-width="0.25" stroke-miterlimit="10"/>
<path id="Vector_189" d="M55.0723 42.0586C55.1177 41.794 54.9511 41.5372 54.6937 41.4827C54.4363 41.4361 54.1865 41.615 54.1411 41.8796C54.0956 42.1442 54.2622 42.401 54.5196 42.4555C54.777 42.5022 55.0268 42.3232 55.0723 42.0586Z" fill="#00679A" stroke="white" stroke-width="0.25" stroke-miterlimit="10"/>
</g>
</g>
</g>
</svg>
